<svg width="534" height="272" viewBox="0 0 534 272" fill="none" xmlns="http://www.w3.org/2000/svg">
<g clip-path="url(#clip0_30_15480)">
<g clip-path="url(#clip1_30_15480)">
<path d="M274.876 113C364.481 113 409.283 113 437.119 140.837C461.725 165.442 464.581 203.302 464.913 273.642H69C69.3316 203.302 72.1879 165.442 96.793 140.837C124.63 113 169.432 113 259.036 113H274.876Z" fill="#0077FF"/>
</g>
<g clip-path="url(#clip2_30_15480)">
<rect x="135" y="10" width="263" height="540" rx="40" fill="white"/>
<g clip-path="url(#clip3_30_15480)">
<rect x="148" y="23" width="237" height="513.184" rx="8.848" fill="white"/>
<g clip-path="url(#clip4_30_15480)">
<g clip-path="url(#clip5_30_15480)">
<rect x="148" y="23" width="237" height="91.008" fill="white"/>
<path opacity="0.4" d="M360.668 36.5881C360.668 36.1404 360.668 35.8237 360.688 35.5761C360.708 35.3321 360.746 35.1832 360.806 35.0662C360.927 34.8284 361.12 34.635 361.358 34.5138C361.475 34.4542 361.624 34.4165 361.868 34.3965C362.116 34.3763 362.432 34.3761 362.88 34.3761H371.728C372.176 34.3761 372.492 34.3763 372.74 34.3965C372.984 34.4165 373.133 34.4542 373.25 34.5138C373.488 34.635 373.681 34.8284 373.802 35.0662C373.862 35.1832 373.9 35.3321 373.92 35.5761C373.94 35.8237 373.94 36.1404 373.94 36.5881V38.1681C373.94 38.6157 373.94 38.9325 373.92 39.1801C373.9 39.424 373.862 39.5729 373.802 39.6899C373.681 39.9277 373.488 40.1211 373.25 40.2423C373.133 40.3019 372.984 40.3397 372.74 40.3596C372.492 40.3798 372.176 40.3801 371.728 40.3801H362.88C362.432 40.3801 362.116 40.3798 361.868 40.3596C361.624 40.3397 361.475 40.3019 361.358 40.2423C361.12 40.1211 360.927 39.9277 360.806 39.6899C360.746 39.5729 360.708 39.424 360.688 39.1801C360.668 38.9325 360.668 38.6157 360.668 38.1681V36.5881Z" stroke="black" stroke-width="0.632"/>
<path opacity="0.4" fill-rule="evenodd" clip-rule="evenodd" d="M374.888 38.7203C375.433 38.58 375.836 38.0851 375.836 37.4962C375.836 36.9072 375.433 36.4123 374.888 36.272V38.7203Z" fill="black"/>
<rect x="361.616" y="35.324" width="11.376" height="4.108" rx="0.632" fill="black"/>
<path fill-rule="evenodd" clip-rule="evenodd" d="M352.345 35.3923C353.745 35.3923 355.092 35.9304 356.107 36.8954C356.183 36.9699 356.306 36.9689 356.381 36.8933L357.112 36.1559C357.15 36.1176 357.171 36.0656 357.171 36.0115C357.17 35.9574 357.148 35.9057 357.11 35.8677C354.446 33.3148 350.243 33.3148 347.579 35.8677C347.541 35.9056 347.519 35.9574 347.518 36.0115C347.518 36.0655 347.539 36.1175 347.577 36.1559L348.308 36.8933C348.383 36.9691 348.506 36.97 348.582 36.8954C349.597 35.9304 350.944 35.3923 352.345 35.3923ZM352.345 37.7911C353.114 37.7911 353.856 38.0771 354.427 38.5936C354.504 38.6669 354.625 38.6653 354.7 38.59L355.43 37.8527C355.469 37.814 355.49 37.7615 355.489 37.707C355.489 37.6525 355.466 37.6005 355.427 37.5626C353.69 35.9469 351.001 35.9469 349.264 37.5626C349.225 37.6005 349.202 37.6525 349.202 37.707C349.201 37.7616 349.223 37.814 349.261 37.8527L349.991 38.59C350.066 38.6653 350.187 38.6669 350.264 38.5936C350.834 38.0774 351.576 37.7915 352.345 37.7911ZM353.807 39.4052C353.808 39.4598 353.786 39.5125 353.747 39.5508L352.485 40.8247C352.448 40.8622 352.397 40.8833 352.345 40.8833C352.292 40.8833 352.242 40.8622 352.205 40.8247L350.942 39.5508C350.903 39.5125 350.882 39.4598 350.883 39.4051C350.884 39.3504 350.908 39.2987 350.948 39.262C351.754 38.5802 352.935 38.5802 353.741 39.262C353.782 39.2987 353.805 39.3505 353.807 39.4052Z" fill="black"/>
<path fill-rule="evenodd" clip-rule="evenodd" d="M344.341 34.7974C344.341 34.4484 344.058 34.1654 343.709 34.1654H343.077C342.728 34.1654 342.445 34.4484 342.445 34.7974V40.2747C342.445 40.6238 342.728 40.9067 343.077 40.9067H343.709C344.058 40.9067 344.341 40.6238 344.341 40.2747V34.7974ZM340.128 35.6401H340.76C341.109 35.6401 341.392 35.9231 341.392 36.2721V40.2748C341.392 40.6238 341.109 40.9068 340.76 40.9068H340.128C339.779 40.9068 339.496 40.6238 339.496 40.2748V36.2721C339.496 35.9231 339.779 35.6401 340.128 35.6401ZM337.811 37.1147H337.179C336.83 37.1147 336.547 37.3977 336.547 37.7467V40.2747C336.547 40.6238 336.83 40.9067 337.179 40.9067H337.811C338.16 40.9067 338.443 40.6238 338.443 40.2747V37.7467C338.443 37.3977 338.16 37.1147 337.811 37.1147ZM335.493 39.0107C335.493 38.6617 335.21 38.3787 334.861 38.3787H334.229C333.88 38.3787 333.597 38.6617 333.597 39.0107V40.2747C333.597 40.6238 333.88 40.9067 334.229 40.9067H334.861C335.21 40.9067 335.493 40.6238 335.493 40.2747V39.0107Z" fill="black"/>
<path d="M167.786 41.0565H168.981V34.377H167.791L166.046 35.6037V36.7285L167.708 35.5527H167.786V41.0565ZM170.647 41.0565H175.285V40.0659H172.263V39.9687L173.6 38.6726C174.818 37.5015 175.184 36.8998 175.184 36.1406V36.1267C175.184 35.0019 174.248 34.2104 172.948 34.2104C171.554 34.2104 170.582 35.0806 170.582 36.3258L170.587 36.3397L171.698 36.3443L171.703 36.3258C171.703 35.6361 172.179 35.1686 172.888 35.1686C173.582 35.1686 174.003 35.6129 174.003 36.2286V36.2425C174.003 36.7563 173.749 37.0942 172.841 38.0107L170.647 40.2511V41.0565ZM177.281 36.7285C177.706 36.7285 178.017 36.4045 178.017 35.9971C178.017 35.5852 177.706 35.2658 177.281 35.2658C176.859 35.2658 176.545 35.5852 176.545 35.9971C176.545 36.4045 176.859 36.7285 177.281 36.7285ZM177.281 40.1631C177.706 40.1631 178.017 39.8437 178.017 39.4318C178.017 39.0198 177.706 38.7004 177.281 38.7004C176.859 38.7004 176.545 39.0198 176.545 39.4318C176.545 39.8437 176.859 40.1631 177.281 40.1631ZM182.433 41.0565H183.576V39.7743H184.474V38.7884H183.576V34.377H181.887C180.979 35.7564 180.03 37.2932 179.165 38.7976V39.7743H182.433V41.0565ZM180.276 38.8161V38.7467C180.924 37.6126 181.697 36.3767 182.382 35.3306H182.451V38.8161H180.276ZM188.025 41.1908C189.561 41.1908 190.631 40.3946 190.631 39.2512V39.242C190.631 38.3856 190.01 37.7237 189.117 37.5432V37.5154C189.881 37.3117 190.39 36.7516 190.39 36.0342V36.0249C190.39 34.9973 189.409 34.2428 188.025 34.2428C186.641 34.2428 185.659 34.9973 185.659 36.0249V36.0342C185.659 36.7516 186.168 37.3117 186.932 37.5154V37.5432C186.043 37.7237 185.419 38.3856 185.419 39.242V39.2512C185.419 40.3946 186.488 41.1908 188.025 41.1908ZM188.025 37.1358C187.326 37.1358 186.84 36.7285 186.84 36.1452V36.136C186.84 35.5527 187.326 35.1454 188.025 35.1454C188.724 35.1454 189.21 35.5527 189.21 36.136V36.1452C189.21 36.7285 188.724 37.1358 188.025 37.1358ZM188.025 40.2789C187.224 40.2789 186.655 39.816 186.655 39.1726V39.1633C186.655 38.5152 187.215 38.0477 188.025 38.0477C188.83 38.0477 189.395 38.5152 189.395 39.1633V39.1726C189.395 39.816 188.825 40.2789 188.025 40.2789Z" fill="black"/>
<path d="M207.657 67.2711H208.639C209.637 67.2711 210.21 67.7204 210.21 68.4413V68.4512C210.21 69.1622 209.597 69.6362 208.674 69.6362C207.77 69.6362 207.153 69.2313 207.079 68.5548L207.074 68.5203H205.998V68.5697C206.082 69.7991 207.143 70.6088 208.674 70.6088C210.175 70.6088 211.335 69.7102 211.335 68.5055V68.4956C211.335 67.4982 210.674 66.8613 209.75 66.7675V66.6835C210.54 66.5008 211.088 65.8442 211.088 65.064V65.0542C211.088 63.9284 210.101 63.1384 208.699 63.1384C207.247 63.1384 206.289 63.8988 206.19 65.1233L206.181 65.2023H207.242L207.247 65.1677C207.316 64.5012 207.849 64.1111 208.664 64.1111C209.499 64.1111 209.992 64.5209 209.992 65.1677V65.1776C209.992 65.8639 209.454 66.3379 208.61 66.3379H207.657V67.2711ZM212.491 70.436H214.94C216.12 70.436 216.826 69.8238 216.826 68.9054V68.8955C216.826 68.2586 216.372 67.7747 215.676 67.6908V67.6068C216.204 67.5081 216.584 67.0094 216.584 66.4613V66.4515C216.584 65.617 215.967 65.0739 214.915 65.0739H212.491V70.436ZM213.552 67.3205V65.859H214.698C215.266 65.859 215.527 66.1503 215.527 66.5798V66.5897C215.527 67.0637 215.226 67.3205 214.584 67.3205H213.552ZM213.552 69.646V68.0907H214.663C215.379 68.0907 215.73 68.3376 215.73 68.856V68.8659C215.73 69.3597 215.419 69.646 214.802 69.646H213.552ZM220.243 70.5397C221.813 70.5397 222.776 69.488 222.776 67.7599V67.75C222.776 66.0219 221.808 64.9702 220.243 64.9702C218.673 64.9702 217.705 66.0268 217.705 67.75V67.7599C217.705 69.488 218.668 70.5397 220.243 70.5397ZM220.243 69.646C219.32 69.646 218.801 68.9498 218.801 67.7599V67.75C218.801 66.5601 219.32 65.8639 220.243 65.8639C221.161 65.8639 221.685 66.5601 221.685 67.75V67.7599C221.685 68.9449 221.161 69.646 220.243 69.646ZM227.452 70.436H228.518V65.0739H227.452V67.2365H225.018V65.0739H223.946V70.436H225.018V68.0858H227.452V70.436ZM231.289 68.066L233.209 70.436H234.533L232.158 67.5723L234.434 65.0739H233.185L231.284 67.2662H231.017V65.0739H229.946V70.436H231.017V68.066H231.289ZM235.461 70.436H236.523L238.947 66.6588H239.041V70.436H240.102V65.0739H239.041L236.616 68.8363H236.523V65.0739H235.461V70.436Z" fill="#818C99"/>
<rect x="274.716" y="76.088" width="63.2" height="1.264" rx="0.632" fill="#3F8AE0"/>
<path d="M290.034 72.0112V70.604H295.14V72.0112H296.157V69.6511H295.268V63.4792H290.543L290.281 67.7995C290.227 68.7426 290.049 69.3499 289.54 69.6511H289.022V72.0112H290.034ZM291.308 67.8538L291.525 64.4321H294.162V69.6511H290.829V69.5819C291.16 69.182 291.259 68.6438 291.308 67.8538ZM297.125 72.3914H298.196V69.7548H298.275C298.561 70.3324 299.188 70.6929 299.924 70.6929C301.287 70.6929 302.146 69.6264 302.146 67.9279V67.918C302.146 66.2294 301.277 65.1481 299.924 65.1481C299.174 65.1481 298.586 65.4986 298.275 66.0862H298.196V65.2419H297.125V72.3914ZM299.623 69.7794C298.729 69.7794 298.176 69.0734 298.176 67.9279V67.918C298.176 66.7725 298.729 66.0664 299.623 66.0664C300.517 66.0664 301.055 66.7626 301.055 67.918V67.9279C301.055 69.0783 300.517 69.7794 299.623 69.7794ZM303.647 72.4901C304.734 72.4901 305.277 72.0902 305.731 70.8114L307.726 65.2419H306.6L305.262 69.5276H305.168L303.825 65.2419H302.67L304.615 70.6089L304.536 70.8854C304.378 71.4286 304.077 71.6409 303.578 71.6409C303.455 71.6409 303.321 71.6359 303.218 71.6211V72.4654C303.356 72.4803 303.514 72.4901 303.647 72.4901ZM310.432 70.7077C311.755 70.7077 312.624 70.0214 312.624 69.0289V69.0191C312.624 68.4167 312.258 67.9921 311.528 67.839V67.7551C312.086 67.6267 312.441 67.1675 312.441 66.6145V66.6046C312.441 65.7159 311.701 65.1333 310.461 65.1333C309.242 65.1333 308.471 65.7307 308.348 66.6392L308.343 66.6738H309.37L309.375 66.6491C309.454 66.2442 309.864 65.9825 310.437 65.9825C311.078 65.9825 311.399 66.2936 311.399 66.7133V66.7231C311.399 67.2169 311.064 67.4786 310.417 67.4786H309.622V68.2587H310.422C311.167 68.2587 311.567 68.5105 311.567 69.0289V69.0388C311.567 69.5227 311.143 69.8634 310.422 69.8634C309.814 69.8634 309.375 69.6066 309.266 69.182L309.256 69.1474H308.2L308.205 69.1869C308.318 70.1547 309.242 70.7077 310.432 70.7077ZM313.804 70.604H315.927C317.171 70.604 317.966 69.8881 317.966 68.7574V68.7475C317.966 67.6218 317.171 66.9058 315.927 66.9058H314.876V65.2419H313.804V70.604ZM315.838 67.7501C316.48 67.7501 316.89 68.1451 316.89 68.7475V68.7574C316.89 69.3548 316.485 69.7597 315.838 69.7597H314.876V67.7501H315.838ZM321.931 70.604H322.988V65.2419H320.924C319.685 65.2419 318.875 65.9282 318.875 67.0391V67.049C318.875 67.7798 319.329 68.3525 320.07 68.5648L318.604 70.604H319.838L321.141 68.7475H321.931V70.604ZM320.978 67.9279C320.342 67.9279 319.951 67.5526 319.951 67.0391V67.0293C319.951 66.4417 320.337 66.0813 320.978 66.0813H321.931V67.9279H320.978Z" fill="black"/>
<path d="M155.584 95.8801C155.584 92.3405 155.584 90.5708 156.273 89.2188C156.879 88.0297 157.846 87.0628 159.035 86.4569C160.387 85.7681 162.156 85.7681 165.696 85.7681H367.304C370.844 85.7681 372.613 85.7681 373.965 86.4569C375.154 87.0628 376.121 88.0297 376.727 89.2188C377.416 90.5708 377.416 92.3405 377.416 95.8801V98.4081C377.416 101.948 377.416 103.717 376.727 105.069C376.121 106.258 375.154 107.225 373.965 107.831C372.613 108.52 370.844 108.52 367.304 108.52H165.696C162.156 108.52 160.387 108.52 159.035 107.831C157.846 107.225 156.879 106.258 156.273 105.069C155.584 103.717 155.584 101.948 155.584 98.4081V95.8801Z" fill="#EBEDF0"/>
<g clip-path="url(#clip6_30_15480)">
<path d="M167.276 92.72C169.196 92.72 170.752 94.2763 170.752 96.1962C170.752 96.9851 170.489 97.7127 170.046 98.2961L172.508 100.761C172.693 100.946 172.693 101.246 172.508 101.431C172.323 101.616 172.023 101.616 171.838 101.431L169.376 98.9666C168.793 99.4095 168.065 99.6723 167.276 99.6723C165.356 99.6723 163.8 98.116 163.8 96.1962C163.8 94.2763 165.356 92.72 167.276 92.72ZM167.276 93.668C165.88 93.668 164.748 94.7999 164.748 96.1962C164.748 97.5924 165.88 98.7243 167.276 98.7243C168.672 98.7243 169.804 97.5924 169.804 96.1962C169.804 94.7999 168.672 93.668 167.276 93.668Z" fill="#818C99"/>
</g>
<path d="M185.292 100.876V93.3059H179.354V100.876H180.298V94.1557H184.348V100.876H185.292ZM189.279 100.976C190.889 100.976 191.886 99.8635 191.886 98.0536V98.0431C191.886 96.2279 190.889 95.121 189.279 95.121C187.668 95.121 186.671 96.2279 186.671 98.0431V98.0536C186.671 99.8635 187.668 100.976 189.279 100.976ZM189.279 100.168C188.208 100.168 187.605 99.3861 187.605 98.0536V98.0431C187.605 96.7053 188.208 95.9289 189.279 95.9289C190.349 95.9289 190.952 96.7053 190.952 98.0431V98.0536C190.952 99.3861 190.349 100.168 189.279 100.168ZM193.144 100.876H194.057L196.853 96.6581H196.937V100.876H197.85V95.2207H196.937L194.141 99.4385H194.057V95.2207H193.144V100.876ZM201.71 100.976C203.069 100.976 203.83 100.246 204.06 99.2235L204.071 99.1658L203.169 99.171L203.158 99.2025C202.948 99.832 202.466 100.168 201.705 100.168C200.698 100.168 200.047 99.3336 200.047 98.0326V98.0221C200.047 96.7473 200.687 95.9289 201.705 95.9289C202.518 95.9289 203.022 96.3801 203.163 96.9362L203.169 96.9519H204.076L204.071 96.9204C203.903 95.9132 203.079 95.121 201.705 95.121C200.121 95.121 199.113 96.2647 199.113 98.0221V98.0326C199.113 99.8268 200.126 100.976 201.71 100.976ZM206.452 98.3001L208.666 100.876H209.836L207.192 97.8857L209.736 95.2207H208.64L206.452 97.5867H206.163V95.2207H205.251V100.876H206.163V98.3001H206.452Z" fill="#818C99"/>
</g>
<path d="M156.57 130.6H159.807C161.423 130.6 162.409 129.782 162.409 128.454V128.444C162.409 127.463 161.706 126.728 160.688 126.634V126.54C161.449 126.419 162.037 125.716 162.037 124.924V124.913C162.037 123.754 161.171 123.03 159.734 123.03H156.57V130.6ZM159.403 124.084C160.222 124.084 160.699 124.478 160.699 125.149V125.16C160.699 125.847 160.19 126.22 159.23 126.22H157.924V124.084H159.403ZM159.445 127.18C160.479 127.18 161.024 127.584 161.024 128.35V128.36C161.024 129.131 160.494 129.546 159.498 129.546H157.924V127.18H159.445ZM165.157 130.695C165.913 130.695 166.521 130.369 166.836 129.813H166.925V130.6H168.216V126.681C168.216 125.469 167.387 124.756 165.913 124.756C164.549 124.756 163.625 125.396 163.5 126.361L163.494 126.408H164.727L164.732 126.387C164.864 126.01 165.252 125.795 165.85 125.795C166.553 125.795 166.925 126.109 166.925 126.681V127.174L165.451 127.264C164.056 127.348 163.274 127.946 163.274 128.969V128.979C163.274 130.023 164.066 130.695 165.157 130.695ZM164.565 128.916V128.906C164.565 128.433 164.906 128.166 165.635 128.119L166.925 128.035V128.496C166.925 129.178 166.343 129.693 165.556 129.693C164.979 129.693 164.565 129.404 164.565 128.916ZM170.576 130.6L172.312 128.103H172.643V130.6H173.912V128.103H174.248L175.984 130.6H177.527L175.287 127.515L177.406 124.866H175.937L174.232 127.19H173.912V124.866H172.643V127.19H172.323L170.623 124.866H169.144L171.274 127.531L169.039 130.6H170.576ZM182.106 130.6H183.412V124.866H182.106V127.138H179.687V124.866H178.381V130.6H179.687V128.15H182.106V130.6ZM184.849 130.6H187.288C188.626 130.6 189.481 129.824 189.481 128.607V128.596C189.481 127.379 188.626 126.597 187.288 126.597H186.155V124.866H184.849V130.6ZM190.42 130.6H191.726V124.866H190.42V130.6ZM187.12 127.605C187.755 127.605 188.164 127.998 188.164 128.591V128.601C188.164 129.189 187.76 129.593 187.12 129.593H186.155V127.605H187.12ZM195.623 130.716C197.182 130.716 197.947 129.818 198.131 129.079L198.147 129.032H196.904L196.888 129.068C196.762 129.331 196.358 129.687 195.65 129.687C194.763 129.687 194.207 129.089 194.191 128.061H198.199V127.631C198.199 125.9 197.192 124.756 195.561 124.756C193.929 124.756 192.885 125.936 192.885 127.741V127.746C192.885 129.572 193.918 130.716 195.623 130.716ZM195.576 125.779C196.305 125.779 196.835 126.246 196.925 127.185H194.202C194.301 126.272 194.847 125.779 195.576 125.779Z" fill="black"/>
<g clip-path="url(#clip7_30_15480)">
<g clip-path="url(#clip8_30_15480)">
<rect x="155.584" y="143.704" width="30.336" height="30.336" rx="15.168" fill="#0177FF"/>
<path d="M189.247 186.043C177.946 189.868 167.718 186.627 164.017 184.529C158.088 192.126 153.056 188.931 152.087 185.688C151.119 182.446 152.324 179.985 153.977 176.174C156.68 168.885 160.08 166.841 161.442 166.731C166.668 165.087 175.191 165.216 180.199 166.731C184.546 167.914 188.539 179.298 189.247 181.594C189.814 183.43 189.484 185.325 189.247 186.043Z" fill="#FFFEFD"/>
<path d="M165.14 150.812C162.947 151.488 162.83 155.676 161.756 157.493C160.826 159.019 162.195 160.394 163.383 159.704C163.99 159.302 164.203 159.083 164.466 158.4C162.751 160.684 163.738 162.117 165.054 162.008C165.692 161.949 166.389 161.5 166.668 160.379C166.028 161.845 166.317 162.753 167.186 163.253C168.87 164.191 172.532 163.808 171.806 161.436C172.65 164.191 176.803 163.985 175.821 160.381C176.259 161.904 177.652 162.34 178.437 161.378C179.279 160.321 177.479 158.358 177.012 157.159C176.983 158.073 178.582 160.001 179.715 158.829C181.051 157.451 178.18 151.926 175.768 150.299C172.948 148.629 167.563 150.184 166.199 151.387" fill="#171B4D"/>
<path d="M175.526 150.794C175.671 150.515 175.703 150.189 175.614 149.887C175.449 149.163 175.079 148.503 174.549 147.985C174.019 147.468 173.351 147.116 172.626 146.971C171.845 146.826 170.567 147.204 170.184 147.677C168.895 147.103 167.374 146.773 166.026 147.262C164.201 147.932 163.417 150.933 166.985 152.883C169.97 149.126 175.395 159.206 175.957 156.324C176.472 153.556 176.148 151.85 175.526 150.794Z" fill="#171B4D"/>
<path d="M175.909 165.849C172.822 165.062 167.578 165.521 165.292 165.849C165.615 167.443 167.404 180.185 168.254 186.216C170.755 186.943 172.47 187.224 173.732 187.388C174.209 184.369 175.337 171.685 175.909 165.849Z" fill="#2929B2"/>
<path d="M167.861 162.407C168.572 162.909 169.525 163.255 170.787 163.267C172.233 163.28 173.258 162.629 173.958 161.787C173.919 163.524 174.211 165.109 174.362 165.685L170.937 171.159L167.347 165.685C167.928 165.027 167.932 163.226 167.861 162.407Z" fill="#FCA190"/>
<path d="M167.861 164.13C169.976 165.04 173.787 163.351 172.249 163.449C170.711 163.548 167.861 162.715 167.861 162.715C167.965 163.183 167.861 164.13 167.861 164.13Z" fill="#EE7876"/>
<path d="M174.295 151.796C173.553 150.987 172.076 150.623 170.657 150.583C169.238 150.543 167.759 150.956 167.019 151.796C165.909 153.01 164.925 157.301 165.879 160.226C166.428 161.967 167.94 163.46 170.657 163.524C173.369 163.46 174.879 161.967 175.435 160.226C176.361 157.301 175.405 153.01 174.295 151.796Z" fill="#FCA190"/>
<path d="M170.566 158.071C170.544 158.074 170.521 158.074 170.499 158.071C170.172 157.988 169.957 157.901 169.894 157.726C169.832 157.551 169.935 157.414 170.035 157.273C170.157 157.12 170.243 156.943 170.287 156.753C170.297 156.706 170.324 156.665 170.363 156.638C170.403 156.611 170.451 156.602 170.498 156.611C170.545 156.62 170.586 156.647 170.613 156.687C170.64 156.726 170.65 156.775 170.64 156.821C170.587 157.061 170.48 157.287 170.328 157.48C170.298 157.52 170.27 157.562 170.245 157.605C170.354 157.659 170.469 157.698 170.588 157.722C170.611 157.728 170.632 157.738 170.652 157.752C170.671 157.766 170.687 157.783 170.699 157.803C170.711 157.824 170.719 157.846 170.722 157.87C170.726 157.893 170.725 157.917 170.719 157.94C170.71 157.974 170.69 158.006 170.663 158.029C170.636 158.052 170.602 158.067 170.566 158.071Z" fill="#F07875"/>
<path d="M173.873 154.465C173.954 154.895 172.366 154.775 172.173 154.465C171.98 154.155 172.125 153.956 172.817 153.936C173.378 153.938 173.814 154.195 173.873 154.465Z" fill="#171B4D"/>
<path d="M169.187 154.215C169.268 153.785 167.68 153.905 167.487 154.215C167.294 154.525 167.439 154.724 168.131 154.744C168.692 154.741 169.128 154.485 169.187 154.215Z" fill="#171B4D"/>
<path d="M172.239 158.944C172.355 159.227 171.837 160.091 170.773 160.108C169.498 160.13 168.484 159.356 168.777 158.959C168.932 158.748 169.765 158.787 170.495 158.744C171.225 158.7 172.16 158.742 172.239 158.944Z" fill="white"/>
<path d="M172.86 156.908C173.173 156.887 173.406 156.563 173.381 156.185C173.355 155.808 173.081 155.519 172.768 155.54C172.455 155.561 172.222 155.884 172.247 156.262C172.272 156.64 172.547 156.929 172.86 156.908Z" fill="#171B4D"/>
<path d="M168.448 156.908C168.761 156.887 168.994 156.563 168.969 156.185C168.944 155.808 168.669 155.519 168.356 155.54C168.043 155.561 167.81 155.884 167.835 156.262C167.861 156.64 168.135 156.929 168.448 156.908Z" fill="#171B4D"/>
</g>
<path d="M181.496 173.408C179.402 173.408 177.704 171.71 177.704 169.616C177.704 167.522 179.402 165.824 181.496 165.824C183.59 165.824 185.288 167.522 185.288 169.616C185.288 171.71 183.59 173.408 181.496 173.408Z" fill="white"/>
<path d="M181.496 172.144C182.892 172.144 184.024 171.012 184.024 169.616C184.024 168.22 182.892 167.088 181.496 167.088C180.1 167.088 178.968 168.22 178.968 169.616C178.968 171.012 180.1 172.144 181.496 172.144Z" fill="#4BB34B"/>
</g>
<path d="M194.462 155.608H195.351V152.364H196.664C196.773 154.458 197.958 155.776 199.878 155.776C201.883 155.776 203.088 154.319 203.088 152.048V152.038C203.088 149.752 201.873 148.315 199.878 148.315C198.037 148.315 196.837 149.555 196.674 151.564H195.351V148.483H194.462V155.608ZM199.878 149.135C201.305 149.135 202.179 150.261 202.179 152.038V152.048C202.179 153.811 201.31 154.956 199.878 154.956C198.427 154.956 197.568 153.811 197.568 152.048V152.038C197.568 150.261 198.456 149.135 199.878 149.135ZM204.421 157.386H205.28V154.769H205.359C205.65 155.336 206.287 155.702 207.018 155.702C208.371 155.702 209.25 154.621 209.25 152.952V152.942C209.25 151.283 208.366 150.192 207.018 150.192C206.278 150.192 205.685 150.542 205.359 151.135H205.28V150.285H204.421V157.386ZM206.821 154.941C205.853 154.941 205.26 154.181 205.26 152.952V152.942C205.26 151.712 205.853 150.952 206.821 150.952C207.793 150.952 208.371 151.702 208.371 152.942V152.952C208.371 154.191 207.793 154.941 206.821 154.941ZM210.484 155.608H211.344L213.975 151.638H214.054V155.608H214.913V150.285H214.054L211.423 154.255H211.344V150.285H210.484V155.608ZM218.622 149.545C219.639 149.545 220.315 148.844 220.315 147.925H219.545C219.545 148.463 219.204 148.962 218.622 148.962C218.049 148.962 217.698 148.463 217.698 147.925H216.928C216.928 148.844 217.605 149.545 218.622 149.545ZM216.405 155.608H217.264L219.896 151.638H219.975V155.608H220.834V150.285H219.975L217.343 154.255H217.264V150.285H216.405V155.608ZM227.88 155.707H228.759V154.961C230.62 154.907 231.904 153.835 231.904 152.028V152.018C231.904 150.226 230.645 149.125 228.759 149.081V148.384H227.88V149.081C226.009 149.135 224.73 150.216 224.73 152.014V152.023C224.73 153.821 225.994 154.917 227.88 154.961V155.707ZM225.638 152.023V152.014C225.638 150.72 226.517 149.93 227.88 149.876V154.166C226.502 154.122 225.638 153.312 225.638 152.023ZM228.759 149.876C230.136 149.92 230.995 150.735 230.995 152.018V152.028C230.995 153.327 230.112 154.112 228.759 154.166V149.876ZM235.336 155.702C236.59 155.702 237.35 154.991 237.533 154.27L237.543 154.23H236.684L236.664 154.275C236.521 154.596 236.076 154.937 235.355 154.937C234.407 154.937 233.8 154.295 233.775 153.194H237.607V152.858C237.607 151.268 236.728 150.192 235.281 150.192C233.835 150.192 232.897 151.317 232.897 152.962V152.966C232.897 154.635 233.815 155.702 235.336 155.702ZM235.276 150.957C236.061 150.957 236.644 151.456 236.733 152.507H233.79C233.884 151.495 234.486 150.957 235.276 150.957ZM238.906 157.015V155.608H243.068V157.015H243.868V154.897H243.019V150.285H239.39L239.182 153.253C239.133 153.969 238.94 154.64 238.55 154.897H238.106V157.015H238.906ZM242.16 154.897H239.543V154.818C239.794 154.487 239.933 153.919 239.982 153.273L240.15 150.996H242.16V154.897ZM246.974 155.702C248.49 155.702 249.428 154.655 249.428 152.952V152.942C249.428 151.233 248.49 150.192 246.974 150.192C245.458 150.192 244.52 151.233 244.52 152.942V152.952C244.52 154.655 245.458 155.702 246.974 155.702ZM246.974 154.941C245.967 154.941 245.399 154.206 245.399 152.952V152.942C245.399 151.683 245.967 150.952 246.974 150.952C247.981 150.952 248.549 151.683 248.549 152.942V152.952C248.549 154.206 247.981 154.941 246.974 154.941ZM250.657 157.386H251.516V154.769H251.595C251.887 155.336 252.524 155.702 253.254 155.702C254.607 155.702 255.486 154.621 255.486 152.952V152.942C255.486 151.283 254.602 150.192 253.254 150.192C252.514 150.192 251.921 150.542 251.595 151.135H251.516V150.285H250.657V157.386ZM253.057 154.941C252.089 154.941 251.497 154.181 251.497 152.952V152.942C251.497 151.712 252.089 150.952 253.057 150.952C254.03 150.952 254.607 151.702 254.607 152.942V152.952C254.607 154.191 254.03 154.941 253.057 154.941ZM260.681 155.608V150.285H259.822V152.532C259.599 152.779 259.14 152.952 258.474 152.952C257.748 152.952 257.382 152.507 257.382 151.806V150.285H256.523V151.806C256.523 152.942 257.19 153.712 258.474 153.712C259.046 153.712 259.456 153.594 259.743 153.391H259.822V155.608H260.681ZM262.626 157.474C263.569 157.474 264.009 157.129 264.448 155.934L266.527 150.285H265.623L264.167 154.665H264.088L262.626 150.285H261.708L263.678 155.613L263.579 155.929C263.387 156.541 263.09 156.763 262.602 156.763C262.483 156.763 262.35 156.758 262.246 156.739V157.445C262.365 157.465 262.513 157.474 262.626 157.474ZM268.685 153.184L270.768 155.608H271.869L269.381 152.794L271.776 150.285H270.744L268.685 152.512H268.413V150.285H267.554V155.608H268.413V153.184H268.685Z" fill="black"/>
<path d="M195.931 168.58C197.163 168.58 197.925 167.73 197.925 166.346V166.338C197.925 164.95 197.163 164.103 195.931 164.103C194.699 164.103 193.937 164.95 193.937 166.338V166.346C193.937 167.73 194.699 168.58 195.931 168.58ZM195.931 167.962C195.113 167.962 194.651 167.365 194.651 166.346V166.338C194.651 165.315 195.113 164.721 195.931 164.721C196.749 164.721 197.211 165.315 197.211 166.338V166.346C197.211 167.365 196.749 167.962 195.931 167.962ZM198.959 168.504H199.657V165.945C199.657 165.186 200.094 164.721 200.784 164.721C201.474 164.721 201.795 165.094 201.795 165.872V168.504H202.493V165.704C202.493 164.677 201.952 164.103 200.981 164.103C200.343 164.103 199.938 164.372 199.721 164.829H199.657V164.179H198.959V168.504ZM203.748 168.504H204.446V162.462H203.748V168.504ZM206.105 163.345C206.37 163.345 206.587 163.128 206.587 162.864C206.587 162.599 206.37 162.382 206.105 162.382C205.841 162.382 205.624 162.599 205.624 162.864C205.624 163.128 205.841 163.345 206.105 163.345ZM205.752 168.504H206.45V164.179H205.752V168.504ZM207.717 168.504H208.415V165.945C208.415 165.186 208.852 164.721 209.542 164.721C210.232 164.721 210.553 165.094 210.553 165.872V168.504H211.251V165.704C211.251 164.677 210.71 164.103 209.739 164.103C209.101 164.103 208.696 164.372 208.479 164.829H208.415V164.179H207.717V168.504ZM214.231 168.58C215.25 168.58 215.868 168.003 216.016 167.417L216.024 167.385H215.326L215.31 167.421C215.194 167.682 214.833 167.958 214.247 167.958C213.477 167.958 212.983 167.437 212.963 166.542H216.076V166.27C216.076 164.978 215.362 164.103 214.187 164.103C213.011 164.103 212.249 165.018 212.249 166.354V166.358C212.249 167.714 212.995 168.58 214.231 168.58ZM214.183 164.725C214.821 164.725 215.294 165.13 215.366 165.985H212.975C213.051 165.162 213.541 164.725 214.183 164.725Z" fill="#818C99"/>
<path d="M333.247 160.932L332.783 161.396C332.659 161.52 332.474 161.561 332.309 161.5C331.848 161.331 331.271 160.9 330.578 160.207C329.885 159.514 329.454 158.937 329.285 158.475C329.224 158.31 329.265 158.126 329.389 158.001L329.853 157.537C330.709 156.682 330.787 155.334 330.033 154.439L329.488 153.791C328.867 153.052 327.747 152.977 326.986 153.624C326.703 153.868 326.49 154.183 326.37 154.536C326.318 154.69 326.284 154.85 326.27 155.012C325.991 157.08 326.988 159.251 329.261 161.523C331.534 163.796 333.704 164.793 335.772 164.514C336.31 164.463 336.806 164.207 337.16 163.798C337.807 163.038 337.732 161.917 336.993 161.295L336.346 160.75C335.45 159.997 334.102 160.076 333.247 160.932ZM331.471 159.313C331.803 159.644 332.091 159.895 332.325 160.066C333.667 158.724 335.755 158.602 337.16 159.783L337.807 160.328C339.089 161.408 339.218 163.331 338.116 164.625C337.55 165.279 336.754 165.69 335.941 165.767C333.424 166.106 330.893 164.943 328.367 162.417C325.841 159.891 324.678 157.359 325.011 154.899C325.034 154.638 325.088 154.38 325.173 154.129C325.366 153.562 325.707 153.057 326.167 152.661C327.455 151.566 329.377 151.695 330.455 152.978L330.999 153.624C332.182 155.027 332.061 157.117 330.746 158.432C330.889 158.693 331.14 158.982 331.471 159.313Z" fill="#3F8AE0"/>
<path fill-rule="evenodd" clip-rule="evenodd" d="M359.415 153.184H362.03C362.692 153.184 363.225 153.184 363.657 153.221C364.102 153.259 364.492 153.338 364.854 153.529C365.428 153.831 365.894 154.315 366.187 154.909C366.328 155.196 366.407 155.501 366.451 155.835L366.718 155.655L367.269 155.285C367.415 155.188 367.586 155.072 367.74 154.988C367.896 154.903 368.225 154.738 368.645 154.768C368.881 154.784 369.111 154.853 369.319 154.97C369.526 155.087 369.708 155.248 369.85 155.444C370.103 155.793 370.149 156.17 370.165 156.35C370.181 156.531 370.181 156.742 370.181 156.922V160.822C370.181 161.002 370.181 161.214 370.165 161.394C370.149 161.575 370.104 161.951 369.85 162.3C369.708 162.496 369.526 162.657 369.319 162.774C369.111 162.891 368.881 162.96 368.645 162.976C368.225 163.006 367.896 162.841 367.74 162.756C367.579 162.664 367.422 162.565 367.269 162.459L366.717 162.088L366.451 161.909C366.406 162.243 366.328 162.548 366.187 162.835C365.894 163.429 365.428 163.913 364.854 164.216C364.492 164.407 364.102 164.486 363.657 164.523C363.224 164.56 362.692 164.56 362.03 164.56H359.415C358.753 164.56 358.22 164.56 357.788 164.523C357.344 164.486 356.953 164.407 356.592 164.216C356.018 163.913 355.551 163.429 355.258 162.835C355.074 162.461 354.997 162.056 354.961 161.595C354.926 161.147 354.926 160.596 354.926 159.91V157.834C354.926 157.149 354.926 156.596 354.961 156.149C354.998 155.689 355.074 155.284 355.258 154.909C355.551 154.315 356.017 153.831 356.591 153.529C356.953 153.338 357.344 153.258 357.788 153.221C358.221 153.184 358.753 153.184 359.415 153.184ZM366.519 159.91V157.295L367.905 156.365C368.248 156.134 368.42 156.019 368.562 156.029C368.623 156.033 368.683 156.051 368.737 156.081C368.791 156.111 368.838 156.153 368.875 156.204C368.96 156.322 368.96 156.534 368.96 156.957V160.787C368.96 161.21 368.96 161.422 368.875 161.54C368.838 161.591 368.791 161.633 368.737 161.663C368.683 161.693 368.623 161.711 368.562 161.715C368.42 161.726 368.248 161.61 367.905 161.379L366.519 160.449V159.91ZM357.887 154.48C357.518 154.511 357.306 154.569 357.145 154.654C356.801 154.836 356.521 155.126 356.345 155.483C356.264 155.649 356.208 155.869 356.177 156.251C356.147 156.641 356.146 157.142 356.146 157.86V159.883C356.146 160.601 356.146 161.102 356.177 161.492C356.208 161.874 356.264 162.094 356.345 162.26C356.521 162.617 356.801 162.907 357.145 163.089C357.306 163.173 357.518 163.232 357.887 163.263C358.264 163.295 358.748 163.295 359.441 163.295H362.004C362.698 163.295 363.181 163.295 363.558 163.263C363.927 163.232 364.139 163.173 364.3 163.089C364.644 162.907 364.924 162.617 365.1 162.26C365.181 162.094 365.237 161.874 365.268 161.492C365.298 161.102 365.299 160.601 365.299 159.883V157.86C365.299 157.142 365.299 156.641 365.268 156.251C365.237 155.869 365.181 155.649 365.1 155.483C364.924 155.126 364.644 154.836 364.3 154.654C364.139 154.569 363.927 154.511 363.558 154.48C363.181 154.449 362.697 154.448 362.004 154.448H359.441C358.747 154.448 358.264 154.448 357.887 154.48V154.48Z" fill="#3F8AE0"/>
<g clip-path="url(#clip9_30_15480)">
<g clip-path="url(#clip10_30_15480)">
<rect x="155.584" y="182.872" width="30.336" height="30.336" rx="15.168" fill="#CA88F2"/>
<path d="M170.574 186.061C169.701 184.995 168.998 184.001 166.573 184.364C164.149 184.728 163.704 187.839 164.512 189.456C160.633 191.031 161.724 194.668 162.573 195.759C163.421 196.85 160.148 198.668 159.906 199.638C159.664 200.608 159.3 201.214 157.966 201.699C156.9 202.087 156.633 202.669 156.633 202.911C156.342 203.202 155.3 202.224 154.815 201.699L153.966 202.669C154.209 203.275 155.348 204.633 157.966 205.214C161.239 205.942 163.664 202.669 165.119 203.275C166.282 203.76 167.705 203.315 168.27 203.032L171.18 199.638C171.947 201.093 174.137 203.905 176.756 203.517C180.029 203.032 179.423 204.123 181.968 204.851C184.514 205.578 185.605 204.73 185.726 203.517C185.823 202.548 186.898 202.305 187.423 202.305V198.184C186.09 197.82 185.969 199.153 185.969 200.608C185.969 202.063 185.12 201.214 181.968 201.214C178.817 201.214 183.302 196.002 180.15 194.183C176.998 192.365 178.817 189.819 176.513 187.88C174.21 185.94 171.665 187.395 170.574 186.061Z" fill="#181B50"/>
<path d="M171.301 205.214C162.749 205.214 155.382 210.427 155.382 210.427V217.943C165.605 218.185 186.817 218.525 186.817 217.943V210.427C186.817 210.427 179.853 205.214 171.301 205.214Z" fill="#8217C5"/>
<path d="M170.937 208.002C168.319 210.912 165.846 207.76 166.331 205.699C166.525 205.699 168.755 204.972 170.937 204.972C173.119 204.972 175.786 205.699 175.786 205.699C175.18 210.427 171.786 209.457 170.937 208.002Z" fill="#F45DFF"/>
<path d="M167.883 200.2C168.523 200.654 169.379 200.968 170.513 200.978C171.812 200.99 172.733 200.401 173.362 199.638C173.327 201.211 173.119 202.911 174.21 205.457C174.21 205.457 172.998 207.881 170.816 207.881C168.634 207.881 167.422 205.457 167.422 205.457C168.392 203.396 167.947 200.941 167.883 200.2Z" fill="#FCA190"/>
<path d="M168.028 202.987V201.169C169.846 200.563 173.168 199.714 171.907 201.169C170.646 202.623 168.796 202.987 168.028 202.987Z" fill="#F07875"/>
<path d="M170.21 201.699C166.21 201.699 165.967 198.183 165.967 198.183C165.523 197.86 164.658 197.068 164.755 196.486C164.876 195.759 165.361 195.517 166.088 195.759C166.21 194.224 167.252 191.153 170.452 191.153C173.653 191.153 174.776 193.981 174.938 195.395C175.544 195.395 176.392 195.517 176.392 196.486C176.392 197.456 175.059 198.183 174.695 198.183C174.695 198.183 174.21 201.699 170.21 201.699Z" fill="#FCA190"/>
<path d="M169.112 192.902C169.104 192.432 167.458 192.906 167.323 193.274C167.188 193.643 167.383 193.82 168.117 193.69C168.707 193.564 169.11 193.199 169.112 192.902Z" fill="#171B4D"/>
<path d="M173.295 193.228C173.518 192.813 171.851 192.421 171.553 192.677C171.254 192.932 171.338 193.182 172.042 193.428C172.618 193.607 173.148 193.485 173.295 193.228Z" fill="#171B4D"/>
<path d="M171.968 197.746C172.157 198.101 171.797 199.344 170.659 199.561C169.296 199.824 168.032 198.981 168.256 198.399C168.375 198.091 169.278 197.991 170.051 197.799C170.825 197.608 171.837 197.491 171.968 197.746Z" fill="white"/>
<path d="M172.198 196.243C172.532 196.22 172.78 195.877 172.754 195.476C172.727 195.075 172.434 194.768 172.101 194.79C171.767 194.813 171.518 195.156 171.545 195.557C171.572 195.958 171.864 196.265 172.198 196.243Z" fill="#171B4D"/>
<path d="M168.319 196.243C168.653 196.22 168.901 195.877 168.874 195.476C168.848 195.075 168.555 194.768 168.222 194.79C167.888 194.813 167.639 195.156 167.666 195.557C167.693 195.958 167.985 196.265 168.319 196.243Z" fill="#171B4D"/>
<path d="M170.189 197.028C170.163 197.033 170.136 197.033 170.11 197.028C169.718 196.929 169.459 196.825 169.384 196.615C169.309 196.405 169.433 196.241 169.554 196.072C169.699 195.889 169.803 195.676 169.856 195.448C169.867 195.392 169.899 195.343 169.947 195.311C169.994 195.279 170.052 195.267 170.108 195.278C170.165 195.289 170.214 195.322 170.246 195.369C170.278 195.416 170.29 195.475 170.279 195.53C170.215 195.818 170.087 196.089 169.904 196.32C169.869 196.369 169.835 196.419 169.805 196.47C169.935 196.535 170.074 196.582 170.216 196.61C170.244 196.617 170.269 196.629 170.292 196.646C170.315 196.663 170.334 196.684 170.349 196.708C170.364 196.732 170.373 196.759 170.377 196.787C170.382 196.815 170.38 196.844 170.373 196.871C170.362 196.913 170.339 196.95 170.306 196.978C170.273 197.006 170.232 197.024 170.189 197.028Z" fill="#F07875"/>
<path fill-rule="evenodd" clip-rule="evenodd" d="M170.737 209.077C170.707 208.705 170.686 208.313 170.719 207.863L171.203 207.899C171.172 208.312 171.191 208.676 171.221 209.037C171.228 209.121 171.235 209.206 171.243 209.292C171.268 209.571 171.293 209.859 171.299 210.163C171.316 210.976 171.197 211.915 170.61 213.325C170.047 214.675 170.015 215.498 170.167 216.13C170.244 216.452 170.371 216.735 170.521 217.029C170.562 217.109 170.606 217.192 170.65 217.276C170.764 217.493 170.886 217.723 170.992 217.967L170.547 218.161C170.449 217.934 170.341 217.729 170.23 217.519C170.183 217.43 170.136 217.341 170.089 217.249C169.933 216.944 169.786 216.62 169.695 216.244C169.512 215.481 169.575 214.549 170.162 213.138C170.725 211.786 170.83 210.914 170.815 210.173C170.809 209.887 170.785 209.621 170.761 209.346C170.753 209.257 170.745 209.168 170.737 209.077Z" fill="#F45DFF"/>
</g>
</g>
<path d="M194.462 194.776H195.326L199.192 189.202H199.271V194.776H200.15V187.651H199.286L195.425 193.245H195.341V187.651H194.462V194.776ZM201.755 196.554H202.614V193.937H202.693C202.984 194.504 203.621 194.87 204.352 194.87C205.705 194.87 206.584 193.789 206.584 192.12V192.11C206.584 190.451 205.7 189.36 204.352 189.36C203.611 189.36 203.019 189.71 202.693 190.303H202.614V189.453H201.755V196.554ZM204.154 194.109C203.187 194.109 202.594 193.349 202.594 192.12V192.11C202.594 190.88 203.187 190.12 204.154 190.12C205.127 190.12 205.705 190.87 205.705 192.11V192.12C205.705 193.359 205.127 194.109 204.154 194.109ZM209.285 194.87C210.001 194.87 210.559 194.559 210.894 193.991H210.973V194.776H211.832V191.132C211.832 190.026 211.107 189.36 209.808 189.36C208.672 189.36 207.863 189.922 207.724 190.757L207.719 190.787H208.579L208.584 190.772C208.722 190.357 209.141 190.12 209.778 190.12C210.573 190.12 210.973 190.475 210.973 191.132V191.616L209.448 191.71C208.208 191.784 207.507 192.332 207.507 193.28V193.29C207.507 194.258 208.272 194.87 209.285 194.87ZM208.386 193.27V193.26C208.386 192.732 208.742 192.446 209.551 192.396L210.973 192.307V192.791C210.973 193.552 210.336 194.124 209.462 194.124C208.845 194.124 208.386 193.808 208.386 193.27ZM216.049 194.776H223.87V187.651H222.982V193.976H220.404V187.651H219.516V193.976H216.938V187.651H216.049V194.776ZM225.93 196.642C226.873 196.642 227.312 196.297 227.751 195.102L229.83 189.453H228.927L227.47 193.833H227.391L225.93 189.453H225.011L226.981 194.781L226.882 195.097C226.69 195.709 226.394 195.931 225.905 195.931C225.786 195.931 225.653 195.926 225.549 195.907V196.613C225.668 196.633 225.816 196.642 225.93 196.642ZM233.025 194.875C234.56 194.875 235.504 193.828 235.504 192.139V192.13C235.504 190.525 234.585 189.503 233.153 189.503C232.348 189.503 231.712 189.848 231.351 190.485H231.272L231.287 190.377C231.484 188.925 232.023 188.347 233.262 188.293L233.805 188.268C234.422 188.239 234.985 188.11 235.153 187.952V187.192C234.694 187.38 234.19 187.459 233.766 187.478L233.232 187.503C231.331 187.592 230.546 188.797 230.546 191.621V191.631C230.546 193.764 231.396 194.875 233.025 194.875ZM233.025 194.114C232.008 194.114 231.425 193.389 231.425 192.139V192.13C231.425 190.94 232.008 190.263 233.025 190.263C234.042 190.263 234.625 190.94 234.625 192.13V192.139C234.625 193.389 234.042 194.114 233.025 194.114ZM236.728 194.776H237.587L240.219 190.806H240.298V194.776H241.157V189.453H240.298L237.666 193.423H237.587V189.453H236.728V194.776ZM246.144 194.776H247.003V189.453H246.144V191.656H243.508V189.453H242.649V194.776H243.508V192.367H246.144V194.776ZM249.956 194.87C250.672 194.87 251.23 194.559 251.566 193.991H251.645V194.776H252.504V191.132C252.504 190.026 251.778 189.36 250.48 189.36C249.344 189.36 248.534 189.922 248.396 190.757L248.391 190.787H249.25L249.255 190.772C249.393 190.357 249.813 190.12 250.45 190.12C251.245 190.12 251.645 190.475 251.645 191.132V191.616L250.119 191.71C248.88 191.784 248.179 192.332 248.179 193.28V193.29C248.179 194.258 248.944 194.87 249.956 194.87ZM249.058 193.27V193.26C249.058 192.732 249.413 192.446 250.223 192.396L251.645 192.307V192.791C251.645 193.552 251.008 194.124 250.134 194.124C249.517 194.124 249.058 193.808 249.058 193.27Z" fill="black"/>
<path d="M195.991 207.752C197.239 207.752 198.005 206.902 198.005 205.53V205.522C198.005 204.218 197.259 203.387 196.096 203.387C195.442 203.387 194.924 203.668 194.631 204.186H194.567L194.579 204.098C194.74 202.918 195.177 202.449 196.184 202.405L196.625 202.385C197.127 202.36 197.584 202.256 197.72 202.128V201.51C197.347 201.662 196.938 201.727 196.593 201.743L196.16 201.763C194.615 201.835 193.977 202.814 193.977 205.109V205.117C193.977 206.85 194.667 207.752 195.991 207.752ZM195.991 207.134C195.165 207.134 194.691 206.545 194.691 205.53V205.522C194.691 204.555 195.165 204.005 195.991 204.005C196.818 204.005 197.291 204.555 197.291 205.522V205.53C197.291 206.545 196.818 207.134 195.991 207.134ZM199.115 207.672H200.66C201.651 207.672 202.284 207.102 202.284 206.208V206.2C202.284 205.305 201.651 204.735 200.66 204.735H199.813V203.347H199.115V207.672ZM203.039 207.672H203.737V203.347H203.039V207.672ZM200.66 205.313C201.225 205.313 201.586 205.662 201.586 206.2V206.208C201.586 206.741 201.229 207.094 200.66 207.094H199.813V205.313H200.66ZM206.074 205.979L206.235 203.925H207.739V207.672H208.437V203.347H205.609L205.425 205.923C205.38 206.565 205.22 207.066 204.823 207.066C204.718 207.066 204.61 207.05 204.574 207.038V207.668C204.63 207.688 204.743 207.712 204.891 207.712C205.613 207.712 205.982 207.171 206.074 205.979ZM210.952 207.748C211.533 207.748 211.987 207.495 212.259 207.034H212.324V207.672H213.022V204.711C213.022 203.813 212.432 203.271 211.377 203.271C210.454 203.271 209.796 203.728 209.684 204.406L209.68 204.431H210.378L210.382 204.418C210.494 204.082 210.835 203.889 211.353 203.889C211.999 203.889 212.324 204.178 212.324 204.711V205.104L211.084 205.181C210.077 205.241 209.507 205.686 209.507 206.456V206.464C209.507 207.251 210.129 207.748 210.952 207.748ZM210.221 206.448V206.44C210.221 206.011 210.51 205.778 211.168 205.738L212.324 205.666V206.059C212.324 206.677 211.806 207.142 211.096 207.142C210.594 207.142 210.221 206.886 210.221 206.448ZM218.447 207.808C219.623 207.808 220.461 206.994 220.461 205.827V205.819C220.461 204.699 219.679 203.885 218.592 203.885C218.066 203.885 217.613 204.098 217.356 204.487H217.292L217.488 202.529H220.14V201.883H216.919L216.614 205.209H217.24C217.312 205.072 217.404 204.96 217.504 204.864C217.753 204.627 218.082 204.511 218.467 204.511C219.217 204.511 219.755 205.06 219.755 205.831V205.839C219.755 206.621 219.225 207.171 218.455 207.171C217.777 207.171 217.276 206.729 217.207 206.176L217.203 206.144H216.509L216.513 206.188C216.598 207.114 217.368 207.808 218.447 207.808ZM224.575 207.672V204.595H224.651L226.011 207.552H226.548L227.912 204.595H227.989V207.672H228.687V203.347H227.876L226.328 206.701H226.264L224.723 203.347H223.877V207.672H224.575ZM230.013 207.672H230.711L232.85 204.447H232.914V207.672H233.612V203.347H232.914L230.776 206.573H230.711V203.347H230.013V207.672ZM237.779 207.672H238.477V203.347H237.779V205.137H235.637V203.347H234.939V207.672H235.637V205.714H237.779V207.672ZM240.173 209.188C240.939 209.188 241.296 208.908 241.653 207.937L243.342 203.347H242.608L241.424 206.906H241.36L240.173 203.347H239.427L241.027 207.676L240.947 207.933C240.791 208.43 240.55 208.611 240.153 208.611C240.056 208.611 239.948 208.607 239.864 208.591V209.164C239.96 209.18 240.081 209.188 240.173 209.188ZM247.264 203.347H243.766V203.925H245.166V207.672H245.864V203.925H247.264V203.347ZM253.324 207.672H254.022V203.347H253.324V205.137H251.182V203.347H250.483V207.672H251.182V205.714H253.324V207.672ZM256.536 207.748C257.118 207.748 257.571 207.495 257.844 207.034H257.908V207.672H258.606V204.711C258.606 203.813 258.016 203.271 256.961 203.271C256.039 203.271 255.381 203.728 255.268 204.406L255.264 204.431H255.962L255.966 204.418C256.079 204.082 256.42 203.889 256.937 203.889C257.583 203.889 257.908 204.178 257.908 204.711V205.104L256.668 205.181C255.661 205.241 255.092 205.686 255.092 206.456V206.464C255.092 207.251 255.714 207.748 256.536 207.748ZM255.806 206.448V206.44C255.806 206.011 256.095 205.778 256.753 205.738L257.908 205.666V206.059C257.908 206.677 257.39 207.142 256.68 207.142C256.179 207.142 255.806 206.886 255.806 206.448ZM261.381 207.752C262.388 207.752 263.082 207.203 263.082 206.4V206.392C263.082 205.911 262.781 205.566 262.211 205.441V205.377C262.641 205.277 262.926 204.88 262.926 204.443V204.435C262.926 203.745 262.372 203.267 261.405 203.267C260.522 203.267 259.889 203.708 259.788 204.402L259.784 204.431H260.466L260.47 204.41C260.539 204.065 260.912 203.845 261.405 203.845C261.959 203.845 262.244 204.118 262.244 204.487V204.495C262.244 204.944 261.935 205.165 261.381 205.165H260.707V205.742H261.381C262.043 205.742 262.396 205.959 262.396 206.428V206.436C262.396 206.866 262.019 207.175 261.381 207.175C260.855 207.175 260.47 206.95 260.382 206.597L260.374 206.565H259.664L259.668 206.597C259.756 207.295 260.458 207.752 261.381 207.752ZM265.384 207.748C265.965 207.748 266.419 207.495 266.691 207.034H266.756V207.672H267.454V204.711C267.454 203.813 266.864 203.271 265.809 203.271C264.886 203.271 264.228 203.728 264.116 204.406L264.112 204.431H264.81L264.814 204.418C264.926 204.082 265.267 203.889 265.785 203.889C266.431 203.889 266.756 204.178 266.756 204.711V205.104L265.516 205.181C264.509 205.241 263.939 205.686 263.939 206.456V206.464C263.939 207.251 264.561 207.748 265.384 207.748ZM264.653 206.448V206.44C264.653 206.011 264.942 205.778 265.6 205.738L266.756 205.666V206.059C266.756 206.677 266.238 207.142 265.528 207.142C265.026 207.142 264.653 206.886 264.653 206.448ZM268.857 208.815V207.672H272.238V208.815H272.888V207.094H272.198V203.347H269.25L269.081 205.758C269.041 206.34 268.885 206.886 268.568 207.094H268.207V208.815H268.857ZM271.5 207.094H269.374V207.03C269.579 206.761 269.691 206.3 269.731 205.774L269.867 203.925H271.5V207.094Z" fill="#818C99"/>
<path d="M333.247 200.1L332.783 200.564C332.659 200.688 332.474 200.729 332.309 200.668C331.848 200.499 331.271 200.068 330.578 199.375C329.885 198.682 329.454 198.105 329.285 197.643C329.224 197.478 329.265 197.294 329.389 197.169L329.853 196.705C330.709 195.85 330.787 194.502 330.033 193.607L329.488 192.959C328.867 192.22 327.747 192.145 326.986 192.792C326.703 193.036 326.49 193.351 326.37 193.704C326.318 193.858 326.284 194.018 326.27 194.18C325.991 196.248 326.988 198.419 329.261 200.691C331.534 202.964 333.704 203.961 335.772 203.682C336.31 203.631 336.806 203.374 337.16 202.966C337.807 202.206 337.732 201.085 336.993 200.463L336.346 199.918C335.45 199.165 334.102 199.244 333.247 200.1ZM331.471 198.481C331.803 198.812 332.091 199.063 332.325 199.234C333.667 197.892 335.755 197.77 337.16 198.951L337.807 199.496C339.089 200.576 339.218 202.499 338.116 203.793C337.55 204.447 336.754 204.858 335.941 204.935C333.424 205.274 330.893 204.111 328.367 201.585C325.841 199.059 324.678 196.527 325.011 194.067C325.034 193.806 325.088 193.548 325.173 193.297C325.366 192.73 325.707 192.225 326.167 191.829C327.455 190.734 329.377 190.863 330.455 192.146L330.999 192.792C332.182 194.195 332.061 196.285 330.746 197.6C330.889 197.861 331.14 198.15 331.471 198.481Z" fill="#3F8AE0"/>
<path fill-rule="evenodd" clip-rule="evenodd" d="M359.415 192.352H362.03C362.692 192.352 363.225 192.352 363.657 192.389C364.102 192.427 364.492 192.506 364.854 192.696C365.428 192.999 365.894 193.483 366.187 194.077C366.328 194.364 366.407 194.669 366.451 195.003L366.718 194.823L367.269 194.453C367.415 194.355 367.586 194.24 367.74 194.156C367.896 194.071 368.225 193.906 368.645 193.936C368.881 193.952 369.111 194.021 369.319 194.138C369.526 194.255 369.708 194.416 369.85 194.612C370.103 194.961 370.149 195.338 370.165 195.518C370.181 195.698 370.181 195.91 370.181 196.09V199.99C370.181 200.17 370.181 200.382 370.165 200.562C370.149 200.742 370.104 201.119 369.85 201.468C369.708 201.664 369.526 201.825 369.319 201.942C369.111 202.059 368.881 202.128 368.645 202.144C368.225 202.174 367.896 202.009 367.74 201.924C367.579 201.832 367.422 201.733 367.269 201.627L366.717 201.256L366.451 201.077C366.406 201.411 366.328 201.716 366.187 202.003C365.894 202.597 365.428 203.081 364.854 203.384C364.492 203.574 364.102 203.654 363.657 203.691C363.224 203.728 362.692 203.728 362.03 203.728H359.415C358.753 203.728 358.22 203.728 357.788 203.691C357.344 203.653 356.953 203.574 356.592 203.384C356.018 203.081 355.551 202.597 355.258 202.003C355.074 201.629 354.997 201.224 354.961 200.763C354.926 200.315 354.926 199.764 354.926 199.078V197.002C354.926 196.317 354.926 195.764 354.961 195.317C354.998 194.857 355.074 194.452 355.258 194.077C355.551 193.483 356.017 192.999 356.591 192.696C356.953 192.506 357.344 192.426 357.788 192.389C358.221 192.352 358.753 192.352 359.415 192.352ZM366.519 199.078V196.463L367.905 195.533C368.248 195.302 368.42 195.187 368.562 195.197C368.623 195.201 368.683 195.219 368.737 195.249C368.791 195.279 368.838 195.321 368.875 195.372C368.96 195.49 368.96 195.702 368.96 196.125V199.955C368.96 200.378 368.96 200.59 368.875 200.708C368.838 200.759 368.791 200.801 368.737 200.831C368.683 200.861 368.623 200.879 368.562 200.883C368.42 200.894 368.248 200.778 367.905 200.547L366.519 199.617V199.078ZM357.887 193.648C357.518 193.679 357.306 193.737 357.145 193.822C356.801 194.004 356.521 194.294 356.345 194.651C356.264 194.817 356.208 195.037 356.177 195.419C356.147 195.809 356.146 196.31 356.146 197.028V199.051C356.146 199.769 356.146 200.27 356.177 200.66C356.208 201.042 356.264 201.262 356.345 201.428C356.521 201.785 356.801 202.075 357.145 202.257C357.306 202.341 357.518 202.4 357.887 202.431C358.264 202.463 358.748 202.463 359.441 202.463H362.004C362.698 202.463 363.181 202.463 363.558 202.431C363.927 202.4 364.139 202.341 364.3 202.257C364.644 202.075 364.924 201.785 365.1 201.428C365.181 201.262 365.237 201.042 365.268 200.66C365.298 200.27 365.299 199.769 365.299 199.051V197.028C365.299 196.31 365.299 195.809 365.268 195.419C365.237 195.037 365.181 194.817 365.1 194.651C364.924 194.294 364.644 194.004 364.3 193.822C364.139 193.737 363.927 193.679 363.558 193.648C363.181 193.617 362.697 193.616 362.004 193.616H359.441C358.747 193.616 358.264 193.616 357.887 193.648V193.648Z" fill="#3F8AE0"/>
<g clip-path="url(#clip11_30_15480)">
<g clip-path="url(#clip12_30_15480)">
<rect x="155.584" y="222.04" width="30.336" height="30.336" rx="15.168" fill="#0177FF"/>
<path d="M155.584 248.818C157.019 247.691 161.646 245.747 170.424 245.747C179.138 245.747 183.819 247.866 185.876 248.798L185.92 248.818V256.78H170.424H155.584V248.818Z" fill="#12D984"/>
<path d="M165.532 245.581C162.715 247.316 162.17 252.617 162.492 254.896C167.668 257.452 173.325 257.74 178.368 254.896C179.223 249.096 176.684 246.562 175.315 245.976C174.191 252.094 166.197 250.432 165.532 245.581Z" fill="white"/>
<path d="M170.673 247.409C167.785 247.409 166.736 244.908 166.573 243.658C165.581 244.578 164.715 246.402 167.135 248.818C170.192 251.871 177.89 248.812 174.448 243.658C174.392 244.908 173.56 247.409 170.673 247.409Z" fill="white"/>
<path d="M170.442 247.534C167.443 247.469 166.589 244.438 166.538 242.931V242.66H174.658C174.617 243.627 174.191 247.616 170.442 247.534Z" fill="#FCA190"/>
<path d="M174.945 247.536C174.415 247.983 173.734 249.957 170.608 249.957C167.482 249.957 166.794 248.292 165.97 247.908C165.97 247.908 166.849 250.828 170.608 250.828C174.367 250.828 174.945 247.536 174.945 247.536Z" fill="#CBE5FC"/>
<path d="M164.355 230.067C162.164 230.839 162.408 233.478 164.497 234.863C164.725 234.863 173.177 234.694 177.374 234.61C177.77 234.544 178.647 234.026 178.704 231.927C178.761 229.827 177.554 228.737 175.878 228.737C176.573 227.132 175.623 225.636 174.295 224.899C172.967 224.161 170.333 224.558 169.436 225.46C167.954 224.03 165.893 224.08 164.355 225.46C162.816 226.841 163.714 229.106 164.355 230.067Z" fill="#171B4D"/>
<path d="M163.432 236.661C162.33 234.825 164.012 234.44 164.991 234.477C164.991 234.477 164.651 228.494 171.046 228.494C177.44 228.494 177.061 234.477 177.061 234.477C178.96 234.477 178.406 236.115 178.184 236.661C178.007 237.098 177.235 237.608 176.871 237.809C175.723 239.51 171.172 239.099 170.428 239.067C169.684 239.036 164.809 238.956 163.432 236.661Z" fill="#FCA190"/>
<path d="M170.693 244.229C164.559 244.229 164.686 237.842 164.686 237.842C165.153 238.082 166.416 237.964 168.477 237.265C170.091 236.717 170.986 236.687 172.513 237.265C174.04 237.842 176.241 238.125 176.827 237.842C176.827 237.842 176.827 244.229 170.693 244.229Z" fill="#171B4D"/>
<path d="M172.632 238.279C172.754 238.639 172.012 239.894 170.795 239.907C169.351 239.933 168.368 238.751 168.724 238.287C168.904 238.056 169.855 238.303 170.696 238.288C171.697 238.253 172.559 238.016 172.632 238.279Z" fill="white"/>
<path d="M168.014 235.804C168.436 235.77 168.744 235.335 168.702 234.834C168.661 234.332 168.285 233.954 167.863 233.988C167.441 234.023 167.133 234.457 167.175 234.958C167.216 235.46 167.592 235.839 168.014 235.804Z" fill="#171B4D"/>
<path d="M169.057 232.123C169.892 232.766 167.124 233.267 166.669 232.729C166.406 232.392 166.935 232.008 167.693 231.934C168.225 231.819 168.831 231.894 169.057 232.123Z" fill="#171B4D"/>
<path d="M172.44 232.202C171.604 232.846 174.371 233.346 174.825 232.809C175.092 232.471 174.562 232.085 173.813 231.973C173.235 231.896 172.68 231.973 172.44 232.202Z" fill="#171B4D"/>
<path d="M173.665 235.804C174.087 235.77 174.395 235.336 174.353 234.834C174.312 234.333 173.936 233.954 173.514 233.988C173.092 234.023 172.784 234.457 172.825 234.958C172.867 235.46 173.243 235.839 173.665 235.804Z" fill="#171B4D"/>
<path d="M170.81 236.835C170.314 236.761 170.005 236.683 169.893 236.453C169.78 236.224 169.893 236.037 170.005 235.807C170.147 235.589 170.238 235.343 170.274 235.086C170.274 234.934 170.389 234.857 170.542 234.857C170.695 234.857 170.773 234.972 170.773 235.124C170.742 235.448 170.637 235.76 170.464 236.037C170.423 236.093 170.397 236.158 170.389 236.226C170.545 236.299 170.714 236.338 170.885 236.341C170.944 236.349 170.997 236.38 171.034 236.427C171.07 236.473 171.086 236.533 171.079 236.591C171.08 236.597 171.08 236.603 171.079 236.608C171.001 236.761 170.926 236.835 170.81 236.835Z" fill="#F07875"/>
</g>
</g>
<path d="M193.894 233.944H194.827L195.543 231.905H198.377L199.093 233.944H200.026L197.4 226.819H196.521L193.894 233.944ZM196.921 227.97H197L198.116 231.149H195.805L196.921 227.97ZM204.554 233.944H205.413V228.621H204.554V230.823H201.918V228.621H201.059V233.944H201.918V231.534H204.554V233.944ZM207.023 235.351V233.944H211.186V235.351H211.985V233.233H211.136V228.621H207.507L207.3 231.589C207.25 232.305 207.058 232.976 206.668 233.233H206.223V235.351H207.023ZM210.277 233.233H207.66V233.154C207.912 232.823 208.05 232.255 208.1 231.609L208.268 229.332H210.277V233.233ZM212.904 235.721H213.763V233.105H213.842C214.133 233.672 214.77 234.038 215.501 234.038C216.854 234.038 217.733 232.956 217.733 231.288V231.278C217.733 229.619 216.849 228.528 215.501 228.528C214.761 228.528 214.168 228.878 213.842 229.471H213.763V228.621H212.904V235.721ZM215.304 233.277C214.336 233.277 213.743 232.517 213.743 231.288V231.278C213.743 230.048 214.336 229.288 215.304 229.288C216.276 229.288 216.854 230.038 216.854 231.278V231.288C216.854 232.527 216.276 233.277 215.304 233.277ZM221.145 234.038C222.399 234.038 223.159 233.327 223.342 232.606L223.352 232.566H222.493L222.473 232.611C222.33 232.932 221.886 233.272 221.165 233.272C220.217 233.272 219.609 232.631 219.585 231.53H223.416V231.194C223.416 229.604 222.537 228.528 221.091 228.528C219.644 228.528 218.706 229.653 218.706 231.297V231.302C218.706 232.971 219.624 234.038 221.145 234.038ZM221.086 229.293C221.871 229.293 222.453 229.792 222.542 230.843H219.599C219.693 229.831 220.296 229.293 221.086 229.293ZM226.858 227.881C227.875 227.881 228.551 227.18 228.551 226.261H227.781C227.781 226.799 227.44 227.298 226.858 227.298C226.285 227.298 225.934 226.799 225.934 226.261H225.164C225.164 227.18 225.841 227.881 226.858 227.881ZM224.641 233.944H225.5L228.132 229.974H228.211V233.944H229.07V228.621H228.211L225.579 232.591H225.5V228.621H224.641V233.944ZM233.316 233.944H234.205V231.401H236.002C237.341 231.401 238.289 230.458 238.289 229.105V229.095C238.289 227.742 237.341 226.819 236.002 226.819H233.316V233.944ZM235.775 227.609C236.792 227.609 237.38 228.167 237.38 229.105V229.115C237.38 230.053 236.792 230.611 235.775 230.611H234.205V227.609H235.775ZM241.622 234.038C243.137 234.038 244.075 232.991 244.075 231.288V231.278C244.075 229.569 243.137 228.528 241.622 228.528C240.106 228.528 239.168 229.569 239.168 231.278V231.288C239.168 232.991 240.106 234.038 241.622 234.038ZM241.622 233.277C240.614 233.277 240.046 232.542 240.046 231.288V231.278C240.046 230.019 240.614 229.288 241.622 229.288C242.629 229.288 243.197 230.019 243.197 231.278V231.288C243.197 232.542 242.629 233.277 241.622 233.277ZM248.707 229.332V228.621H245.3V233.944H246.159V229.332H248.707ZM251.843 234.038C253.358 234.038 254.296 232.991 254.296 231.288V231.278C254.296 229.569 253.358 228.528 251.843 228.528C250.327 228.528 249.389 229.569 249.389 231.278V231.288C249.389 232.991 250.327 234.038 251.843 234.038ZM251.843 233.277C250.835 233.277 250.267 232.542 250.267 231.288V231.278C250.267 230.019 250.835 229.288 251.843 229.288C252.85 229.288 253.418 230.019 253.418 231.278V231.288C253.418 232.542 252.85 233.277 251.843 233.277ZM257.284 234.043C258.523 234.043 259.377 233.366 259.377 232.379V232.369C259.377 231.776 259.007 231.352 258.306 231.199V231.12C258.834 230.996 259.185 230.507 259.185 229.969V229.959C259.185 229.11 258.503 228.523 257.313 228.523C256.227 228.523 255.447 229.066 255.324 229.92L255.319 229.954H256.158L256.163 229.93C256.247 229.505 256.706 229.234 257.313 229.234C257.995 229.234 258.345 229.569 258.345 230.024V230.033C258.345 230.586 257.965 230.858 257.284 230.858H256.454V231.569H257.284C258.099 231.569 258.533 231.836 258.533 232.413V232.423C258.533 232.952 258.069 233.332 257.284 233.332C256.637 233.332 256.163 233.055 256.054 232.621L256.045 232.581H255.171L255.176 232.621C255.284 233.48 256.148 234.043 257.284 234.043ZM262.745 234.038C264.261 234.038 265.199 232.991 265.199 231.288V231.278C265.199 229.569 264.261 228.528 262.745 228.528C261.229 228.528 260.291 229.569 260.291 231.278V231.288C260.291 232.991 261.229 234.038 262.745 234.038ZM262.745 233.277C261.738 233.277 261.17 232.542 261.17 231.288V231.278C261.17 230.019 261.738 229.288 262.745 229.288C263.752 229.288 264.32 230.019 264.32 231.278V231.288C264.32 232.542 263.752 233.277 262.745 233.277ZM266.424 233.944H268.69C269.835 233.944 270.512 233.342 270.512 232.418V232.408C270.512 231.791 270.082 231.317 269.406 231.223V231.144C269.904 231.041 270.275 230.542 270.275 230.014V230.004C270.275 229.169 269.687 228.621 268.68 228.621H266.424V233.944ZM267.283 230.873V229.332H268.557C269.154 229.332 269.421 229.638 269.421 230.093V230.103C269.421 230.606 269.11 230.873 268.418 230.873H267.283ZM267.283 233.233V231.584H268.492C269.258 231.584 269.638 231.831 269.638 232.394V232.403C269.638 232.937 269.307 233.233 268.655 233.233H267.283Z" fill="black"/>
<path d="M276.876 231.446L275.901 230.471C275.654 230.224 275.254 230.224 275.007 230.471C274.76 230.718 274.76 231.118 275.007 231.365L276.429 232.787C276.676 233.034 277.076 233.034 277.323 232.787L280.641 229.469C280.888 229.222 280.888 228.822 280.641 228.575C280.394 228.328 279.994 228.328 279.747 228.575L276.876 231.446Z" fill="#5C9CE6"/>
<path d="M195.991 246.92C197.239 246.92 198.005 246.07 198.005 244.698V244.69C198.005 243.386 197.259 242.556 196.096 242.556C195.442 242.556 194.924 242.836 194.631 243.354H194.567L194.579 243.266C194.74 242.086 195.177 241.617 196.184 241.573L196.625 241.553C197.127 241.529 197.584 241.424 197.72 241.296V240.678C197.347 240.83 196.938 240.895 196.593 240.911L196.16 240.931C194.615 241.003 193.977 241.982 193.977 244.277V244.285C193.977 246.018 194.667 246.92 195.991 246.92ZM195.991 246.302C195.165 246.302 194.691 245.713 194.691 244.698V244.69C194.691 243.723 195.165 243.173 195.991 243.173C196.818 243.173 197.291 243.723 197.291 244.69V244.698C197.291 245.713 196.818 246.302 195.991 246.302ZM199.115 246.84H200.66C201.651 246.84 202.284 246.27 202.284 245.376V245.368C202.284 244.473 201.651 243.903 200.66 243.903H199.813V242.515H199.115V246.84ZM203.039 246.84H203.737V242.515H203.039V246.84ZM200.66 244.481C201.225 244.481 201.586 244.83 201.586 245.368V245.376C201.586 245.909 201.229 246.262 200.66 246.262H199.813V244.481H200.66ZM206.074 245.147L206.235 243.093H207.739V246.84H208.437V242.515H205.609L205.425 245.091C205.38 245.733 205.22 246.234 204.823 246.234C204.718 246.234 204.61 246.218 204.574 246.206V246.836C204.63 246.856 204.743 246.88 204.891 246.88C205.613 246.88 205.982 246.339 206.074 245.147ZM213.795 246.916C214.834 246.916 215.415 246.359 215.592 245.576L215.6 245.532L214.91 245.536L214.902 245.56C214.741 246.042 214.372 246.298 213.791 246.298C213.02 246.298 212.523 245.661 212.523 244.666V244.658C212.523 243.683 213.012 243.057 213.791 243.057C214.412 243.057 214.798 243.402 214.906 243.827L214.91 243.839H215.604L215.6 243.815C215.472 243.045 214.842 242.439 213.791 242.439C212.579 242.439 211.809 243.314 211.809 244.658V244.666C211.809 246.038 212.583 246.916 213.795 246.916ZM218.419 246.916C219.438 246.916 220.056 246.339 220.204 245.753L220.212 245.721H219.514L219.498 245.757C219.382 246.018 219.021 246.294 218.435 246.294C217.665 246.294 217.171 245.773 217.151 244.878H220.264V244.605C220.264 243.314 219.55 242.439 218.375 242.439C217.199 242.439 216.437 243.354 216.437 244.69V244.694C216.437 246.05 217.183 246.916 218.419 246.916ZM218.371 243.061C219.009 243.061 219.482 243.466 219.554 244.321H217.163C217.24 243.498 217.729 243.061 218.371 243.061ZM224.143 243.093V242.515H221.374V246.84H222.073V243.093H224.143ZM226.805 246.916C228.037 246.916 228.799 246.066 228.799 244.682V244.674C228.799 243.286 228.037 242.439 226.805 242.439C225.574 242.439 224.811 243.286 224.811 244.674V244.682C224.811 246.066 225.574 246.916 226.805 246.916ZM226.805 246.298C225.987 246.298 225.525 245.701 225.525 244.682V244.674C225.525 243.651 225.987 243.057 226.805 243.057C227.624 243.057 228.085 243.651 228.085 244.674V244.682C228.085 245.701 227.624 246.298 226.805 246.298ZM229.969 247.983V246.84H233.351V247.983H234.001V246.262H233.311V242.515H230.362L230.194 244.926C230.154 245.508 229.997 246.054 229.68 246.262H229.319V247.983H229.969ZM232.613 246.262H230.487V246.198C230.691 245.929 230.804 245.468 230.844 244.942L230.98 243.093H232.613V246.262ZM237.699 246.84H238.397V242.515H237.699V244.305H235.556V242.515H234.858V246.84H235.556V244.882H237.699V246.84ZM242.014 246.84H242.712V242.515H241.208C240.217 242.515 239.583 243.057 239.583 243.944V243.952C239.583 244.541 239.952 244.991 240.562 245.163L239.354 246.84H240.177L241.28 245.292H242.014V246.84ZM241.208 244.714C240.642 244.714 240.297 244.389 240.297 243.936V243.928C240.297 243.406 240.638 243.093 241.208 243.093H242.014V244.714H241.208ZM246.296 246.84H248.138C249.068 246.84 249.618 246.351 249.618 245.6V245.592C249.618 245.091 249.269 244.706 248.719 244.63V244.565C249.125 244.481 249.426 244.076 249.426 243.647V243.639C249.426 242.961 248.948 242.515 248.13 242.515H246.296V246.84ZM246.994 244.345V243.093H248.029C248.515 243.093 248.731 243.342 248.731 243.711V243.719C248.731 244.128 248.479 244.345 247.917 244.345H246.994ZM246.994 246.262V244.922H247.977C248.599 244.922 248.908 245.123 248.908 245.58V245.588C248.908 246.022 248.639 246.262 248.11 246.262H246.994ZM254.907 246.976C256.187 246.976 256.957 245.809 256.957 243.948V243.94C256.957 242.078 256.187 240.915 254.907 240.915C253.627 240.915 252.865 242.078 252.865 243.94V243.948C252.865 245.809 253.627 246.976 254.907 246.976ZM254.907 246.347C254.077 246.347 253.591 245.424 253.591 243.948V243.94C253.591 242.463 254.077 241.549 254.907 241.549C255.738 241.549 256.231 242.463 256.231 243.94V243.948C256.231 245.424 255.738 246.347 254.907 246.347ZM258.095 246.84H261.842V246.19H259.098V246.126L260.414 244.766C261.461 243.687 261.746 243.205 261.746 242.543V242.535C261.746 241.601 260.972 240.915 259.961 240.915C258.854 240.915 258.059 241.653 258.055 242.68L258.063 242.684L258.753 242.688L258.757 242.68C258.757 241.998 259.219 241.545 259.913 241.545C260.595 241.545 261.008 242.002 261.008 242.612V242.62C261.008 243.125 260.791 243.426 260.053 244.224L258.095 246.343V246.84ZM263.578 243.775C263.867 243.775 264.1 243.538 264.1 243.254C264.1 242.965 263.867 242.732 263.578 242.732C263.293 242.732 263.057 242.965 263.057 243.254C263.057 243.538 263.293 243.775 263.578 243.775ZM263.578 246.88C263.867 246.88 264.1 246.643 264.1 246.359C264.1 246.07 263.867 245.837 263.578 245.837C263.293 245.837 263.057 246.07 263.057 246.359C263.057 246.643 263.293 246.88 263.578 246.88ZM267.332 246.976C268.612 246.976 269.382 245.809 269.382 243.948V243.94C269.382 242.078 268.612 240.915 267.332 240.915C266.052 240.915 265.29 242.078 265.29 243.94V243.948C265.29 245.809 266.052 246.976 267.332 246.976ZM267.332 246.347C266.502 246.347 266.016 245.424 266.016 243.948V243.94C266.016 242.463 266.502 241.549 267.332 241.549C268.163 241.549 268.656 242.463 268.656 243.94V243.948C268.656 245.424 268.163 246.347 267.332 246.347ZM272.566 246.976C273.734 246.976 274.592 246.138 274.592 244.983V244.975C274.592 243.863 273.782 243.037 272.695 243.037C271.912 243.037 271.367 243.458 271.154 243.932H271.078C271.078 243.887 271.078 243.839 271.082 243.795C271.126 242.588 271.555 241.561 272.606 241.561C273.192 241.561 273.597 241.861 273.774 242.347L273.79 242.391H274.516L274.504 242.339C274.307 241.484 273.585 240.915 272.614 240.915C271.21 240.915 270.388 242.07 270.388 244.044V244.052C270.388 246.23 271.507 246.976 272.566 246.976ZM271.25 244.975V244.971C271.25 244.216 271.82 243.667 272.57 243.667C273.32 243.667 273.866 244.22 273.866 244.991V244.999C273.866 245.749 273.284 246.339 272.558 246.339C271.824 246.339 271.25 245.737 271.25 244.975Z" fill="#818C99"/>
<g clip-path="url(#clip13_30_15480)">
<path d="M333.247 239.268L332.783 239.732C332.659 239.856 332.474 239.897 332.309 239.836C331.848 239.667 331.271 239.236 330.578 238.543C329.885 237.85 329.454 237.273 329.285 236.811C329.224 236.646 329.265 236.462 329.389 236.338L329.853 235.874C330.709 235.018 330.787 233.67 330.033 232.775L329.488 232.127C328.867 231.388 327.747 231.314 326.986 231.96C326.703 232.204 326.49 232.519 326.37 232.873C326.318 233.026 326.284 233.186 326.27 233.348C325.991 235.416 326.988 237.587 329.261 239.859C331.534 242.132 333.704 243.129 335.772 242.85C336.31 242.799 336.806 242.543 337.16 242.134C337.807 241.374 337.732 240.253 336.993 239.632L336.346 239.086C335.45 238.333 334.102 238.412 333.247 239.268ZM331.471 237.649C331.803 237.98 332.091 238.231 332.325 238.402C333.667 237.06 335.755 236.938 337.16 238.119L337.807 238.664C339.089 239.744 339.218 241.667 338.116 242.961C337.55 243.615 336.754 244.027 335.941 244.103C333.424 244.442 330.893 243.28 328.367 240.753C325.841 238.227 324.678 235.695 325.011 233.235C325.034 232.974 325.088 232.716 325.173 232.465C325.366 231.898 325.707 231.394 326.167 230.997C327.455 229.903 329.377 230.031 330.455 231.314L330.999 231.96C332.182 233.363 332.061 235.453 330.746 236.768C330.889 237.029 331.14 237.318 331.471 237.649Z" fill="#3F8AE0"/>
</g>
<path fill-rule="evenodd" clip-rule="evenodd" d="M359.415 231.52H362.03C362.692 231.52 363.225 231.52 363.657 231.557C364.102 231.595 364.492 231.674 364.854 231.865C365.428 232.168 365.894 232.651 366.187 233.246C366.328 233.532 366.407 233.837 366.451 234.171L366.718 233.991L367.269 233.622C367.415 233.524 367.586 233.408 367.74 233.324C367.896 233.239 368.225 233.074 368.645 233.104C368.881 233.12 369.111 233.189 369.319 233.306C369.526 233.423 369.708 233.584 369.85 233.78C370.103 234.129 370.149 234.506 370.165 234.686C370.181 234.867 370.181 235.078 370.181 235.258V239.158C370.181 239.338 370.181 239.55 370.165 239.73C370.149 239.911 370.104 240.287 369.85 240.636C369.708 240.832 369.526 240.994 369.319 241.11C369.111 241.227 368.881 241.296 368.645 241.312C368.225 241.342 367.896 241.177 367.74 241.092C367.579 241.001 367.422 240.901 367.269 240.795L366.717 240.424L366.451 240.246C366.406 240.579 366.328 240.884 366.187 241.171C365.894 241.765 365.428 242.249 364.854 242.552C364.492 242.743 364.102 242.822 363.657 242.859C363.224 242.896 362.692 242.896 362.03 242.896H359.415C358.753 242.896 358.22 242.896 357.788 242.859C357.344 242.822 356.953 242.743 356.592 242.552C356.018 242.249 355.551 241.765 355.258 241.171C355.074 240.797 354.997 240.392 354.961 239.931C354.926 239.483 354.926 238.932 354.926 238.247V236.17C354.926 235.485 354.926 234.932 354.961 234.485C354.998 234.025 355.074 233.62 355.258 233.246C355.551 232.651 356.017 232.168 356.591 231.865C356.953 231.674 357.344 231.594 357.788 231.557C358.221 231.52 358.753 231.52 359.415 231.52ZM366.519 238.247V235.631L367.905 234.701C368.248 234.47 368.42 234.355 368.562 234.365C368.623 234.369 368.683 234.387 368.737 234.417C368.791 234.447 368.838 234.489 368.875 234.54C368.96 234.658 368.96 234.87 368.96 235.293V239.123C368.96 239.547 368.96 239.758 368.875 239.876C368.838 239.927 368.791 239.969 368.737 239.999C368.683 240.03 368.623 240.047 368.562 240.052C368.42 240.062 368.248 239.946 367.905 239.715L366.519 238.785V238.247ZM357.887 232.816C357.518 232.847 357.306 232.905 357.145 232.99C356.801 233.172 356.521 233.462 356.345 233.819C356.264 233.985 356.208 234.205 356.177 234.587C356.147 234.977 356.146 235.478 356.146 236.196V238.219C356.146 238.937 356.146 239.438 356.177 239.828C356.208 240.21 356.264 240.43 356.345 240.596C356.521 240.953 356.801 241.243 357.145 241.425C357.306 241.51 357.518 241.568 357.887 241.599C358.264 241.631 358.748 241.632 359.441 241.632H362.004C362.698 241.632 363.181 241.632 363.558 241.599C363.927 241.568 364.139 241.51 364.3 241.425C364.644 241.243 364.924 240.953 365.1 240.596C365.181 240.43 365.237 240.21 365.268 239.828C365.298 239.438 365.299 238.937 365.299 238.219V236.196C365.299 235.478 365.299 234.977 365.268 234.587C365.237 234.205 365.181 233.985 365.1 233.819C364.924 233.462 364.644 233.172 364.3 232.99C364.139 232.905 363.927 232.847 363.558 232.816C363.181 232.785 362.697 232.784 362.004 232.784H359.441C358.747 232.784 358.264 232.784 357.887 232.816V232.816Z" fill="#3F8AE0"/>
<g clip-path="url(#clip14_30_15480)">
<g clip-path="url(#clip15_30_15480)">
<rect x="155.584" y="261.208" width="30.336" height="30.336" rx="15.168" fill="#FFE35E"/>
<path d="M165.231 264.842C161.98 264.102 160.575 267.589 159.607 269.78C158.052 270.805 156.85 272.831 158.205 274.866C157.408 276.452 158.081 280.673 163.042 277.188C162.828 279.949 167.261 277.165 168.734 277.471C172.099 278.169 172.786 275.196 171.97 272.97C171.345 271.265 172.513 270.862 172.379 267.928C172.159 261.875 165.942 262.675 165.231 264.842Z" fill="#2787F5"/>
<path d="M171.632 270.131C171.645 268.833 170.828 267.771 169.806 267.761C168.784 267.75 167.944 268.794 167.931 270.092C167.917 271.391 168.735 272.452 169.757 272.463C170.778 272.474 171.618 271.43 171.632 270.131Z" fill="white"/>
<path d="M156.208 289.642C157.676 280.319 155.386 277.48 162.555 276.33C163.129 276.237 163.661 275.971 164.079 275.567C164.498 275.163 164.783 274.641 164.897 274.07C165.077 273.243 165.171 272.399 165.178 271.553L166.281 272.182L168.939 272.649C168.852 273.267 168.832 273.892 168.878 274.514C168.921 275.342 169.322 275.911 170.534 276.272C173.048 276.991 173.372 279.245 174.986 280.578C179.027 283.915 164.692 293.842 160.663 290.098C158.681 289.58 155.599 293.71 156.208 289.642Z" fill="#FCA190"/>
<path d="M164.988 273.767C166.652 275.417 169.496 273.339 168.322 273.367C167.148 273.396 165.404 272.156 165.404 272.156C165.404 272.156 165.108 271.581 165.088 271.883C165.17 272.231 164.988 273.767 164.988 273.767Z" fill="#F07875"/>
<path d="M170.835 269.137C171.175 271.688 170.723 273.545 168.15 273.838C166.149 274.065 164.628 272.349 163.977 270.749C162.502 270.885 162.107 269.37 162.629 268.898C162.752 268.79 162.898 268.712 163.057 268.671C163.215 268.63 163.381 268.627 163.541 268.662C164.986 268.981 166.202 266.734 166.783 265.602C170.663 264.863 170.835 269.137 170.835 269.137Z" fill="#FCA190"/>
<path d="M168.177 270.155C168.194 270.158 168.212 270.158 168.229 270.155C168.486 270.09 168.655 270.022 168.704 269.884C168.754 269.746 168.673 269.639 168.593 269.528C168.498 269.408 168.43 269.268 168.395 269.119C168.388 269.082 168.367 269.05 168.336 269.029C168.305 269.008 168.267 269 168.23 269.007C168.193 269.014 168.161 269.036 168.14 269.067C168.119 269.098 168.111 269.136 168.118 269.173C168.16 269.362 168.244 269.539 168.364 269.691C168.387 269.722 168.409 269.755 168.429 269.789C168.343 269.831 168.253 269.862 168.159 269.881C168.141 269.885 168.124 269.893 168.109 269.904C168.094 269.915 168.082 269.929 168.072 269.945C168.063 269.961 168.056 269.979 168.054 269.997C168.051 270.015 168.052 270.034 168.056 270.052C168.063 270.079 168.079 270.104 168.1 270.122C168.122 270.141 168.149 270.152 168.177 270.155Z" fill="#F07875"/>
<path d="M170.083 267.825C170.134 268.1 169.133 268.023 169.011 267.825C168.89 267.627 168.981 267.501 169.417 267.488C169.771 267.49 170.046 267.653 170.083 267.825Z" fill="#171B4D"/>
<path d="M167.132 267.859C167.261 268.153 166.139 268.343 165.915 268.114C165.781 267.972 165.934 267.733 166.359 267.666C166.854 267.586 167.062 267.698 167.132 267.859Z" fill="#171B4D"/>
<path d="M169.08 271.003C169.123 271.159 168.79 271.577 168.224 271.516C167.546 271.445 167.059 270.973 167.241 270.784C167.337 270.684 167.777 270.759 168.167 270.784C168.558 270.809 169.051 270.892 169.08 271.003Z" fill="white"/>
<path d="M169.482 269.671C169.715 269.655 169.89 269.412 169.871 269.127C169.852 268.843 169.647 268.625 169.413 268.641C169.18 268.657 169.005 268.901 169.024 269.185C169.043 269.469 169.248 269.687 169.482 269.671Z" fill="#171B4D"/>
<path d="M165.718 269.22C165.729 269.17 165.901 269.18 166.056 269.189C166.211 269.199 166.42 268.794 166.946 268.901C167.393 268.992 167.506 269.322 167.469 269.368C167.433 269.414 166.906 269.236 166.609 269.33C166.383 269.401 166.341 269.5 166.143 269.489C166.027 269.494 165.692 269.339 165.718 269.22Z" fill="#171B4D"/>
<path d="M163.822 272.462C164.725 272.432 165.423 271.362 165.381 270.073C165.338 268.783 164.571 267.762 163.667 267.792C162.763 267.822 162.065 268.892 162.108 270.181C162.151 271.471 162.918 272.492 163.822 272.462Z" fill="white"/>
<path d="M163.48 271.309C163.94 271.288 164.288 270.735 164.258 270.073C164.228 269.412 163.832 268.893 163.372 268.914C162.912 268.935 162.563 269.489 162.593 270.15C162.623 270.811 163.02 271.33 163.48 271.309Z" fill="#2929B2"/>
<path d="M163.666 268.076C163.686 268.084 163.706 268.09 163.728 268.092C163.762 268.097 163.797 268.095 163.83 268.086C163.863 268.077 163.894 268.062 163.922 268.041C163.949 268.02 163.972 267.994 163.99 267.964C164.007 267.934 164.018 267.901 164.023 267.866C164.023 267.842 164.214 265.553 165.212 264.854C165.33 264.77 164.858 264.636 164.625 264.817C163.478 265.707 163.513 267.697 163.504 267.796C163.496 267.854 163.508 267.913 163.538 267.964C163.567 268.014 163.612 268.054 163.666 268.076Z" fill="white"/>
<path d="M182.833 278.682C183.087 277.782 184.88 276.684 184.329 275.265C184.187 274.861 183.93 274.508 183.589 274.249C183.552 274.244 183.517 274.232 183.485 274.213C183.453 274.194 183.425 274.169 183.403 274.139C183.382 274.109 183.366 274.075 183.358 274.039C183.35 274.003 183.35 273.965 183.357 273.929C183.576 272.837 184.869 270.892 184.204 270.799C183.589 270.712 182.686 272.767 182.462 273.258C182.238 273.748 182.152 273.938 182.051 273.926C181.393 273.926 183.034 270.918 182.398 270.718C181.861 270.596 181.789 271.197 180.504 274.212C179.879 274.851 179.865 276.52 179.79 277.533C179.742 278.783 179.083 279.68 179.67 280.091C180.674 280.805 182.12 280.73 182.404 280.282C182.689 279.835 182.572 279.582 182.833 278.682Z" fill="#FCA190"/>
</g>
</g>
<path d="M194.462 273.112H198.876V272.312H195.351V269.863H198.693V269.073H195.351V266.787H198.876V265.987H194.462V273.112ZM201.518 271.028L201.715 268.5H203.567V273.112H204.426V267.789H200.945L200.718 270.959C200.664 271.749 200.466 272.367 199.977 272.367C199.849 272.367 199.716 272.347 199.671 272.332V273.107C199.74 273.132 199.879 273.161 200.061 273.161C200.95 273.161 201.404 272.495 201.518 271.028ZM208.09 273.206C209.344 273.206 210.104 272.495 210.287 271.774L210.297 271.735H209.438L209.418 271.779C209.275 272.1 208.83 272.441 208.11 272.441C207.162 272.441 206.554 271.799 206.53 270.698H210.361V270.362C210.361 268.772 209.482 267.696 208.035 267.696C206.589 267.696 205.651 268.821 205.651 270.466V270.471C205.651 272.139 206.569 273.206 208.09 273.206ZM208.031 268.461C208.816 268.461 209.398 268.96 209.487 270.011H206.544C206.638 268.999 207.241 268.461 208.031 268.461ZM215.081 273.112H215.941V267.789H215.081V269.992H212.445V267.789H211.586V273.112H212.445V270.703H215.081V273.112ZM218.893 273.206C219.609 273.206 220.167 272.895 220.503 272.327H220.582V273.112H221.441V269.468C221.441 268.362 220.715 267.696 219.417 267.696C218.281 267.696 217.471 268.259 217.333 269.093L217.328 269.123H218.187L218.192 269.108C218.331 268.693 218.75 268.456 219.387 268.456C220.182 268.456 220.582 268.812 220.582 269.468V269.952L219.056 270.046C217.817 270.12 217.116 270.668 217.116 271.616V271.626C217.116 272.594 217.881 273.206 218.893 273.206ZM217.995 271.606V271.596C217.995 271.068 218.35 270.782 219.16 270.732L220.582 270.643V271.127C220.582 271.888 219.945 272.46 219.071 272.46C218.454 272.46 217.995 272.144 217.995 271.606ZM225.658 273.112H226.488V267.671H226.542L228.793 273.112H229.544L231.795 267.671H231.85V273.112H232.679V265.987H231.647L229.208 271.932H229.129L226.69 265.987H225.658V273.112ZM235.746 273.206C236.462 273.206 237.02 272.895 237.355 272.327H237.434V273.112H238.293V269.468C238.293 268.362 237.568 267.696 236.269 267.696C235.133 267.696 234.324 268.259 234.185 269.093L234.181 269.123H235.04L235.045 269.108C235.183 268.693 235.603 268.456 236.239 268.456C237.034 268.456 237.434 268.812 237.434 269.468V269.952L235.909 270.046C234.669 270.12 233.968 270.668 233.968 271.616V271.626C233.968 272.594 234.734 273.206 235.746 273.206ZM234.847 271.606V271.596C234.847 271.068 235.203 270.782 236.012 270.732L237.434 270.643V271.127C237.434 271.888 236.797 272.46 235.923 272.46C235.306 272.46 234.847 272.144 234.847 271.606ZM241.972 267.049C242.989 267.049 243.666 266.348 243.666 265.429H242.895C242.895 265.968 242.555 266.466 241.972 266.466C241.399 266.466 241.049 265.968 241.049 265.429H240.279C240.279 266.348 240.955 267.049 241.972 267.049ZM239.755 273.112H240.614L243.246 269.142H243.325V273.112H244.184V267.789H243.325L240.693 271.759H240.614V267.789H239.755V273.112ZM247.868 273.206C249.383 273.206 250.322 272.159 250.322 270.456V270.446C250.322 268.737 249.383 267.696 247.868 267.696C246.352 267.696 245.414 268.737 245.414 270.446V270.456C245.414 272.159 246.352 273.206 247.868 273.206ZM247.868 272.446C246.86 272.446 246.293 271.71 246.293 270.456V270.446C246.293 269.187 246.86 268.456 247.868 268.456C248.875 268.456 249.443 269.187 249.443 270.446V270.456C249.443 271.71 248.875 272.446 247.868 272.446ZM251.551 274.89H252.41V272.273H252.489C252.781 272.841 253.418 273.206 254.148 273.206C255.501 273.206 256.38 272.125 256.38 270.456V270.446C256.38 268.787 255.496 267.696 254.148 267.696C253.408 267.696 252.815 268.046 252.489 268.639H252.41V267.789H251.551V274.89ZM253.951 272.446C252.983 272.446 252.391 271.685 252.391 270.456V270.446C252.391 269.216 252.983 268.456 253.951 268.456C254.924 268.456 255.501 269.207 255.501 270.446V270.456C255.501 271.695 254.924 272.446 253.951 272.446ZM259.807 273.206C261.323 273.206 262.261 272.159 262.261 270.456V270.446C262.261 268.737 261.323 267.696 259.807 267.696C258.291 267.696 257.353 268.737 257.353 270.446V270.456C257.353 272.159 258.291 273.206 259.807 273.206ZM259.807 272.446C258.8 272.446 258.232 271.71 258.232 270.456V270.446C258.232 269.187 258.8 268.456 259.807 268.456C260.814 268.456 261.382 269.187 261.382 270.446V270.456C261.382 271.71 260.814 272.446 259.807 272.446ZM263.486 273.112H265.752C266.897 273.112 267.574 272.51 267.574 271.586V271.577C267.574 270.959 267.144 270.485 266.468 270.392V270.313C266.966 270.209 267.337 269.71 267.337 269.182V269.172C267.337 268.338 266.749 267.789 265.742 267.789H263.486V273.112ZM264.345 270.041V268.5H265.619C266.216 268.5 266.483 268.807 266.483 269.261V269.271C266.483 269.774 266.172 270.041 265.48 270.041H264.345ZM264.345 272.401V270.752H265.554C266.32 270.752 266.7 270.999 266.7 271.562V271.572C266.7 272.105 266.369 272.401 265.717 272.401H264.345ZM270.29 273.206C271.006 273.206 271.563 272.895 271.899 272.327H271.978V273.112H272.837V269.468C272.837 268.362 272.112 267.696 270.813 267.696C269.677 267.696 268.868 268.259 268.729 269.093L268.724 269.123H269.584L269.588 269.108C269.727 268.693 270.146 268.456 270.783 268.456C271.578 268.456 271.978 268.812 271.978 269.468V269.952L270.453 270.046C269.213 270.12 268.512 270.668 268.512 271.616V271.626C268.512 272.594 269.277 273.206 270.29 273.206ZM269.391 271.606V271.596C269.391 271.068 269.746 270.782 270.556 270.732L271.978 270.643V271.127C271.978 271.888 271.341 272.46 270.467 272.46C269.85 272.46 269.391 272.144 269.391 271.606Z" fill="black"/>
<g clip-path="url(#clip16_30_15480)">
<path d="M333.247 278.436L332.783 278.9C332.659 279.024 332.474 279.065 332.309 279.004C331.848 278.835 331.271 278.404 330.578 277.711C329.885 277.018 329.454 276.441 329.285 275.979C329.224 275.814 329.265 275.63 329.389 275.505L329.853 275.042C330.709 274.186 330.787 272.838 330.033 271.943L329.488 271.295C328.867 270.556 327.747 270.481 326.986 271.128C326.703 271.372 326.49 271.687 326.37 272.041C326.318 272.194 326.284 272.354 326.27 272.516C325.991 274.584 326.988 276.755 329.261 279.027C331.534 281.3 333.704 282.297 335.772 282.018C336.31 281.967 336.806 281.711 337.16 281.302C337.807 280.542 337.732 279.421 336.993 278.8L336.346 278.254C335.45 277.501 334.102 277.58 333.247 278.436ZM331.471 276.817C331.803 277.148 332.091 277.399 332.325 277.57C333.667 276.228 335.755 276.106 337.16 277.287L337.807 277.832C339.089 278.912 339.218 280.835 338.116 282.129C337.55 282.783 336.754 283.194 335.941 283.271C333.424 283.61 330.893 282.447 328.367 279.921C325.841 277.395 324.678 274.863 325.011 272.403C325.034 272.142 325.088 271.884 325.173 271.633C325.366 271.066 325.707 270.562 326.167 270.165C327.455 269.071 329.377 269.199 330.455 270.482L330.999 271.128C332.182 272.531 332.061 274.621 330.746 275.936C330.889 276.197 331.14 276.486 331.471 276.817Z" fill="#3F8AE0"/>
</g>
<path fill-rule="evenodd" clip-rule="evenodd" d="M359.415 270.688H362.03C362.692 270.688 363.225 270.688 363.657 270.725C364.102 270.763 364.492 270.842 364.854 271.032C365.428 271.335 365.894 271.819 366.187 272.413C366.328 272.7 366.407 273.005 366.451 273.339L366.718 273.159L367.269 272.789C367.415 272.691 367.586 272.576 367.74 272.492C367.896 272.407 368.225 272.242 368.645 272.272C368.881 272.288 369.111 272.357 369.319 272.474C369.526 272.591 369.708 272.752 369.85 272.948C370.103 273.297 370.149 273.674 370.165 273.854C370.181 274.034 370.181 274.246 370.181 274.426V278.326C370.181 278.506 370.181 278.718 370.165 278.898C370.149 279.078 370.104 279.455 369.85 279.804C369.708 280 369.526 280.161 369.319 280.278C369.111 280.395 368.881 280.464 368.645 280.48C368.225 280.51 367.896 280.345 367.74 280.26C367.579 280.168 367.422 280.069 367.269 279.963L366.717 279.592L366.451 279.413C366.406 279.747 366.328 280.052 366.187 280.339C365.894 280.933 365.428 281.417 364.854 281.72C364.492 281.91 364.102 281.99 363.657 282.027C363.224 282.064 362.692 282.064 362.03 282.064H359.415C358.753 282.064 358.22 282.064 357.788 282.027C357.344 281.989 356.953 281.91 356.592 281.72C356.018 281.417 355.551 280.933 355.258 280.339C355.074 279.965 354.997 279.56 354.961 279.099C354.926 278.651 354.926 278.1 354.926 277.414V275.338C354.926 274.653 354.926 274.1 354.961 273.653C354.998 273.193 355.074 272.788 355.258 272.413C355.551 271.819 356.017 271.335 356.591 271.032C356.953 270.842 357.344 270.762 357.788 270.725C358.221 270.688 358.753 270.688 359.415 270.688ZM366.519 277.414V274.799L367.905 273.869C368.248 273.638 368.42 273.523 368.562 273.533C368.623 273.537 368.683 273.555 368.737 273.585C368.791 273.615 368.838 273.657 368.875 273.708C368.96 273.826 368.96 274.038 368.96 274.461V278.291C368.96 278.714 368.96 278.926 368.875 279.044C368.838 279.095 368.791 279.137 368.737 279.167C368.683 279.197 368.623 279.215 368.562 279.219C368.42 279.23 368.248 279.114 367.905 278.883L366.519 277.953V277.414ZM357.887 271.984C357.518 272.015 357.306 272.073 357.145 272.158C356.801 272.34 356.521 272.63 356.345 272.987C356.264 273.153 356.208 273.373 356.177 273.755C356.147 274.145 356.146 274.646 356.146 275.364V277.387C356.146 278.105 356.146 278.606 356.177 278.996C356.208 279.378 356.264 279.598 356.345 279.764C356.521 280.121 356.801 280.411 357.145 280.593C357.306 280.677 357.518 280.736 357.887 280.767C358.264 280.799 358.748 280.799 359.441 280.799H362.004C362.698 280.799 363.181 280.799 363.558 280.767C363.927 280.736 364.139 280.677 364.3 280.593C364.644 280.411 364.924 280.121 365.1 279.764C365.181 279.598 365.237 279.378 365.268 278.996C365.298 278.606 365.299 278.105 365.299 277.387V275.364C365.299 274.646 365.299 274.145 365.268 273.755C365.237 273.373 365.181 273.153 365.1 272.987C364.924 272.63 364.644 272.34 364.3 272.158C364.139 272.073 363.927 272.015 363.558 271.984C363.181 271.953 362.697 271.952 362.004 271.952H359.441C358.747 271.952 358.264 271.952 357.887 271.984V271.984Z" fill="#3F8AE0"/>
</g>
</g>
<path d="M195.383 22.353H191V9.60144H340.033V22.353H336.048C333.848 22.353 332.064 24.137 332.064 26.3378V27.5333C332.064 35.456 325.641 41.8787 317.718 41.8787H213.714C205.791 41.8787 199.368 35.456 199.368 27.5333V26.3378C199.368 24.137 197.584 22.353 195.383 22.353Z" fill="#222222"/>
<path d="M240.412 29.1272C240.412 27.8068 241.483 26.7363 242.803 26.7363H276.276C277.596 26.7363 278.667 27.8068 278.667 29.1272C278.667 30.4477 277.596 31.5181 276.276 31.5181H242.803C241.483 31.5181 240.412 30.4477 240.412 29.1272Z" fill="#3C3C3C"/>
<path d="M289.824 29.1272C289.824 30.4477 288.754 31.5181 287.433 31.5181C286.113 31.5181 285.042 30.4477 285.042 29.1272C285.042 27.8068 286.113 26.7363 287.433 26.7363C288.754 26.7363 289.824 27.8068 289.824 29.1272Z" fill="#3C3C3C"/>
</g>
<rect x="141.376" y="16.3758" width="250.248" height="527.248" rx="33.6242" stroke="#222222" stroke-width="12.7515"/>
</g>
<defs>
<clipPath id="clip0_30_15480">
<rect width="534" height="272" fill="white"/>
</clipPath>
<clipPath id="clip1_30_15480">
<rect width="396" height="272" fill="white" transform="translate(69)"/>
</clipPath>
<clipPath id="clip2_30_15480">
<rect x="135" y="10" width="263" height="540" rx="40" fill="white"/>
</clipPath>
<clipPath id="clip3_30_15480">
<rect x="148" y="23" width="237" height="513.184" rx="8.848" fill="white"/>
</clipPath>
<clipPath id="clip4_30_15480">
<rect width="237" height="384.16" fill="white" transform="translate(148 23)"/>
</clipPath>
<clipPath id="clip5_30_15480">
<rect x="148" y="23" width="237" height="91.008" fill="white"/>
</clipPath>
<clipPath id="clip6_30_15480">
<rect width="10.112" height="10.112" fill="white" transform="translate(163.168 92.088)"/>
</clipPath>
<clipPath id="clip7_30_15480">
<rect width="37.92" height="37.92" fill="white" transform="translate(155.584 139.912)"/>
</clipPath>
<clipPath id="clip8_30_15480">
<rect x="155.584" y="143.704" width="30.336" height="30.336" rx="15.168" fill="white"/>
</clipPath>
<clipPath id="clip9_30_15480">
<rect width="37.92" height="37.92" fill="white" transform="translate(155.584 179.08)"/>
</clipPath>
<clipPath id="clip10_30_15480">
<rect x="155.584" y="182.872" width="30.336" height="30.336" rx="15.168" fill="white"/>
</clipPath>
<clipPath id="clip11_30_15480">
<rect width="37.92" height="37.92" fill="white" transform="translate(155.584 218.248)"/>
</clipPath>
<clipPath id="clip12_30_15480">
<rect x="155.584" y="222.04" width="30.336" height="30.336" rx="15.168" fill="white"/>
</clipPath>
<clipPath id="clip13_30_15480">
<rect width="17.696" height="17.696" fill="white" transform="translate(323.064 228.36)"/>
</clipPath>
<clipPath id="clip14_30_15480">
<rect width="37.92" height="37.92" fill="white" transform="translate(155.584 257.416)"/>
</clipPath>
<clipPath id="clip15_30_15480">
<rect x="155.584" y="261.208" width="30.336" height="30.336" rx="15.168" fill="white"/>
</clipPath>
<clipPath id="clip16_30_15480">
<rect width="17.696" height="17.696" fill="white" transform="translate(323.064 267.528)"/>
</clipPath>
</defs>
</svg>
