<svg width="534" height="272" viewBox="0 0 534 272" fill="none" xmlns="http://www.w3.org/2000/svg">
<g clip-path="url(#clip0_30_11205)">
<g clip-path="url(#clip1_30_11205)">
<path d="M274.876 113C364.481 113 409.283 113 437.119 140.837C461.725 165.442 464.581 203.302 464.913 273.642H69C69.3316 203.302 72.1879 165.442 96.793 140.837C124.63 113 169.432 113 259.036 113H274.876Z" fill="#0077FF"/>
</g>
<g clip-path="url(#clip2_30_11205)">
<rect x="135" y="10" width="263" height="540" rx="40" fill="white"/>
<g clip-path="url(#clip3_30_11205)">
<rect x="147" y="23" width="239" height="517.515" rx="8.92267" fill="white"/>
<g clip-path="url(#clip4_30_11205)">
<g clip-path="url(#clip5_30_11205)">
<rect x="147" y="23" width="239" height="61.184" fill="white"/>
<path opacity="0.4" d="M361.463 36.7027C361.463 36.2512 361.463 35.9318 361.483 35.6821C361.503 35.4361 361.542 35.286 361.602 35.168C361.724 34.9281 361.919 34.7331 362.159 34.6109C362.277 34.5508 362.427 34.5127 362.673 34.4926C362.923 34.4722 363.242 34.472 363.693 34.472H372.616C373.067 34.472 373.387 34.4722 373.637 34.4926C373.883 34.5127 374.033 34.5508 374.151 34.6109C374.391 34.7331 374.586 34.9281 374.708 35.168C374.768 35.286 374.806 35.4361 374.826 35.6821C374.846 35.9318 374.847 36.2512 374.847 36.7027V38.296C374.847 38.7474 374.846 39.0668 374.826 39.3165C374.806 39.5625 374.768 39.7127 374.708 39.8307C374.586 40.0705 374.391 40.2655 374.151 40.3877C374.033 40.4479 373.883 40.4859 373.637 40.506C373.387 40.5264 373.067 40.5267 372.616 40.5267H363.693C363.242 40.5267 362.923 40.5264 362.673 40.506C362.427 40.4859 362.277 40.4479 362.159 40.3877C361.919 40.2655 361.724 40.0705 361.602 39.8307C361.542 39.7127 361.503 39.5625 361.483 39.3165C361.463 39.0668 361.463 38.7474 361.463 38.296V36.7027Z" stroke="black" stroke-width="0.637333"/>
<path opacity="0.4" fill-rule="evenodd" clip-rule="evenodd" d="M375.803 38.8531C376.353 38.7115 376.759 38.2125 376.759 37.6185C376.759 37.0246 376.353 36.5255 375.803 36.384V38.8531Z" fill="black"/>
<rect x="362.419" y="35.428" width="11.472" height="4.14267" rx="0.637333" fill="black"/>
<path fill-rule="evenodd" clip-rule="evenodd" d="M353.069 35.4968C354.481 35.4969 355.84 36.0395 356.863 37.0126C356.94 37.0877 357.064 37.0868 357.139 37.0105L357.876 36.2669C357.915 36.2282 357.936 36.1758 357.936 36.1213C357.935 36.0667 357.913 36.0146 357.874 35.9763C355.188 33.4018 350.95 33.4018 348.264 35.9763C348.225 36.0145 348.203 36.0667 348.202 36.1212C348.202 36.1758 348.223 36.2282 348.262 36.2669L348.999 37.0105C349.074 37.0869 349.198 37.0879 349.275 37.0126C350.298 36.0395 351.657 35.4968 353.069 35.4968ZM353.069 37.916C353.845 37.9159 354.593 38.2043 355.169 38.7252C355.246 38.7991 355.369 38.7975 355.445 38.7216L356.181 37.978C356.219 37.939 356.241 37.8861 356.24 37.8311C356.24 37.7761 356.217 37.7237 356.178 37.6855C354.426 36.0562 351.714 36.0562 349.962 37.6855C349.923 37.7237 349.9 37.7762 349.9 37.8312C349.899 37.8861 349.921 37.9391 349.959 37.978L350.695 38.7216C350.771 38.7975 350.894 38.7991 350.971 38.7252C351.546 38.2047 352.294 37.9163 353.069 37.916ZM354.543 39.5436C354.544 39.5987 354.523 39.6519 354.483 39.6905L353.21 40.9752C353.173 41.0129 353.122 41.0342 353.069 41.0342C353.016 41.0342 352.965 41.0129 352.928 40.9752L351.655 39.6905C351.615 39.6519 351.594 39.5987 351.595 39.5435C351.596 39.4884 351.62 39.4362 351.661 39.3992C352.474 38.7116 353.665 38.7116 354.477 39.3992C354.518 39.4362 354.542 39.4885 354.543 39.5436Z" fill="black"/>
<path fill-rule="evenodd" clip-rule="evenodd" d="M344.998 34.897C344.998 34.545 344.713 34.2596 344.361 34.2596H343.724C343.372 34.2596 343.086 34.545 343.086 34.897V40.4205C343.086 40.7725 343.372 41.0579 343.724 41.0579H344.361C344.713 41.0579 344.998 40.7725 344.998 40.4205V34.897ZM340.749 35.7468H341.387C341.739 35.7468 342.024 36.0321 342.024 36.3841V40.4206C342.024 40.7725 341.739 41.0579 341.387 41.0579H340.749C340.397 41.0579 340.112 40.7725 340.112 40.4206V36.3841C340.112 36.0321 340.397 35.7468 340.749 35.7468ZM338.412 37.2338H337.775C337.423 37.2338 337.138 37.5192 337.138 37.8712V40.4205C337.138 40.7725 337.423 41.0578 337.775 41.0578H338.412C338.764 41.0578 339.05 40.7725 339.05 40.4205V37.8712C339.05 37.5192 338.764 37.2338 338.412 37.2338ZM336.076 39.1458C336.076 38.7939 335.79 38.5085 335.438 38.5085H334.801C334.449 38.5085 334.164 38.7939 334.164 39.1458V40.4205C334.164 40.7725 334.449 41.0578 334.801 41.0578H335.438C335.79 41.0578 336.076 40.7725 336.076 40.4205V39.1458Z" fill="black"/>
<path d="M166.953 41.1329H168.158V34.3971H166.958L165.198 35.6341V36.7684L166.874 35.5827H166.953V41.1329ZM169.838 41.1329H174.516V40.134H171.467V40.036L172.817 38.7289C174.044 37.5479 174.413 36.9411 174.413 36.1756V36.1615C174.413 35.0272 173.47 34.229 172.158 34.229C170.753 34.229 169.773 35.1066 169.773 36.3623L169.778 36.3763L170.898 36.3809L170.903 36.3623C170.903 35.6667 171.383 35.1953 172.098 35.1953C172.798 35.1953 173.223 35.6434 173.223 36.2642V36.2782C173.223 36.7964 172.966 37.1372 172.051 38.0614L169.838 40.3207V41.1329ZM176.528 36.7684C176.957 36.7684 177.27 36.4416 177.27 36.0308C177.27 35.6154 176.957 35.2933 176.528 35.2933C176.103 35.2933 175.786 35.6154 175.786 36.0308C175.786 36.4416 176.103 36.7684 176.528 36.7684ZM176.528 40.232C176.957 40.232 177.27 39.9099 177.27 39.4945C177.27 39.079 176.957 38.7569 176.528 38.7569C176.103 38.7569 175.786 39.079 175.786 39.4945C175.786 39.9099 176.103 40.232 176.528 40.232ZM181.723 41.1329H182.876V39.8399H183.782V38.8456H182.876V34.3971H181.173C180.258 35.7881 179.301 37.3379 178.428 38.855V39.8399H181.723V41.1329ZM179.548 38.8736V38.8036C180.202 37.66 180.981 36.4136 181.672 35.3587H181.742V38.8736H179.548ZM187.362 41.2683C188.912 41.2683 189.991 40.4654 189.991 39.3124V39.3031C189.991 38.4395 189.365 37.772 188.464 37.5899V37.5619C189.234 37.3565 189.748 36.7917 189.748 36.0682V36.0589C189.748 35.0226 188.758 34.2617 187.362 34.2617C185.967 34.2617 184.977 35.0226 184.977 36.0589V36.0682C184.977 36.7917 185.491 37.3565 186.261 37.5619V37.5899C185.365 37.772 184.734 38.4395 184.734 39.3031V39.3124C184.734 40.4654 185.813 41.2683 187.362 41.2683ZM187.362 37.1792C186.658 37.1792 186.167 36.7684 186.167 36.1802V36.1709C186.167 35.5827 186.658 35.1719 187.362 35.1719C188.067 35.1719 188.557 35.5827 188.557 36.1709V36.1802C188.557 36.7684 188.067 37.1792 187.362 37.1792ZM187.362 40.3487C186.555 40.3487 185.981 39.8819 185.981 39.2331V39.2237C185.981 38.5702 186.546 38.0988 187.362 38.0988C188.175 38.0988 188.744 38.5702 188.744 39.2237V39.2331C188.744 39.8819 188.17 40.3487 187.362 40.3487Z" fill="black"/>
<path fill-rule="evenodd" clip-rule="evenodd" d="M161.633 61.5462C161.992 61.884 162.009 62.4487 161.671 62.8075L157.148 67.6133L161.671 72.4191C162.009 72.778 161.992 73.3427 161.633 73.6804C161.274 74.0181 160.709 74.001 160.371 73.6422L155.273 68.2248C154.949 67.8813 154.949 67.3454 155.273 67.0018L160.371 61.5845C160.709 61.2256 161.274 61.2085 161.633 61.5462Z" fill="#3F8AE0"/>
<g clip-path="url(#clip6_30_11205)">
<g clip-path="url(#clip7_30_11205)">
<path d="M370.385 64.108C370.385 62.8754 369.387 61.8773 368.154 61.8773C366.922 61.8773 365.924 62.8754 365.924 64.108C365.924 65.3406 366.922 66.3387 368.154 66.3387C369.387 66.3387 370.385 65.3406 370.385 64.108ZM371.66 64.108C371.66 66.0446 370.091 67.6133 368.154 67.6133C366.218 67.6133 364.649 66.0446 364.649 64.108C364.649 62.1714 366.218 60.6027 368.154 60.6027C370.091 60.6027 371.66 62.1714 371.66 64.108ZM363.693 71.847C363.693 72.4483 363.642 72.3933 363.984 72.3933H372.644C372.986 72.3933 372.934 72.4483 372.934 71.847C372.934 70.3887 370.829 69.5253 368.314 69.5253C365.799 69.5253 363.693 70.3887 363.693 71.847ZM362.418 71.847C362.418 69.374 365.158 68.2507 368.314 68.2507C371.469 68.2507 374.209 69.374 374.209 71.847C374.209 73.1322 373.711 73.668 372.644 73.668H363.984C362.916 73.668 362.418 73.1322 362.418 71.847Z" fill="#3F8AE0"/>
</g>
</g>
<path d="M175.043 66.768C175.043 63.1986 175.043 61.4139 175.737 60.0506C176.348 58.8514 177.323 57.8764 178.523 57.2653C179.886 56.5707 181.671 56.5707 185.24 56.5707H341.549C345.119 56.5707 346.903 56.5707 348.267 57.2653C349.466 57.8764 350.441 58.8514 351.052 60.0506C351.747 61.4139 351.747 63.1986 351.747 66.768V69.3173C351.747 72.8867 351.747 74.6714 351.052 76.0348C350.441 77.234 349.466 78.209 348.267 78.82C346.903 79.5147 345.119 79.5147 341.549 79.5147H185.24C181.671 79.5147 179.886 79.5147 178.523 78.82C177.323 78.209 176.348 77.234 175.737 76.0348C175.043 74.6714 175.043 72.8867 175.043 69.3173V66.768Z" fill="#EBEDF0"/>
<g clip-path="url(#clip8_30_11205)">
<path d="M186.833 63.5813C188.769 63.5813 190.339 65.1508 190.339 67.0868C190.339 67.8825 190.074 68.6162 189.627 69.2045L192.11 71.6903C192.296 71.8771 192.296 72.1797 192.109 72.3663C191.923 72.5529 191.62 72.5527 191.433 72.3659L188.951 69.8806C188.363 70.3273 187.629 70.5923 186.833 70.5923C184.897 70.5923 183.328 69.0229 183.328 67.0868C183.328 65.1508 184.897 63.5813 186.833 63.5813ZM186.833 64.5373C185.425 64.5373 184.284 65.6787 184.284 67.0868C184.284 68.4949 185.425 69.6363 186.833 69.6363C188.241 69.6363 189.383 68.4949 189.383 67.0868C189.383 65.6787 188.241 64.5373 186.833 64.5373Z" fill="#818C99"/>
</g>
<path d="M205.002 71.7134V64.0794H199.013V71.7134H199.965V64.9364H204.05V71.7134H205.002ZM209.022 71.8139C210.646 71.8139 211.651 70.6923 211.651 68.8672V68.8566C211.651 67.0261 210.646 65.9098 209.022 65.9098C207.398 65.9098 206.392 67.0261 206.392 68.8566V68.8672C206.392 70.6923 207.398 71.8139 209.022 71.8139ZM209.022 70.9992C207.942 70.9992 207.334 70.2109 207.334 68.8672V68.8566C207.334 67.5075 207.942 66.7246 209.022 66.7246C210.101 66.7246 210.709 67.5075 210.709 68.8566V68.8672C210.709 70.2109 210.101 70.9992 209.022 70.9992ZM212.92 71.7134H213.84L216.66 67.4599H216.745V71.7134H217.665V66.0104H216.745L213.925 70.2638H213.84V66.0104H212.92V71.7134ZM221.558 71.8139C222.928 71.8139 223.696 71.0785 223.928 70.0469L223.939 69.9887L223.029 69.994L223.018 70.0258C222.807 70.6606 222.32 70.9992 221.553 70.9992C220.537 70.9992 219.881 70.158 219.881 68.846V68.8354C219.881 67.5499 220.527 66.7246 221.553 66.7246C222.373 66.7246 222.881 67.1795 223.024 67.7403L223.029 67.7562H223.944L223.939 67.7244C223.77 66.7087 222.939 65.9098 221.553 65.9098C219.955 65.9098 218.94 67.0631 218.94 68.8354V68.846C218.94 70.6553 219.961 71.8139 221.558 71.8139ZM226.34 69.1158L228.572 71.7134H229.752L227.086 68.6979L229.652 66.0104H228.546L226.34 68.3963H226.049V66.0104H225.128V71.7134H226.049V69.1158H226.34ZM235.898 71.8139C237.522 71.8139 238.527 70.6923 238.527 68.8672V68.8566C238.527 67.0261 237.522 65.9098 235.898 65.9098C234.274 65.9098 233.269 67.0261 233.269 68.8566V68.8672C233.269 70.6923 234.274 71.8139 235.898 71.8139ZM235.898 70.9992C234.819 70.9992 234.21 70.2109 234.21 68.8672V68.8566C234.21 67.5075 234.819 66.7246 235.898 66.7246C236.977 66.7246 237.586 67.5075 237.586 68.8566V68.8672C237.586 70.2109 236.977 70.9992 235.898 70.9992ZM242.172 71.8192C243.817 71.8192 244.827 70.6976 244.827 68.8883V68.8777C244.827 67.1584 243.843 66.0633 242.309 66.0633C241.447 66.0633 240.764 66.4336 240.378 67.1161H240.294L240.309 66.9997C240.521 65.4443 241.098 64.8253 242.426 64.7671L243.007 64.7407C243.669 64.7089 244.272 64.5714 244.452 64.4021V63.5874C243.96 63.7884 243.42 63.8731 242.965 63.8942L242.394 63.9207C240.357 64.0159 239.516 65.3067 239.516 68.3328V68.3434C239.516 70.6289 240.426 71.8192 242.172 71.8192ZM242.172 71.0045C241.082 71.0045 240.458 70.2268 240.458 68.8883V68.8777C240.458 67.6028 241.082 66.878 242.172 66.878C243.261 66.878 243.886 67.6028 243.886 68.8777V68.8883C243.886 70.2268 243.261 71.0045 242.172 71.0045ZM249.842 71.7134H250.762V66.0104H249.842V68.3699H247.017V66.0104H246.096V71.7134H247.017V69.1317H249.842V71.7134ZM254.661 71.8139C256.285 71.8139 257.29 70.6923 257.29 68.8672V68.8566C257.29 67.0261 256.285 65.9098 254.661 65.9098C253.036 65.9098 252.031 67.0261 252.031 68.8566V68.8672C252.031 70.6923 253.036 71.8139 254.661 71.8139ZM254.661 70.9992C253.581 70.9992 252.973 70.2109 252.973 68.8672V68.8566C252.973 67.5075 253.581 66.7246 254.661 66.7246C255.74 66.7246 256.348 67.5075 256.348 68.8566V68.8672C256.348 70.2109 255.74 70.9992 254.661 70.9992ZM258.559 71.7134H260.987C262.214 71.7134 262.939 71.068 262.939 70.0787V70.0681C262.939 69.4068 262.479 68.8989 261.754 68.7984V68.7137C262.288 68.6026 262.685 68.0683 262.685 67.5022V67.4917C262.685 66.5976 262.056 66.0104 260.976 66.0104H258.559V71.7134ZM259.479 68.4228V66.7722H260.844C261.484 66.7722 261.77 67.1002 261.77 67.5869V67.5975C261.77 68.1371 261.437 68.4228 260.696 68.4228H259.479ZM259.479 70.9516V69.1846H260.775C261.595 69.1846 262.003 69.4491 262.003 70.0522V70.0628C262.003 70.6341 261.648 70.9516 260.95 70.9516H259.479ZM265.52 69.4808L265.732 66.7722H267.716V71.7134H268.636V66.0104H264.906L264.663 69.4068C264.605 70.2532 264.393 70.9145 263.869 70.9145C263.732 70.9145 263.589 70.8934 263.541 70.8775V71.7081C263.616 71.7345 263.764 71.7663 263.959 71.7663C264.912 71.7663 265.398 71.0521 265.52 69.4808ZM272.518 71.8139C273.862 71.8139 274.677 71.0521 274.873 70.2797L274.883 70.2374H273.963L273.942 70.285C273.788 70.6289 273.312 70.9939 272.54 70.9939C271.524 70.9939 270.873 70.3061 270.847 69.1264H274.952V68.7666C274.952 67.0631 274.01 65.9098 272.46 65.9098C270.91 65.9098 269.905 67.1161 269.905 68.8777V68.883C269.905 70.6712 270.889 71.8139 272.518 71.8139ZM272.455 66.7299C273.296 66.7299 273.92 67.2642 274.016 68.391H270.863C270.963 67.3065 271.608 66.7299 272.455 66.7299ZM279.966 71.7134H280.887V66.0104H279.966V68.3699H277.141V66.0104H276.221V71.7134H277.141V69.1317H279.966V71.7134ZM282.436 71.7134H283.357L286.177 67.4599H286.261V71.7134H287.182V66.0104H286.261L283.441 70.2638H283.357V66.0104H282.436V71.7134ZM291.112 65.2168C292.201 65.2168 292.926 64.4656 292.926 63.4816H292.101C292.101 64.0582 291.736 64.5925 291.112 64.5925C290.498 64.5925 290.122 64.0582 290.122 63.4816H289.297C289.297 64.4656 290.022 65.2168 291.112 65.2168ZM288.736 71.7134H289.657L292.477 67.4599H292.561V71.7134H293.482V66.0104H292.561L289.741 70.2638H289.657V66.0104H288.736V71.7134Z" fill="#818C99"/>
</g>
<g filter="url(#filter0_dd_30_11205)">
<rect x="154.329" y="87.052" width="77.1173" height="28.0427" rx="5.09867" fill="white"/>
<g clip-path="url(#clip9_30_11205)">
<path fill-rule="evenodd" clip-rule="evenodd" d="M162.965 99.7986C162.436 99.7986 162.009 100.226 162.009 100.755C162.009 101.284 162.436 101.711 162.965 101.711C163.494 101.711 163.921 101.284 163.921 100.755C163.921 100.226 163.494 99.7986 162.965 99.7986ZM162.965 95.9746C162.436 95.9746 162.009 96.4016 162.009 96.9306C162.009 97.4596 162.436 97.8866 162.965 97.8866C163.494 97.8866 163.921 97.4596 163.921 96.9306C163.921 96.4016 163.494 95.9746 162.965 95.9746ZM162.965 103.623C162.433 103.623 162.009 104.054 162.009 104.579C162.009 105.103 162.441 105.535 162.965 105.535C163.49 105.535 163.921 105.103 163.921 104.579C163.921 104.054 163.497 103.623 162.965 103.623ZM173.8 104.579C173.8 104.227 173.515 103.941 173.163 103.941H165.515C165.163 103.941 164.877 104.227 164.877 104.579C164.877 104.931 165.163 105.216 165.515 105.216H173.163C173.515 105.216 173.8 104.931 173.8 104.579ZM173.8 100.755C173.8 100.403 173.515 100.117 173.163 100.117H165.515C165.163 100.117 164.877 100.403 164.877 100.755C164.877 101.107 165.163 101.392 165.515 101.392H173.163C173.515 101.392 173.8 101.107 173.8 100.755ZM165.515 97.5679H173.163C173.515 97.5679 173.8 97.2826 173.8 96.9306C173.8 96.5786 173.515 96.2933 173.163 96.2933H165.515C165.163 96.2933 164.877 96.5786 164.877 96.9306C164.877 97.2826 165.163 97.5679 165.515 97.5679Z" fill="#3F8AE0"/>
</g>
<path d="M182.311 97.6829V103.573H181.531V97.6829H182.311ZM185.94 97.6829L183.384 100.923H182L181.879 100.276H182.918L184.973 97.6829H185.94ZM185.155 103.573L182.943 100.822L183.379 100.139L186.11 103.573H185.155ZM189.413 102.825V100.571C189.413 100.399 189.378 100.249 189.308 100.122C189.241 99.9929 189.138 99.8931 189.001 99.823C188.863 99.7529 188.693 99.7178 188.491 99.7178C188.302 99.7178 188.136 99.7502 187.993 99.8149C187.853 99.8796 187.743 99.9646 187.662 100.07C187.584 100.175 187.544 100.288 187.544 100.41H186.796C186.796 100.253 186.836 100.098 186.917 99.9444C186.998 99.7906 187.114 99.6517 187.265 99.5277C187.419 99.4009 187.602 99.3011 187.815 99.2283C188.031 99.1528 188.271 99.115 188.536 99.115C188.854 99.115 189.134 99.169 189.377 99.2768C189.623 99.3847 189.814 99.5479 189.952 99.7664C190.092 99.9821 190.162 100.253 190.162 100.58V102.618C190.162 102.764 190.174 102.919 190.198 103.084C190.225 103.248 190.264 103.39 190.316 103.509V103.573H189.535C189.497 103.487 189.467 103.372 189.446 103.229C189.424 103.084 189.413 102.949 189.413 102.825ZM189.543 100.919L189.551 101.445H188.795C188.581 101.445 188.391 101.463 188.224 101.498C188.057 101.53 187.917 101.58 187.803 101.648C187.69 101.715 187.604 101.8 187.544 101.902C187.485 102.002 187.455 102.12 187.455 102.254C187.455 102.392 187.486 102.517 187.548 102.631C187.611 102.744 187.704 102.834 187.828 102.902C187.954 102.966 188.109 102.999 188.293 102.999C188.522 102.999 188.724 102.95 188.9 102.853C189.075 102.756 189.214 102.637 189.316 102.497C189.422 102.357 189.478 102.221 189.486 102.089L189.806 102.449C189.787 102.562 189.736 102.687 189.652 102.825C189.569 102.962 189.457 103.095 189.316 103.221C189.179 103.345 189.014 103.449 188.823 103.533C188.634 103.614 188.421 103.654 188.184 103.654C187.887 103.654 187.627 103.596 187.403 103.48C187.182 103.364 187.009 103.209 186.885 103.015C186.764 102.818 186.703 102.598 186.703 102.356C186.703 102.121 186.749 101.915 186.841 101.737C186.932 101.556 187.064 101.406 187.237 101.287C187.41 101.166 187.617 101.074 187.86 101.012C188.103 100.95 188.374 100.919 188.673 100.919H189.543ZM193.186 99.1959V103.573H192.434V99.1959H193.186ZM194.655 99.1959V99.8028H190.993V99.1959H194.655ZM197.011 103.654C196.706 103.654 196.43 103.603 196.182 103.5C195.936 103.395 195.725 103.248 195.547 103.059C195.371 102.871 195.236 102.647 195.142 102.388C195.048 102.129 195 101.846 195 101.538V101.368C195 101.012 195.053 100.695 195.158 100.418C195.263 100.137 195.406 99.8999 195.587 99.7057C195.768 99.5115 195.973 99.3645 196.202 99.2647C196.431 99.1649 196.669 99.115 196.914 99.115C197.227 99.115 197.497 99.169 197.723 99.2768C197.952 99.3847 198.14 99.5358 198.285 99.7299C198.431 99.9214 198.539 100.148 198.609 100.41C198.679 100.669 198.714 100.952 198.714 101.259V101.595H195.446V100.984H197.966V100.927C197.955 100.733 197.915 100.544 197.845 100.361C197.777 100.178 197.669 100.027 197.521 99.908C197.373 99.7893 197.17 99.7299 196.914 99.7299C196.744 99.7299 196.588 99.7664 196.445 99.8392C196.302 99.9093 196.179 100.014 196.077 100.155C195.974 100.295 195.895 100.466 195.838 100.669C195.781 100.871 195.753 101.104 195.753 101.368V101.538C195.753 101.746 195.781 101.942 195.838 102.125C195.897 102.306 195.982 102.465 196.093 102.602C196.206 102.74 196.342 102.848 196.501 102.926C196.663 103.004 196.847 103.043 197.052 103.043C197.316 103.043 197.54 102.989 197.723 102.881C197.907 102.774 198.067 102.629 198.205 102.449L198.658 102.809C198.563 102.952 198.443 103.088 198.298 103.217C198.152 103.347 197.973 103.452 197.76 103.533C197.549 103.614 197.3 103.654 197.011 103.654ZM202.543 99.1959V99.8149H200.521V103.573H199.772V99.1959H202.543ZM203.043 101.433V101.34C203.043 101.025 203.089 100.732 203.181 100.462C203.272 100.19 203.405 99.9538 203.577 99.7542C203.75 99.5519 203.959 99.3955 204.204 99.2849C204.45 99.1717 204.725 99.115 205.03 99.115C205.337 99.115 205.613 99.1717 205.859 99.2849C206.107 99.3955 206.317 99.5519 206.49 99.7542C206.665 99.9538 206.799 100.19 206.89 100.462C206.982 100.732 207.028 101.025 207.028 101.34V101.433C207.028 101.749 206.982 102.041 206.89 102.311C206.799 102.581 206.665 102.817 206.49 103.019C206.317 103.219 206.108 103.375 205.863 103.488C205.62 103.599 205.345 103.654 205.038 103.654C204.73 103.654 204.454 103.599 204.208 103.488C203.963 103.375 203.752 103.219 203.577 103.019C203.405 102.817 203.272 102.581 203.181 102.311C203.089 102.041 203.043 101.749 203.043 101.433ZM203.792 101.34V101.433C203.792 101.652 203.817 101.858 203.868 102.052C203.92 102.244 203.997 102.414 204.099 102.562C204.204 102.71 204.335 102.828 204.491 102.914C204.648 102.997 204.83 103.039 205.038 103.039C205.243 103.039 205.422 102.997 205.576 102.914C205.732 102.828 205.862 102.71 205.964 102.562C206.067 102.414 206.143 102.244 206.195 102.052C206.249 101.858 206.276 101.652 206.276 101.433V101.34C206.276 101.124 206.249 100.921 206.195 100.729C206.143 100.535 206.065 100.364 205.96 100.215C205.858 100.064 205.728 99.9457 205.572 99.8594C205.418 99.7731 205.237 99.7299 205.03 99.7299C204.825 99.7299 204.644 99.7731 204.487 99.8594C204.334 99.9457 204.204 100.064 204.099 100.215C203.997 100.364 203.92 100.535 203.868 100.729C203.817 100.921 203.792 101.124 203.792 101.34ZM208.843 100.037V105.256H208.09V99.1959H208.778L208.843 100.037ZM211.792 101.348V101.433C211.792 101.751 211.754 102.047 211.678 102.319C211.603 102.589 211.492 102.823 211.347 103.023C211.204 103.223 211.027 103.378 210.817 103.488C210.606 103.599 210.365 103.654 210.093 103.654C209.815 103.654 209.569 103.608 209.356 103.517C209.143 103.425 208.963 103.291 208.814 103.116C208.666 102.941 208.547 102.73 208.458 102.485C208.372 102.24 208.313 101.963 208.28 101.656V101.203C208.313 100.879 208.373 100.589 208.462 100.333C208.551 100.077 208.669 99.8581 208.814 99.6774C208.963 99.494 209.142 99.3551 209.352 99.2607C209.563 99.1636 209.805 99.115 210.08 99.115C210.356 99.115 210.6 99.169 210.813 99.2768C211.026 99.382 211.205 99.5331 211.351 99.7299C211.496 99.9268 211.606 100.163 211.678 100.438C211.754 100.71 211.792 101.014 211.792 101.348ZM211.039 101.433V101.348C211.039 101.13 211.016 100.925 210.97 100.733C210.925 100.539 210.853 100.369 210.756 100.224C210.662 100.075 210.54 99.9592 210.392 99.8756C210.244 99.7893 210.067 99.7461 209.862 99.7461C209.673 99.7461 209.509 99.7785 209.368 99.8432C209.231 99.908 209.114 99.9956 209.016 100.106C208.919 100.214 208.84 100.338 208.778 100.478C208.718 100.616 208.674 100.759 208.644 100.907V101.955C208.698 102.144 208.774 102.322 208.871 102.489C208.968 102.654 209.097 102.787 209.259 102.89C209.421 102.989 209.625 103.039 209.87 103.039C210.072 103.039 210.246 102.997 210.392 102.914C210.54 102.828 210.662 102.71 210.756 102.562C210.853 102.414 210.925 102.244 210.97 102.052C211.016 101.858 211.039 101.652 211.039 101.433ZM213.683 102.388L215.702 99.1959H216.454V103.573H215.702V100.381L213.683 103.573H212.939V99.1959H213.683V102.388ZM218.592 102.388L220.611 99.1959H221.364V103.573H220.611V100.381L218.592 103.573H217.848V99.1959H218.592V102.388Z" fill="black"/>
</g>
<g filter="url(#filter1_dd_30_11205)">
<rect x="236.545" y="87.052" width="74.568" height="28.0427" rx="5.09867" fill="white"/>
<path fill-rule="evenodd" clip-rule="evenodd" d="M250.858 96.0983C250.829 96.0285 250.78 95.9689 250.718 95.927C250.655 95.8851 250.581 95.8627 250.505 95.8627C250.43 95.8627 250.356 95.8851 250.293 95.927C250.23 95.9689 250.181 96.0285 250.152 96.0983L249.124 98.5839C249.083 98.6829 249.015 98.7685 248.927 98.8309C248.84 98.8934 248.737 98.9301 248.63 98.9369L246.001 99.1065C245.926 99.1113 245.853 99.1385 245.793 99.1845C245.733 99.2305 245.688 99.2933 245.664 99.365C245.639 99.4366 245.637 99.5139 245.656 99.587C245.676 99.6601 245.717 99.7258 245.774 99.7757L247.856 101.598C247.935 101.667 247.993 101.756 248.025 101.856C248.056 101.955 248.06 102.062 248.036 102.164L247.443 104.619C247.425 104.691 247.43 104.768 247.455 104.838C247.48 104.908 247.526 104.97 247.586 105.014C247.646 105.059 247.717 105.085 247.792 105.09C247.867 105.094 247.941 105.077 248.006 105.039L250.219 103.763C250.306 103.712 250.405 103.686 250.505 103.686C250.606 103.686 250.705 103.712 250.792 103.763L253.005 105.04C253.07 105.077 253.144 105.095 253.219 105.09C253.293 105.086 253.365 105.06 253.425 105.015C253.485 104.97 253.53 104.909 253.556 104.839C253.581 104.768 253.585 104.692 253.568 104.619L252.975 102.164C252.95 102.062 252.954 101.955 252.986 101.856C253.018 101.756 253.076 101.667 253.155 101.598L255.237 99.7763C255.294 99.7264 255.335 99.6608 255.354 99.5877C255.374 99.5145 255.371 99.4373 255.347 99.3656C255.323 99.294 255.277 99.2311 255.217 99.1851C255.157 99.1391 255.085 99.112 255.009 99.1071L252.38 98.9369C252.273 98.9301 252.17 98.8934 252.083 98.8309C251.996 98.7685 251.928 98.6829 251.887 98.5839L250.858 96.0983ZM249.092 95.6591C249.613 94.3998 251.398 94.3998 251.919 95.6591L252.811 97.8152L255.083 97.9618C256.445 98.0498 257.019 99.7412 255.992 100.639L254.172 102.233L254.683 104.35C254.998 105.656 253.596 106.705 252.431 106.034L250.505 104.922L248.579 106.034C247.414 106.705 246.012 105.656 246.328 104.349L246.839 102.232L245.019 100.639C243.992 99.74 244.566 98.0491 245.927 97.9612L248.2 97.8146L249.092 95.6591Z" fill="#3F8AE0"/>
<path d="M265.74 100.745H265.04V100.248H265.712C266.008 100.248 266.248 100.206 266.432 100.122C266.615 100.039 266.749 99.9228 266.832 99.7744C266.916 99.6261 266.958 99.4548 266.958 99.2607C266.958 99.0746 266.912 98.9047 266.82 98.7509C266.728 98.5945 266.587 98.4704 266.395 98.3787C266.204 98.2843 265.957 98.2371 265.655 98.2371C265.428 98.2371 265.223 98.2803 265.04 98.3666C264.857 98.4502 264.711 98.5675 264.603 98.7186C264.495 98.8669 264.441 99.0382 264.441 99.2323H263.661C263.661 98.9815 263.713 98.7563 263.818 98.5567C263.924 98.3545 264.068 98.1832 264.251 98.0429C264.435 97.9 264.646 97.7908 264.886 97.7153C265.129 97.6397 265.385 97.602 265.655 97.602C265.971 97.602 266.256 97.6384 266.513 97.7112C266.769 97.7813 266.989 97.8865 267.172 98.0268C267.356 98.167 267.496 98.341 267.593 98.5486C267.69 98.7563 267.738 98.9977 267.738 99.2728C267.738 99.4751 267.691 99.6652 267.597 99.8432C267.503 100.021 267.368 100.178 267.192 100.313C267.017 100.447 266.807 100.554 266.561 100.632C266.316 100.708 266.042 100.745 265.74 100.745ZM265.04 100.402H265.74C266.072 100.402 266.367 100.435 266.626 100.503C266.885 100.57 267.103 100.669 267.281 100.798C267.459 100.927 267.594 101.088 267.686 101.279C267.78 101.468 267.827 101.685 267.827 101.931C267.827 102.206 267.774 102.45 267.666 102.663C267.56 102.876 267.411 103.057 267.217 103.205C267.022 103.353 266.792 103.465 266.525 103.541C266.261 103.616 265.971 103.654 265.655 103.654C265.402 103.654 265.151 103.622 264.903 103.557C264.657 103.49 264.435 103.387 264.235 103.25C264.035 103.109 263.875 102.931 263.754 102.716C263.635 102.5 263.576 102.241 263.576 101.939H264.356C264.356 102.136 264.41 102.316 264.518 102.481C264.629 102.645 264.781 102.778 264.975 102.877C265.17 102.974 265.396 103.023 265.655 103.023C265.952 103.023 266.203 102.977 266.408 102.885C266.615 102.791 266.773 102.663 266.881 102.501C266.991 102.337 267.047 102.152 267.047 101.947C267.047 101.766 267.017 101.61 266.958 101.478C266.901 101.343 266.816 101.232 266.703 101.146C266.592 101.06 266.453 100.996 266.286 100.956C266.122 100.913 265.93 100.891 265.712 100.891H265.04V100.402ZM271.45 102.825V100.571C271.45 100.399 271.415 100.249 271.345 100.122C271.278 99.9929 271.175 99.8931 271.038 99.823C270.9 99.7529 270.73 99.7178 270.528 99.7178C270.339 99.7178 270.173 99.7502 270.03 99.8149C269.89 99.8796 269.78 99.9646 269.699 100.07C269.62 100.175 269.581 100.288 269.581 100.41H268.833C268.833 100.253 268.873 100.098 268.954 99.9444C269.035 99.7906 269.151 99.6517 269.302 99.5277C269.456 99.4009 269.639 99.3011 269.852 99.2283C270.068 99.1528 270.308 99.115 270.572 99.115C270.891 99.115 271.171 99.169 271.414 99.2768C271.659 99.3847 271.851 99.5479 271.988 99.7664C272.129 99.9821 272.199 100.253 272.199 100.58V102.618C272.199 102.764 272.211 102.919 272.235 103.084C272.262 103.248 272.301 103.39 272.353 103.509V103.573H271.572C271.534 103.487 271.504 103.372 271.483 103.229C271.461 103.084 271.45 102.949 271.45 102.825ZM271.58 100.919L271.588 101.445H270.831C270.618 101.445 270.428 101.463 270.261 101.498C270.094 101.53 269.953 101.58 269.84 101.648C269.727 101.715 269.641 101.8 269.581 101.902C269.522 102.002 269.492 102.12 269.492 102.254C269.492 102.392 269.523 102.517 269.585 102.631C269.647 102.744 269.74 102.834 269.864 102.902C269.991 102.966 270.146 102.999 270.33 102.999C270.559 102.999 270.761 102.95 270.937 102.853C271.112 102.756 271.251 102.637 271.353 102.497C271.458 102.357 271.515 102.221 271.523 102.089L271.843 102.449C271.824 102.562 271.773 102.687 271.689 102.825C271.605 102.962 271.493 103.095 271.353 103.221C271.216 103.345 271.051 103.449 270.86 103.533C270.671 103.614 270.458 103.654 270.22 103.654C269.924 103.654 269.664 103.596 269.44 103.48C269.219 103.364 269.046 103.209 268.922 103.015C268.8 102.818 268.74 102.598 268.74 102.356C268.74 102.121 268.786 101.915 268.877 101.737C268.969 101.556 269.101 101.406 269.274 101.287C269.446 101.166 269.654 101.074 269.897 101.012C270.14 100.95 270.411 100.919 270.71 100.919H271.58ZM274.317 99.1959V103.573H273.568V99.1959H274.317ZM277.189 99.1959L275.114 101.704H274.066L273.953 101.049H274.81L276.279 99.1959H277.189ZM276.384 103.573L274.774 101.591L275.255 101.049L277.335 103.573H276.384ZM281.038 99.1959V99.8149H278.923V99.1959H281.038ZM281.698 99.1959V103.573H280.949V99.1959H281.698ZM278.741 99.1959H279.493L279.38 101.308C279.361 101.634 279.33 101.923 279.287 102.173C279.246 102.422 279.19 102.635 279.117 102.813C279.047 102.991 278.958 103.136 278.85 103.25C278.745 103.36 278.618 103.442 278.469 103.496C278.321 103.548 278.15 103.573 277.956 103.573H277.721V102.914L277.883 102.902C277.999 102.894 278.097 102.867 278.178 102.821C278.262 102.775 278.332 102.707 278.389 102.618C278.445 102.527 278.491 102.409 278.526 102.267C278.564 102.124 278.592 101.954 278.611 101.757C278.633 101.56 278.649 101.331 278.66 101.069L278.741 99.1959ZM285.612 102.825V100.571C285.612 100.399 285.577 100.249 285.507 100.122C285.439 99.9929 285.337 99.8931 285.199 99.823C285.062 99.7529 284.892 99.7178 284.69 99.7178C284.501 99.7178 284.335 99.7502 284.192 99.8149C284.052 99.8796 283.941 99.9646 283.86 100.07C283.782 100.175 283.743 100.288 283.743 100.41H282.994C282.994 100.253 283.035 100.098 283.116 99.9444C283.197 99.7906 283.313 99.6517 283.464 99.5277C283.617 99.4009 283.801 99.3011 284.014 99.2283C284.23 99.1528 284.47 99.115 284.734 99.115C285.052 99.115 285.333 99.169 285.576 99.2768C285.821 99.3847 286.012 99.5479 286.15 99.7664C286.29 99.9821 286.36 100.253 286.36 100.58V102.618C286.36 102.764 286.373 102.919 286.397 103.084C286.424 103.248 286.463 103.39 286.514 103.509V103.573H285.733C285.696 103.487 285.666 103.372 285.644 103.229C285.623 103.084 285.612 102.949 285.612 102.825ZM285.741 100.919L285.75 101.445H284.993C284.78 101.445 284.59 101.463 284.423 101.498C284.255 101.53 284.115 101.58 284.002 101.648C283.889 101.715 283.802 101.8 283.743 101.902C283.684 102.002 283.654 102.12 283.654 102.254C283.654 102.392 283.685 102.517 283.747 102.631C283.809 102.744 283.902 102.834 284.026 102.902C284.153 102.966 284.308 102.999 284.491 102.999C284.721 102.999 284.923 102.95 285.098 102.853C285.273 102.756 285.412 102.637 285.515 102.497C285.62 102.357 285.677 102.221 285.685 102.089L286.004 102.449C285.986 102.562 285.934 102.687 285.851 102.825C285.767 102.962 285.655 103.095 285.515 103.221C285.377 103.345 285.213 103.449 285.021 103.533C284.833 103.614 284.619 103.654 284.382 103.654C284.085 103.654 283.825 103.596 283.601 103.48C283.38 103.364 283.208 103.209 283.083 103.015C282.962 102.818 282.901 102.598 282.901 102.356C282.901 102.121 282.947 101.915 283.039 101.737C283.131 101.556 283.263 101.406 283.435 101.287C283.608 101.166 283.816 101.074 284.058 101.012C284.301 100.95 284.572 100.919 284.872 100.919H285.741ZM288.454 99.1959H289.202L289.138 100.834C289.122 101.25 289.074 101.608 288.996 101.911C288.918 102.213 288.818 102.47 288.697 102.683C288.575 102.894 288.439 103.07 288.288 103.213C288.14 103.356 287.986 103.476 287.827 103.573H287.455L287.475 102.962L287.629 102.958C287.718 102.853 287.804 102.745 287.888 102.635C287.971 102.521 288.048 102.388 288.118 102.234C288.188 102.078 288.246 101.888 288.292 101.664C288.341 101.437 288.372 101.161 288.385 100.834L288.454 99.1959ZM288.64 99.1959H291.274V103.573H290.525V99.8877H288.64V99.1959ZM287.285 102.958H291.836V104.864H291.088V103.573H288.033V104.864H287.281L287.285 102.958ZM293.606 99.1959V103.573H292.858V99.1959H293.606ZM296.478 99.1959L294.403 101.704H293.355L293.242 101.049H294.1L295.568 99.1959H296.478ZM295.673 103.573L294.063 101.591L294.545 101.049L296.624 103.573H295.673ZM298.212 102.388L300.231 99.1959H300.983V103.573H300.231V100.381L298.212 103.573H297.468V99.1959H298.212V102.388Z" fill="black"/>
</g>
<g filter="url(#filter2_dd_30_11205)">
<rect x="316.212" y="87.052" width="108.984" height="28.0427" rx="5.09867" fill="white"/>
<g clip-path="url(#clip10_30_11205)">
<path fill-rule="evenodd" clip-rule="evenodd" d="M326.476 94.7455L326.459 94.7455H326.459C326.321 94.7455 326.187 94.7455 326.073 94.7547C325.948 94.7649 325.801 94.789 325.653 94.8646C325.447 94.9693 325.28 95.1365 325.175 95.342C325.1 95.4903 325.076 95.6377 325.065 95.7625C325.056 95.8763 325.056 96.0105 325.056 96.1484V96.1484L325.056 96.1658V97.3764L322.567 103.912L322.554 103.945C322.498 104.091 322.424 104.282 322.436 104.516C322.442 104.625 322.469 104.73 322.496 104.811C322.524 104.892 322.567 104.992 322.63 105.082C322.762 105.273 322.916 105.366 323.034 105.438L323.055 105.451C323.899 105.966 325.719 106.764 328.88 106.764C332.041 106.764 333.861 105.966 334.705 105.451L334.726 105.438C334.844 105.366 334.998 105.273 335.13 105.082C335.193 104.992 335.236 104.892 335.264 104.811C335.291 104.73 335.318 104.625 335.324 104.516C335.336 104.282 335.263 104.091 335.206 103.945L335.193 103.912L332.704 97.3764V96.1484C332.704 96.0105 332.704 95.8763 332.695 95.7625C332.685 95.6377 332.661 95.4903 332.585 95.342C332.48 95.1365 332.313 94.9693 332.108 94.8646C331.959 94.789 331.812 94.7649 331.687 94.7547C331.573 94.7455 331.439 94.7455 331.301 94.7455L326.476 94.7455ZM325.979 98.0232L327.143 98.0232L325.917 105.378C324.758 105.124 324.022 104.761 323.624 104.518C323.59 104.498 323.568 104.484 323.549 104.472C323.541 104.467 323.535 104.463 323.531 104.46L323.53 104.458C323.534 104.448 323.539 104.432 323.547 104.409C323.557 104.38 323.57 104.346 323.588 104.3L325.979 98.0232ZM326.994 105.56L328.25 98.0232H329.525L331.025 105.525C330.406 105.615 329.694 105.671 328.88 105.671C328.178 105.671 327.551 105.629 326.994 105.56ZM332.098 105.318C333.111 105.07 333.769 104.743 334.136 104.518C334.17 104.498 334.192 104.484 334.211 104.472C334.219 104.467 334.225 104.463 334.229 104.46L334.23 104.458C334.226 104.448 334.221 104.432 334.213 104.409C334.203 104.38 334.19 104.346 334.172 104.3L331.781 98.0232H330.639L332.098 105.318ZM331.611 96.9306V96.1658C331.611 96.0038 331.611 95.9152 331.606 95.8515L331.605 95.8443L331.598 95.8437C331.534 95.8385 331.446 95.8381 331.284 95.8381H326.476C326.314 95.8381 326.226 95.8385 326.162 95.8437L326.155 95.8443L326.154 95.8515C326.149 95.9152 326.149 96.0038 326.149 96.1658V96.9306L331.611 96.9306Z" fill="#3F8AE0"/>
</g>
<path d="M343.997 100.883L341.893 97.6829H342.808L344.373 100.236H345.482L345.356 100.883H343.997ZM344.418 100.822L342.707 103.573H341.736L343.924 100.151L344.418 100.822ZM345.818 97.6829V103.573H345.045V97.6829H345.818ZM348.941 97.6829L346.829 100.883H345.51L345.389 100.236H346.457L348.023 97.6829H348.941ZM348.124 103.573L346.416 100.822L346.914 100.151L349.095 103.573H348.124ZM351.56 103.654C351.256 103.654 350.979 103.603 350.731 103.5C350.486 103.395 350.274 103.248 350.096 103.059C349.921 102.871 349.786 102.647 349.691 102.388C349.597 102.129 349.55 101.846 349.55 101.538V101.368C349.55 101.012 349.602 100.695 349.708 100.418C349.813 100.137 349.956 99.8999 350.136 99.7057C350.317 99.5115 350.522 99.3645 350.751 99.2647C350.981 99.1649 351.218 99.115 351.463 99.115C351.776 99.115 352.046 99.169 352.272 99.2768C352.502 99.3847 352.689 99.5358 352.835 99.7299C352.98 99.9214 353.088 100.148 353.158 100.41C353.229 100.669 353.264 100.952 353.264 101.259V101.595H349.995V100.984H352.515V100.927C352.504 100.733 352.464 100.544 352.394 100.361C352.326 100.178 352.218 100.027 352.07 99.908C351.922 99.7893 351.72 99.7299 351.463 99.7299C351.293 99.7299 351.137 99.7664 350.994 99.8392C350.851 99.9093 350.728 100.014 350.626 100.155C350.523 100.295 350.444 100.466 350.387 100.669C350.331 100.871 350.302 101.104 350.302 101.368V101.538C350.302 101.746 350.331 101.942 350.387 102.125C350.447 102.306 350.531 102.465 350.642 102.602C350.755 102.74 350.892 102.848 351.051 102.926C351.212 103.004 351.396 103.043 351.601 103.043C351.865 103.043 352.089 102.989 352.272 102.881C352.456 102.774 352.616 102.629 352.754 102.449L353.207 102.809C353.113 102.952 352.993 103.088 352.847 103.217C352.701 103.347 352.522 103.452 352.309 103.533C352.098 103.614 351.849 103.654 351.56 103.654ZM357.234 101.093V101.7H354.92V101.093H357.234ZM355.078 99.1959V103.573H354.33V99.1959H355.078ZM357.841 99.1959V103.573H357.089V99.1959H357.841ZM360.926 103.039C361.104 103.039 361.268 103.003 361.42 102.93C361.571 102.857 361.695 102.757 361.792 102.631C361.889 102.501 361.944 102.354 361.958 102.19H362.67C362.656 102.449 362.568 102.69 362.407 102.914C362.248 103.135 362.038 103.314 361.78 103.452C361.521 103.587 361.236 103.654 360.926 103.654C360.597 103.654 360.31 103.596 360.064 103.48C359.822 103.364 359.619 103.205 359.457 103.003C359.298 102.801 359.178 102.569 359.097 102.307C359.019 102.043 358.98 101.764 358.98 101.47V101.3C358.98 101.006 359.019 100.728 359.097 100.466C359.178 100.202 359.298 99.9686 359.457 99.7664C359.619 99.5641 359.822 99.405 360.064 99.289C360.31 99.173 360.597 99.115 360.926 99.115C361.268 99.115 361.568 99.1851 361.824 99.3254C362.08 99.4629 362.281 99.6517 362.427 99.8918C362.575 100.129 362.656 100.399 362.67 100.701H361.958C361.944 100.52 361.893 100.357 361.804 100.211C361.718 100.066 361.599 99.9498 361.448 99.8635C361.3 99.7744 361.126 99.7299 360.926 99.7299C360.697 99.7299 360.504 99.7758 360.347 99.8675C360.194 99.9565 360.071 100.078 359.979 100.232C359.89 100.383 359.826 100.551 359.785 100.737C359.747 100.921 359.728 101.108 359.728 101.3V101.47C359.728 101.661 359.747 101.85 359.785 102.036C359.823 102.222 359.886 102.391 359.975 102.542C360.067 102.693 360.19 102.814 360.343 102.906C360.5 102.995 360.694 103.039 360.926 103.039ZM364.452 99.1959V103.573H363.703V99.1959H364.452ZM367.324 99.1959L365.249 101.704H364.201L364.088 101.049H364.945L366.414 99.1959H367.324ZM366.519 103.573L364.909 101.591L365.39 101.049L367.47 103.573H366.519ZM369.058 102.388L371.076 99.1959H371.829V103.573H371.076V100.381L369.058 103.573H368.313V99.1959H369.058V102.388ZM373.967 102.388L375.986 99.1959H376.738V103.573H375.986V100.381L373.967 103.573H373.223V99.1959H373.967V102.388ZM375.577 97.6101H376.184C376.184 97.8204 376.135 98.0079 376.038 98.1724C375.941 98.3342 375.802 98.461 375.622 98.5527C375.441 98.6444 375.226 98.6902 374.978 98.6902C374.603 98.6902 374.307 98.5904 374.088 98.3909C373.873 98.1886 373.765 97.9283 373.765 97.6101H374.372C374.372 97.7692 374.417 97.9094 374.509 98.0308C374.601 98.1522 374.757 98.2129 374.978 98.2129C375.194 98.2129 375.348 98.1522 375.44 98.0308C375.531 97.9094 375.577 97.7692 375.577 97.6101ZM381.063 99.1959V103.573H380.315V99.1959H381.063ZM383.935 99.1959L381.86 101.704H380.812L380.699 101.049H381.557L383.025 99.1959H383.935ZM383.13 103.573L381.52 101.591L382.002 101.049L384.081 103.573H383.13ZM387.441 102.825V100.571C387.441 100.399 387.406 100.249 387.336 100.122C387.268 99.9929 387.166 99.8931 387.028 99.823C386.891 99.7529 386.721 99.7178 386.518 99.7178C386.33 99.7178 386.164 99.7502 386.021 99.8149C385.881 99.8796 385.77 99.9646 385.689 100.07C385.611 100.175 385.572 100.288 385.572 100.41H384.823C384.823 100.253 384.864 100.098 384.945 99.9444C385.026 99.7906 385.142 99.6517 385.293 99.5277C385.446 99.4009 385.63 99.3011 385.843 99.2283C386.059 99.1528 386.299 99.115 386.563 99.115C386.881 99.115 387.162 99.169 387.404 99.2768C387.65 99.3847 387.841 99.5479 387.979 99.7664C388.119 99.9821 388.189 100.253 388.189 100.58V102.618C388.189 102.764 388.201 102.919 388.226 103.084C388.253 103.248 388.292 103.39 388.343 103.509V103.573H387.562C387.524 103.487 387.495 103.372 387.473 103.229C387.452 103.084 387.441 102.949 387.441 102.825ZM387.57 100.919L387.578 101.445H386.822C386.609 101.445 386.419 101.463 386.251 101.498C386.084 101.53 385.944 101.58 385.831 101.648C385.717 101.715 385.631 101.8 385.572 101.902C385.512 102.002 385.483 102.12 385.483 102.254C385.483 102.392 385.514 102.517 385.576 102.631C385.638 102.744 385.731 102.834 385.855 102.902C385.982 102.966 386.137 102.999 386.32 102.999C386.549 102.999 386.752 102.95 386.927 102.853C387.102 102.756 387.241 102.637 387.344 102.497C387.449 102.357 387.506 102.221 387.514 102.089L387.833 102.449C387.814 102.562 387.763 102.687 387.68 102.825C387.596 102.962 387.484 103.095 387.344 103.221C387.206 103.345 387.042 103.449 386.85 103.533C386.661 103.614 386.448 103.654 386.211 103.654C385.914 103.654 385.654 103.596 385.43 103.48C385.209 103.364 385.036 103.209 384.912 103.015C384.791 102.818 384.73 102.598 384.73 102.356C384.73 102.121 384.776 101.915 384.868 101.737C384.96 101.556 385.092 101.406 385.264 101.287C385.437 101.166 385.645 101.074 385.887 101.012C386.13 100.95 386.401 100.919 386.7 100.919H387.57ZM390.242 100.037V105.256H389.49V99.1959H390.178L390.242 100.037ZM393.192 101.348V101.433C393.192 101.751 393.154 102.047 393.078 102.319C393.003 102.589 392.892 102.823 392.747 103.023C392.604 103.223 392.427 103.378 392.217 103.488C392.006 103.599 391.765 103.654 391.493 103.654C391.215 103.654 390.969 103.608 390.756 103.517C390.543 103.425 390.362 103.291 390.214 103.116C390.066 102.941 389.947 102.73 389.858 102.485C389.772 102.24 389.712 101.963 389.68 101.656V101.203C389.712 100.879 389.773 100.589 389.862 100.333C389.951 100.077 390.068 99.8581 390.214 99.6774C390.362 99.494 390.542 99.3551 390.752 99.2607C390.963 99.1636 391.205 99.115 391.48 99.115C391.755 99.115 392 99.169 392.213 99.2768C392.426 99.382 392.605 99.5331 392.751 99.7299C392.896 99.9268 393.006 100.163 393.078 100.438C393.154 100.71 393.192 101.014 393.192 101.348ZM392.439 101.433V101.348C392.439 101.13 392.416 100.925 392.37 100.733C392.325 100.539 392.253 100.369 392.156 100.224C392.062 100.075 391.94 99.9592 391.792 99.8756C391.644 99.7893 391.467 99.7461 391.262 99.7461C391.073 99.7461 390.909 99.7785 390.768 99.8432C390.631 99.908 390.513 99.9956 390.416 100.106C390.319 100.214 390.24 100.338 390.178 100.478C390.118 100.616 390.074 100.759 390.044 100.907V101.955C390.098 102.144 390.174 102.322 390.271 102.489C390.368 102.654 390.497 102.787 390.659 102.89C390.821 102.989 391.025 103.039 391.27 103.039C391.472 103.039 391.646 102.997 391.792 102.914C391.94 102.828 392.062 102.71 392.156 102.562C392.253 102.414 392.325 102.244 392.37 102.052C392.416 101.858 392.439 101.652 392.439 101.433ZM394.99 99.1959H395.738L395.674 100.834C395.657 101.25 395.61 101.608 395.532 101.911C395.454 102.213 395.354 102.47 395.233 102.683C395.111 102.894 394.975 103.07 394.824 103.213C394.676 103.356 394.522 103.476 394.363 103.573H393.991L394.011 102.962L394.165 102.958C394.254 102.853 394.34 102.745 394.424 102.635C394.507 102.521 394.584 102.388 394.654 102.234C394.724 102.078 394.782 101.888 394.828 101.664C394.877 101.437 394.908 101.161 394.921 100.834L394.99 99.1959ZM395.176 99.1959H397.81V103.573H397.061V99.8877H395.176V99.1959ZM393.821 102.958H398.372V104.864H397.624V103.573H394.569V104.864H393.817L393.821 102.958ZM401.145 103.654C400.841 103.654 400.564 103.603 400.316 103.5C400.071 103.395 399.859 103.248 399.681 103.059C399.506 102.871 399.371 102.647 399.276 102.388C399.182 102.129 399.135 101.846 399.135 101.538V101.368C399.135 101.012 399.187 100.695 399.292 100.418C399.398 100.137 399.541 99.8999 399.721 99.7057C399.902 99.5115 400.107 99.3645 400.336 99.2647C400.565 99.1649 400.803 99.115 401.048 99.115C401.361 99.115 401.631 99.169 401.857 99.2768C402.087 99.3847 402.274 99.5358 402.42 99.7299C402.565 99.9214 402.673 100.148 402.743 100.41C402.813 100.669 402.848 100.952 402.848 101.259V101.595H399.58V100.984H402.1V100.927C402.089 100.733 402.049 100.544 401.979 100.361C401.911 100.178 401.803 100.027 401.655 99.908C401.507 99.7893 401.304 99.7299 401.048 99.7299C400.878 99.7299 400.722 99.7664 400.579 99.8392C400.436 99.9093 400.313 100.014 400.211 100.155C400.108 100.295 400.029 100.466 399.972 100.669C399.915 100.871 399.887 101.104 399.887 101.368V101.538C399.887 101.746 399.915 101.942 399.972 102.125C400.031 102.306 400.116 102.465 400.227 102.602C400.34 102.74 400.476 102.848 400.636 102.926C400.797 103.004 400.981 103.043 401.186 103.043C401.45 103.043 401.674 102.989 401.857 102.881C402.041 102.774 402.201 102.629 402.339 102.449L402.792 102.809C402.697 102.952 402.577 103.088 402.432 103.217C402.286 103.347 402.107 103.452 401.894 103.533C401.683 103.614 401.434 103.654 401.145 103.654ZM404.598 100.037V105.256H403.846V99.1959H404.534L404.598 100.037ZM407.547 101.348V101.433C407.547 101.751 407.51 102.047 407.434 102.319C407.359 102.589 407.248 102.823 407.102 103.023C406.96 103.223 406.783 103.378 406.572 103.488C406.362 103.599 406.121 103.654 405.848 103.654C405.571 103.654 405.325 103.608 405.112 103.517C404.899 103.425 404.718 103.291 404.57 103.116C404.422 102.941 404.303 102.73 404.214 102.485C404.128 102.24 404.068 101.963 404.036 101.656V101.203C404.068 100.879 404.129 100.589 404.218 100.333C404.307 100.077 404.424 99.8581 404.57 99.6774C404.718 99.494 404.898 99.3551 405.108 99.2607C405.318 99.1636 405.561 99.115 405.836 99.115C406.111 99.115 406.355 99.169 406.568 99.2768C406.781 99.382 406.961 99.5331 407.106 99.7299C407.252 99.9268 407.361 100.163 407.434 100.438C407.51 100.71 407.547 101.014 407.547 101.348ZM406.795 101.433V101.348C406.795 101.13 406.772 100.925 406.726 100.733C406.68 100.539 406.609 100.369 406.512 100.224C406.417 100.075 406.296 99.9592 406.148 99.8756C405.999 99.7893 405.823 99.7461 405.618 99.7461C405.429 99.7461 405.264 99.7785 405.124 99.8432C404.987 99.908 404.869 99.9956 404.772 100.106C404.675 100.214 404.596 100.338 404.534 100.478C404.474 100.616 404.43 100.759 404.4 100.907V101.955C404.454 102.144 404.529 102.322 404.627 102.489C404.724 102.654 404.853 102.787 405.015 102.89C405.177 102.989 405.38 103.039 405.626 103.039C405.828 103.039 406.002 102.997 406.148 102.914C406.296 102.828 406.417 102.71 406.512 102.562C406.609 102.414 406.68 102.244 406.726 102.052C406.772 101.858 406.795 101.652 406.795 101.433ZM408.431 101.433V101.34C408.431 101.025 408.477 100.732 408.569 100.462C408.661 100.19 408.793 99.9538 408.965 99.7542C409.138 99.5519 409.347 99.3955 409.593 99.2849C409.838 99.1717 410.113 99.115 410.418 99.115C410.725 99.115 411.002 99.1717 411.247 99.2849C411.495 99.3955 411.706 99.5519 411.878 99.7542C412.054 99.9538 412.187 100.19 412.279 100.462C412.37 100.732 412.416 101.025 412.416 101.34V101.433C412.416 101.749 412.37 102.041 412.279 102.311C412.187 102.581 412.054 102.817 411.878 103.019C411.706 103.219 411.497 103.375 411.251 103.488C411.008 103.599 410.733 103.654 410.426 103.654C410.118 103.654 409.842 103.599 409.597 103.488C409.351 103.375 409.141 103.219 408.965 103.019C408.793 102.817 408.661 102.581 408.569 102.311C408.477 102.041 408.431 101.749 408.431 101.433ZM409.18 101.34V101.433C409.18 101.652 409.206 101.858 409.257 102.052C409.308 102.244 409.385 102.414 409.487 102.562C409.593 102.71 409.723 102.828 409.88 102.914C410.036 102.997 410.218 103.039 410.426 103.039C410.631 103.039 410.81 102.997 410.964 102.914C411.12 102.828 411.25 102.71 411.352 102.562C411.455 102.414 411.532 102.244 411.583 102.052C411.637 101.858 411.664 101.652 411.664 101.433V101.34C411.664 101.124 411.637 100.921 411.583 100.729C411.532 100.535 411.453 100.364 411.348 100.215C411.246 100.064 411.116 99.9457 410.96 99.8594C410.806 99.7731 410.625 99.7299 410.418 99.7299C410.213 99.7299 410.032 99.7731 409.876 99.8594C409.722 99.9457 409.593 100.064 409.487 100.215C409.385 100.364 409.308 100.535 409.257 100.729C409.206 100.921 409.18 101.124 409.18 101.34ZM416.29 97.2905H416.905C416.905 97.5548 416.864 97.7651 416.784 97.9216C416.703 98.0753 416.592 98.194 416.452 98.2776C416.314 98.3612 416.158 98.4246 415.983 98.4677C415.81 98.5109 415.631 98.5527 415.444 98.5931C415.213 98.6417 414.997 98.7186 414.797 98.8237C414.6 98.9262 414.43 99.0719 414.287 99.2607C414.147 99.4495 414.043 99.6949 413.976 99.997C413.911 100.299 413.894 100.673 413.923 101.118V101.49H413.308V101.118C413.308 100.619 413.356 100.183 413.45 99.8109C413.547 99.4387 413.683 99.1245 413.859 98.8682C414.034 98.612 414.242 98.4084 414.482 98.2574C414.724 98.1063 414.991 98.0025 415.283 97.9459C415.493 97.9054 415.674 97.8622 415.825 97.8164C415.976 97.7678 416.09 97.7031 416.169 97.6222C416.25 97.5413 416.29 97.4307 416.29 97.2905ZM415.404 99.4468C415.69 99.4468 415.945 99.4967 416.169 99.5964C416.392 99.6962 416.583 99.8351 416.739 100.013C416.895 100.191 417.014 100.402 417.095 100.644C417.179 100.884 417.22 101.146 417.22 101.429V101.518C417.22 101.823 417.176 102.106 417.087 102.368C417.001 102.627 416.873 102.853 416.703 103.047C416.535 103.239 416.33 103.388 416.088 103.496C415.848 103.604 415.574 103.658 415.266 103.658C414.959 103.658 414.684 103.604 414.441 103.496C414.201 103.388 413.996 103.239 413.826 103.047C413.656 102.853 413.527 102.627 413.438 102.368C413.352 102.106 413.308 101.823 413.308 101.518V101.429C413.308 101.362 413.321 101.296 413.345 101.231C413.369 101.166 413.399 101.1 413.434 101.033C413.472 100.965 413.505 100.894 413.535 100.818C413.635 100.575 413.771 100.35 413.944 100.143C414.119 99.9349 414.328 99.7677 414.571 99.6409C414.816 99.5115 415.094 99.4468 415.404 99.4468ZM415.258 100.058C414.983 100.058 414.757 100.121 414.579 100.248C414.403 100.375 414.273 100.543 414.186 100.753C414.1 100.961 414.057 101.186 414.057 101.429V101.518C414.057 101.723 414.081 101.917 414.13 102.101C414.178 102.284 414.251 102.447 414.348 102.59C414.448 102.73 414.573 102.841 414.724 102.922C414.878 103.003 415.059 103.043 415.266 103.043C415.474 103.043 415.653 103.003 415.805 102.922C415.956 102.841 416.08 102.73 416.177 102.59C416.274 102.447 416.347 102.284 416.395 102.101C416.444 101.917 416.468 101.723 416.468 101.518V101.429C416.468 101.246 416.444 101.072 416.395 100.907C416.347 100.743 416.272 100.597 416.173 100.47C416.076 100.344 415.95 100.244 415.796 100.171C415.645 100.095 415.466 100.058 415.258 100.058Z" fill="black"/>
</g>
<g clip-path="url(#clip11_30_11205)">
<g clip-path="url(#clip12_30_11205)">
<g clip-path="url(#clip13_30_11205)">
<path d="M161.021 127.523C163.665 127.523 165.801 129.71 165.801 132.303C165.801 134.119 164.627 136.236 162.338 138.736C162.302 138.775 162.265 138.812 162.226 138.848C161.499 139.513 160.371 139.463 159.705 138.736C157.416 136.236 156.241 134.119 156.241 132.303C156.241 129.71 158.378 127.523 161.021 127.523ZM161.021 128.479C158.866 128.479 157.197 130.279 157.197 132.303C157.197 133.822 158.268 135.751 160.41 138.091C160.719 138.428 161.243 138.452 161.581 138.143C161.599 138.126 161.616 138.109 161.633 138.091C163.775 135.751 164.845 133.822 164.845 132.303C164.845 130.279 163.177 128.479 161.021 128.479ZM161.021 130.072C162.253 130.072 163.252 131.071 163.252 132.303C163.252 133.534 162.253 134.533 161.021 134.533C159.79 134.533 158.791 133.534 158.791 132.303C158.791 131.071 159.79 130.072 161.021 130.072ZM161.021 131.028C160.318 131.028 159.747 131.599 159.747 132.303C159.747 133.006 160.318 133.577 161.021 133.577C161.725 133.577 162.296 133.006 162.296 132.303C162.296 131.599 161.725 131.028 161.021 131.028Z" fill="#99A2AD"/>
</g>
</g>
<g clip-path="url(#clip14_30_11205)">
<path d="M178.66 137.044C180.093 137.044 181.158 136.246 181.382 135.013V135.004H180.532L180.523 135.013C180.313 135.788 179.599 136.269 178.66 136.269C177.363 136.269 176.55 135.209 176.55 133.524V133.515C176.55 131.83 177.363 130.766 178.656 130.766C179.585 130.766 180.304 131.312 180.528 132.175L180.532 132.185H181.377L181.382 132.175C181.181 130.882 180.075 129.991 178.656 129.991C176.826 129.991 175.687 131.344 175.687 133.515V133.524C175.687 135.69 176.831 137.044 178.66 137.044ZM184.011 136.974C184.688 136.974 185.215 136.68 185.533 136.143H185.607V136.885H186.42V133.44C186.42 132.395 185.733 131.764 184.506 131.764C183.432 131.764 182.667 132.297 182.536 133.086L182.531 133.114H183.343L183.348 133.1C183.479 132.707 183.876 132.483 184.478 132.483C185.229 132.483 185.607 132.819 185.607 133.44V133.898L184.165 133.986C182.993 134.056 182.331 134.575 182.331 135.471V135.48C182.331 136.395 183.054 136.974 184.011 136.974ZM183.161 135.462V135.452C183.161 134.953 183.497 134.682 184.263 134.635L185.607 134.551V135.009C185.607 135.728 185.005 136.269 184.179 136.269C183.596 136.269 183.161 135.97 183.161 135.462ZM191.145 136.885H191.957V131.853H191.145V133.935H188.652V131.853H187.84V136.885H188.652V134.607H191.145V136.885ZM194.469 134.593L196.439 136.885H197.48L195.128 134.225L197.392 131.853H196.416L194.469 133.958H194.213V131.853H193.4V136.885H194.213V134.593H194.469ZM201.86 131.853H197.789V132.525H199.419V136.885H200.231V132.525H201.86V131.853ZM202.673 134.551H205.81V133.795H202.673V134.551ZM212.533 136.885V130.149H207.249V136.885H208.089V130.906H211.693V136.885H212.533ZM216.142 136.974C217.328 136.974 218.047 136.302 218.22 135.62L218.229 135.583H217.417L217.398 135.625C217.263 135.928 216.843 136.25 216.161 136.25C215.265 136.25 214.691 135.644 214.667 134.603H218.29V134.285C218.29 132.782 217.459 131.764 216.091 131.764C214.723 131.764 213.836 132.829 213.836 134.383V134.388C213.836 135.966 214.705 136.974 216.142 136.974ZM216.086 132.488C216.829 132.488 217.379 132.959 217.463 133.954H214.681C214.77 132.997 215.34 132.488 216.086 132.488ZM222.758 131.853H218.688V132.525H220.317V136.885H221.129V132.525H222.758V131.853ZM225.649 136.974C226.834 136.974 227.553 136.302 227.726 135.62L227.735 135.583H226.923L226.904 135.625C226.769 135.928 226.349 136.25 225.667 136.25C224.771 136.25 224.197 135.644 224.174 134.603H227.796V134.285C227.796 132.782 226.965 131.764 225.597 131.764C224.23 131.764 223.343 132.829 223.343 134.383V134.388C223.343 135.966 224.211 136.974 225.649 136.974ZM225.593 132.488C226.335 132.488 226.886 132.959 226.97 133.954H224.188C224.276 132.997 224.846 132.488 225.593 132.488ZM228.997 138.566H229.809V136.092H229.884C230.159 136.629 230.761 136.974 231.452 136.974C232.731 136.974 233.562 135.952 233.562 134.374V134.365C233.562 132.796 232.726 131.764 231.452 131.764C230.752 131.764 230.192 132.096 229.884 132.656H229.809V131.853H228.997V138.566ZM231.265 136.255C230.35 136.255 229.79 135.536 229.79 134.374V134.365C229.79 133.202 230.35 132.483 231.265 132.483C232.185 132.483 232.731 133.193 232.731 134.365V134.374C232.731 135.546 232.185 136.255 231.265 136.255ZM236.863 136.979C238.315 136.979 239.207 135.989 239.207 134.393V134.383C239.207 132.866 238.338 131.9 236.985 131.9C236.224 131.9 235.622 132.227 235.281 132.829H235.206L235.22 132.726C235.407 131.354 235.916 130.808 237.087 130.756L237.601 130.733C238.184 130.705 238.716 130.583 238.875 130.434V129.715C238.441 129.893 237.965 129.967 237.563 129.986L237.059 130.009C235.262 130.093 234.52 131.232 234.52 133.902V133.912C234.52 135.928 235.323 136.979 236.863 136.979ZM236.863 136.26C235.902 136.26 235.351 135.574 235.351 134.393V134.383C235.351 133.258 235.902 132.619 236.863 132.619C237.825 132.619 238.376 133.258 238.376 134.383V134.393C238.376 135.574 237.825 136.26 236.863 136.26ZM240.65 138.65C241.542 138.65 241.957 138.323 242.373 137.193L244.338 131.853H243.483L242.106 135.994H242.032L240.65 131.853H239.782L241.644 136.89L241.551 137.189C241.369 137.768 241.089 137.978 240.627 137.978C240.515 137.978 240.389 137.973 240.291 137.954V138.622C240.403 138.64 240.543 138.65 240.65 138.65ZM245.352 138.566H246.164V136.092H246.239C246.514 136.629 247.116 136.974 247.807 136.974C249.086 136.974 249.917 135.952 249.917 134.374V134.365C249.917 132.796 249.081 131.764 247.807 131.764C247.107 131.764 246.547 132.096 246.239 132.656H246.164V131.853H245.352V138.566ZM247.62 136.255C246.705 136.255 246.145 135.536 246.145 134.374V134.365C246.145 133.202 246.705 132.483 247.62 132.483C248.54 132.483 249.086 133.193 249.086 134.365V134.374C249.086 135.546 248.54 136.255 247.62 136.255ZM254.343 132.525V131.853H251.122V136.885H251.935V132.525H254.343ZM254.326 138.598H254.928L255.661 135.942H254.732L254.326 138.598ZM259.901 136.885H260.742V133.818H264.439V136.885H265.279V130.149H264.439V133.062H260.742V130.149H259.901V136.885ZM268.888 136.974C270.074 136.974 270.793 136.302 270.966 135.62L270.975 135.583H270.163L270.144 135.625C270.009 135.928 269.589 136.25 268.907 136.25C268.011 136.25 267.437 135.644 267.413 134.603H271.036V134.285C271.036 132.782 270.205 131.764 268.837 131.764C267.469 131.764 266.582 132.829 266.582 134.383V134.388C266.582 135.966 267.451 136.974 268.888 136.974ZM268.832 132.488C269.575 132.488 270.125 132.959 270.209 133.954H267.427C267.516 132.997 268.085 132.488 268.832 132.488ZM272.232 136.885H274.374C275.457 136.885 276.097 136.316 276.097 135.443V135.434C276.097 134.85 275.691 134.402 275.051 134.313V134.239C275.523 134.14 275.873 133.669 275.873 133.17V133.16C275.873 132.371 275.317 131.853 274.365 131.853H272.232V136.885ZM273.044 133.982V132.525H274.248C274.813 132.525 275.065 132.815 275.065 133.244V133.254C275.065 133.73 274.771 133.982 274.118 133.982H273.044ZM273.044 136.213V134.654H274.188C274.911 134.654 275.271 134.887 275.271 135.42V135.429C275.271 135.933 274.958 136.213 274.342 136.213H273.044ZM279.333 136.974C280.542 136.974 281.219 136.325 281.424 135.415L281.433 135.363L280.631 135.368L280.621 135.396C280.434 135.956 280.005 136.255 279.328 136.255C278.432 136.255 277.853 135.513 277.853 134.355V134.346C277.853 133.212 278.423 132.483 279.328 132.483C280.052 132.483 280.5 132.885 280.626 133.38L280.631 133.394H281.438L281.433 133.366C281.284 132.469 280.551 131.764 279.328 131.764C277.918 131.764 277.022 132.782 277.022 134.346V134.355C277.022 135.952 277.923 136.974 279.333 136.974ZM283.628 134.593L285.598 136.885H286.639L284.287 134.225L286.551 131.853H285.575L283.628 133.958H283.372V131.853H282.559V136.885H283.372V134.593H283.628ZM287.607 136.885H288.419L290.907 133.132H290.982V136.885H291.794V131.853H290.982L288.494 135.606H288.419V131.853H287.607V136.885ZM295.338 131.153C296.299 131.153 296.939 130.49 296.939 129.622H296.211C296.211 130.131 295.889 130.602 295.338 130.602C294.796 130.602 294.465 130.131 294.465 129.622H293.737C293.737 130.49 294.376 131.153 295.338 131.153ZM293.242 136.885H294.054L296.542 133.132H296.617V136.885H297.429V131.853H296.617L294.129 135.606H294.054V131.853H293.242V136.885ZM301.413 136.885H302.225V132.525H304.671V136.885H305.484V131.853H301.413V136.885ZM306.932 138.566H307.744V136.092H307.819C308.094 136.629 308.696 136.974 309.387 136.974C310.666 136.974 311.497 135.952 311.497 134.374V134.365C311.497 132.796 310.661 131.764 309.387 131.764C308.687 131.764 308.127 132.096 307.819 132.656H307.744V131.853H306.932V138.566ZM309.2 136.255C308.285 136.255 307.725 135.536 307.725 134.374V134.365C307.725 133.202 308.285 132.483 309.2 132.483C310.12 132.483 310.666 133.193 310.666 134.365V134.374C310.666 135.546 310.12 136.255 309.2 136.255ZM314.775 136.974C316.208 136.974 317.095 135.984 317.095 134.374V134.365C317.095 132.749 316.208 131.764 314.775 131.764C313.342 131.764 312.455 132.749 312.455 134.365V134.374C312.455 135.984 313.342 136.974 314.775 136.974ZM314.775 136.255C313.823 136.255 313.286 135.56 313.286 134.374V134.365C313.286 133.174 313.823 132.483 314.775 132.483C315.727 132.483 316.264 133.174 316.264 134.365V134.374C316.264 135.56 315.727 136.255 314.775 136.255ZM320.354 136.974C321.563 136.974 322.24 136.325 322.445 135.415L322.455 135.363L321.652 135.368L321.643 135.396C321.456 135.956 321.026 136.255 320.35 136.255C319.453 136.255 318.875 135.513 318.875 134.355V134.346C318.875 133.212 319.444 132.483 320.35 132.483C321.073 132.483 321.521 132.885 321.647 133.38L321.652 133.394H322.46L322.455 133.366C322.305 132.469 321.573 131.764 320.35 131.764C318.94 131.764 318.044 132.782 318.044 134.346V134.355C318.044 135.952 318.945 136.974 320.354 136.974ZM323.581 136.885H324.393V132.525H326.839V136.885H327.651V131.853H323.581V136.885ZM331.153 136.974C332.339 136.974 333.058 136.302 333.231 135.62L333.24 135.583H332.428L332.409 135.625C332.274 135.928 331.854 136.25 331.172 136.25C330.276 136.25 329.702 135.644 329.678 134.603H333.301V134.285C333.301 132.782 332.47 131.764 331.102 131.764C329.734 131.764 328.847 132.829 328.847 134.383V134.388C328.847 135.966 329.716 136.974 331.153 136.974ZM331.097 132.488C331.84 132.488 332.39 132.959 332.474 133.954H329.692C329.781 132.997 330.351 132.488 331.097 132.488ZM335.566 134.593L337.536 136.885H338.577L336.224 134.225L338.488 131.853H337.512L335.566 133.958H335.309V131.853H334.497V136.885H335.309V134.593H335.566ZM342.956 131.853H338.886V132.525H340.515V136.885H341.327V132.525H342.956V131.853ZM346.464 136.885H350.824V136.129H347.631V136.054L349.162 134.472C350.38 133.216 350.712 132.656 350.712 131.886V131.877C350.712 130.789 349.811 129.991 348.635 129.991C347.346 129.991 346.422 130.85 346.417 132.045L346.427 132.049L347.23 132.054L347.234 132.045C347.234 131.251 347.771 130.724 348.579 130.724C349.372 130.724 349.853 131.256 349.853 131.965V131.975C349.853 132.563 349.601 132.913 348.742 133.842L346.464 136.306V136.885ZM354.382 136.997C355.81 136.997 356.828 136.194 356.828 135.065V135.055C356.828 134.225 356.245 133.534 355.381 133.333V133.314C356.118 133.086 356.585 132.525 356.585 131.816V131.807C356.585 130.789 355.656 130.037 354.382 130.037C353.108 130.037 352.179 130.789 352.179 131.807V131.816C352.179 132.525 352.645 133.086 353.383 133.314V133.333C352.519 133.534 351.936 134.225 351.936 135.055V135.065C351.936 136.194 352.954 136.997 354.382 136.997ZM354.382 133.002C353.57 133.002 353.014 132.539 353.014 131.886V131.877C353.014 131.223 353.57 130.761 354.382 130.761C355.194 130.761 355.75 131.223 355.75 131.877V131.886C355.75 132.539 355.194 133.002 354.382 133.002ZM354.382 136.264C353.453 136.264 352.79 135.742 352.79 135.013V135.004C352.79 134.267 353.448 133.739 354.382 133.739C355.316 133.739 355.974 134.267 355.974 135.004V135.013C355.974 135.742 355.311 136.264 354.382 136.264Z" fill="#6D7885"/>
</g>
</g>
<rect x="154.648" y="148.808" width="223.704" height="0.318667" fill="#D7D8D9"/>
<path d="M155.643 167.115H156.955L160.647 161.697H160.742V167.115H162.097V159.481H160.79L157.097 164.909H157.002V159.481H155.643V167.115ZM167.45 167.115H168.767V161.332H167.45V163.623H165.011V161.332H163.694V167.115H165.011V164.644H167.45V167.115ZM174.633 161.332H169.756V162.353H171.533V167.115H172.85V162.353H174.633V161.332ZM177.918 167.231C179.489 167.231 180.261 166.326 180.447 165.58L180.463 165.533H179.209L179.193 165.57C179.066 165.834 178.659 166.194 177.944 166.194C177.05 166.194 176.489 165.591 176.474 164.554H180.515V164.12C180.515 162.374 179.5 161.221 177.854 161.221C176.209 161.221 175.156 162.411 175.156 164.231V164.237C175.156 166.078 176.198 167.231 177.918 167.231ZM177.87 162.253C178.606 162.253 179.14 162.724 179.23 163.671H176.484C176.585 162.75 177.135 162.253 177.87 162.253ZM181.678 169.035H182.996V166.194H183.086C183.387 166.818 184.049 167.21 184.842 167.21C186.308 167.21 187.218 166.072 187.218 164.231V164.221C187.218 162.39 186.292 161.237 184.842 161.237C184.033 161.237 183.403 161.607 183.086 162.237H182.996V161.332H181.678V169.035ZM184.429 166.099C183.535 166.099 182.98 165.385 182.98 164.226V164.216C182.98 163.057 183.535 162.348 184.429 162.348C185.329 162.348 185.874 163.057 185.874 164.221V164.231C185.874 165.39 185.329 166.099 184.429 166.099ZM190.867 167.231C192.438 167.231 193.211 166.326 193.396 165.58L193.412 165.533H192.158L192.142 165.57C192.015 165.834 191.608 166.194 190.894 166.194C189.999 166.194 189.439 165.591 189.423 164.554H193.465V164.12C193.465 162.374 192.449 161.221 190.804 161.221C189.158 161.221 188.105 162.411 188.105 164.231V164.237C188.105 166.078 189.148 167.231 190.867 167.231ZM190.819 162.253C191.555 162.253 192.089 162.724 192.179 163.671H189.433C189.534 162.75 190.084 162.253 190.819 162.253ZM197.109 167.231C198.574 167.231 199.426 166.443 199.617 165.258L199.627 165.215L198.384 165.221L198.373 165.242C198.209 165.85 197.791 166.162 197.109 166.162C196.215 166.162 195.68 165.443 195.68 164.216V164.205C195.68 162.993 196.21 162.285 197.109 162.285C197.828 162.285 198.257 162.687 198.379 163.247L198.384 163.263H199.627V163.242C199.479 162.046 198.59 161.221 197.104 161.221C195.363 161.221 194.342 162.337 194.342 164.205V164.216C194.342 166.104 195.368 167.231 197.109 167.231ZM204.478 167.115H205.795V161.332H204.478V163.623H202.039V161.332H200.721V167.115H202.039V164.644H204.478V167.115ZM209.746 167.231C211.476 167.231 212.529 166.099 212.529 164.226V164.216C212.529 162.353 211.471 161.221 209.746 161.221C208.027 161.221 206.963 162.359 206.963 164.216V164.226C206.963 166.099 208.011 167.231 209.746 167.231ZM209.746 166.162C208.831 166.162 208.307 165.448 208.307 164.231V164.221C208.307 163.004 208.831 162.285 209.746 162.285C210.656 162.285 211.18 163.004 211.18 164.221V164.231C211.18 165.448 210.661 166.162 209.746 166.162ZM216.173 167.231C217.744 167.231 218.517 166.326 218.702 165.58L218.718 165.533H217.464L217.448 165.57C217.321 165.834 216.914 166.194 216.199 166.194C215.305 166.194 214.745 165.591 214.729 164.554H218.771V164.12C218.771 162.374 217.755 161.221 216.109 161.221C214.464 161.221 213.411 162.411 213.411 164.231V164.237C213.411 166.078 214.454 167.231 216.173 167.231ZM216.125 162.253C216.861 162.253 217.395 162.724 217.485 163.671H214.739C214.84 162.75 215.39 162.253 216.125 162.253ZM222.562 169.035H223.879V166.194H223.969C224.271 166.818 224.932 167.21 225.726 167.21C227.191 167.21 228.101 166.072 228.101 164.231V164.221C228.101 162.39 227.175 161.237 225.726 161.237C224.916 161.237 224.287 161.607 223.969 162.237H223.879V161.332H222.562V169.035ZM225.313 166.099C224.419 166.099 223.864 165.385 223.864 164.226V164.216C223.864 163.057 224.419 162.348 225.313 162.348C226.212 162.348 226.757 163.057 226.757 164.221V164.231C226.757 165.39 226.212 166.099 225.313 166.099ZM232.359 167.115H233.655V161.332H231.269C229.92 161.332 229.031 162.089 229.031 163.295V163.306C229.031 164.099 229.513 164.718 230.301 164.951L228.751 167.115H230.253L231.608 165.168H232.359V167.115ZM231.37 164.2C230.74 164.2 230.349 163.819 230.349 163.3V163.29C230.349 162.713 230.735 162.343 231.37 162.343H232.359V164.2H231.37ZM235.649 168.622V167.115H239.796V168.622H241.003V166.083H240.114V161.332H235.76L235.559 164.369C235.506 165.147 235.326 165.829 234.898 166.083H234.443V168.622H235.649ZM238.791 166.083H236.305V165.993C236.559 165.628 236.691 165.073 236.739 164.438L236.887 162.364H238.791V166.083ZM244.361 167.231C246.091 167.231 247.144 166.099 247.144 164.226V164.216C247.144 162.353 246.086 161.221 244.361 161.221C242.642 161.221 241.579 162.359 241.579 164.216V164.226C241.579 166.099 242.626 167.231 244.361 167.231ZM244.361 166.162C243.446 166.162 242.922 165.448 242.922 164.231V164.221C242.922 163.004 243.446 162.285 244.361 162.285C245.271 162.285 245.795 163.004 245.795 164.221V164.231C245.795 165.448 245.277 166.162 244.361 166.162ZM249.566 167.115V163.168H249.667L251.254 166.855H252.195L253.788 163.168H253.888V167.115H255.148V161.332H253.502L251.788 165.358H251.693L249.984 161.332H248.307V167.115H249.566Z" fill="black"/>
<g clip-path="url(#clip15_30_11205)">
<rect x="154.648" y="184.499" width="108.984" height="123.005" rx="3.824" fill="#F5F5F5"/>
<rect x="154.648" y="184.499" width="108.984" height="81.5787" fill="#171B4D"/>
<path fill-rule="evenodd" clip-rule="evenodd" d="M250.138 193.475C249.939 193.012 249.282 193.012 249.083 193.475L248.173 195.599C248.086 195.803 247.898 195.947 247.678 195.979L245.692 196.262C245.196 196.333 245.023 196.961 245.412 197.276L246.81 198.407C246.992 198.555 247.079 198.79 247.036 199.02L246.639 201.135C246.54 201.664 247.159 202.026 247.572 201.68L249.201 200.311C249.438 200.112 249.784 200.112 250.021 200.311L251.649 201.68C252.062 202.026 252.681 201.664 252.582 201.135L252.186 199.02C252.143 198.79 252.229 198.555 252.411 198.407L253.809 197.276C254.198 196.961 254.025 196.333 253.529 196.262L251.544 195.979C251.323 195.947 251.136 195.803 251.048 195.599L250.138 193.475ZM248.205 193.098C248.734 191.862 250.487 191.862 251.017 193.098L251.856 195.058L253.664 195.316C254.986 195.505 255.448 197.179 254.41 198.019L253.16 199.031L253.522 200.959C253.787 202.371 252.135 203.336 251.035 202.412L249.611 201.216L248.187 202.412C247.087 203.336 245.435 202.371 245.7 200.959L246.061 199.031L244.811 198.019C243.773 197.179 244.235 195.505 245.557 195.316L247.365 195.058L248.205 193.098Z" fill="white"/>
<rect width="108.984" height="41.4267" transform="translate(154.648 266.077)" fill="white"/>
<g clip-path="url(#clip16_30_11205)">
<path d="M206.038 256.244C205.035 257.224 203.671 257.781 202.244 257.792C200.817 257.803 199.443 257.268 198.423 256.303L187.74 246.063L195.349 238.655L206.038 248.895C207.034 249.876 207.593 251.195 207.593 252.57C207.593 253.943 207.034 255.263 206.038 256.244Z" fill="#0077FF"/>
<path d="M198.029 241.386C196.859 242.48 192.688 245.372 191.597 249.764L187.734 246.063L198.029 241.386Z" fill="#171B4D"/>
<path d="M224.805 212.557C222.217 208.225 219.032 204.547 215.847 202.197C212.298 199.585 209.07 198.865 206.692 200.18C204.812 201.227 203.858 203.387 203.777 206.231C203.623 210.113 202.011 213.808 199.243 216.627C196.808 219.176 194.173 221.541 191.363 223.702C183.126 229.89 179.657 232.33 177.809 233.883C175.96 235.436 177.192 241.148 180.729 244.593C182.056 245.884 183.807 246.689 185.681 246.868C187.556 247.047 189.436 246.59 190.999 245.575C196.818 241.771 202.84 238.263 209.039 235.067C211.012 234.056 213.18 233.452 215.407 233.291C217.633 233.13 219.871 233.417 221.977 234.133C222.687 234.403 223.445 234.535 224.208 234.519C225.132 234.504 226.04 234.284 226.863 233.877C231.44 231.36 230.56 222.184 224.805 212.557Z" fill="#0077FF"/>
<path d="M226.305 229.899C228.659 228.593 226.93 221.422 222.443 213.882C217.957 206.343 212.412 201.29 210.059 202.597C207.705 203.903 209.434 211.074 213.921 218.613C218.407 226.152 223.952 231.205 226.305 229.899Z" fill="#171B4D"/>
<path d="M193.1 244.26L198.029 241.386C191.252 240.517 186.384 228.623 188.528 225.784C186.68 227.159 178.671 233.186 177.808 233.9C175.473 236.001 178.221 245.135 184.752 247.068C185.635 247.318 186.565 247.376 187.474 247.236C188.383 247.096 189.248 246.762 190.007 246.259C190.944 245.652 191.991 244.98 193.1 244.26Z" fill="#17D685"/>
<path d="M230.683 199.364C228.619 203.327 225.68 204.452 224.836 203.988C223.992 203.524 223.456 200.81 225.52 196.847C227.584 192.884 229.069 192.349 230.492 193.039C231.915 193.729 232.741 195.407 230.683 199.364Z" fill="#17D685"/>
<path d="M237.121 230.883C234.311 230.377 233.172 228.557 233.338 227.837C233.504 227.117 235.143 226.052 237.946 226.569C240.75 227.087 242.167 228.354 241.939 229.544C241.711 230.734 239.924 231.383 237.121 230.883Z" fill="#17D685"/>
<path d="M235.821 214.05C233.67 214.585 232.124 213.211 231.94 212.443C231.755 211.675 232.451 210.063 234.601 209.504C236.751 208.944 238.254 209.682 238.593 210.938C238.932 212.193 237.971 213.514 235.821 214.05Z" fill="#17D685"/>
<mask id="mask0_30_11205" style="mask-type:alpha" maskUnits="userSpaceOnUse" x="209" y="202" width="19" height="29">
<path d="M226.305 229.899C228.659 228.593 226.93 221.422 222.443 213.882C217.957 206.343 212.412 201.29 210.059 202.597C207.705 203.903 209.434 211.074 213.921 218.613C218.407 226.152 223.952 231.205 226.305 229.899Z" fill="#171B4D"/>
</mask>
<g mask="url(#mask0_30_11205)">
<path d="M213.345 226.093C217.082 226.093 220.11 223.168 220.11 219.56C220.11 215.951 217.082 213.026 213.345 213.026C209.609 213.026 206.581 215.951 206.581 219.56C206.581 223.168 209.609 226.093 213.345 226.093Z" fill="#00DC7F"/>
</g>
</g>
</g>
<g clip-path="url(#clip17_30_11205)">
<rect x="268.731" y="184.499" width="108.984" height="123.005" rx="3.824" fill="#F5F5F5"/>
<rect x="268.731" y="184.499" width="108.984" height="81.5787" fill="#0077FF"/>
<path d="M284.578 267.986L284.983 237.661L351.618 228.931L359.773 241.204L355.069 268.68L284.578 267.986Z" fill="#F897FF"/>
<path d="M287.355 238.379C276.044 236.194 312.643 222.466 332.356 215.875C346.464 211.888 357.356 227.055 360.852 229.145C364.348 231.235 362.879 251.433 361.292 261.791C360.022 270.076 356.802 272.645 355.351 272.894C338.806 273.563 303.21 274.658 293.182 273.687C283.155 272.716 283.34 268.128 284.685 265.955C293.668 268.674 345.995 267.998 351.438 267.065C356.881 266.132 356.36 247.396 356.515 241.766C356.671 236.137 352.273 235.322 345.598 236.914C338.924 238.506 343.825 246.182 339.141 246.313C334.457 246.443 338.551 236.329 332.019 237.448C325.487 238.567 328.329 256.458 321.368 258.996C314.407 261.533 314.346 248.097 312.611 241.895C310.875 235.693 301.494 241.111 287.355 238.379Z" fill="#A038E5"/>
<path d="M362.492 232.222C349.234 236.466 335.528 230.941 330.332 227.648L350.698 218.331C358.209 222.597 361.769 228.78 362.492 232.222Z" fill="#8217C5"/>
<path d="M337.468 192.135C326.843 203.369 327.589 207.724 326.115 210.89C331.446 217.148 344.528 215.895 344.552 216.47C344.055 203.109 339.623 194.68 337.468 192.135Z" fill="#11AB6B"/>
<path d="M362.343 215.663C354.754 207.998 344.198 213.095 339.868 216.601L335.775 226.715C349.574 232.956 359.237 221.947 362.343 215.663Z" fill="#25D595"/>
<path d="M341.274 222.187C339.614 227.67 333.824 230.769 328.341 229.11C322.858 227.45 319.758 221.66 321.418 216.177C323.078 210.694 328.868 207.594 334.351 209.254C339.834 210.914 342.933 216.704 341.274 222.187Z" fill="#F00091"/>
<path d="M348.849 258.54C347.98 261.412 344.947 263.036 342.075 262.167C339.202 261.297 337.579 258.264 338.448 255.392C339.318 252.52 342.351 250.897 345.223 251.766C348.095 252.635 349.718 255.668 348.849 258.54Z" fill="#F00091"/>
<path d="M305.299 248.971C304.667 251.06 302.461 252.241 300.372 251.608C298.284 250.976 297.103 248.77 297.735 246.682C298.367 244.593 300.573 243.412 302.662 244.044C304.751 244.676 305.931 246.882 305.299 248.971Z" fill="#F00091"/>
<path d="M297.05 255.764C296.576 257.33 294.922 258.216 293.355 257.741C291.789 257.267 290.903 255.613 291.377 254.046C291.851 252.48 293.506 251.594 295.072 252.068C296.639 252.543 297.525 254.197 297.05 255.764Z" fill="#F00091"/>
<path fill-rule="evenodd" clip-rule="evenodd" d="M364.221 193.475C364.022 193.012 363.365 193.012 363.166 193.475L362.256 195.599C362.168 195.803 361.981 195.947 361.76 195.979L359.775 196.262C359.279 196.333 359.106 196.961 359.495 197.276L360.893 198.407C361.075 198.555 361.162 198.79 361.118 199.02L360.722 201.135C360.623 201.664 361.242 202.026 361.655 201.68L363.283 200.311C363.521 200.112 363.866 200.112 364.103 200.311L365.732 201.68C366.145 202.026 366.764 201.664 366.665 201.135L366.268 199.02C366.225 198.79 366.312 198.555 366.494 198.407L367.892 197.276C368.281 196.961 368.108 196.333 367.612 196.262L365.626 195.979C365.406 195.947 365.218 195.803 365.131 195.599L364.221 193.475ZM362.288 193.098C362.817 191.862 364.57 191.862 365.099 193.098L365.939 195.058L367.747 195.316C369.069 195.505 369.531 197.179 368.493 198.019L367.243 199.031L367.605 200.959C367.869 202.371 366.217 203.336 365.117 202.412L363.693 201.216L362.27 202.412C361.169 203.336 359.518 202.371 359.782 200.959L360.144 199.031L358.894 198.019C357.856 197.179 358.318 195.505 359.64 195.316L361.448 195.058L362.288 193.098Z" fill="white"/>
<rect width="108.984" height="41.4267" transform="translate(268.731 266.077)" fill="white"/>
</g>
</g>
</g>
<path d="M195.383 22.353H191V9.60144H340.033V22.353H336.048C333.848 22.353 332.064 24.137 332.064 26.3378V27.5333C332.064 35.456 325.641 41.8787 317.718 41.8787H213.714C205.791 41.8787 199.368 35.456 199.368 27.5333V26.3378C199.368 24.137 197.584 22.353 195.383 22.353Z" fill="#222222"/>
<path d="M240.412 29.1272C240.412 27.8068 241.483 26.7363 242.803 26.7363H276.276C277.596 26.7363 278.667 27.8068 278.667 29.1272C278.667 30.4477 277.596 31.5181 276.276 31.5181H242.803C241.483 31.5181 240.412 30.4477 240.412 29.1272Z" fill="#3C3C3C"/>
<path d="M289.824 29.1272C289.824 30.4477 288.754 31.5181 287.433 31.5181C286.113 31.5181 285.042 30.4477 285.042 29.1272C285.042 27.8068 286.113 26.7363 287.433 26.7363C288.754 26.7363 289.824 27.8068 289.824 29.1272Z" fill="#3C3C3C"/>
</g>
<rect x="141.376" y="16.3758" width="250.248" height="527.248" rx="33.6242" stroke="#222222" stroke-width="12.7515"/>
</g>
<defs>
<filter id="filter0_dd_30_11205" x="139.033" y="73.0307" width="107.709" height="58.6347" filterUnits="userSpaceOnUse" color-interpolation-filters="sRGB">
<feFlood flood-opacity="0" result="BackgroundImageFix"/>
<feColorMatrix in="SourceAlpha" type="matrix" values="0 0 0 0 0 0 0 0 0 0 0 0 0 0 0 0 0 0 127 0" result="hardAlpha"/>
<feOffset/>
<feGaussianBlur stdDeviation="0.637333"/>
<feColorMatrix type="matrix" values="0 0 0 0 0 0 0 0 0 0 0 0 0 0 0 0 0 0 0.08 0"/>
<feBlend mode="normal" in2="BackgroundImageFix" result="effect1_dropShadow_30_11205"/>
<feColorMatrix in="SourceAlpha" type="matrix" values="0 0 0 0 0 0 0 0 0 0 0 0 0 0 0 0 0 0 127 0" result="hardAlpha"/>
<feOffset dy="1.27467"/>
<feGaussianBlur stdDeviation="7.648"/>
<feColorMatrix type="matrix" values="0 0 0 0 0 0 0 0 0 0 0 0 0 0 0 0 0 0 0.08 0"/>
<feBlend mode="normal" in2="effect1_dropShadow_30_11205" result="effect2_dropShadow_30_11205"/>
<feBlend mode="normal" in="SourceGraphic" in2="effect2_dropShadow_30_11205" result="shape"/>
</filter>
<filter id="filter1_dd_30_11205" x="221.249" y="73.0307" width="105.16" height="58.6347" filterUnits="userSpaceOnUse" color-interpolation-filters="sRGB">
<feFlood flood-opacity="0" result="BackgroundImageFix"/>
<feColorMatrix in="SourceAlpha" type="matrix" values="0 0 0 0 0 0 0 0 0 0 0 0 0 0 0 0 0 0 127 0" result="hardAlpha"/>
<feOffset/>
<feGaussianBlur stdDeviation="0.637333"/>
<feColorMatrix type="matrix" values="0 0 0 0 0 0 0 0 0 0 0 0 0 0 0 0 0 0 0.08 0"/>
<feBlend mode="normal" in2="BackgroundImageFix" result="effect1_dropShadow_30_11205"/>
<feColorMatrix in="SourceAlpha" type="matrix" values="0 0 0 0 0 0 0 0 0 0 0 0 0 0 0 0 0 0 127 0" result="hardAlpha"/>
<feOffset dy="1.27467"/>
<feGaussianBlur stdDeviation="7.648"/>
<feColorMatrix type="matrix" values="0 0 0 0 0 0 0 0 0 0 0 0 0 0 0 0 0 0 0.08 0"/>
<feBlend mode="normal" in2="effect1_dropShadow_30_11205" result="effect2_dropShadow_30_11205"/>
<feBlend mode="normal" in="SourceGraphic" in2="effect2_dropShadow_30_11205" result="shape"/>
</filter>
<filter id="filter2_dd_30_11205" x="300.916" y="73.0307" width="139.576" height="58.6347" filterUnits="userSpaceOnUse" color-interpolation-filters="sRGB">
<feFlood flood-opacity="0" result="BackgroundImageFix"/>
<feColorMatrix in="SourceAlpha" type="matrix" values="0 0 0 0 0 0 0 0 0 0 0 0 0 0 0 0 0 0 127 0" result="hardAlpha"/>
<feOffset/>
<feGaussianBlur stdDeviation="0.637333"/>
<feColorMatrix type="matrix" values="0 0 0 0 0 0 0 0 0 0 0 0 0 0 0 0 0 0 0.08 0"/>
<feBlend mode="normal" in2="BackgroundImageFix" result="effect1_dropShadow_30_11205"/>
<feColorMatrix in="SourceAlpha" type="matrix" values="0 0 0 0 0 0 0 0 0 0 0 0 0 0 0 0 0 0 127 0" result="hardAlpha"/>
<feOffset dy="1.27467"/>
<feGaussianBlur stdDeviation="7.648"/>
<feColorMatrix type="matrix" values="0 0 0 0 0 0 0 0 0 0 0 0 0 0 0 0 0 0 0.08 0"/>
<feBlend mode="normal" in2="effect1_dropShadow_30_11205" result="effect2_dropShadow_30_11205"/>
<feBlend mode="normal" in="SourceGraphic" in2="effect2_dropShadow_30_11205" result="shape"/>
</filter>
<clipPath id="clip0_30_11205">
<rect width="534" height="272" fill="white"/>
</clipPath>
<clipPath id="clip1_30_11205">
<rect width="396" height="272" fill="white" transform="translate(69)"/>
</clipPath>
<clipPath id="clip2_30_11205">
<rect x="135" y="10" width="263" height="540" rx="40" fill="white"/>
</clipPath>
<clipPath id="clip3_30_11205">
<rect x="147" y="23" width="239" height="517.515" rx="8.92267" fill="white"/>
</clipPath>
<clipPath id="clip4_30_11205">
<rect width="239" height="421.531" fill="white" transform="translate(147 23)"/>
</clipPath>
<clipPath id="clip5_30_11205">
<rect x="147" y="23" width="239" height="61.184" fill="white"/>
</clipPath>
<clipPath id="clip6_30_11205">
<rect width="17.8453" height="17.8453" fill="white" transform="translate(359.232 58.6907)"/>
</clipPath>
<clipPath id="clip7_30_11205">
<rect width="17.8453" height="17.8453" fill="white" transform="translate(359.232 58.6907)"/>
</clipPath>
<clipPath id="clip8_30_11205">
<rect width="10.1973" height="10.1973" fill="white" transform="translate(182.691 62.944)"/>
</clipPath>
<clipPath id="clip9_30_11205">
<rect width="15.296" height="15.296" fill="white" transform="translate(160.416 93.1067)"/>
</clipPath>
<clipPath id="clip10_30_11205">
<rect width="15.296" height="15.296" fill="white" transform="translate(321.232 93.1067)"/>
</clipPath>
<clipPath id="clip11_30_11205">
<rect width="239" height="20.648" fill="white" transform="translate(147 123.061)"/>
</clipPath>
<clipPath id="clip12_30_11205">
<rect width="12.7467" height="20.3947" fill="white" transform="translate(154.648 123.061)"/>
</clipPath>
<clipPath id="clip13_30_11205">
<rect width="12.7467" height="12.7467" fill="white" transform="translate(154.648 126.885)"/>
</clipPath>
<clipPath id="clip14_30_11205">
<rect width="203.309" height="20.648" fill="white" transform="translate(175.043 123.061)"/>
</clipPath>
<clipPath id="clip15_30_11205">
<rect x="154.648" y="184.499" width="108.984" height="123.005" rx="3.824" fill="white"/>
</clipPath>
<clipPath id="clip16_30_11205">
<rect width="65.008" height="65.008" fill="white" transform="translate(176.955 192.784)"/>
</clipPath>
<clipPath id="clip17_30_11205">
<rect x="268.731" y="184.499" width="108.984" height="123.005" rx="3.824" fill="white"/>
</clipPath>
</defs>
</svg>
