<svg width="534" height="272" viewBox="0 0 534 272" fill="none" xmlns="http://www.w3.org/2000/svg">
<g clip-path="url(#clip0_30_10889)">
<g clip-path="url(#clip1_30_10889)">
<path d="M274.876 113C364.481 113 409.283 113 437.119 140.837C461.725 165.442 464.581 203.302 464.913 273.642H69C69.3316 203.302 72.1879 165.442 96.793 140.837C124.63 113 169.432 113 259.036 113H274.876Z" fill="#0077FF"/>
</g>
<g clip-path="url(#clip2_30_10889)">
<rect x="135" y="10" width="263" height="540" rx="40" fill="white"/>
<g clip-path="url(#clip3_30_10889)">
<rect x="147" y="22" width="239" height="513" rx="8.848" fill="#0A0A0A"/>
<g clip-path="url(#clip4_30_10889)">
<rect x="147" y="22" width="239" height="27.808" fill="#0A0A0A"/>
<path opacity="0.4" d="M359.668 35.5881C359.668 35.1404 359.668 34.8237 359.689 34.576C359.708 34.3321 359.746 34.1832 359.806 34.0662C359.927 33.8284 360.12 33.635 360.358 33.5138C360.475 33.4542 360.624 33.4165 360.868 33.3965C361.116 33.3763 361.432 33.3761 361.88 33.3761H370.728C371.176 33.3761 371.492 33.3763 371.74 33.3965C371.984 33.4165 372.133 33.4542 372.25 33.5138C372.488 33.635 372.681 33.8284 372.802 34.0662C372.862 34.1832 372.9 34.3321 372.92 34.576C372.94 34.8237 372.94 35.1404 372.94 35.5881V37.1681C372.94 37.6157 372.94 37.9325 372.92 38.1801C372.9 38.424 372.862 38.5729 372.802 38.6899C372.681 38.9277 372.488 39.1211 372.25 39.2423C372.133 39.3019 371.984 39.3397 371.74 39.3596C371.492 39.3798 371.176 39.3801 370.728 39.3801H361.88C361.432 39.3801 361.116 39.3798 360.868 39.3596C360.624 39.3397 360.475 39.3019 360.358 39.2423C360.12 39.1211 359.927 38.9277 359.806 38.6899C359.746 38.5729 359.708 38.424 359.689 38.1801C359.668 37.9325 359.668 37.6157 359.668 37.1681V35.5881Z" stroke="white" stroke-width="0.632"/>
<path opacity="0.4" fill-rule="evenodd" clip-rule="evenodd" d="M373.888 37.7203C374.433 37.58 374.836 37.0851 374.836 36.4962C374.836 35.9072 374.433 35.4123 373.888 35.272V37.7203Z" fill="white"/>
<rect x="360.616" y="34.324" width="11.376" height="4.108" rx="0.632" fill="white"/>
<path fill-rule="evenodd" clip-rule="evenodd" d="M351.345 34.3923C352.745 34.3923 354.092 34.9304 355.107 35.8954C355.183 35.9699 355.306 35.9689 355.381 35.8933L356.112 35.1559C356.15 35.1176 356.171 35.0656 356.171 35.0115C356.17 34.9574 356.148 34.9057 356.11 34.8677C353.446 32.3148 349.243 32.3148 346.579 34.8677C346.541 34.9056 346.519 34.9574 346.518 35.0115C346.518 35.0655 346.539 35.1175 346.577 35.1559L347.308 35.8933C347.383 35.9691 347.506 35.97 347.582 35.8954C348.597 34.9304 349.944 34.3923 351.345 34.3923ZM351.345 36.7911C352.114 36.7911 352.856 37.0771 353.427 37.5936C353.504 37.6669 353.625 37.6653 353.7 37.59L354.43 36.8527C354.469 36.814 354.49 36.7615 354.489 36.707C354.489 36.6525 354.466 36.6005 354.427 36.5626C352.69 34.9469 350.001 34.9469 348.264 36.5626C348.225 36.6005 348.202 36.6525 348.202 36.707C348.201 36.7616 348.223 36.814 348.261 36.8527L348.991 37.59C349.066 37.6653 349.187 37.6669 349.264 37.5936C349.834 37.0774 350.576 36.7915 351.345 36.7911ZM352.807 38.4052C352.808 38.4598 352.786 38.5125 352.747 38.5508L351.485 39.8247C351.448 39.8622 351.397 39.8832 351.345 39.8832C351.292 39.8832 351.242 39.8622 351.205 39.8247L349.942 38.5508C349.903 38.5125 349.882 38.4598 349.883 38.4051C349.884 38.3504 349.908 38.2987 349.948 38.262C350.754 37.5802 351.935 37.5802 352.741 38.262C352.782 38.2987 352.805 38.3505 352.807 38.4052Z" fill="white"/>
<path fill-rule="evenodd" clip-rule="evenodd" d="M343.341 33.7974C343.341 33.4484 343.058 33.1654 342.709 33.1654H342.077C341.728 33.1654 341.445 33.4484 341.445 33.7974V39.2747C341.445 39.6238 341.728 39.9067 342.077 39.9067H342.709C343.058 39.9067 343.341 39.6238 343.341 39.2747V33.7974ZM339.128 34.6401H339.76C340.109 34.6401 340.392 34.9231 340.392 35.2721V39.2748C340.392 39.6238 340.109 39.9068 339.76 39.9068H339.128C338.779 39.9068 338.496 39.6238 338.496 39.2748V35.2721C338.496 34.9231 338.779 34.6401 339.128 34.6401ZM336.811 36.1147H336.179C335.83 36.1147 335.547 36.3977 335.547 36.7467V39.2747C335.547 39.6238 335.83 39.9067 336.179 39.9067H336.811C337.16 39.9067 337.443 39.6238 337.443 39.2747V36.7467C337.443 36.3977 337.16 36.1147 336.811 36.1147ZM334.493 38.0107C334.493 37.6617 334.21 37.3787 333.861 37.3787H333.229C332.88 37.3787 332.597 37.6617 332.597 38.0107V39.2747C332.597 39.6238 332.88 39.9067 333.229 39.9067H333.861C334.21 39.9067 334.493 39.6238 334.493 39.2747V38.0107Z" fill="white"/>
<path d="M166.786 40.0565H167.981V33.377H166.791L165.046 34.6037V35.7285L166.708 34.5527H166.786V40.0565ZM169.647 40.0565H174.285V39.0659H171.263V38.9687L172.6 37.6726C173.818 36.5015 174.184 35.8998 174.184 35.1406V35.1267C174.184 34.0019 173.248 33.2104 171.948 33.2104C170.554 33.2104 169.582 34.0806 169.582 35.3258L169.587 35.3397L170.698 35.3443L170.703 35.3258C170.703 34.6361 171.179 34.1686 171.888 34.1686C172.582 34.1686 173.003 34.6129 173.003 35.2286V35.2425C173.003 35.7563 172.749 36.0942 171.841 37.0107L169.647 39.2511V40.0565ZM176.281 35.7285C176.706 35.7285 177.017 35.4045 177.017 34.9971C177.017 34.5852 176.706 34.2658 176.281 34.2658C175.859 34.2658 175.545 34.5852 175.545 34.9971C175.545 35.4045 175.859 35.7285 176.281 35.7285ZM176.281 39.1631C176.706 39.1631 177.017 38.8437 177.017 38.4318C177.017 38.0198 176.706 37.7004 176.281 37.7004C175.859 37.7004 175.545 38.0198 175.545 38.4318C175.545 38.8437 175.859 39.1631 176.281 39.1631ZM181.433 40.0565H182.576V38.7743H183.474V37.7884H182.576V33.377H180.887C179.979 34.7564 179.03 36.2932 178.165 37.7976V38.7743H181.433V40.0565ZM179.276 37.8161V37.7467C179.924 36.6126 180.697 35.3767 181.382 34.3306H181.451V37.8161H179.276ZM187.025 40.1908C188.561 40.1908 189.631 39.3946 189.631 38.2512V38.242C189.631 37.3856 189.01 36.7237 188.117 36.5432V36.5154C188.881 36.3117 189.39 35.7516 189.39 35.0342V35.0249C189.39 33.9973 188.409 33.2428 187.025 33.2428C185.641 33.2428 184.659 33.9973 184.659 35.0249V35.0342C184.659 35.7516 185.168 36.3117 185.932 36.5154V36.5432C185.043 36.7237 184.419 37.3856 184.419 38.242V38.2512C184.419 39.3946 185.488 40.1908 187.025 40.1908ZM187.025 36.1358C186.326 36.1358 185.84 35.7285 185.84 35.1452V35.136C185.84 34.5527 186.326 34.1454 187.025 34.1454C187.724 34.1454 188.21 34.5527 188.21 35.136V35.1452C188.21 35.7285 187.724 36.1358 187.025 36.1358ZM187.025 39.2789C186.224 39.2789 185.654 38.816 185.654 38.1726V38.1633C185.654 37.5152 186.215 37.0477 187.025 37.0477C187.83 37.0477 188.395 37.5152 188.395 38.1633V38.1726C188.395 38.816 187.825 39.2789 187.025 39.2789Z" fill="white"/>
</g>
<rect x="147" y="49.808" width="239" height="432.913" rx="10.112" fill="#171B4D"/>
<path opacity="0.48" d="M147 142.575H386V59.92C386 54.3353 381.473 49.808 375.888 49.808H157.112C151.527 49.808 147 54.3353 147 59.92V142.575Z" fill="url(#paint0_linear_30_10889)"/>
<g clip-path="url(#clip5_30_10889)">
<path d="M272.832 106.747C258.365 106 253.332 108.119 247.858 120.483C246.943 122.567 243.247 123.73 241.733 124.234C236.348 125.971 227.037 129.079 229.976 145.698C231.173 152.488 225.312 156.204 222.76 160.476C218.079 168.308 224.52 178.067 232.335 183.051C240.624 188.434 228.815 197.916 233.637 205.765C236.383 210.315 241.188 216.498 250.392 213.771C260.952 210.611 265.159 217.817 280.154 217.696C296.751 217.574 305.973 241.278 319.701 220.874C323.89 214.639 326.09 207.155 335.822 205.488C353.158 202.536 356.415 188.504 345.063 178.293C337.442 171.433 338.691 167.231 341.191 159C343.69 150.769 338.392 144.135 331.335 142.398C327.093 141.356 326.389 138.751 326.354 137.189C326.354 134.705 329.768 120.656 312.855 115.325C308.543 113.971 304.055 114.683 299.919 110.55C296.944 107.545 287.493 100.478 275.701 106.122C274.811 106.559 273.826 106.773 272.832 106.747Z" fill="#2787F5"/>
<path d="M183.31 240.582C209.698 228.415 257.195 200.205 275.648 209.678C284.251 214.11 277.97 250.299 258.954 259.163C239.938 268.028 202.01 290.206 183.733 288.435C160.582 286.175 164.206 263.335 164.206 263.335L183.31 240.582Z" fill="#00DC7F"/>
<path d="M379 276.5C360.681 292.068 337.389 269.948 314.094 289.261C277.684 321.964 261.351 321.495 218.031 262.024C214.515 257.2 211.174 253.77 229.054 237.052C238.249 228.467 249.571 218.628 263.039 207.657C293.858 202.885 355.5 213 379 276.5Z" fill="#00DC7F"/>
<path d="M305.578 173C301.934 180.81 307.163 206.125 307.48 210.971C307.075 212.837 303.835 215.034 302.374 215.714C285.649 223.402 271.969 220.386 270.261 210.798C270.807 201 271.899 198.07 270.261 183.112C277.568 182.432 286.195 183.234 293.501 182.554" fill="#FCA190"/>
<path d="M270.801 200.161C295.499 201.774 301.479 186.289 293.17 188.816C283.944 191.648 270.871 188.512 270.871 188.512L270.801 200.161Z" fill="#F07875"/>
<path d="M252.87 160.931C253.854 181.663 260.089 195.664 281.218 194.304C297.622 193.223 310.848 175.612 310.883 163.651C320.016 161.035 322.703 149.823 316.609 145.516C311.989 142.238 307.212 147.382 303.102 147.069C300.134 146.842 299.589 142.518 293.442 135.281C285.556 125.953 271.365 124.104 261.828 131.794C249.551 141.872 252.87 160.931 252.87 160.931Z" fill="#FCA190"/>
<path d="M267.854 175.092C266.2 173.34 267.238 171.676 269.068 171.045C275.228 168.925 280.491 167.138 282.357 167.786C286.123 169.345 281.565 175.635 276.637 177.37C275.11 177.893 273.462 177.955 271.9 177.55C270.338 177.145 268.93 176.29 267.854 175.092Z" fill="white"/>
<path d="M273.186 163.354C273.047 163.378 272.904 163.378 272.765 163.354C270.714 163.071 269.26 162.705 268.822 161.691C268.383 160.677 268.822 159.846 269.382 158.965C270.029 157.999 270.441 156.909 270.592 155.774C270.604 155.636 270.645 155.502 270.713 155.38C270.78 155.257 270.872 155.149 270.983 155.06C271.095 154.971 271.223 154.904 271.362 154.863C271.501 154.821 271.647 154.806 271.792 154.818C271.937 154.83 272.078 154.869 272.207 154.932C272.337 154.996 272.451 155.084 272.545 155.189C272.638 155.295 272.709 155.417 272.753 155.549C272.797 155.68 272.813 155.819 272.8 155.956C272.636 157.385 272.132 158.761 271.328 159.979C271.165 160.231 271.019 160.492 270.89 160.76C271.592 161.019 272.33 161.182 273.08 161.242C273.224 161.261 273.363 161.306 273.488 161.375C273.614 161.445 273.724 161.537 273.812 161.646C273.9 161.756 273.964 161.881 274.001 162.014C274.038 162.147 274.047 162.286 274.027 162.423C274.005 162.641 273.912 162.848 273.762 163.014C273.611 163.181 273.41 163.3 273.186 163.354Z" fill="#F07875"/>
<path d="M256.239 146.757C256.081 148.93 263.794 147.488 264.586 145.903C265.378 144.318 264.586 143.321 261.064 143.641C258.388 143.89 256.398 145.351 256.239 146.757Z" fill="#171B4D"/>
<path d="M281.639 143.072C280.856 145.478 289.429 145.944 291.011 143.88C291.954 142.659 290.549 141.331 287.117 140.954C284.396 140.666 282.066 141.743 281.639 143.072Z" fill="#171B4D"/>
<path d="M294.503 152.168C294.363 151.761 293.048 152.039 291.855 152.298C290.663 152.557 288.628 149.468 284.665 150.929C281.298 152.168 280.772 154.979 281.158 155.312C281.543 155.645 285.384 153.611 287.786 154.054C289.54 154.387 290.031 155.146 291.557 154.905C292.399 154.757 294.836 153.111 294.503 152.168Z" fill="#171B4D"/>
<path d="M262.655 161.176C264.546 160.797 265.74 158.599 265.324 156.267C264.907 153.934 263.037 152.351 261.146 152.731C259.256 153.11 258.061 155.308 258.477 157.64C258.894 159.972 260.765 161.556 262.655 161.176Z" fill="#171B4D"/>
<path d="M180.108 198.772C179.257 191.276 166.581 179.456 173.017 168.926C173.729 167.604 174.738 166.459 175.966 165.577C177.195 164.696 178.611 164.1 180.108 163.835C180.418 163.851 180.727 163.802 181.017 163.691C181.306 163.58 181.568 163.411 181.785 163.193C182.003 162.976 182.171 162.716 182.28 162.43C182.388 162.144 182.433 161.839 182.413 161.534C182.129 152.573 174.275 135.471 179.789 135.559C184.859 135.663 189.398 153.201 190.568 157.385C191.738 161.569 192.145 163.19 192.979 163.242C198.297 164.149 189.078 138.034 194.486 137.285C198.971 137.023 198.758 141.939 205.123 167.549C209.324 173.424 208.278 180.537 207.587 188.678C206.966 193.333 201.01 257.766 199.84 263.45C195.23 285.73 166.705 285.24 164.117 263.45C162.362 253.39 180.959 206.251 180.108 198.772Z" fill="#FCA190"/>
<path d="M193.319 179.419C193.095 179.419 192.88 179.334 192.718 179.18C192.556 179.027 192.461 178.818 192.452 178.596C191.867 167.904 186.059 166.346 182.589 165.454C182.093 165.314 181.668 165.209 181.314 165.086C181.091 165.007 180.908 164.844 180.807 164.633C180.706 164.421 180.694 164.178 180.774 163.958C180.854 163.737 181.019 163.557 181.233 163.457C181.447 163.357 181.693 163.345 181.916 163.424C182.288 163.554 182.666 163.665 183.049 163.756C186.467 164.666 193.567 166.539 194.205 178.491C194.212 178.606 194.196 178.721 194.158 178.83C194.12 178.939 194.061 179.04 193.983 179.126C193.906 179.212 193.812 179.282 193.707 179.332C193.603 179.383 193.489 179.412 193.372 179.419H193.319Z" fill="#F07875"/>
<path d="M191.776 184.767C190.582 184.688 189.456 184.195 188.603 183.377C185.924 181.198 181.852 181.661 178.926 182.828C178.817 182.884 178.698 182.918 178.575 182.926C178.453 182.935 178.33 182.918 178.214 182.878C178.098 182.837 177.993 182.773 177.904 182.691C177.815 182.608 177.745 182.508 177.698 182.398C177.651 182.287 177.629 182.168 177.632 182.048C177.635 181.929 177.663 181.811 177.716 181.703C177.768 181.595 177.844 181.499 177.937 181.421C178.03 181.343 178.138 181.284 178.256 181.249C179.913 180.58 185.624 178.692 189.731 182.073C190.807 182.948 191.741 183.24 192.287 182.914C192.603 182.605 192.822 182.215 192.915 181.789C193.009 181.362 192.975 180.919 192.816 180.511C192.58 179.291 192.041 178.147 191.245 177.177C190.449 176.208 189.421 175.443 188.251 174.951C186.102 174.392 183.881 174.138 181.658 174.196C179.368 174.185 177.096 174.592 174.96 175.397C174.856 175.446 174.743 175.474 174.628 175.48C174.512 175.485 174.397 175.468 174.289 175.43C174.18 175.391 174.081 175.332 173.996 175.256C173.912 175.18 173.844 175.087 173.796 174.985C173.746 174.882 173.716 174.772 173.71 174.658C173.704 174.545 173.722 174.431 173.761 174.324C173.8 174.217 173.861 174.119 173.94 174.035C174.018 173.951 174.113 173.883 174.219 173.835C176.581 172.924 179.1 172.463 181.64 172.479C184.056 172.396 186.471 172.68 188.797 173.32C190.251 173.89 191.536 174.803 192.536 175.978C193.537 177.152 194.22 178.551 194.526 180.048C194.796 180.807 194.818 181.63 194.587 182.401C194.357 183.173 193.886 183.856 193.239 184.355C192.803 184.628 192.294 184.771 191.776 184.767Z" fill="#F07875"/>
<path d="M204.455 173.476C200.105 172.929 191.048 166.426 189.159 168.647C187.893 170.109 187.198 172.172 192.724 177.107L204.098 185.302" fill="#FCA190"/>
<path d="M204.31 185.835C204.119 185.839 203.932 185.777 203.781 185.66L192.516 177.519C187.678 173.177 186.636 170.393 188.825 167.837C190.362 166.086 193.963 167.837 198.13 169.763C200.214 170.906 202.44 171.772 204.752 172.337C204.985 172.367 205.196 172.487 205.341 172.67C205.487 172.853 205.554 173.086 205.529 173.317C205.498 173.547 205.377 173.755 205.191 173.896C205.006 174.037 204.772 174.1 204.54 174.07C202.034 173.493 199.622 172.574 197.371 171.339C194.934 170.166 190.838 168.205 190.167 168.975C189.496 169.746 188.19 171.286 193.699 176.171L204.893 184.259C205.078 184.396 205.202 184.598 205.238 184.824C205.274 185.05 205.22 185.281 205.087 185.467C205.001 185.59 204.885 185.689 204.748 185.754C204.612 185.818 204.461 185.846 204.31 185.835Z" fill="#F07875"/>
<g clip-path="url(#clip6_30_10889)">
<rect x="155.848" y="57.392" width="17.696" height="17.696" rx="8.848" fill="#CA88F2"/>
<circle cx="164.637" cy="66.299" r="7.01941" fill="#FFD91F"/>
<path d="M160.448 73.3537C159.529 73.7831 156.438 74.0882 156.438 78.3139H156.978H172.532H173.046C173.046 74.628 169.895 73.5839 168.843 73.3537C168.095 73.137 167.173 72.7286 166.937 72.4926C166.607 71.6904 166.603 70.5854 166.643 70.1332C165.423 70.2512 162.95 70.4871 162.808 70.4871C162.856 71.6196 162.71 72.1957 162.631 72.3422C162.112 72.7183 160.959 73.1732 160.448 73.3537Z" fill="#FCA190"/>
<path d="M162.836 71.2269C164.162 71.7973 166.533 70.6647 165.569 70.7264C164.605 70.7881 162.818 70.2659 162.818 70.2659C162.884 70.5593 162.836 71.2269 162.836 71.2269Z" fill="#F07875"/>
<path d="M162.621 61.757C160.45 62.9839 160.812 65.2962 161.264 66.299H167.929C169.109 63.8923 167.556 62.2682 166.632 61.757C166.584 61.3323 166.101 60.9509 165.865 60.8132C165.747 60.538 165.322 59.9874 164.567 59.9874C163.812 59.9874 163.466 60.538 163.387 60.8132C162.915 61.002 162.68 61.5211 162.621 61.757Z" fill="#181B50"/>
<path d="M161.893 66.1811C161.987 66.0395 161.952 63.8806 164.606 63.8806C167.261 63.8806 167.261 66.1811 167.261 66.1811C167.615 65.9845 168.311 65.8744 168.264 67.0069C168.205 68.4226 168.146 68.7175 168.264 69.3664C168.382 70.0152 168.264 70.7821 167.615 70.7821C166.966 70.7821 166.879 70.2905 166.807 70.0742C166.389 70.6623 165.705 71.077 164.606 71.077C163.508 71.077 162.819 70.6623 162.394 70.0742C162.365 70.3298 162.164 70.8292 161.598 70.7821C160.89 70.7231 160.89 70.0152 161.008 69.0714C161.126 68.1277 160.831 67.7737 160.949 66.712C161.044 65.8626 161.618 66.0041 161.893 66.1811Z" fill="#FCA190"/>
<path d="M166.937 72.4926C164.389 74.852 158.384 75.3043 156.792 75.4419L156.556 75.9728L170.772 75.9138H172.128C171.892 73.5543 169.238 73.8492 166.937 72.4926Z" fill="#FE007E"/>
<path d="M167.763 66.8446C167.81 66.4671 167.508 66.4513 167.35 66.4906C167.586 67.1985 167.37 68.4372 167.232 68.9681C167.586 69.0861 167.763 68.6142 167.704 68.2013C167.645 67.7884 167.704 67.3165 167.763 66.8446Z" fill="#F07875"/>
<path d="M161.398 66.8446C161.351 66.4671 161.653 66.4513 161.811 66.4906C161.575 67.1985 161.791 68.4372 161.929 68.9681C161.575 69.0861 161.398 68.6142 161.457 68.2013C161.516 67.7884 161.457 67.3165 161.398 66.8446Z" fill="#F07875"/>
<circle cx="164.578" cy="65.1783" r="0.35392" fill="#F07875"/>
<path d="M166.517 66.9875C166.187 67.0004 165.749 66.9782 165.572 66.9654C165.039 66.9272 165.588 67.378 166.062 67.4185C166.536 67.459 166.93 66.9714 166.517 66.9875Z" fill="#171B4D"/>
<path d="M162.645 67.0206C162.975 67.0376 163.413 67.0208 163.591 67.0103C164.124 66.9787 163.57 67.4226 163.095 67.4572C162.621 67.4918 162.233 66.9993 162.645 67.0206Z" fill="#171B4D"/>
<path d="M163.646 65.5479C164.006 65.824 162.81 66.0467 162.612 65.8129C162.489 65.6702 162.73 65.5067 163.049 65.458C163.299 65.4208 163.548 65.45 163.646 65.5479Z" fill="#171B4D"/>
<path d="M165.491 65.5109C165.11 65.7564 166.284 66.0766 166.5 65.8599C166.634 65.7277 166.408 65.545 166.094 65.4703C165.848 65.4068 165.594 65.4177 165.491 65.5109Z" fill="#171B4D"/>
<path d="M164.663 68.2515C164.682 68.252 164.701 68.2487 164.719 68.2418C164.736 68.235 164.753 68.2247 164.766 68.2116C164.78 68.1985 164.791 68.1828 164.799 68.1654C164.806 68.148 164.811 68.1293 164.811 68.1103C164.812 68.0913 164.808 68.0723 164.801 68.0546C164.795 68.0369 164.784 68.0207 164.771 68.0069C164.758 67.9932 164.742 67.9821 164.725 67.9744C164.708 67.9667 164.689 67.9626 164.67 67.9621C164.591 67.9575 164.513 67.9448 164.437 67.924C164.446 67.9005 164.462 67.8694 164.474 67.8444C164.561 67.6898 164.611 67.5177 164.621 67.341C164.622 67.322 164.619 67.3031 164.612 67.2852C164.605 67.2674 164.595 67.2511 164.582 67.2372C164.569 67.2233 164.554 67.2121 164.536 67.2042C164.519 67.1964 164.5 67.192 164.481 67.1913C164.462 67.1907 164.443 67.1938 164.426 67.2005C164.408 67.2072 164.392 67.2173 164.378 67.2303C164.364 67.2433 164.353 67.2589 164.345 67.2762C164.337 67.2935 164.332 67.3122 164.332 67.3312C164.323 67.4668 164.283 67.5986 164.215 67.7163C164.159 67.8313 164.1 67.9494 164.167 68.0666C164.234 68.1839 164.4 68.2276 164.644 68.2494L164.663 68.2515Z" fill="#F07875"/>
<path d="M165.193 68.8778C165.233 68.9878 164.955 69.3126 164.557 69.3132C164.077 69.315 163.781 69.0138 163.895 68.863C163.955 68.7843 164.29 68.8992 164.56 68.9013C164.888 68.8989 165.166 68.7994 165.193 68.8778Z" fill="#F07875"/>
</g>
<path d="M302.466 69.436H303.572V63.2642H305.809V62.3112H300.225V63.2642H302.466V69.436ZM306.972 71.2234H308.043V68.5868H308.122C308.409 69.1645 309.036 69.5249 309.771 69.5249C311.134 69.5249 311.993 68.4584 311.993 66.7599V66.75C311.993 65.0614 311.124 63.9801 309.771 63.9801C309.021 63.9801 308.433 64.3307 308.122 64.9182H308.043V64.0739H306.972V71.2234ZM309.47 68.6115C308.577 68.6115 308.024 67.9054 308.024 66.7599V66.75C308.024 65.6045 308.577 64.8985 309.47 64.8985C310.364 64.8985 310.902 65.5947 310.902 66.75V66.7599C310.902 67.9103 310.364 68.6115 309.47 68.6115ZM315.531 69.5397C316.904 69.5397 317.644 68.7497 317.822 68.0437L317.832 67.9992L316.8 68.0042L316.78 68.0437C316.652 68.3202 316.242 68.6608 315.556 68.6608C314.672 68.6608 314.109 68.0634 314.089 67.0364H317.891V66.6612C317.891 65.0515 316.973 63.9702 315.477 63.9702C313.981 63.9702 313.013 65.091 313.013 66.7648V66.7698C313.013 68.4683 313.961 69.5397 315.531 69.5397ZM315.482 64.8491C316.208 64.8491 316.746 65.3132 316.83 66.2711H314.104C314.198 65.3478 314.751 64.8491 315.482 64.8491ZM322.664 69.436H323.73V64.0739H322.664V66.2365H320.229V64.0739H319.158V69.436H320.229V67.0858H322.664V69.436ZM325.604 70.8432V69.436H329.598V70.8432H330.581V68.5818H329.742V64.0739H325.871L325.673 66.9623C325.624 67.6832 325.446 68.3399 325.051 68.5818H324.616V70.8432H325.604ZM328.675 68.5818H326.226V68.4979C326.468 68.1671 326.596 67.624 326.646 67.0068L326.794 64.9281H328.675V68.5818ZM331.556 69.436H333.679C334.924 69.436 335.718 68.7201 335.718 67.5894V67.5795C335.718 66.4538 334.924 65.7378 333.679 65.7378H332.628V64.0739H331.556V69.436ZM336.622 69.436H337.693V64.0739H336.622V69.436ZM333.59 66.5822C334.232 66.5822 334.642 66.9772 334.642 67.5795V67.5894C334.642 68.1868 334.237 68.5917 333.59 68.5917H332.628V66.5822H333.59Z" fill="white" fill-opacity="0.6"/>
<path d="M245.553 69.436V62.3112H239.756V69.436H240.862V63.2642H244.447V69.436H245.553ZM249.485 69.5397C251.056 69.5397 252.018 68.488 252.018 66.7599V66.75C252.018 65.0219 251.051 63.9702 249.485 63.9702C247.915 63.9702 246.948 65.0268 246.948 66.75V66.7599C246.948 68.488 247.91 69.5397 249.485 69.5397ZM249.485 68.646C248.562 68.646 248.044 67.9498 248.044 66.7599V66.75C248.044 65.5601 248.562 64.8639 249.485 64.8639C250.404 64.8639 250.927 65.5601 250.927 66.75V66.7599C250.927 67.9449 250.404 68.646 249.485 68.646ZM253.576 70.8432V69.436H257.571V70.8432H258.553V68.5818H257.714V64.0739H253.843L253.645 66.9623C253.596 67.6832 253.418 68.3399 253.023 68.5818H252.589V70.8432H253.576ZM256.647 68.5818H254.198V68.4979C254.44 68.1671 254.569 67.624 254.618 67.0068L254.766 64.9281H256.647V68.5818ZM259.528 69.436H260.6V64.9182H262.985V69.436H264.051V64.0739H259.528V69.436ZM265.579 69.436H266.641L269.065 65.6588H269.159V69.436H270.221V64.0739H269.159L266.735 67.8363H266.641V64.0739H265.579V69.436ZM274.02 69.5397C275.348 69.5397 276.114 68.8238 276.306 67.782L276.316 67.7375H275.289L275.279 67.7622C275.106 68.3399 274.692 68.646 274.02 68.646C273.136 68.646 272.588 67.9252 272.588 66.7402V66.7303C272.588 65.5749 273.127 64.8639 274.02 64.8639C274.731 64.8639 275.166 65.2589 275.284 65.7872L275.289 65.802L276.316 65.7971V65.7724C276.168 64.7306 275.363 63.9702 274.015 63.9702C272.45 63.9702 271.497 65.0318 271.497 66.7303V66.7402C271.497 68.4732 272.455 69.5397 274.02 69.5397ZM278.866 67.066L280.787 69.436H282.11L279.735 66.5723L282.012 64.0739H280.762L278.862 66.2662H278.595V64.0739H277.523V69.436H278.595V67.066H278.866ZM283.14 69.436H284.202L286.626 65.6588H286.72V69.436H287.781V64.0739H286.72L284.295 67.8363H284.202V64.0739H283.14V69.436Z" fill="white" fill-opacity="0.6"/>
<rect x="190.608" y="75.088" width="35.392" height="1.264" rx="0.632" fill="white"/>
<path d="M190.023 71.0112V69.604H195.128V71.0112H196.145V68.6511H195.256V62.4792H190.531L190.269 66.7995C190.215 67.7426 190.037 68.3499 189.529 68.6511H189.01V71.0112H190.023ZM191.296 66.8538L191.514 63.4321H194.15V68.6511H190.818V68.5819C191.148 68.182 191.247 67.6438 191.296 66.8538ZM198.779 67.3772L198.952 65.0862H200.646V69.604H201.717V64.2419H198.014L197.807 67.2933C197.757 68.0734 197.575 68.6955 197.081 68.6955C196.948 68.6955 196.814 68.6758 196.765 68.6609V69.5941C196.839 69.6188 196.992 69.6534 197.194 69.6534C198.207 69.6534 198.671 68.893 198.779 67.3772ZM206.149 69.604H207.205V64.2419H205.141C203.902 64.2419 203.092 64.9282 203.092 66.0391V66.049C203.092 66.7798 203.547 67.3525 204.287 67.5648L202.821 69.604H204.055L205.359 67.7475H206.149V69.604ZM205.196 66.9279C204.559 66.9279 204.169 66.5526 204.169 66.0391V66.0293C204.169 65.4417 204.554 65.0813 205.196 65.0813H206.149V66.9279H205.196ZM211.402 69.604H213.851C215.031 69.604 215.737 68.9918 215.737 68.0734V68.0635C215.737 67.4266 215.283 66.9427 214.587 66.8588V66.7748C215.115 66.6761 215.496 66.1774 215.496 65.6293V65.6194C215.496 64.785 214.878 64.2419 213.827 64.2419H211.402V69.604ZM212.464 66.4884V65.0269H213.609C214.177 65.0269 214.439 65.3183 214.439 65.7478V65.7577C214.439 66.2317 214.138 66.4884 213.496 66.4884H212.464ZM212.464 68.814V67.2587H213.575C214.291 67.2587 214.641 67.5056 214.641 68.024V68.0339C214.641 68.5276 214.33 68.814 213.713 68.814H212.464ZM218.505 69.6929C219.216 69.6929 219.779 69.3868 220.095 68.8436H220.179V69.604H221.24V65.9354C221.24 64.8097 220.48 64.1382 219.132 64.1382C217.913 64.1382 217.068 64.7258 216.94 65.6046L216.935 65.6392H217.967L217.972 65.6194C218.1 65.2393 218.49 65.022 219.083 65.022C219.809 65.022 220.179 65.3479 220.179 65.9354V66.4094L218.727 66.4934C217.448 66.5724 216.728 67.1303 216.728 68.0882V68.0981C216.728 69.0708 217.483 69.6929 218.505 69.6929ZM217.794 68.0536V68.0438C217.794 67.5599 218.13 67.2933 218.87 67.2488L220.179 67.1649V67.6241C220.179 68.3153 219.591 68.8387 218.791 68.8387C218.214 68.8387 217.794 68.5474 217.794 68.0536ZM225.005 69.7077C226.334 69.7077 227.099 68.9918 227.291 67.9499L227.301 67.9055H226.274L226.264 67.9302C226.092 68.5079 225.677 68.814 225.005 68.814C224.122 68.814 223.573 68.0931 223.573 66.9081V66.8983C223.573 65.7429 224.112 65.0319 225.005 65.0319C225.716 65.0319 226.151 65.4269 226.269 65.9552L226.274 65.97L227.301 65.9651V65.9404C227.153 64.8986 226.348 64.1382 225 64.1382C223.435 64.1382 222.482 65.1998 222.482 66.8983V66.9081C222.482 68.6412 223.44 69.7077 225.005 69.7077Z" fill="white"/>
<g clip-path="url(#clip7_30_10889)">
<path fill-rule="evenodd" clip-rule="evenodd" d="M365.672 59.92C362.531 59.92 359.984 62.4666 359.984 65.608C359.984 68.7495 362.531 71.296 365.672 71.296C367.015 71.296 368.249 70.8306 369.222 70.0522L372.177 73.0069C372.424 73.2537 372.824 73.2537 373.071 73.0069C373.318 72.7601 373.318 72.36 373.071 72.1132L370.116 69.1584C370.895 68.1853 371.36 66.951 371.36 65.608C371.36 62.4666 368.813 59.92 365.672 59.92ZM365.672 61.184C363.229 61.184 361.248 63.1647 361.248 65.608C361.248 68.0514 363.229 70.032 365.672 70.032C368.115 70.032 370.096 68.0514 370.096 65.608C370.096 63.1647 368.115 61.184 365.672 61.184Z" fill="white"/>
</g>
<g filter="url(#filter0_d_30_10889)">
<mask id="path-58-outside-1_30_10889" maskUnits="userSpaceOnUse" x="350.979" y="261.371" width="17" height="17" fill="black">
<rect fill="white" x="350.979" y="261.371" width="17" height="17"/>
<path d="M354.712 262.587L366.509 274.384C366.797 274.672 366.797 275.139 366.509 275.427C366.212 275.724 365.744 275.704 365.467 275.427L362.301 272.262V275.643C362.301 276.457 361.641 277.117 360.827 277.117C360.149 277.117 359.518 276.851 359.047 276.38L355.36 272.693H353.791C352.779 272.693 351.979 271.869 351.979 270.881V268.607C351.979 267.595 352.804 266.795 353.791 266.795H355.36L356.097 266.057L353.669 263.629C353.372 263.332 353.4 262.856 353.669 262.587C353.952 262.304 354.424 262.299 354.712 262.587ZM357.14 267.101L356.187 268.053C356.043 268.197 355.85 268.269 355.665 268.269H353.791C353.595 268.269 353.453 268.428 353.453 268.607V270.881C353.453 271.077 353.617 271.219 353.791 271.219H355.665C355.868 271.219 356.056 271.304 356.187 271.435L360.089 275.337C360.29 275.538 360.562 275.643 360.827 275.643V270.787L357.14 267.101ZM360.827 262.371C361.653 262.371 362.301 263.033 362.301 263.845V266.795C362.301 267.202 361.971 267.532 361.564 267.532C361.157 267.532 360.827 267.202 360.827 266.795V263.845C360.543 263.845 360.29 263.951 360.089 264.151L359.505 264.736C358.819 265.297 357.88 264.444 358.463 263.694C358.463 263.694 358.996 263.158 359.047 263.108C359.519 262.636 360.159 262.371 360.827 262.371Z"/>
</mask>
<path d="M354.712 262.587L366.509 274.384C366.797 274.672 366.797 275.139 366.509 275.427C366.212 275.724 365.744 275.704 365.467 275.427L362.301 272.262V275.643C362.301 276.457 361.641 277.117 360.827 277.117C360.149 277.117 359.518 276.851 359.047 276.38L355.36 272.693H353.791C352.779 272.693 351.979 271.869 351.979 270.881V268.607C351.979 267.595 352.804 266.795 353.791 266.795H355.36L356.097 266.057L353.669 263.629C353.372 263.332 353.4 262.856 353.669 262.587C353.952 262.304 354.424 262.299 354.712 262.587ZM357.14 267.101L356.187 268.053C356.043 268.197 355.85 268.269 355.665 268.269H353.791C353.595 268.269 353.453 268.428 353.453 268.607V270.881C353.453 271.077 353.617 271.219 353.791 271.219H355.665C355.868 271.219 356.056 271.304 356.187 271.435L360.089 275.337C360.29 275.538 360.562 275.643 360.827 275.643V270.787L357.14 267.101ZM360.827 262.371C361.653 262.371 362.301 263.033 362.301 263.845V266.795C362.301 267.202 361.971 267.532 361.564 267.532C361.157 267.532 360.827 267.202 360.827 266.795V263.845C360.543 263.845 360.29 263.951 360.089 264.151L359.505 264.736C358.819 265.297 357.88 264.444 358.463 263.694C358.463 263.694 358.996 263.158 359.047 263.108C359.519 262.636 360.159 262.371 360.827 262.371Z" fill="white"/>
<path d="M354.712 262.587L354.935 262.363L354.935 262.363L354.712 262.587ZM366.509 274.384L366.733 274.161L366.509 274.384ZM366.509 275.427L366.733 275.65L366.509 275.427ZM365.467 275.427L365.69 275.203L365.69 275.203L365.467 275.427ZM362.301 272.262L362.525 272.039L361.985 271.499V272.262H362.301ZM359.047 276.38L359.27 276.157L359.047 276.38ZM355.36 272.693L355.583 272.47L355.491 272.377H355.36V272.693ZM355.36 266.795V267.111H355.491L355.583 267.018L355.36 266.795ZM356.097 266.057L356.32 266.281L356.543 266.057L356.32 265.834L356.097 266.057ZM353.669 263.629L353.893 263.406L353.893 263.406L353.669 263.629ZM353.669 262.587L353.446 262.363L353.669 262.587ZM357.14 267.101L357.363 266.877L357.14 266.654L356.917 266.877L357.14 267.101ZM356.187 268.053L355.963 267.83L355.963 267.83L356.187 268.053ZM356.187 271.435L355.963 271.658H355.963L356.187 271.435ZM360.089 275.337L360.313 275.114L360.089 275.337ZM360.827 275.643V275.959H361.143V275.643H360.827ZM360.827 270.787H361.143V270.656L361.05 270.564L360.827 270.787ZM360.827 263.845H361.143V263.529H360.827V263.845ZM360.089 264.151L359.866 263.927L359.866 263.928L360.089 264.151ZM359.505 264.736L359.705 264.981L359.718 264.971L359.729 264.959L359.505 264.736ZM358.463 263.694L358.239 263.471L358.226 263.485L358.214 263.5L358.463 263.694ZM359.047 263.108L358.823 262.885L358.823 262.885L359.047 263.108ZM354.489 262.81L366.286 274.607L366.733 274.161L354.935 262.363L354.489 262.81ZM366.286 274.607C366.45 274.772 366.45 275.039 366.286 275.203L366.733 275.65C367.144 275.239 367.144 274.572 366.733 274.161L366.286 274.607ZM365.69 275.203L362.525 272.039L362.078 272.486L365.243 275.65L365.69 275.203ZM361.985 272.262V275.643H362.617V272.262H361.985ZM361.985 275.643C361.985 276.283 361.467 276.801 360.827 276.801V277.433C361.816 277.433 362.617 276.632 362.617 275.643H361.985ZM359.27 276.157L355.583 272.47L355.136 272.917L358.823 276.604L359.27 276.157ZM355.36 272.377H353.791V273.009H355.36V272.377ZM352.295 270.881V268.607H351.663V270.881H352.295ZM353.791 267.111H355.36V266.479H353.791V267.111ZM355.583 267.018L356.32 266.281L355.873 265.834L355.136 266.571L355.583 267.018ZM356.32 265.834L353.893 263.406L353.446 263.853L355.873 266.281L356.32 265.834ZM356.917 266.877L355.963 267.83L356.41 268.277L357.363 267.324L356.917 266.877ZM355.665 267.953H353.791V268.585H355.665V267.953ZM353.137 268.607V270.881H353.769V268.607H353.137ZM353.791 271.535H355.665V270.903H353.791V271.535ZM355.963 271.658L359.866 275.561L360.313 275.114L356.41 271.211L355.963 271.658ZM361.143 275.643V270.787H360.511V275.643H361.143ZM361.05 270.564L357.363 266.877L356.917 267.324L360.603 271.011L361.05 270.564ZM361.985 263.845V266.795H362.617V263.845H361.985ZM361.985 266.795C361.985 267.027 361.797 267.216 361.564 267.216V267.848C362.146 267.848 362.617 267.376 362.617 266.795H361.985ZM361.564 267.216C361.331 267.216 361.143 267.027 361.143 266.795H360.511C360.511 267.376 360.982 267.848 361.564 267.848V267.216ZM361.143 266.795V263.845H360.511V266.795H361.143ZM359.866 263.928L359.282 264.513L359.729 264.959L360.313 264.374L359.866 263.928ZM359.27 263.332C359.683 262.919 360.243 262.687 360.827 262.687V262.055C360.075 262.055 359.354 262.353 358.823 262.885L359.27 263.332ZM353.893 263.406C353.726 263.24 353.739 262.964 353.893 262.81L353.446 262.363C353.061 262.748 353.017 263.424 353.446 263.853L353.893 263.406ZM353.893 262.81C354.053 262.65 354.326 262.647 354.489 262.81L354.935 262.363C354.522 261.95 353.85 261.959 353.446 262.363L353.893 262.81ZM352.295 268.607C352.295 267.773 352.976 267.111 353.791 267.111V266.479C352.632 266.479 351.663 267.418 351.663 268.607H352.295ZM353.791 272.377C352.957 272.377 352.295 271.697 352.295 270.881H351.663C351.663 272.04 352.602 273.009 353.791 273.009V272.377ZM360.827 276.801C360.233 276.801 359.682 276.569 359.27 276.157L358.823 276.604C359.353 277.133 360.064 277.433 360.827 277.433V276.801ZM366.286 275.203C366.117 275.372 365.85 275.363 365.69 275.203L365.243 275.65C365.639 276.046 366.306 276.077 366.733 275.65L366.286 275.203ZM355.963 267.83C355.882 267.911 355.771 267.953 355.665 267.953V268.585C355.93 268.585 356.205 268.482 356.41 268.277L355.963 267.83ZM353.791 267.953C353.41 267.953 353.137 268.264 353.137 268.607H353.769C353.769 268.601 353.772 268.594 353.776 268.591C353.778 268.589 353.779 268.588 353.781 268.587C353.782 268.587 353.785 268.585 353.791 268.585V267.953ZM353.137 270.881C353.137 271.266 353.457 271.535 353.791 271.535V270.903C353.791 270.903 353.788 270.903 353.785 270.901C353.781 270.9 353.778 270.898 353.775 270.895C353.773 270.892 353.771 270.89 353.771 270.889C353.77 270.888 353.769 270.885 353.769 270.881H353.137ZM355.665 271.535C355.78 271.535 355.889 271.584 355.963 271.658L356.41 271.211C356.223 271.024 355.956 270.903 355.665 270.903V271.535ZM359.866 275.561C360.128 275.823 360.481 275.959 360.827 275.959V275.327C360.642 275.327 360.452 275.253 360.313 275.114L359.866 275.561ZM358.463 263.694C358.687 263.917 358.687 263.917 358.687 263.917C358.687 263.917 358.687 263.917 358.687 263.917C358.687 263.917 358.687 263.917 358.687 263.917C358.687 263.917 358.687 263.917 358.688 263.917C358.688 263.916 358.688 263.916 358.689 263.915C358.69 263.914 358.691 263.913 358.693 263.911C358.697 263.907 358.703 263.901 358.71 263.894C358.725 263.879 358.746 263.858 358.771 263.832C358.822 263.781 358.89 263.713 358.96 263.643C359.1 263.502 359.245 263.356 359.27 263.331L358.823 262.885C358.798 262.91 358.651 263.057 358.512 263.197C358.442 263.267 358.374 263.336 358.323 263.387C358.298 263.412 358.277 263.433 358.262 263.448C358.255 263.455 358.249 263.461 358.245 263.465C358.243 263.467 358.242 263.469 358.241 263.47C358.24 263.47 358.24 263.471 358.24 263.471C358.239 263.471 358.239 263.471 358.239 263.471C358.239 263.471 358.239 263.471 358.239 263.471C358.239 263.471 358.239 263.471 358.239 263.471C358.239 263.471 358.239 263.471 358.463 263.694ZM359.305 264.491C359.1 264.659 358.873 264.618 358.727 264.478C358.587 264.345 358.528 264.126 358.713 263.888L358.214 263.5C357.816 264.013 357.934 264.595 358.29 264.935C358.639 265.269 359.224 265.374 359.705 264.981L359.305 264.491ZM360.827 263.529C360.459 263.529 360.125 263.668 359.866 263.927L360.313 264.374C360.454 264.233 360.627 264.161 360.827 264.161V263.529ZM360.827 262.687C361.476 262.687 361.985 263.206 361.985 263.845H362.617C362.617 262.861 361.829 262.055 360.827 262.055V262.687Z" fill="black" fill-opacity="0.12" mask="url(#path-58-outside-1_30_10889)"/>
</g>
</g>
</g>
<path d="M195.383 22.353H191V9.60144H340.033V22.353H336.048C333.848 22.353 332.064 24.137 332.064 26.3378V27.5333C332.064 35.456 325.641 41.8787 317.718 41.8787H213.714C205.791 41.8787 199.368 35.456 199.368 27.5333V26.3378C199.368 24.137 197.584 22.353 195.383 22.353Z" fill="#222222"/>
<path d="M240.412 29.1272C240.412 27.8068 241.483 26.7363 242.803 26.7363H276.276C277.596 26.7363 278.667 27.8068 278.667 29.1272C278.667 30.4477 277.596 31.5181 276.276 31.5181H242.803C241.483 31.5181 240.412 30.4477 240.412 29.1272Z" fill="#3C3C3C"/>
<path d="M289.824 29.1272C289.824 30.4477 288.754 31.5181 287.433 31.5181C286.113 31.5181 285.042 30.4477 285.042 29.1272C285.042 27.8068 286.113 26.7363 287.433 26.7363C288.754 26.7363 289.824 27.8068 289.824 29.1272Z" fill="#3C3C3C"/>
</g>
<rect x="141.376" y="16.3758" width="250.248" height="527.248" rx="33.6242" stroke="#222222" stroke-width="12.7515"/>
</g>
<defs>
<filter id="filter0_d_30_10889" x="348.503" y="258.895" width="21.6987" height="21.6987" filterUnits="userSpaceOnUse" color-interpolation-filters="sRGB">
<feFlood flood-opacity="0" result="BackgroundImageFix"/>
<feColorMatrix in="SourceAlpha" type="matrix" values="0 0 0 0 0 0 0 0 0 0 0 0 0 0 0 0 0 0 127 0" result="hardAlpha"/>
<feOffset/>
<feGaussianBlur stdDeviation="1.58"/>
<feColorMatrix type="matrix" values="0 0 0 0 0 0 0 0 0 0 0 0 0 0 0 0 0 0 0.16 0"/>
<feBlend mode="normal" in2="BackgroundImageFix" result="effect1_dropShadow_30_10889"/>
<feBlend mode="normal" in="SourceGraphic" in2="effect1_dropShadow_30_10889" result="shape"/>
</filter>
<linearGradient id="paint0_linear_30_10889" x1="147" y1="142.575" x2="147" y2="49.808" gradientUnits="userSpaceOnUse">
<stop stop-opacity="0.01"/>
<stop offset="0.0921793" stop-opacity="0.0156863"/>
<stop offset="0.187638" stop-opacity="0.054902"/>
<stop offset="0.284759" stop-opacity="0.117647"/>
<stop offset="0.381924" stop-opacity="0.2"/>
<stop offset="0.477515" stop-opacity="0.290196"/>
<stop offset="0.569913" stop-opacity="0.392157"/>
<stop offset="0.6575" stop-opacity="0.501961"/>
<stop offset="0.738659" stop-opacity="0.607843"/>
<stop offset="0.811771" stop-opacity="0.709804"/>
<stop offset="0.875219" stop-opacity="0.8"/>
<stop offset="0.927383" stop-opacity="0.882353"/>
<stop offset="0.966647" stop-opacity="0.945098"/>
<stop offset="0.991392" stop-opacity="0.984314"/>
<stop offset="1"/>
</linearGradient>
<clipPath id="clip0_30_10889">
<rect width="534" height="272" fill="white"/>
</clipPath>
<clipPath id="clip1_30_10889">
<rect width="396" height="272" fill="white" transform="translate(69)"/>
</clipPath>
<clipPath id="clip2_30_10889">
<rect x="135" y="10" width="263" height="540" rx="40" fill="white"/>
</clipPath>
<clipPath id="clip3_30_10889">
<rect x="147" y="22" width="239" height="513" rx="8.848" fill="white"/>
</clipPath>
<clipPath id="clip4_30_10889">
<rect x="147" y="22" width="239" height="27.808" fill="white"/>
</clipPath>
<clipPath id="clip5_30_10889">
<rect x="147" y="49.808" width="239" height="432.92" rx="10.112" fill="white"/>
</clipPath>
<clipPath id="clip6_30_10889">
<rect x="155.848" y="57.392" width="17.696" height="17.696" rx="8.848" fill="white"/>
</clipPath>
<clipPath id="clip7_30_10889">
<rect width="17.696" height="17.696" fill="white" transform="translate(357.456 57.392)"/>
</clipPath>
</defs>
</svg>
