<svg width="534" height="272" viewBox="0 0 534 272" fill="none" xmlns="http://www.w3.org/2000/svg">
<g clip-path="url(#clip0_30_16589)">
<g clip-path="url(#clip1_30_16589)">
<path d="M274.876 113C364.481 113 409.283 113 437.119 140.837C461.725 165.442 464.581 203.302 464.913 273.642H69C69.3316 203.302 72.1879 165.442 96.793 140.837C124.63 113 169.432 113 259.036 113H274.876Z" fill="#0077FF"/>
</g>
<g clip-path="url(#clip2_30_16589)">
<rect x="135" y="10" width="263" height="540" rx="40" fill="white"/>
<g clip-path="url(#clip3_30_16589)">
<rect x="148" y="23" width="237" height="513.184" rx="8.848" fill="white"/>
<g clip-path="url(#clip4_30_16589)">
<g clip-path="url(#clip5_30_16589)">
<path d="M148 23H385V83.672H148V23Z" fill="white"/>
<path opacity="0.4" d="M360.668 36.5881C360.668 36.1404 360.668 35.8237 360.689 35.576C360.708 35.3321 360.746 35.1832 360.806 35.0662C360.927 34.8284 361.12 34.635 361.358 34.5138C361.475 34.4542 361.624 34.4165 361.868 34.3965C362.116 34.3763 362.432 34.3761 362.88 34.3761H371.728C372.176 34.3761 372.492 34.3763 372.74 34.3965C372.984 34.4165 373.133 34.4542 373.25 34.5138C373.488 34.635 373.681 34.8284 373.802 35.0662C373.862 35.1832 373.9 35.3321 373.92 35.576C373.94 35.8237 373.94 36.1404 373.94 36.5881V38.1681C373.94 38.6157 373.94 38.9325 373.92 39.1801C373.9 39.424 373.862 39.5729 373.802 39.6899C373.681 39.9277 373.488 40.1211 373.25 40.2423C373.133 40.3019 372.984 40.3397 372.74 40.3596C372.492 40.3798 372.176 40.3801 371.728 40.3801H362.88C362.432 40.3801 362.116 40.3798 361.868 40.3596C361.624 40.3397 361.475 40.3019 361.358 40.2423C361.12 40.1211 360.927 39.9277 360.806 39.6899C360.746 39.5729 360.708 39.424 360.689 39.1801C360.668 38.9325 360.668 38.6157 360.668 38.1681V36.5881Z" stroke="black" stroke-width="0.632"/>
<path opacity="0.4" fill-rule="evenodd" clip-rule="evenodd" d="M374.888 38.7203C375.433 38.58 375.836 38.0851 375.836 37.4962C375.836 36.9072 375.433 36.4123 374.888 36.272V38.7203Z" fill="black"/>
<rect x="361.616" y="35.324" width="11.376" height="4.108" rx="0.632" fill="black"/>
<path fill-rule="evenodd" clip-rule="evenodd" d="M352.345 35.3923C353.745 35.3923 355.092 35.9304 356.107 36.8954C356.183 36.9699 356.306 36.9689 356.381 36.8933L357.111 36.1559C357.15 36.1176 357.171 36.0656 357.17 36.0115C357.17 35.9574 357.148 35.9057 357.11 35.8677C354.446 33.3148 350.243 33.3148 347.579 35.8677C347.541 35.9056 347.519 35.9574 347.518 36.0115C347.518 36.0655 347.539 36.1175 347.577 36.1559L348.308 36.8933C348.383 36.9691 348.506 36.97 348.582 36.8954C349.597 35.9304 350.944 35.3923 352.345 35.3923ZM352.345 37.7911C353.114 37.7911 353.856 38.0771 354.426 38.5936C354.504 38.6669 354.625 38.6653 354.7 38.59L355.43 37.8527C355.469 37.814 355.49 37.7615 355.489 37.707C355.489 37.6525 355.466 37.6005 355.427 37.5626C353.69 35.9469 351.001 35.9469 349.264 37.5626C349.224 37.6005 349.202 37.6525 349.202 37.707C349.201 37.7616 349.222 37.814 349.261 37.8527L349.99 38.59C350.066 38.6653 350.187 38.6669 350.264 38.5936C350.834 38.0774 351.576 37.7915 352.345 37.7911ZM353.806 39.4052C353.808 39.4598 353.786 39.5125 353.747 39.5508L352.485 40.8247C352.448 40.8622 352.397 40.8832 352.345 40.8832C352.292 40.8832 352.242 40.8622 352.205 40.8247L350.942 39.5508C350.903 39.5125 350.882 39.4598 350.883 39.4051C350.884 39.3504 350.908 39.2987 350.948 39.262C351.754 38.5802 352.935 38.5802 353.741 39.262C353.782 39.2987 353.805 39.3505 353.806 39.4052Z" fill="black"/>
<path fill-rule="evenodd" clip-rule="evenodd" d="M344.341 34.7974C344.341 34.4484 344.058 34.1654 343.709 34.1654H343.077C342.728 34.1654 342.445 34.4484 342.445 34.7974V40.2747C342.445 40.6238 342.728 40.9067 343.077 40.9067H343.709C344.058 40.9067 344.341 40.6238 344.341 40.2747V34.7974ZM340.128 35.6401H340.76C341.109 35.6401 341.392 35.9231 341.392 36.2721V40.2748C341.392 40.6238 341.109 40.9068 340.76 40.9068H340.128C339.779 40.9068 339.496 40.6238 339.496 40.2748V36.2721C339.496 35.9231 339.779 35.6401 340.128 35.6401ZM337.811 37.1147H337.179C336.83 37.1147 336.547 37.3977 336.547 37.7467V40.2747C336.547 40.6238 336.83 40.9067 337.179 40.9067H337.811C338.16 40.9067 338.443 40.6238 338.443 40.2747V37.7467C338.443 37.3977 338.16 37.1147 337.811 37.1147ZM335.493 39.0107C335.493 38.6617 335.21 38.3787 334.861 38.3787H334.229C333.88 38.3787 333.597 38.6617 333.597 39.0107V40.2747C333.597 40.6238 333.88 40.9067 334.229 40.9067H334.861C335.21 40.9067 335.493 40.6238 335.493 40.2747V39.0107Z" fill="black"/>
<path d="M167.786 41.0565H168.981V34.377H167.791L166.046 35.6037V36.7285L167.708 35.5527H167.786V41.0565ZM170.647 41.0565H175.285V40.0659H172.263V39.9687L173.6 38.6726C174.818 37.5015 175.184 36.8998 175.184 36.1406V36.1267C175.184 35.0019 174.248 34.2104 172.948 34.2104C171.554 34.2104 170.582 35.0806 170.582 36.3258L170.587 36.3397L171.698 36.3443L171.703 36.3258C171.703 35.6361 172.179 35.1686 172.888 35.1686C173.582 35.1686 174.003 35.6129 174.003 36.2286V36.2425C174.003 36.7563 173.749 37.0942 172.841 38.0107L170.647 40.2511V41.0565ZM177.281 36.7285C177.706 36.7285 178.017 36.4045 178.017 35.9971C178.017 35.5852 177.706 35.2658 177.281 35.2658C176.859 35.2658 176.545 35.5852 176.545 35.9971C176.545 36.4045 176.859 36.7285 177.281 36.7285ZM177.281 40.1631C177.706 40.1631 178.017 39.8437 178.017 39.4318C178.017 39.0198 177.706 38.7004 177.281 38.7004C176.859 38.7004 176.545 39.0198 176.545 39.4318C176.545 39.8437 176.859 40.1631 177.281 40.1631ZM182.433 41.0565H183.576V39.7743H184.474V38.7884H183.576V34.377H181.887C180.979 35.7564 180.03 37.2932 179.165 38.7976V39.7743H182.433V41.0565ZM180.276 38.8161V38.7467C180.924 37.6126 181.697 36.3767 182.382 35.3306H182.451V38.8161H180.276ZM188.025 41.1908C189.561 41.1908 190.631 40.3946 190.631 39.2512V39.242C190.631 38.3856 190.01 37.7237 189.117 37.5432V37.5154C189.881 37.3117 190.39 36.7516 190.39 36.0342V36.0249C190.39 34.9973 189.409 34.2428 188.025 34.2428C186.641 34.2428 185.659 34.9973 185.659 36.0249V36.0342C185.659 36.7516 186.168 37.3117 186.932 37.5154V37.5432C186.043 37.7237 185.419 38.3856 185.419 39.242V39.2512C185.419 40.3946 186.488 41.1908 188.025 41.1908ZM188.025 37.1358C187.326 37.1358 186.84 36.7285 186.84 36.1452V36.136C186.84 35.5527 187.326 35.1454 188.025 35.1454C188.724 35.1454 189.21 35.5527 189.21 36.136V36.1452C189.21 36.7285 188.724 37.1358 188.025 37.1358ZM188.025 40.2789C187.224 40.2789 186.654 39.816 186.654 39.1726V39.1633C186.654 38.5152 187.215 38.0477 188.025 38.0477C188.83 38.0477 189.395 38.5152 189.395 39.1633V39.1726C189.395 39.816 188.825 40.2789 188.025 40.2789Z" fill="black"/>
<path fill-rule="evenodd" clip-rule="evenodd" d="M162.51 61.2236C162.866 61.5586 162.883 62.1185 162.548 62.4744L158.063 67.24L162.548 72.0055C162.883 72.3614 162.866 72.9214 162.51 73.2563C162.155 73.5912 161.595 73.5742 161.26 73.2184L156.204 67.8464C155.883 67.5057 155.883 66.9742 156.204 66.6335L161.26 61.2615C161.595 60.9057 162.155 60.8887 162.51 61.2236Z" fill="#3F8AE0"/>
<path d="M233.694 66.5797C234.53 66.3142 235.128 65.5975 235.128 64.5491C235.128 63.0228 233.774 61.9345 231.863 61.9345C230.19 61.9345 228.943 62.7706 228.385 64.35L229.885 64.6021C230.23 63.8722 230.894 63.3944 231.823 63.3944C232.792 63.3944 233.522 63.912 233.522 64.6685C233.522 65.4383 232.765 65.9559 231.703 65.9559H230.522V67.3494H231.703C233.084 67.3494 233.681 67.9334 233.681 68.6899C233.681 69.5526 232.977 70.0968 231.81 70.0968C230.721 70.0968 230.111 69.6322 229.686 68.7563L228.16 69.0084C228.545 70.5215 229.925 71.5567 231.823 71.5567C234.026 71.5567 235.313 70.3224 235.313 68.7563C235.313 67.5883 234.557 66.8717 233.694 66.5797ZM241.387 67.2433H238.295V64.5225H236.768V71.424H238.295V68.6368H241.387V71.424H242.913V64.5225H241.387V67.2433ZM247.449 64.3898C246.109 64.3898 244.928 65.0799 244.583 66.2744L245.989 66.5133C246.202 66.0886 246.68 65.6904 247.37 65.6904C248.206 65.6904 248.697 66.2877 248.763 67.1902H247.277C245.246 67.1902 244.238 68.0794 244.238 69.3535C244.238 70.6409 245.233 71.5567 246.64 71.5567C247.768 71.5567 248.524 70.9063 248.856 70.3356L249.175 71.424H250.303V67.5485C250.303 65.5445 249.215 64.3898 247.449 64.3898ZM246.998 70.2693C246.255 70.2693 245.777 69.8844 245.777 69.2872C245.777 68.7563 246.162 68.3847 247.33 68.3847H248.777C248.777 69.5128 248.06 70.2693 246.998 70.2693ZM258.25 71.424L255.078 67.8405L257.984 64.5225H256.166L253.857 67.2035H253.485V64.5225H251.959V71.424H253.485V68.6766H253.857L256.245 71.424H258.25ZM262.145 71.5567C264.309 71.5567 265.835 70.0702 265.835 67.9732C265.835 65.8763 264.309 64.3898 262.145 64.3898C259.982 64.3898 258.456 65.8763 258.456 67.9732C258.456 70.0702 259.982 71.5567 262.145 71.5567ZM262.145 70.1631C260.898 70.1631 260.048 69.2739 260.048 67.9732C260.048 66.6726 260.898 65.7834 262.145 65.7834C263.393 65.7834 264.242 66.6726 264.242 67.9732C264.242 69.2739 263.393 70.1631 262.145 70.1631ZM268.622 71.424V66.301H268.834L270.559 71.424H271.847L273.652 66.301H273.864V71.424H275.324V64.5225H273.001L271.342 69.2606H271.13L269.537 64.5225H267.162V71.424H268.622ZM280.25 71.5567C281.696 71.5567 283.063 70.8134 283.581 69.3668L282.147 69.1279C281.842 69.7384 281.165 70.1631 280.342 70.1631C279.108 70.1631 278.245 69.2606 278.245 67.9732C278.245 66.6858 279.108 65.7834 280.342 65.7834C281.139 65.7834 281.802 66.1948 282.094 66.792L283.528 66.5531C283.023 65.133 281.723 64.3898 280.25 64.3898C278.139 64.3898 276.653 65.8895 276.653 67.9732C276.653 70.0569 278.139 71.5567 280.25 71.5567ZM287.768 71.424V65.9161H290.157V64.5225H283.853V65.9161H286.242V71.424H287.768ZM295.969 67.8405C296.566 67.5618 296.951 67.0973 296.951 66.3806C296.951 65.2923 295.955 64.5225 294.522 64.5225H291.217V71.424H294.668C296.154 71.424 297.19 70.6144 297.19 69.5128C297.19 68.6766 296.646 68.0529 295.969 67.8405ZM294.522 65.7834C295.053 65.7834 295.425 66.1019 295.425 66.5399C295.425 66.9778 295.053 67.2831 294.522 67.2831H292.744V65.7834H294.522ZM292.744 70.1631V68.4776H294.668C295.265 68.4776 295.663 68.8226 295.663 69.327C295.663 69.8313 295.265 70.1631 294.668 70.1631H292.744ZM301.393 64.3898C300.052 64.3898 298.871 65.0799 298.526 66.2744L299.933 66.5133C300.145 66.0886 300.623 65.6904 301.313 65.6904C302.149 65.6904 302.64 66.2877 302.707 67.1902H301.22C299.19 67.1902 298.181 68.0794 298.181 69.3535C298.181 70.6409 299.176 71.5567 300.583 71.5567C301.711 71.5567 302.468 70.9063 302.8 70.3356L303.118 71.424H304.246V67.5485C304.246 65.5445 303.158 64.3898 301.393 64.3898ZM300.942 70.2693C300.198 70.2693 299.72 69.8844 299.72 69.2872C299.72 68.7563 300.105 68.3847 301.273 68.3847H302.72C302.72 69.5128 302.003 70.2693 300.942 70.2693Z" fill="black"/>
</g>
<path d="M268.892 202.091C202.659 206.894 216.12 155.323 234.132 140.155C252.144 124.987 279.952 121.195 302.388 136.363C324.824 151.531 328.616 185.975 309.656 196.087C290.696 206.199 279.215 201.775 268.892 202.091Z" fill="#F536A7"/>
<path d="M318.225 123.09C319.489 118.982 315.276 118.245 313.169 118.983C311.589 115.823 307.798 114.875 306.217 117.719C304.637 120.562 307.797 126.251 309.377 127.199C310.957 128.147 316.961 127.199 318.225 123.09Z" fill="#F536A7"/>
<path d="M227.701 131.304C226.044 126.077 221.089 128.363 219.414 130.666C215.462 128.498 210.796 130.257 211.203 134.387C211.611 138.518 219.056 142.191 221.401 142.038C223.747 141.886 229.358 136.532 227.701 131.304Z" fill="#F536A7"/>
<circle cx="255.103" cy="112.663" r="6.636" fill="#0177FF"/>
<circle cx="255.102" cy="113.295" r="3.476" fill="#3895FF"/>
<circle cx="282.278" cy="112.663" r="6.636" fill="#0177FF"/>
<circle cx="282.279" cy="113.295" r="3.476" fill="#3895FF"/>
<path d="M296.65 137.627C296.65 141.207 295.908 144.622 294.562 147.739C290.396 157.383 280.449 164.171 268.842 164.171C258.012 164.171 248.628 158.26 244.036 149.635C242.116 146.029 241.034 141.948 241.034 137.627C241.034 122.967 253.485 111.083 268.842 111.083C284.2 111.083 296.65 122.967 296.65 137.627Z" fill="#0177FF"/>
<path d="M268.842 164.171C258.012 164.171 248.628 158.26 244.036 149.635C243.035 151.847 238.127 158.23 226.498 166.067C222.074 169.227 221.758 172.703 223.654 173.967C222.917 175.757 222.58 179.402 227.13 179.655C228.026 181.129 231.239 183.004 236.926 178.707C237.874 178.075 237.558 183.447 238.822 186.923C240.086 190.399 245.774 212.835 258.098 211.887C265.43 211.128 267.473 205.251 267.578 202.407H273.898C274.741 206.199 278.259 213.403 285.59 211.887C294.754 209.991 299.178 197.035 301.39 186.923C303.602 176.811 306.067 164.929 313.398 156.587C313.831 156.081 316.107 153.427 317.19 152.163C320.034 148.055 318.138 146.159 316.558 145.843C316.558 145 316.874 143.062 315.61 142.051C314.346 141.039 312.345 142.051 311.502 142.683C310.997 140.155 308.553 141.208 307.394 142.051C301.833 147.865 296.522 148.265 294.562 147.739C290.396 157.383 280.449 164.171 268.842 164.171Z" fill="#0177FF"/>
<path d="M284.132 162.591C279.835 157.787 272.862 160.589 269.912 162.591C266.542 160.589 259.759 157.219 255.376 162.591C250.994 167.963 259.168 183.763 269.912 184.079C280.656 184.395 289.504 168.595 284.132 162.591Z" fill="#3895FF"/>
<ellipse cx="269.638" cy="138.259" rx="8.532" ry="7.584" fill="white"/>
<circle cx="280.698" cy="129.411" r="2.528" fill="#1B1B23"/>
<circle cx="258.579" cy="129.411" r="2.528" fill="#1B1B23"/>
<path d="M269.954 133.835C270.586 133.203 271.851 132.571 272.483 133.835C273.115 135.099 270.586 136.679 269.954 136.679C269.322 136.679 266.795 135.099 267.427 133.835C268.058 132.571 269.323 133.203 269.954 133.835Z" fill="#1B1B23" stroke="#1B1B23" stroke-width="0.632"/>
<path d="M266.794 138.259C269.35 140.094 270.754 140.511 273.114 138.259" stroke="#1B1B23" stroke-width="1.264" stroke-linecap="round"/>
<path d="M192.109 244.333V241.261H200.351V244.333H202.399V239.384H200.607V229.231H192.826L192.331 235.374C192.041 238.872 191.478 239.384 190.437 239.384H190.062V244.333H192.109ZM193.321 239.384C193.85 238.668 194.225 237.473 194.379 235.477L194.72 231.108H198.559V239.384H193.321ZM207.607 241.432C210.388 241.432 212.351 239.521 212.351 236.825C212.351 234.129 210.388 232.217 207.607 232.217C204.825 232.217 202.863 234.129 202.863 236.825C202.863 239.521 204.825 241.432 207.607 241.432ZM207.607 239.64C206.003 239.64 204.911 238.497 204.911 236.825C204.911 235.152 206.003 234.009 207.607 234.009C209.211 234.009 210.303 235.152 210.303 236.825C210.303 238.497 209.211 239.64 207.607 239.64ZM218.221 233.292C216.873 233.292 215.934 233.804 215.252 234.828C215.405 233.037 215.968 232.081 218.323 231.876C220.013 231.723 221.463 231.313 221.599 229.129L219.876 228.975C219.757 229.726 219.501 229.982 218.306 230.084C214.467 230.409 213.238 232.798 213.238 236.074C213.238 237.729 213.614 238.975 214.279 239.845C215.098 240.903 216.31 241.432 217.76 241.432C220.354 241.432 222.197 239.726 222.197 237.337C222.197 234.965 220.542 233.292 218.221 233.292ZM217.777 239.674C216.327 239.674 215.337 238.736 215.337 237.354C215.337 235.989 216.327 235.05 217.777 235.05C219.211 235.05 220.2 235.989 220.2 237.354C220.2 238.736 219.211 239.674 217.777 239.674ZM225.384 244.759V239.913C225.998 240.647 227.107 241.432 228.66 241.432C231.202 241.432 232.994 239.504 232.994 236.825C232.994 234.146 231.202 232.217 228.66 232.217C227.039 232.217 225.913 233.071 225.298 233.821L224.889 232.388H223.421V244.759H225.384ZM228.182 239.674C226.527 239.674 225.384 238.497 225.384 236.825C225.384 235.152 226.527 233.975 228.182 233.975C229.82 233.975 230.947 235.152 230.947 236.825C230.947 238.497 229.82 239.674 228.182 239.674ZM238.543 241.432C241.324 241.432 243.287 239.521 243.287 236.825C243.287 234.129 241.324 232.217 238.543 232.217C235.761 232.217 233.799 234.129 233.799 236.825C233.799 239.521 235.761 241.432 238.543 241.432ZM238.543 239.64C236.939 239.64 235.847 238.497 235.847 236.825C235.847 235.152 236.939 234.009 238.543 234.009C240.147 234.009 241.239 235.152 241.239 236.825C241.239 238.497 240.147 239.64 238.543 239.64ZM250.271 241.261V234.18H254.161V241.261H256.124V232.388H248.308V241.261H250.271ZM262.18 241.432C264.962 241.432 266.924 239.521 266.924 236.825C266.924 234.129 264.962 232.217 262.18 232.217C259.399 232.217 257.436 234.129 257.436 236.825C257.436 239.521 259.399 241.432 262.18 241.432ZM262.18 239.64C260.576 239.64 259.484 238.497 259.484 236.825C259.484 235.152 260.576 234.009 262.18 234.009C263.784 234.009 264.876 235.152 264.876 236.825C264.876 238.497 263.784 239.64 262.18 239.64ZM280.242 241.261L276.471 236.654L279.901 232.388H277.648L274.952 235.835H274.457V232.388H272.58V235.835H272.086L269.389 232.388H267.137L270.567 236.654L266.796 241.261H269.287L272.12 237.729H272.58V241.261H274.457V237.729H274.918L277.751 241.261H280.242ZM284.245 232.217C282.522 232.217 281.003 233.105 280.559 234.641L282.368 234.948C282.641 234.402 283.255 233.89 284.143 233.89C285.218 233.89 285.849 234.658 285.935 235.818H284.023C281.413 235.818 280.116 236.961 280.116 238.599C280.116 240.255 281.395 241.432 283.204 241.432C284.655 241.432 285.627 240.596 286.054 239.862L286.463 241.261H287.914V236.279C287.914 233.702 286.515 232.217 284.245 232.217ZM283.665 239.777C282.709 239.777 282.095 239.282 282.095 238.514C282.095 237.831 282.59 237.354 284.092 237.354H285.952C285.952 238.804 285.03 239.777 283.665 239.777ZM290.457 237.951C290.389 239.026 290.064 239.436 289.194 239.436C289.041 239.436 288.665 239.436 288.46 239.418L288.648 241.295C288.938 241.33 289.228 241.347 289.433 241.347C291.208 241.347 292.283 240.101 292.402 237.917L292.607 234.18H295.32V241.261H297.283V232.388H290.781L290.457 237.951ZM303.339 241.432C306.121 241.432 308.083 239.521 308.083 236.825C308.083 234.129 306.121 232.217 303.339 232.217C300.558 232.217 298.596 234.129 298.596 236.825C298.596 239.521 300.558 241.432 303.339 241.432ZM303.339 239.64C301.735 239.64 300.643 238.497 300.643 236.825C300.643 235.152 301.735 234.009 303.339 234.009C304.943 234.009 306.036 235.152 306.036 236.825C306.036 238.497 304.943 239.64 303.339 239.64ZM315.506 236.654C316.274 236.296 316.769 235.698 316.769 234.777C316.769 233.378 315.489 232.388 313.646 232.388H309.397V241.261H313.834C315.745 241.261 317.076 240.22 317.076 238.804C317.076 237.729 316.377 236.927 315.506 236.654ZM313.646 234.009C314.329 234.009 314.807 234.419 314.807 234.982C314.807 235.545 314.329 235.937 313.646 235.937H311.36V234.009H313.646ZM311.36 239.64V237.473H313.834C314.602 237.473 315.114 237.917 315.114 238.565C315.114 239.214 314.602 239.64 313.834 239.64H311.36ZM322.088 232.217C320.365 232.217 318.846 233.105 318.402 234.641L320.211 234.948C320.484 234.402 321.099 233.89 321.986 233.89C323.061 233.89 323.692 234.658 323.778 235.818H321.866C319.256 235.818 317.959 236.961 317.959 238.599C317.959 240.255 319.239 241.432 321.047 241.432C322.498 241.432 323.47 240.596 323.897 239.862L324.307 241.261H325.757V236.279C325.757 233.702 324.358 232.217 322.088 232.217ZM321.508 239.777C320.553 239.777 319.938 239.282 319.938 238.514C319.938 237.831 320.433 237.354 321.935 237.354H323.795C323.795 238.804 322.873 239.777 321.508 239.777ZM331.342 241.261V234.18H334.413V232.388H326.308V234.18H329.379V241.261H331.342ZM338.985 241.261C341.101 241.261 342.602 239.947 342.602 238.087C342.602 236.227 341.118 234.914 338.985 234.914H337.347V232.388H335.384V241.261H338.985ZM337.347 236.62H338.985C339.957 236.62 340.64 237.217 340.64 238.087C340.64 238.958 339.957 239.555 338.985 239.555H337.347V236.62ZM206.83 257.654C207.598 257.296 208.093 256.698 208.093 255.777C208.093 254.378 206.813 253.388 204.97 253.388H200.721V262.261H205.158C207.069 262.261 208.4 261.22 208.4 259.804C208.4 258.729 207.7 257.927 206.83 257.654ZM204.97 255.009C205.653 255.009 206.131 255.419 206.131 255.982C206.131 256.545 205.653 256.937 204.97 256.937H202.684V255.009H204.97ZM202.684 260.64V258.473H205.158C205.926 258.473 206.438 258.917 206.438 259.565C206.438 260.214 205.926 260.64 205.158 260.64H202.684Z" fill="black"/>
<path d="M219.799 262.261L224.184 250.231H222.017L218.502 260.145H218.161L214.765 250.231H212.564L216.813 262.261H219.799ZM229.478 256.033L234.58 250.231H232.054L227.788 255.129H227.293V250.231H225.246V262.261H227.293V257.108H227.805L232.31 262.261H235.006L229.478 256.033ZM245.185 256.033C246.26 255.692 247.028 254.77 247.028 253.422C247.028 251.46 245.287 250.061 242.83 250.061C240.68 250.061 239.076 251.136 238.359 253.166L240.288 253.49C240.731 252.552 241.584 251.938 242.779 251.938C244.025 251.938 244.963 252.603 244.963 253.576C244.963 254.565 243.99 255.231 242.625 255.231H241.107V257.023H242.625C244.4 257.023 245.168 257.774 245.168 258.746C245.168 259.855 244.263 260.555 242.762 260.555C241.363 260.555 240.578 259.958 240.032 258.831L238.069 259.156C238.564 261.101 240.339 262.432 242.779 262.432C245.612 262.432 247.267 260.845 247.267 258.831C247.267 257.33 246.294 256.408 245.185 256.033ZM254.684 256.886H250.708V253.388H248.746V262.261H250.708V258.678H254.684V262.261H256.646V253.388H254.684V256.886ZM262.086 253.217C260.363 253.217 258.844 254.105 258.401 255.641L260.209 255.948C260.482 255.402 261.097 254.89 261.984 254.89C263.059 254.89 263.691 255.658 263.776 256.818H261.865C259.254 256.818 257.957 257.961 257.957 259.599C257.957 261.255 259.237 262.432 261.046 262.432C262.496 262.432 263.469 261.596 263.895 260.862L264.305 262.261H265.755V257.279C265.755 254.702 264.356 253.217 262.086 253.217ZM261.506 260.777C260.551 260.777 259.936 260.282 259.936 259.514C259.936 258.831 260.431 258.354 261.933 258.354H263.793C263.793 259.804 262.871 260.777 261.506 260.777ZM275.581 262.261L271.502 257.654L275.239 253.388H272.902L269.932 256.835H269.455V253.388H267.492V262.261H269.455V258.729H269.932L273.004 262.261H275.581ZM280.198 262.432C282.979 262.432 284.941 260.521 284.941 257.825C284.941 255.129 282.979 253.217 280.198 253.217C277.416 253.217 275.454 255.129 275.454 257.825C275.454 260.521 277.416 262.432 280.198 262.432ZM280.198 260.64C278.594 260.64 277.501 259.497 277.501 257.825C277.501 256.152 278.594 255.009 280.198 255.009C281.802 255.009 282.894 256.152 282.894 257.825C282.894 259.497 281.802 260.64 280.198 260.64ZM288.133 262.261V255.675H288.406L290.624 262.261H292.279L294.6 255.675H294.873V262.261H296.75V253.388H293.764L291.631 259.48H291.358L289.31 253.388H286.256V262.261H288.133ZM302.691 262.432C304.551 262.432 306.308 261.476 306.974 259.616L305.131 259.309C304.738 260.094 303.868 260.64 302.81 260.64C301.223 260.64 300.114 259.48 300.114 257.825C300.114 256.17 301.223 255.009 302.81 255.009C303.834 255.009 304.687 255.538 305.063 256.306L306.906 255.999C306.257 254.173 304.585 253.217 302.691 253.217C299.978 253.217 298.066 255.146 298.066 257.825C298.066 260.504 299.978 262.432 302.691 262.432ZM311.966 262.261V255.18H315.037V253.388H306.932V255.18H310.003V262.261H311.966ZM322.117 257.654C322.885 257.296 323.38 256.698 323.38 255.777C323.38 254.378 322.1 253.388 320.257 253.388H316.009V262.261H320.445C322.356 262.261 323.687 261.22 323.687 259.804C323.687 258.729 322.988 257.927 322.117 257.654ZM320.257 255.009C320.94 255.009 321.418 255.419 321.418 255.982C321.418 256.545 320.94 256.937 320.257 256.937H317.971V255.009H320.257ZM317.971 260.64V258.473H320.445C321.213 258.473 321.725 258.917 321.725 259.565C321.725 260.214 321.213 260.64 320.445 260.64H317.971ZM328.699 253.217C326.976 253.217 325.457 254.105 325.014 255.641L326.822 255.948C327.095 255.402 327.71 254.89 328.597 254.89C329.672 254.89 330.303 255.658 330.389 256.818H328.478C325.867 256.818 324.57 257.961 324.57 259.599C324.57 261.255 325.85 262.432 327.659 262.432C329.109 262.432 330.082 261.596 330.508 260.862L330.918 262.261H332.368V257.279C332.368 254.702 330.969 253.217 328.699 253.217ZM328.119 260.777C327.164 260.777 326.549 260.282 326.549 259.514C326.549 258.831 327.044 258.354 328.546 258.354H330.406C330.406 259.804 329.484 260.777 328.119 260.777Z" fill="#0177FF"/>
</g>
</g>
<path d="M195.383 22.353H191V9.60144H340.033V22.353H336.048C333.848 22.353 332.064 24.137 332.064 26.3378V27.5333C332.064 35.456 325.641 41.8787 317.718 41.8787H213.714C205.791 41.8787 199.368 35.456 199.368 27.5333V26.3378C199.368 24.137 197.584 22.353 195.383 22.353Z" fill="#222222"/>
<path d="M240.412 29.1272C240.412 27.8068 241.483 26.7363 242.803 26.7363H276.276C277.596 26.7363 278.667 27.8068 278.667 29.1272C278.667 30.4477 277.596 31.5181 276.276 31.5181H242.803C241.483 31.5181 240.412 30.4477 240.412 29.1272Z" fill="#3C3C3C"/>
<path d="M289.824 29.1272C289.824 30.4477 288.754 31.5181 287.433 31.5181C286.113 31.5181 285.042 30.4477 285.042 29.1272C285.042 27.8068 286.113 26.7363 287.433 26.7363C288.754 26.7363 289.824 27.8068 289.824 29.1272Z" fill="#3C3C3C"/>
</g>
<rect x="141.376" y="16.3758" width="250.248" height="527.248" rx="33.6242" stroke="#222222" stroke-width="12.7515"/>
</g>
<defs>
<clipPath id="clip0_30_16589">
<rect width="534" height="272" fill="white"/>
</clipPath>
<clipPath id="clip1_30_16589">
<rect width="396" height="272" fill="white" transform="translate(69)"/>
</clipPath>
<clipPath id="clip2_30_16589">
<rect x="135" y="10" width="263" height="540" rx="40" fill="white"/>
</clipPath>
<clipPath id="clip3_30_16589">
<rect x="148" y="23" width="237" height="513.184" rx="8.848" fill="white"/>
</clipPath>
<clipPath id="clip4_30_16589">
<rect width="237" height="306.672" fill="white" transform="translate(148 23)"/>
</clipPath>
<clipPath id="clip5_30_16589">
<path d="M148 23H385V83.672H148V23Z" fill="white"/>
</clipPath>
</defs>
</svg>
