<svg height="150" viewBox="0 0 203 116" fill="none" xmlns="http://www.w3.org/2000/svg">
<g clip-path="url(#clip0_49_17153)">
<rect width="203" height="116" fill="#7F24C1"/>
<path d="M58.8159 -32.7327C86.9972 -24.3486 101.088 -20.1566 107.238 -8.79721C113.388 2.56215 109.196 16.6528 100.812 44.8341L99.3301 49.8159C90.9462 77.997 86.7542 92.0876 75.3947 98.2379C64.0353 104.388 49.9447 100.196 21.7634 91.8123L16.7816 90.3302C-11.3995 81.9462 -25.4901 77.7542 -31.6404 66.3946C-37.7907 55.0351 -33.5988 40.9445 -25.2148 12.7634L-23.7327 7.78158C-15.3486 -20.3997 -11.1566 -34.4904 0.20289 -40.6405C11.5624 -46.7907 25.653 -42.5987 53.8341 -34.2148L58.8159 -32.7327Z" fill="#F77FFF"/>
<path d="M178.069 68.3207C192.024 65.3411 199.001 63.8513 204.262 67.2608C209.523 70.6703 211.012 77.6476 213.992 91.6022L214.519 94.0691C217.498 108.024 218.988 115.001 215.579 120.262C212.169 125.523 205.192 127.012 191.237 129.992L188.77 130.519C174.816 133.498 167.838 134.988 162.578 131.578C157.317 128.169 155.827 121.192 152.847 107.237L152.321 104.77C149.341 90.8157 147.851 83.8384 151.261 78.5776C154.67 73.3168 161.648 71.827 175.602 68.8474L178.069 68.3207Z" fill="#F77FFF"/>
<path d="M94.1936 83.6736C93 84.8672 93 86.7882 93 90.6304V91.3096C93 95.1517 93 97.0727 94.1936 98.2664C95.3872 99.46 97.3083 99.46 101.15 99.46H101.83C105.672 99.46 107.593 99.46 108.786 98.2664C109.98 97.0727 109.98 95.1517 109.98 91.3096V90.6304C109.98 86.7882 109.98 84.8672 108.786 83.6736C108.524 83.4112 108.226 83.2064 107.881 83.0467V92.8241C107.881 94.7728 105.762 95.9509 104.149 94.8992L101.425 93.1241L98.8437 94.8512C97.2319 95.9295 95.0874 94.7539 95.0874 92.792V83.0521C94.7469 83.2111 94.4531 83.4141 94.1936 83.6736Z" fill="white"/>
<path d="M101.83 82.48H101.15C99.6775 82.48 98.4869 82.48 97.5114 82.5472V92.792L100.093 91.065C100.893 90.5299 101.928 90.5237 102.734 91.049L105.457 92.8241V82.5464C104.484 82.48 103.297 82.48 101.83 82.48Z" fill="white"/>
<path d="M54.9849 41.3527V30.5806H61.3922V41.3527H62.8563V29.2405H53.5208V41.3527H54.9849Z" fill="white"/>
<path d="M69.1973 39.8065H68.9734L65.9764 32.5392H64.4951L68.4222 41.8681L68.1466 42.6584C67.8883 43.3628 67.5782 43.6205 66.8721 43.6205H65.408L65.5286 44.8747H66.8032C68.1639 44.8747 68.9217 44.2905 69.4212 42.9333L73.1761 32.5392H71.7292L69.1973 39.8065Z" fill="white"/>
<path d="M79.0141 33.3295C77.5845 33.3295 76.5166 33.8964 75.8104 34.8242C75.9654 32.9343 76.8094 31.7317 79.238 31.5083C80.8743 31.3709 82.2178 31.0101 82.3555 29.1203L81.0982 29C80.9432 29.8075 80.5815 30.0824 79.2035 30.2026C75.5176 30.5462 74.3808 32.7625 74.3808 36.2501C74.3808 38.14 74.7081 39.2223 75.397 40.0985C76.1549 41.0263 77.2572 41.5245 78.6868 41.5245C81.236 41.5245 83.0101 39.8065 83.0101 37.4012C83.0101 35.0131 81.3566 33.3295 79.0141 33.3295ZM78.7213 40.2703C76.9989 40.2703 75.8276 39.1021 75.8276 37.4184C75.8276 35.7347 76.9989 34.5836 78.7213 34.5836C80.4092 34.5836 81.5805 35.7347 81.5805 37.4184C81.5805 39.1021 80.4092 40.2703 78.7213 40.2703Z" fill="white"/>
<path d="M85.4304 38.4664C85.3443 39.6862 85.0343 40.0814 84.0181 40.0814C83.932 40.0814 83.6736 40.0814 83.4497 40.0642L83.5702 41.3871C83.8114 41.4214 84.0353 41.4386 84.242 41.4386C85.7577 41.4386 86.6706 40.4078 86.7912 38.432L87.084 33.7933H90.3738V41.3527H91.7517V32.5392H85.8094L85.4304 38.4664Z" fill="white"/>
<path d="M96.2906 41.3527L100.2 33.9995H100.424V41.3527H101.768V32.5392H99.6321L95.7395 39.8924H95.4983V32.5392H94.1548V41.3527H96.2906Z" fill="white"/>
<path d="M111.431 41.3527L107.228 36.8171L111.087 32.5392H109.416L106.109 36.2329H105.558V32.5392H104.18V41.3527H105.558V37.5387H106.092L109.605 41.3527H111.431Z" fill="white"/>
<path d="M115.73 32.3674C114.179 32.3674 112.836 33.1748 112.336 34.5149L113.628 34.7211C114.024 33.9995 114.782 33.5528 115.678 33.5528C116.901 33.5528 117.693 34.3946 117.779 36.0096H115.712C113.18 36.0096 111.871 37.1263 111.871 38.7585C111.871 40.3906 113.129 41.5245 114.92 41.5245C116.453 41.5245 117.331 40.7342 117.848 39.9611L118.227 41.3527H119.157V36.4219C119.157 33.7933 117.814 32.3674 115.73 32.3674ZM115.178 40.3391C114.024 40.3391 113.267 39.7206 113.267 38.7241C113.267 37.7964 113.938 37.195 115.73 37.195H117.779V37.4184C117.779 39.377 116.642 40.3391 115.178 40.3391Z" fill="white"/>
<path d="M130.083 43.9641V40.0814H128.584V32.5392H127.206V40.0814H122.866V32.5392H121.488V41.3527H128.705V43.9641H130.083Z" fill="white"/>
<path d="M133.766 41.3527L137.676 33.9995H137.9V41.3527H139.244V32.5392H137.108L133.215 39.8924H132.974V32.5392H131.631V41.3527H133.766Z" fill="white"/>
<path d="M144.653 32.5392C142.723 32.5392 141.363 33.7074 141.363 35.3567C141.363 36.6109 142.155 37.6074 143.395 38.0025L141.139 41.3527H142.723L144.808 38.1915H146.84V41.3527H148.218V32.5392H144.653ZM144.653 36.9373C143.516 36.9373 142.758 36.3017 142.758 35.3567C142.758 34.4118 143.516 33.7761 144.653 33.7761H146.84V36.9373H144.653Z" fill="white"/>
<path d="M45.2513 62.8282L41.0487 58.2926L44.9069 54.0147H43.2361L39.9291 57.7084H39.3779V54.0147H38V62.8282H39.3779V59.0141H39.9119L43.4256 62.8282H45.2513Z" fill="white"/>
<path d="M49.5498 53.8428C47.9996 53.8428 46.6562 54.6503 46.1567 55.9904L47.4485 56.1966C47.8446 55.475 48.6025 55.0283 49.4981 55.0283C50.7211 55.0283 51.5134 55.8701 51.5995 57.4851H49.5326C47.0007 57.4851 45.6916 58.6018 45.6916 60.234C45.6916 61.8661 46.949 63 48.7403 63C50.2732 63 51.1517 62.2097 51.6684 61.4366L52.0473 62.8282H52.9774V57.8974C52.9774 55.2688 51.6339 53.8428 49.5498 53.8428ZM48.9986 61.8146C47.8446 61.8146 47.0868 61.1961 47.0868 60.1996C47.0868 59.2719 47.7585 58.6705 49.5498 58.6705H51.5995V58.8939C51.5995 60.8524 50.4627 61.8146 48.9986 61.8146Z" fill="white"/>
<path d="M61.2677 57.7428H56.6861V54.0147H55.3082V62.8282H56.6861V58.997H61.2677V62.8282H62.6456V54.0147H61.2677V57.7428Z" fill="white"/>
<path d="M68.4055 53.8428C66.8553 53.8428 65.5118 54.6503 65.0123 55.9904L66.3041 56.1966C66.7003 55.475 67.4581 55.0283 68.3538 55.0283C69.5767 55.0283 70.369 55.8701 70.4551 57.4851H68.3882C65.8563 57.4851 64.5473 58.6018 64.5473 60.234C64.5473 61.8661 65.8046 63 67.5959 63C69.1289 63 70.0073 62.2097 70.524 61.4366L70.903 62.8282H71.8331V57.8974C71.8331 55.2688 70.4896 53.8428 68.4055 53.8428ZM67.8543 61.8146C66.7003 61.8146 65.9424 61.1961 65.9424 60.1996C65.9424 59.2719 66.6142 58.6705 68.4055 58.6705H70.4551V58.8939C70.4551 60.8524 69.3183 61.8146 67.8543 61.8146Z" fill="white"/>
<path d="M74.9429 59.9419C74.8568 61.1617 74.5468 61.5568 73.5306 61.5568C73.4444 61.5568 73.1861 61.5568 72.9622 61.5397L73.0827 62.8626C73.3239 62.8969 73.5478 62.9141 73.7545 62.9141C75.2702 62.9141 76.1831 61.8833 76.3036 59.9075L76.5965 55.2688H79.8862V62.8282H81.2642V54.0147H75.3219L74.9429 59.9419Z" fill="white"/>
<path d="M87.7494 63C90.4536 63 92.3655 61.093 92.3655 58.4128C92.3655 55.7499 90.4536 53.8428 87.7494 53.8428C85.0625 53.8428 83.1506 55.7499 83.1506 58.4128C83.1506 61.093 85.0625 63 87.7494 63ZM87.7494 61.7286C85.872 61.7286 84.5974 60.3886 84.5974 58.4128C84.5974 56.4543 85.872 55.097 87.7494 55.097C89.6441 55.097 90.9187 56.4543 90.9187 58.4128C90.9187 60.3886 89.6441 61.7286 87.7494 61.7286Z" fill="white"/>
<path d="M99.862 58.1723C100.62 57.8115 101.068 57.1758 101.068 56.3512C101.068 54.9939 99.862 54.0147 98.1568 54.0147H94.2642V62.8282H98.2774C100.103 62.8282 101.378 61.7974 101.378 60.337C101.378 59.3062 100.775 58.5159 99.862 58.1723ZM98.1568 55.2173C99.0525 55.2173 99.6725 55.7155 99.6725 56.4371C99.6725 57.1415 99.0525 57.6397 98.1568 57.6397H95.6421V55.2173H98.1568ZM95.6421 61.6084V58.8423H98.2774C99.2936 58.8423 99.9826 59.3921 99.9826 60.2168C99.9826 61.0414 99.2936 61.6084 98.2774 61.6084H95.6421Z" fill="white"/>
<path d="M109.638 62.8282L113.547 55.475H113.771V62.8282H115.115V54.0147H112.979L109.086 61.3679H108.845V54.0147H107.502V62.8282H109.638Z" fill="white"/>
<path d="M127.258 62.8282V54.0147H125.88V58.2067C125.26 58.4816 124.467 58.619 123.813 58.619C122.504 58.619 121.832 57.949 121.832 56.6089V54.0147H120.454V56.6089C120.454 58.6877 121.643 59.8732 123.675 59.8732C124.416 59.8732 125.26 59.7185 125.88 59.478V62.8282H127.258Z" fill="white"/>
<path d="M133.013 53.8428C131.462 53.8428 130.119 54.6503 129.619 55.9904L130.911 56.1966C131.307 55.475 132.065 55.0283 132.961 55.0283C134.184 55.0283 134.976 55.8701 135.062 57.4851H132.995C130.463 57.4851 129.154 58.6018 129.154 60.234C129.154 61.8661 130.412 63 132.203 63C133.736 63 134.614 62.2097 135.131 61.4366L135.51 62.8282H136.44V57.8974C136.44 55.2688 135.097 53.8428 133.013 53.8428ZM132.461 61.8146C131.307 61.8146 130.55 61.1961 130.55 60.1996C130.55 59.2719 131.221 58.6705 133.013 58.6705H135.062V58.8939C135.062 60.8524 133.925 61.8146 132.461 61.8146Z" fill="white"/>
<path d="M142.017 62.8282V55.2688H145.083V54.0147H137.573V55.2688H140.639V62.8282H142.017Z" fill="white"/>
<path d="M150.372 63C153.076 63 154.988 61.093 154.988 58.4128C154.988 55.7499 153.076 53.8428 150.372 53.8428C147.685 53.8428 145.773 55.7499 145.773 58.4128C145.773 61.093 147.685 63 150.372 63ZM150.372 61.7286C148.494 61.7286 147.22 60.3886 147.22 58.4128C147.22 56.4543 148.494 55.097 150.372 55.097C152.266 55.097 153.541 56.4543 153.541 58.4128C153.541 60.3886 152.266 61.7286 150.372 61.7286Z" fill="white"/>
<path d="M162.484 58.1723C163.242 57.8115 163.69 57.1758 163.69 56.3512C163.69 54.9939 162.484 54.0147 160.779 54.0147H156.886V62.8282H160.9C162.725 62.8282 164 61.7974 164 60.337C164 59.3062 163.397 58.5159 162.484 58.1723ZM160.779 55.2173C161.675 55.2173 162.295 55.7155 162.295 56.4371C162.295 57.1415 161.675 57.6397 160.779 57.6397H158.264V55.2173H160.779ZM158.264 61.6084V58.8423H160.9C161.916 58.8423 162.605 59.3921 162.605 60.2168C162.605 61.0414 161.916 61.6084 160.9 61.6084H158.264Z" fill="white"/>
</g>
<defs>
<clipPath id="clip0_49_17153">
<rect width="203" height="116" fill="white"/>
</clipPath>
</defs>
</svg>
