<svg height="150" viewBox="0 0 203 116" fill="none" xmlns="http://www.w3.org/2000/svg">
<g clip-path="url(#clip0_49_17153)">
<rect width="203" height="116" fill="#7F24C1"/>
<path d="M58.8159 -32.7327C86.9972 -24.3486 101.088 -20.1566 107.238 -8.79721C113.388 2.56215 109.196 16.6528 100.812 44.8341L99.3301 49.8159C90.9462 77.997 86.7542 92.0876 75.3947 98.2379C64.0353 104.388 49.9447 100.196 21.7634 91.8122L16.7816 90.3302C-11.3995 81.9462 -25.4901 77.7542 -31.6404 66.3946C-37.7907 55.0351 -33.5987 40.9445 -25.2148 12.7634L-23.7327 7.78158C-15.3486 -20.3997 -11.1566 -34.4904 0.20289 -40.6405C11.5624 -46.7907 25.653 -42.5987 53.8341 -34.2148L58.8159 -32.7327Z" fill="#F77FFF"/>
<path d="M178.069 68.3207C192.024 65.3411 199.001 63.8513 204.262 67.2608C209.523 70.6703 211.012 77.6476 213.992 91.6022L214.519 94.0691C217.498 108.024 218.988 115.001 215.579 120.262C212.169 125.523 205.192 127.012 191.237 129.992L188.77 130.519C174.816 133.498 167.838 134.988 162.578 131.578C157.317 128.169 155.827 121.192 152.847 107.237L152.321 104.77C149.341 90.8157 147.851 83.8384 151.261 78.5776C154.67 73.3168 161.648 71.827 175.602 68.8474L178.069 68.3207Z" fill="#F77FFF"/>
<path d="M71.3438 41.2275V39.9589C74.4274 39.9589 76.586 37.991 76.586 35.2099C76.586 32.4288 74.4274 30.4772 71.3438 30.4772V29.2086H69.9805V30.4772C66.9293 30.4772 64.7545 32.4288 64.7545 35.2099C64.7545 37.991 66.9293 39.9589 69.9805 39.9589V41.2275H71.3438ZM69.9805 38.7066C67.7408 38.7066 66.1827 37.2591 66.1827 35.2099C66.1827 33.1119 67.7408 31.7132 69.9805 31.7132V38.7066ZM71.3438 31.7132C73.6159 31.7132 75.1578 33.1119 75.1578 35.2099C75.1578 37.2591 73.6159 38.7066 71.3438 38.7066V31.7132Z" fill="white"/>
<path d="M80.1175 41.0323L83.8016 34.0715H84.0126V41.0323H85.2785V32.689H83.266L79.5981 39.6499H79.3709V32.689H78.105V41.0323H80.1175Z" fill="white"/>
<path d="M93.053 41.0323V32.689H91.7547V36.6574C91.1704 36.9176 90.4238 37.0477 89.8071 37.0477C88.5736 37.0477 87.9407 36.4134 87.9407 35.1449V32.689H86.6423V35.1449C86.6423 37.1128 87.7622 38.235 89.6773 38.235C90.3751 38.235 91.1704 38.0886 91.7547 37.8609V41.0323H93.053Z" fill="white"/>
<path d="M103.004 36.8363C103.004 34.3317 101.251 32.5264 98.784 32.5264C96.3333 32.5264 94.5805 34.3317 94.5805 36.8525C94.5805 39.3897 96.3496 41.1949 98.8652 41.1949C100.504 41.1949 102.014 40.4143 102.712 38.8855L101.494 38.6903C101.072 39.4385 100.131 39.9914 98.9301 39.9914C97.2584 39.9914 96.0899 38.9018 95.9438 37.2429H102.988C103.004 37.0477 103.004 36.9827 103.004 36.8363ZM98.784 33.6974C100.261 33.6974 101.332 34.6732 101.592 36.1207H95.9925C96.2684 34.6569 97.3396 33.6974 98.784 33.6974Z" fill="white"/>
<path d="M105.663 44.3664V39.6499C106.264 40.4306 107.286 41.1949 108.828 41.1949C111.198 41.1949 112.902 39.3897 112.902 36.8525C112.902 34.3317 111.198 32.5264 108.828 32.5264C107.254 32.5264 106.215 33.3233 105.631 34.104L105.241 32.689H104.365V44.3664H105.663ZM108.601 40.0077C106.864 40.0077 105.663 38.7229 105.663 36.8525C105.663 34.9985 106.864 33.7137 108.601 33.7137C110.354 33.7137 111.538 34.9985 111.538 36.8525C111.538 38.7229 110.354 40.0077 108.601 40.0077Z" fill="white"/>
<path d="M116.436 41.0323L120.12 34.0715H120.331V41.0323H121.597V32.689H119.584L115.916 39.6499H115.689V32.689H114.423V41.0323H116.436Z" fill="white"/>
<path d="M129.225 36.2183H124.908V32.689H123.61V41.0323H124.908V37.4055H129.225V41.0323H130.523V32.689H129.225V36.2183Z" fill="white"/>
<path d="M133.841 41.0323V33.8763H137.817V32.689H132.543V41.0323H133.841Z" fill="white"/>
<path d="M33.7126 62.594V55.6331H33.9398L36.2607 62.594H37.6564L40.0909 55.6331H40.3019V62.594H41.5678V54.2507H39.4093L37.0884 60.9514H36.8774L34.654 54.2507H32.4467V62.594H33.7126Z" fill="white"/>
<path d="M45.5952 62.594L49.2793 55.6331H49.4903V62.594H50.7562V54.2507H48.7437L45.0758 61.2116H44.8486V54.2507H43.5827V62.594H45.5952Z" fill="white"/>
<path d="M58.3847 57.7799H54.0676V54.2507H52.7692V62.594H54.0676V58.9672H58.3847V62.594H59.6831V54.2507H58.3847V57.7799Z" fill="white"/>
<path d="M63.7146 62.594L67.3988 55.6331H67.6097V62.594H68.8757V54.2507H66.8632L63.1953 61.2116H62.9681V54.2507H61.7021V62.594H63.7146Z" fill="white"/>
<path d="M75.6277 58.6744V57.4384H70.7264V58.6744H75.6277Z" fill="white"/>
<path d="M78.7584 62.594V55.438H82.9944V62.594H84.2927V54.2507H77.46V62.594H78.7584Z" fill="white"/>
<path d="M87.5962 65.928V61.2116C88.1967 61.9922 89.2192 62.7566 90.761 62.7566C93.1306 62.7566 94.8347 60.9514 94.8347 58.4142C94.8347 55.8934 93.1306 54.0881 90.761 54.0881C89.1868 54.0881 88.148 54.885 87.5638 55.6657L87.1743 54.2507H86.2979V65.928H87.5962ZM90.5338 61.5694C88.7972 61.5694 87.5962 60.2846 87.5962 58.4142C87.5962 56.5602 88.7972 55.2753 90.5338 55.2753C92.2866 55.2753 93.4714 56.5602 93.4714 58.4142C93.4714 60.2846 92.2866 61.5694 90.5338 61.5694Z" fill="white"/>
<path d="M98.3686 62.594L102.053 55.6331H102.264V62.594H103.53V54.2507H101.517L97.8492 61.2116H97.622V54.2507H96.3561V62.594H98.3686Z" fill="white"/>
<path d="M106.435 59.8617C106.354 61.0164 106.062 61.3905 105.104 61.3905C105.023 61.3905 104.78 61.3905 104.569 61.3742L104.682 62.6265C104.91 62.659 105.121 62.6753 105.315 62.6753C106.744 62.6753 107.604 61.6995 107.717 59.8292L107.993 55.438H111.093V62.594H112.392V54.2507H106.792L106.435 59.8617Z" fill="white"/>
<path d="M118.243 62.7566C120.791 62.7566 122.592 60.9514 122.592 58.4142C122.592 55.8934 120.791 54.0881 118.243 54.0881C115.711 54.0881 113.909 55.8934 113.909 58.4142C113.909 60.9514 115.711 62.7566 118.243 62.7566ZM118.243 61.5531C116.474 61.5531 115.273 60.2846 115.273 58.4142C115.273 56.5602 116.474 55.2753 118.243 55.2753C120.028 55.2753 121.229 56.5602 121.229 58.4142C121.229 60.2846 120.028 61.5531 118.243 61.5531Z" fill="white"/>
<path d="M134.484 62.594L130.816 58.3004L134.159 54.2507H132.634L129.761 57.7637H129.258V54.2507H127.976V57.7637H127.473L124.584 54.2507H123.074L126.418 58.3004L122.75 62.594H124.405L127.489 58.9835H127.976V62.594H129.258V58.9835H129.745L132.828 62.594H134.484Z" fill="white"/>
<path d="M143.067 58.398C143.067 55.8934 141.314 54.0881 138.847 54.0881C136.397 54.0881 134.644 55.8934 134.644 58.4142C134.644 60.9514 136.413 62.7566 138.929 62.7566C140.568 62.7566 142.077 61.976 142.775 60.4472L141.558 60.252C141.136 61.0002 140.195 61.5531 138.994 61.5531C137.322 61.5531 136.153 60.4635 136.007 58.8046H143.051C143.067 58.6094 143.067 58.5443 143.067 58.398ZM138.847 55.2591C140.324 55.2591 141.396 56.2349 141.655 57.6824H136.056C136.332 56.2186 137.403 55.2591 138.847 55.2591Z" fill="white"/>
<path d="M150.044 57.7799H145.727V54.2507H144.428V62.594H145.727V58.9672H150.044V62.594H151.342V54.2507H150.044V57.7799Z" fill="white"/>
<path d="M155.374 62.594L159.058 55.6331H159.269V62.594H160.535V54.2507H158.522L154.854 61.2116H154.627V54.2507H153.361V62.594H155.374Z" fill="white"/>
<path d="M166.135 53.0635C167.368 53.0635 168.407 52.4455 168.585 50.9655H167.482C167.368 51.6811 166.881 52.0551 166.135 52.0551C165.388 52.0551 164.917 51.6811 164.787 50.9655H163.684C163.879 52.4455 164.901 53.0635 166.135 53.0635ZM164.56 62.594L168.244 55.6331H168.455V62.594H169.721V54.2507H167.709L164.041 61.2116H163.814V54.2507H162.548V62.594H164.56Z" fill="white"/>
<path d="M94.1936 83.6736C93 84.8672 93 86.7882 93 90.6304V91.3096C93 95.1517 93 97.0727 94.1936 98.2664C95.3872 99.46 97.3083 99.46 101.15 99.46H101.83C105.672 99.46 107.593 99.46 108.786 98.2664C109.98 97.0727 109.98 95.1517 109.98 91.3096V90.6304C109.98 86.7882 109.98 84.8672 108.786 83.6736C108.524 83.4112 108.226 83.2064 107.881 83.0467V92.8241C107.881 94.7728 105.762 95.9509 104.149 94.8992L101.425 93.1241L98.8437 94.8512C97.2319 95.9295 95.0874 94.7539 95.0874 92.792V83.0521C94.7469 83.2111 94.4531 83.4141 94.1936 83.6736Z" fill="white"/>
<path d="M101.83 82.48H101.15C99.6775 82.48 98.4869 82.48 97.5114 82.5472V92.792L100.093 91.065C100.893 90.5299 101.928 90.5237 102.734 91.049L105.457 92.8241V82.5464C104.484 82.48 103.297 82.48 101.83 82.48Z" fill="white"/>
</g>
<defs>
<clipPath id="clip0_49_17153">
<rect width="203" height="116" fill="white"/>
</clipPath>
</defs>
</svg>
