<svg width="534" height="272" viewBox="0 0 534 272" fill="none" xmlns="http://www.w3.org/2000/svg">
<g clip-path="url(#clip0_30_15784)">
<g clip-path="url(#clip1_30_15784)">
<path d="M274.876 113C364.481 113 409.283 113 437.119 140.837C461.725 165.442 464.581 203.302 464.913 273.642H69C69.3316 203.302 72.1879 165.442 96.793 140.837C124.63 113 169.432 113 259.036 113H274.876Z" fill="#0077FF"/>
</g>
<g clip-path="url(#clip2_30_15784)">
<rect x="135" y="10" width="263" height="540" rx="40" fill="white"/>
<g clip-path="url(#clip3_30_15784)">
<rect x="147" y="23" width="239" height="517.515" rx="8.92267" fill="white"/>
<g clip-path="url(#clip4_30_15784)">
<g clip-path="url(#clip5_30_15784)">
<path d="M147 23H386V114.776H147V23Z" fill="white"/>
<path opacity="0.4" d="M361.463 36.7027C361.463 36.2512 361.463 35.9318 361.483 35.6821C361.503 35.4361 361.541 35.286 361.602 35.168C361.724 34.9281 361.919 34.7331 362.159 34.6109C362.277 34.5508 362.427 34.5127 362.673 34.4926C362.922 34.4722 363.242 34.472 363.693 34.472H372.616C373.067 34.472 373.387 34.4722 373.637 34.4926C373.883 34.5127 374.033 34.5508 374.151 34.6109C374.391 34.7331 374.586 34.9281 374.708 35.168C374.768 35.286 374.806 35.4361 374.826 35.6821C374.846 35.9318 374.847 36.2512 374.847 36.7027V38.296C374.847 38.7474 374.846 39.0668 374.826 39.3165C374.806 39.5625 374.768 39.7127 374.708 39.8307C374.586 40.0705 374.391 40.2655 374.151 40.3877C374.033 40.4479 373.883 40.4859 373.637 40.506C373.387 40.5264 373.067 40.5267 372.616 40.5267H363.693C363.242 40.5267 362.922 40.5264 362.673 40.506C362.427 40.4859 362.277 40.4479 362.159 40.3877C361.919 40.2655 361.724 40.0705 361.602 39.8307C361.541 39.7127 361.503 39.5625 361.483 39.3165C361.463 39.0668 361.463 38.7474 361.463 38.296V36.7027Z" stroke="black" stroke-width="0.637333"/>
<path opacity="0.4" fill-rule="evenodd" clip-rule="evenodd" d="M375.803 38.8531C376.352 38.7115 376.759 38.2125 376.759 37.6185C376.759 37.0246 376.352 36.5255 375.803 36.384V38.8531Z" fill="black"/>
<rect x="362.419" y="35.428" width="11.472" height="4.14267" rx="0.637333" fill="black"/>
<path fill-rule="evenodd" clip-rule="evenodd" d="M353.069 35.4968C354.481 35.4969 355.84 36.0395 356.863 37.0126C356.94 37.0877 357.064 37.0868 357.139 37.0105L357.876 36.2669C357.915 36.2282 357.936 36.1758 357.936 36.1213C357.935 36.0667 357.913 36.0146 357.874 35.9763C355.188 33.4018 350.95 33.4018 348.264 35.9763C348.225 36.0145 348.203 36.0667 348.202 36.1212C348.202 36.1758 348.223 36.2282 348.262 36.2669L348.999 37.0105C349.074 37.0869 349.198 37.0879 349.275 37.0126C350.298 36.0395 351.657 35.4968 353.069 35.4968ZM353.069 37.916C353.845 37.9159 354.593 38.2043 355.169 38.7252C355.246 38.7991 355.369 38.7975 355.445 38.7216L356.181 37.978C356.219 37.939 356.241 37.8861 356.24 37.8311C356.24 37.7761 356.217 37.7237 356.178 37.6855C354.426 36.0562 351.714 36.0562 349.962 37.6855C349.923 37.7237 349.9 37.7762 349.9 37.8312C349.899 37.8861 349.921 37.9391 349.959 37.978L350.695 38.7216C350.771 38.7975 350.894 38.7991 350.971 38.7252C351.546 38.2047 352.294 37.9163 353.069 37.916ZM354.543 39.5436C354.544 39.5987 354.523 39.6519 354.483 39.6905L353.21 40.9752C353.173 41.0129 353.122 41.0342 353.069 41.0342C353.016 41.0342 352.965 41.0129 352.928 40.9752L351.655 39.6905C351.615 39.6519 351.594 39.5987 351.595 39.5435C351.596 39.4884 351.62 39.4362 351.661 39.3992C352.474 38.7116 353.665 38.7116 354.477 39.3992C354.518 39.4362 354.542 39.4885 354.543 39.5436Z" fill="black"/>
<path fill-rule="evenodd" clip-rule="evenodd" d="M344.998 34.897C344.998 34.545 344.713 34.2596 344.361 34.2596H343.724C343.372 34.2596 343.086 34.545 343.086 34.897V40.4205C343.086 40.7725 343.372 41.0579 343.724 41.0579H344.361C344.713 41.0579 344.998 40.7725 344.998 40.4205V34.897ZM340.749 35.7468H341.387C341.739 35.7468 342.024 36.0321 342.024 36.3841V40.4206C342.024 40.7725 341.739 41.0579 341.387 41.0579H340.749C340.397 41.0579 340.112 40.7725 340.112 40.4206V36.3841C340.112 36.0321 340.397 35.7468 340.749 35.7468ZM338.412 37.2338H337.775C337.423 37.2338 337.138 37.5192 337.138 37.8712V40.4205C337.138 40.7725 337.423 41.0578 337.775 41.0578H338.412C338.764 41.0578 339.05 40.7725 339.05 40.4205V37.8712C339.05 37.5192 338.764 37.2338 338.412 37.2338ZM336.076 39.1458C336.076 38.7939 335.79 38.5085 335.438 38.5085H334.801C334.449 38.5085 334.164 38.7939 334.164 39.1458V40.4205C334.164 40.7725 334.449 41.0578 334.801 41.0578H335.438C335.79 41.0578 336.076 40.7725 336.076 40.4205V39.1458Z" fill="black"/>
<path d="M166.953 41.1329H168.158V34.3971H166.958L165.198 35.6341V36.7684L166.874 35.5827H166.953V41.1329ZM169.838 41.1329H174.516V40.134H171.467V40.036L172.816 38.7289C174.044 37.5479 174.413 36.9411 174.413 36.1756V36.1615C174.413 35.0272 173.47 34.229 172.158 34.229C170.753 34.229 169.773 35.1066 169.773 36.3623L169.778 36.3763L170.898 36.3809L170.903 36.3623C170.903 35.6667 171.383 35.1953 172.098 35.1953C172.798 35.1953 173.223 35.6434 173.223 36.2642V36.2782C173.223 36.7964 172.966 37.1372 172.051 38.0614L169.838 40.3207V41.1329ZM176.528 36.7684C176.957 36.7684 177.27 36.4416 177.27 36.0308C177.27 35.6154 176.957 35.2933 176.528 35.2933C176.103 35.2933 175.785 35.6154 175.785 36.0308C175.785 36.4416 176.103 36.7684 176.528 36.7684ZM176.528 40.232C176.957 40.232 177.27 39.9099 177.27 39.4945C177.27 39.079 176.957 38.7569 176.528 38.7569C176.103 38.7569 175.785 39.079 175.785 39.4945C175.785 39.9099 176.103 40.232 176.528 40.232ZM181.723 41.1329H182.876V39.8399H183.782V38.8456H182.876V34.3971H181.172C180.258 35.7881 179.301 37.3379 178.428 38.855V39.8399H181.723V41.1329ZM179.548 38.8736V38.8036C180.202 37.66 180.981 36.4136 181.672 35.3587H181.742V38.8736H179.548ZM187.362 41.2683C188.912 41.2683 189.99 40.4654 189.99 39.3124V39.3031C189.99 38.4395 189.365 37.772 188.464 37.5899V37.5619C189.234 37.3565 189.748 36.7917 189.748 36.0682V36.0589C189.748 35.0226 188.758 34.2617 187.362 34.2617C185.967 34.2617 184.977 35.0226 184.977 36.0589V36.0682C184.977 36.7917 185.491 37.3565 186.261 37.5619V37.5899C185.365 37.772 184.734 38.4395 184.734 39.3031V39.3124C184.734 40.4654 185.813 41.2683 187.362 41.2683ZM187.362 37.1792C186.658 37.1792 186.167 36.7684 186.167 36.1802V36.1709C186.167 35.5827 186.658 35.1719 187.362 35.1719C188.067 35.1719 188.557 35.5827 188.557 36.1709V36.1802C188.557 36.7684 188.067 37.1792 187.362 37.1792ZM187.362 40.3487C186.555 40.3487 185.981 39.8819 185.981 39.2331V39.2237C185.981 38.5702 186.546 38.0988 187.362 38.0988C188.175 38.0988 188.744 38.5702 188.744 39.2237V39.2331C188.744 39.8819 188.17 40.3487 187.362 40.3487Z" fill="black"/>
<path fill-rule="evenodd" clip-rule="evenodd" d="M161.633 61.5462C161.992 61.884 162.009 62.4487 161.671 62.8075L157.148 67.6133L161.671 72.4191C162.009 72.778 161.992 73.3427 161.633 73.6804C161.274 74.0181 160.709 74.001 160.372 73.6422L155.273 68.2248C154.95 67.8813 154.95 67.3454 155.273 67.0018L160.372 61.5845C160.709 61.2256 161.274 61.2085 161.633 61.5462Z" fill="#3F8AE0"/>
<path d="M247.724 68.1481C247.69 68.7319 247.626 69.2046 247.535 69.5662C247.443 69.9234 247.291 70.2262 247.078 70.4746V70.5269H251.391V63.6257H248.012L247.724 68.1481ZM246.045 71.7947V73.6572H244.699V70.5269H245.385C245.707 70.3395 245.94 70.0498 246.084 69.6577C246.232 69.2656 246.326 68.7406 246.365 68.0827L246.712 62.3644H252.855V70.5269H254.031V73.6572H252.691V71.7947H246.045ZM258.756 64.8086C259.632 64.8086 260.333 65.1288 260.86 65.7693C261.387 66.4097 261.651 67.2723 261.651 68.3572C261.651 69.442 261.39 70.3068 260.867 70.9516C260.344 71.5921 259.649 71.9123 258.782 71.9123C258.294 71.9123 257.861 71.8012 257.481 71.579C257.107 71.3568 256.819 71.0518 256.619 70.6641H256.586V74.0689H255.175V64.9197H256.54V66.1026H256.567C256.771 65.7017 257.065 65.3859 257.449 65.155C257.832 64.9241 258.268 64.8086 258.756 64.8086ZM258.383 70.7164C258.941 70.7164 259.383 70.5051 259.71 70.0825C260.037 69.6555 260.2 69.0804 260.2 68.3572C260.2 67.6383 260.037 67.0654 259.71 66.6384C259.383 66.2115 258.941 65.998 258.383 65.998C257.843 65.998 257.407 66.2137 257.076 66.645C256.745 67.0763 256.58 67.647 256.58 68.3572C256.58 69.0717 256.743 69.6446 257.07 70.0759C257.401 70.5029 257.839 70.7164 258.383 70.7164ZM263.37 74.3565C263.104 74.3565 262.912 74.3456 262.795 74.3238V73.1801C262.864 73.1976 263.017 73.2063 263.252 73.2063C263.583 73.2063 263.842 73.13 264.03 72.9775C264.217 72.8294 264.365 72.5789 264.474 72.226C264.474 72.2216 264.496 72.1498 264.539 72.0103L264.598 71.8012L262.115 64.9197H263.644L265.389 70.5138H265.409L267.154 64.9197H268.644L266.062 72.1541C265.77 72.9863 265.428 73.5613 265.036 73.8794C264.644 74.1974 264.089 74.3565 263.37 74.3565ZM272.016 71.9254C271.21 71.9254 270.547 71.7402 270.029 71.3699C269.515 70.9996 269.227 70.4985 269.166 69.8668H270.558C270.628 70.1631 270.789 70.3918 271.042 70.553C271.295 70.7098 271.619 70.7883 272.016 70.7883C272.46 70.7883 272.804 70.6946 273.048 70.5073C273.297 70.3199 273.421 70.0716 273.421 69.7622C273.421 69.0957 272.955 68.7624 272.022 68.7624H271.016V67.7233H272.003C272.804 67.7233 273.205 67.4227 273.205 66.8214C273.205 66.5469 273.105 66.3291 272.904 66.1679C272.704 66.0024 272.41 65.9196 272.022 65.9196C271.643 65.9196 271.334 65.9958 271.094 66.1483C270.855 66.3008 270.711 66.5121 270.663 66.7822H269.31C269.384 66.1679 269.661 65.6843 270.14 65.3314C270.624 64.9742 271.249 64.7955 272.016 64.7955C272.835 64.7955 273.466 64.9654 273.911 65.3053C274.36 65.6407 274.584 66.1004 274.584 66.6842C274.584 67.0371 274.484 67.3486 274.283 67.6187C274.083 67.8888 273.817 68.0653 273.486 68.1481V68.2003C273.922 68.3005 274.253 68.4857 274.479 68.7558C274.71 69.0259 274.826 69.3592 274.826 69.7557C274.826 70.4092 274.569 70.9342 274.055 71.3307C273.545 71.7271 272.865 71.9254 272.016 71.9254ZM278.662 68.1481H277.473V70.6837H278.662C279.067 70.6837 279.39 70.5682 279.629 70.3373C279.873 70.1021 279.995 69.7949 279.995 69.4159C279.995 69.0325 279.873 68.7253 279.629 68.4944C279.385 68.2635 279.063 68.1481 278.662 68.1481ZM276.067 71.7947V64.9197H277.473V67.0436H278.786C279.583 67.0436 280.217 67.2593 280.688 67.6906C281.163 68.1176 281.4 68.6927 281.4 69.4159C281.4 70.1435 281.163 70.7229 280.688 71.1542C280.217 71.5812 279.583 71.7947 278.786 71.7947H276.067ZM285.093 68.3507H286.341V66.0307H285.093C284.687 66.0307 284.365 66.1396 284.125 66.3574C283.89 66.5709 283.772 66.8628 283.772 67.2331C283.772 67.5643 283.892 67.8344 284.132 68.0435C284.376 68.2483 284.696 68.3507 285.093 68.3507ZM286.341 71.7947V69.4355H285.295L283.629 71.7947H282.034L283.91 69.1937C283.43 69.0499 283.054 68.8081 282.779 68.4683C282.505 68.1241 282.367 67.7146 282.367 67.2397C282.367 66.5252 282.607 65.961 283.086 65.5471C283.57 65.1288 284.215 64.9197 285.021 64.9197H287.726V71.7947H286.341Z" fill="black"/>
<path d="M154.648 96.9306C154.648 93.3612 154.648 91.5765 155.343 90.2132C155.954 89.014 156.929 88.039 158.128 87.4279C159.491 86.7333 161.276 86.7333 164.845 86.7333H368.155C371.724 86.7333 373.509 86.7333 374.872 87.4279C376.071 88.039 377.046 89.014 377.657 90.2132C378.352 91.5765 378.352 93.3612 378.352 96.9306V99.4799C378.352 103.049 378.352 104.834 377.657 106.197C377.046 107.397 376.071 108.372 374.872 108.983C373.509 109.677 371.724 109.677 368.155 109.677H164.845C161.276 109.677 159.491 109.677 158.128 108.983C156.929 108.372 155.954 107.397 155.343 106.197C154.648 104.834 154.648 103.049 154.648 99.4799V96.9306Z" fill="#EBEDF0"/>
<g clip-path="url(#clip6_30_15784)">
<path d="M166.439 93.744C168.375 93.744 169.944 95.3135 169.944 97.2495C169.944 98.0452 169.679 98.7789 169.232 99.3672L171.715 101.853C171.902 102.04 171.902 102.342 171.715 102.529C171.528 102.716 171.225 102.715 171.039 102.529L168.556 100.043C167.968 100.49 167.234 100.755 166.439 100.755C164.503 100.755 162.933 99.1856 162.933 97.2495C162.933 95.3135 164.503 93.744 166.439 93.744ZM166.439 94.7C165.031 94.7 163.889 95.8415 163.889 97.2495C163.889 98.6576 165.031 99.7991 166.439 99.7991C167.847 99.7991 168.988 98.6576 168.988 97.2495C168.988 95.8415 167.847 94.7 166.439 94.7Z" fill="#818C99"/>
</g>
<path d="M184.607 101.876V94.242H178.618V101.876H179.571V95.099H183.655V101.876H184.607ZM188.627 101.976C190.251 101.976 191.256 100.855 191.256 99.0298V99.0192C191.256 97.1887 190.251 96.0724 188.627 96.0724C187.003 96.0724 185.998 97.1887 185.998 99.0192V99.0298C185.998 100.855 187.003 101.976 188.627 101.976ZM188.627 101.162C187.548 101.162 186.939 100.374 186.939 99.0298V99.0192C186.939 97.6701 187.548 96.8872 188.627 96.8872C189.706 96.8872 190.315 97.6701 190.315 99.0192V99.0298C190.315 100.374 189.706 101.162 188.627 101.162ZM192.525 101.876H193.446L196.265 97.6225H196.35V101.876H197.271V96.173H196.35L193.53 100.426H193.446V96.173H192.525V101.876ZM201.163 101.976C202.534 101.976 203.301 101.241 203.534 100.21L203.544 100.151L202.634 100.157L202.624 100.188C202.412 100.823 201.925 101.162 201.158 101.162C200.142 101.162 199.486 100.321 199.486 99.0086V98.998C199.486 97.7125 200.132 96.8872 201.158 96.8872C201.978 96.8872 202.486 97.3421 202.629 97.9029L202.634 97.9188H203.549L203.544 97.887C203.375 96.8713 202.544 96.0724 201.158 96.0724C199.56 96.0724 198.545 97.2257 198.545 98.998V99.0086C198.545 100.818 199.566 101.976 201.163 101.976ZM205.945 99.2784L208.178 101.876H209.357L206.691 98.8605L209.257 96.173H208.151L205.945 98.5589H205.654V96.173H204.734V101.876H205.654V99.2784H205.945Z" fill="#818C99"/>
<g clip-path="url(#clip7_30_15784)">
<path fill-rule="evenodd" clip-rule="evenodd" d="M361.936 96.2295C362.177 96.9695 362.873 97.5042 363.693 97.5042C364.514 97.5042 365.209 96.9695 365.451 96.2295C367.202 96.2295 368.953 96.2295 370.704 96.2295C371.021 96.2295 371.278 95.9727 371.278 95.6559C371.278 95.3391 371.021 95.0823 370.704 95.0823C368.953 95.0823 367.202 95.0823 365.451 95.0823C365.445 95.0629 365.453 95.0887 365.451 95.0823C365.209 94.3423 364.514 93.8076 363.693 93.8076C362.873 93.8076 362.177 94.3423 361.936 95.0823C361.459 95.0823 360.983 95.0823 360.507 95.0823C360.19 95.0823 359.933 95.3391 359.933 95.6559C359.933 95.9727 360.19 96.2295 360.507 96.2295C360.983 96.2295 361.459 96.2295 361.936 96.2295ZM363.693 94.9548C363.306 94.9548 362.992 95.2687 362.992 95.6559C362.992 96.0431 363.306 96.357 363.693 96.357C364.08 96.357 364.394 96.0431 364.394 95.6559C364.394 95.2687 364.08 94.9548 363.693 94.9548Z" fill="#99A2AD"/>
<path fill-rule="evenodd" clip-rule="evenodd" d="M359.933 100.755C359.933 100.438 360.19 100.181 360.507 100.181C362.258 100.181 364.009 100.181 365.76 100.181C366.001 99.441 366.697 98.9063 367.517 98.9063C368.338 98.9063 369.033 99.441 369.275 100.181C369.275 100.181 370.372 100.181 370.704 100.181C371.021 100.181 371.278 100.438 371.278 100.755C371.278 101.071 371.021 101.328 370.704 101.328C370.562 101.328 369.275 101.328 369.275 101.328C369.033 102.068 368.338 102.603 367.517 102.603C366.697 102.603 366.001 102.068 365.76 101.328C364.009 101.328 362.258 101.328 360.507 101.328C360.19 101.328 359.933 101.071 359.933 100.755ZM366.816 100.755C366.816 100.367 367.13 100.053 367.517 100.053C367.904 100.053 368.218 100.367 368.218 100.755C368.218 101.142 367.904 101.456 367.517 101.456C367.13 101.456 366.816 101.142 366.816 100.755Z" fill="#99A2AD"/>
</g>
</g>
<g clip-path="url(#clip8_30_15784)">
<path d="M175.043 134.297C175.043 129.37 171.048 125.375 166.12 125.375C161.192 125.375 157.197 129.37 157.197 134.297C157.197 139.225 161.192 143.22 166.12 143.22C171.048 143.22 175.043 139.225 175.043 134.297Z" fill="url(#paint0_linear_30_15784)"/>
<path d="M167.926 134.686C170.029 134.686 171.856 135.398 171.856 136.967C171.856 137.782 171.524 138.121 170.812 138.121H165.039C164.327 138.121 163.996 137.782 163.996 136.967C163.996 135.398 165.822 134.686 167.926 134.686ZM167.926 135.494C166.249 135.494 164.845 136.042 164.845 136.967C164.845 137.327 164.815 137.316 165.003 137.313L170.812 137.313C171.04 137.313 171.006 137.348 171.006 136.967C171.006 136.042 169.602 135.494 167.926 135.494ZM162.508 131.453C162.743 131.453 162.933 131.634 162.933 131.857V133.069H164.208C164.443 133.069 164.633 133.25 164.633 133.474C164.633 133.697 164.443 133.878 164.208 133.878H162.933V135.09C162.933 135.313 162.743 135.494 162.508 135.494C162.274 135.494 162.084 135.313 162.084 135.09V133.878H160.809C160.574 133.878 160.384 133.697 160.384 133.474C160.384 133.25 160.574 133.069 160.809 133.069H162.084V131.857C162.084 131.634 162.274 131.453 162.508 131.453ZM167.82 129.836C169.111 129.836 170.156 130.831 170.156 132.059C170.156 133.287 169.111 134.282 167.82 134.282C166.528 134.282 165.483 133.287 165.483 132.059C165.483 130.831 166.528 129.836 167.82 129.836ZM167.82 130.644C166.998 130.644 166.332 131.277 166.332 132.059C166.332 132.841 166.998 133.474 167.82 133.474C168.641 133.474 169.307 132.841 169.307 132.059C169.307 131.277 168.641 130.644 167.82 130.644Z" fill="white"/>
</g>
<path d="M186.335 132.041V130.533H192.028V132.041H192.911V129.676H191.959V122.899H187.129L186.838 127.703C186.779 128.703 186.573 129.38 186.018 129.676H185.452V132.041H186.335ZM187.732 127.724L187.98 123.756H191.006V129.676H187.197V129.613C187.573 129.163 187.679 128.586 187.732 127.724ZM196.275 130.634C197.899 130.634 198.904 129.512 198.904 127.687V127.677C198.904 125.846 197.899 124.73 196.275 124.73C194.651 124.73 193.646 125.846 193.646 127.677V127.687C193.646 129.512 194.651 130.634 196.275 130.634ZM196.275 129.819C195.196 129.819 194.587 129.031 194.587 127.687V127.677C194.587 126.327 195.196 125.545 196.275 125.545C197.354 125.545 197.963 126.327 197.963 127.677V127.687C197.963 129.031 197.354 129.819 196.275 129.819ZM202.548 130.639C204.194 130.639 205.204 129.518 205.204 127.708V127.698C205.204 125.978 204.22 124.883 202.686 124.883C201.824 124.883 201.141 125.254 200.755 125.936H200.67L200.686 125.82C200.898 124.264 201.475 123.645 202.802 123.587L203.384 123.561C204.046 123.529 204.649 123.391 204.829 123.222V122.407C204.337 122.608 203.797 122.693 203.342 122.714L202.771 122.741C200.734 122.836 199.893 124.127 199.893 127.153V127.163C199.893 129.449 200.803 130.639 202.548 130.639ZM202.548 129.824C201.459 129.824 200.834 129.047 200.834 127.708V127.698C200.834 126.423 201.459 125.698 202.548 125.698C203.638 125.698 204.263 126.423 204.263 127.698V127.708C204.263 129.047 203.638 129.824 202.548 129.824ZM208.044 130.634C208.811 130.634 209.409 130.301 209.769 129.692H209.854V130.533H210.774V126.629C210.774 125.444 209.996 124.73 208.605 124.73C207.388 124.73 206.521 125.333 206.373 126.227L206.367 126.259H207.288L207.293 126.243C207.441 125.798 207.891 125.545 208.573 125.545C209.425 125.545 209.854 125.925 209.854 126.629V127.147L208.219 127.248C206.891 127.327 206.14 127.915 206.14 128.93V128.941C206.14 129.978 206.96 130.634 208.044 130.634ZM207.081 128.92V128.909C207.081 128.343 207.462 128.036 208.33 127.983L209.854 127.888V128.407C209.854 129.221 209.171 129.835 208.235 129.835C207.573 129.835 207.081 129.496 207.081 128.92ZM212.297 130.533H214.725C215.953 130.533 216.677 129.888 216.677 128.899V128.888C216.677 128.227 216.217 127.719 215.492 127.618V127.534C216.027 127.423 216.423 126.888 216.423 126.322V126.312C216.423 125.418 215.794 124.83 214.715 124.83H212.297V130.533ZM213.218 127.243V125.592H214.582C215.223 125.592 215.508 125.92 215.508 126.407V126.417C215.508 126.957 215.175 127.243 214.434 127.243H213.218ZM213.218 129.772V128.005H214.514C215.334 128.005 215.741 128.269 215.741 128.872V128.883C215.741 129.454 215.387 129.772 214.688 129.772H213.218ZM217.973 130.533H218.893L221.713 126.28H221.798V130.533H222.718V124.83H221.798L218.978 129.084H218.893V124.83H217.973V130.533ZM228.405 124.83H223.791V125.592H225.638V130.533H226.558V125.592H228.405V124.83ZM229.472 130.533H231.509C232.816 130.533 233.652 129.782 233.652 128.602V128.592C233.652 127.412 232.816 126.661 231.509 126.661H230.393V124.83H229.472V130.533ZM231.509 127.423C232.255 127.423 232.731 127.883 232.731 128.592V128.602C232.731 129.306 232.26 129.772 231.509 129.772H230.393V127.423H231.509ZM237.729 132.041V130.533H242.189V132.041H243.046V129.772H242.136V124.83H238.247L238.025 128.01C237.972 128.777 237.766 129.496 237.348 129.772H236.872V132.041H237.729ZM241.215 129.772H238.411V129.687C238.681 129.332 238.829 128.724 238.882 128.031L239.062 125.592H241.215V129.772ZM243.987 132.438H244.907V129.634H244.992C245.304 130.242 245.986 130.634 246.769 130.634C248.219 130.634 249.161 129.475 249.161 127.687V127.677C249.161 125.899 248.214 124.73 246.769 124.73C245.976 124.73 245.341 125.105 244.992 125.74H244.907V124.83H243.987V132.438ZM246.558 129.819C245.521 129.819 244.886 129.004 244.886 127.687V127.677C244.886 126.359 245.521 125.545 246.558 125.545C247.6 125.545 248.219 126.349 248.219 127.677V127.687C248.219 129.015 247.6 129.819 246.558 129.819ZM250.721 132.533C251.731 132.533 252.202 132.163 252.673 130.882L254.9 124.83H253.932L252.371 129.523H252.287L250.721 124.83H249.737L251.847 130.539L251.742 130.877C251.535 131.533 251.218 131.771 250.694 131.771C250.567 131.771 250.424 131.766 250.313 131.745V132.501C250.44 132.523 250.599 132.533 250.721 132.533ZM259.608 125.592V124.83H255.957V130.533H256.878V125.592H259.608ZM262.146 130.634C262.913 130.634 263.511 130.301 263.871 129.692H263.955V130.533H264.876V126.629C264.876 125.444 264.098 124.73 262.707 124.73C261.49 124.73 260.623 125.333 260.474 126.227L260.469 126.259H261.39L261.395 126.243C261.543 125.798 261.993 125.545 262.675 125.545C263.527 125.545 263.955 125.925 263.955 126.629V127.147L262.321 127.248C260.993 127.327 260.242 127.915 260.242 128.93V128.941C260.242 129.978 261.062 130.634 262.146 130.634ZM261.183 128.92V128.909C261.183 128.343 261.564 128.036 262.432 127.983L263.955 127.888V128.407C263.955 129.221 263.273 129.835 262.337 129.835C261.675 129.835 261.183 129.496 261.183 128.92Z" fill="black"/>
<path d="M190.604 143.808V137.97H186.025V143.808H186.753V138.626H189.876V143.808H190.604ZM193.828 143.885C195.07 143.885 195.838 143.027 195.838 141.631V141.623C195.838 140.224 195.07 139.37 193.828 139.37C192.586 139.37 191.817 140.224 191.817 141.623V141.631C191.817 143.027 192.586 143.885 193.828 143.885ZM193.828 143.262C193.002 143.262 192.537 142.659 192.537 141.631V141.623C192.537 140.592 193.002 139.993 193.828 139.993C194.653 139.993 195.118 140.592 195.118 141.623V141.631C195.118 142.659 194.653 143.262 193.828 143.262ZM196.958 143.808H197.662L199.818 140.555H199.883V143.808H200.587V139.447H199.883L197.726 142.699H197.662V139.447H196.958V143.808ZM203.713 143.885C204.76 143.885 205.347 143.323 205.525 142.534L205.533 142.489L204.837 142.493L204.829 142.517C204.667 143.003 204.295 143.262 203.709 143.262C202.932 143.262 202.43 142.619 202.43 141.615V141.607C202.43 140.624 202.924 139.993 203.709 139.993C204.336 139.993 204.724 140.341 204.833 140.77L204.837 140.782H205.537L205.533 140.758C205.404 139.981 204.769 139.37 203.709 139.37C202.487 139.37 201.71 140.252 201.71 141.607V141.615C201.71 142.999 202.491 143.885 203.713 143.885ZM207.518 141.822L209.226 143.808H210.128L208.089 141.502L210.051 139.447H209.205L207.518 141.271H207.296V139.447H206.592V143.808H207.296V141.822H207.518ZM213.33 143.808H214.033L216.19 140.555H216.254V143.808H216.958V139.447H216.254L214.098 142.699H214.033V139.447H213.33V143.808ZM220.581 145.264H221.285V143.12H221.35C221.588 143.585 222.11 143.885 222.709 143.885C223.817 143.885 224.537 142.999 224.537 141.631V141.623C224.537 140.264 223.813 139.37 222.709 139.37C222.102 139.37 221.617 139.657 221.35 140.143H221.285V139.447H220.581V145.264ZM222.547 143.262C221.754 143.262 221.269 142.639 221.269 141.631V141.623C221.269 140.616 221.754 139.993 222.547 139.993C223.344 139.993 223.817 140.608 223.817 141.623V141.631C223.817 142.647 223.344 143.262 222.547 143.262ZM227.449 143.885C228.477 143.885 229.1 143.302 229.249 142.712L229.257 142.679H228.554L228.537 142.716C228.42 142.979 228.056 143.258 227.465 143.258C226.689 143.258 226.191 142.732 226.171 141.83H229.31V141.555C229.31 140.252 228.59 139.37 227.405 139.37C226.219 139.37 225.451 140.292 225.451 141.64V141.644C225.451 143.011 226.203 143.885 227.449 143.885ZM227.401 139.997C228.044 139.997 228.521 140.406 228.594 141.267H226.183C226.26 140.438 226.753 139.997 227.401 139.997ZM231.356 141.822L233.063 143.808H233.965L231.926 141.502L233.888 139.447H233.043L231.356 141.271H231.133V139.447H230.43V143.808H231.133V141.822H231.356ZM236.481 143.885C237.723 143.885 238.491 143.027 238.491 141.631V141.623C238.491 140.224 237.723 139.37 236.481 139.37C235.239 139.37 234.47 140.224 234.47 141.623V141.631C234.47 143.027 235.239 143.885 236.481 143.885ZM236.481 143.262C235.655 143.262 235.19 142.659 235.19 141.631V141.623C235.19 140.592 235.655 139.993 236.481 139.993C237.306 139.993 237.771 140.592 237.771 141.623V141.631C237.771 142.659 237.306 143.262 236.481 143.262ZM240.315 143.808V140.705H240.391L241.763 143.687H242.305L243.68 140.705H243.757V143.808H244.461V139.447H243.644L242.082 142.829H242.018L240.464 139.447H239.611V143.808H240.315ZM247.583 143.885C248.611 143.885 249.234 143.302 249.384 142.712L249.392 142.679H248.688L248.672 142.716C248.554 142.979 248.19 143.258 247.599 143.258C246.823 143.258 246.325 142.732 246.305 141.83H249.444V141.555C249.444 140.252 248.724 139.37 247.539 139.37C246.353 139.37 245.585 140.292 245.585 141.64V141.644C245.585 143.011 246.337 143.885 247.583 143.885ZM247.535 139.997C248.178 139.997 248.655 140.406 248.728 141.267H246.317C246.394 140.438 246.887 139.997 247.535 139.997ZM253.428 143.808H254.132V139.447H253.428V141.251H251.268V139.447H250.564V143.808H251.268V141.834H253.428V143.808ZM255.567 144.961V143.808H258.977V144.961H259.633V143.225H258.937V139.447H255.963L255.793 141.878C255.753 142.465 255.595 143.015 255.276 143.225H254.912V144.961H255.567ZM258.233 143.225H256.089V143.161C256.295 142.89 256.408 142.424 256.449 141.894L256.586 140.029H258.233V143.225ZM261.699 143.885C262.285 143.885 262.743 143.63 263.018 143.165H263.082V143.808H263.786V140.822C263.786 139.916 263.192 139.37 262.128 139.37C261.197 139.37 260.534 139.831 260.42 140.515L260.416 140.539H261.12L261.124 140.527C261.238 140.187 261.582 139.993 262.103 139.993C262.755 139.993 263.082 140.284 263.082 140.822V141.219L261.832 141.296C260.817 141.356 260.242 141.805 260.242 142.582V142.59C260.242 143.383 260.87 143.885 261.699 143.885ZM260.963 142.574V142.566C260.963 142.133 261.254 141.898 261.917 141.858L263.082 141.785V142.182C263.082 142.805 262.561 143.274 261.845 143.274C261.339 143.274 260.963 143.015 260.963 142.574ZM268.652 144.961H269.324V143.225H268.628V139.447H267.924V143.225H265.804V139.447H265.1V143.808H268.652V144.961ZM270.188 143.808H270.892L273.048 140.555H273.113V143.808H273.817V139.447H273.113L270.957 142.699H270.892V139.447H270.188V143.808ZM275.155 143.808H275.859L278.015 140.555H278.08V143.808H278.784V139.447H278.08L275.924 142.699H275.859V139.447H275.155V143.808Z" fill="#818C99"/>
<rect x="154.648" y="156.368" width="223.704" height="0.318667" fill="#D7D8D9"/>
<path d="M323.788 174.692V167.956H318.504V174.692H319.344V168.712H322.948V174.692H323.788ZM327.412 174.781C328.845 174.781 329.732 173.791 329.732 172.181V172.171C329.732 170.556 328.845 169.571 327.412 169.571C325.979 169.571 325.092 170.556 325.092 172.171V172.181C325.092 173.791 325.979 174.781 327.412 174.781ZM327.412 174.062C326.459 174.062 325.923 173.366 325.923 172.181V172.171C325.923 170.981 326.459 170.29 327.412 170.29C328.364 170.29 328.901 170.981 328.901 172.171V172.181C328.901 173.366 328.364 174.062 327.412 174.062ZM331.997 172.4L333.967 174.692H335.008L332.655 172.031L334.919 169.66H333.943L331.997 171.765H331.74V169.66H330.928V174.692H331.74V172.4H331.997ZM337.221 174.781C337.898 174.781 338.426 174.487 338.743 173.95H338.818V174.692H339.63V171.247C339.63 170.201 338.944 169.571 337.716 169.571C336.642 169.571 335.877 170.103 335.746 170.892L335.742 170.92H336.554L336.558 170.906C336.689 170.514 337.086 170.29 337.688 170.29C338.44 170.29 338.818 170.626 338.818 171.247V171.705L337.375 171.793C336.204 171.863 335.541 172.381 335.541 173.278V173.287C335.541 174.202 336.264 174.781 337.221 174.781ZM336.372 173.268V173.259C336.372 172.759 336.708 172.489 337.473 172.442L338.818 172.358V172.815C338.818 173.534 338.216 174.076 337.389 174.076C336.806 174.076 336.372 173.777 336.372 173.268ZM342.763 174.785C343.935 174.785 344.742 174.146 344.742 173.212V173.203C344.742 172.643 344.392 172.241 343.73 172.097V172.022C344.229 171.905 344.56 171.443 344.56 170.934V170.925C344.56 170.122 343.916 169.567 342.791 169.567C341.764 169.567 341.027 170.08 340.91 170.888L340.905 170.92H341.699L341.704 170.897C341.783 170.496 342.217 170.239 342.791 170.239C343.435 170.239 343.767 170.556 343.767 170.986V170.995C343.767 171.518 343.407 171.775 342.763 171.775H341.979V172.447H342.763C343.533 172.447 343.944 172.699 343.944 173.245V173.254C343.944 173.754 343.505 174.113 342.763 174.113C342.152 174.113 341.704 173.852 341.601 173.441L341.592 173.404H340.765L340.77 173.441C340.873 174.253 341.69 174.785 342.763 174.785ZM347.325 174.781C348.002 174.781 348.529 174.487 348.847 173.95H348.921V174.692H349.734V171.247C349.734 170.201 349.047 169.571 347.82 169.571C346.746 169.571 345.981 170.103 345.85 170.892L345.845 170.92H346.657L346.662 170.906C346.793 170.514 347.19 170.29 347.792 170.29C348.543 170.29 348.921 170.626 348.921 171.247V171.705L347.479 171.793C346.307 171.863 345.644 172.381 345.644 173.278V173.287C345.644 174.202 346.368 174.781 347.325 174.781ZM346.475 173.268V173.259C346.475 172.759 346.811 172.489 347.577 172.442L348.921 172.358V172.815C348.921 173.534 348.319 174.076 347.493 174.076C346.909 174.076 346.475 173.777 346.475 173.268ZM354.799 169.66H350.729V170.332H352.358V174.692H353.17V170.332H354.799V169.66ZM355.818 174.692H357.615C358.768 174.692 359.506 174.029 359.506 172.988V172.979C359.506 171.938 358.768 171.275 357.615 171.275H356.63V169.66H355.818V174.692ZM357.615 171.947C358.273 171.947 358.694 172.353 358.694 172.979V172.988C358.694 173.609 358.278 174.02 357.615 174.02H356.63V171.947H357.615ZM363.14 174.692H365.282C366.365 174.692 367.005 174.123 367.005 173.25V173.24C367.005 172.657 366.599 172.209 365.959 172.12V172.045C366.431 171.947 366.781 171.476 366.781 170.976V170.967C366.781 170.178 366.225 169.66 365.273 169.66H363.14V174.692ZM363.952 171.789V170.332H365.156C365.721 170.332 365.973 170.622 365.973 171.051V171.06C365.973 171.536 365.679 171.789 365.026 171.789H363.952ZM363.952 174.02V172.461H365.096C365.819 172.461 366.179 172.694 366.179 173.226V173.236C366.179 173.74 365.866 174.02 365.25 174.02H363.952ZM370.241 174.781C371.45 174.781 372.127 174.132 372.332 173.222L372.341 173.17L371.538 173.175L371.529 173.203C371.342 173.763 370.913 174.062 370.236 174.062C369.34 174.062 368.761 173.32 368.761 172.162V172.153C368.761 171.018 369.33 170.29 370.236 170.29C370.96 170.29 371.408 170.692 371.534 171.186L371.538 171.2H372.346L372.341 171.172C372.192 170.276 371.459 169.571 370.236 169.571C368.826 169.571 367.93 170.589 367.93 172.153V172.162C367.93 173.758 368.831 174.781 370.241 174.781ZM375.526 174.781C376.712 174.781 377.431 174.109 377.603 173.427L377.613 173.39H376.8L376.782 173.432C376.646 173.735 376.226 174.057 375.545 174.057C374.648 174.057 374.074 173.45 374.051 172.409H377.673V172.092C377.673 170.589 376.842 169.571 375.475 169.571C374.107 169.571 373.22 170.636 373.22 172.19V172.195C373.22 173.772 374.088 174.781 375.526 174.781ZM375.47 170.295C376.212 170.295 376.763 170.766 376.847 171.761H374.065C374.154 170.804 374.723 170.295 375.47 170.295Z" fill="#3F8AE0"/>
<path d="M156.103 176.182V174.675H161.399V176.182H162.642V173.527H161.689V167.041H156.452L156.182 171.532C156.119 172.559 155.944 173.183 155.405 173.527H154.86V176.182H156.103ZM157.441 171.617L157.658 168.189H160.325V173.527H156.939V173.442C157.277 173.035 157.388 172.458 157.441 171.617ZM167.365 174.675H168.683V168.892H167.365V171.183H164.926V168.892H163.609V174.675H164.926V172.204H167.365V174.675ZM170.131 174.675H171.433L173.866 170.781H173.977V174.675H175.279V168.892H173.977L171.539 172.765H171.433V168.892H170.131V174.675ZM179.361 176.595H180.679V173.754H180.769C181.07 174.378 181.731 174.77 182.525 174.77C183.99 174.77 184.9 173.632 184.9 171.791V171.781C184.9 169.95 183.975 168.797 182.525 168.797C181.716 168.797 181.086 169.167 180.769 169.797H180.679V168.892H179.361V176.595ZM182.112 173.659C181.218 173.659 180.663 172.945 180.663 171.786V171.776C180.663 170.617 181.218 169.908 182.112 169.908C183.012 169.908 183.557 170.617 183.557 171.781V171.791C183.557 172.95 183.012 173.659 182.112 173.659ZM188.571 174.791C190.301 174.791 191.354 173.659 191.354 171.786V171.776C191.354 169.913 190.296 168.781 188.571 168.781C186.852 168.781 185.788 169.919 185.788 171.776V171.786C185.788 173.659 186.836 174.791 188.571 174.791ZM188.571 173.722C187.656 173.722 187.132 173.008 187.132 171.791V171.781C187.132 170.564 187.656 169.845 188.571 169.845C189.481 169.845 190.005 170.564 190.005 171.781V171.791C190.005 173.008 189.486 173.722 188.571 173.722ZM193.189 174.675L194.94 172.156H195.273V174.675H196.553V172.156H196.892L198.643 174.675H200.199L197.94 171.564L200.077 168.892H198.596L196.876 171.236H196.553V168.892H195.273V171.236H194.95L193.236 168.892H191.745L193.892 171.58L191.639 174.675H193.189ZM201.531 176.182V174.675H205.679V176.182H206.885V173.643H205.996V168.892H201.642L201.441 171.929C201.388 172.707 201.208 173.389 200.78 173.643H200.325V176.182H201.531ZM204.673 173.643H202.187V173.553C202.441 173.188 202.573 172.633 202.621 171.998L202.769 169.924H204.673V173.643ZM210.222 174.791C211.793 174.791 212.566 173.886 212.751 173.14L212.767 173.093H211.513L211.497 173.13C211.37 173.394 210.963 173.754 210.249 173.754C209.355 173.754 208.794 173.151 208.778 172.114H212.82V171.68C212.82 169.935 211.804 168.781 210.159 168.781C208.513 168.781 207.461 169.972 207.461 171.791V171.797C207.461 173.638 208.503 174.791 210.222 174.791ZM210.175 169.813C210.91 169.813 211.444 170.284 211.534 171.231H208.788C208.889 170.31 209.439 169.813 210.175 169.813ZM217.734 174.675H219.051V168.892H217.734V171.183H215.295V168.892H213.978V174.675H215.295V172.204H217.734V174.675ZM220.5 174.675H221.801L224.235 170.781H224.346V174.675H225.647V168.892H224.346L221.907 172.765H221.801V168.892H220.5V174.675ZM230.26 174.675H231.556V168.892H229.17C227.821 168.892 226.932 169.649 226.932 170.855V170.866C226.932 171.659 227.413 172.278 228.202 172.511L226.652 174.675H228.154L229.508 172.728H230.26V174.675ZM229.27 171.76C228.641 171.76 228.249 171.379 228.249 170.86V170.85C228.249 170.273 228.635 169.903 229.27 169.903H230.26V171.76H229.27Z" fill="black"/>
<g clip-path="url(#clip9_30_15784)">
<g clip-path="url(#clip10_30_15784)">
<rect x="154.648" y="188.235" width="30.592" height="30.592" rx="15.296" fill="#CA88F2"/>
<path d="M167.219 193.209C168.008 192.273 169.126 191.544 170.351 191.5C171.575 191.455 172.864 192.252 173.115 193.448C174.102 192.469 175.897 192.485 176.866 193.483C177.548 194.187 177.789 195.241 177.676 196.214C177.562 197.187 177.113 198.094 176.585 198.922C174.606 202.021 170.944 204.717 167.142 204.674C163.657 204.636 161.193 201.437 162.265 198.636C162.783 197.289 164.309 197.068 165.213 196.396C166.075 195.749 166.458 194.112 167.219 193.209Z" fill="#171B4D"/>
<path d="M163.799 211.748C153.898 214.542 151.612 221.195 150.155 226.159C149.16 229.556 146.456 243.321 154.823 243.56C162.233 243.762 162.893 238.502 162.893 238.502C167.31 242.735 170.936 245.179 175.203 246.271C181.382 246.549 197.955 237.874 198.081 234.449C198.301 228.423 190.668 212.209 185.988 210.269C181.476 208.395 174.187 209.887 174.187 209.887L163.799 211.748Z" fill="#5C128F"/>
<path d="M163.799 211.748C165.857 211.523 166.17 206.344 165.749 205.554C165.652 205.374 165.078 205.093 164.869 204.882C164.517 204.524 163.819 204 163.765 203.114C163.706 202.189 165.596 201.546 166.375 202.934C167.069 203.681 166.49 202.282 167.641 199.411C168.956 196.135 174.711 196.855 175.45 199.393C178.011 208.197 174.333 209.579 172.726 209.775C172.868 210.139 172.862 210.421 174.292 210.259C173.467 212.989 173.155 214.32 169.841 214.795C165.061 214.915 163.799 211.748 163.799 211.748H163.799Z" fill="#FCA190"/>
<path d="M172.726 209.775L172.862 209.757C170.189 210.022 168.983 208.114 168.568 207.855C168.231 207.641 168.366 208.462 169.052 209.526C170.296 211.434 173.115 212.013 173.403 210.366C173.192 210.338 172.767 209.879 172.727 209.775L172.726 209.775Z" fill="#F07875"/>
<path d="M171.058 203.043C171.38 202.98 171.581 202.627 171.509 202.254C171.436 201.881 171.116 201.629 170.795 201.692C170.473 201.755 170.272 202.108 170.345 202.481C170.417 202.854 170.737 203.105 171.058 203.043H171.058ZM171.356 200.289C172.055 200.676 170.031 201.386 169.626 201.03C169.375 200.813 169.752 200.463 170.296 200.293C170.715 200.16 171.158 200.146 171.356 200.289ZM174.212 200.077C173.604 200.607 175.583 200.921 175.905 200.481C176.107 200.214 175.824 199.887 175.254 199.84C174.81 199.808 174.374 199.891 174.212 200.077ZM175.223 202.822C175.544 202.759 175.746 202.406 175.673 202.033C175.6 201.66 175.281 201.409 174.959 201.471C174.638 201.534 174.436 201.887 174.509 202.26C174.582 202.633 174.901 202.884 175.223 202.822Z" fill="#171B4D"/>
<path d="M173.218 203.786C173.165 203.79 173.113 203.774 173.072 203.74C173.031 203.707 173.005 203.659 172.999 203.607C172.992 203.554 173.007 203.501 173.038 203.459C173.07 203.417 173.117 203.389 173.169 203.381C173.285 203.357 173.398 203.32 173.505 203.27L173.43 203.156C173.272 202.955 173.162 202.719 173.109 202.469C173.104 202.442 173.104 202.414 173.109 202.388C173.115 202.361 173.125 202.336 173.141 202.313C173.156 202.291 173.176 202.271 173.199 202.256C173.222 202.242 173.247 202.231 173.274 202.227C173.301 202.222 173.328 202.222 173.355 202.228C173.382 202.234 173.407 202.245 173.429 202.261C173.451 202.277 173.47 202.297 173.485 202.32C173.499 202.343 173.509 202.369 173.513 202.396C173.558 202.589 173.645 202.77 173.768 202.926C173.871 203.076 173.97 203.232 173.914 203.412C173.857 203.591 173.617 203.689 173.272 203.774C173.255 203.78 173.237 203.784 173.218 203.786Z" fill="#F07875"/>
<path d="M174.446 204.885C174.531 205.164 173.94 206.099 173.01 206.099C171.903 206.099 171.178 205.168 171.464 204.82C171.607 204.646 172.332 204.844 172.969 204.86C173.732 204.854 174.396 204.684 174.446 204.885ZM163.799 211.748C165.766 215.463 169.382 219.283 172.579 219.044C175.357 217.504 174.804 212.501 174.232 209.897C173.756 209.697 173.228 209.655 172.726 209.775C172.403 212.141 171.243 213.466 169.974 213.417C168.76 213.363 166.13 212.383 165.231 210.57C164.805 209.696 163.799 211.748 163.799 211.748Z" fill="white"/>
<path d="M165.359 197.835C161.68 197.042 164.036 193.256 164.56 193.539C165.084 193.822 164.75 195.813 166.249 195.48C168.125 195.063 166.415 198.1 164.969 198.08" fill="#171B4D"/>
</g>
</g>
<path d="M193.854 205.756H194.725L198.624 200.135H198.704V205.756H199.59V198.571H198.719L194.825 204.213H194.74V198.571H193.854V205.756ZM204.639 201.106V200.389H201.203V205.756H202.07V201.106H204.639ZM207.801 205.851C209.33 205.851 210.276 204.795 210.276 203.077V203.067C210.276 201.345 209.33 200.294 207.801 200.294C206.272 200.294 205.326 201.345 205.326 203.067V203.077C205.326 204.795 206.272 205.851 207.801 205.851ZM207.801 205.084C206.785 205.084 206.213 204.342 206.213 203.077V203.067C206.213 201.798 206.785 201.061 207.801 201.061C208.817 201.061 209.389 201.798 209.389 203.067V203.077C209.389 204.342 208.817 205.084 207.801 205.084ZM211.516 207.549H212.382V204.91H212.462C212.755 205.482 213.398 205.851 214.135 205.851C215.499 205.851 216.385 204.76 216.385 203.077V203.067C216.385 201.394 215.494 200.294 214.135 200.294C213.388 200.294 212.79 200.647 212.462 201.245H212.382V200.389H211.516V207.549ZM213.936 205.084C212.96 205.084 212.362 204.317 212.362 203.077V203.067C212.362 201.828 212.96 201.061 213.936 201.061C214.916 201.061 215.499 201.818 215.499 203.067V203.077C215.499 204.327 214.916 205.084 213.936 205.084ZM217.63 205.756H219.547C220.777 205.756 221.564 205.049 221.564 203.939V203.929C221.564 202.818 220.777 202.111 219.547 202.111H218.497V200.389H217.63V205.756ZM219.547 202.828C220.249 202.828 220.697 203.262 220.697 203.929V203.939C220.697 204.601 220.254 205.039 219.547 205.039H218.497V202.828H219.547ZM228.296 205.856H229.182V205.104C231.059 205.049 232.354 203.969 232.354 202.146V202.136C232.354 200.329 231.084 199.218 229.182 199.174V198.472H228.296V199.174C226.409 199.228 225.119 200.319 225.119 202.131V202.141C225.119 203.954 226.394 205.059 228.296 205.104V205.856ZM226.036 202.141V202.131C226.036 200.827 226.922 200.03 228.296 199.975V204.302C226.907 204.257 226.036 203.441 226.036 202.141ZM229.182 199.975C230.572 200.02 231.438 200.842 231.438 202.136V202.146C231.438 203.456 230.547 204.247 229.182 204.302V199.975ZM234.675 199.313C234.973 199.313 235.222 199.064 235.222 198.76C235.222 198.462 234.973 198.213 234.675 198.213C234.371 198.213 234.122 198.462 234.122 198.76C234.122 199.064 234.371 199.313 234.675 199.313ZM236.87 199.313C237.174 199.313 237.423 199.064 237.423 198.76C237.423 198.462 237.174 198.213 236.87 198.213C236.572 198.213 236.323 198.462 236.323 198.76C236.323 199.064 236.572 199.313 236.87 199.313ZM235.815 205.851C237.079 205.851 237.846 205.134 238.031 204.407L238.04 204.367H237.174L237.154 204.412C237.01 204.735 236.562 205.079 235.835 205.079C234.879 205.079 234.266 204.432 234.241 203.321H238.105V202.983C238.105 201.379 237.219 200.294 235.76 200.294C234.301 200.294 233.355 201.429 233.355 203.087V203.092C233.355 204.775 234.281 205.851 235.815 205.851ZM235.755 201.066C236.547 201.066 237.134 201.569 237.224 202.629H234.256C234.351 201.608 234.958 201.066 235.755 201.066ZM239.415 207.175V205.756H243.612V207.175H244.419V205.039H243.563V200.389H239.903L239.694 203.381C239.644 204.103 239.45 204.78 239.056 205.039H238.608V207.175H239.415ZM242.696 205.039H240.057V204.959C240.311 204.626 240.451 204.053 240.5 203.401L240.67 201.106H242.696V205.039ZM247.551 205.851C249.08 205.851 250.026 204.795 250.026 203.077V203.067C250.026 201.345 249.08 200.294 247.551 200.294C246.022 200.294 245.076 201.345 245.076 203.067V203.077C245.076 204.795 246.022 205.851 247.551 205.851ZM247.551 205.084C246.535 205.084 245.963 204.342 245.963 203.077V203.067C245.963 201.798 246.535 201.061 247.551 201.061C248.567 201.061 249.139 201.798 249.139 203.067V203.077C249.139 204.342 248.567 205.084 247.551 205.084ZM251.266 207.549H252.132V204.91H252.212C252.506 205.482 253.148 205.851 253.885 205.851C255.249 205.851 256.135 204.76 256.135 203.077V203.067C256.135 201.394 255.244 200.294 253.885 200.294C253.138 200.294 252.54 200.647 252.212 201.245H252.132V200.389H251.266V207.549ZM253.686 205.084C252.71 205.084 252.112 204.317 252.112 203.077V203.067C252.112 201.828 252.71 201.061 253.686 201.061C254.667 201.061 255.249 201.818 255.249 203.067V203.077C255.249 204.327 254.667 205.084 253.686 205.084ZM259.591 205.851C261.12 205.851 262.066 204.795 262.066 203.077V203.067C262.066 201.345 261.12 200.294 259.591 200.294C258.063 200.294 257.116 201.345 257.116 203.067V203.077C257.116 204.795 258.063 205.851 259.591 205.851ZM259.591 205.084C258.575 205.084 258.003 204.342 258.003 203.077V203.067C258.003 201.798 258.575 201.061 259.591 201.061C260.607 201.061 261.179 201.798 261.179 203.067V203.077C261.179 204.342 260.607 205.084 259.591 205.084ZM263.301 205.756H265.586C266.741 205.756 267.424 205.149 267.424 204.218V204.208C267.424 203.585 266.99 203.107 266.308 203.013V202.933C266.811 202.828 267.185 202.325 267.185 201.793V201.783C267.185 200.941 266.592 200.389 265.576 200.389H263.301V205.756ZM264.167 202.659V201.106H265.452C266.054 201.106 266.323 201.414 266.323 201.872V201.882C266.323 202.39 266.009 202.659 265.312 202.659H264.167ZM264.167 205.039V203.376H265.387C266.159 203.376 266.542 203.625 266.542 204.193V204.203C266.542 204.74 266.209 205.039 265.551 205.039H264.167Z" fill="black"/>
<path fill-rule="evenodd" clip-rule="evenodd" d="M360.849 203.211C360.849 199.604 364.22 196.839 368.166 196.839C372.113 196.839 375.484 199.604 375.484 203.211C375.484 206.819 372.113 209.584 368.166 209.584C367.291 209.584 366.45 209.45 365.669 209.204C364.748 210.063 363.41 210.476 361.774 210.541C361.107 210.567 360.626 209.873 360.905 209.253C361.301 208.366 361.813 207.349 361.873 206.463C361.225 205.519 360.849 204.405 360.849 203.211ZM368.166 198.113C364.734 198.113 362.123 200.484 362.123 203.211C362.123 204.191 362.451 205.11 363.03 205.889C363.111 205.998 363.155 206.132 363.155 206.269C363.155 207.31 362.74 208.292 362.318 209.225C363.628 209.085 364.488 208.666 365.006 208.056C365.18 207.851 365.464 207.777 365.716 207.872C366.463 208.152 367.292 208.309 368.166 208.309C371.598 208.309 374.209 205.939 374.209 203.211C374.209 200.484 371.598 198.113 368.166 198.113Z" fill="#3F8AE0"/>
<rect x="154.648" y="230.299" width="223.704" height="0.318667" fill="#D7D8D9"/>
<path d="M323.916 249.095V242.359H318.632V249.095H319.472V243.115H323.076V249.095H323.916ZM327.54 249.183C328.973 249.183 329.86 248.194 329.86 246.583V246.574C329.86 244.959 328.973 243.974 327.54 243.974C326.107 243.974 325.22 244.959 325.22 246.574V246.583C325.22 248.194 326.107 249.183 327.54 249.183ZM327.54 248.464C326.587 248.464 326.051 247.769 326.051 246.583V246.574C326.051 245.384 326.587 244.693 327.54 244.693C328.492 244.693 329.029 245.384 329.029 246.574V246.583C329.029 247.769 328.492 248.464 327.54 248.464ZM332.125 246.803L334.095 249.095H335.136L332.783 246.434L335.047 244.063H334.071L332.125 246.168H331.868V244.063H331.056V249.095H331.868V246.803H332.125ZM337.349 249.183C338.026 249.183 338.554 248.889 338.871 248.352H338.946V249.095H339.758V245.65C339.758 244.604 339.072 243.974 337.844 243.974C336.77 243.974 336.005 244.506 335.874 245.295L335.869 245.323H336.682L336.686 245.309C336.817 244.917 337.214 244.693 337.816 244.693C338.568 244.693 338.946 245.029 338.946 245.65V246.107L337.503 246.196C336.332 246.266 335.669 246.784 335.669 247.68V247.69C335.669 248.605 336.392 249.183 337.349 249.183ZM336.5 247.671V247.662C336.5 247.162 336.836 246.891 337.601 246.845L338.946 246.761V247.218C338.946 247.937 338.344 248.478 337.517 248.478C336.934 248.478 336.5 248.18 336.5 247.671ZM342.891 249.188C344.063 249.188 344.87 248.549 344.87 247.615V247.606C344.87 247.045 344.52 246.644 343.857 246.499V246.425C344.357 246.308 344.688 245.846 344.688 245.337V245.328C344.688 244.525 344.044 243.969 342.919 243.969C341.892 243.969 341.155 244.483 341.038 245.29L341.033 245.323H341.827L341.832 245.3C341.911 244.898 342.345 244.641 342.919 244.641C343.563 244.641 343.895 244.959 343.895 245.388V245.398C343.895 245.92 343.535 246.177 342.891 246.177H342.107V246.849H342.891C343.661 246.849 344.072 247.101 344.072 247.648V247.657C344.072 248.156 343.633 248.516 342.891 248.516C342.28 248.516 341.832 248.254 341.729 247.844L341.72 247.806H340.893L340.898 247.844C341.001 248.656 341.818 249.188 342.891 249.188ZM347.453 249.183C348.13 249.183 348.657 248.889 348.975 248.352H349.049V249.095H349.862V245.65C349.862 244.604 349.175 243.974 347.948 243.974C346.874 243.974 346.108 244.506 345.978 245.295L345.973 245.323H346.785L346.79 245.309C346.921 244.917 347.318 244.693 347.92 244.693C348.671 244.693 349.049 245.029 349.049 245.65V246.107L347.607 246.196C346.435 246.266 345.772 246.784 345.772 247.68V247.69C345.772 248.605 346.496 249.183 347.453 249.183ZM346.603 247.671V247.662C346.603 247.162 346.939 246.891 347.705 246.845L349.049 246.761V247.218C349.049 247.937 348.447 248.478 347.621 248.478C347.037 248.478 346.603 248.18 346.603 247.671ZM354.927 244.063H350.857V244.735H352.486V249.095H353.298V244.735H354.927V244.063ZM355.946 249.095H357.743C358.896 249.095 359.634 248.432 359.634 247.391V247.382C359.634 246.341 358.896 245.678 357.743 245.678H356.758V244.063H355.946V249.095ZM357.743 246.35C358.401 246.35 358.822 246.756 358.822 247.382V247.391C358.822 248.012 358.406 248.422 357.743 248.422H356.758V246.35H357.743ZM363.268 249.095H365.41C366.493 249.095 367.133 248.525 367.133 247.652V247.643C367.133 247.059 366.727 246.611 366.087 246.523V246.448C366.559 246.35 366.909 245.878 366.909 245.379V245.37C366.909 244.581 366.353 244.063 365.401 244.063H363.268V249.095ZM364.08 246.191V244.735H365.284C365.849 244.735 366.101 245.024 366.101 245.454V245.463C366.101 245.939 365.807 246.191 365.153 246.191H364.08ZM364.08 248.422V246.863H365.223C365.947 246.863 366.306 247.097 366.306 247.629V247.638C366.306 248.142 365.994 248.422 365.378 248.422H364.08ZM370.369 249.183C371.578 249.183 372.255 248.535 372.46 247.624L372.469 247.573L371.666 247.578L371.657 247.606C371.47 248.166 371.041 248.464 370.364 248.464C369.468 248.464 368.889 247.722 368.889 246.565V246.555C368.889 245.421 369.458 244.693 370.364 244.693C371.088 244.693 371.536 245.094 371.662 245.589L371.666 245.603H372.474L372.469 245.575C372.32 244.679 371.587 243.974 370.364 243.974C368.954 243.974 368.058 244.992 368.058 246.555V246.565C368.058 248.161 368.959 249.183 370.369 249.183ZM375.654 249.183C376.84 249.183 377.558 248.511 377.731 247.83L377.74 247.792H376.928L376.91 247.834C376.774 248.138 376.354 248.46 375.673 248.46C374.776 248.46 374.202 247.853 374.179 246.812H377.801V246.495C377.801 244.992 376.97 243.974 375.603 243.974C374.235 243.974 373.348 245.038 373.348 246.593V246.597C373.348 248.175 374.216 249.183 375.654 249.183ZM375.598 244.697C376.34 244.697 376.891 245.169 376.975 246.163H374.193C374.282 245.206 374.851 244.697 375.598 244.697Z" fill="#3F8AE0"/>
<path d="M155.643 248.605H158.907C160.536 248.605 161.531 247.78 161.531 246.442V246.431C161.531 245.442 160.822 244.701 159.796 244.606V244.511C160.563 244.389 161.155 243.68 161.155 242.881V242.871C161.155 241.701 160.282 240.971 158.833 240.971H155.643V248.605ZM158.499 242.035C159.325 242.035 159.806 242.432 159.806 243.109V243.119C159.806 243.812 159.293 244.188 158.325 244.188H157.008V242.035H158.499ZM158.542 245.156C159.584 245.156 160.134 245.563 160.134 246.336V246.346C160.134 247.124 159.6 247.542 158.595 247.542H157.008V245.156H158.542ZM165.223 248.722C166.953 248.722 168.005 247.59 168.005 245.717V245.706C168.005 243.844 166.947 242.712 165.223 242.712C163.503 242.712 162.44 243.849 162.44 245.706V245.717C162.44 247.59 163.487 248.722 165.223 248.722ZM165.223 247.653C164.307 247.653 163.784 246.939 163.784 245.722V245.712C163.784 244.495 164.307 243.775 165.223 243.775C166.133 243.775 166.656 244.495 166.656 245.712V245.722C166.656 246.939 166.138 247.653 165.223 247.653ZM171.253 248.727C172.739 248.727 173.686 247.981 173.686 246.907V246.897C173.686 246.251 173.295 245.786 172.491 245.627V245.537C173.115 245.394 173.501 244.923 173.501 244.315V244.304C173.501 243.326 172.655 242.707 171.285 242.707C169.867 242.707 169.057 243.389 168.925 244.4L168.92 244.442H170.168L170.174 244.415C170.253 243.998 170.65 243.728 171.242 243.728C171.893 243.728 172.216 244.045 172.216 244.463V244.474C172.216 244.95 171.898 245.225 171.226 245.225H170.401V246.114H171.232C171.978 246.114 172.38 246.373 172.38 246.886V246.897C172.38 247.373 171.956 247.706 171.237 247.706C170.618 247.706 170.179 247.447 170.057 247.002L170.047 246.965H168.766L168.772 247.013C168.899 248.135 169.941 248.727 171.253 248.727ZM176.135 248.605V244.659H176.236L177.823 248.346H178.764L180.357 244.659H180.457V248.605H181.716V242.823H180.071L178.357 246.849H178.262L176.553 242.823H174.876V248.605H176.135ZM185.667 248.722C187.397 248.722 188.45 247.59 188.45 245.717V245.706C188.45 243.844 187.392 242.712 185.667 242.712C183.948 242.712 182.885 243.849 182.885 245.706V245.717C182.885 247.59 183.932 248.722 185.667 248.722ZM185.667 247.653C184.752 247.653 184.229 246.939 184.229 245.722V245.712C184.229 244.495 184.752 243.775 185.667 243.775C186.577 243.775 187.101 244.495 187.101 245.712V245.722C187.101 246.939 186.583 247.653 185.667 247.653ZM190.285 248.605L192.036 246.087H192.37V248.605H193.65V246.087H193.988L195.74 248.605H197.295L195.036 245.495L197.173 242.823H195.692L193.973 245.167H193.65V242.823H192.37V245.167H192.047L190.333 242.823H188.841L190.989 245.511L188.735 248.605H190.285ZM201.913 248.605H203.23V242.823H201.913V245.114H199.474V242.823H198.156V248.605H199.474V246.135H201.913V248.605ZM204.679 248.605H207.139C208.488 248.605 209.35 247.822 209.35 246.595V246.584C209.35 245.357 208.488 244.569 207.139 244.569H205.996V242.823H204.679V248.605ZM210.297 248.605H211.614V242.823H210.297V248.605ZM206.969 245.585C207.61 245.585 208.022 245.981 208.022 246.579V246.59C208.022 247.182 207.615 247.59 206.969 247.59H205.996V245.585H206.969ZM215.544 248.722C217.115 248.722 217.888 247.817 218.073 247.071L218.089 247.024H216.835L216.819 247.061C216.692 247.325 216.285 247.685 215.571 247.685C214.677 247.685 214.116 247.082 214.1 246.045H218.142V245.611C218.142 243.865 217.126 242.712 215.481 242.712C213.835 242.712 212.783 243.902 212.783 245.722V245.727C212.783 247.568 213.825 248.722 215.544 248.722ZM215.497 243.744C216.232 243.744 216.766 244.214 216.856 245.161H214.111C214.211 244.241 214.761 243.744 215.497 243.744ZM222.473 250.113V248.605H226.621V250.113H227.827V247.574H226.938V242.823H222.584L222.383 245.86C222.33 246.637 222.15 247.32 221.722 247.574H221.267V250.113H222.473ZM225.615 247.574H223.129V247.484C223.383 247.119 223.515 246.563 223.563 245.928L223.711 243.855H225.615V247.574ZM228.688 250.526H230.006V247.685H230.096C230.397 248.309 231.058 248.701 231.852 248.701C233.317 248.701 234.227 247.563 234.227 245.722V245.712C234.227 243.881 233.302 242.728 231.852 242.728C231.043 242.728 230.413 243.098 230.096 243.728H230.006V242.823H228.688V250.526ZM231.439 247.59C230.545 247.59 229.99 246.875 229.99 245.717V245.706C229.99 244.548 230.545 243.839 231.439 243.839C232.339 243.839 232.884 244.548 232.884 245.712V245.722C232.884 246.881 232.339 247.59 231.439 247.59ZM235.787 250.637C237.068 250.637 237.729 250.177 238.226 248.727L240.3 242.823H238.914L237.57 247.341H237.47L236.121 242.823H234.682L236.75 248.611L236.681 248.875C236.538 249.399 236.216 249.621 235.676 249.621C235.539 249.621 235.39 249.616 235.285 249.605V250.616C235.443 250.632 235.629 250.637 235.787 250.637ZM243.209 248.727C244.695 248.727 245.642 247.981 245.642 246.907V246.897C245.642 246.251 245.251 245.786 244.447 245.627V245.537C245.071 245.394 245.457 244.923 245.457 244.315V244.304C245.457 243.326 244.611 242.707 243.241 242.707C241.823 242.707 241.013 243.389 240.881 244.4L240.876 244.442H242.124L242.13 244.415C242.209 243.998 242.606 243.728 243.198 243.728C243.849 243.728 244.172 244.045 244.172 244.463V244.474C244.172 244.95 243.854 245.225 243.182 245.225H242.357V246.114H243.188C243.934 246.114 244.336 246.373 244.336 246.886V246.897C244.336 247.373 243.912 247.706 243.193 247.706C242.574 247.706 242.135 247.447 242.013 247.002L242.003 246.965H240.722L240.728 247.013C240.855 248.135 241.897 248.727 243.209 248.727ZM246.832 248.605H249.292C250.641 248.605 251.503 247.822 251.503 246.595V246.584C251.503 245.357 250.641 244.569 249.292 244.569H248.149V242.823H246.832V248.605ZM249.123 245.585C249.763 245.585 250.175 245.981 250.175 246.579V246.59C250.175 247.182 249.768 247.59 249.123 247.59H248.149V245.585H249.123ZM255.735 248.605H257.031V242.823H254.645C253.296 242.823 252.407 243.58 252.407 244.786V244.796C252.407 245.59 252.889 246.209 253.677 246.442L252.127 248.605H253.629L254.984 246.659H255.735V248.605ZM254.746 245.69C254.116 245.69 253.724 245.31 253.724 244.791V244.78C253.724 244.204 254.111 243.833 254.746 243.833H255.735V245.69H254.746Z" fill="black"/>
<g clip-path="url(#clip11_30_15784)">
<g clip-path="url(#clip12_30_15784)">
<rect x="154.648" y="263.44" width="45.888" height="45.888" rx="22.944" fill="#5251FC"/>
<path d="M196.01 254.941C192.094 260.521 184.589 275.459 181.325 282.23V298.75C180.102 300.708 180.811 301.32 193.44 288.104C209.226 271.584 196.989 253.595 196.01 254.941Z" fill="#232EB2"/>
<path d="M153.914 252.493C156.459 249.948 166.559 269.136 171.291 279.048C172.922 279.497 176.284 280.395 176.675 280.395C177.067 280.395 176.104 292.632 175.574 298.75C174.636 298.343 171.585 296.841 166.885 294.1C161.011 290.674 154.526 281.741 152.445 279.048C151.344 277.623 150.365 273.582 150.365 272.196C150.487 266.689 151.369 255.039 153.914 252.493Z" fill="#232EB2"/>
<path d="M182.327 270.482C184.187 271.755 184.162 274.276 183.918 275.377C179.423 275.908 170.365 276.968 170.089 276.968C169.6 274.643 168.988 273.664 172.292 269.87C175.596 266.077 180.002 268.891 182.327 270.482Z" fill="#FE007E"/>
<path d="M173.795 289.083C175.949 288.789 175.631 285.657 175.631 284.188L180.159 283.209C180.159 284.555 180.452 287.419 181.627 288.104C184.173 289.083 188.643 287.533 190.56 286.636C191.907 286.309 194.672 285.338 194.966 284.066C195.553 280.443 194.15 274.643 193.375 272.196L196.557 271.828C198.025 276.193 200.815 285.265 200.228 286.636C198.662 290.649 190.928 293.284 187.256 294.1L187.501 298.628C187.893 302.74 186.604 309.071 185.91 311.722H172.816C172.816 308.54 171.837 306.093 170.614 302.299C169.635 299.264 168.819 299.077 168.533 299.362C168.533 299.362 163.604 302.377 164.373 304.135C165.141 305.893 166.494 308.01 167.432 309.519L166.331 313.435C164.373 311.518 160.187 306.827 159.111 303.401C157.764 299.118 164.373 294.467 166.331 292.265C167.897 290.503 171.96 289.409 173.795 289.083Z" fill="#FFA38A"/>
<path d="M192.828 271.461C190.185 267.741 190.591 265.016 191.08 264.119C191.187 263.924 191.21 263.507 191.835 263.262C191.993 262.806 193.157 261.599 194.384 262.65C195.069 263.336 195.374 264.005 195.44 264.253C196.832 264.597 196.832 268.034 196.832 268.769C196.146 271.608 197.479 274.521 197.968 276.234L194.542 276.846C194.052 275.132 194.101 273.615 192.828 271.461Z" fill="#FFA38A"/>
<path fill-rule="evenodd" clip-rule="evenodd" d="M181.821 247.802C182.046 247.653 182.35 247.715 182.499 247.941L197.07 269.994C197.219 270.22 197.157 270.523 196.932 270.672C196.706 270.821 196.402 270.759 196.253 270.534L181.682 248.48C181.533 248.255 181.595 247.951 181.821 247.802Z" fill="#121E48"/>
<path d="M192.825 266.25C192.091 266.495 192.458 265.271 194.661 264.292C194.212 263.64 193.095 262.506 192.213 263.191C191.901 263.434 191.805 263.372 191.868 263.191C192.025 262.735 193.189 261.528 194.416 262.579C195.101 263.265 195.406 263.933 195.472 264.182C196.864 264.525 197.019 268.575 196.693 269.88L195.388 269.228C195.51 268.127 196.129 267.107 195.273 267.597C194 268.38 193.852 268.004 193.938 267.719C193.723 267.921 193.479 268.101 193.192 268.208C192.409 268.502 193.927 266.454 194.783 265.394C194.375 265.598 193.413 266.055 192.825 266.25Z" fill="#FFA38A"/>
<path d="M194.661 264.292C192.458 265.271 192.091 266.495 192.825 266.25C193.413 266.055 194.375 265.598 194.783 265.394C193.927 266.454 192.409 268.502 193.192 268.208C193.479 268.101 193.723 267.921 193.938 267.719M194.661 264.292C194.083 264.008 193.095 262.506 192.213 263.191C191.901 263.434 191.805 263.372 191.868 263.191C192.025 262.735 193.189 261.528 194.416 262.579C195.101 263.265 195.406 263.933 195.472 264.182M194.661 264.292C194.974 264.153 195.242 264.125 195.472 264.182M193.938 267.719C194.458 267.23 194.804 266.618 195.15 266.618M193.938 267.719C193.852 268.004 194 268.38 195.273 267.597C196.129 267.107 195.51 268.127 195.388 269.228M196.693 269.88C197.019 268.412 196.864 264.525 195.472 264.182" stroke="#F07875" stroke-width="0.122368"/>
</g>
</g>
<path d="M209.076 273.44H213.351V272.539H210.121V270.443H213.179V269.575H210.121V267.605H213.351V266.704H209.076V273.44ZM215.953 271.199L217.768 273.44H219.019L216.774 270.733L218.926 268.371H217.745L215.948 270.443H215.696V268.371H214.683V273.44H215.696V271.199H215.953ZM221.172 273.524C221.845 273.524 222.377 273.235 222.676 272.721H222.755V273.44H223.759V269.972C223.759 268.907 223.04 268.273 221.765 268.273C220.612 268.273 219.814 268.828 219.693 269.659L219.688 269.692H220.664L220.668 269.673C220.79 269.314 221.158 269.108 221.719 269.108C222.405 269.108 222.755 269.416 222.755 269.972V270.42L221.383 270.499C220.174 270.574 219.492 271.101 219.492 272.007V272.016C219.492 272.936 220.206 273.524 221.172 273.524ZM220.5 271.974V271.965C220.5 271.507 220.818 271.255 221.518 271.213L222.755 271.134V271.568C222.755 272.222 222.199 272.716 221.443 272.716C220.897 272.716 220.5 272.441 220.5 271.974ZM228.913 268.371H224.707V269.169H226.304V273.44H227.317V269.169H228.913V268.371ZM231.855 273.538C233.153 273.538 233.853 272.791 234.021 272.124L234.03 272.082L233.055 272.086L233.036 272.124C232.915 272.385 232.527 272.707 231.878 272.707C231.043 272.707 230.511 272.142 230.492 271.171H234.086V270.817C234.086 269.295 233.218 268.273 231.804 268.273C230.389 268.273 229.474 269.332 229.474 270.915V270.919C229.474 272.525 230.371 273.538 231.855 273.538ZM231.808 269.103C232.494 269.103 233.003 269.542 233.083 270.448H230.506C230.595 269.575 231.117 269.103 231.808 269.103ZM235.231 275.13H236.244V272.637H236.319C236.589 273.183 237.182 273.524 237.878 273.524C239.166 273.524 239.978 272.516 239.978 270.91V270.901C239.978 269.304 239.157 268.282 237.878 268.282C237.168 268.282 236.613 268.613 236.319 269.169H236.244V268.371H235.231V275.13ZM237.593 272.66C236.748 272.66 236.225 271.993 236.225 270.91V270.901C236.225 269.818 236.748 269.15 237.593 269.15C238.438 269.15 238.947 269.808 238.947 270.901V270.91C238.947 271.998 238.438 272.66 237.593 272.66ZM241.132 273.44H242.136L244.428 269.869H244.517V273.44H245.52V268.371H244.517L242.225 271.928H242.136V268.371H241.132V273.44ZM250.231 273.44H251.24V268.371H250.231V270.415H247.93V268.371H246.917V273.44H247.93V271.218H250.231V273.44ZM254.023 273.524C254.695 273.524 255.227 273.235 255.526 272.721H255.605V273.44H256.609V269.972C256.609 268.907 255.89 268.273 254.616 268.273C253.463 268.273 252.664 268.828 252.543 269.659L252.538 269.692H253.514L253.519 269.673C253.64 269.314 254.009 269.108 254.569 269.108C255.255 269.108 255.605 269.416 255.605 269.972V270.42L254.233 270.499C253.024 270.574 252.342 271.101 252.342 272.007V272.016C252.342 272.936 253.057 273.524 254.023 273.524ZM253.351 271.974V271.965C253.351 271.507 253.668 271.255 254.368 271.213L255.605 271.134V271.568C255.605 272.222 255.05 272.716 254.294 272.716C253.747 272.716 253.351 272.441 253.351 271.974ZM263.319 273.603C264.822 273.603 265.919 272.744 266.115 271.451V271.423H265.079L265.069 271.442C264.878 272.203 264.21 272.679 263.319 272.679C262.105 272.679 261.349 271.676 261.349 270.079V270.07C261.349 268.469 262.105 267.465 263.314 267.465C264.201 267.465 264.878 268.002 265.074 268.828V268.842H266.11L266.115 268.819C265.938 267.479 264.799 266.541 263.314 266.541C261.442 266.541 260.28 267.894 260.28 270.07V270.079C260.28 272.25 261.447 273.603 263.319 273.603ZM268.581 271.199L270.397 273.44H271.648L269.402 270.733L271.554 268.371H270.373L268.576 270.443H268.324V268.371H267.311V273.44H268.324V271.199H268.581ZM274.482 273.538C275.967 273.538 276.877 272.544 276.877 270.91V270.901C276.877 269.267 275.962 268.273 274.482 268.273C272.998 268.273 272.083 269.272 272.083 270.901V270.91C272.083 272.544 272.993 273.538 274.482 273.538ZM274.482 272.693C273.609 272.693 273.119 272.035 273.119 270.91V270.901C273.119 269.776 273.609 269.117 274.482 269.117C275.35 269.117 275.845 269.776 275.845 270.901V270.91C275.845 272.03 275.35 272.693 274.482 272.693ZM280.211 273.538C281.7 273.538 282.62 272.53 282.62 270.919V270.91C282.62 269.407 281.742 268.445 280.388 268.445C279.609 268.445 279.011 268.777 278.675 269.384H278.596L278.61 269.286C278.787 267.969 279.301 267.437 280.463 267.39L281.014 267.367C281.579 267.344 282.111 267.232 282.288 267.096V266.251C281.868 266.41 281.373 266.485 280.962 266.503L280.402 266.527C278.568 266.606 277.784 267.782 277.784 270.443V270.453C277.784 272.464 278.619 273.538 280.211 273.538ZM280.202 272.693C279.319 272.693 278.815 272.04 278.815 270.933V270.924C278.815 269.874 279.319 269.272 280.202 269.272C281.079 269.272 281.588 269.874 281.588 270.924V270.933C281.588 272.04 281.079 272.693 280.202 272.693ZM285.902 273.538C287.2 273.538 287.9 272.791 288.068 272.124L288.077 272.082L287.102 272.086L287.083 272.124C286.962 272.385 286.574 272.707 285.926 272.707C285.09 272.707 284.558 272.142 284.539 271.171H288.133V270.817C288.133 269.295 287.265 268.273 285.851 268.273C284.436 268.273 283.522 269.332 283.522 270.915V270.919C283.522 272.525 284.418 273.538 285.902 273.538ZM285.856 269.103C286.542 269.103 287.051 269.542 287.13 270.448H284.553C284.642 269.575 285.165 269.103 285.856 269.103ZM291.472 267.67C292.471 267.67 293.134 267.003 293.134 266.107H292.303C292.298 266.611 291.99 267.05 291.472 267.05C290.959 267.05 290.641 266.611 290.637 266.107H289.806C289.806 267.003 290.469 267.67 291.472 267.67ZM289.274 273.44H290.277L292.569 269.869H292.658V273.44H293.661V268.371H292.658L290.366 271.928H290.277V268.371H289.274V273.44ZM296.328 271.199L298.144 273.44H299.395L297.149 270.733L299.301 268.371H298.12L296.323 270.443H296.071V268.371H295.058V273.44H296.071V271.199H296.328ZM302.229 273.538C303.714 273.538 304.624 272.544 304.624 270.91V270.901C304.624 269.267 303.709 268.273 302.229 268.273C300.745 268.273 299.83 269.272 299.83 270.901V270.91C299.83 272.544 300.74 273.538 302.229 273.538ZM302.229 272.693C301.356 272.693 300.866 272.035 300.866 270.91V270.901C300.866 269.776 301.356 269.117 302.229 269.117C303.098 269.117 303.592 269.776 303.592 270.901V270.91C303.592 272.03 303.098 272.693 302.229 272.693Z" fill="black"/>
</g>
</g>
<path d="M195.383 22.353H191V9.60144H340.033V22.353H336.048C333.848 22.353 332.064 24.137 332.064 26.3378V27.5333C332.064 35.456 325.641 41.8787 317.718 41.8787H213.714C205.791 41.8787 199.368 35.456 199.368 27.5333V26.3378C199.368 24.137 197.584 22.353 195.383 22.353Z" fill="#222222"/>
<path d="M240.412 29.1272C240.412 27.8068 241.483 26.7363 242.803 26.7363H276.276C277.596 26.7363 278.667 27.8068 278.667 29.1272C278.667 30.4477 277.596 31.5181 276.276 31.5181H242.803C241.483 31.5181 240.412 30.4477 240.412 29.1272Z" fill="#3C3C3C"/>
<path d="M289.824 29.1272C289.824 30.4477 288.754 31.5181 287.433 31.5181C286.113 31.5181 285.042 30.4477 285.042 29.1272C285.042 27.8068 286.113 26.7363 287.433 26.7363C288.754 26.7363 289.824 27.8068 289.824 29.1272Z" fill="#3C3C3C"/>
</g>
<rect x="141.376" y="16.3758" width="250.248" height="527.248" rx="33.6242" stroke="#222222" stroke-width="12.7515"/>
</g>
<defs>
<linearGradient id="paint0_linear_30_15784" x1="148.275" y1="134.297" x2="166.12" y2="152.143" gradientUnits="userSpaceOnUse">
<stop stop-color="#70B2FF"/>
<stop offset="1" stop-color="#5C9CE6"/>
</linearGradient>
<clipPath id="clip0_30_15784">
<rect width="534" height="272" fill="white"/>
</clipPath>
<clipPath id="clip1_30_15784">
<rect width="396" height="272" fill="white" transform="translate(69)"/>
</clipPath>
<clipPath id="clip2_30_15784">
<rect x="135" y="10" width="263" height="540" rx="40" fill="white"/>
</clipPath>
<clipPath id="clip3_30_15784">
<rect x="147" y="23" width="239" height="517.515" rx="8.92267" fill="white"/>
</clipPath>
<clipPath id="clip4_30_15784">
<rect width="239" height="509.576" fill="white" transform="translate(147 23)"/>
</clipPath>
<clipPath id="clip5_30_15784">
<path d="M147 23H386V114.776H147V23Z" fill="white"/>
</clipPath>
<clipPath id="clip6_30_15784">
<rect width="10.1973" height="10.1973" fill="white" transform="translate(162.296 93.1066)"/>
</clipPath>
<clipPath id="clip7_30_15784">
<rect width="25.4933" height="22.944" fill="white" transform="translate(352.859 86.7333)"/>
</clipPath>
<clipPath id="clip8_30_15784">
<rect width="17.8453" height="17.8453" fill="white" transform="translate(157.197 125.375)"/>
</clipPath>
<clipPath id="clip9_30_15784">
<rect width="38.24" height="38.24" fill="white" transform="translate(154.648 184.411)"/>
</clipPath>
<clipPath id="clip10_30_15784">
<rect x="154.648" y="188.235" width="30.592" height="30.592" rx="15.296" fill="white"/>
</clipPath>
<clipPath id="clip11_30_15784">
<rect width="53.536" height="53.536" fill="white" transform="translate(154.648 259.616)"/>
</clipPath>
<clipPath id="clip12_30_15784">
<rect x="154.648" y="263.44" width="45.888" height="45.888" rx="22.944" fill="white"/>
</clipPath>
</defs>
</svg>
