<svg width="56" height="56" viewBox="0 0 56 56" fill="none" xmlns="http://www.w3.org/2000/svg">
<path d="M9.09296 9.15296C6 12.2459 6 17.2239 6 27.18V28.94C6 38.896 6 43.874 9.09296 46.967C12.1859 50.06 17.1639 50.06 27.12 50.06H28.88C38.836 50.06 43.814 50.06 46.907 46.967C50 43.874 50 38.896 50 28.94V27.18C50 17.2239 50 12.2459 46.907 9.15296C46.2441 8.49004 45.4945 7.9692 44.628 7.56H11.372C10.5054 7.9692 9.75588 8.49004 9.09296 9.15296Z" fill="#FFB042"/>
<path d="M11.0964 31.1682C10.9999 30.1072 10.9999 28.7877 11 27.3709L11 7.6377C11.6043 7.32612 12.2672 7.07382 13 6.86953C13.8834 6.62326 14.8684 6.44674 15.9748 6.32021C16.1165 6.304 16.2602 6.28861 16.406 6.27401C19.1397 6 22.5888 6 27.027 6H28.787C33.425 6 36.9827 6 39.7728 6.31269C40.8784 6.43659 41.8635 6.60961 42.7475 6.85118C42.894 6.89121 43.0377 6.93312 43.1788 6.977C44.0943 7.26191 44.8967 7.62991 45.61 8.10522V27.3713C45.61 28.788 45.6101 30.1072 45.5135 31.1682C45.419 32.2076 45.1863 33.7813 44.1217 35.1263C42.8271 36.7621 40.8609 37.7235 38.775 37.7414C37.0598 37.7558 35.6747 36.9733 34.7965 36.4101C33.9005 35.8353 32.8601 35.026 31.7432 34.1572L28.8213 31.8843C28.6153 31.724 28.4455 31.5932 28.305 31.4862C28.1645 31.5932 27.9947 31.7241 27.7886 31.8843L24.8701 34.1546C23.7518 35.0246 22.7102 35.8349 21.8133 36.4102C20.9351 36.9733 19.5497 37.7558 17.8345 37.7414C15.7486 37.7235 13.7829 36.762 12.4883 35.1264C11.4236 33.7813 11.191 32.2073 11.0964 31.1682Z" fill="white"/>
<path fill-rule="evenodd" clip-rule="evenodd" d="M24.1541 27.5199C24.1415 27.5297 24.1288 27.5395 24.1162 27.5494C24.0904 27.5695 24.0645 27.5897 24.0386 27.6099C24.0773 27.5798 24.1158 27.5497 24.1541 27.5199Z" fill="#F77FFF"/>
<path d="M28.787 6H27.027C22.3521 6 18.7748 6 15.9748 6.32021V27.1912C15.9748 28.7823 15.9762 29.8725 16.0489 30.6711C16.1239 31.4951 16.2574 31.7154 16.2959 31.764C16.5752 32.117 16.9994 32.3245 17.4495 32.3282C17.5115 32.3288 17.7673 32.2989 18.4636 31.8524C19.1386 31.4194 20 30.7512 21.2559 29.7743L24.0386 27.6099L24.1162 27.5494L24.1541 27.5199L24.1741 27.5042L24.2221 27.4668C25.0808 26.7967 25.8334 26.2094 26.7077 25.9726C27.4713 25.7659 28.2763 25.7659 29.0399 25.9726C29.9142 26.2094 30.6668 26.7967 31.5254 27.4668L31.709 27.6099L34.4916 29.7743C35.7475 30.7512 36.609 31.4194 37.284 31.8524C37.9802 32.2989 38.236 32.3288 38.298 32.3282C38.7481 32.3245 39.1723 32.117 39.4517 31.764C39.4902 31.7154 39.6236 31.4951 39.6986 30.6711C39.7713 29.8725 39.7728 28.7823 39.7728 27.1912V6.31269C36.9827 6 33.425 6 28.787 6Z" fill="#F77FFF"/>
</svg>
