<svg height="150" viewBox="0 0 204 116" fill="none" xmlns="http://www.w3.org/2000/svg">
<g clip-path="url(#clip0_49_17125)">
<rect width="204" height="116" fill="#FFB042"/>
<path d="M-6.36137 -19.348C17.8494 -33.3261 29.9548 -40.3151 41.8185 -37.1362C53.6822 -33.9574 60.6713 -21.852 74.6494 2.35875L77.1204 6.63864C91.0983 30.8492 98.0873 42.9545 94.9085 54.8184C91.7297 66.6823 79.6243 73.6713 55.4136 87.6494L51.1337 90.1204C26.9231 104.098 14.8178 111.087 2.95388 107.908C-8.91005 104.73 -15.899 92.6242 -29.877 68.4136L-32.348 64.1337C-46.3261 39.923 -53.3152 27.8176 -50.1361 15.9538C-46.9572 4.08997 -34.8519 -2.89903 -10.6413 -16.877L-6.36137 -19.348Z" fill="#F77FFF"/>
<path d="M128.043 70.2268C141.986 50.7923 148.958 41.075 159.327 39.3691C169.696 37.6632 179.413 44.6348 198.848 58.578L202.283 61.0428C221.717 74.9859 231.435 81.9575 233.141 92.3266C234.847 102.696 227.875 112.413 213.932 131.848L211.467 135.283C197.524 154.717 190.552 164.435 180.183 166.141C169.814 167.847 160.097 160.875 140.662 146.932L137.227 144.467C117.792 130.524 108.075 123.552 106.369 113.183C104.663 102.814 111.635 93.0967 125.578 73.6623L128.043 70.2268Z" fill="#F77FFF"/>
<path d="M171.604 83.6736C170.41 84.8672 170.41 86.7882 170.41 90.6304V91.3096C170.41 95.1517 170.41 97.0727 171.604 98.2664C172.797 99.46 174.718 99.46 178.56 99.46H179.24C183.082 99.46 185.003 99.46 186.196 98.2664C187.39 97.0727 187.39 95.1517 187.39 91.3096V90.6304C187.39 86.7882 187.39 84.8672 186.196 83.6736C185.934 83.4112 185.636 83.2064 185.291 83.0467V92.8241C185.291 94.7728 183.172 95.9509 181.559 94.8992L178.835 93.1241L176.254 94.8512C174.642 95.9295 172.497 94.7539 172.497 92.792V83.0521C172.157 83.2111 171.863 83.4141 171.604 83.6736Z" fill="white"/>
<path d="M179.24 82.48H178.56C177.087 82.48 175.897 82.48 174.921 82.5472V92.792L177.503 91.065C178.303 90.5299 179.338 90.5237 180.144 91.049L182.867 92.8241V82.5464C181.894 82.48 180.707 82.48 179.24 82.48Z" fill="white"/>
<path d="M23.319 30C27.014 30 29.6201 27.3103 29.6201 23.491C29.6201 19.6897 27.014 17 23.319 17C19.624 17 17 19.6897 17 23.491C17 27.3103 19.624 30 23.319 30ZM23.319 28.5834C20.5165 28.5834 18.5887 26.5214 18.5887 23.491C18.5887 20.4786 20.5165 18.3986 23.319 18.3986C26.1215 18.3986 28.0493 20.4786 28.0493 23.491C28.0493 26.5214 26.1215 28.5834 23.319 28.5834Z" fill="white"/>
<path d="M43.4739 29.8207L39.1184 25.0869L43.1169 20.6221H41.3854L37.9581 24.4772H37.3869V20.6221H35.9589V29.8207H37.3869V25.84H37.9403L41.5817 29.8207H43.4739Z" fill="white"/>
<path d="M47.9286 20.4428C46.3221 20.4428 44.9298 21.2855 44.4121 22.6841L45.7509 22.8993C46.1614 22.1462 46.9469 21.68 47.8751 21.68C49.1424 21.68 49.9635 22.5586 50.0528 24.2441H47.9108C45.2868 24.2441 43.9302 25.4097 43.9302 27.1131C43.9302 28.8166 45.2332 30 47.0897 30C48.6783 30 49.5887 29.1752 50.1242 28.3683L50.5169 29.8207H51.4808V24.6745C51.4808 21.931 50.0885 20.4428 47.9286 20.4428ZM47.3574 28.7628C46.1614 28.7628 45.376 28.1172 45.376 27.0772C45.376 26.109 46.0722 25.4814 47.9286 25.4814H50.0528V25.7145C50.0528 27.7586 48.8747 28.7628 47.3574 28.7628Z" fill="white"/>
<path d="M60.0725 24.5131H55.3243V20.6221H53.8963V29.8207H55.3243V25.8221H60.0725V29.8207H61.5005V20.6221H60.0725V24.5131Z" fill="white"/>
<path d="M67.4697 20.4428C65.8632 20.4428 64.4709 21.2855 63.9533 22.6841L65.292 22.8993C65.7026 22.1462 66.488 21.68 67.4162 21.68C68.6836 21.68 69.5047 22.5586 69.5939 24.2441H67.4519C64.8279 24.2441 63.4713 25.4097 63.4713 27.1131C63.4713 28.8166 64.7744 30 66.6308 30C68.2195 30 69.1298 29.1752 69.6653 28.3683L70.058 29.8207H71.0219V24.6745C71.0219 21.931 69.6296 20.4428 67.4697 20.4428ZM66.8985 28.7628C65.7026 28.7628 64.9172 28.1172 64.9172 27.0772C64.9172 26.109 65.6133 25.4814 67.4697 25.4814H69.5939V25.7145C69.5939 27.7586 68.4158 28.7628 66.8985 28.7628Z" fill="white"/>
<path d="M74.2449 26.8083C74.1556 28.0814 73.8343 28.4938 72.7812 28.4938C72.6919 28.4938 72.4242 28.4938 72.1921 28.4759L72.3171 29.8566C72.567 29.8924 72.799 29.9103 73.0132 29.9103C74.584 29.9103 75.5301 28.8345 75.6551 26.7724L75.9585 21.931H79.3679V29.8207H80.7959V20.6221H74.6376L74.2449 26.8083Z" fill="white"/>
<path d="M86.7494 20.4428C85.1429 20.4428 83.7506 21.2855 83.2329 22.6841L84.5717 22.8993C84.9822 22.1462 85.7676 21.68 86.6959 21.68C87.9632 21.68 88.7843 22.5586 88.8736 24.2441H86.7316C84.1076 24.2441 82.7509 25.4097 82.7509 27.1131C82.7509 28.8166 84.054 30 85.9104 30C87.4991 30 88.4095 29.1752 88.945 28.3683L89.3377 29.8207H90.3016V24.6745C90.3016 21.931 88.9093 20.4428 86.7494 20.4428ZM86.1782 28.7628C84.9822 28.7628 84.1968 28.1172 84.1968 27.0772C84.1968 26.109 84.893 25.4814 86.7494 25.4814H88.8736V25.7145C88.8736 27.7586 87.6955 28.7628 86.1782 28.7628Z" fill="white"/>
<path d="M93.2348 29.8207L95.7159 25.9834H95.9837L98.3042 29.8207H100L96.9476 24.9793L99.6787 20.6221H98.0722L95.948 24.0648H95.6802L93.6275 20.6221H91.9852L94.6985 25.1048L91.6104 29.8207H93.2348Z" fill="white"/>
</g>
<defs>
<clipPath id="clip0_49_17125">
<rect width="204" height="116" fill="white"/>
</clipPath>
</defs>
</svg>
