<svg height="150" viewBox="0 0 204 116" fill="none" xmlns="http://www.w3.org/2000/svg">
<g clip-path="url(#clip0_49_17125)">
<rect width="204" height="116" fill="#FFB042"/>
<path d="M-3.40023 52.3344C13.8313 36.6204 22.4471 28.7634 32.6819 29.2349C42.9168 29.7063 50.7738 38.3221 66.4877 55.5536L69.2656 58.5997C84.9795 75.8312 92.8364 84.4469 92.365 94.6818C91.8937 104.917 83.2779 112.774 66.0463 128.488L63.0002 131.266C45.7688 146.979 37.1531 154.836 26.918 154.365C16.683 153.893 8.8261 145.278 -6.88776 128.046L-9.66562 125C-25.3796 107.769 -33.2366 99.1529 -32.765 88.918C-32.2935 78.683 -23.6778 70.8261 -6.44636 55.1122L-3.40023 52.3344Z" fill="#F77FFF"/>
<path d="M151.616 -3.18793C161.023 -16.2987 165.726 -22.854 172.721 -24.0049C179.716 -25.1557 186.271 -20.4526 199.382 -11.0464L201.7 -9.38355C214.811 0.0226303 221.366 4.72572 222.517 11.7209C223.668 18.7161 218.965 25.2714 209.558 38.3822L207.895 40.6998C198.489 53.8105 193.786 60.3658 186.791 61.5167C179.796 62.6675 173.24 57.9644 160.13 48.5583L157.812 46.8955C144.701 37.4892 138.146 32.7861 136.995 25.7909C135.844 18.7957 140.547 12.2404 149.954 -0.870257L151.616 -3.18793Z" fill="#F77FFF"/>
<path d="M20.7114 22.6738L26.4495 16.6857H24.5427L19.4403 22.0416H18.9282V16.6857H17.4275V29.0659H18.9282V23.4465H19.4756L24.8605 29.0659H26.8909L20.7114 22.6738Z" fill="white"/>
<path d="M30.8554 19.8817C29.2664 19.8817 27.8893 20.707 27.3773 22.0768L28.7014 22.2875C29.1075 21.55 29.8843 21.0934 30.8024 21.0934C32.056 21.0934 32.8681 21.9538 32.9564 23.6045H30.8377C28.2424 23.6045 26.9006 24.746 26.9006 26.4142C26.9006 28.0825 28.1894 29.2415 30.0256 29.2415C31.5969 29.2415 32.4974 28.4337 33.027 27.6435L33.4154 29.0659H34.3688V24.026C34.3688 21.3392 32.9917 19.8817 30.8554 19.8817ZM30.2904 28.0298C29.1075 28.0298 28.3307 27.3976 28.3307 26.3791C28.3307 25.4308 29.0192 24.8162 30.8554 24.8162H32.9564V25.0445C32.9564 27.0464 31.7911 28.0298 30.2904 28.0298Z" fill="white"/>
<path d="M44.1286 29.0659L39.8207 24.4299L43.7755 20.0573H42.0629L38.6731 23.8328H38.1081V20.0573H36.6957V29.0659H38.1081V25.1674H38.6554L42.2572 29.0659H44.1286Z" fill="white"/>
<path d="M47.5814 29.0659L51.5892 21.55H51.8188V29.0659H53.1959V20.0573H51.0066L47.0165 27.5732H46.7693V20.0573H45.3922V29.0659H47.5814Z" fill="white"/>
<path d="M64.2394 24.5353C64.2394 21.8309 62.3326 19.8817 59.649 19.8817C56.983 19.8817 55.0762 21.8309 55.0762 24.5528C55.0762 27.2923 57.0007 29.2415 59.7373 29.2415C61.5205 29.2415 63.1624 28.3986 63.9216 26.7479L62.5975 26.5372C62.1384 27.3449 61.1144 27.942 59.8079 27.942C57.9894 27.942 56.7182 26.7654 56.5593 24.9743H64.2218C64.2394 24.7635 64.2394 24.6933 64.2394 24.5353ZM59.649 21.1461C61.2557 21.1461 62.4209 22.1997 62.7034 23.7626H56.6123C56.9124 22.1821 58.0777 21.1461 59.649 21.1461Z" fill="white"/>
<path d="M74.2509 29.2415C76.1047 29.2415 77.7996 28.3283 78.5059 26.5723L77.1817 26.344C76.7756 27.2571 75.6986 27.942 74.3392 27.942C72.3971 27.942 71.0729 26.5898 71.0729 24.5528C71.0729 22.5333 72.3971 21.1636 74.3392 21.1636C75.628 21.1636 76.652 21.7958 77.0934 22.6563L78.4352 22.428C77.7114 20.7597 76.0694 19.8817 74.2509 19.8817C71.5143 19.8817 69.5898 21.8309 69.5898 24.5528C69.5898 27.2923 71.5143 29.2415 74.2509 29.2415Z" fill="white"/>
<path d="M88.6737 24.5353C88.6737 21.8309 86.7669 19.8817 84.0832 19.8817C81.4173 19.8817 79.5105 21.8309 79.5105 24.5528C79.5105 27.2923 81.4349 29.2415 84.1715 29.2415C85.9547 29.2415 87.5967 28.3986 88.3559 26.7479L87.0317 26.5372C86.5727 27.3449 85.5486 27.942 84.2421 27.942C82.4236 27.942 81.1524 26.7654 80.9935 24.9743H88.656C88.6737 24.7635 88.6737 24.6933 88.6737 24.5353ZM84.0832 21.1461C85.6899 21.1461 86.8551 22.1997 87.1376 23.7626H81.0465C81.3466 22.1821 82.5119 21.1461 84.0832 21.1461Z" fill="white"/>
<path d="M91.787 32.6658V27.5732C92.4403 28.4161 93.5526 29.2415 95.2298 29.2415C97.8075 29.2415 99.6614 27.2923 99.6614 24.5528C99.6614 21.8309 97.8075 19.8817 95.2298 19.8817C93.5173 19.8817 92.3873 20.7422 91.7517 21.5851L91.328 20.0573H90.3746V32.6658H91.787ZM94.9827 27.9596C93.0935 27.9596 91.787 26.5723 91.787 24.5528C91.787 22.5509 93.0935 21.1636 94.9827 21.1636C96.8894 21.1636 98.1783 22.5509 98.1783 24.5528C98.1783 26.5723 96.8894 27.9596 94.9827 27.9596Z" fill="white"/>
<path d="M107.275 24.307C108.051 23.9382 108.511 23.2885 108.511 22.4455C108.511 21.0583 107.275 20.0573 105.527 20.0573H101.537V29.0659H105.65C107.522 29.0659 108.828 28.0122 108.828 26.5196C108.828 25.466 108.21 24.6582 107.275 24.307ZM105.527 21.2865C106.445 21.2865 107.08 21.7958 107.08 22.5333C107.08 23.2533 106.445 23.7626 105.527 23.7626H102.949V21.2865H105.527ZM102.949 27.8191V24.9918H105.65C106.692 24.9918 107.398 25.5538 107.398 26.3967C107.398 27.2396 106.692 27.8191 105.65 27.8191H102.949Z" fill="white"/>
<path d="M112.991 29.0659L116.999 21.55H117.229V29.0659H118.606V20.0573H116.417L112.426 27.5732H112.179V20.0573H110.802V29.0659H112.991Z" fill="white"/>
<path d="M125.147 29.2415C127.001 29.2415 128.696 28.3283 129.402 26.5723L128.078 26.344C127.672 27.2571 126.595 27.942 125.235 27.942C123.293 27.942 121.969 26.5898 121.969 24.5528C121.969 22.5333 123.293 21.1636 125.235 21.1636C126.524 21.1636 127.548 21.7958 127.99 22.6563L129.332 22.428C128.608 20.7597 126.966 19.8817 125.147 19.8817C122.411 19.8817 120.486 21.8309 120.486 24.5528C120.486 27.2923 122.411 29.2415 125.147 29.2415Z" fill="white"/>
<path d="M133.956 29.0659C136.021 29.0659 137.504 27.7664 137.504 25.9225C137.504 24.0787 136.039 22.7792 133.956 22.7792H132.349V20.0573H130.936V29.0659H133.956ZM140.082 29.0659V20.0573H138.67V29.0659H140.082ZM132.349 24.0436H133.956C135.209 24.0436 136.092 24.8162 136.092 25.9225C136.092 27.0289 135.209 27.8015 133.956 27.8015H132.349V24.0436Z" fill="white"/>
<path d="M21.3824 50.9005C23.2362 50.9005 24.9311 49.9874 25.6373 48.2313L24.3132 48.003C23.9071 48.9162 22.8301 49.601 21.4706 49.601C19.5285 49.601 18.2044 48.2489 18.2044 46.2118C18.2044 44.1924 19.5285 42.8226 21.4706 42.8226C22.7595 42.8226 23.7835 43.4548 24.2249 44.3153L25.5667 44.087C24.8428 42.4187 23.2009 41.5407 21.3824 41.5407C18.6458 41.5407 16.7213 43.4899 16.7213 46.2118C16.7213 48.9513 18.6458 50.9005 21.3824 50.9005Z" fill="white"/>
<path d="M34.4457 41.5407C31.9739 41.5407 30.1554 43.1738 29.8552 45.527H28.584V41.7163H27.1716V50.7249H28.584V46.8089H29.8552C30.1024 49.2322 31.9386 50.9005 34.4457 50.9005C37.1646 50.9005 39.089 48.9513 39.089 46.2118C39.089 43.4899 37.1646 41.5407 34.4457 41.5407ZM34.4457 49.601C32.5742 49.601 31.2853 48.2313 31.2853 46.2118C31.2853 44.2099 32.5742 42.8226 34.4457 42.8226C36.3348 42.8226 37.606 44.2099 37.606 46.2118C37.606 48.2313 36.3348 49.601 34.4457 49.601Z" fill="white"/>
<path d="M41.0682 53.3941V50.7249H48.1833V53.3941H49.5958V49.4254H48.0774V41.7163H41.9333L41.5096 46.5104C41.3154 48.6527 40.821 49.4254 39.8146 49.4254H39.6557V53.3941H41.0682ZM42.0569 49.4254C42.5159 48.9864 42.7808 48.1435 42.922 46.5455L43.2398 42.9982H46.665V49.4254H42.0569Z" fill="white"/>
<path d="M54.3691 41.5407C52.7801 41.5407 51.403 42.3661 50.891 43.7358L52.2152 43.9465C52.6213 43.209 53.3981 42.7524 54.3162 42.7524C55.5697 42.7524 56.3819 43.6129 56.4701 45.2636H54.3515C51.7561 45.2636 50.4143 46.405 50.4143 48.0732C50.4143 49.7415 51.7032 50.9005 53.5393 50.9005C55.1107 50.9005 56.0111 50.0927 56.5408 49.3025L56.9292 50.7249H57.8826V45.685C57.8826 42.9982 56.5055 41.5407 54.3691 41.5407ZM53.8042 49.6888C52.6213 49.6888 51.8444 49.0566 51.8444 48.0381C51.8444 47.0899 52.533 46.4752 54.3691 46.4752H56.4701V46.7035C56.4701 48.7054 55.3049 49.6888 53.8042 49.6888Z" fill="white"/>
<path d="M65.801 50.7249V42.9982H70.4091V50.7249H71.8215V41.7163H64.3886V50.7249H65.801Z" fill="white"/>
<path d="M78.4074 50.9005C81.1793 50.9005 83.139 48.9513 83.139 46.2118C83.139 43.4899 81.1793 41.5407 78.4074 41.5407C75.6531 41.5407 73.6934 43.4899 73.6934 46.2118C73.6934 48.9513 75.6531 50.9005 78.4074 50.9005ZM78.4074 49.601C76.4829 49.601 75.1764 48.2313 75.1764 46.2118C75.1764 44.2099 76.4829 42.8226 78.4074 42.8226C80.3495 42.8226 81.656 44.2099 81.656 46.2118C81.656 48.2313 80.3495 49.601 78.4074 49.601Z" fill="white"/>
<path d="M86.4354 50.7249V42.9982H91.0435V50.7249H92.4559V41.7163H85.023V50.7249H86.4354Z" fill="white"/>
<path d="M98.2826 41.5407C96.6936 41.5407 95.3165 42.3661 94.8044 43.7358L96.1286 43.9465C96.5347 43.209 97.3115 42.7524 98.2296 42.7524C99.4831 42.7524 100.295 43.6129 100.384 45.2636H98.2649C95.6696 45.2636 94.3277 46.405 94.3277 48.0732C94.3277 49.7415 95.6166 50.9005 97.4528 50.9005C99.0241 50.9005 99.9245 50.0927 100.454 49.3025L100.843 50.7249H101.796V45.685C101.796 42.9982 100.419 41.5407 98.2826 41.5407ZM97.7176 49.6888C96.5347 49.6888 95.7578 49.0566 95.7578 48.0381C95.7578 47.0899 96.4464 46.4752 98.2826 46.4752H100.384V46.7035C100.384 48.7054 99.2183 49.6888 97.7176 49.6888Z" fill="white"/>
<path d="M104.392 53.3941V50.7249H111.507V53.3941H112.919V49.4254H111.401V41.7163H105.257L104.833 46.5104C104.639 48.6527 104.145 49.4254 103.138 49.4254H102.979V53.3941H104.392ZM105.381 49.4254C105.84 48.9864 106.104 48.1435 106.246 46.5455L106.563 42.9982H109.989V49.4254H105.381Z" fill="white"/>
<path d="M117.693 41.5407C116.104 41.5407 114.727 42.3661 114.215 43.7358L115.539 43.9465C115.945 43.209 116.722 42.7524 117.64 42.7524C118.893 42.7524 119.706 43.6129 119.794 45.2636H117.675C115.08 45.2636 113.738 46.405 113.738 48.0732C113.738 49.7415 115.027 50.9005 116.863 50.9005C118.434 50.9005 119.335 50.0927 119.864 49.3025L120.253 50.7249H121.206V45.685C121.206 42.9982 119.829 41.5407 117.693 41.5407ZM117.128 49.6888C115.945 49.6888 115.168 49.0566 115.168 48.0381C115.168 47.0899 115.857 46.4752 117.693 46.4752H119.794V46.7035C119.794 48.7054 118.629 49.6888 117.128 49.6888Z" fill="white"/>
<path d="M130.807 41.5407C128.335 41.5407 126.517 43.1738 126.217 45.527H124.946V41.7163H123.533V50.7249H124.946V46.8089H126.217C126.464 49.2322 128.3 50.9005 130.807 50.9005C133.526 50.9005 135.451 48.9513 135.451 46.2118C135.451 43.4899 133.526 41.5407 130.807 41.5407ZM130.807 49.601C128.936 49.601 127.647 48.2313 127.647 46.2118C127.647 44.2099 128.936 42.8226 130.807 42.8226C132.696 42.8226 133.967 44.2099 133.967 46.2118C133.967 48.2313 132.696 49.601 130.807 49.601Z" fill="white"/>
<path d="M140.661 50.7249V42.9982H143.803V41.7163H136.105V42.9982H139.248V50.7249H140.661Z" fill="white"/>
<path d="M171.604 83.6736C170.41 84.8672 170.41 86.7882 170.41 90.6304V91.3096C170.41 95.1517 170.41 97.0727 171.604 98.2664C172.797 99.46 174.718 99.46 178.56 99.46H179.24C183.082 99.46 185.003 99.46 186.196 98.2664C187.39 97.0727 187.39 95.1517 187.39 91.3096V90.6304C187.39 86.7882 187.39 84.8672 186.196 83.6736C185.934 83.4112 185.636 83.2064 185.291 83.0467V92.8241C185.291 94.7728 183.172 95.9509 181.559 94.8992L178.835 93.1241L176.254 94.8512C174.642 95.9295 172.497 94.7539 172.497 92.792V83.0521C172.157 83.2111 171.863 83.4141 171.604 83.6736Z" fill="white"/>
<path d="M179.24 82.48H178.56C177.087 82.48 175.897 82.48 174.921 82.5472V92.792L177.503 91.065C178.303 90.5299 179.338 90.5237 180.144 91.049L182.867 92.8241V82.5464C181.894 82.48 180.707 82.48 179.24 82.48Z" fill="white"/>
</g>
<defs>
<clipPath id="clip0_49_17125">
<rect width="204" height="116" fill="white"/>
</clipPath>
</defs>
</svg>
