<svg width="534" height="272" viewBox="0 0 534 272" fill="none" xmlns="http://www.w3.org/2000/svg">
<g clip-path="url(#clip0_30_16743)">
<g clip-path="url(#clip1_30_16743)">
<path d="M274.876 113C364.481 113 409.283 113 437.119 140.837C461.725 165.442 464.581 203.302 464.913 273.642H69C69.3316 203.302 72.1879 165.442 96.793 140.837C124.63 113 169.432 113 259.036 113H274.876Z" fill="#0077FF"/>
</g>
<g clip-path="url(#clip2_30_16743)">
<rect x="135" y="10" width="263" height="540" rx="40" fill="white"/>
<g clip-path="url(#clip3_30_16743)">
<rect width="237" height="286.432" transform="translate(148 23)" fill="white"/>
<g clip-path="url(#clip4_30_16743)">
<rect x="148" y="23" width="237" height="60.672" fill="white"/>
<path opacity="0.4" d="M360.668 36.5881C360.668 36.1404 360.668 35.8237 360.689 35.576C360.708 35.3321 360.746 35.1832 360.806 35.0662C360.927 34.8284 361.12 34.635 361.358 34.5138C361.475 34.4542 361.624 34.4165 361.868 34.3965C362.116 34.3763 362.432 34.3761 362.88 34.3761H371.728C372.176 34.3761 372.492 34.3763 372.74 34.3965C372.984 34.4165 373.133 34.4542 373.25 34.5138C373.488 34.635 373.681 34.8284 373.802 35.0662C373.862 35.1832 373.9 35.3321 373.92 35.576C373.94 35.8237 373.94 36.1404 373.94 36.5881V38.1681C373.94 38.6157 373.94 38.9325 373.92 39.1801C373.9 39.424 373.862 39.5729 373.802 39.6899C373.681 39.9277 373.488 40.1211 373.25 40.2423C373.133 40.3019 372.984 40.3397 372.74 40.3596C372.492 40.3798 372.176 40.3801 371.728 40.3801H362.88C362.432 40.3801 362.116 40.3798 361.868 40.3596C361.624 40.3397 361.475 40.3019 361.358 40.2423C361.12 40.1211 360.927 39.9277 360.806 39.6899C360.746 39.5729 360.708 39.424 360.689 39.1801C360.668 38.9325 360.668 38.6157 360.668 38.1681V36.5881Z" stroke="black" stroke-width="0.632"/>
<path opacity="0.4" fill-rule="evenodd" clip-rule="evenodd" d="M374.888 38.7203C375.433 38.58 375.836 38.0851 375.836 37.4962C375.836 36.9072 375.433 36.4123 374.888 36.272V38.7203Z" fill="black"/>
<rect x="361.616" y="35.324" width="11.376" height="4.108" rx="0.632" fill="black"/>
<path fill-rule="evenodd" clip-rule="evenodd" d="M352.345 35.3923C353.745 35.3923 355.092 35.9304 356.107 36.8954C356.184 36.9699 356.306 36.9689 356.381 36.8933L357.112 36.1559C357.15 36.1176 357.171 36.0656 357.171 36.0115C357.17 35.9574 357.149 35.9057 357.11 35.8677C354.446 33.3148 350.243 33.3148 347.579 35.8677C347.541 35.9056 347.519 35.9574 347.519 36.0115C347.518 36.0655 347.539 36.1175 347.578 36.1559L348.308 36.8933C348.384 36.9691 348.506 36.97 348.582 36.8954C349.597 35.9304 350.944 35.3923 352.345 35.3923ZM352.345 37.7911C353.114 37.7911 353.856 38.0771 354.427 38.5936C354.504 38.6669 354.625 38.6653 354.701 38.59L355.43 37.8527C355.469 37.814 355.49 37.7615 355.489 37.707C355.489 37.6525 355.467 37.6005 355.427 37.5626C353.69 35.9469 351.001 35.9469 349.264 37.5626C349.225 37.6005 349.202 37.6525 349.202 37.707C349.201 37.7616 349.223 37.814 349.261 37.8527L349.991 38.59C350.066 38.6653 350.187 38.6669 350.265 38.5936C350.835 38.0774 351.576 37.7915 352.345 37.7911ZM353.807 39.4052C353.808 39.4598 353.786 39.5125 353.747 39.5508L352.485 40.8247C352.448 40.8622 352.398 40.8832 352.345 40.8832C352.292 40.8832 352.242 40.8622 352.205 40.8247L350.942 39.5508C350.903 39.5125 350.882 39.4598 350.883 39.4051C350.884 39.3504 350.908 39.2987 350.948 39.262C351.755 38.5802 352.935 38.5802 353.741 39.262C353.782 39.2987 353.806 39.3505 353.807 39.4052Z" fill="black"/>
<path fill-rule="evenodd" clip-rule="evenodd" d="M344.341 34.7974C344.341 34.4484 344.058 34.1654 343.709 34.1654H343.077C342.728 34.1654 342.445 34.4484 342.445 34.7974V40.2747C342.445 40.6238 342.728 40.9067 343.077 40.9067H343.709C344.058 40.9067 344.341 40.6238 344.341 40.2747V34.7974ZM340.128 35.6401H340.76C341.109 35.6401 341.392 35.9231 341.392 36.2721V40.2748C341.392 40.6238 341.109 40.9068 340.76 40.9068H340.128C339.779 40.9068 339.496 40.6238 339.496 40.2748V36.2721C339.496 35.9231 339.779 35.6401 340.128 35.6401ZM337.811 37.1147H337.179C336.83 37.1147 336.547 37.3977 336.547 37.7467V40.2747C336.547 40.6238 336.83 40.9067 337.179 40.9067H337.811C338.16 40.9067 338.443 40.6238 338.443 40.2747V37.7467C338.443 37.3977 338.16 37.1147 337.811 37.1147ZM335.493 39.0107C335.493 38.6617 335.21 38.3787 334.861 38.3787H334.229C333.88 38.3787 333.597 38.6617 333.597 39.0107V40.2747C333.597 40.6238 333.88 40.9067 334.229 40.9067H334.861C335.21 40.9067 335.493 40.6238 335.493 40.2747V39.0107Z" fill="black"/>
<path d="M167.786 41.0565H168.981V34.377H167.791L166.046 35.6037V36.7285L167.708 35.5527H167.786V41.0565ZM170.647 41.0565H175.285V40.0659H172.263V39.9687L173.6 38.6726C174.818 37.5015 175.184 36.8998 175.184 36.1406V36.1267C175.184 35.0019 174.248 34.2104 172.948 34.2104C171.554 34.2104 170.582 35.0806 170.582 36.3258L170.587 36.3397L171.698 36.3443L171.703 36.3258C171.703 35.6361 172.179 35.1686 172.888 35.1686C173.582 35.1686 174.003 35.6129 174.003 36.2286V36.2425C174.003 36.7563 173.749 37.0942 172.841 38.0107L170.647 40.2511V41.0565ZM177.281 36.7285C177.706 36.7285 178.017 36.4045 178.017 35.9971C178.017 35.5852 177.706 35.2658 177.281 35.2658C176.859 35.2658 176.545 35.5852 176.545 35.9971C176.545 36.4045 176.859 36.7285 177.281 36.7285ZM177.281 40.1631C177.706 40.1631 178.017 39.8437 178.017 39.4318C178.017 39.0198 177.706 38.7004 177.281 38.7004C176.859 38.7004 176.545 39.0198 176.545 39.4318C176.545 39.8437 176.859 40.1631 177.281 40.1631ZM182.433 41.0565H183.576V39.7743H184.474V38.7884H183.576V34.377H181.887C180.979 35.7564 180.03 37.2932 179.165 38.7976V39.7743H182.433V41.0565ZM180.276 38.8161V38.7467C180.924 37.6126 181.697 36.3767 182.382 35.3306H182.451V38.8161H180.276ZM188.025 41.1908C189.561 41.1908 190.631 40.3946 190.631 39.2512V39.242C190.631 38.3856 190.01 37.7237 189.117 37.5432V37.5154C189.881 37.3117 190.39 36.7516 190.39 36.0342V36.0249C190.39 34.9973 189.409 34.2428 188.025 34.2428C186.641 34.2428 185.659 34.9973 185.659 36.0249V36.0342C185.659 36.7516 186.168 37.3117 186.932 37.5154V37.5432C186.043 37.7237 185.419 38.3856 185.419 39.242V39.2512C185.419 40.3946 186.488 41.1908 188.025 41.1908ZM188.025 37.1358C187.326 37.1358 186.84 36.7285 186.84 36.1452V36.136C186.84 35.5527 187.326 35.1454 188.025 35.1454C188.724 35.1454 189.21 35.5527 189.21 36.136V36.1452C189.21 36.7285 188.724 37.1358 188.025 37.1358ZM188.025 40.2789C187.224 40.2789 186.654 39.816 186.654 39.1726V39.1633C186.654 38.5152 187.215 38.0477 188.025 38.0477C188.83 38.0477 189.395 38.5152 189.395 39.1633V39.1726C189.395 39.816 188.825 40.2789 188.025 40.2789Z" fill="black"/>
<path fill-rule="evenodd" clip-rule="evenodd" d="M162.511 61.3197C162.866 61.6546 162.883 62.2146 162.548 62.5704L158.063 67.336L162.548 72.1016C162.883 72.4575 162.866 73.0174 162.511 73.3523C162.155 73.6872 161.595 73.6703 161.26 73.3144L156.204 67.9424C155.883 67.6017 155.883 67.0703 156.204 66.7296L161.26 61.3576C161.595 61.0018 162.155 60.9848 162.511 61.3197Z" fill="#3F8AE0"/>
<g clip-path="url(#clip5_30_16743)">
<path d="M269.391 69.7882C268.094 69.7882 267.198 68.866 267.198 67.5555C267.198 66.245 268.094 65.3213 269.391 65.3213C270.688 65.3213 271.558 66.245 271.558 67.5555C271.558 68.866 270.676 69.7882 269.391 69.7882ZM267.198 73.7729V69.9702C267.512 70.3448 267.905 70.6456 268.349 70.8514C268.793 71.0572 269.276 71.1628 269.766 71.1609C271.759 71.1609 273.163 69.6441 273.163 67.5509C273.163 65.4578 271.759 63.9395 269.766 63.9395C269.26 63.9393 268.762 64.0522 268.306 64.2697C267.85 64.4873 267.449 64.8041 267.131 65.1969L266.811 64.0729H265.661V73.7683L267.198 73.7729Z" fill="black"/>
<path d="M276.882 69.8686C276.133 69.8686 275.652 69.4803 275.652 68.8796C275.652 68.3442 276.039 67.9695 277.216 67.9695H278.672C278.672 69.1056 277.952 69.8686 276.882 69.8686ZM277.337 63.944C275.986 63.944 274.795 64.6402 274.448 65.843L275.866 66.0842C275.997 65.8295 276.197 65.6167 276.443 65.47C276.689 65.3233 276.971 65.2487 277.257 65.2545C278.099 65.2545 278.593 65.8612 278.66 66.7713H277.163C275.117 66.7713 274.101 67.6662 274.101 68.9509C274.101 70.2356 275.103 71.17 276.527 71.17C276.974 71.1772 277.416 71.0675 277.807 70.8517C278.199 70.636 278.527 70.3217 278.76 69.9399L279.082 71.0365H280.218V67.1277C280.212 65.1074 279.115 63.944 277.337 63.944Z" fill="black"/>
<path d="M284.788 69.0936H284.574L282.528 64.0775H280.884L283.981 71.4067L283.901 71.6206C283.699 72.1818 283.459 72.3699 282.951 72.3699H281.645L281.78 73.7729H282.842C284.127 73.7729 284.821 73.198 285.29 71.9012L288.139 64.0775H286.567L284.788 69.0936Z" fill="black"/>
<path d="M252.798 70.716C249.375 70.716 247.299 68.3416 247.218 64.396H248.951C249.005 67.2943 250.324 68.5225 251.335 68.7751V64.396H252.996V66.8973C253.971 66.7892 254.991 65.6515 255.334 64.396H256.969C256.708 65.9399 255.596 67.0776 254.812 67.5469C255.597 67.9263 256.861 68.9195 257.349 70.716H255.552C255.172 69.5151 254.243 68.585 252.996 68.4587V70.716H252.798Z" fill="white"/>
<path fill-rule="evenodd" clip-rule="evenodd" d="M245.762 60.7222C244.696 61.7885 244.696 63.5045 244.696 66.9366V67.5434C244.696 70.9755 244.696 72.6916 245.762 73.7578C246.828 74.824 248.545 74.824 251.977 74.824H252.583C256.016 74.824 257.732 74.824 258.798 73.7578C259.864 72.6916 259.864 70.9755 259.864 67.5434V66.9366C259.864 63.5045 259.864 61.7885 258.798 60.7222C257.732 59.656 256.016 59.656 252.583 59.656H251.977C248.545 59.656 246.828 59.656 245.762 60.7222ZM247.218 64.396C247.299 68.3416 249.375 70.716 252.798 70.716H252.996V68.4588C254.243 68.585 255.172 69.5151 255.552 70.716H257.349C256.861 68.9195 255.597 67.9264 254.811 67.5469C255.596 67.0776 256.707 65.9399 256.969 64.396H255.334C254.991 65.6515 253.971 66.7892 252.996 66.8973V64.396H251.335V68.7751C250.324 68.5225 249.005 67.2944 248.951 64.396H247.218Z" fill="#0077FF"/>
</g>
<path d="M336.968 59.656C341.154 59.656 344.552 63.0536 344.552 67.24C344.552 71.4264 341.154 74.824 336.968 74.824C332.782 74.824 329.384 71.4264 329.384 67.24C329.384 63.0536 332.782 59.656 336.968 59.656ZM336.968 60.92C333.48 60.92 330.648 63.7517 330.648 67.24C330.648 70.7283 333.48 73.56 336.968 73.56C340.456 73.56 343.288 70.7283 343.288 67.24C343.288 63.7517 340.456 60.92 336.968 60.92ZM336.968 69.8315C337.457 69.8315 337.853 70.2276 337.853 70.7163C337.853 71.2049 337.457 71.6011 336.968 71.6011C336.479 71.6011 336.083 71.2049 336.083 70.7163C336.083 70.2276 336.479 69.8315 336.968 69.8315ZM336.926 62.8097C338.222 62.8097 339.272 63.8703 339.272 65.1797C339.272 65.7011 339.061 66.1751 338.727 66.5128L338.199 67.0579C337.885 67.3794 337.659 67.6585 337.563 68.1455C337.555 68.1895 337.548 68.2548 337.544 68.3415C337.53 68.6536 337.272 68.8993 336.96 68.8993H336.954C336.63 68.8993 336.367 68.6366 336.367 68.3125V68.311C336.368 68.1466 336.373 68.0389 336.383 67.9879C336.473 67.5157 336.703 67.0921 337.026 66.7616L337.753 66.0151C337.961 65.8057 338.099 65.5055 338.099 65.1797C338.099 64.5279 337.571 63.9947 336.926 63.9947C336.516 63.9947 336.154 64.21 335.944 64.5342C335.902 64.5983 335.85 64.7005 335.787 64.8409C335.663 65.1172 335.349 65.2539 335.063 65.1561L335.04 65.1485C334.748 65.0487 334.591 64.7307 334.691 64.4381C334.695 64.4274 334.699 64.4168 334.703 64.4063C334.745 64.3044 334.785 64.2143 334.823 64.136C335.226 63.3166 335.984 62.8097 336.926 62.8097Z" fill="#3F8AE0"/>
<path d="M368.03 59.6818C368.3 59.725 368.555 59.8284 368.785 60.012C369.161 60.3128 369.34 60.6919 369.478 61.2454C369.514 61.3871 369.575 61.5523 369.652 61.7127C369.827 61.7874 369.999 61.8704 370.167 61.9615C370.332 61.9206 370.491 61.8663 370.618 61.8073C371.511 61.3918 372.259 61.4136 372.872 62.0749C372.924 62.1309 372.955 62.1679 373.023 62.2511L373.42 62.7423C373.527 62.8744 373.573 62.9346 373.641 63.0469C374.078 63.7746 373.907 64.4523 373.355 65.1867C373.263 65.3086 373.169 65.4681 373.091 65.6359C373.14 65.8145 373.182 65.9955 373.214 66.1786C373.355 66.2914 373.505 66.3902 373.637 66.4577C374.145 66.717 374.474 66.9768 374.683 67.4108C374.81 67.6757 374.853 67.948 374.835 68.221C374.825 68.3653 374.809 68.4457 374.767 68.6258L374.625 69.2416C374.584 69.4218 374.562 69.5009 374.508 69.6349C374.405 69.8885 374.247 70.1143 374.016 70.2966C373.639 70.5953 373.229 70.6844 372.659 70.6947C372.514 70.6973 372.342 70.7194 372.17 70.7572C372.059 70.9113 371.94 71.06 371.814 71.2029C371.817 71.3762 371.834 71.5465 371.863 71.6857C371.982 72.2439 371.987 72.6632 371.781 73.0983C371.655 73.364 371.471 73.5689 371.247 73.7263C371.128 73.8094 371.056 73.8479 370.89 73.9289L370.322 74.206C370.156 74.287 370.081 74.3203 369.942 74.3624C369.681 74.442 369.406 74.4611 369.119 74.3967C368.649 74.2911 368.322 74.0289 367.955 73.592C367.858 73.4765 367.725 73.3509 367.581 73.2377C367.489 73.2419 367.397 73.244 367.304 73.244C367.211 73.244 367.119 73.2419 367.027 73.2377C366.883 73.3509 366.75 73.4765 366.653 73.592C366.286 74.0289 365.959 74.2911 365.489 74.3967C365.202 74.4611 364.927 74.442 364.665 74.3624C364.527 74.3203 364.452 74.287 364.286 74.206L363.718 73.9289C363.668 73.9046 363.637 73.8893 363.601 73.8704C362.772 73.4388 362.529 72.7031 362.745 71.6857C362.774 71.5465 362.791 71.3762 362.793 71.2029C362.668 71.06 362.549 70.9113 362.438 70.7572C362.266 70.7194 362.094 70.6973 361.949 70.6947C361.379 70.6844 360.969 70.5953 360.592 70.2966C360.361 70.1143 360.203 69.8885 360.1 69.6349C360.045 69.5009 360.024 69.4218 359.983 69.2416L359.84 68.6258C359.796 68.4352 359.78 68.3501 359.772 68.1956C359.756 67.906 359.812 67.6182 359.959 67.3452C360.173 66.9474 360.49 66.7032 360.971 66.4577C361.103 66.3902 361.253 66.2914 361.394 66.1786C361.426 65.9955 361.468 65.8145 361.517 65.6359C361.439 65.4681 361.345 65.3086 361.253 65.1867C360.701 64.4523 360.53 63.7746 360.967 63.0469C361.035 62.9346 361.081 62.8744 361.188 62.7423L361.585 62.2511C361.653 62.1679 361.684 62.1309 361.735 62.0749C362.349 61.4136 363.097 61.3918 363.99 61.8073C364.117 61.8663 364.276 61.9206 364.441 61.9615C364.609 61.8704 364.781 61.7874 364.956 61.7127C365.033 61.5523 365.094 61.3871 365.13 61.2454C365.268 60.6919 365.447 60.3128 365.823 60.012C366.053 59.8284 366.308 59.725 366.578 59.6818C366.693 59.6635 366.768 59.658 366.888 59.6565L367.62 59.656C367.805 59.656 367.887 59.6589 368.03 59.6818ZM367.674 60.9201L366.988 60.92C366.672 60.92 366.514 60.92 366.356 61.552C366.268 61.9028 366.083 62.351 365.828 62.7344C365.422 62.8673 365.04 63.0537 364.69 63.2851C364.237 63.2405 363.78 63.1039 363.456 62.9532C362.866 62.6782 362.766 62.801 362.568 63.0466L362.17 63.5378C361.971 63.7833 361.872 63.9061 362.263 64.4266C362.484 64.7196 362.719 65.1534 362.855 65.5997C362.716 65.9784 362.623 66.38 362.584 66.7971C362.267 67.1348 361.87 67.4182 361.546 67.5835C360.965 67.8797 361.001 68.0336 361.072 68.3415L361.214 68.9573C361.285 69.2652 361.321 69.4192 361.972 69.4309C362.332 69.4375 362.808 69.5164 363.238 69.6777C363.456 70.0409 363.722 70.3725 364.026 70.664C364.086 71.1175 364.056 71.5967 363.981 71.9478C363.846 72.5851 363.988 72.6543 364.272 72.7929L364.84 73.0699C365.124 73.2084 365.266 73.2777 365.685 72.7789C365.92 72.4992 366.288 72.1738 366.69 71.9407C366.891 71.9666 367.096 71.98 367.304 71.98C367.512 71.98 367.717 71.9666 367.917 71.9407C368.32 72.1738 368.688 72.4992 368.923 72.7789C369.342 73.2777 369.484 73.2084 369.768 73.0699L370.336 72.7929C370.62 72.6543 370.762 72.5851 370.627 71.9478C370.552 71.5967 370.522 71.1175 370.582 70.664C370.886 70.3725 371.152 70.0409 371.37 69.6777C371.8 69.5164 372.276 69.4375 372.636 69.4309C373.287 69.4192 373.323 69.2652 373.394 68.9573L373.536 68.3415C373.607 68.0336 373.643 67.8797 373.062 67.5835C372.738 67.4182 372.341 67.1348 372.024 66.7971C371.985 66.38 371.892 65.9784 371.752 65.5997C371.889 65.1534 372.124 64.7196 372.345 64.4266C372.736 63.9061 372.637 63.7833 372.438 63.5378L372.04 63.0466C371.841 62.801 371.742 62.6782 371.151 62.9532C370.828 63.1039 370.371 63.2405 369.918 63.2851C369.568 63.0537 369.186 62.8673 368.78 62.7344C368.525 62.351 368.34 61.9028 368.252 61.552C368.103 60.9572 367.955 60.9222 367.674 60.9201ZM367.304 64.396C368.875 64.396 370.148 65.6693 370.148 67.24C370.148 68.8107 368.875 70.084 367.304 70.084C365.733 70.084 364.46 68.8107 364.46 67.24C364.46 65.6693 365.733 64.396 367.304 64.396ZM367.304 65.66C366.431 65.66 365.724 66.3674 365.724 67.24C365.724 68.1126 366.431 68.82 367.304 68.82C368.177 68.82 368.884 68.1126 368.884 67.24C368.884 66.3674 368.177 65.66 367.304 65.66Z" fill="#3F8AE0"/>
</g>
<g filter="url(#filter0_dd_30_16743)">
<rect x="151.792" y="86.516" width="112.496" height="27.808" rx="5.056" fill="white"/>
<path fill-rule="evenodd" clip-rule="evenodd" d="M171.939 97.0735C171.939 96.3454 172.011 95.9738 172.217 95.5883C172.405 95.2345 172.694 94.945 173.048 94.7572C173.405 94.567 173.748 94.4911 174.372 94.4804L174.534 94.4791H179.33L179.492 94.4804C180.116 94.4911 180.459 94.567 180.816 94.7572C181.173 94.9481 181.456 95.2312 181.647 95.5883L181.692 95.6768C181.864 96.0332 181.925 96.4017 181.925 97.0735V104.398C181.925 105.07 181.864 105.439 181.692 105.795L181.647 105.884C181.459 106.237 181.17 106.527 180.816 106.715C180.459 106.906 180.116 106.981 179.492 106.991L179.33 106.993H174.534C173.806 106.993 173.434 106.921 173.048 106.715C172.694 106.527 172.405 106.237 172.217 105.884C172.027 105.527 171.951 105.184 171.94 104.56L171.939 104.398V97.0735ZM175.605 95.6167L179.33 95.6161C179.887 95.6161 180.081 95.654 180.28 95.7602C180.438 95.8449 180.558 95.9656 180.643 96.1236C180.742 96.3075 180.781 96.487 180.787 96.9509L180.787 97.0729V104.398L180.787 104.52C180.781 104.984 180.742 105.163 180.643 105.347C180.558 105.505 180.438 105.626 180.28 105.71C180.081 105.817 179.887 105.854 179.33 105.854L175.605 105.855V95.6167ZM173.077 104.398V97.0735L173.077 96.9515C173.083 96.4876 173.122 96.3081 173.221 96.1242C173.306 95.9662 173.426 95.8455 173.584 95.7608C173.768 95.6622 173.947 95.623 174.412 95.6174L174.467 95.618V105.855L174.412 105.854C173.947 105.849 173.768 105.81 173.584 105.711C173.429 105.629 173.303 105.503 173.221 105.348C173.114 105.149 173.077 104.955 173.077 104.398V104.398Z" fill="#3F8AE0"/>
<path d="M178.701 104.528C178.524 104.528 178.436 104.528 178.368 104.493C178.309 104.463 178.261 104.415 178.231 104.356C178.196 104.288 178.196 104.199 178.196 104.022V103.77C178.196 103.593 178.196 103.504 178.231 103.437C178.261 103.377 178.309 103.329 178.368 103.299C178.436 103.264 178.524 103.264 178.701 103.264H178.954C179.131 103.264 179.22 103.264 179.287 103.299C179.347 103.329 179.395 103.377 179.425 103.437C179.46 103.504 179.46 103.593 179.46 103.77V104.022C179.46 104.199 179.46 104.288 179.425 104.356C179.395 104.415 179.347 104.463 179.287 104.493C179.22 104.528 179.131 104.528 178.954 104.528H178.701Z" fill="#3F8AE0"/>
<path d="M191.06 97.079V102.92H190.286V97.079H191.06ZM194.659 97.079L192.123 100.292H190.751L190.631 99.6505H191.662L193.7 97.079H194.659ZM193.881 102.92L191.686 100.192L192.119 99.5141L194.827 102.92H193.881ZM198.103 102.178V99.9433C198.103 99.7722 198.068 99.6237 197.999 99.498C197.932 99.3697 197.83 99.2707 197.694 99.2012C197.557 99.1316 197.389 99.0969 197.188 99.0969C197.001 99.0969 196.837 99.129 196.695 99.1932C196.556 99.2573 196.446 99.3416 196.366 99.4459C196.288 99.5502 196.25 99.6625 196.25 99.7829H195.507C195.507 99.6278 195.548 99.474 195.628 99.3215C195.708 99.1691 195.823 99.0314 195.973 98.9083C196.125 98.7826 196.307 98.6837 196.518 98.6115C196.732 98.5366 196.97 98.4991 197.232 98.4991C197.548 98.4991 197.826 98.5526 198.067 98.6596C198.31 98.7666 198.5 98.9284 198.637 99.145C198.776 99.359 198.845 99.6278 198.845 99.9514V101.973C198.845 102.118 198.857 102.271 198.881 102.435C198.908 102.598 198.947 102.738 198.998 102.856V102.92H198.223C198.186 102.834 198.156 102.721 198.135 102.579C198.114 102.435 198.103 102.301 198.103 102.178ZM198.231 100.288L198.239 100.81H197.489C197.278 100.81 197.089 100.827 196.924 100.862C196.758 100.894 196.619 100.944 196.506 101.01C196.394 101.077 196.308 101.162 196.25 101.263C196.191 101.362 196.161 101.478 196.161 101.612C196.161 101.749 196.192 101.873 196.254 101.985C196.315 102.098 196.407 102.187 196.53 102.254C196.656 102.318 196.81 102.35 196.992 102.35C197.219 102.35 197.42 102.302 197.593 102.206C197.767 102.11 197.905 101.992 198.007 101.853C198.111 101.714 198.167 101.579 198.175 101.448L198.492 101.805C198.473 101.917 198.423 102.041 198.34 102.178C198.257 102.314 198.146 102.445 198.007 102.571C197.87 102.694 197.707 102.797 197.517 102.88C197.33 102.96 197.119 103 196.883 103C196.589 103 196.331 102.943 196.109 102.828C195.89 102.713 195.719 102.559 195.596 102.366C195.475 102.171 195.415 101.953 195.415 101.713C195.415 101.48 195.461 101.275 195.552 101.099C195.642 100.92 195.774 100.771 195.945 100.653C196.116 100.533 196.322 100.442 196.562 100.381C196.803 100.319 197.072 100.288 197.369 100.288H198.231ZM200.881 99.4138V104.589H200.135V98.5794H200.817L200.881 99.4138ZM203.806 100.714V100.798C203.806 101.113 203.768 101.406 203.693 101.676C203.618 101.944 203.509 102.177 203.364 102.374C203.223 102.572 203.047 102.726 202.839 102.836C202.63 102.945 202.391 103 202.121 103C201.845 103 201.602 102.955 201.391 102.864C201.179 102.773 201 102.641 200.853 102.467C200.706 102.293 200.588 102.084 200.5 101.841C200.414 101.598 200.356 101.323 200.323 101.018V100.569C200.356 100.248 200.416 99.9607 200.504 99.7067C200.592 99.4526 200.709 99.2359 200.853 99.0568C201 98.8749 201.178 98.7372 201.387 98.6436C201.595 98.5473 201.836 98.4991 202.109 98.4991C202.382 98.4991 202.624 98.5526 202.835 98.6596C203.046 98.7639 203.224 98.9137 203.368 99.1089C203.513 99.3041 203.621 99.5382 203.693 99.811C203.768 100.081 203.806 100.382 203.806 100.714ZM203.059 100.798V100.714C203.059 100.497 203.037 100.294 202.991 100.104C202.946 99.9113 202.875 99.7428 202.779 99.5983C202.685 99.4512 202.565 99.3362 202.418 99.2533C202.271 99.1677 202.095 99.125 201.892 99.125C201.705 99.125 201.542 99.1571 201.403 99.2212C201.266 99.2854 201.15 99.3723 201.054 99.482C200.957 99.589 200.878 99.712 200.817 99.8511C200.758 99.9875 200.714 100.129 200.685 100.276V101.315C200.738 101.503 200.813 101.679 200.909 101.845C201.005 102.008 201.134 102.14 201.294 102.242C201.455 102.341 201.657 102.39 201.9 102.39C202.101 102.39 202.273 102.349 202.418 102.266C202.565 102.181 202.685 102.064 202.779 101.917C202.875 101.77 202.946 101.602 202.991 101.412C203.037 101.219 203.059 101.014 203.059 100.798ZM206.327 98.5794V102.92H205.581V98.5794H206.327ZM207.783 98.5794V99.1811H204.153V98.5794H207.783ZM209.25 100.072H210.553C210.904 100.072 211.199 100.133 211.44 100.256C211.681 100.377 211.863 100.544 211.986 100.758C212.111 100.969 212.174 101.21 212.174 101.48C212.174 101.68 212.139 101.869 212.07 102.045C212 102.219 211.896 102.372 211.757 102.503C211.621 102.634 211.451 102.737 211.247 102.812C211.047 102.884 210.816 102.92 210.553 102.92H208.708V98.5794H209.45V102.31H210.553C210.767 102.31 210.939 102.271 211.067 102.194C211.195 102.116 211.288 102.016 211.344 101.893C211.4 101.77 211.428 101.642 211.428 101.508C211.428 101.377 211.4 101.248 211.344 101.123C211.288 100.997 211.195 100.893 211.067 100.81C210.939 100.724 210.767 100.682 210.553 100.682H209.25V100.072ZM213.719 98.5794V102.92H212.977V98.5794H213.719ZM219.307 102.033L221.028 97.079H221.867L219.704 102.92H219.106L219.307 102.033ZM217.698 97.079L219.403 102.033L219.616 102.92H219.018L216.86 97.079H217.698ZM223.553 97.079V102.92H222.779V97.079H223.553ZM227.08 97.079L224.653 99.8029L223.289 101.219L223.16 100.393L224.187 99.2614L226.149 97.079H227.08ZM226.334 102.92L224.171 100.072L224.633 99.4579L227.256 102.92H226.334ZM232.383 100.629H230.823V99.9995H232.383C232.686 99.9995 232.93 99.9514 233.117 99.8551C233.305 99.7588 233.441 99.6251 233.527 99.4539C233.615 99.2828 233.659 99.0875 233.659 98.8682C233.659 98.6676 233.615 98.4791 233.527 98.3026C233.441 98.126 233.305 97.9843 233.117 97.8773C232.93 97.7677 232.686 97.7128 232.383 97.7128H231.003V102.92H230.229V97.079H232.383C232.825 97.079 233.198 97.1552 233.503 97.3076C233.808 97.4601 234.039 97.6714 234.197 97.9415C234.354 98.2089 234.433 98.5152 234.433 98.8602C234.433 99.2346 234.354 99.5542 234.197 99.819C234.039 100.084 233.808 100.286 233.503 100.425C233.198 100.561 232.825 100.629 232.383 100.629ZM237.938 102.178V99.9433C237.938 99.7722 237.903 99.6237 237.833 99.498C237.766 99.3697 237.665 99.2707 237.528 99.2012C237.392 99.1316 237.224 99.0969 237.023 99.0969C236.836 99.0969 236.671 99.129 236.529 99.1932C236.39 99.2573 236.281 99.3416 236.201 99.4459C236.123 99.5502 236.084 99.6625 236.084 99.7829H235.342C235.342 99.6278 235.382 99.474 235.462 99.3215C235.543 99.1691 235.658 99.0314 235.807 98.9083C235.96 98.7826 236.142 98.6837 236.353 98.6115C236.567 98.5366 236.805 98.4991 237.067 98.4991C237.383 98.4991 237.661 98.5526 237.902 98.6596C238.145 98.7666 238.335 98.9284 238.471 99.145C238.61 99.359 238.68 99.6278 238.68 99.9514V101.973C238.68 102.118 238.692 102.271 238.716 102.435C238.743 102.598 238.781 102.738 238.832 102.856V102.92H238.058C238.021 102.834 237.991 102.721 237.97 102.579C237.948 102.435 237.938 102.301 237.938 102.178ZM238.066 100.288L238.074 100.81H237.324C237.113 100.81 236.924 100.827 236.758 100.862C236.592 100.894 236.453 100.944 236.341 101.01C236.229 101.077 236.143 101.162 236.084 101.263C236.025 101.362 235.996 101.478 235.996 101.612C235.996 101.749 236.027 101.873 236.088 101.985C236.15 102.098 236.242 102.187 236.365 102.254C236.491 102.318 236.644 102.35 236.826 102.35C237.054 102.35 237.254 102.302 237.428 102.206C237.602 102.11 237.74 101.992 237.841 101.853C237.946 101.714 238.002 101.579 238.01 101.448L238.327 101.805C238.308 101.917 238.257 102.041 238.174 102.178C238.091 102.314 237.98 102.445 237.841 102.571C237.705 102.694 237.542 102.797 237.352 102.88C237.165 102.96 236.953 103 236.718 103C236.424 103 236.166 102.943 235.944 102.828C235.724 102.713 235.553 102.559 235.43 102.366C235.31 102.171 235.25 101.953 235.25 101.713C235.25 101.48 235.295 101.275 235.386 101.099C235.477 100.92 235.608 100.771 235.779 100.653C235.95 100.533 236.156 100.442 236.397 100.381C236.638 100.319 236.907 100.288 237.203 100.288H238.066ZM241.129 102.471L242.336 98.5794H243.131L241.39 103.59C241.35 103.697 241.296 103.812 241.229 103.935C241.165 104.061 241.082 104.18 240.981 104.292C240.879 104.404 240.756 104.495 240.611 104.565C240.47 104.637 240.3 104.673 240.102 104.673C240.043 104.673 239.968 104.665 239.877 104.649C239.786 104.633 239.722 104.62 239.685 104.609L239.681 104.007C239.702 104.01 239.736 104.013 239.781 104.015C239.829 104.021 239.863 104.023 239.881 104.023C240.05 104.023 240.193 104.001 240.311 103.955C240.428 103.912 240.527 103.839 240.607 103.734C240.69 103.633 240.761 103.492 240.82 103.313L241.129 102.471ZM240.242 98.5794L241.37 101.949L241.562 102.731L241.029 103.004L239.432 98.5794H240.242Z" fill="black"/>
</g>
<g filter="url(#filter1_dd_30_16743)">
<rect x="269.028" y="86.516" width="112.496" height="27.808" rx="5.056" fill="white"/>
<path fill-rule="evenodd" clip-rule="evenodd" d="M304.168 97.0072C304.319 97.0072 304.464 97.0671 304.57 97.1738C304.677 97.2805 304.737 97.4251 304.737 97.576V99.9315L306.15 101.345C306.206 101.397 306.251 101.46 306.282 101.53C306.313 101.6 306.33 101.675 306.331 101.751C306.332 101.828 306.318 101.904 306.29 101.974C306.261 102.045 306.219 102.11 306.165 102.164C306.111 102.218 306.046 102.26 305.975 102.289C305.905 102.317 305.829 102.331 305.752 102.33C305.676 102.329 305.601 102.312 305.531 102.281C305.461 102.25 305.398 102.205 305.346 102.149L303.766 100.569C303.66 100.463 303.599 100.318 303.599 100.167V97.576C303.599 97.4251 303.659 97.2805 303.766 97.1738C303.873 97.0671 304.017 97.0072 304.168 97.0072Z" fill="#3F8AE0"/>
<path d="M308.592 95.68C308.012 95.0982 307.322 94.6368 306.563 94.3222C305.804 94.0077 304.99 93.8463 304.168 93.8472C303.331 93.8461 302.503 94.0135 301.732 94.3392C300.961 94.6649 300.263 95.1424 299.681 95.7432V94.416C299.681 94.2651 299.621 94.1204 299.514 94.0138C299.408 93.9071 299.263 93.8472 299.112 93.8472C298.961 93.8472 298.816 93.9071 298.71 94.0138C298.603 94.1204 298.543 94.2651 298.543 94.416V96.944C298.543 97.0948 298.603 97.2395 298.71 97.3462C298.816 97.4528 298.961 97.5128 299.112 97.5128H301.64C301.791 97.5128 301.936 97.4528 302.042 97.3462C302.149 97.2395 302.209 97.0948 302.209 96.944C302.209 96.7931 302.149 96.6484 302.042 96.5418C301.936 96.4351 301.791 96.3752 301.64 96.3752H300.66C301.609 95.4803 302.864 94.9827 304.168 94.9848C305.582 94.9848 306.86 95.5574 307.788 96.4839C308.264 96.9587 308.642 97.523 308.899 98.1443C309.156 98.7655 309.288 99.4315 309.287 100.104C309.287 101.518 308.715 102.796 307.788 103.724C307.313 104.2 306.749 104.578 306.128 104.835C305.506 105.092 304.84 105.224 304.168 105.223C302.965 105.225 301.8 104.802 300.88 104.028C300.764 103.936 300.616 103.892 300.468 103.907C300.321 103.922 300.185 103.994 300.089 104.108C299.994 104.221 299.947 104.368 299.958 104.516C299.969 104.664 300.038 104.801 300.149 104.9C301.275 105.845 302.698 106.363 304.168 106.361C305.895 106.361 307.461 105.66 308.592 104.528C309.723 103.396 310.425 101.831 310.425 100.104C310.425 98.3767 309.724 96.8113 308.592 95.68Z" fill="#3F8AE0"/>
<path d="M318.292 101.58L321.169 97.079H321.943V102.92H321.169V98.4149L318.292 102.92H317.522V97.079H318.292V101.58ZM325.102 102.39C325.279 102.39 325.442 102.354 325.592 102.282C325.742 102.21 325.865 102.111 325.961 101.985C326.057 101.857 326.112 101.711 326.125 101.548H326.831C326.818 101.805 326.731 102.044 326.571 102.266C326.413 102.485 326.206 102.663 325.949 102.8C325.692 102.933 325.41 103 325.102 103C324.776 103 324.491 102.943 324.248 102.828C324.007 102.713 323.807 102.555 323.646 102.354C323.488 102.154 323.369 101.924 323.289 101.664C323.212 101.402 323.173 101.125 323.173 100.834V100.665C323.173 100.374 323.212 100.098 323.289 99.839C323.369 99.5769 323.488 99.3456 323.646 99.145C323.807 98.9444 324.007 98.7866 324.248 98.6716C324.491 98.5566 324.776 98.4991 325.102 98.4991C325.442 98.4991 325.739 98.5687 325.993 98.7077C326.247 98.8441 326.446 99.0314 326.591 99.2694C326.738 99.5047 326.818 99.7722 326.831 100.072H326.125C326.112 99.8925 326.061 99.7307 325.973 99.5863C325.887 99.4419 325.77 99.3269 325.62 99.2413C325.473 99.153 325.3 99.1089 325.102 99.1089C324.875 99.1089 324.684 99.1544 324.529 99.2453C324.376 99.3336 324.255 99.4539 324.164 99.6064C324.075 99.7561 324.011 99.9233 323.971 100.108C323.934 100.29 323.915 100.476 323.915 100.665V100.834C323.915 101.024 323.934 101.211 323.971 101.396C324.009 101.58 324.071 101.747 324.16 101.897C324.251 102.047 324.372 102.167 324.525 102.258C324.68 102.346 324.872 102.39 325.102 102.39ZM329.561 98.5794V102.92H328.815V98.5794H329.561ZM331.018 98.5794V99.1811H327.387V98.5794H331.018ZM331.509 100.798V100.706C331.509 100.393 331.555 100.102 331.646 99.835C331.736 99.5649 331.868 99.3309 332.039 99.133C332.21 98.9324 332.417 98.7773 332.661 98.6676C332.904 98.5553 333.177 98.4991 333.479 98.4991C333.784 98.4991 334.058 98.5553 334.301 98.6676C334.547 98.7773 334.756 98.9324 334.927 99.133C335.101 99.3309 335.233 99.5649 335.324 99.835C335.415 100.102 335.461 100.393 335.461 100.706V100.798C335.461 101.111 335.415 101.401 335.324 101.668C335.233 101.936 335.101 102.17 334.927 102.37C334.756 102.568 334.549 102.723 334.305 102.836C334.065 102.945 333.792 103 333.487 103C333.182 103 332.908 102.945 332.665 102.836C332.421 102.723 332.213 102.568 332.039 102.37C331.868 102.17 331.736 101.936 331.646 101.668C331.555 101.401 331.509 101.111 331.509 100.798ZM332.251 100.706V100.798C332.251 101.014 332.277 101.219 332.328 101.412C332.378 101.602 332.455 101.77 332.556 101.917C332.661 102.064 332.79 102.181 332.945 102.266C333.1 102.349 333.281 102.39 333.487 102.39C333.69 102.39 333.868 102.349 334.02 102.266C334.176 102.181 334.304 102.064 334.406 101.917C334.507 101.77 334.583 101.602 334.634 101.412C334.688 101.219 334.715 101.014 334.715 100.798V100.706C334.715 100.492 334.688 100.29 334.634 100.1C334.583 99.9072 334.506 99.7374 334.402 99.5903C334.3 99.4405 334.172 99.3229 334.016 99.2373C333.864 99.1517 333.685 99.1089 333.479 99.1089C333.276 99.1089 333.096 99.1517 332.941 99.2373C332.789 99.3229 332.661 99.4405 332.556 99.5903C332.455 99.7374 332.378 99.9072 332.328 100.1C332.277 100.29 332.251 100.492 332.251 100.706ZM337.26 99.4138V104.589H336.514V98.5794H337.196L337.26 99.4138ZM340.185 100.714V100.798C340.185 101.113 340.147 101.406 340.072 101.676C339.997 101.944 339.888 102.177 339.743 102.374C339.601 102.572 339.426 102.726 339.218 102.836C339.009 102.945 338.77 103 338.5 103C338.224 103 337.981 102.955 337.769 102.864C337.558 102.773 337.379 102.641 337.232 102.467C337.085 102.293 336.967 102.084 336.879 101.841C336.793 101.598 336.734 101.323 336.702 101.018V100.569C336.734 100.248 336.795 99.9607 336.883 99.7067C336.971 99.4526 337.087 99.2359 337.232 99.0568C337.379 98.8749 337.557 98.7372 337.765 98.6436C337.974 98.5473 338.215 98.4991 338.488 98.4991C338.76 98.4991 339.002 98.5526 339.214 98.6596C339.425 98.7639 339.603 98.9137 339.747 99.1089C339.892 99.3041 340 99.5382 340.072 99.811C340.147 100.081 340.185 100.382 340.185 100.714ZM339.438 100.798V100.714C339.438 100.497 339.416 100.294 339.37 100.104C339.325 99.9113 339.254 99.7428 339.158 99.5983C339.064 99.4512 338.944 99.3362 338.796 99.2533C338.649 99.1677 338.474 99.125 338.271 99.125C338.084 99.125 337.921 99.1571 337.781 99.2212C337.645 99.2854 337.529 99.3723 337.432 99.482C337.336 99.589 337.257 99.712 337.196 99.8511C337.137 99.9875 337.093 100.129 337.063 100.276V101.315C337.117 101.503 337.192 101.679 337.288 101.845C337.384 102.008 337.513 102.14 337.673 102.242C337.834 102.341 338.036 102.39 338.279 102.39C338.48 102.39 338.652 102.349 338.796 102.266C338.944 102.181 339.064 102.064 339.158 101.917C339.254 101.77 339.325 101.602 339.37 101.412C339.416 101.219 339.438 101.014 339.438 100.798ZM342.06 101.745L344.062 98.5794H344.808V102.92H344.062V99.7548L342.06 102.92H341.322V98.5794H342.06V101.745ZM347.004 100.85H347.807L346.551 102.92H345.749L347.004 100.85ZM347.626 98.5794H349.44V102.92H348.697V99.1811H347.626C347.415 99.1811 347.243 99.2172 347.109 99.2894C346.975 99.359 346.877 99.4499 346.816 99.5622C346.754 99.6746 346.724 99.7909 346.724 99.9113C346.724 100.029 346.752 100.143 346.808 100.252C346.864 100.359 346.952 100.447 347.073 100.517C347.193 100.587 347.348 100.621 347.538 100.621H348.898V101.231H347.538C347.289 101.231 347.069 101.198 346.876 101.131C346.684 101.064 346.52 100.972 346.387 100.854C346.253 100.734 346.151 100.593 346.082 100.433C346.012 100.27 345.977 100.093 345.977 99.9032C345.977 99.7133 346.014 99.5382 346.086 99.3777C346.161 99.2172 346.268 99.0768 346.407 98.9565C346.548 98.8361 346.721 98.7438 346.924 98.6797C347.13 98.6128 347.364 98.5794 347.626 98.5794Z" fill="black"/>
</g>
<g clip-path="url(#clip6_30_16743)">
<path fill-rule="evenodd" clip-rule="evenodd" d="M165.175 137.299H163.421C162.695 137.299 161.957 137.624 161.487 138.212L158.936 141.4C158.703 141.691 158.59 142.046 158.597 142.398C158.598 142.4 158.598 142.402 158.598 142.404C158.606 142.751 158.73 143.095 158.97 143.375L165.784 151.325C166.402 152.046 167.518 152.046 168.136 151.325L174.95 143.375C175.19 143.095 175.314 142.751 175.323 142.404C175.323 142.402 175.323 142.4 175.323 142.397C175.33 142.045 175.217 141.691 174.984 141.4L172.434 138.212C171.964 137.624 171.225 137.299 170.499 137.299H168.714C168.724 137.299 168.704 137.299 168.714 137.299H165.175C165.165 137.299 165.186 137.299 165.175 137.299ZM168.28 138.626H165.64L164.401 141.723H169.519L168.28 138.626ZM169.71 138.626L170.949 141.723H173.543L171.397 139.041C171.196 138.789 170.849 138.626 170.499 138.626H169.71ZM173.48 143.05H170.931L168.184 149.229L173.48 143.05ZM166.96 148.716L169.478 143.05H164.442L166.96 148.716ZM162.99 143.05L165.736 149.229L160.44 143.05H162.99ZM162.972 141.723L164.21 138.626H163.421C163.071 138.626 162.725 138.789 162.523 139.041L160.378 141.723H162.972Z" fill="#3F8AE0"/>
</g>
<path d="M188.616 141.344H189.561V133.774H188.622L186.607 135.222V136.219L188.532 134.823H188.616V141.344ZM194.024 141.522C195.698 141.522 196.705 139.996 196.705 137.562V137.551C196.705 135.117 195.698 133.596 194.024 133.596C192.351 133.596 191.354 135.117 191.354 137.551V137.562C191.354 139.996 192.351 141.522 194.024 141.522ZM194.024 140.699C192.938 140.699 192.304 139.492 192.304 137.562V137.551C192.304 135.621 192.938 134.424 194.024 134.424C195.11 134.424 195.756 135.621 195.756 137.551V137.562C195.756 139.492 195.11 140.699 194.024 140.699ZM200.586 141.47C202.192 141.47 203.335 140.568 203.335 139.298V139.288C203.335 138.354 202.68 137.577 201.709 137.352V137.331C202.538 137.074 203.063 136.444 203.063 135.647V135.636C203.063 134.493 202.019 133.648 200.586 133.648C199.154 133.648 198.11 134.493 198.11 135.636V135.647C198.11 136.444 198.635 137.074 199.464 137.331V137.352C198.493 137.577 197.837 138.354 197.837 139.288V139.298C197.837 140.568 198.981 141.47 200.586 141.47ZM200.586 136.979C199.674 136.979 199.049 136.46 199.049 135.725V135.715C199.049 134.98 199.674 134.461 200.586 134.461C201.499 134.461 202.124 134.98 202.124 135.715V135.725C202.124 136.46 201.499 136.979 200.586 136.979ZM200.586 140.646C199.542 140.646 198.797 140.059 198.797 139.24V139.23C198.797 138.401 199.537 137.808 200.586 137.808C201.636 137.808 202.375 138.401 202.375 139.23V139.24C202.375 140.059 201.63 140.646 200.586 140.646ZM207.541 141.344H210.295C211.712 141.344 212.714 140.415 212.719 139.078V139.067C212.719 137.729 211.707 136.79 210.285 136.79H208.485V134.624H211.964V133.774H207.541V141.344ZM208.485 140.494V137.64H210.049C211.129 137.64 211.748 138.154 211.748 139.067V139.078C211.743 139.991 211.129 140.494 210.049 140.494H208.485Z" fill="black"/>
<path d="M186.698 153.608H188.804C189.888 153.608 190.654 152.898 190.658 151.875V151.867C190.658 150.844 189.883 150.126 188.796 150.126H187.42V148.469H190.08V147.819H186.698V153.608ZM187.42 152.958V150.776H188.616C189.442 150.776 189.916 151.169 189.916 151.867V151.875C189.912 152.573 189.442 152.958 188.616 152.958H187.42ZM193.561 153.684C194.793 153.684 195.555 152.834 195.555 151.45V151.442C195.555 150.054 194.793 149.207 193.561 149.207C192.329 149.207 191.567 150.054 191.567 151.442V151.45C191.567 152.834 192.329 153.684 193.561 153.684ZM193.561 153.066C192.743 153.066 192.281 152.469 192.281 151.45V151.442C192.281 150.419 192.743 149.825 193.561 149.825C194.379 149.825 194.841 150.419 194.841 151.442V151.45C194.841 152.469 194.379 153.066 193.561 153.066ZM199.505 153.608H200.203V149.283H199.505V151.073H197.363V149.283H196.665V153.608H197.363V151.65H199.505V153.608ZM201.899 155.124C202.665 155.124 203.022 154.844 203.379 153.873L205.068 149.283H204.334L203.151 152.842H203.087L201.899 149.283H201.153L202.754 153.612L202.673 153.869C202.517 154.366 202.276 154.547 201.879 154.547C201.783 154.547 201.674 154.543 201.59 154.527V155.1C201.687 155.116 201.807 155.124 201.899 155.124ZM207.631 153.684C208.67 153.684 209.251 153.127 209.428 152.344L209.436 152.3L208.746 152.304L208.738 152.328C208.577 152.81 208.208 153.066 207.627 153.066C206.856 153.066 206.359 152.428 206.359 151.434V151.426C206.359 150.451 206.848 149.825 207.627 149.825C208.249 149.825 208.634 150.17 208.742 150.595L208.746 150.607H209.44L209.436 150.583C209.308 149.813 208.678 149.207 207.627 149.207C206.415 149.207 205.645 150.082 205.645 151.426V151.434C205.645 152.806 206.419 153.684 207.631 153.684ZM210.486 153.608H212.03C213.021 153.608 213.655 153.038 213.655 152.144V152.136C213.655 151.241 213.021 150.671 212.03 150.671H211.184V149.283H210.486V153.608ZM214.409 153.608H215.107V149.283H214.409V153.608ZM212.03 151.249C212.596 151.249 212.957 151.598 212.957 152.136V152.144C212.957 152.677 212.6 153.03 212.03 153.03H211.184V151.249H212.03Z" fill="#818C99"/>
<path d="M367.75 141.442C367.503 141.196 367.505 140.795 367.75 140.55L367.805 140.494C368.052 140.248 368.45 140.246 368.699 140.495L371.912 143.708C372.159 143.956 372.161 144.354 371.912 144.603L368.699 147.816C368.452 148.064 368.051 148.063 367.805 147.818L367.75 147.762C367.503 147.516 367.501 147.118 367.75 146.87L370.464 144.156L367.75 141.442Z" fill="#B8C1CC"/>
<path d="M169.359 176.644C170.096 176.644 170.477 176.717 170.874 176.93C171.241 177.126 171.534 177.419 171.73 177.786C171.931 178.161 172.008 178.523 172.015 179.185C172.549 179.219 172.889 179.312 173.24 179.5C173.659 179.724 173.992 180.057 174.216 180.476C174.459 180.931 174.544 181.369 174.544 182.234V186.221C174.544 187.087 174.459 187.525 174.216 187.98C173.992 188.399 173.659 188.732 173.24 188.956C172.785 189.199 172.347 189.284 171.481 189.284H162.439C161.573 189.284 161.135 189.199 160.68 188.956C160.261 188.732 159.928 188.399 159.704 187.98C159.46 187.525 159.376 187.087 159.376 186.221V179.172H159.377L159.377 179.137C159.388 178.505 159.466 178.152 159.662 177.786C159.858 177.419 160.151 177.126 160.518 176.93C160.915 176.717 161.296 176.644 162.033 176.644H169.359ZM171.481 180.436H160.64V186.221C160.64 186.896 160.686 187.137 160.819 187.384C160.925 187.583 161.077 187.735 161.276 187.841C161.523 187.974 161.763 188.02 162.439 188.02H171.481C172.157 188.02 172.397 187.974 172.644 187.841C172.843 187.735 172.995 187.583 173.101 187.384C173.234 187.137 173.28 186.896 173.28 186.221V182.234C173.28 181.559 173.234 181.319 173.101 181.072C172.995 180.873 172.843 180.721 172.644 180.614C172.397 180.482 172.157 180.436 171.481 180.436ZM170.752 183.596C171.101 183.596 171.384 183.879 171.384 184.228C171.384 184.577 171.101 184.86 170.752 184.86H169.488C169.139 184.86 168.856 184.577 168.856 184.228C168.856 183.879 169.139 183.596 169.488 183.596H170.752ZM169.359 177.908H162.033C161.487 177.908 161.303 177.943 161.114 178.044C160.967 178.123 160.855 178.235 160.776 178.382C160.684 178.555 160.646 178.724 160.641 179.172H170.751C170.746 178.724 170.708 178.555 170.616 178.382C170.537 178.235 170.425 178.123 170.278 178.044C170.089 177.943 169.905 177.908 169.359 177.908Z" fill="#3F8AE0"/>
<path d="M188.616 180.152H189.561V172.582H188.622L186.607 174.03V175.027L188.532 173.631H188.616V180.152ZM194.024 180.33C195.698 180.33 196.705 178.804 196.705 176.37V176.359C196.705 173.925 195.698 172.403 194.024 172.403C192.351 172.403 191.354 173.925 191.354 176.359V176.37C191.354 178.804 192.351 180.33 194.024 180.33ZM194.024 179.507C192.938 179.507 192.304 178.3 192.304 176.37V176.359C192.304 174.428 192.938 173.232 194.024 173.232C195.11 173.232 195.756 174.428 195.756 176.359V176.37C195.756 178.3 195.11 179.507 194.024 179.507ZM203.34 180.278C204.856 180.278 205.968 179.344 205.968 178.08V178.069C205.968 176.994 205.218 176.307 204.116 176.212V176.191C205.061 175.992 205.722 175.352 205.722 174.418V174.408C205.722 173.259 204.772 172.456 203.329 172.456C201.913 172.456 200.937 173.28 200.816 174.512L200.811 174.565H201.719L201.724 174.512C201.803 173.746 202.437 173.274 203.329 173.274C204.253 173.274 204.772 173.731 204.772 174.523V174.533C204.772 175.289 204.142 175.845 203.24 175.845H202.333V176.642H203.282C204.342 176.642 205.008 177.162 205.008 178.09V178.101C205.008 178.903 204.331 179.459 203.34 179.459C202.333 179.459 201.645 178.945 201.572 178.2L201.567 178.148H200.659L200.664 178.211C200.764 179.407 201.776 180.278 203.34 180.278ZM210.699 180.152H211.623V178.583H212.698V177.739H211.623V172.582H210.253C209.194 174.161 208.034 176.008 207.011 177.723V178.583H210.699V180.152ZM207.977 177.744V177.681C208.8 176.291 209.792 174.728 210.642 173.458H210.705V177.744H207.977ZM213.899 180.152H218.798V179.302H215.21V179.218L216.931 177.44C218.3 176.029 218.673 175.399 218.673 174.533V174.523C218.673 173.301 217.66 172.403 216.338 172.403C214.89 172.403 213.851 173.369 213.846 174.712L213.857 174.717L214.759 174.722L214.764 174.712C214.764 173.82 215.368 173.227 216.275 173.227C217.167 173.227 217.707 173.825 217.707 174.623V174.633C217.707 175.294 217.424 175.688 216.459 176.732L213.899 179.501V180.152ZM222.543 178.966H223.592V179.995H224.536V178.966H226.713V178.337H224.536V177.33H225.979C227.4 177.33 228.324 176.38 228.324 175.042V175.032C228.324 173.71 227.411 172.739 225.989 172.739H223.592V176.7H222.543V177.33H223.592V178.337H222.543V178.966ZM224.536 176.49V173.579H225.743C226.829 173.579 227.353 174.135 227.353 175.032V175.042C227.353 175.945 226.823 176.49 225.743 176.49H224.536Z" fill="black"/>
<path d="M186.698 192.416H188.804C189.888 192.416 190.654 191.706 190.658 190.683V190.675C190.658 189.652 189.883 188.934 188.796 188.934H187.42V187.277H190.08V186.627H186.698V192.416ZM187.42 191.766V189.584H188.616C189.442 189.584 189.916 189.977 189.916 190.675V190.683C189.912 191.381 189.442 191.766 188.616 191.766H187.42ZM192.931 192.492C193.513 192.492 193.966 192.239 194.239 191.778H194.303V192.416H195.001V189.455C195.001 188.557 194.412 188.015 193.356 188.015C192.434 188.015 191.776 188.472 191.664 189.15L191.66 189.174H192.358L192.362 189.162C192.474 188.825 192.815 188.633 193.332 188.633C193.978 188.633 194.303 188.922 194.303 189.455V189.848L193.064 189.925C192.057 189.985 191.487 190.43 191.487 191.2V191.208C191.487 191.995 192.109 192.492 192.931 192.492ZM192.201 191.192V191.184C192.201 190.755 192.49 190.522 193.148 190.482L194.303 190.41V190.803C194.303 191.421 193.786 191.886 193.076 191.886C192.574 191.886 192.201 191.63 192.201 191.192ZM197.319 190.723L197.479 188.669H198.984V192.416H199.682V188.091H196.854L196.669 190.667C196.625 191.309 196.464 191.81 196.067 191.81C195.963 191.81 195.855 191.794 195.819 191.782V192.412C195.875 192.432 195.987 192.456 196.135 192.456C196.858 192.456 197.227 191.914 197.319 190.723ZM202.196 192.492C202.778 192.492 203.231 192.239 203.504 191.778H203.568V192.416H204.266V189.455C204.266 188.557 203.676 188.015 202.621 188.015C201.699 188.015 201.041 188.472 200.928 189.15L200.924 189.174H201.622L201.626 189.162C201.739 188.825 202.08 188.633 202.597 188.633C203.243 188.633 203.568 188.922 203.568 189.455V189.848L202.328 189.925C201.321 189.985 200.752 190.43 200.752 191.2V191.208C200.752 191.995 201.374 192.492 202.196 192.492ZM201.466 191.192V191.184C201.466 190.755 201.755 190.522 202.413 190.482L203.568 190.41V190.803C203.568 191.421 203.051 191.886 202.34 191.886C201.839 191.886 201.466 191.63 201.466 191.192ZM208.409 192.416H209.107V188.091H208.409V189.88H206.267V188.091H205.569V192.416H206.267V190.458H208.409V192.416ZM212.203 192.492C213.242 192.492 213.824 191.934 214 191.152L214.008 191.108L213.318 191.112L213.31 191.136C213.15 191.618 212.781 191.874 212.199 191.874C211.429 191.874 210.931 191.236 210.931 190.242V190.234C210.931 189.259 211.421 188.633 212.199 188.633C212.821 188.633 213.206 188.978 213.314 189.403L213.318 189.415H214.012L214.008 189.391C213.88 188.621 213.25 188.015 212.199 188.015C210.987 188.015 210.217 188.89 210.217 190.234V190.242C210.217 191.614 210.991 192.492 212.203 192.492Z" fill="#818C99"/>
<path d="M367.75 180.25C367.503 180.004 367.505 179.603 367.75 179.358L367.805 179.302C368.052 179.056 368.45 179.054 368.699 179.303L371.912 182.516C372.159 182.764 372.161 183.162 371.912 183.411L368.699 186.624C368.452 186.872 368.051 186.871 367.805 186.626L367.75 186.57C367.503 186.324 367.501 185.926 367.75 185.678L370.464 182.964L367.75 180.25Z" fill="#B8C1CC"/>
<path d="M170.493 215.452C171.902 215.452 172.412 215.599 172.927 215.874C173.442 216.149 173.847 216.554 174.122 217.068C174.397 217.583 174.544 218.094 174.544 219.503V224.041C174.544 225.45 174.397 225.96 174.122 226.475C173.847 226.99 173.442 227.394 172.927 227.67C172.412 227.945 171.902 228.092 170.493 228.092H163.427C162.018 228.092 161.508 227.945 160.993 227.67C160.478 227.394 160.073 226.99 159.798 226.475C159.523 225.96 159.376 225.45 159.376 224.041V219.503C159.376 218.094 159.523 217.583 159.798 217.068C160.073 216.554 160.478 216.149 160.993 215.874C161.508 215.599 162.018 215.452 163.427 215.452H170.493ZM173.279 221.14H160.639L160.64 224.397C160.64 225.243 160.728 225.549 160.893 225.858C161.058 226.167 161.301 226.409 161.61 226.575C161.9 226.73 162.187 226.817 162.918 226.827L163.071 226.828H170.849C171.695 226.828 172.001 226.74 172.31 226.575C172.619 226.409 172.861 226.167 173.027 225.858C173.182 225.568 173.269 225.281 173.279 224.55L173.28 224.397L173.279 221.14ZM163.639 223.036C163.9 223.036 164.006 223.065 164.109 223.12C164.212 223.175 164.292 223.256 164.348 223.359C164.403 223.462 164.432 223.568 164.432 223.829V224.139C164.432 224.4 164.403 224.506 164.348 224.609C164.292 224.712 164.212 224.792 164.109 224.847C164.006 224.903 163.9 224.932 163.639 224.932H163.329C163.068 224.932 162.962 224.903 162.859 224.847C162.756 224.792 162.675 224.712 162.62 224.609C162.565 224.506 162.536 224.4 162.536 224.139V223.829C162.536 223.568 162.565 223.462 162.62 223.359C162.675 223.256 162.756 223.175 162.859 223.12C162.962 223.065 163.068 223.036 163.329 223.036H163.639ZM170.849 216.716H163.071C162.225 216.716 161.919 216.804 161.61 216.969C161.301 217.134 161.058 217.377 160.893 217.686C160.738 217.976 160.651 218.263 160.641 218.994L160.64 219.146L160.639 219.244H173.279L173.28 219.146C173.28 218.301 173.192 217.995 173.027 217.686C172.861 217.377 172.619 217.134 172.31 216.969C172.02 216.814 171.733 216.727 171.002 216.717L170.849 216.716Z" fill="#3F8AE0"/>
<path d="M189.529 215.907C189.529 215.309 189.057 214.837 188.459 214.837H188.449C187.85 214.837 187.378 215.309 187.378 215.907V215.917C187.378 216.515 187.85 216.987 188.449 216.987H188.459C189.057 216.987 189.529 216.515 189.529 215.917V215.907ZM194.339 215.907C194.339 215.309 193.867 214.837 193.269 214.837H193.258C192.66 214.837 192.188 215.309 192.188 215.907V215.917C192.188 216.515 192.66 216.987 193.258 216.987H193.269C193.867 216.987 194.339 216.515 194.339 215.917V215.907ZM199.149 215.907C199.149 215.309 198.677 214.837 198.079 214.837H198.068C197.47 214.837 196.998 215.309 196.998 215.907V215.917C196.998 216.515 197.47 216.987 198.068 216.987H198.079C198.677 216.987 199.149 216.515 199.149 215.917V215.907ZM203.959 215.907C203.959 215.309 203.487 214.837 202.889 214.837H202.878C202.28 214.837 201.808 215.309 201.808 215.907V215.917C201.808 216.515 202.28 216.987 202.878 216.987H202.889C203.487 216.987 203.959 216.515 203.959 215.917V215.907ZM208.768 218.96H213.668V218.11H210.079V218.026L211.8 216.248C213.169 214.837 213.542 214.207 213.542 213.341V213.331C213.542 212.109 212.529 211.211 211.207 211.211C209.759 211.211 208.721 212.177 208.715 213.52L208.726 213.525L209.628 213.53L209.634 213.52C209.634 212.628 210.237 212.035 211.144 212.035C212.036 212.035 212.577 212.633 212.577 213.431V213.441C212.577 214.102 212.293 214.496 211.328 215.54L208.768 218.309V218.96ZM217.57 219.086C219.086 219.086 220.198 218.152 220.198 216.888V216.877C220.198 215.802 219.448 215.115 218.346 215.02V214.999C219.291 214.8 219.952 214.16 219.952 213.226V213.215C219.952 212.067 219.002 211.264 217.56 211.264C216.143 211.264 215.167 212.088 215.047 213.32L215.041 213.373H215.949L215.954 213.32C216.033 212.554 216.668 212.082 217.56 212.082C218.483 212.082 219.002 212.539 219.002 213.331V213.341C219.002 214.097 218.373 214.653 217.47 214.653H216.563V215.45H217.512C218.572 215.45 219.238 215.97 219.238 216.898V216.909C219.238 217.711 218.562 218.267 217.57 218.267C216.563 218.267 215.876 217.753 215.802 217.008L215.797 216.956H214.889L214.895 217.019C214.994 218.215 216.007 219.086 217.57 219.086ZM224.006 219.138C225.68 219.138 226.687 217.612 226.687 215.178V215.167C226.687 212.733 225.68 211.211 224.006 211.211C222.333 211.211 221.336 212.733 221.336 215.167V215.178C221.336 217.612 222.333 219.138 224.006 219.138ZM224.006 218.315C222.92 218.315 222.286 217.108 222.286 215.178V215.167C222.286 213.236 222.92 212.04 224.006 212.04C225.092 212.04 225.737 213.236 225.737 215.167V215.178C225.737 217.108 225.092 218.315 224.006 218.315ZM230.458 211.211C228.932 211.211 227.809 212.308 227.809 213.819V213.829C227.809 215.282 228.869 216.363 230.29 216.363C231.313 216.363 232.027 215.812 232.305 215.193H232.404C232.404 215.251 232.404 215.314 232.399 215.372C232.341 216.951 231.78 218.294 230.406 218.294C229.64 218.294 229.11 217.9 228.879 217.265L228.858 217.208H227.909L227.924 217.276C228.181 218.393 229.126 219.138 230.395 219.138C232.231 219.138 233.307 217.627 233.307 215.046V215.036C233.307 212.187 231.843 211.211 230.458 211.211ZM230.453 215.54C229.472 215.54 228.758 214.816 228.758 213.808V213.798C228.758 212.817 229.519 212.046 230.469 212.046C231.429 212.046 232.179 212.833 232.179 213.829V213.835C232.179 214.821 231.434 215.54 230.453 215.54Z" fill="black"/>
<path d="M239.863 219.138C241.536 219.138 242.544 217.612 242.544 215.178V215.167C242.544 212.733 241.536 211.211 239.863 211.211C238.189 211.211 237.193 212.733 237.193 215.167V215.178C237.193 217.612 238.189 219.138 239.863 219.138ZM239.863 218.315C238.777 218.315 238.142 217.108 238.142 215.178V215.167C238.142 213.236 238.777 212.04 239.863 212.04C240.949 212.04 241.594 213.236 241.594 215.167V215.178C241.594 217.108 240.949 218.315 239.863 218.315ZM247.296 218.96H248.219V217.391H249.294V216.547H248.219V211.39H246.85C245.79 212.969 244.631 214.816 243.608 216.531V217.391H247.296V218.96ZM244.573 216.552V216.489C245.397 215.099 246.388 213.536 247.238 212.266H247.301V216.552H244.573ZM252.919 211.059H252.043L249.65 220.849H250.526L252.919 211.059ZM253.511 218.96H258.411V218.11H254.822V218.026L256.543 216.248C257.912 214.837 258.285 214.207 258.285 213.341V213.331C258.285 212.109 257.272 211.211 255.95 211.211C254.502 211.211 253.463 212.177 253.458 213.52L253.469 213.525L254.371 213.53L254.376 213.52C254.376 212.628 254.98 212.035 255.887 212.035C256.779 212.035 257.319 212.633 257.319 213.431V213.441C257.319 214.102 257.036 214.496 256.071 215.54L253.511 218.309V218.96ZM262.213 211.211C260.687 211.211 259.564 212.308 259.564 213.819V213.829C259.564 215.282 260.624 216.363 262.045 216.363C263.068 216.363 263.782 215.812 264.06 215.193H264.159C264.159 215.251 264.159 215.314 264.154 215.372C264.097 216.951 263.535 218.294 262.161 218.294C261.395 218.294 260.865 217.9 260.634 217.265L260.613 217.208H259.664L259.679 217.276C259.936 218.393 260.881 219.138 262.15 219.138C263.986 219.138 265.062 217.627 265.062 215.046V215.036C265.062 212.187 263.598 211.211 262.213 211.211ZM262.208 215.54C261.227 215.54 260.513 214.816 260.513 213.808V213.798C260.513 212.817 261.274 212.046 262.224 212.046C263.184 212.046 263.934 212.833 263.934 213.829V213.835C263.934 214.821 263.189 215.54 262.208 215.54Z" fill="#818C99"/>
<path d="M187.42 231.224V228.556H187.629L190.204 231.224H191.159L188.255 228.215L190.927 225.435H190.02L187.629 227.978H187.42V225.435H186.698V231.224H187.42ZM193.003 231.3C193.585 231.3 194.038 231.047 194.311 230.586H194.375V231.224H195.074V228.263C195.074 227.365 194.484 226.823 193.429 226.823C192.506 226.823 191.848 227.28 191.736 227.958L191.732 227.982H192.43L192.434 227.97C192.546 227.633 192.887 227.441 193.405 227.441C194.051 227.441 194.375 227.73 194.375 228.263V228.656L193.136 228.733C192.129 228.793 191.559 229.238 191.559 230.008V230.016C191.559 230.803 192.181 231.3 193.003 231.3ZM192.273 230V229.992C192.273 229.563 192.562 229.33 193.22 229.29L194.375 229.218V229.611C194.375 230.229 193.858 230.694 193.148 230.694C192.646 230.694 192.273 230.438 192.273 230ZM196.38 232.668H197.078V230.542H197.142C197.379 231.003 197.897 231.3 198.49 231.3C199.59 231.3 200.304 230.422 200.304 229.066V229.058C200.304 227.71 199.586 226.823 198.49 226.823C197.889 226.823 197.407 227.108 197.142 227.589H197.078V226.899H196.38V232.668ZM198.33 230.682C197.544 230.682 197.062 230.064 197.062 229.066V229.058C197.062 228.059 197.544 227.441 198.33 227.441C199.12 227.441 199.59 228.051 199.59 229.058V229.066C199.59 230.073 199.12 230.682 198.33 230.682ZM204.274 226.899H200.776V227.477H202.176V231.224H202.874V227.477H204.274V226.899ZM206.359 231.3C206.941 231.3 207.394 231.047 207.667 230.586H207.731V231.224H208.429V228.263C208.429 227.365 207.839 226.823 206.784 226.823C205.862 226.823 205.204 227.28 205.091 227.958L205.087 227.982H205.785L205.789 227.97C205.902 227.633 206.243 227.441 206.76 227.441C207.406 227.441 207.731 227.73 207.731 228.263V228.656L206.491 228.733C205.484 228.793 204.915 229.238 204.915 230.008V230.016C204.915 230.803 205.537 231.3 206.359 231.3ZM205.629 230V229.992C205.629 229.563 205.918 229.33 206.576 229.29L207.731 229.218V229.611C207.731 230.229 207.214 230.694 206.503 230.694C206.002 230.694 205.629 230.438 205.629 230Z" fill="#818C99"/>
<path d="M367.75 219.058C367.503 218.812 367.505 218.411 367.75 218.166L367.805 218.11C368.052 217.864 368.45 217.862 368.699 218.111L371.912 221.324C372.159 221.572 372.161 221.97 371.912 222.219L368.699 225.432C368.452 225.68 368.051 225.679 367.805 225.434L367.75 225.378C367.503 225.132 367.501 224.734 367.75 224.486L370.464 221.772L367.75 219.058Z" fill="#B8C1CC"/>
<path d="M166.96 250.024C167.309 250.024 167.592 250.307 167.592 250.656V255.712H172.648C172.997 255.712 173.28 255.995 173.28 256.344C173.28 256.693 172.997 256.976 172.648 256.976H167.592V262.032C167.592 262.381 167.309 262.664 166.96 262.664C166.611 262.664 166.328 262.381 166.328 262.032V256.976H161.272C160.923 256.976 160.64 256.693 160.64 256.344C160.64 255.995 160.923 255.712 161.272 255.712H166.328V250.656C166.328 250.307 166.611 250.024 166.96 250.024Z" fill="#3F8AE0"/>
<path d="M187.006 261.159V259.664H192.651V261.159H193.527V258.814H192.582V252.094H187.793L187.504 256.857C187.447 257.849 187.242 258.52 186.691 258.814H186.13V261.159H187.006ZM188.391 256.878L188.637 252.944H191.638V258.814H187.861V258.751C188.233 258.305 188.338 257.733 188.391 256.878ZM196.862 259.764C198.473 259.764 199.47 258.652 199.47 256.842V256.831C199.47 255.016 198.473 253.909 196.862 253.909C195.252 253.909 194.255 255.016 194.255 256.831V256.842C194.255 258.652 195.252 259.764 196.862 259.764ZM196.862 258.956C195.792 258.956 195.189 258.174 195.189 256.842V256.831C195.189 255.493 195.792 254.717 196.862 254.717C197.933 254.717 198.536 255.493 198.536 256.831V256.842C198.536 258.174 197.933 258.956 196.862 258.956ZM203.084 259.769C204.715 259.769 205.717 258.657 205.717 256.863V256.852C205.717 255.147 204.741 254.061 203.22 254.061C202.365 254.061 201.688 254.428 201.305 255.105H201.221L201.237 254.99C201.447 253.447 202.019 252.834 203.335 252.776L203.912 252.75C204.568 252.718 205.166 252.582 205.345 252.414V251.606C204.857 251.805 204.322 251.889 203.87 251.91L203.304 251.937C201.284 252.031 200.45 253.311 200.45 256.312V256.322C200.45 258.589 201.352 259.769 203.084 259.769ZM203.084 258.961C202.003 258.961 201.384 258.19 201.384 256.863V256.852C201.384 255.588 202.003 254.869 203.084 254.869C204.164 254.869 204.783 255.588 204.783 256.852V256.863C204.783 258.19 204.164 258.961 203.084 258.961ZM208.533 259.764C209.294 259.764 209.887 259.433 210.244 258.83H210.328V259.664H211.24V255.792C211.24 254.617 210.469 253.909 209.09 253.909C207.883 253.909 207.023 254.507 206.876 255.394L206.87 255.425H207.783L207.788 255.409C207.935 254.969 208.381 254.717 209.058 254.717C209.903 254.717 210.328 255.095 210.328 255.792V256.307L208.707 256.406C207.39 256.485 206.645 257.067 206.645 258.074V258.085C206.645 259.113 207.458 259.764 208.533 259.764ZM207.579 258.064V258.053C207.579 257.492 207.956 257.188 208.817 257.135L210.328 257.041V257.555C210.328 258.363 209.651 258.972 208.722 258.972C208.067 258.972 207.579 258.636 207.579 258.064ZM212.751 259.664H215.158C216.376 259.664 217.094 259.024 217.094 258.043V258.032C217.094 257.377 216.638 256.873 215.919 256.773V256.689C216.449 256.579 216.842 256.049 216.842 255.488V255.478C216.842 254.591 216.218 254.009 215.148 254.009H212.751V259.664ZM213.663 256.401V254.764H215.017C215.652 254.764 215.935 255.089 215.935 255.572V255.583C215.935 256.118 215.604 256.401 214.87 256.401H213.663ZM213.663 258.909V257.156H214.949C215.762 257.156 216.166 257.419 216.166 258.017V258.027C216.166 258.594 215.814 258.909 215.122 258.909H213.663ZM218.379 259.664H219.292L222.088 255.446H222.172V259.664H223.085V254.009H222.172L219.376 258.227H219.292V254.009H218.379V259.664ZM228.723 254.009H224.149V254.764H225.98V259.664H226.892V254.764H228.723V254.009ZM229.782 259.664H231.802C233.098 259.664 233.927 258.919 233.927 257.749V257.739C233.927 256.569 233.098 255.824 231.802 255.824H230.695V254.009H229.782V259.664ZM231.802 256.579C232.542 256.579 233.014 257.036 233.014 257.739V257.749C233.014 258.447 232.547 258.909 231.802 258.909H230.695V256.579H231.802Z" fill="#3F8AE0"/>
</g>
<path d="M195.383 22.353H191V9.60144H340.033V22.353H336.048C333.848 22.353 332.064 24.137 332.064 26.3378V27.5333C332.064 35.456 325.641 41.8787 317.718 41.8787H213.714C205.791 41.8787 199.368 35.456 199.368 27.5333V26.3378C199.368 24.137 197.584 22.353 195.383 22.353Z" fill="#222222"/>
<path d="M240.412 29.1272C240.412 27.8068 241.483 26.7363 242.803 26.7363H276.276C277.596 26.7363 278.667 27.8068 278.667 29.1272C278.667 30.4477 277.596 31.5181 276.276 31.5181H242.803C241.483 31.5181 240.412 30.4477 240.412 29.1272Z" fill="#3C3C3C"/>
<path d="M289.824 29.1272C289.824 30.4477 288.754 31.5181 287.433 31.5181C286.113 31.5181 285.042 30.4477 285.042 29.1272C285.042 27.8068 286.113 26.7363 287.433 26.7363C288.754 26.7363 289.824 27.8068 289.824 29.1272Z" fill="#3C3C3C"/>
</g>
<rect x="141.376" y="16.3758" width="250.248" height="527.248" rx="33.6242" stroke="#222222" stroke-width="12.7515"/>
</g>
<defs>
<filter id="filter0_dd_30_16743" x="136.624" y="72.612" width="142.832" height="58.144" filterUnits="userSpaceOnUse" color-interpolation-filters="sRGB">
<feFlood flood-opacity="0" result="BackgroundImageFix"/>
<feColorMatrix in="SourceAlpha" type="matrix" values="0 0 0 0 0 0 0 0 0 0 0 0 0 0 0 0 0 0 127 0" result="hardAlpha"/>
<feOffset/>
<feGaussianBlur stdDeviation="0.632"/>
<feColorMatrix type="matrix" values="0 0 0 0 0 0 0 0 0 0 0 0 0 0 0 0 0 0 0.08 0"/>
<feBlend mode="normal" in2="BackgroundImageFix" result="effect1_dropShadow_30_16743"/>
<feColorMatrix in="SourceAlpha" type="matrix" values="0 0 0 0 0 0 0 0 0 0 0 0 0 0 0 0 0 0 127 0" result="hardAlpha"/>
<feOffset dy="1.264"/>
<feGaussianBlur stdDeviation="7.584"/>
<feColorMatrix type="matrix" values="0 0 0 0 0 0 0 0 0 0 0 0 0 0 0 0 0 0 0.08 0"/>
<feBlend mode="normal" in2="effect1_dropShadow_30_16743" result="effect2_dropShadow_30_16743"/>
<feBlend mode="normal" in="SourceGraphic" in2="effect2_dropShadow_30_16743" result="shape"/>
</filter>
<filter id="filter1_dd_30_16743" x="253.86" y="72.612" width="142.832" height="58.144" filterUnits="userSpaceOnUse" color-interpolation-filters="sRGB">
<feFlood flood-opacity="0" result="BackgroundImageFix"/>
<feColorMatrix in="SourceAlpha" type="matrix" values="0 0 0 0 0 0 0 0 0 0 0 0 0 0 0 0 0 0 127 0" result="hardAlpha"/>
<feOffset/>
<feGaussianBlur stdDeviation="0.632"/>
<feColorMatrix type="matrix" values="0 0 0 0 0 0 0 0 0 0 0 0 0 0 0 0 0 0 0.08 0"/>
<feBlend mode="normal" in2="BackgroundImageFix" result="effect1_dropShadow_30_16743"/>
<feColorMatrix in="SourceAlpha" type="matrix" values="0 0 0 0 0 0 0 0 0 0 0 0 0 0 0 0 0 0 127 0" result="hardAlpha"/>
<feOffset dy="1.264"/>
<feGaussianBlur stdDeviation="7.584"/>
<feColorMatrix type="matrix" values="0 0 0 0 0 0 0 0 0 0 0 0 0 0 0 0 0 0 0.08 0"/>
<feBlend mode="normal" in2="effect1_dropShadow_30_16743" result="effect2_dropShadow_30_16743"/>
<feBlend mode="normal" in="SourceGraphic" in2="effect2_dropShadow_30_16743" result="shape"/>
</filter>
<clipPath id="clip0_30_16743">
<rect width="534" height="272" fill="white"/>
</clipPath>
<clipPath id="clip1_30_16743">
<rect width="396" height="272" fill="white" transform="translate(69)"/>
</clipPath>
<clipPath id="clip2_30_16743">
<rect x="135" y="10" width="263" height="540" rx="40" fill="white"/>
</clipPath>
<clipPath id="clip3_30_16743">
<rect width="237" height="286.432" fill="white" transform="translate(148 23)"/>
</clipPath>
<clipPath id="clip4_30_16743">
<rect x="148" y="23" width="237" height="60.672" fill="white"/>
</clipPath>
<clipPath id="clip5_30_16743">
<rect width="43.608" height="15.168" fill="white" transform="translate(244.696 59.656)"/>
</clipPath>
<clipPath id="clip6_30_16743">
<rect width="17.696" height="17.696" fill="white" transform="translate(158.112 135.308)"/>
</clipPath>
</defs>
</svg>
