<svg height="150" viewBox="0 0 203 116" fill="none" xmlns="http://www.w3.org/2000/svg">
<g clip-path="url(#clip0_49_17147)">
<rect width="203" height="116" fill="#F77FFF"/>
<path d="M-0.215683 60.6394C14.4853 35.1765 21.8358 22.445 34.3131 19.1018C46.7904 15.7585 59.5219 23.109 84.9848 37.81L89.486 40.4088C114.949 55.1097 127.68 62.4601 131.023 74.9375C134.367 87.4149 127.016 100.146 112.315 125.609L109.717 130.11C95.0157 155.573 87.6652 168.305 75.1877 171.648C62.7102 174.991 49.9789 167.641 24.5161 152.94L20.0149 150.341C-5.44796 135.64 -18.1794 128.29 -21.5226 115.812C-24.8658 103.335 -17.5154 90.6033 -2.81447 65.1406L-0.215683 60.6394Z" fill="#77BEFF"/>
<path d="M175.903 -22.7327C204.084 -14.3486 218.175 -10.1566 224.325 1.20279C230.476 12.5622 226.283 26.6528 217.899 54.8341L216.417 59.8159C208.033 87.997 203.841 102.088 192.482 108.238C181.123 114.388 167.032 110.196 138.851 101.812L133.869 100.33C105.688 91.9462 91.5971 87.7542 85.4468 76.3946C79.2965 65.0351 83.4885 50.9445 91.8724 22.7634L93.3545 17.7816C101.739 -10.3997 105.931 -24.4904 117.29 -30.6405C128.65 -36.7907 142.74 -32.5987 170.921 -24.2148L175.903 -22.7327Z" fill="#77BEFF"/>
<path d="M17.8336 83.6736C16.64 84.8672 16.64 86.7882 16.64 90.6304V91.3096C16.64 95.1517 16.64 97.0727 17.8336 98.2664C19.0272 99.46 20.9483 99.46 24.7904 99.46H25.4696C29.3117 99.46 31.2328 99.46 32.4264 98.2664C33.62 97.0727 33.62 95.1517 33.62 91.3096V90.6304C33.62 86.7882 33.62 84.8672 32.4264 83.6736C32.164 83.4112 31.8664 83.2064 31.5209 83.0467V92.8241C31.5209 94.7728 29.4021 95.9509 27.7887 94.8992L25.0654 93.1241L22.4837 94.8512C20.8719 95.9295 18.7274 94.7539 18.7274 92.792V83.0521C18.3869 83.2111 18.0931 83.4141 17.8336 83.6736Z" fill="white"/>
<path d="M25.4696 82.48H24.7904C23.3175 82.48 22.1269 82.48 21.1514 82.5472V92.792L23.7331 91.065C24.5329 90.5299 25.5676 90.5237 26.3736 91.049L29.0969 92.8241V82.5464C28.1236 82.48 26.9366 82.48 25.4696 82.48Z" fill="white"/>
<path d="M23.3575 29.481C26.9239 29.481 29.4394 26.8987 29.4394 23.2319C29.4394 19.5823 26.9239 17 23.3575 17C19.7911 17 17.2584 19.5823 17.2584 23.2319C17.2584 26.8987 19.7911 29.481 23.3575 29.481ZM23.3575 28.121C20.6526 28.121 18.7918 26.1413 18.7918 23.2319C18.7918 20.3397 20.6526 18.3428 23.3575 18.3428C26.0625 18.3428 27.9232 20.3397 27.9232 23.2319C27.9232 26.1413 26.0625 28.121 23.3575 28.121Z" fill="white"/>
<path d="M36.9359 29.3089V21.7342H41.157V20.4775H35.5576V29.3089H36.9359Z" fill="white"/>
<path d="M44.0025 32.838V27.8456C44.64 28.6719 45.7254 29.481 47.3622 29.481C49.8776 29.481 51.6867 27.5701 51.6867 24.8846C51.6867 22.2162 49.8776 20.3053 47.3622 20.3053C45.691 20.3053 44.5883 21.1489 43.968 21.9752L43.5545 20.4775H42.6242V32.838H44.0025ZM47.121 28.2243C45.2775 28.2243 44.0025 26.8643 44.0025 24.8846C44.0025 22.922 45.2775 21.562 47.121 21.562C48.9817 21.562 50.2394 22.922 50.2394 24.8846C50.2394 26.8643 48.9817 28.2243 47.121 28.2243Z" fill="white"/>
<path d="M56.9968 27.7595H56.7729L53.775 20.4775H52.2933L56.2215 29.8253L55.9459 30.6172C55.6874 31.323 55.3773 31.5813 54.6709 31.5813H53.2065L53.3271 32.838H54.602C55.9631 32.838 56.7212 32.2527 57.2208 30.8927L60.9768 20.4775H59.5295L56.9968 27.7595Z" fill="white"/>
<path d="M63.9909 29.3089V21.7342H68.4877V29.3089H69.866V20.4775H62.6126V29.3089H63.9909Z" fill="white"/>
<path d="M73.6486 29.3089V21.7342H78.1454V29.3089H79.5237V20.4775H72.2703V29.3089H73.6486Z" fill="white"/>
<path d="M86.0112 29.481C88.7162 29.481 90.6286 27.5701 90.6286 24.8846C90.6286 22.2162 88.7162 20.3053 86.0112 20.3053C83.3235 20.3053 81.4111 22.2162 81.4111 24.8846C81.4111 27.5701 83.3235 29.481 86.0112 29.481ZM86.0112 28.2071C84.1333 28.2071 82.8583 26.8643 82.8583 24.8846C82.8583 22.922 84.1333 21.562 86.0112 21.562C87.9064 21.562 89.1814 22.922 89.1814 24.8846C89.1814 26.8643 87.9064 28.2071 86.0112 28.2071Z" fill="white"/>
<path d="M98.1273 24.6435C98.8854 24.282 99.3333 23.6451 99.3333 22.8187C99.3333 21.4587 98.1273 20.4775 96.4216 20.4775H92.5279V29.3089H96.5422C98.3685 29.3089 99.6435 28.2759 99.6435 26.8127C99.6435 25.7797 99.0405 24.9878 98.1273 24.6435ZM96.4216 21.6825C97.3175 21.6825 97.9378 22.1818 97.9378 22.9048C97.9378 23.6106 97.3175 24.1099 96.4216 24.1099H93.9062V21.6825H96.4216ZM93.9062 28.0866V25.3149H96.5422C97.5588 25.3149 98.2479 25.8658 98.2479 26.6922C98.2479 27.5185 97.5588 28.0866 96.5422 28.0866H93.9062Z" fill="white"/>
<path d="M104.576 29.3089C106.592 29.3089 108.04 28.0349 108.04 26.2273C108.04 24.4197 106.61 23.1458 104.576 23.1458H103.009V20.4775H101.63V29.3089H104.576ZM110.555 29.3089V20.4775H109.177V29.3089H110.555ZM103.009 24.3853H104.576C105.8 24.3853 106.661 25.1428 106.661 26.2273C106.661 27.3119 105.8 28.0694 104.576 28.0694H103.009V24.3853Z" fill="white"/>
<path d="M113.47 29.3089L115.865 25.6248H116.123L118.363 29.3089H120L117.054 24.6608L119.69 20.4775H118.139L116.089 23.7828H115.831L113.849 20.4775H112.264L114.883 24.7813L111.902 29.3089H113.47Z" fill="white"/>
<path d="M23.8055 50.8278V41.9965H22.4272V46.197C21.8069 46.4724 21.0144 46.6101 20.3597 46.6101C19.0503 46.6101 18.3783 45.9387 18.3783 44.5959V41.9965H17V44.5959C17 46.679 18.1888 47.8668 20.2218 47.8668C20.9627 47.8668 21.8069 47.7119 22.4272 47.4709V50.8278H23.8055Z" fill="white"/>
<path d="M29.562 41.8243C28.0114 41.8243 26.6675 42.6334 26.1679 43.9762L27.4601 44.1828C27.8563 43.4597 28.6144 43.0122 29.5103 43.0122C30.7336 43.0122 31.5261 43.8557 31.6123 45.4739H29.5448C27.0121 45.4739 25.7027 46.5929 25.7027 48.2284C25.7027 49.8638 26.9604 51 28.7522 51C30.2856 51 31.1643 50.2081 31.6812 49.4334L32.0602 50.8278H32.9906V45.8871C32.9906 43.2532 31.6467 41.8243 29.562 41.8243ZM29.0107 49.8122C27.8563 49.8122 27.0982 49.1924 27.0982 48.1939C27.0982 47.2643 27.7702 46.6618 29.562 46.6618H31.6123V46.8856C31.6123 48.8481 30.4751 49.8122 29.0107 49.8122Z" fill="white"/>
<path d="M38.5692 50.8278V43.2532H41.6359V41.9965H34.1241V43.2532H37.1908V50.8278H38.5692Z" fill="white"/>
<path d="M46.1853 41.8243C44.6347 41.8243 43.2909 42.6334 42.7912 43.9762L44.0834 44.1828C44.4797 43.4597 45.2377 43.0122 46.1337 43.0122C47.3569 43.0122 48.1495 43.8557 48.2356 45.4739H46.1681C43.6354 45.4739 42.326 46.5929 42.326 48.2284C42.326 49.8638 43.5838 51 45.3756 51C46.909 51 47.7876 50.2081 48.3045 49.4334L48.6836 50.8278H49.6139V45.8871C49.6139 43.2532 48.2701 41.8243 46.1853 41.8243ZM45.634 49.8122C44.4797 49.8122 43.7216 49.1924 43.7216 48.1939C43.7216 47.2643 44.3935 46.6618 46.1853 46.6618H48.2356V46.8856C48.2356 48.8481 47.0985 49.8122 45.634 49.8122Z" fill="white"/>
<path d="M52.445 50.8278L54.8398 47.1438H55.0983L57.3381 50.8278H58.9748L56.0287 46.1797L58.6647 41.9965H57.1141L55.0638 45.3018H54.8054L52.8241 41.9965H51.239L53.8578 46.3003L50.8772 50.8278H52.445Z" fill="white"/>
</g>
<defs>
<clipPath id="clip0_49_17147">
<rect width="203" height="116" fill="white"/>
</clipPath>
</defs>
</svg>
