<svg height="150" viewBox="0 0 203 116" fill="none" xmlns="http://www.w3.org/2000/svg">
<g clip-path="url(#clip0_49_17147)">
<rect width="203" height="116" fill="#F77FFF"/>
<path d="M17.8336 83.6736C16.64 84.8672 16.64 86.7882 16.64 90.6304V91.3096C16.64 95.1517 16.64 97.0727 17.8336 98.2664C19.0272 99.46 20.9483 99.46 24.7904 99.46H25.4696C29.3117 99.46 31.2328 99.46 32.4264 98.2664C33.62 97.0727 33.62 95.1517 33.62 91.3096V90.6304C33.62 86.7882 33.62 84.8672 32.4264 83.6736C32.164 83.4112 31.8664 83.2064 31.5209 83.0467V92.8241C31.5209 94.7728 29.4021 95.9509 27.7887 94.8992L25.0654 93.1241L22.4837 94.8512C20.8719 95.9295 18.7274 94.7539 18.7274 92.792V83.0521C18.3869 83.2111 18.0931 83.4141 17.8336 83.6736Z" fill="white"/>
<path d="M25.4696 82.48H24.7904C23.3175 82.48 22.1269 82.48 21.1514 82.5472V92.792L23.7331 91.065C24.5329 90.5299 25.5676 90.5237 26.3736 91.049L29.0969 92.8241V82.5464C28.1236 82.48 26.9366 82.48 25.4696 82.48Z" fill="white"/>
<path d="M-0.215683 60.6394C14.4853 35.1765 21.8358 22.445 34.3131 19.1018C46.7904 15.7585 59.5219 23.109 84.9848 37.81L89.486 40.4088C114.949 55.1097 127.68 62.4601 131.023 74.9375C134.367 87.4149 127.016 100.146 112.315 125.609L109.717 130.11C95.0157 155.573 87.6652 168.305 75.1877 171.648C62.7102 174.991 49.9789 167.641 24.5162 152.94L20.0149 150.341C-5.44795 135.64 -18.1794 128.29 -21.5226 115.812C-24.8658 103.335 -17.5154 90.6033 -2.81447 65.1406L-0.215683 60.6394Z" fill="#77BEFF"/>
<path d="M175.903 -22.7327C204.084 -14.3486 218.175 -10.1566 224.325 1.20279C230.476 12.5622 226.283 26.6528 217.899 54.8341L216.417 59.8159C208.033 87.997 203.841 102.088 192.482 108.238C181.123 114.388 167.032 110.196 138.851 101.812L133.869 100.33C105.688 91.9462 91.5971 87.7542 85.4468 76.3946C79.2965 65.0351 83.4885 50.9445 91.8724 22.7634L93.3545 17.7816C101.739 -10.3997 105.931 -24.4904 117.29 -30.6405C128.65 -36.7907 142.74 -32.5987 170.921 -24.2148L175.903 -22.7327Z" fill="#77BEFF"/>
<path d="M21.8976 26.0027C24.6255 26.0027 26.5496 24.0198 26.5496 21.2042C26.5496 18.4017 24.6255 16.4189 21.8976 16.4189C19.1697 16.4189 17.2325 18.4017 17.2325 21.2042C17.2325 24.0198 19.1697 26.0027 21.8976 26.0027ZM21.8976 24.9584C19.8286 24.9584 18.4053 23.4382 18.4053 21.2042C18.4053 18.9834 19.8286 17.45 21.8976 17.45C23.9666 17.45 25.3899 18.9834 25.3899 21.2042C25.3899 23.4382 23.9666 24.9584 21.8976 24.9584Z" fill="white"/>
<path d="M33.8913 26.0027C35.2751 26.0027 36.5402 25.3153 37.0673 23.9934L36.0789 23.8215C35.7758 24.5089 34.972 25.0245 33.9572 25.0245C32.5076 25.0245 31.5192 24.0066 31.5192 22.4732C31.5192 20.953 32.5076 19.9219 33.9572 19.9219C34.9193 19.9219 35.6836 20.3978 36.0131 21.0455L37.0146 20.8737C36.4743 19.6179 35.2487 18.9569 33.8913 18.9569C31.8487 18.9569 30.4123 20.4242 30.4123 22.4732C30.4123 24.5353 31.8487 26.0027 33.8913 26.0027Z" fill="white"/>
<path d="M44.4924 22.46C44.4924 20.4242 43.0691 18.9569 41.066 18.9569C39.0761 18.9569 37.6528 20.4242 37.6528 22.4732C37.6528 24.5353 39.0893 26.0027 41.1319 26.0027C42.4629 26.0027 43.6885 25.3681 44.2552 24.1256L43.2668 23.9669C42.9242 24.575 42.1598 25.0245 41.1846 25.0245C39.8273 25.0245 38.8784 24.1388 38.7598 22.7904H44.4792C44.4924 22.6318 44.4924 22.5789 44.4924 22.46ZM41.066 19.9087C42.2653 19.9087 43.135 20.7018 43.3459 21.8783H38.7994C39.0234 20.6886 39.8932 19.9087 41.066 19.9087Z" fill="white"/>
<path d="M46.6519 28.5804V24.7469C47.1395 25.3814 47.9697 26.0027 49.2217 26.0027C51.1457 26.0027 52.5295 24.5353 52.5295 22.4732C52.5295 20.4242 51.1457 18.9569 49.2217 18.9569C47.9434 18.9569 47.1 19.6047 46.6256 20.2392L46.3093 19.0891H45.5976V28.5804H46.6519ZM49.0372 25.0377C47.6271 25.0377 46.6519 23.9934 46.6519 22.4732C46.6519 20.9662 47.6271 19.9219 49.0372 19.9219C50.4605 19.9219 51.4225 20.9662 51.4225 22.4732C51.4225 23.9934 50.4605 25.0377 49.0372 25.0377Z" fill="white"/>
<path d="M58.0478 22.2881C58.6276 22.0105 58.9703 21.5214 58.9703 20.8869C58.9703 19.8426 58.0478 19.0891 56.7431 19.0891H53.7648V25.8705H56.8354C58.2323 25.8705 59.2075 25.0773 59.2075 23.9537C59.2075 23.1606 58.7463 22.5525 58.0478 22.2881ZM56.7431 20.0145C57.4284 20.0145 57.9028 20.3978 57.9028 20.953C57.9028 21.495 57.4284 21.8783 56.7431 21.8783H54.8191V20.0145H56.7431ZM54.8191 24.9319V22.8037H56.8354C57.6129 22.8037 58.14 23.2267 58.14 23.8612C58.14 24.4957 57.6129 24.9319 56.8354 24.9319H54.8191Z" fill="white"/>
<path d="M62.1505 25.8705L65.142 20.2127H65.3133V25.8705H66.3412V19.0891H64.7071L61.7288 24.7469H61.5443V19.0891H60.5164V25.8705H62.1505Z" fill="white"/>
<path d="M71.0595 26.0027C72.4432 26.0027 73.7083 25.3153 74.2355 23.9934L73.2471 23.8215C72.944 24.5089 72.1401 25.0245 71.1254 25.0245C69.6757 25.0245 68.6874 24.0066 68.6874 22.4732C68.6874 20.953 69.6757 19.9219 71.1254 19.9219C72.0874 19.9219 72.8517 20.3978 73.1812 21.0455L74.1827 20.8737C73.6424 19.6179 72.4168 18.9569 71.0595 18.9569C69.0168 18.9569 67.5804 20.4242 67.5804 22.4732C67.5804 24.5353 69.0168 26.0027 71.0595 26.0027Z" fill="white"/>
<path d="M77.7729 18.9569C76.5869 18.9569 75.559 19.5782 75.1768 20.6093L76.1652 20.7679C76.4683 20.2127 77.0481 19.869 77.7334 19.869C78.669 19.869 79.2752 20.5168 79.3411 21.7594H77.7597C75.8225 21.7594 74.821 22.6186 74.821 23.8744C74.821 25.1302 75.783 26.0027 77.1535 26.0027C78.3264 26.0027 78.9985 25.3946 79.3939 24.7997L79.6838 25.8705H80.3954V22.0766C80.3954 20.0541 79.3675 18.9569 77.7729 18.9569ZM77.3512 25.0905C76.4683 25.0905 75.8884 24.6147 75.8884 23.848C75.8884 23.1341 76.4024 22.6715 77.7729 22.6715H79.3411V22.8433C79.3411 24.3503 78.4714 25.0905 77.3512 25.0905Z" fill="white"/>
<path d="M82.35 25.8705L84.1818 23.0416H84.3795L86.0927 25.8705H87.3446L85.0911 22.3013L87.1074 19.0891H85.9214L84.3531 21.6272H84.1555L82.64 19.0891H81.4275L83.4307 22.3939L81.1508 25.8705H82.35Z" fill="white"/>
<path d="M19.196 43.3956L22.1875 37.7379H22.3588V43.3956H23.3867V36.6143H21.7526L18.7743 42.272H18.5898V36.6143H17.5619V43.3956H19.196Z" fill="white"/>
<path d="M31.06 43.528C32.4438 43.528 33.7089 42.8406 34.236 41.5187L33.2476 41.3468C32.9445 42.0342 32.1407 42.5498 31.1259 42.5498C29.6763 42.5498 28.6879 41.5319 28.6879 39.9985C28.6879 38.4783 29.6763 37.4472 31.1259 37.4472C32.0879 37.4472 32.8523 37.9231 33.1817 38.5708L34.1833 38.399C33.643 37.1432 32.4174 36.4822 31.06 36.4822C29.0174 36.4822 27.5809 37.9495 27.5809 39.9985C27.5809 42.0607 29.0174 43.528 31.06 43.528Z" fill="white"/>
<path d="M37.8293 43.3958V37.5794H40.175V36.6144H34.4293V37.5794H36.775V43.3958H37.8293Z" fill="white"/>
<path d="M44.0107 43.528C46.0797 43.528 47.5425 42.0607 47.5425 39.9985C47.5425 37.9495 46.0797 36.4822 44.0107 36.4822C41.9548 36.4822 40.492 37.9495 40.492 39.9985C40.492 42.0607 41.9548 43.528 44.0107 43.528ZM44.0107 42.5498C42.5742 42.5498 41.599 41.5187 41.599 39.9985C41.599 38.4915 42.5742 37.4472 44.0107 37.4472C45.4603 37.4472 46.4355 38.4915 46.4355 39.9985C46.4355 41.5187 45.4603 42.5498 44.0107 42.5498Z" fill="white"/>
<path d="M49.8386 46.1057V42.2722C50.3262 42.9067 51.1564 43.528 52.4084 43.528C54.3324 43.528 55.7161 42.0607 55.7161 39.9985C55.7161 37.9495 54.3324 36.4822 52.4084 36.4822C51.1301 36.4822 50.2866 37.13 49.8122 37.7645L49.4959 36.6144H48.7843V46.1057H49.8386ZM52.2239 42.563C50.8138 42.563 49.8386 41.5187 49.8386 39.9985C49.8386 38.4915 50.8138 37.4472 52.2239 37.4472C53.6471 37.4472 54.6091 38.4915 54.6091 39.9985C54.6091 41.5187 53.6471 42.563 52.2239 42.563Z" fill="white"/>
<path d="M60.0748 43.528C62.1438 43.528 63.6066 42.0607 63.6066 39.9985C63.6066 37.9495 62.1438 36.4822 60.0748 36.4822C58.0189 36.4822 56.5561 37.9495 56.5561 39.9985C56.5561 42.0607 58.0189 43.528 60.0748 43.528ZM60.0748 42.5498C58.6383 42.5498 57.6631 41.5187 57.6631 39.9985C57.6631 38.4915 58.6383 37.4472 60.0748 37.4472C61.5244 37.4472 62.4996 38.4915 62.4996 39.9985C62.4996 41.5187 61.5244 42.5498 60.0748 42.5498Z" fill="white"/>
<path d="M69.4081 39.483H65.9027V36.6144H64.8484V43.3958H65.9027V40.4479H69.4081V43.3958H70.4624V36.6144H69.4081V39.483Z" fill="white"/>
<path d="M76.6616 39.483H73.1561V36.6144H72.1019V43.3958H73.1561V40.4479H76.6616V43.3958H77.7159V36.6144H76.6616V39.483Z" fill="white"/>
<path d="M80.9894 43.3958L83.9809 37.738H84.1522V43.3958H85.1802V36.6144H83.546L80.5677 42.2722H80.3832V36.6144H79.3553V43.3958H80.9894Z" fill="white"/>
<path d="M87.1969 43.3958L89.0286 40.5669H89.2263L90.9395 43.3958H92.1915L89.938 39.8266L91.9542 36.6144H90.7682L89.2 39.1525H89.0023L87.4868 36.6144H86.2744L88.2775 39.9192L85.9976 43.3958H87.1969Z" fill="white"/>
<path d="M18.6162 63.6308V59.7973C19.1038 60.4318 19.934 61.0531 21.1859 61.0531C23.11 61.0531 24.4937 59.5858 24.4937 57.5237C24.4937 55.4747 23.11 54.0074 21.1859 54.0074C19.9076 54.0074 19.0642 54.6551 18.5898 55.2897L18.2735 54.1396H17.5619V63.6308H18.6162ZM21.0014 60.0882C19.5914 60.0882 18.6162 59.0439 18.6162 57.5237C18.6162 56.0167 19.5914 54.9724 21.0014 54.9724C22.4247 54.9724 23.3867 56.0167 23.3867 57.5237C23.3867 59.0439 22.4247 60.0882 21.0014 60.0882Z" fill="white"/>
<path d="M28.2857 54.0074C27.0996 54.0074 26.0717 54.6287 25.6895 55.6598L26.6779 55.8184C26.981 55.2632 27.5609 54.9195 28.2461 54.9195C29.1818 54.9195 29.788 55.5673 29.8539 56.8098H28.2725C26.3353 56.8098 25.3337 57.6691 25.3337 58.9249C25.3337 60.1807 26.2957 61.0531 27.6663 61.0531C28.8392 61.0531 29.5113 60.4451 29.9066 59.8502L30.1965 60.921H30.9082V57.1271C30.9082 55.1046 29.8803 54.0074 28.2857 54.0074ZM27.864 60.141C26.981 60.141 26.4012 59.6651 26.4012 58.8984C26.4012 58.1846 26.9151 57.722 28.2857 57.722H29.8539V57.8938C29.8539 59.4008 28.9841 60.141 27.864 60.141Z" fill="white"/>
<path d="M36.052 57.4444C36.6845 57.2329 37.1062 56.6644 37.1062 55.9374C37.1062 54.8138 36.0651 54.0074 34.7078 54.0074C33.5217 54.0074 32.4806 54.6287 32.0721 55.7523L33.0605 55.9242C33.3504 55.3029 33.9566 54.946 34.6682 54.946C35.4194 54.946 36.0388 55.3558 36.0388 56.0167C36.0388 56.5983 35.5775 56.9949 34.6682 56.9949H33.7326V57.9467H34.6682C35.7357 57.9467 36.1442 58.4093 36.1442 58.991C36.1442 59.6784 35.6302 60.1146 34.6682 60.1146C33.838 60.1146 33.1659 59.7973 32.8628 59.0703L31.8876 59.2289C32.2039 60.3658 33.3372 61.0531 34.6814 61.0531C36.2233 61.0531 37.2116 60.1542 37.2116 59.0439C37.2116 58.1978 36.6713 57.6559 36.052 57.4444Z" fill="white"/>
<path d="M39.6301 63.6308V59.7973C40.1177 60.4318 40.9479 61.0531 42.1999 61.0531C44.1239 61.0531 45.5076 59.5858 45.5076 57.5237C45.5076 55.4747 44.1239 54.0074 42.1999 54.0074C40.9216 54.0074 40.0781 54.6551 39.6037 55.2897L39.2874 54.1396H38.5758V63.6308H39.6301ZM42.0154 60.0882C40.6053 60.0882 39.6301 59.0439 39.6301 57.5237C39.6301 56.0167 40.6053 54.9724 42.0154 54.9724C43.4386 54.9724 44.4007 56.0167 44.4007 57.5237C44.4007 59.0439 43.4386 60.0882 42.0154 60.0882Z" fill="white"/>
<path d="M49.2996 54.0074C48.1136 54.0074 47.0856 54.6287 46.7035 55.6598L47.6918 55.8184C47.9949 55.2632 48.5748 54.9195 49.2601 54.9195C50.1957 54.9195 50.8019 55.5673 50.8678 56.8098H49.2864C47.3492 56.8098 46.3477 57.6691 46.3477 58.9249C46.3477 60.1807 47.3097 61.0531 48.6802 61.0531C49.8531 61.0531 50.5252 60.4451 50.9205 59.8502L51.2105 60.921H51.9221V57.1271C51.9221 55.1046 50.8942 54.0074 49.2996 54.0074ZM48.8779 60.141C47.9949 60.141 47.4151 59.6651 47.4151 58.8984C47.4151 58.1846 47.9291 57.722 49.2996 57.722H50.8678V57.8938C50.8678 59.4008 49.9981 60.141 48.8779 60.141Z" fill="white"/>
<path d="M56.7101 54.7477C55.6163 54.7477 54.7992 55.1839 54.2589 55.8977C54.3775 54.4436 55.0232 53.5183 56.8814 53.3465C58.1333 53.2407 59.1612 52.9631 59.2667 51.509L58.3046 51.4165C58.186 52.0378 57.9093 52.2493 56.855 52.3418C54.0349 52.6062 53.1651 54.3115 53.1651 56.9949C53.1651 58.449 53.4155 59.2818 53.9426 59.956C54.5225 60.6698 55.3659 61.0531 56.4597 61.0531C58.4101 61.0531 59.7674 59.7312 59.7674 57.8806C59.7674 56.0431 58.5023 54.7477 56.7101 54.7477ZM56.486 60.0882C55.1682 60.0882 54.2721 59.1893 54.2721 57.8938C54.2721 56.5983 55.1682 55.7127 56.486 55.7127C57.7775 55.7127 58.6736 56.5983 58.6736 57.8938C58.6736 59.1893 57.7775 60.0882 56.486 60.0882Z" fill="white"/>
<path d="M64.0643 61.0531C66.1333 61.0531 67.5961 59.5858 67.5961 57.5237C67.5961 55.4747 66.1333 54.0074 64.0643 54.0074C62.0085 54.0074 60.5457 55.4747 60.5457 57.5237C60.5457 59.5858 62.0085 61.0531 64.0643 61.0531ZM64.0643 60.0749C62.6279 60.0749 61.6527 59.0439 61.6527 57.5237C61.6527 56.0167 62.6279 54.9724 64.0643 54.9724C65.5139 54.9724 66.4891 56.0167 66.4891 57.5237C66.4891 59.0439 65.5139 60.0749 64.0643 60.0749Z" fill="white"/>
<path d="M71.3217 60.921V55.1046H73.6674V54.1396H67.9217V55.1046H70.2674V60.921H71.3217Z" fill="white"/>
<path d="M79.8431 60.921V54.1396H78.7889V57.365C78.3144 57.5765 77.7082 57.6823 77.2075 57.6823C76.2059 57.6823 75.6919 57.1668 75.6919 56.1357V54.1396H74.6377V56.1357C74.6377 57.7352 75.547 58.6473 77.102 58.6473C77.6687 58.6473 78.3144 58.5283 78.7889 58.3432V60.921H79.8431Z" fill="white"/>
<path d="M83.1129 60.921L86.1044 55.2632H86.2757V60.921H87.3036V54.1396H85.6695L82.6912 59.7973H82.5067V54.1396H81.4788V60.921H83.1129Z" fill="white"/>
<path d="M94.4862 60.921L91.2707 57.4311L94.2227 54.1396H92.9444L90.4141 56.9817H89.9924V54.1396H88.9382V60.921H89.9924V57.9863H90.4009L93.0893 60.921H94.4862Z" fill="white"/>
<path d="M98.1309 61.0531C100.2 61.0531 101.663 59.5858 101.663 57.5237C101.663 55.4747 100.2 54.0074 98.1309 54.0074C96.0751 54.0074 94.6123 55.4747 94.6123 57.5237C94.6123 59.5858 96.0751 61.0531 98.1309 61.0531ZM98.1309 60.0749C96.6944 60.0749 95.7192 59.0439 95.7192 57.5237C95.7192 56.0167 96.6944 54.9724 98.1309 54.9724C99.5805 54.9724 100.556 56.0167 100.556 57.5237C100.556 59.0439 99.5805 60.0749 98.1309 60.0749Z" fill="white"/>
<path d="M107.188 57.3386C107.767 57.061 108.11 56.5719 108.11 55.9374C108.11 54.8931 107.188 54.1396 105.883 54.1396H102.905V60.921H105.975C107.372 60.921 108.347 60.1278 108.347 59.0042C108.347 58.2111 107.886 57.603 107.188 57.3386ZM105.883 55.0649C106.568 55.0649 107.043 55.4483 107.043 56.0035C107.043 56.5455 106.568 56.9288 105.883 56.9288H103.959V55.0649H105.883ZM103.959 59.9824V57.8541H105.975C106.753 57.8541 107.28 58.2772 107.28 58.9117C107.28 59.5462 106.753 59.9824 105.975 59.9824H103.959Z" fill="white"/>
<path d="M95.8356 21.1118C96.6922 20.821 97.2457 20.0543 97.2457 19.0761C97.2457 17.5824 96.0201 16.5513 94.2674 16.5513H90.841V25.8707H94.4914C96.2573 25.8707 97.4829 24.8131 97.4829 23.3326C97.4829 22.2487 96.8372 21.4159 95.8356 21.1118ZM94.2674 17.5691C95.348 17.5691 96.086 18.2036 96.086 19.129C96.086 20.0543 95.348 20.6888 94.2674 20.6888H91.9612V17.5691H94.2674ZM91.9612 24.8528V21.6802H94.4914C95.5721 21.6802 96.3232 22.328 96.3232 23.2665C96.3232 24.2051 95.5721 24.8528 94.4914 24.8528H91.9612Z" fill="white"/>
<path d="M101.434 21.0589L105.717 16.5513H104.293L100.485 20.5831H100.103V16.5513H98.9825V25.8707H100.103V21.6406H100.511L104.531 25.8707H106.046L101.434 21.0589Z" fill="white"/>
<path d="M109.408 26.0028C111.477 26.0028 112.939 24.5355 112.939 22.4734C112.939 20.4244 111.477 18.9571 109.408 18.9571C107.352 18.9571 105.889 20.4244 105.889 22.4734C105.889 24.5355 107.352 26.0028 109.408 26.0028ZM109.408 25.0246C107.971 25.0246 106.996 23.9936 106.996 22.4734C106.996 20.9664 107.971 19.9221 109.408 19.9221C110.857 19.9221 111.832 20.9664 111.832 22.4734C111.832 23.9936 110.857 25.0246 109.408 25.0246Z" fill="white"/>
<path d="M118.741 21.9578H115.236V19.0893H114.181V25.8707H115.236V22.9228H118.741V25.8707H119.795V19.0893H118.741V21.9578Z" fill="white"/>
<path d="M124.176 25.8707V20.0543H126.522V19.0893H120.776V20.0543H123.122V25.8707H124.176Z" fill="white"/>
<path d="M129.791 18.9571C128.604 18.9571 127.577 19.5784 127.194 20.6095L128.183 20.7681C128.486 20.2129 129.066 19.8692 129.751 19.8692C130.687 19.8692 131.293 20.517 131.359 21.7596H129.777C127.84 21.7596 126.839 22.6188 126.839 23.8746C126.839 25.1304 127.801 26.0028 129.171 26.0028C130.344 26.0028 131.016 25.3948 131.411 24.7999L131.701 25.8707H132.413V22.0768C132.413 20.0543 131.385 18.9571 129.791 18.9571ZM129.369 25.0907C128.486 25.0907 127.906 24.6149 127.906 23.8482C127.906 23.1343 128.42 22.6717 129.791 22.6717H131.359V22.8435C131.359 24.3505 130.489 25.0907 129.369 25.0907Z" fill="white"/>
<path d="M139.534 25.8707L136.318 22.3808L139.27 19.0893H137.992L135.461 21.9314H135.04V19.0893H133.985V25.8707H135.04V22.936H135.448L138.137 25.8707H139.534Z" fill="white"/>
<path d="M143.053 25.8707V20.0543H145.399V19.0893H139.653V20.0543H141.999V25.8707H143.053Z" fill="white"/>
<path d="M152.556 22.4602C152.556 20.4244 151.132 18.9571 149.129 18.9571C147.139 18.9571 145.716 20.4244 145.716 22.4734C145.716 24.5355 147.153 26.0028 149.195 26.0028C150.526 26.0028 151.752 25.3683 152.319 24.1258L151.33 23.9671C150.987 24.5752 150.223 25.0246 149.248 25.0246C147.891 25.0246 146.942 24.139 146.823 22.7906H152.543C152.556 22.632 152.556 22.5791 152.556 22.4602ZM149.129 19.9089C150.329 19.9089 151.198 20.702 151.409 21.8785H146.863C147.087 20.6888 147.956 19.9089 149.129 19.9089Z" fill="white"/>
</g>
<defs>
<clipPath id="clip0_49_17147">
<rect width="203" height="116" fill="white"/>
</clipPath>
</defs>
</svg>
