<svg width="534" height="272" viewBox="0 0 534 272" fill="none" xmlns="http://www.w3.org/2000/svg">
<g clip-path="url(#clip0_30_15115)">
<g clip-path="url(#clip1_30_15115)">
<path d="M274.876 113C364.481 113 409.283 113 437.119 140.837C461.725 165.442 464.581 203.302 464.913 273.642H69C69.3316 203.302 72.1879 165.442 96.793 140.837C124.63 113 169.432 113 259.036 113H274.876Z" fill="#0077FF"/>
</g>
<g clip-path="url(#clip2_30_15115)">
<rect x="135" y="10" width="263" height="540" rx="40" fill="white"/>
<g clip-path="url(#clip3_30_15115)">
<rect x="148" y="23" width="237" height="513.184" rx="8.848" fill="white"/>
<g clip-path="url(#clip4_30_15115)">
<g clip-path="url(#clip5_30_15115)">
<path d="M148 23H385V83.672H148V23Z" fill="white"/>
<path opacity="0.4" d="M360.668 36.5881C360.668 36.1404 360.668 35.8237 360.688 35.576C360.708 35.3321 360.746 35.1832 360.806 35.0662C360.927 34.8284 361.12 34.635 361.358 34.5138C361.475 34.4542 361.624 34.4165 361.868 34.3965C362.116 34.3763 362.432 34.3761 362.88 34.3761H371.728C372.176 34.3761 372.492 34.3763 372.74 34.3965C372.984 34.4165 373.133 34.4542 373.25 34.5138C373.488 34.635 373.681 34.8284 373.802 35.0662C373.862 35.1832 373.9 35.3321 373.92 35.576C373.94 35.8237 373.94 36.1404 373.94 36.5881V38.1681C373.94 38.6157 373.94 38.9325 373.92 39.1801C373.9 39.424 373.862 39.5729 373.802 39.6899C373.681 39.9277 373.488 40.1211 373.25 40.2423C373.133 40.3019 372.984 40.3397 372.74 40.3596C372.492 40.3798 372.176 40.3801 371.728 40.3801H362.88C362.432 40.3801 362.116 40.3798 361.868 40.3596C361.624 40.3397 361.475 40.3019 361.358 40.2423C361.12 40.1211 360.927 39.9277 360.806 39.6899C360.746 39.5729 360.708 39.424 360.688 39.1801C360.668 38.9325 360.668 38.6157 360.668 38.1681V36.5881Z" stroke="black" stroke-width="0.632"/>
<path opacity="0.4" fill-rule="evenodd" clip-rule="evenodd" d="M374.888 38.7203C375.433 38.58 375.836 38.0851 375.836 37.4962C375.836 36.9072 375.433 36.4123 374.888 36.272V38.7203Z" fill="black"/>
<rect x="361.616" y="35.324" width="11.376" height="4.108" rx="0.632" fill="black"/>
<path fill-rule="evenodd" clip-rule="evenodd" d="M352.345 35.3923C353.745 35.3923 355.092 35.9304 356.107 36.8954C356.183 36.9699 356.306 36.9689 356.381 36.8933L357.112 36.1559C357.15 36.1176 357.171 36.0656 357.171 36.0115C357.17 35.9574 357.148 35.9057 357.11 35.8677C354.446 33.3148 350.243 33.3148 347.579 35.8677C347.541 35.9056 347.519 35.9574 347.518 36.0115C347.518 36.0655 347.539 36.1175 347.577 36.1559L348.308 36.8933C348.383 36.9691 348.506 36.97 348.582 36.8954C349.597 35.9304 350.944 35.3923 352.345 35.3923ZM352.345 37.7911C353.114 37.7911 353.856 38.0771 354.427 38.5936C354.504 38.6669 354.625 38.6653 354.7 38.59L355.43 37.8527C355.469 37.814 355.49 37.7615 355.489 37.707C355.489 37.6525 355.466 37.6005 355.427 37.5626C353.69 35.9469 351.001 35.9469 349.264 37.5626C349.225 37.6005 349.202 37.6525 349.202 37.707C349.201 37.7616 349.223 37.814 349.261 37.8527L349.991 38.59C350.066 38.6653 350.187 38.6669 350.264 38.5936C350.834 38.0774 351.576 37.7915 352.345 37.7911ZM353.807 39.4052C353.808 39.4598 353.786 39.5125 353.747 39.5508L352.485 40.8247C352.448 40.8622 352.397 40.8832 352.345 40.8832C352.292 40.8832 352.242 40.8622 352.205 40.8247L350.942 39.5508C350.903 39.5125 350.882 39.4598 350.883 39.4051C350.884 39.3504 350.908 39.2987 350.948 39.262C351.754 38.5802 352.935 38.5802 353.741 39.262C353.782 39.2987 353.805 39.3505 353.807 39.4052Z" fill="black"/>
<path fill-rule="evenodd" clip-rule="evenodd" d="M344.341 34.7974C344.341 34.4484 344.058 34.1654 343.709 34.1654H343.077C342.728 34.1654 342.445 34.4484 342.445 34.7974V40.2747C342.445 40.6238 342.728 40.9067 343.077 40.9067H343.709C344.058 40.9067 344.341 40.6238 344.341 40.2747V34.7974ZM340.128 35.6401H340.76C341.109 35.6401 341.392 35.9231 341.392 36.2721V40.2748C341.392 40.6238 341.109 40.9068 340.76 40.9068H340.128C339.779 40.9068 339.496 40.6238 339.496 40.2748V36.2721C339.496 35.9231 339.779 35.6401 340.128 35.6401ZM337.811 37.1147H337.179C336.83 37.1147 336.547 37.3977 336.547 37.7467V40.2747C336.547 40.6238 336.83 40.9067 337.179 40.9067H337.811C338.16 40.9067 338.443 40.6238 338.443 40.2747V37.7467C338.443 37.3977 338.16 37.1147 337.811 37.1147ZM335.493 39.0107C335.493 38.6617 335.21 38.3787 334.861 38.3787H334.229C333.88 38.3787 333.597 38.6617 333.597 39.0107V40.2747C333.597 40.6238 333.88 40.9067 334.229 40.9067H334.861C335.21 40.9067 335.493 40.6238 335.493 40.2747V39.0107Z" fill="black"/>
<path d="M167.786 41.0565H168.981V34.377H167.791L166.046 35.6037V36.7285L167.708 35.5527H167.786V41.0565ZM170.647 41.0565H175.285V40.0659H172.263V39.9687L173.6 38.6726C174.818 37.5015 175.184 36.8998 175.184 36.1406V36.1267C175.184 35.0019 174.248 34.2104 172.948 34.2104C171.554 34.2104 170.582 35.0806 170.582 36.3258L170.587 36.3397L171.698 36.3443L171.703 36.3258C171.703 35.6361 172.179 35.1686 172.888 35.1686C173.582 35.1686 174.003 35.6129 174.003 36.2286V36.2425C174.003 36.7563 173.749 37.0942 172.841 38.0107L170.647 40.2511V41.0565ZM177.281 36.7285C177.706 36.7285 178.017 36.4045 178.017 35.9971C178.017 35.5852 177.706 35.2658 177.281 35.2658C176.859 35.2658 176.545 35.5852 176.545 35.9971C176.545 36.4045 176.859 36.7285 177.281 36.7285ZM177.281 40.1631C177.706 40.1631 178.017 39.8437 178.017 39.4318C178.017 39.0198 177.706 38.7004 177.281 38.7004C176.859 38.7004 176.545 39.0198 176.545 39.4318C176.545 39.8437 176.859 40.1631 177.281 40.1631ZM182.433 41.0565H183.576V39.7743H184.474V38.7884H183.576V34.377H181.887C180.979 35.7564 180.03 37.2932 179.165 38.7976V39.7743H182.433V41.0565ZM180.276 38.8161V38.7467C180.924 37.6126 181.697 36.3767 182.382 35.3306H182.451V38.8161H180.276ZM188.025 41.1908C189.561 41.1908 190.631 40.3946 190.631 39.2512V39.242C190.631 38.3856 190.01 37.7237 189.117 37.5432V37.5154C189.881 37.3117 190.39 36.7516 190.39 36.0342V36.0249C190.39 34.9973 189.409 34.2428 188.025 34.2428C186.641 34.2428 185.659 34.9973 185.659 36.0249V36.0342C185.659 36.7516 186.168 37.3117 186.932 37.5154V37.5432C186.044 37.7237 185.419 38.3856 185.419 39.242V39.2512C185.419 40.3946 186.488 41.1908 188.025 41.1908ZM188.025 37.1358C187.326 37.1358 186.84 36.7285 186.84 36.1452V36.136C186.84 35.5527 187.326 35.1454 188.025 35.1454C188.724 35.1454 189.21 35.5527 189.21 36.136V36.1452C189.21 36.7285 188.724 37.1358 188.025 37.1358ZM188.025 40.2789C187.224 40.2789 186.655 39.816 186.655 39.1726V39.1633C186.655 38.5152 187.215 38.0477 188.025 38.0477C188.83 38.0477 189.395 38.5152 189.395 39.1633V39.1726C189.395 39.816 188.825 40.2789 188.025 40.2789Z" fill="black"/>
<path fill-rule="evenodd" clip-rule="evenodd" d="M162.51 61.2236C162.866 61.5586 162.883 62.1185 162.548 62.4744L158.063 67.24L162.548 72.0055C162.883 72.3614 162.866 72.9214 162.51 73.2563C162.155 73.5912 161.595 73.5742 161.26 73.2184L156.204 67.8464C155.883 67.5057 155.883 66.9742 156.204 66.6335L161.26 61.2615C161.595 60.9057 162.155 60.8887 162.51 61.2236Z" fill="#3F8AE0"/>
<path d="M237.723 65.9692H233.277V62.0672H231.684V71.424H233.277V67.4291H237.723V71.424H239.316V62.0672H237.723V65.9692ZM243.982 64.3898C242.642 64.3898 241.461 65.0799 241.116 66.2744L242.522 66.5133C242.735 66.0886 243.213 65.6904 243.903 65.6904C244.739 65.6904 245.23 66.2877 245.296 67.1902H243.81C241.779 67.1902 240.77 68.0794 240.77 69.3535C240.77 70.6409 241.766 71.5567 243.173 71.5567C244.301 71.5567 245.057 70.9063 245.389 70.3356L245.708 71.424H246.836V67.5485C246.836 65.5445 245.747 64.3898 243.982 64.3898ZM243.531 70.2693C242.788 70.2693 242.31 69.8844 242.31 69.2872C242.31 68.7563 242.695 68.3847 243.863 68.3847H245.309C245.309 69.5128 244.593 70.2693 243.531 70.2693ZM251.69 71.5567C253.137 71.5567 254.504 70.8134 255.021 69.3668L253.588 69.1279C253.283 69.7384 252.606 70.1631 251.783 70.1631C250.549 70.1631 249.686 69.2606 249.686 67.9732C249.686 66.6858 250.549 65.7834 251.783 65.7834C252.579 65.7834 253.243 66.1948 253.535 66.792L254.968 66.5531C254.464 65.133 253.163 64.3898 251.69 64.3898C249.58 64.3898 248.093 65.8895 248.093 67.9732C248.093 70.0569 249.58 71.5567 251.69 71.5567ZM259.209 71.424V65.9161H261.598V64.5225H255.293V65.9161H257.682V71.424H259.209ZM264.184 74.1447V70.3755C264.662 70.9462 265.525 71.5567 266.732 71.5567C268.71 71.5567 270.103 70.0569 270.103 67.9732C270.103 65.8895 268.71 64.3898 266.732 64.3898C265.472 64.3898 264.596 65.0534 264.118 65.6374L263.799 64.5225H262.658V74.1447H264.184ZM266.361 70.1897C265.073 70.1897 264.184 69.2739 264.184 67.9732C264.184 66.6726 265.073 65.7568 266.361 65.7568C267.635 65.7568 268.511 66.6726 268.511 67.9732C268.511 69.2739 267.635 70.1897 266.361 70.1897ZM274.724 71.5567C276.887 71.5567 278.413 70.0702 278.413 67.9732C278.413 65.8763 276.887 64.3898 274.724 64.3898C272.561 64.3898 271.034 65.8763 271.034 67.9732C271.034 70.0702 272.561 71.5567 274.724 71.5567ZM274.724 70.1631C273.476 70.1631 272.627 69.2739 272.627 67.9732C272.627 66.6726 273.476 65.7834 274.724 65.7834C275.971 65.7834 276.821 66.6726 276.821 67.9732C276.821 69.2739 275.971 70.1631 274.724 70.1631ZM282.952 63.6864C284.08 63.6864 285.036 63.129 285.182 61.7487H283.961C283.881 62.3061 283.536 62.5981 282.952 62.5981C282.368 62.5981 282.023 62.3061 281.944 61.7487H280.723C280.868 63.129 281.824 63.6864 282.952 63.6864ZM281.904 71.424L284.478 66.301H284.691V71.424H286.151V64.5225H283.987L281.413 69.6455H281.2V64.5225H279.74V71.424H281.904ZM294.171 71.424L290.999 67.8405L293.905 64.5225H292.087L289.778 67.2035H289.406V64.5225H287.88V71.424H289.406V68.6766H289.778L292.167 71.424H294.171ZM297.198 71.424L299.772 66.301H299.985V71.424H301.445V64.5225H299.281L296.707 69.6455H296.494V64.5225H295.034V71.424H297.198Z" fill="black"/>
</g>
<g clip-path="url(#clip6_30_15115)">
<rect x="155.584" y="91.256" width="221.832" height="50.56" rx="6.32" fill="#F5F5F5"/>
<g clip-path="url(#clip7_30_15115)">
<rect x="163.168" y="104.966" width="25.28" height="25.28" rx="12.64" fill="#2787F5"/>
<path d="M164.343 105.977V106.303H166.524V105.977H164.343ZM164.179 107.842V108.168H166.707V107.842H164.179ZM165.126 106.092C165.036 106.728 164.87 107.541 164.729 108.05H165.112C165.233 107.56 165.4 106.75 165.512 106.092H165.126ZM164.436 106.78V107.103H165.915V107.996H166.265V106.78H164.436Z" fill="#2929B2"/>
<path d="M178.668 109.011V109.337H180.849V109.011H178.668ZM178.505 110.876V111.202H181.033V110.876H178.505ZM179.452 109.126C179.361 109.761 179.195 110.575 179.054 111.084H179.437C179.559 110.594 179.725 109.783 179.838 109.126H179.452ZM178.761 109.813V110.136H180.241V111.029H180.59V109.813H178.761Z" fill="#2929B2"/>
<path d="M162.07 123.088V123.43H164.656V123.088H162.07ZM163.165 122.494V123.266H163.546V122.494H163.165ZM162.68 123.721C162.535 124.129 162.276 124.539 161.988 124.786C162.084 124.838 162.261 124.956 162.34 125.022C162.622 124.739 162.909 124.279 163.087 123.819L162.68 123.721ZM163.639 123.852C163.894 124.219 164.182 124.707 164.29 125.013L164.685 124.852C164.56 124.534 164.252 124.066 163.993 123.718L163.639 123.852Z" fill="#2929B2"/>
<path d="M184.822 107.285V107.651H187.408V107.285H184.822ZM185.917 106.651V107.475H186.298V106.651H185.917ZM185.432 107.96C185.287 108.395 185.028 108.834 184.74 109.097C184.836 109.152 185.013 109.278 185.092 109.348C185.374 109.047 185.661 108.556 185.839 108.065L185.432 107.96ZM186.391 108.1C186.646 108.492 186.934 109.012 187.042 109.339L187.437 109.167C187.312 108.828 187.004 108.328 186.745 107.957L186.391 108.1Z" fill="#2929B2"/>
<path d="M173.188 127.301V127.644H175.612V127.301H173.188ZM174.215 126.707V127.479H174.572V126.707H174.215ZM173.76 127.934C173.624 128.342 173.381 128.753 173.112 128.999C173.201 129.051 173.368 129.169 173.441 129.235C173.705 128.953 173.975 128.493 174.141 128.033L173.76 127.934ZM174.659 128.065C174.899 128.432 175.168 128.92 175.269 129.227L175.64 129.065C175.522 128.747 175.234 128.279 174.991 127.931L174.659 128.065Z" fill="#2929B2"/>
<path d="M169.107 122.494V122.825H170.548V122.494H169.107ZM169.11 123.171V123.494H170.562V123.171H169.11ZM169.096 123.843V124.171H170.542V123.843H169.096ZM168.871 122.494V123.432C168.871 123.865 168.83 124.412 168.393 124.778C168.467 124.823 168.609 124.951 168.661 125.022C169.147 124.619 169.225 123.925 169.225 123.432V122.494H168.871ZM170.386 122.494V124.585C170.386 124.645 170.363 124.664 170.297 124.667C170.228 124.667 169.989 124.67 169.784 124.659C169.842 124.749 169.908 124.914 169.928 125.016C170.228 125.016 170.432 125.01 170.571 124.951C170.703 124.894 170.752 124.792 170.752 124.591V122.494H170.386Z" fill="#2929B2"/>
<path d="M182.707 122.494V122.825H184.045V122.494H182.707ZM182.71 123.171V123.494H184.058V123.171H182.71ZM182.696 123.843V124.171H184.039V123.843H182.696ZM182.488 122.494V123.432C182.488 123.865 182.45 124.412 182.044 124.778C182.113 124.823 182.244 124.951 182.293 125.022C182.745 124.619 182.817 123.925 182.817 123.432V122.494H182.488ZM183.895 122.494V124.585C183.895 124.645 183.874 124.664 183.812 124.667C183.748 124.667 183.526 124.67 183.336 124.659C183.389 124.749 183.451 124.914 183.47 125.016C183.748 125.016 183.938 125.01 184.066 124.951C184.189 124.894 184.235 124.792 184.235 124.591V122.494H183.895Z" fill="#2929B2"/>
<path d="M165.359 127.931L164.928 127.887C164.931 128.094 164.898 128.33 164.843 128.579C164.762 128.928 164.543 129.659 164.197 130.102L164.578 130.246C164.881 129.778 165.117 128.989 165.213 128.598C165.242 128.457 165.28 128.285 165.306 128.161C165.324 128.092 165.341 128.003 165.359 127.931ZM166.363 128.188L166.014 128.33C166.223 128.576 166.43 129.075 166.506 129.385L166.876 129.221C166.785 128.956 166.541 128.429 166.363 128.188ZM164.179 128.499L164.214 128.872C164.302 128.859 164.453 128.839 164.537 128.828C164.698 128.809 165.198 128.748 165.373 128.748C165.554 128.748 165.656 128.781 165.656 129.003C165.656 129.274 165.618 129.612 165.536 129.767C165.49 129.858 165.417 129.886 165.318 129.886C165.242 129.886 165.076 129.858 164.963 129.828L165.024 130.193C165.126 130.216 165.263 130.232 165.376 130.232C165.594 130.232 165.755 130.171 165.854 129.977C165.976 129.739 166.017 129.291 166.017 128.964C166.017 128.562 165.798 128.432 165.493 128.432C165.274 128.432 164.724 128.493 164.491 128.499C164.383 128.501 164.284 128.504 164.179 128.499Z" fill="#2929B2"/>
<path d="M183.149 128.605L182.745 128.561C182.748 128.768 182.718 129.004 182.666 129.253C182.59 129.602 182.385 130.333 182.06 130.776L182.418 130.92C182.702 130.452 182.923 129.663 183.013 129.273C183.04 129.131 183.076 128.96 183.1 128.835C183.117 128.766 183.133 128.677 183.149 128.605ZM184.091 128.863L183.764 129.004C183.96 129.25 184.154 129.749 184.225 130.059L184.572 129.896C184.487 129.63 184.258 129.104 184.091 128.863ZM182.044 129.173L182.077 129.547C182.158 129.533 182.3 129.513 182.38 129.502C182.53 129.483 182.999 129.422 183.163 129.422C183.332 129.422 183.428 129.455 183.428 129.677C183.428 129.948 183.392 130.286 183.316 130.441C183.272 130.533 183.204 130.56 183.111 130.56C183.04 130.56 182.885 130.533 182.778 130.502L182.835 130.868C182.931 130.89 183.059 130.906 183.166 130.906C183.371 130.906 183.521 130.845 183.614 130.652C183.728 130.413 183.766 129.965 183.766 129.638C183.766 129.237 183.562 129.106 183.275 129.106C183.07 129.106 182.554 129.167 182.336 129.173C182.235 129.176 182.142 129.178 182.044 129.173Z" fill="#2929B2"/>
<path d="M162.831 116.95L162.883 117.297L165.359 116.913L165.307 116.556L162.831 116.95ZM163.604 115.921V117.882C163.604 118.323 163.724 118.449 164.139 118.449C164.229 118.449 164.646 118.449 164.742 118.449C165.149 118.449 165.25 118.244 165.293 117.676C165.201 117.651 165.048 117.58 164.96 117.514C164.928 118.001 164.9 118.107 164.717 118.107C164.625 118.107 164.256 118.107 164.169 118.107C163.986 118.107 163.961 118.075 163.961 117.884V115.921H163.604Z" fill="#2929B2"/>
<path d="M168.872 110.863L168.875 111.195C169.038 111.206 169.195 111.212 169.355 111.212C169.692 111.212 170.037 111.189 170.327 111.145V110.799C170.04 110.857 169.695 110.888 169.355 110.888C169.193 110.888 169.032 110.88 168.872 110.863ZM169.924 110.391H169.529C169.538 110.447 169.549 110.534 169.549 110.576C169.549 110.659 169.551 110.846 169.551 111.058C169.551 111.46 169.587 111.929 169.587 112.121C169.587 112.286 169.529 112.375 169.358 112.375C169.215 112.375 169.101 112.328 169.101 112.214C169.101 112.107 169.209 112.043 169.364 112.043C169.678 112.043 169.954 112.227 170.274 112.529L170.459 112.236C170.247 112.035 169.91 111.773 169.391 111.773C169.016 111.773 168.781 111.968 168.781 112.25C168.781 112.543 169.019 112.707 169.4 112.707C169.797 112.707 169.94 112.49 169.94 112.197C169.94 111.932 169.896 111.572 169.896 111.058C169.896 110.855 169.899 110.665 169.905 110.573C169.907 110.514 169.913 110.447 169.924 110.391ZM168.577 110.422L168.193 110.389C168.193 110.478 168.18 110.587 168.169 110.662C168.138 110.877 168.055 111.404 168.055 111.826C168.055 112.205 168.108 112.523 168.163 112.719L168.475 112.696C168.472 112.654 168.469 112.607 168.469 112.579C168.469 112.548 168.475 112.49 168.483 112.451C168.516 112.297 168.607 112.013 168.685 111.784L168.514 111.647C168.472 111.739 168.428 111.834 168.392 111.932C168.381 111.876 168.378 111.806 168.378 111.75C168.378 111.474 168.469 110.857 168.511 110.67C168.519 110.62 168.555 110.481 168.577 110.422ZM170.15 110.28L169.96 110.338C170.015 110.453 170.062 110.604 170.103 110.726L170.294 110.662C170.263 110.553 170.2 110.391 170.15 110.28ZM170.434 110.191L170.247 110.252C170.302 110.364 170.354 110.511 170.393 110.634L170.583 110.57C170.55 110.464 170.487 110.302 170.434 110.191Z" fill="#2929B2"/>
<path d="M168.872 110.863L168.875 111.195C169.038 111.206 169.195 111.212 169.355 111.212C169.692 111.212 170.037 111.189 170.327 111.145V110.799C170.04 110.857 169.695 110.888 169.355 110.888C169.193 110.888 169.032 110.88 168.872 110.863ZM169.924 110.391H169.529C169.538 110.447 169.549 110.534 169.549 110.576C169.549 110.659 169.551 110.846 169.551 111.058C169.551 111.46 169.587 111.929 169.587 112.121C169.587 112.286 169.529 112.375 169.358 112.375C169.215 112.375 169.101 112.328 169.101 112.214C169.101 112.107 169.209 112.043 169.364 112.043C169.678 112.043 169.954 112.227 170.274 112.529L170.459 112.236C170.247 112.035 169.91 111.773 169.391 111.773C169.016 111.773 168.781 111.968 168.781 112.25C168.781 112.543 169.019 112.707 169.4 112.707C169.797 112.707 169.94 112.49 169.94 112.197C169.94 111.932 169.896 111.572 169.896 111.058C169.896 110.855 169.899 110.665 169.905 110.573C169.907 110.514 169.913 110.447 169.924 110.391ZM168.577 110.422L168.193 110.389C168.193 110.478 168.18 110.587 168.169 110.662C168.138 110.877 168.055 111.404 168.055 111.826C168.055 112.205 168.108 112.523 168.163 112.719L168.475 112.696C168.472 112.654 168.469 112.607 168.469 112.579C168.469 112.548 168.475 112.49 168.483 112.451C168.516 112.297 168.607 112.013 168.685 111.784L168.514 111.647C168.472 111.739 168.428 111.834 168.392 111.932C168.381 111.876 168.378 111.806 168.378 111.75C168.378 111.474 168.469 110.857 168.511 110.67C168.519 110.62 168.555 110.481 168.577 110.422ZM170.15 110.28L169.96 110.338C170.015 110.453 170.062 110.604 170.103 110.726L170.294 110.662C170.263 110.553 170.2 110.391 170.15 110.28ZM170.434 110.191L170.247 110.252C170.302 110.364 170.354 110.511 170.393 110.634L170.583 110.57C170.55 110.464 170.487 110.302 170.434 110.191Z" fill="#2929B2"/>
<path d="M177.522 114.908L177.525 115.24C177.699 115.251 177.866 115.257 178.037 115.257C178.396 115.257 178.764 115.234 179.073 115.19V114.844C178.767 114.902 178.399 114.933 178.037 114.933C177.864 114.933 177.693 114.925 177.522 114.908ZM178.644 114.436H178.223C178.232 114.492 178.243 114.579 178.243 114.62C178.243 114.704 178.246 114.891 178.246 115.103C178.246 115.505 178.285 115.974 178.285 116.166C178.285 116.331 178.223 116.42 178.04 116.42C177.887 116.42 177.766 116.373 177.766 116.258C177.766 116.152 177.881 116.088 178.046 116.088C178.382 116.088 178.676 116.272 179.018 116.574L179.215 116.281C178.988 116.08 178.629 115.817 178.076 115.817C177.675 115.817 177.425 116.013 177.425 116.295C177.425 116.588 177.678 116.752 178.084 116.752C178.508 116.752 178.661 116.535 178.661 116.242C178.661 115.976 178.614 115.617 178.614 115.103C178.614 114.899 178.617 114.71 178.623 114.618C178.626 114.559 178.632 114.492 178.644 114.436ZM177.207 114.467L176.798 114.433C176.798 114.523 176.783 114.632 176.771 114.707C176.739 114.922 176.651 115.449 176.651 115.87C176.651 116.25 176.707 116.568 176.766 116.763L177.098 116.741C177.095 116.699 177.092 116.652 177.092 116.624C177.092 116.593 177.098 116.535 177.107 116.495C177.142 116.342 177.239 116.057 177.322 115.829L177.139 115.692C177.095 115.784 177.048 115.879 177.01 115.976C176.998 115.921 176.995 115.851 176.995 115.795C176.995 115.519 177.092 114.902 177.136 114.715C177.145 114.665 177.184 114.526 177.207 114.467ZM178.885 114.325L178.682 114.383C178.741 114.498 178.791 114.648 178.835 114.771L179.038 114.707C179.006 114.598 178.938 114.436 178.885 114.325ZM179.188 114.235L178.988 114.297C179.047 114.408 179.103 114.556 179.144 114.679L179.347 114.615C179.312 114.509 179.244 114.347 179.188 114.235Z" fill="#2929B2"/>
<path d="M177.522 114.908L177.525 115.24C177.699 115.251 177.866 115.257 178.037 115.257C178.396 115.257 178.764 115.234 179.073 115.19V114.844C178.767 114.902 178.399 114.933 178.037 114.933C177.864 114.933 177.693 114.925 177.522 114.908ZM178.644 114.436H178.223C178.232 114.492 178.243 114.579 178.243 114.62C178.243 114.704 178.246 114.891 178.246 115.103C178.246 115.505 178.285 115.974 178.285 116.166C178.285 116.331 178.223 116.42 178.04 116.42C177.887 116.42 177.766 116.373 177.766 116.258C177.766 116.152 177.881 116.088 178.046 116.088C178.382 116.088 178.676 116.272 179.018 116.574L179.215 116.281C178.988 116.08 178.629 115.817 178.076 115.817C177.675 115.817 177.425 116.013 177.425 116.295C177.425 116.588 177.678 116.752 178.084 116.752C178.508 116.752 178.661 116.535 178.661 116.242C178.661 115.976 178.614 115.617 178.614 115.103C178.614 114.899 178.617 114.71 178.623 114.618C178.626 114.559 178.632 114.492 178.644 114.436ZM177.207 114.467L176.798 114.433C176.798 114.523 176.783 114.632 176.771 114.707C176.739 114.922 176.651 115.449 176.651 115.87C176.651 116.25 176.707 116.568 176.766 116.763L177.098 116.741C177.095 116.699 177.092 116.652 177.092 116.624C177.092 116.593 177.098 116.535 177.107 116.495C177.142 116.342 177.239 116.057 177.322 115.829L177.139 115.692C177.095 115.784 177.048 115.879 177.01 115.976C176.998 115.921 176.995 115.851 176.995 115.795C176.995 115.519 177.092 114.902 177.136 114.715C177.145 114.665 177.184 114.526 177.207 114.467ZM178.885 114.325L178.682 114.383C178.741 114.498 178.791 114.648 178.835 114.771L179.038 114.707C179.006 114.598 178.938 114.436 178.885 114.325ZM179.188 114.235L178.988 114.297C179.047 114.408 179.103 114.556 179.144 114.679L179.347 114.615C179.312 114.509 179.244 114.347 179.188 114.235Z" fill="#2929B2"/>
<path d="M185.052 115.245L185.054 115.577C185.217 115.588 185.375 115.594 185.535 115.594C185.871 115.594 186.216 115.571 186.506 115.527V115.181C186.219 115.239 185.874 115.27 185.535 115.27C185.372 115.27 185.212 115.262 185.052 115.245ZM186.103 114.773H185.708C185.717 114.829 185.728 114.916 185.728 114.958C185.728 115.041 185.731 115.228 185.731 115.44C185.731 115.842 185.766 116.311 185.766 116.503C185.766 116.668 185.708 116.757 185.537 116.757C185.394 116.757 185.281 116.71 185.281 116.595C185.281 116.489 185.388 116.425 185.543 116.425C185.857 116.425 186.133 116.609 186.454 116.911L186.639 116.618C186.426 116.417 186.089 116.155 185.57 116.155C185.195 116.155 184.961 116.35 184.961 116.632C184.961 116.925 185.198 117.089 185.579 117.089C185.976 117.089 186.12 116.872 186.12 116.579C186.12 116.314 186.076 115.954 186.076 115.44C186.076 115.237 186.078 115.047 186.084 114.955C186.087 114.896 186.092 114.829 186.103 114.773ZM184.756 114.804L184.373 114.771C184.373 114.86 184.359 114.969 184.348 115.044C184.318 115.259 184.235 115.786 184.235 116.208C184.235 116.587 184.287 116.905 184.342 117.101L184.654 117.078C184.651 117.036 184.649 116.989 184.649 116.961C184.649 116.93 184.654 116.872 184.662 116.833C184.696 116.679 184.787 116.395 184.864 116.166L184.693 116.029C184.651 116.121 184.607 116.216 184.571 116.314C184.56 116.258 184.558 116.188 184.558 116.132C184.558 115.856 184.649 115.239 184.69 115.052C184.698 115.002 184.734 114.863 184.756 114.804ZM186.329 114.662L186.139 114.72C186.194 114.835 186.241 114.985 186.283 115.108L186.473 115.044C186.443 114.935 186.379 114.773 186.329 114.662ZM186.614 114.573L186.426 114.634C186.481 114.746 186.534 114.893 186.572 115.016L186.763 114.952C186.73 114.846 186.666 114.684 186.614 114.573Z" fill="#2929B2"/>
<path d="M177.973 120.132L177.976 120.464C178.139 120.476 178.296 120.481 178.456 120.481C178.793 120.481 179.138 120.459 179.428 120.414V120.068C179.141 120.127 178.796 120.158 178.456 120.158C178.293 120.158 178.133 120.149 177.973 120.132ZM179.025 119.661H178.63C178.638 119.717 178.649 119.803 178.649 119.845C178.649 119.929 178.652 120.116 178.652 120.328C178.652 120.73 178.688 121.198 178.688 121.391C178.688 121.555 178.63 121.645 178.459 121.645C178.315 121.645 178.202 121.597 178.202 121.483C178.202 121.377 178.31 121.313 178.464 121.313C178.779 121.313 179.055 121.497 179.375 121.798L179.56 121.505C179.348 121.304 179.011 121.042 178.492 121.042C178.117 121.042 177.882 121.237 177.882 121.519C177.882 121.812 178.119 121.977 178.5 121.977C178.898 121.977 179.041 121.759 179.041 121.466C179.041 121.201 178.997 120.841 178.997 120.328C178.997 120.124 179 119.934 179.005 119.842C179.008 119.784 179.014 119.717 179.025 119.661ZM177.678 119.692L177.294 119.658C177.294 119.747 177.281 119.856 177.269 119.932C177.239 120.146 177.156 120.674 177.156 121.095C177.156 121.475 177.209 121.793 177.264 121.988L177.576 121.966C177.573 121.924 177.57 121.876 177.57 121.848C177.57 121.818 177.576 121.759 177.584 121.72C177.617 121.567 177.708 121.282 177.786 121.053L177.614 120.916C177.573 121.009 177.529 121.103 177.493 121.201C177.482 121.145 177.479 121.076 177.479 121.02C177.479 120.743 177.57 120.127 177.612 119.94C177.62 119.89 177.656 119.75 177.678 119.692ZM179.251 119.549L179.061 119.608C179.116 119.722 179.163 119.873 179.204 119.996L179.395 119.932C179.364 119.823 179.301 119.661 179.251 119.549ZM179.535 119.46L179.348 119.521C179.403 119.633 179.455 119.781 179.494 119.904L179.684 119.839C179.651 119.733 179.588 119.572 179.535 119.46Z" fill="#2929B2"/>
<path d="M162.394 111.235C162.354 111.568 162.258 111.859 162.046 112.037L162.362 112.235C162.612 112.025 162.699 111.679 162.748 111.311L162.394 111.235ZM164.175 111.23C164.088 111.489 163.925 111.827 163.789 112.043L164.09 112.177C164.235 111.973 164.412 111.661 164.56 111.378L164.175 111.23ZM163.128 110.696V111.612C163.128 112.049 162.864 112.757 161.988 113.092C162.064 113.165 162.185 113.314 162.232 113.393C162.919 113.098 163.238 112.53 163.316 112.232C163.397 112.521 163.748 113.107 164.444 113.393C164.496 113.291 164.607 113.142 164.685 113.063C163.78 112.728 163.508 112.052 163.508 111.609V110.696H163.128Z" fill="#2929B2"/>
<path d="M187.169 125.392C187.128 125.725 187.032 126.016 186.821 126.194L187.137 126.392C187.386 126.182 187.473 125.835 187.522 125.468L187.169 125.392ZM188.949 125.387C188.862 125.646 188.7 125.984 188.563 126.2L188.865 126.334C189.01 126.13 189.187 125.818 189.335 125.535L188.949 125.387ZM187.902 124.853V125.768C187.902 126.206 187.638 126.914 186.763 127.249C186.838 127.322 186.96 127.471 187.006 127.55C187.693 127.255 188.012 126.687 188.091 126.389C188.172 126.678 188.523 127.264 189.219 127.55C189.271 127.448 189.381 127.299 189.459 127.22C188.555 126.885 188.282 126.209 188.282 125.765V124.853H187.902Z" fill="#2929B2"/>
<path d="M171.412 104.308L171.006 104.292C171.012 104.383 171.009 104.454 170.995 104.569C170.958 104.852 170.798 105.52 170.586 105.921L170.923 106.034C170.949 105.987 170.972 105.954 171.003 105.916C171.172 105.707 171.463 105.591 171.792 105.591C172.072 105.591 172.22 105.732 172.22 105.894C172.22 106.3 171.589 106.372 170.961 106.276L171.061 106.63C171.986 106.726 172.606 106.501 172.606 105.885C172.606 105.531 172.297 105.297 171.838 105.297C171.58 105.297 171.358 105.347 171.126 105.468C171.212 105.212 171.298 104.808 171.343 104.589C171.366 104.501 171.383 104.407 171.412 104.308ZM170.415 104.63L170.418 104.971C170.586 104.987 170.792 104.998 171.009 104.998C171.423 104.998 172.029 104.932 172.392 104.874L172.383 104.545C171.915 104.641 171.372 104.682 171.006 104.682C170.829 104.682 170.601 104.66 170.415 104.63Z" fill="#2929B2"/>
<path d="M181.524 104.647L181.118 104.629C181.124 104.726 181.121 104.803 181.107 104.926C181.07 105.23 180.91 105.945 180.698 106.375L181.035 106.495C181.061 106.445 181.084 106.41 181.115 106.369C181.284 106.145 181.575 106.021 181.904 106.021C182.184 106.021 182.332 106.172 182.332 106.345C182.332 106.781 181.701 106.857 181.073 106.754L181.173 107.134C182.098 107.237 182.718 106.996 182.718 106.336C182.718 105.957 182.409 105.706 181.95 105.706C181.692 105.706 181.47 105.759 181.238 105.889C181.324 105.615 181.41 105.182 181.455 104.947C181.478 104.853 181.495 104.753 181.524 104.647ZM180.527 104.991L180.53 105.356C180.698 105.374 180.904 105.386 181.121 105.386C181.535 105.386 182.141 105.315 182.504 105.253L182.495 104.9C182.027 105.003 181.484 105.047 181.118 105.047C180.941 105.047 180.713 105.023 180.527 104.991Z" fill="#2929B2"/>
<path d="M171.298 116.932V117.263H172.738V116.932H171.298ZM171.301 117.609V117.932H172.753V117.609H171.301ZM171.286 118.281V118.61H172.733V118.281H171.286ZM171.062 116.932V117.87C171.062 118.304 171.021 118.851 170.583 119.216C170.658 119.261 170.8 119.389 170.851 119.46C171.338 119.057 171.416 118.363 171.416 117.87V116.932H171.062ZM172.577 116.932V119.023C172.577 119.083 172.554 119.103 172.488 119.106C172.419 119.106 172.18 119.108 171.975 119.097C172.033 119.188 172.099 119.352 172.119 119.454C172.419 119.454 172.623 119.449 172.761 119.389C172.894 119.332 172.943 119.23 172.943 119.029V116.932H172.577Z" fill="#2929B2"/>
<path d="M181.862 113.755C181.35 108.265 177.614 107.3 175.81 107.503C172.95 106.162 170.129 109.484 169.524 112.544C168.919 115.604 166.801 116.581 167.435 117.654C168.069 118.727 169.256 119.27 170.027 118.562C170.797 117.854 170.9 118.396 170.769 119.504C170.664 120.39 172.426 120.771 173.321 120.851H178.333C180.857 120.411 182.501 120.617 181.862 113.755Z" fill="white"/>
<ellipse cx="175.933" cy="121.827" rx="3.67091" ry="0.839229" fill="#171B4D"/>
<path d="M173.335 119.918C173.928 120.336 174.722 120.625 175.773 120.634C176.979 120.645 177.833 120.103 178.416 119.401C178.384 120.849 178.627 122.17 178.753 122.649L175.898 127.211L172.907 122.649C173.391 122.101 173.394 120.6 173.335 119.918Z" fill="#FCA190"/>
<path d="M170.184 123.711C168.962 124.282 164.853 124.688 164.853 130.305H165.571H186.249H186.931C186.931 125.405 182.742 124.017 181.345 123.711C179.724 123.356 179.59 122.271 179.587 121.742C178.81 122.267 177.103 123.043 177.103 124.282C177.103 125.521 176.348 126.305 176.013 126.857C175.545 126.33 174.426 125.373 174.426 124.282C174.426 123.192 172.918 122.257 172.256 121.742C171.927 123.4 171.405 123.14 170.184 123.711Z" fill="#171B4D"/>
<path d="M173.358 120.884C175.121 121.642 178.273 120.137 176.992 120.219C175.71 120.301 173.335 119.606 173.335 119.606C173.422 119.996 173.358 120.884 173.358 120.884Z" fill="#F07875"/>
<path d="M178.2 112.442C176.857 112.035 176.544 110.815 176.556 110.255C172.893 109.871 171.821 113.25 171.743 114.988C171.417 114.52 170.252 114.377 170.287 115.507C170.314 116.412 171.137 117.032 171.743 117.032C171.766 117.714 172.145 119.078 173.335 119.918C173.928 120.336 174.722 120.625 175.774 120.634C176.979 120.645 177.833 120.103 178.416 119.401C179.057 118.63 179.37 117.665 179.462 117.032C180.021 116.982 181.115 116.599 181.014 115.462C180.914 114.324 180.129 114.548 179.462 114.976C179.6 114.267 179.543 112.848 178.2 112.442Z" fill="#FCA190"/>
<path d="M176.013 126.84C176.209 128.452 175.67 129.118 175.87 130.322" stroke="#FFFEFD" stroke-width="0.27808"/>
<path d="M175.589 116.304C175.571 116.308 175.552 116.308 175.534 116.304C175.261 116.235 175.082 116.163 175.029 116.017C174.977 115.871 175.063 115.757 175.147 115.639C175.249 115.512 175.321 115.364 175.357 115.206C175.365 115.167 175.388 115.133 175.42 115.11C175.453 115.088 175.494 115.08 175.533 115.088C175.572 115.095 175.606 115.118 175.629 115.151C175.651 115.184 175.659 115.224 175.651 115.263C175.607 115.463 175.518 115.651 175.391 115.812C175.366 115.846 175.343 115.881 175.322 115.916C175.413 115.961 175.509 115.994 175.608 116.014C175.627 116.018 175.645 116.027 175.661 116.038C175.677 116.05 175.69 116.065 175.7 116.082C175.71 116.099 175.717 116.117 175.72 116.137C175.723 116.156 175.722 116.176 175.717 116.195C175.709 116.224 175.693 116.25 175.67 116.27C175.647 116.289 175.619 116.301 175.589 116.304Z" fill="#F07875"/>
<path d="M178.345 113.299C178.413 113.658 177.089 113.558 176.929 113.299C176.768 113.041 176.888 112.875 177.465 112.858C177.933 112.861 178.296 113.075 178.345 113.299Z" fill="#171B4D"/>
<path d="M174.44 113.091C174.508 112.733 173.184 112.833 173.024 113.091C172.863 113.35 172.983 113.515 173.561 113.532C174.028 113.53 174.392 113.316 174.44 113.091Z" fill="#171B4D"/>
<path d="M176.983 117.032C177.08 117.268 176.648 117.988 175.762 118.002C174.699 118.02 173.854 117.375 174.098 117.044C174.228 116.869 174.922 116.901 175.53 116.865C176.139 116.829 176.917 116.863 176.983 117.032Z" fill="white"/>
<path d="M179.76 117.245C179.62 116.864 179.548 117.029 179.394 117.07C179.32 117.345 179.299 117.496 178.846 117.596C178.393 117.695 177.935 117.805 177.473 117.921C177.246 117.98 177.004 117.966 176.786 117.881C176.504 117.767 176.19 117.747 175.895 117.824C175.221 118.023 175.047 118.507 175.171 118.901C175.294 119.295 175.933 119.468 176.519 119.287C176.773 119.209 176.988 119.042 177.123 118.82C177.171 118.735 177.236 118.662 177.315 118.603C177.394 118.544 177.485 118.501 177.581 118.477C178.04 118.371 178.504 118.256 178.972 118.134C179.412 118.019 179.634 117.968 179.758 117.794C179.883 117.62 179.885 117.508 179.76 117.245Z" fill="#2929B2"/>
<path d="M177.501 115.335C177.762 115.318 177.956 115.048 177.935 114.733C177.914 114.419 177.686 114.178 177.425 114.195C177.164 114.213 176.969 114.482 176.99 114.797C177.012 115.112 177.24 115.353 177.501 115.335Z" fill="#171B4D"/>
<path d="M173.824 115.335C174.085 115.318 174.279 115.048 174.258 114.733C174.237 114.419 174.009 114.178 173.748 114.195C173.487 114.213 173.293 114.482 173.314 114.797C173.335 115.112 173.563 115.353 173.824 115.335Z" fill="#171B4D"/>
<path d="M174.741 114.948C175.258 114.708 176.177 114.837 176.434 114.944V114.033H174.741V114.948Z" fill="#171B4D"/>
<path d="M179.239 114.069C179.281 114.122 179.309 114.46 179.239 114.843C179.145 115.357 178.873 115.952 178.219 116.056C177.671 116.148 176.678 116.183 176.411 115.759C176.194 115.405 176.122 114.983 176.143 114.647C176.162 114.344 176.256 114.11 176.386 114.053C176.686 113.885 179.142 113.919 179.239 114.069Z" fill="#171B4D"/>
<path d="M179.831 114.803L179.239 114.069C179.281 114.122 179.309 114.46 179.239 114.843L179.516 114.994L179.831 114.803Z" fill="#171B4D"/>
<path d="M172.215 115.809C172.494 116.218 173.49 116.165 174.041 116.067C174.769 115.941 174.997 115.195 175.043 114.647C175.068 114.345 175.038 114.104 175.005 114.059C174.912 113.931 172.427 113.939 172.147 114.099L172.011 114.252C171.93 114.413 171.891 114.673 171.92 114.96C171.925 115.012 171.933 115.064 171.942 115.117C171.985 115.35 172.072 115.593 172.215 115.809Z" fill="#171B4D"/>
<path d="M171.426 114.803L172.185 114.067C172.143 114.12 171.947 114.46 172.018 114.843L171.74 114.96L171.426 114.803Z" fill="#171B4D"/>
</g>
<path d="M197.054 108.983V107.576H202.367V108.983H203.191V106.776H202.303V100.451H197.795L197.523 104.934C197.469 105.868 197.276 106.5 196.758 106.776H196.23V108.983H197.054ZM198.358 104.954L198.59 101.251H201.414V106.776H197.859V106.717C198.209 106.297 198.308 105.759 198.358 104.954ZM205.646 107.67C206.361 107.67 206.919 107.359 207.255 106.791H207.334V107.576H208.193V103.932C208.193 102.826 207.467 102.159 206.169 102.159C205.033 102.159 204.224 102.722 204.085 103.557L204.08 103.586H204.939L204.944 103.572C205.083 103.157 205.502 102.92 206.139 102.92C206.934 102.92 207.334 103.275 207.334 103.932V104.416L205.808 104.51C204.569 104.584 203.868 105.132 203.868 106.08V106.09C203.868 107.057 204.633 107.67 205.646 107.67ZM204.747 106.07V106.06C204.747 105.532 205.102 105.245 205.912 105.196L207.334 105.107V105.591C207.334 106.351 206.697 106.924 205.823 106.924C205.206 106.924 204.747 106.608 204.747 106.07ZM209.655 107.576H216.232V102.253H215.373V106.865H213.373V102.253H212.514V106.865H210.514V102.253H209.655V107.576ZM219.185 107.67C219.901 107.67 220.458 107.359 220.794 106.791H220.873V107.576H221.732V103.932C221.732 102.826 221.007 102.159 219.708 102.159C218.572 102.159 217.763 102.722 217.624 103.557L217.619 103.586H218.479L218.483 103.572C218.622 103.157 219.041 102.92 219.678 102.92C220.473 102.92 220.873 103.275 220.873 103.932V104.416L219.348 104.51C218.108 104.584 217.407 105.132 217.407 106.08V106.09C217.407 107.057 218.172 107.67 219.185 107.67ZM218.286 106.07V106.06C218.286 105.532 218.641 105.245 219.451 105.196L220.873 105.107V105.591C220.873 106.351 220.236 106.924 219.362 106.924C218.745 106.924 218.286 106.608 218.286 106.07ZM226.838 107.576V104.292H227.095L230.265 107.576H231.44L227.865 103.873L231.153 100.451H230.038L227.095 103.581H226.838V100.451H225.949V107.576H226.838ZM232.363 109.442C233.306 109.442 233.746 109.097 234.185 107.902L236.264 102.253H235.36L233.904 106.633H233.825L232.363 102.253H231.445L233.415 107.581L233.316 107.897C233.124 108.509 232.827 108.731 232.339 108.731C232.22 108.731 232.087 108.726 231.983 108.707V109.413C232.102 109.432 232.25 109.442 232.363 109.442ZM240.95 102.253H236.644V102.964H238.368V107.576H239.227V102.964H240.95V102.253ZM242.446 109.442C243.389 109.442 243.829 109.097 244.268 107.902L246.347 102.253H245.443L243.987 106.633H243.908L242.446 102.253H241.528L243.498 107.581L243.399 107.897C243.206 108.509 242.91 108.731 242.421 108.731C242.303 108.731 242.17 108.726 242.066 108.707V109.413C242.184 109.432 242.333 109.442 242.446 109.442ZM248.989 107.675C250.228 107.675 251.082 106.998 251.082 106.011V106.001C251.082 105.408 250.712 104.984 250.011 104.831V104.752C250.539 104.628 250.889 104.139 250.889 103.601V103.591C250.889 102.742 250.208 102.155 249.018 102.155C247.932 102.155 247.152 102.698 247.028 103.552L247.023 103.586H247.863L247.868 103.562C247.952 103.137 248.411 102.866 249.018 102.866C249.7 102.866 250.05 103.201 250.05 103.656V103.665C250.05 104.218 249.67 104.49 248.989 104.49H248.159V105.201H248.989C249.803 105.201 250.238 105.468 250.238 106.045V106.055C250.238 106.583 249.774 106.964 248.989 106.964C248.342 106.964 247.868 106.687 247.759 106.253L247.749 106.213H246.875L246.88 106.253C246.989 107.112 247.853 107.675 248.989 107.675ZM254.45 107.67C255.965 107.67 256.904 106.623 256.904 104.92V104.91C256.904 103.201 255.965 102.159 254.45 102.159C252.934 102.159 251.996 103.201 251.996 104.91V104.92C251.996 106.623 252.934 107.67 254.45 107.67ZM254.45 106.909C253.442 106.909 252.875 106.174 252.875 104.92V104.91C252.875 103.651 253.442 102.92 254.45 102.92C255.457 102.92 256.025 103.651 256.025 104.91V104.92C256.025 106.174 255.457 106.909 254.45 106.909ZM258.128 107.576H260.395C261.54 107.576 262.216 106.974 262.216 106.05V106.04C262.216 105.423 261.787 104.949 261.11 104.855V104.776C261.609 104.673 261.979 104.174 261.979 103.646V103.636C261.979 102.801 261.392 102.253 260.385 102.253H258.128V107.576ZM258.987 104.505V102.964H260.261C260.859 102.964 261.125 103.27 261.125 103.725V103.735C261.125 104.238 260.814 104.505 260.123 104.505H258.987ZM258.987 106.865V105.216H260.197C260.962 105.216 261.343 105.463 261.343 106.026V106.035C261.343 106.569 261.012 106.865 260.36 106.865H258.987ZM264.932 107.67C265.648 107.67 266.206 107.359 266.542 106.791H266.621V107.576H267.48V103.932C267.48 102.826 266.754 102.159 265.456 102.159C264.32 102.159 263.51 102.722 263.372 103.557L263.367 103.586H264.226L264.231 103.572C264.369 103.157 264.789 102.92 265.426 102.92C266.221 102.92 266.621 103.275 266.621 103.932V104.416L265.095 104.51C263.856 104.584 263.155 105.132 263.155 106.08V106.09C263.155 107.057 263.92 107.67 264.932 107.67ZM264.034 106.07V106.06C264.034 105.532 264.389 105.245 265.199 105.196L266.621 105.107V105.591C266.621 106.351 265.984 106.924 265.11 106.924C264.493 106.924 264.034 106.608 264.034 106.07Z" fill="black"/>
<path d="M196.497 118.466H198.295V120.303H198.945V118.466H200.742V117.816H198.945V115.979H198.295V117.816H196.497V118.466ZM202.044 120.472H202.803L205.378 115.353V114.683H201.547V115.329H204.644V115.385L202.044 120.472ZM210.808 118.137C210.808 117.68 210.447 117.319 209.989 117.319H209.981C209.524 117.319 209.163 117.68 209.163 118.137V118.145C209.163 118.602 209.524 118.964 209.981 118.964H209.989C210.447 118.964 210.808 118.602 210.808 118.145V118.137ZM214.634 118.137C214.634 117.68 214.273 117.319 213.815 117.319H213.807C213.35 117.319 212.989 117.68 212.989 118.137V118.145C212.989 118.602 213.35 118.964 213.807 118.964H213.815C214.273 118.964 214.634 118.602 214.634 118.145V118.137ZM218.46 118.137C218.46 117.68 218.099 117.319 217.641 117.319H217.633C217.176 117.319 216.815 117.68 216.815 118.137V118.145C216.815 118.602 217.176 118.964 217.633 118.964H217.641C218.099 118.964 218.46 118.602 218.46 118.145V118.137ZM224.547 118.137C224.547 117.68 224.186 117.319 223.729 117.319H223.721C223.264 117.319 222.902 117.68 222.902 118.137V118.145C222.902 118.602 223.264 118.964 223.721 118.964H223.729C224.186 118.964 224.547 118.602 224.547 118.145V118.137ZM228.373 118.137C228.373 117.68 228.012 117.319 227.555 117.319H227.547C227.09 117.319 226.728 117.68 226.728 118.137V118.145C226.728 118.602 227.09 118.964 227.547 118.964H227.555C228.012 118.964 228.373 118.602 228.373 118.145V118.137ZM232.199 118.137C232.199 117.68 231.838 117.319 231.381 117.319H231.373C230.916 117.319 230.555 117.68 230.555 118.137V118.145C230.555 118.602 230.916 118.964 231.373 118.964H231.381C231.838 118.964 232.199 118.602 232.199 118.145V118.137ZM238.287 118.137C238.287 117.68 237.926 117.319 237.468 117.319H237.46C237.003 117.319 236.642 117.68 236.642 118.137V118.145C236.642 118.602 237.003 118.964 237.46 118.964H237.468C237.926 118.964 238.287 118.602 238.287 118.145V118.137ZM242.113 118.137C242.113 117.68 241.752 117.319 241.294 117.319H241.286C240.829 117.319 240.468 117.68 240.468 118.137V118.145C240.468 118.602 240.829 118.964 241.286 118.964H241.294C241.752 118.964 242.113 118.602 242.113 118.145V118.137ZM246.086 120.472H249.833V119.822H247.089V119.758L248.405 118.398C249.452 117.319 249.737 116.837 249.737 116.175V116.167C249.737 115.233 248.963 114.547 247.952 114.547C246.844 114.547 246.05 115.285 246.046 116.312L246.054 116.316L246.744 116.32L246.748 116.312C246.748 115.63 247.209 115.176 247.903 115.176C248.585 115.176 248.999 115.634 248.999 116.244V116.252C248.999 116.757 248.782 117.058 248.044 117.856L246.086 119.974V120.472ZM250.995 120.472H254.742V119.822H251.998V119.758L253.314 118.398C254.361 117.319 254.646 116.837 254.646 116.175V116.167C254.646 115.233 253.872 114.547 252.861 114.547C251.754 114.547 250.959 115.285 250.955 116.312L250.963 116.316L251.653 116.32L251.657 116.312C251.657 115.63 252.119 115.176 252.813 115.176C253.495 115.176 253.908 115.634 253.908 116.244V116.252C253.908 116.757 253.691 117.058 252.953 117.856L250.995 119.974V120.472Z" fill="#818C99"/>
<g clip-path="url(#clip8_30_15115)">
<path d="M197.38 134.04C198.355 134.04 198.76 133.438 199.229 132.343L201.003 128.211H200.252L198.736 131.962H198.672L197.119 128.211H196.349L198.327 132.764C198.098 133.19 197.813 133.374 197.38 133.374C197.207 133.374 197.107 133.354 197.059 133.342V133.988C197.107 134.012 197.22 134.04 197.38 134.04ZM201.635 134H202.333V130.253H204.435V134H205.133V129.675H201.635V134ZM206.46 135.444H207.158V133.318H207.222C207.459 133.779 207.977 134.076 208.57 134.076C209.67 134.076 210.384 133.198 210.384 131.842V131.834C210.384 130.486 209.666 129.599 208.57 129.599C207.969 129.599 207.487 129.884 207.222 130.365H207.158V129.675H206.46V135.444ZM208.41 133.458C207.624 133.458 207.142 132.84 207.142 131.842V131.834C207.142 130.835 207.624 130.217 208.41 130.217C209.2 130.217 209.67 130.827 209.67 131.834V131.842C209.67 132.849 209.2 133.458 208.41 133.458ZM212.693 134.076C213.275 134.076 213.728 133.823 214.001 133.362H214.065V134H214.763V131.039C214.763 130.141 214.174 129.599 213.118 129.599C212.196 129.599 211.538 130.056 211.426 130.734L211.422 130.758H212.12L212.124 130.746C212.236 130.409 212.577 130.217 213.094 130.217C213.74 130.217 214.065 130.506 214.065 131.039V131.432L212.826 131.509C211.819 131.569 211.249 132.014 211.249 132.784V132.792C211.249 133.579 211.871 134.076 212.693 134.076ZM211.963 132.776V132.768C211.963 132.339 212.252 132.106 212.91 132.066L214.065 131.994V132.387C214.065 133.005 213.548 133.47 212.838 133.47C212.336 133.47 211.963 133.214 211.963 132.776ZM216.066 134H217.907C218.838 134 219.388 133.51 219.388 132.76V132.752C219.388 132.251 219.039 131.866 218.489 131.789V131.725C218.894 131.641 219.195 131.236 219.195 130.807V130.799C219.195 130.121 218.718 129.675 217.899 129.675H216.066V134ZM216.764 131.505V130.253H217.799C218.284 130.253 218.501 130.502 218.501 130.871V130.879C218.501 131.288 218.248 131.505 217.687 131.505H216.764ZM216.764 133.422V132.082H217.747C218.369 132.082 218.678 132.283 218.678 132.74V132.748C218.678 133.181 218.409 133.422 217.879 133.422H216.764ZM221.493 132.307L221.653 130.253H223.158V134H223.856V129.675H221.027L220.843 132.251C220.799 132.893 220.638 133.394 220.241 133.394C220.137 133.394 220.028 133.378 219.992 133.366V133.996C220.048 134.016 220.161 134.04 220.309 134.04C221.031 134.04 221.4 133.498 221.493 132.307ZM226.947 134.076C227.966 134.076 228.584 133.498 228.733 132.913L228.741 132.881H228.043L228.027 132.917C227.91 133.177 227.549 133.454 226.963 133.454C226.193 133.454 225.7 132.933 225.68 132.038H228.793V131.765C228.793 130.474 228.079 129.599 226.903 129.599C225.728 129.599 224.966 130.514 224.966 131.85V131.854C224.966 133.21 225.712 134.076 226.947 134.076ZM226.899 130.221C227.537 130.221 228.011 130.626 228.083 131.481H225.692C225.768 130.658 226.257 130.221 226.899 130.221ZM232.743 134H233.441V129.675H232.743V131.464H230.601V129.675H229.903V134H230.601V132.042H232.743V134ZM234.764 134H235.462L237.6 130.774H237.664V134H238.362V129.675H237.664L235.526 132.901H235.462V129.675H234.764V134ZM241.458 134.076C242.477 134.076 243.095 133.498 243.244 132.913L243.252 132.881H242.554L242.538 132.917C242.421 133.177 242.06 133.454 241.474 133.454C240.704 133.454 240.211 132.933 240.191 132.038H243.304V131.765C243.304 130.474 242.59 129.599 241.414 129.599C240.239 129.599 239.477 130.514 239.477 131.85V131.854C239.477 133.21 240.223 134.076 241.458 134.076ZM241.41 130.221C242.048 130.221 242.521 130.626 242.594 131.481H240.203C240.279 130.658 240.768 130.221 241.41 130.221ZM248.4 134H249.114L251.249 128.211H250.49L248.789 133.065H248.725L247.024 128.211H246.266L248.4 134ZM252.214 134H252.936V131.978L253.63 131.212L255.721 134H256.655L254.128 130.71L256.443 128.211H255.536L253.001 131.023H252.936V128.211H252.214V134ZM259.842 134H260.564V128.211H259.842V134ZM261.991 134H263.977C265.698 134 266.709 132.929 266.709 131.107V131.099C266.709 129.282 265.694 128.211 263.977 128.211H261.991V134ZM262.714 133.35V128.861H263.929C265.213 128.861 265.971 129.695 265.971 131.107V131.115C265.971 132.524 265.221 133.35 263.929 133.35H262.714Z" fill="#3F8AE0"/>
</g>
<path d="M361.114 114.89C360.868 114.644 360.869 114.243 361.114 113.998L361.17 113.942C361.416 113.696 361.814 113.694 362.064 113.943L365.277 117.157C365.524 117.404 365.526 117.802 365.277 118.051L362.064 121.265C361.816 121.512 361.415 121.511 361.17 121.266L361.114 121.21C360.868 120.964 360.866 120.566 361.114 120.318L363.828 117.604L361.114 114.89Z" fill="#B8C1CC"/>
</g>
<path d="M166.963 157.932C169.827 157.932 172.016 160.33 172.016 163.355L172.013 164.51C172.013 164.704 172.139 164.929 172.48 165.33C172.522 165.38 172.563 165.427 172.651 165.528C173.327 166.311 173.596 166.764 173.596 167.468C173.596 167.784 173.56 168.03 173.41 168.326C173.09 168.955 172.407 169.308 171.384 169.308L169.74 169.308C169.318 170.739 168.358 171.52 166.96 171.52C165.562 171.52 164.602 170.739 164.18 169.308L162.536 169.308C161.484 169.308 160.793 168.945 160.487 168.294C160.354 168.012 160.324 167.783 160.324 167.468C160.324 166.764 160.592 166.311 161.267 165.529C161.355 165.427 161.396 165.38 161.438 165.33C161.779 164.929 161.904 164.704 161.904 164.509V163.354C161.904 160.331 164.098 157.932 166.963 157.932ZM168.401 169.309H165.519C165.804 169.967 166.264 170.256 166.96 170.256C167.656 170.256 168.116 169.967 168.401 169.309ZM166.963 159.196C164.823 159.196 163.168 161.005 163.168 163.354V164.509C163.168 165.096 162.925 165.531 162.402 166.148C162.356 166.202 162.312 166.253 162.225 166.354C161.744 166.911 161.588 167.175 161.588 167.468C161.588 167.611 161.598 167.687 161.631 167.757C161.709 167.923 161.939 168.044 162.536 168.044H171.384C171.962 168.044 172.197 167.922 172.283 167.753C172.321 167.679 172.332 167.601 172.332 167.468C172.332 167.175 172.176 166.912 171.694 166.355C171.607 166.253 171.563 166.203 171.516 166.148C170.993 165.531 170.749 165.096 170.749 164.509L170.752 163.354C170.752 161.004 169.102 159.196 166.963 159.196Z" fill="#3F8AE0"/>
<path d="M187.683 167.941C188.957 167.941 189.487 167.154 190.101 165.721L192.42 160.318H191.439L189.456 165.223H189.372L187.342 160.318H186.334L188.921 166.272C188.622 166.828 188.249 167.07 187.683 167.07C187.457 167.07 187.326 167.043 187.263 167.028V167.872C187.326 167.904 187.473 167.941 187.683 167.941ZM193.054 167.888H195.462C196.679 167.888 197.398 167.248 197.398 166.267V166.257C197.398 165.601 196.941 165.097 196.223 164.997V164.914C196.752 164.803 197.146 164.274 197.146 163.712V163.702C197.146 162.815 196.522 162.233 195.451 162.233H193.054V167.888ZM193.967 164.625V162.988H195.32C195.955 162.988 196.238 163.313 196.238 163.796V163.807C196.238 164.342 195.908 164.625 195.173 164.625H193.967ZM193.967 167.133V165.38H195.252C196.065 165.38 196.469 165.643 196.469 166.241V166.251C196.469 166.818 196.118 167.133 195.425 167.133H193.967ZM200.943 167.988C202.276 167.988 203.084 167.232 203.278 166.466L203.288 166.424H202.375L202.354 166.472C202.202 166.813 201.73 167.175 200.964 167.175C199.957 167.175 199.312 166.493 199.285 165.323H203.356V164.966C203.356 163.277 202.423 162.133 200.885 162.133C199.348 162.133 198.352 163.329 198.352 165.076V165.081C198.352 166.855 199.327 167.988 200.943 167.988ZM200.88 162.946C201.714 162.946 202.333 163.476 202.428 164.594H199.301C199.401 163.518 200.041 162.946 200.88 162.946ZM204.693 169.383V167.888H209.116V169.383H209.966V167.133H209.063V162.233H205.207L204.987 165.386C204.935 166.146 204.73 166.86 204.316 167.133H203.843V169.383H204.693ZM208.151 167.133H205.37V167.049C205.638 166.697 205.785 166.094 205.837 165.407L206.015 162.988H208.151V167.133ZM213.223 167.988C214.833 167.988 215.83 166.876 215.83 165.066V165.055C215.83 163.24 214.833 162.133 213.223 162.133C211.612 162.133 210.615 163.24 210.615 165.055V165.066C210.615 166.876 211.612 167.988 213.223 167.988ZM213.223 167.18C212.153 167.18 211.549 166.398 211.549 165.066V165.055C211.549 163.717 212.153 162.941 213.223 162.941C214.293 162.941 214.896 163.717 214.896 165.055V165.066C214.896 166.398 214.293 167.18 213.223 167.18ZM218.001 167.888V163.864H218.101L219.879 167.731H220.582L222.366 163.864H222.466V167.888H223.378V162.233H222.319L220.294 166.619H220.21L218.195 162.233H217.088V167.888H218.001ZM226.247 165.674L226.457 162.988H228.424V167.888H229.337V162.233H225.639L225.397 165.601C225.34 166.44 225.13 167.096 224.61 167.096C224.474 167.096 224.332 167.075 224.285 167.059V167.883C224.359 167.909 224.505 167.941 224.7 167.941C225.644 167.941 226.127 167.232 226.247 165.674ZM233.187 167.988C234.519 167.988 235.327 167.232 235.521 166.466L235.532 166.424H234.619L234.598 166.472C234.446 166.813 233.974 167.175 233.208 167.175C232.201 167.175 231.555 166.493 231.529 165.323H235.6V164.966C235.6 163.277 234.666 162.133 233.129 162.133C231.592 162.133 230.595 163.329 230.595 165.076V165.081C230.595 166.855 231.571 167.988 233.187 167.988ZM233.124 162.946C233.958 162.946 234.577 163.476 234.672 164.594H231.545C231.645 163.518 232.285 162.946 233.124 162.946ZM240.573 167.888H241.485V162.233H240.573V164.573H237.771V162.233H236.858V167.888H237.771V165.328H240.573V167.888ZM243.022 167.888H243.935L246.731 163.67H246.815V167.888H247.728V162.233H246.815L244.019 166.451H243.935V162.233H243.022V167.888ZM252.27 167.888H253.183V162.233H251.215C249.92 162.233 249.091 162.941 249.091 164.1V164.111C249.091 164.882 249.573 165.47 250.371 165.695L248.792 167.888H249.867L251.31 165.863H252.27V167.888ZM251.215 165.108C250.476 165.108 250.025 164.683 250.025 164.09V164.079C250.025 163.397 250.47 162.988 251.215 162.988H252.27V165.108H251.215Z" fill="black"/>
<path d="M367.75 161.854C367.504 161.608 367.505 161.207 367.75 160.962L367.806 160.906C368.052 160.66 368.45 160.658 368.699 160.907L371.913 164.121C372.16 164.368 372.162 164.766 371.913 165.015L368.699 168.229C368.452 168.476 368.051 168.475 367.806 168.23L367.75 168.174C367.504 167.928 367.502 167.53 367.75 167.282L370.464 164.568L367.75 161.854Z" fill="#B8C1CC"/>
<path d="M170.96 199.798L162.066 190.904C161.175 191.994 160.64 193.386 160.64 194.904C160.64 198.395 163.47 201.224 166.96 201.224C168.478 201.224 169.87 200.689 170.96 199.798ZM171.854 198.904C172.745 197.814 173.28 196.422 173.28 194.904C173.28 191.414 170.45 188.584 166.96 188.584C165.442 188.584 164.05 189.119 162.96 190.011L171.854 198.904ZM166.96 202.488C162.771 202.488 159.376 199.093 159.376 194.904C159.376 190.716 162.771 187.32 166.96 187.32C171.149 187.32 174.544 190.716 174.544 194.904C174.544 199.093 171.149 202.488 166.96 202.488Z" fill="#3F8AE0"/>
<path d="M186.938 198.224H187.882V194.777H192.037V198.224H192.981V190.654H192.037V193.927H187.882V190.654H186.938V198.224ZM196.952 198.324C198.284 198.324 199.092 197.568 199.286 196.802L199.297 196.76H198.384L198.363 196.808C198.211 197.149 197.739 197.511 196.973 197.511C195.965 197.511 195.32 196.829 195.294 195.659H199.365V195.302C199.365 193.613 198.431 192.469 196.894 192.469C195.357 192.469 194.36 193.665 194.36 195.412V195.417C194.36 197.191 195.336 198.324 196.952 198.324ZM196.889 193.282C197.723 193.282 198.342 193.812 198.436 194.929H195.31C195.409 193.854 196.049 193.282 196.889 193.282ZM205.743 198.329C207.374 198.329 208.376 197.217 208.376 195.423V195.412C208.376 193.707 207.4 192.621 205.879 192.621C205.024 192.621 204.347 192.988 203.964 193.665H203.88L203.896 193.55C204.106 192.007 204.678 191.394 205.994 191.336L206.571 191.31C207.227 191.278 207.825 191.142 208.004 190.974V190.166C207.516 190.365 206.981 190.449 206.529 190.47L205.963 190.497C203.943 190.591 203.109 191.871 203.109 194.872V194.882C203.109 197.149 204.011 198.329 205.743 198.329ZM205.743 197.521C204.662 197.521 204.043 196.75 204.043 195.423V195.412C204.043 194.148 204.662 193.429 205.743 193.429C206.823 193.429 207.442 194.148 207.442 195.412V195.423C207.442 196.75 206.823 197.521 205.743 197.521ZM211.948 198.324C213.28 198.324 214.088 197.568 214.282 196.802L214.293 196.76H213.38L213.359 196.808C213.207 197.149 212.735 197.511 211.969 197.511C210.962 197.511 210.316 196.829 210.29 195.659H214.361V195.302C214.361 193.613 213.427 192.469 211.89 192.469C210.353 192.469 209.356 193.665 209.356 195.412V195.417C209.356 197.191 210.332 198.324 211.948 198.324ZM211.885 193.282C212.719 193.282 213.338 193.812 213.433 194.929H210.306C210.406 193.854 211.046 193.282 211.885 193.282ZM217.938 198.324C219.297 198.324 220.058 197.594 220.288 196.571L220.299 196.514L219.397 196.519L219.386 196.55C219.176 197.18 218.694 197.516 217.933 197.516C216.926 197.516 216.275 196.682 216.275 195.381V195.37C216.275 194.095 216.915 193.277 217.933 193.277C218.746 193.277 219.25 193.728 219.391 194.284L219.397 194.3H220.304L220.299 194.268C220.131 193.261 219.307 192.469 217.933 192.469C216.349 192.469 215.341 193.613 215.341 195.37V195.381C215.341 197.175 216.354 198.324 217.938 198.324ZM221.478 198.224H222.391V193.324H225.14V198.224H226.053V192.569H221.478V198.224ZM229.919 198.324C231.529 198.324 232.526 197.212 232.526 195.402V195.391C232.526 193.576 231.529 192.469 229.919 192.469C228.308 192.469 227.311 193.576 227.311 195.391V195.402C227.311 197.212 228.308 198.324 229.919 198.324ZM229.919 197.516C228.848 197.516 228.245 196.734 228.245 195.402V195.391C228.245 194.053 228.848 193.277 229.919 193.277C230.989 193.277 231.592 194.053 231.592 195.391V195.402C231.592 196.734 230.989 197.516 229.919 197.516ZM234.986 195.648L237.199 198.224H238.369L235.725 195.234L238.27 192.569H237.173L234.986 194.935H234.697V192.569H233.784V198.224H234.697V195.648H234.986ZM241.437 198.324C243.048 198.324 244.045 197.212 244.045 195.402V195.391C244.045 193.576 243.048 192.469 241.437 192.469C239.827 192.469 238.83 193.576 238.83 195.391V195.402C238.83 197.212 239.827 198.324 241.437 198.324ZM241.437 197.516C240.367 197.516 239.764 196.734 239.764 195.402V195.391C239.764 194.053 240.367 193.277 241.437 193.277C242.508 193.277 243.111 194.053 243.111 195.391V195.402C243.111 196.734 242.508 197.516 241.437 197.516ZM245.303 198.224H246.216L249.012 194.006H249.096V198.224H250.009V192.569H249.096L246.3 196.787H246.216V192.569H245.303V198.224ZM255.648 192.569H251.073V193.324H252.904V198.224H253.817V193.324H255.648V192.569ZM256.706 198.224H258.726C260.022 198.224 260.851 197.479 260.851 196.309V196.299C260.851 195.129 260.022 194.384 258.726 194.384H257.619V192.569H256.706V198.224ZM258.726 195.139C259.466 195.139 259.938 195.596 259.938 196.299V196.309C259.938 197.007 259.471 197.469 258.726 197.469H257.619V195.139H258.726Z" fill="black"/>
<path d="M367.75 192.19C367.504 191.944 367.505 191.543 367.75 191.298L367.806 191.242C368.052 190.996 368.45 190.994 368.699 191.244L371.913 194.457C372.16 194.704 372.162 195.102 371.913 195.352L368.699 198.565C368.452 198.812 368.051 198.811 367.806 198.566L367.75 198.51C367.504 198.264 367.502 197.866 367.75 197.618L370.464 194.904L367.75 192.19Z" fill="#B8C1CC"/>
<rect x="158.112" y="217.656" width="216.832" height="0.316" fill="#D7D8D9"/>
<path d="M169.172 236.932C169.172 235.71 168.182 234.72 166.96 234.72C165.738 234.72 164.748 235.71 164.748 236.932C164.748 238.154 165.738 239.144 166.96 239.144C168.182 239.144 169.172 238.154 169.172 236.932ZM170.436 236.932C170.436 238.852 168.88 240.408 166.96 240.408C165.04 240.408 163.484 238.852 163.484 236.932C163.484 235.012 165.04 233.456 166.96 233.456C168.88 233.456 170.436 235.012 170.436 236.932ZM162.536 244.606C162.536 245.202 162.485 245.148 162.824 245.148H171.412C171.751 245.148 171.7 245.202 171.7 244.606C171.7 243.16 169.612 242.304 167.118 242.304C164.624 242.304 162.536 243.16 162.536 244.606ZM161.272 244.606C161.272 242.154 163.989 241.04 167.118 241.04C170.247 241.04 172.964 242.154 172.964 244.606C172.964 245.881 172.47 246.412 171.412 246.412H162.824C161.766 246.412 161.272 245.881 161.272 244.606Z" fill="#3F8AE0"/>
<path d="M186.334 243.728H187.326L188.087 241.561H191.098L191.859 243.728H192.85L190.059 236.158H189.125L186.334 243.728ZM189.55 237.38H189.634L190.82 240.759H188.365L189.55 237.38ZM195.105 241.152L197.319 243.728H198.489L195.845 240.738L198.389 238.073H197.293L195.105 240.439H194.817V238.073H193.904V243.728H194.817V241.152H195.105ZM200.691 241.152L202.905 243.728H204.075L201.431 240.738L203.975 238.073H202.879L200.691 240.439H200.403V238.073H199.49V243.728H200.403V241.152H200.691ZM206.477 243.828C207.238 243.828 207.831 243.497 208.187 242.894H208.271V243.728H209.184V239.856C209.184 238.681 208.413 237.973 207.033 237.973C205.827 237.973 204.966 238.571 204.819 239.458L204.814 239.489H205.727L205.732 239.473C205.879 239.033 206.325 238.781 207.002 238.781C207.846 238.781 208.271 239.159 208.271 239.856V240.371L206.65 240.47C205.333 240.549 204.588 241.131 204.588 242.138V242.149C204.588 243.177 205.402 243.828 206.477 243.828ZM205.522 242.128V242.117C205.522 241.556 205.9 241.252 206.76 241.199L208.271 241.105V241.619C208.271 242.427 207.594 243.036 206.666 243.036C206.01 243.036 205.522 242.7 205.522 242.128ZM211.13 245.711C212.132 245.711 212.598 245.344 213.065 244.074L215.274 238.073H214.314L212.766 242.726H212.682L211.13 238.073H210.154L212.247 243.733L212.142 244.069C211.937 244.72 211.623 244.956 211.103 244.956C210.977 244.956 210.836 244.95 210.726 244.929V245.68C210.851 245.701 211.009 245.711 211.13 245.711ZM220.037 243.728H220.949V238.073H220.037V240.412H217.235V238.073H216.322V243.728H217.235V241.168H220.037V243.728ZM226.583 238.073H222.008V238.828H223.839V243.728H224.752V238.828H226.583V238.073Z" fill="black"/>
<path d="M367.75 237.694C367.504 237.448 367.505 237.047 367.75 236.802L367.806 236.746C368.052 236.5 368.45 236.498 368.699 236.747L371.913 239.961C372.16 240.208 372.162 240.606 371.913 240.855L368.699 244.069C368.452 244.316 368.051 244.315 367.806 244.07L367.75 244.014C367.504 243.768 367.502 243.37 367.75 243.122L370.464 240.408L367.75 237.694Z" fill="#B8C1CC"/>
<path d="M166.96 263.371C171.023 263.371 174.333 266.35 174.333 270.007C174.333 272.447 172.35 274.431 169.909 274.431H168.604C168.398 274.431 168.236 274.593 168.236 274.799C168.236 274.888 168.272 274.969 168.331 275.043C168.634 275.389 168.803 275.824 168.803 276.274C168.803 277.292 167.977 278.117 166.96 278.117C162.897 278.117 159.587 274.807 159.587 270.744C159.587 266.681 162.897 263.371 166.96 263.371ZM166.957 264.633C163.59 264.633 160.849 267.374 160.849 270.741C160.849 274.108 163.59 276.849 166.957 276.849C167.171 276.849 167.339 276.681 167.339 276.467C167.339 276.345 167.277 276.254 167.232 276.2C166.919 275.849 166.751 275.398 166.751 274.94C166.751 273.887 167.606 273.032 168.659 273.032H170.011C171.698 273.032 173.065 271.665 173.065 269.977C173.065 267.03 170.324 264.633 166.957 264.633ZM162.905 269.269C163.515 269.269 164.011 269.765 164.011 270.375C164.011 270.986 163.515 271.481 162.905 271.481C162.294 271.481 161.799 270.986 161.799 270.375C161.799 269.765 162.294 269.269 162.905 269.269ZM171.015 269.269C171.626 269.269 172.121 269.765 172.121 270.375C172.121 270.986 171.626 271.481 171.015 271.481C170.404 271.481 169.909 270.986 169.909 270.375C169.909 269.765 170.404 269.269 171.015 269.269ZM165.117 266.32C165.727 266.32 166.223 266.815 166.223 267.426C166.223 268.037 165.727 268.532 165.117 268.532C164.506 268.532 164.011 268.037 164.011 267.426C164.011 266.815 164.506 266.32 165.117 266.32ZM168.803 266.32C169.414 266.32 169.909 266.815 169.909 267.426C169.909 268.037 169.414 268.532 168.803 268.532C168.192 268.532 167.697 268.037 167.697 267.426C167.697 266.815 168.192 266.32 168.803 266.32Z" fill="#3F8AE0"/>
<path d="M186.938 274.064H189.891C191.502 274.064 192.457 273.272 192.457 271.945V271.934C192.457 270.937 191.801 270.229 190.767 270.098V270.014C191.497 269.883 192.074 269.169 192.074 268.388V268.377C192.074 267.223 191.224 266.494 189.834 266.494H186.938V274.064ZM189.634 267.328C190.573 267.328 191.119 267.774 191.119 268.54V268.55C191.119 269.348 190.537 269.757 189.393 269.757H187.882V267.328H189.634ZM189.66 270.57C190.867 270.57 191.486 271.016 191.486 271.887V271.897C191.486 272.768 190.888 273.23 189.75 273.23H187.882V270.57H189.66ZM197.44 274.064H198.352V268.409H197.44V270.748H194.638V268.409H193.725V274.064H194.638V271.504H197.44V274.064ZM202.202 274.164C203.535 274.164 204.343 273.408 204.537 272.642L204.547 272.6H203.634L203.613 272.648C203.461 272.989 202.989 273.351 202.223 273.351C201.216 273.351 200.571 272.669 200.544 271.499H204.615V271.142C204.615 269.453 203.682 268.309 202.145 268.309C200.607 268.309 199.611 269.505 199.611 271.252V271.257C199.611 273.031 200.586 274.164 202.202 274.164ZM202.139 269.122C202.973 269.122 203.592 269.652 203.687 270.769H200.56C200.66 269.694 201.3 269.122 202.139 269.122ZM205.874 274.064H212.862V268.409H211.949V273.309H209.824V268.409H208.911V273.309H206.787V268.409H205.874V274.064ZM218.112 274.064H219.025V268.409H218.112V270.748H215.311V268.409H214.398V274.064H215.311V271.504H218.112V274.064ZM220.561 274.064H221.474L224.27 269.846H224.354V274.064H225.267V268.409H224.354L221.558 272.627H221.474V268.409H220.561V274.064ZM229.164 267.622C230.245 267.622 230.963 266.877 230.963 265.901H230.145C230.145 266.473 229.783 267.003 229.164 267.003C228.555 267.003 228.183 266.473 228.183 265.901H227.365C227.365 266.877 228.083 267.622 229.164 267.622ZM226.808 274.064H227.721L230.517 269.846H230.601V274.064H231.514V268.409H230.601L227.805 272.627H227.721V268.409H226.808V274.064ZM235.82 274.064H238.228C239.445 274.064 240.163 273.424 240.163 272.443V272.432C240.163 271.777 239.707 271.273 238.988 271.173V271.089C239.518 270.979 239.912 270.449 239.912 269.888V269.878C239.912 268.991 239.287 268.409 238.217 268.409H235.82V274.064ZM236.733 270.801V269.164H238.086C238.721 269.164 239.004 269.489 239.004 269.972V269.983C239.004 270.518 238.674 270.801 237.939 270.801H236.733ZM236.733 273.309V271.556H238.018C238.831 271.556 239.235 271.819 239.235 272.417V272.427C239.235 272.994 238.883 273.309 238.191 273.309H236.733ZM241.448 274.064H242.361L245.157 269.846H245.241V274.064H246.154V268.409H245.241L242.445 272.627H242.361V268.409H241.448V274.064ZM247.826 275.559V274.064H252.249V275.559H253.099V273.309H252.196V268.409H248.341L248.12 271.562C248.068 272.322 247.863 273.036 247.449 273.309H246.977V275.559H247.826ZM251.284 273.309H248.503V273.225C248.771 272.873 248.918 272.27 248.97 271.583L249.148 269.164H251.284V273.309Z" fill="black"/>
<path d="M367.75 268.03C367.504 267.784 367.505 267.383 367.75 267.138L367.806 267.082C368.052 266.836 368.45 266.834 368.699 267.083L371.913 270.297C372.16 270.544 372.162 270.942 371.913 271.191L368.699 274.405C368.452 274.652 368.051 274.651 367.806 274.406L367.75 274.35C367.504 274.104 367.502 273.706 367.75 273.458L370.464 270.744L367.75 268.03Z" fill="#B8C1CC"/>
</g>
</g>
<path d="M196.765 22.353H192.382V9.60144H341.415V22.353H337.43C335.23 22.353 333.445 24.137 333.445 26.3378V27.5333C333.445 35.456 327.023 41.8787 319.1 41.8787H215.095C207.173 41.8787 200.75 35.456 200.75 27.5333V26.3378C200.75 24.137 198.966 22.353 196.765 22.353Z" fill="#222222"/>
<path d="M241.794 29.1272C241.794 27.8068 242.864 26.7363 244.185 26.7363H277.658C278.978 26.7363 280.048 27.8068 280.048 29.1272C280.048 30.4477 278.978 31.5181 277.658 31.5181H244.185C242.864 31.5181 241.794 30.4477 241.794 29.1272Z" fill="#3C3C3C"/>
<path d="M291.206 29.1272C291.206 30.4477 290.136 31.5181 288.815 31.5181C287.495 31.5181 286.424 30.4477 286.424 29.1272C286.424 27.8068 287.495 26.7363 288.815 26.7363C290.136 26.7363 291.206 27.8068 291.206 29.1272Z" fill="#3C3C3C"/>
</g>
<rect x="141.376" y="16.3758" width="250.248" height="527.248" rx="33.6242" stroke="#222222" stroke-width="12.7515"/>
</g>
<defs>
<clipPath id="clip0_30_15115">
<rect width="534" height="272" fill="white"/>
</clipPath>
<clipPath id="clip1_30_15115">
<rect width="396" height="272" fill="white" transform="translate(69)"/>
</clipPath>
<clipPath id="clip2_30_15115">
<rect x="135" y="10" width="263" height="540" rx="40" fill="white"/>
</clipPath>
<clipPath id="clip3_30_15115">
<rect x="148" y="23" width="237" height="513.184" rx="8.848" fill="white"/>
</clipPath>
<clipPath id="clip4_30_15115">
<rect width="237" height="589.024" fill="white" transform="translate(148 23)"/>
</clipPath>
<clipPath id="clip5_30_15115">
<path d="M148 23H385V83.672H148V23Z" fill="white"/>
</clipPath>
<clipPath id="clip6_30_15115">
<rect x="155.584" y="91.256" width="221.832" height="50.56" rx="6.32" fill="white"/>
</clipPath>
<clipPath id="clip7_30_15115">
<rect x="163.168" y="104.966" width="25.28" height="25.28" rx="12.64" fill="white"/>
</clipPath>
<clipPath id="clip8_30_15115">
<rect width="72" height="11" fill="white" transform="translate(196.032 126)"/>
</clipPath>
</defs>
</svg>
