<svg width="534" height="272" viewBox="0 0 534 272" fill="none" xmlns="http://www.w3.org/2000/svg">
<g clip-path="url(#clip0_29_10422)">
<g clip-path="url(#clip1_29_10422)">
<path d="M274.876 113C364.481 113 409.283 113 437.119 140.837C461.725 165.442 464.581 203.302 464.913 273.642H69C69.3316 203.302 72.1879 165.442 96.793 140.837C124.63 113 169.432 113 259.036 113H274.876Z" fill="#0077FF"/>
</g>
<g clip-path="url(#clip2_29_10422)">
<rect x="135" y="10" width="263" height="540" rx="40" fill="white"/>
<g clip-path="url(#clip3_29_10422)">
<rect x="148" y="23" width="237" height="513.184" rx="8.848" fill="#EBEDF0"/>
<g clip-path="url(#clip4_29_10422)">
<g clip-path="url(#clip5_29_10422)">
<rect width="237" height="83.424" transform="translate(148 23)" fill="white"/>
<g clip-path="url(#clip6_29_10422)">
<rect x="148" y="23" width="237" height="60.672" fill="white"/>
<path opacity="0.4" d="M360.668 36.5881C360.668 36.1404 360.668 35.8237 360.689 35.576C360.708 35.3321 360.746 35.1832 360.806 35.0662C360.927 34.8284 361.12 34.635 361.358 34.5138C361.475 34.4542 361.624 34.4165 361.868 34.3965C362.116 34.3763 362.432 34.3761 362.88 34.3761H371.728C372.176 34.3761 372.492 34.3763 372.74 34.3965C372.984 34.4165 373.133 34.4542 373.25 34.5138C373.488 34.635 373.681 34.8284 373.802 35.0662C373.862 35.1832 373.9 35.3321 373.92 35.576C373.94 35.8237 373.94 36.1404 373.94 36.5881V38.1681C373.94 38.6157 373.94 38.9325 373.92 39.1801C373.9 39.424 373.862 39.5729 373.802 39.6899C373.681 39.9277 373.488 40.1211 373.25 40.2423C373.133 40.3019 372.984 40.3397 372.74 40.3596C372.492 40.3798 372.176 40.3801 371.728 40.3801H362.88C362.432 40.3801 362.116 40.3798 361.868 40.3596C361.624 40.3397 361.475 40.3019 361.358 40.2423C361.12 40.1211 360.927 39.9277 360.806 39.6899C360.746 39.5729 360.708 39.424 360.689 39.1801C360.668 38.9325 360.668 38.6157 360.668 38.1681V36.5881Z" stroke="black" stroke-width="0.632"/>
<path opacity="0.4" fill-rule="evenodd" clip-rule="evenodd" d="M374.888 38.7203C375.433 38.58 375.836 38.0851 375.836 37.4962C375.836 36.9072 375.433 36.4123 374.888 36.272V38.7203Z" fill="black"/>
<rect x="361.616" y="35.324" width="11.376" height="4.108" rx="0.632" fill="black"/>
<path fill-rule="evenodd" clip-rule="evenodd" d="M352.345 35.3923C353.745 35.3923 355.092 35.9304 356.107 36.8954C356.183 36.9699 356.306 36.9689 356.381 36.8933L357.112 36.1559C357.15 36.1176 357.171 36.0656 357.171 36.0115C357.17 35.9574 357.148 35.9057 357.11 35.8677C354.446 33.3148 350.243 33.3148 347.579 35.8677C347.541 35.9056 347.519 35.9574 347.518 36.0115C347.518 36.0655 347.539 36.1175 347.577 36.1559L348.308 36.8933C348.383 36.9691 348.506 36.97 348.582 36.8954C349.597 35.9304 350.944 35.3923 352.345 35.3923ZM352.345 37.7911C353.114 37.7911 353.856 38.0771 354.427 38.5936C354.504 38.6669 354.625 38.6653 354.7 38.59L355.43 37.8527C355.469 37.814 355.49 37.7615 355.489 37.707C355.489 37.6525 355.466 37.6005 355.427 37.5626C353.69 35.9469 351.001 35.9469 349.264 37.5626C349.225 37.6005 349.202 37.6525 349.202 37.707C349.201 37.7616 349.223 37.814 349.261 37.8527L349.991 38.59C350.066 38.6653 350.187 38.6669 350.264 38.5936C350.834 38.0774 351.576 37.7915 352.345 37.7911ZM353.807 39.4052C353.808 39.4598 353.786 39.5125 353.747 39.5508L352.485 40.8247C352.448 40.8622 352.397 40.8832 352.345 40.8832C352.292 40.8832 352.242 40.8622 352.205 40.8247L350.942 39.5508C350.903 39.5125 350.882 39.4598 350.883 39.4051C350.884 39.3504 350.908 39.2987 350.948 39.262C351.754 38.5802 352.935 38.5802 353.741 39.262C353.782 39.2987 353.805 39.3505 353.807 39.4052Z" fill="black"/>
<path fill-rule="evenodd" clip-rule="evenodd" d="M344.341 34.7974C344.341 34.4484 344.058 34.1654 343.709 34.1654H343.077C342.728 34.1654 342.445 34.4484 342.445 34.7974V40.2747C342.445 40.6238 342.728 40.9067 343.077 40.9067H343.709C344.058 40.9067 344.341 40.6238 344.341 40.2747V34.7974ZM340.128 35.6401H340.76C341.109 35.6401 341.392 35.9231 341.392 36.2721V40.2748C341.392 40.6238 341.109 40.9068 340.76 40.9068H340.128C339.779 40.9068 339.496 40.6238 339.496 40.2748V36.2721C339.496 35.9231 339.779 35.6401 340.128 35.6401ZM337.811 37.1147H337.179C336.83 37.1147 336.547 37.3977 336.547 37.7467V40.2747C336.547 40.6238 336.83 40.9067 337.179 40.9067H337.811C338.16 40.9067 338.443 40.6238 338.443 40.2747V37.7467C338.443 37.3977 338.16 37.1147 337.811 37.1147ZM335.493 39.0107C335.493 38.6617 335.21 38.3787 334.861 38.3787H334.229C333.88 38.3787 333.597 38.6617 333.597 39.0107V40.2747C333.597 40.6238 333.88 40.9067 334.229 40.9067H334.861C335.21 40.9067 335.493 40.6238 335.493 40.2747V39.0107Z" fill="black"/>
<path d="M167.786 41.0565H168.981V34.377H167.791L166.046 35.6037V36.7285L167.708 35.5527H167.786V41.0565ZM170.647 41.0565H175.285V40.0659H172.263V39.9687L173.6 38.6726C174.818 37.5015 175.184 36.8998 175.184 36.1406V36.1267C175.184 35.0019 174.248 34.2104 172.948 34.2104C171.554 34.2104 170.582 35.0806 170.582 36.3258L170.587 36.3397L171.698 36.3443L171.703 36.3258C171.703 35.6361 172.179 35.1686 172.888 35.1686C173.582 35.1686 174.003 35.6129 174.003 36.2286V36.2425C174.003 36.7563 173.749 37.0942 172.841 38.0107L170.647 40.2511V41.0565ZM177.281 36.7285C177.706 36.7285 178.017 36.4045 178.017 35.9971C178.017 35.5852 177.706 35.2658 177.281 35.2658C176.859 35.2658 176.545 35.5852 176.545 35.9971C176.545 36.4045 176.859 36.7285 177.281 36.7285ZM177.281 40.1631C177.706 40.1631 178.017 39.8437 178.017 39.4318C178.017 39.0198 177.706 38.7004 177.281 38.7004C176.859 38.7004 176.545 39.0198 176.545 39.4318C176.545 39.8437 176.859 40.1631 177.281 40.1631ZM182.433 41.0565H183.576V39.7743H184.474V38.7884H183.576V34.377H181.887C180.979 35.7564 180.03 37.2932 179.165 38.7976V39.7743H182.433V41.0565ZM180.276 38.8161V38.7467C180.924 37.6126 181.697 36.3767 182.382 35.3306H182.451V38.8161H180.276ZM188.025 41.1908C189.561 41.1908 190.631 40.3946 190.631 39.2512V39.242C190.631 38.3856 190.01 37.7237 189.117 37.5432V37.5154C189.881 37.3117 190.39 36.7516 190.39 36.0342V36.0249C190.39 34.9973 189.409 34.2428 188.025 34.2428C186.641 34.2428 185.659 34.9973 185.659 36.0249V36.0342C185.659 36.7516 186.168 37.3117 186.932 37.5154V37.5432C186.043 37.7237 185.419 38.3856 185.419 39.242V39.2512C185.419 40.3946 186.488 41.1908 188.025 41.1908ZM188.025 37.1358C187.326 37.1358 186.84 36.7285 186.84 36.1452V36.136C186.84 35.5527 187.326 35.1454 188.025 35.1454C188.724 35.1454 189.21 35.5527 189.21 36.136V36.1452C189.21 36.7285 188.724 37.1358 188.025 37.1358ZM188.025 40.2789C187.224 40.2789 186.654 39.816 186.654 39.1726V39.1633C186.654 38.5152 187.215 38.0477 188.025 38.0477C188.83 38.0477 189.395 38.5152 189.395 39.1633V39.1726C189.395 39.816 188.825 40.2789 188.025 40.2789Z" fill="black"/>
<g clip-path="url(#clip7_29_10422)">
<rect x="156.848" y="58.0599" width="17.7" height="17.7" rx="8.85" fill="#CA88F2"/>
<path d="M170.033 64.5278C169.648 60.3973 166.837 59.6711 165.479 59.8243C163.327 58.8148 161.205 61.3148 160.75 63.6172C160.295 65.9196 158.701 66.6541 159.178 67.4617C159.655 68.2692 160.548 68.6773 161.128 68.1447C161.708 67.612 161.785 68.0201 161.686 68.8534C161.607 69.5201 162.934 69.807 163.607 69.8672H167.378C169.277 69.5364 170.514 69.691 170.033 64.5278Z" fill="#FFFEFD"/>
<path d="M156.966 77.0579C157.61 74.0166 158.454 72.5252 158.796 72.2327L163.919 70.3319L166.115 71.063L168.091 70.3319L168.676 70.7706L172.848 72.1596C173.726 72.569 174.19 75.5957 174.312 77.0579H156.966Z" fill="#FCA190"/>
<path d="M167.863 66.241C167.479 67.0481 168.029 69.6641 168.063 70.1649C168.02 70.3577 167.679 70.5847 167.526 70.655C165.766 71.4495 164.327 71.1379 164.148 70.147C164.205 69.1344 164.32 68.8317 164.148 67.2859C164.916 67.2157 165.824 67.2985 166.592 67.2283" fill="#FCA190"/>
<path fill-rule="evenodd" clip-rule="evenodd" d="M159.578 71.4108C158.702 71.7634 158.677 72.1454 158.775 72.2923C159.534 72.9975 160.552 74.4471 160.966 75.0837C160.771 76.2101 160.542 78.6097 161.185 79.1974C161.988 79.932 170.753 79.4178 170.753 78.169C170.753 77.1699 171.045 75.6959 171.191 75.0837C171.264 74.496 172.433 72.8799 173.09 72.5126C173.601 72.227 172.798 71.2619 171.921 71.1904C169.219 70.97 168.708 70.4558 168.343 70.162C168.051 69.9269 167.977 69.9661 167.977 70.0151C167.88 70.1865 167.262 70.5586 166.152 70.6762C165.157 70.7814 164.613 70.3965 164.331 70.1968C164.219 70.1177 164.148 70.0677 164.107 70.0885C163.092 70.7377 161.991 70.9186 161.04 71.0745C160.486 71.1656 159.982 71.2482 159.578 71.4108ZM163.011 72.2923C163.141 72.3576 163.813 71.7729 164.248 71.3945L164.249 71.3941C164.303 71.3469 164.353 71.3029 164.399 71.2639C164.509 71.2086 164.164 71.0494 163.831 70.8957C163.721 70.8451 163.613 70.7951 163.522 70.7496C163.303 70.6394 162.792 72.1821 163.011 72.2923ZM167.492 71.3267C167.927 71.7051 168.599 72.2897 168.729 72.2245C168.948 72.1143 168.437 70.5716 168.217 70.6818C168.127 70.7273 168.019 70.7773 167.909 70.8279C167.576 70.9816 167.231 71.1408 167.341 71.196C167.386 71.2352 167.437 71.2794 167.492 71.3267Z" fill="#C14FF2"/>
<path d="M164.266 68.9577C166.869 69.1203 167.5 67.5591 166.624 67.8139C165.652 68.0994 164.274 67.7832 164.274 67.7832L164.266 68.9577Z" fill="#F07875"/>
<path d="M162.292 65.0194C162.394 67.1727 163.041 68.6269 165.235 68.4856C166.938 68.3733 168.311 66.5443 168.315 65.3019C169.263 65.0303 169.542 63.8658 168.909 63.4185C168.429 63.078 167.933 63.6123 167.507 63.5797C167.199 63.5561 167.142 63.107 166.504 62.3555C165.685 61.3866 164.212 61.1946 163.222 61.9933C161.947 63.04 162.292 65.0194 162.292 65.0194Z" fill="#FCA190"/>
<path d="M163.88 66.4295C163.704 66.2454 163.814 66.0705 164.009 66.0043C164.665 65.7815 165.225 65.5938 165.423 65.6619C165.824 65.8257 165.339 66.4866 164.815 66.6688C164.652 66.7237 164.477 66.7303 164.311 66.6877C164.144 66.6452 163.995 66.5553 163.88 66.4295Z" fill="white"/>
<path d="M164.41 65.2894C164.395 65.2925 164.379 65.2925 164.364 65.2894C164.138 65.2542 163.978 65.2086 163.93 65.082C163.882 64.9555 163.93 64.8518 163.992 64.7419C164.063 64.6213 164.108 64.4854 164.125 64.3437C164.126 64.3266 164.131 64.3098 164.138 64.2946C164.145 64.2793 164.155 64.2657 164.168 64.2547C164.18 64.2436 164.194 64.2353 164.209 64.2301C164.225 64.2249 164.241 64.223 164.257 64.2245C164.273 64.226 164.288 64.2308 164.302 64.2388C164.317 64.2467 164.329 64.2576 164.339 64.2708C164.35 64.284 164.358 64.2993 164.362 64.3157C164.367 64.3321 164.369 64.3494 164.368 64.3665C164.349 64.5448 164.294 64.7164 164.206 64.8684C164.188 64.8999 164.172 64.9324 164.157 64.9659C164.235 64.9982 164.316 65.0185 164.398 65.026C164.414 65.0284 164.429 65.034 164.443 65.0426C164.457 65.0513 164.469 65.0627 164.479 65.0764C164.488 65.0901 164.496 65.1057 164.5 65.1223C164.504 65.1389 164.505 65.1563 164.502 65.1733C164.5 65.2005 164.49 65.2263 164.473 65.2471C164.457 65.2679 164.435 65.2827 164.41 65.2894Z" fill="#F07875"/>
<path d="M162.843 63.478C162.828 63.7792 163.57 63.5792 163.646 63.3595C163.722 63.1398 163.646 63.0016 163.307 63.046C163.05 63.0806 162.858 63.283 162.843 63.478Z" fill="#171B4D"/>
<path d="M165.221 63.0405C165.135 63.3073 166.078 63.3591 166.252 63.1301C166.355 62.9947 166.201 62.8474 165.823 62.8056C165.524 62.7737 165.268 62.8932 165.221 63.0405Z" fill="#171B4D"/>
<path d="M166.636 63.9508C166.621 63.9006 166.482 63.9348 166.356 63.9667C166.23 63.9986 166.016 63.6181 165.597 63.7981C165.242 63.9508 165.186 64.2971 165.227 64.3381C165.268 64.3792 165.673 64.1285 165.927 64.1832C166.112 64.2242 166.164 64.3176 166.325 64.288C166.414 64.2698 166.671 64.067 166.636 63.9508Z" fill="#171B4D"/>
<path d="M163.394 64.9305C163.586 64.8937 163.707 64.6804 163.665 64.4541C163.622 64.2277 163.433 64.0741 163.241 64.1109C163.049 64.1477 162.927 64.361 162.97 64.5873C163.012 64.8136 163.202 64.9673 163.394 64.9305Z" fill="#171B4D"/>
</g>
<path d="M242.363 71.0879V63.1911H246.889V61.7311H240.77V71.0879H242.363ZM247.045 68.5131C246.992 69.3493 246.74 69.6678 246.063 69.6678C245.943 69.6678 245.651 69.6678 245.492 69.6545L245.638 71.1144C245.864 71.141 246.089 71.1543 246.249 71.1543C247.629 71.1543 248.465 70.1854 248.558 68.4866L248.717 65.58H250.827V71.0879H252.354V64.1865H247.297L247.045 68.5131ZM256.892 64.0537C255.551 64.0537 254.37 64.7439 254.025 65.9384L255.432 66.1773C255.644 65.7525 256.122 65.3544 256.812 65.3544C257.648 65.3544 258.139 65.9516 258.205 66.8541H256.719C254.688 66.8541 253.68 67.7433 253.68 69.0175C253.68 70.3048 254.675 71.2206 256.082 71.2206C257.21 71.2206 257.967 70.5703 258.298 69.9996L258.617 71.0879H259.745V67.2125C259.745 65.2084 258.657 64.0537 256.892 64.0537ZM256.44 69.9332C255.697 69.9332 255.219 69.5483 255.219 68.9511C255.219 68.4202 255.604 68.0486 256.772 68.0486H258.219C258.219 69.1767 257.502 69.9332 256.44 69.9332ZM266.152 67.5045C266.749 67.2257 267.134 66.7612 267.134 66.0445C267.134 64.9562 266.139 64.1865 264.706 64.1865H261.401V71.0879H264.852C266.338 71.0879 267.373 70.2783 267.373 69.1767C267.373 68.3406 266.829 67.7168 266.152 67.5045ZM264.706 65.4473C265.236 65.4473 265.608 65.7658 265.608 66.2038C265.608 66.6418 265.236 66.947 264.706 66.947H262.927V65.4473H264.706ZM262.927 69.8271V68.1415H264.852C265.449 68.1415 265.847 68.4866 265.847 68.9909C265.847 69.4953 265.449 69.8271 264.852 69.8271H262.927ZM273.381 66.9072H270.289V64.1865H268.763V71.0879H270.289V68.3008H273.381V71.0879H274.908V64.1865H273.381V66.9072ZM279.444 64.0537C278.103 64.0537 276.922 64.7439 276.577 65.9384L277.984 66.1773C278.196 65.7525 278.674 65.3544 279.364 65.3544C280.2 65.3544 280.691 65.9516 280.758 66.8541H279.271C277.24 66.8541 276.232 67.7433 276.232 69.0175C276.232 70.3048 277.227 71.2206 278.634 71.2206C279.762 71.2206 280.519 70.5703 280.85 69.9996L281.169 71.0879H282.297V67.2125C282.297 65.2084 281.209 64.0537 279.444 64.0537ZM278.992 69.9332C278.249 69.9332 277.771 69.5483 277.771 68.9511C277.771 68.4202 278.156 68.0486 279.324 68.0486H280.771C280.771 69.1767 280.054 69.9332 278.992 69.9332ZM286.435 64.1865C284.869 64.1865 283.754 65.1553 283.754 66.5223C283.754 67.5045 284.311 68.2742 285.2 68.6326L283.555 71.0879H285.293L286.753 68.8715H287.974V71.0879H289.501V64.1865H286.435ZM286.435 67.5443C285.745 67.5443 285.28 67.1328 285.28 66.5223C285.28 65.9251 285.745 65.5137 286.435 65.5137H287.974V67.5443H286.435Z" fill="black"/>
<path d="M336.664 60.8999C339.631 60.8999 342.036 63.305 342.036 66.2719C342.036 67.5277 341.605 68.6828 340.883 69.5975L343.747 72.461C343.994 72.7078 343.994 73.108 343.747 73.3548C343.5 73.6016 343.1 73.6016 342.853 73.3548L339.99 70.491C339.075 71.213 337.92 71.6439 336.664 71.6439C333.697 71.6439 331.292 69.2388 331.292 66.2719C331.292 63.305 333.697 60.8999 336.664 60.8999ZM336.664 62.1639C334.395 62.1639 332.556 64.0031 332.556 66.2719C332.556 68.5407 334.395 70.3799 336.664 70.3799C338.933 70.3799 340.772 68.5407 340.772 66.2719C340.772 64.0031 338.933 62.1639 336.664 62.1639Z" fill="#3F8AE0"/>
<path d="M367.635 60.2679C370.499 60.2679 372.688 62.6658 372.688 65.6914L372.685 66.8459C372.685 67.0401 372.811 67.2646 373.152 67.6655C373.194 67.7159 373.235 67.7625 373.323 67.8642C373.999 68.6468 374.268 69.0998 374.268 69.8037C374.268 70.1204 374.232 70.3664 374.082 70.6615C373.762 71.2906 373.079 71.6439 372.056 71.6439L370.412 71.6444C369.99 73.0751 369.03 73.8559 367.632 73.8559C366.234 73.8559 365.274 73.0751 364.852 71.6444L363.208 71.6439C362.156 71.6439 361.465 71.2811 361.159 70.6304C361.026 70.3481 360.996 70.1192 360.996 69.8037C360.996 69.1001 361.265 68.6471 361.94 67.8647C362.027 67.763 362.068 67.7163 362.11 67.6659C362.451 67.2645 362.576 67.0399 362.576 66.8452V65.6898C362.576 62.6668 364.77 60.2679 367.635 60.2679ZM369.073 71.6445H366.192C366.476 72.3032 366.936 72.5919 367.632 72.5919C368.328 72.5919 368.788 72.3032 369.073 71.6445ZM367.635 61.5319C365.495 61.5319 363.84 63.341 363.84 65.6898V66.8452C363.84 67.4316 363.597 67.867 363.074 68.4835C363.028 68.5381 362.984 68.5889 362.897 68.6904C362.416 69.2471 362.26 69.5107 362.26 69.8037C362.26 69.9466 362.27 70.0227 362.303 70.0926C362.381 70.2592 362.611 70.3799 363.208 70.3799H372.056C372.634 70.3799 372.869 70.2584 372.955 70.0887C372.993 70.0153 373.004 69.9369 373.004 69.8037C373.004 69.511 372.848 69.2475 372.366 68.6908C372.279 68.5894 372.235 68.5386 372.188 68.4839C371.665 67.8674 371.421 67.4319 371.421 66.8452L371.424 65.6898C371.424 63.3395 369.774 61.5319 367.635 61.5319Z" fill="#3F8AE0"/>
</g>
<rect x="148" y="106.215" width="236.832" height="0.20856" fill="#D7D8D9"/>
<g clip-path="url(#clip8_29_10422)">
<path d="M158.136 99.496H159.242V96.3409H162.901V99.496H164.002V92.3712H162.901V95.383H159.242V92.3712H158.136V99.496ZM167.935 99.5997C169.505 99.5997 170.467 98.548 170.467 96.8198V96.81C170.467 95.0818 169.5 94.0302 167.935 94.0302C166.364 94.0302 165.397 95.0868 165.397 96.81V96.8198C165.397 98.548 166.359 99.5997 167.935 99.5997ZM167.935 98.706C167.011 98.706 166.493 98.0098 166.493 96.8198V96.81C166.493 95.62 167.011 94.9238 167.935 94.9238C168.853 94.9238 169.376 95.62 169.376 96.81V96.8198C169.376 98.0048 168.853 98.706 167.935 98.706ZM171.739 99.496H174.188C175.368 99.496 176.074 98.8837 176.074 97.9653V97.9555C176.074 97.3185 175.62 96.8347 174.924 96.7507V96.6668C175.452 96.568 175.832 96.0693 175.832 95.5213V95.5114C175.832 94.677 175.215 94.1338 174.163 94.1338H171.739V99.496ZM172.801 96.3804V94.9189H173.946C174.514 94.9189 174.776 95.2102 174.776 95.6398V95.6497C174.776 96.1237 174.474 96.3804 173.832 96.3804H172.801ZM172.801 98.706V97.1507H173.911C174.627 97.1507 174.978 97.3975 174.978 97.916V97.9258C174.978 98.4196 174.667 98.706 174.05 98.706H172.801ZM179.592 99.5997C181.162 99.5997 182.125 98.548 182.125 96.8198V96.81C182.125 95.0818 181.157 94.0302 179.592 94.0302C178.022 94.0302 177.054 95.0868 177.054 96.81V96.8198C177.054 98.548 178.017 99.5997 179.592 99.5997ZM179.592 98.706C178.669 98.706 178.15 98.0098 178.15 96.8198V96.81C178.15 95.62 178.669 94.9238 179.592 94.9238C180.511 94.9238 181.034 95.62 181.034 96.81V96.8198C181.034 98.0048 180.511 98.706 179.592 98.706ZM185.658 99.5997C186.986 99.5997 187.751 98.8837 187.944 97.8419L187.954 97.7975H186.927L186.917 97.8222C186.744 98.3998 186.329 98.706 185.658 98.706C184.774 98.706 184.226 97.9851 184.226 96.8001V96.7902C184.226 95.6348 184.764 94.9238 185.658 94.9238C186.369 94.9238 186.803 95.3188 186.922 95.8472L186.927 95.862L187.954 95.857V95.8323C187.806 94.7905 187.001 94.0302 185.653 94.0302C184.088 94.0302 183.135 95.0917 183.135 96.7902V96.8001C183.135 98.5332 184.093 99.5997 185.658 99.5997ZM192.943 94.1338H188.495V94.9782H190.183V99.496H191.255V94.9782H192.943V94.1338ZM194.037 99.496H195.099L197.523 95.7188H197.617V99.496H198.678V94.1338H197.617L195.192 97.8962H195.099V94.1338H194.037V99.496Z" fill="#818C99"/>
<path d="M206.455 94.8527C206.208 94.6592 205.85 94.7029 205.657 94.9504C205.463 95.1979 205.507 95.5553 205.754 95.7488L208.343 97.7733C208.549 97.9342 208.838 97.9343 209.044 97.7734L211.635 95.749C211.883 95.5556 211.927 95.1981 211.733 94.9506C211.54 94.703 211.182 94.6591 210.935 94.8525L208.694 96.6033L206.455 94.8527Z" fill="#B8C1CC"/>
<path d="M233.299 100.903V99.496H238.404V100.903H239.421V98.543H238.532V92.3712H233.807L233.546 96.6915C233.491 97.6345 233.314 98.2418 232.805 98.543H232.287V100.903H233.299ZM234.573 96.7458L234.79 93.3241H237.426V98.543H234.094V98.4739C234.424 98.074 234.523 97.5358 234.573 96.7458ZM242.055 97.2692L242.228 94.9782H243.922V99.496H244.993V94.1338H241.29L241.083 97.1852C241.033 97.9653 240.851 98.5875 240.357 98.5875C240.224 98.5875 240.09 98.5677 240.041 98.5529V99.4861C240.115 99.5108 240.268 99.5453 240.471 99.5453C241.483 99.5453 241.947 98.785 242.055 97.2692ZM249.425 99.496H250.481V94.1338H248.418C247.178 94.1338 246.368 94.8202 246.368 95.9311V95.941C246.368 96.6717 246.823 97.2445 247.563 97.4568L246.097 99.496H247.331L248.635 97.6395H249.425V99.496ZM248.472 96.8198C247.835 96.8198 247.445 96.4446 247.445 95.9311V95.9212C247.445 95.3337 247.83 94.9732 248.472 94.9732H249.425V96.8198H248.472ZM254.678 99.496H257.127C258.308 99.496 259.014 98.8837 259.014 97.9653V97.9555C259.014 97.3185 258.559 96.8347 257.863 96.7507V96.6668C258.391 96.568 258.772 96.0693 258.772 95.5213V95.5114C258.772 94.677 258.154 94.1338 257.103 94.1338H254.678V99.496ZM255.74 96.3804V94.9189H256.886C257.453 94.9189 257.715 95.2102 257.715 95.6398V95.6497C257.715 96.1237 257.414 96.3804 256.772 96.3804H255.74ZM255.74 98.706V97.1507H256.851C257.567 97.1507 257.917 97.3975 257.917 97.916V97.9258C257.917 98.4196 257.606 98.706 256.989 98.706H255.74ZM261.781 99.5848C262.492 99.5848 263.055 99.2787 263.371 98.7356H263.455V99.496H264.517V95.8274C264.517 94.7017 263.756 94.0302 262.408 94.0302C261.189 94.0302 260.344 94.6177 260.216 95.4966L260.211 95.5312H261.243L261.248 95.5114C261.376 95.1312 261.766 94.914 262.359 94.914C263.085 94.914 263.455 95.2398 263.455 95.8274V96.3014L262.003 96.3853C260.725 96.4643 260.004 97.0223 260.004 97.9802V97.99C260.004 98.9627 260.759 99.5848 261.781 99.5848ZM261.07 97.9456V97.9357C261.07 97.4518 261.406 97.1852 262.147 97.1408L263.455 97.0568V97.516C263.455 98.2073 262.867 98.7307 262.068 98.7307C261.49 98.7307 261.07 98.4393 261.07 97.9456ZM268.281 99.5997C269.61 99.5997 270.375 98.8837 270.568 97.8419L270.577 97.7975H269.55L269.541 97.8222C269.368 98.3998 268.953 98.706 268.281 98.706C267.398 98.706 266.85 97.9851 266.85 96.8001V96.7902C266.85 95.6348 267.388 94.9238 268.281 94.9238C268.992 94.9238 269.427 95.3188 269.545 95.8472L269.55 95.862L270.577 95.857V95.8323C270.429 94.7905 269.624 94.0302 268.277 94.0302C266.711 94.0302 265.758 95.0917 265.758 96.7902V96.8001C265.758 98.5332 266.716 99.5997 268.281 99.5997Z" fill="#818C99"/>
<path d="M292.128 99.496H293.288L293.935 97.5703H296.66L297.302 99.496H298.467L295.895 92.3712H294.7L292.128 99.496ZM295.253 93.6203H295.337L296.364 96.6816H294.231L295.253 93.6203ZM300.919 97.126L302.84 99.496H304.163L301.788 96.6322L304.064 94.1338H302.815L300.914 96.3261H300.648V94.1338H299.576V99.496H300.648V97.126H300.919ZM308.965 94.1338H304.516V94.9782H306.205V99.496H307.276V94.9782H308.965V94.1338ZM310.577 101.382C311.663 101.382 312.206 100.982 312.661 99.7033L314.655 94.1338H313.53L312.192 98.4196H312.098L310.755 94.1338H309.599L311.545 99.5009L311.466 99.7774C311.308 100.321 311.007 100.533 310.508 100.533C310.384 100.533 310.251 100.528 310.147 100.513V101.357C310.286 101.372 310.444 101.382 310.577 101.382ZM317.033 99.5848C317.744 99.5848 318.307 99.2787 318.623 98.7356H318.707V99.496H319.768V95.8274C319.768 94.7017 319.008 94.0302 317.66 94.0302C316.44 94.0302 315.596 94.6177 315.468 95.4966L315.463 95.5312H316.495L316.5 95.5114C316.628 95.1312 317.018 94.914 317.611 94.914C318.336 94.914 318.707 95.2398 318.707 95.8274V96.3014L317.255 96.3853C315.976 96.4643 315.255 97.0223 315.255 97.9802V97.99C315.255 98.9627 316.011 99.5848 317.033 99.5848ZM316.322 97.9456V97.9357C316.322 97.4518 316.658 97.1852 317.398 97.1408L318.707 97.0568V97.516C318.707 98.2073 318.119 98.7307 317.319 98.7307C316.742 98.7307 316.322 98.4393 316.322 97.9456ZM322.704 97.2692L322.877 94.9782H324.57V99.496H325.642V94.1338H321.938L321.731 97.1852C321.682 97.9653 321.499 98.5875 321.005 98.5875C320.872 98.5875 320.739 98.5677 320.689 98.5529V99.4861C320.763 99.5108 320.916 99.5453 321.119 99.5453C322.131 99.5453 322.595 98.785 322.704 97.2692ZM327.175 99.496H329.298C330.542 99.496 331.337 98.78 331.337 97.6493V97.6395C331.337 96.5137 330.542 95.7978 329.298 95.7978H328.246V94.1338H327.175V99.496ZM329.209 96.6421C329.851 96.6421 330.261 97.0371 330.261 97.6395V97.6493C330.261 98.2468 329.856 98.6517 329.209 98.6517H328.246V96.6421H329.209ZM336.03 99.496H337.097V94.1338H336.03V96.2965H333.596V94.1338H332.525V99.496H333.596V97.1457H336.03V99.496ZM340.901 99.5997C342.471 99.5997 343.434 98.548 343.434 96.8198V96.81C343.434 95.0818 342.466 94.0302 340.901 94.0302C339.331 94.0302 338.363 95.0868 338.363 96.81V96.8198C338.363 98.548 339.326 99.5997 340.901 99.5997ZM340.901 98.706C339.978 98.706 339.459 98.0098 339.459 96.8198V96.81C339.459 95.62 339.978 94.9238 340.901 94.9238C341.82 94.9238 342.343 95.62 342.343 96.81V96.8198C342.343 98.0048 341.82 98.706 340.901 98.706ZM346.962 99.5997C348.335 99.5997 349.075 98.8097 349.253 98.1036L349.263 98.0592L348.231 98.0641L348.211 98.1036C348.083 98.3801 347.673 98.7208 346.987 98.7208C346.103 98.7208 345.54 98.1233 345.52 97.0963H349.322V96.7211C349.322 95.1115 348.404 94.0302 346.908 94.0302C345.412 94.0302 344.444 95.151 344.444 96.8248V96.8297C344.444 98.5282 345.392 99.5997 346.962 99.5997ZM346.913 94.909C347.638 94.909 348.177 95.3732 348.261 96.331H345.535C345.629 95.4077 346.182 94.909 346.913 94.909Z" fill="black"/>
<rect x="291.304" y="105.444" width="58" height="1.264" rx="0.632" fill="#3F8AE0"/>
<path d="M371.693 99.496H372.799V96.3409H374.014C374.152 98.39 375.357 99.6688 377.277 99.6688C379.307 99.6688 380.541 98.2172 380.541 95.936V95.9262C380.541 93.6352 379.297 92.1983 377.277 92.1983C375.426 92.1983 374.211 93.408 374.024 95.383H372.799V92.3712H371.693V99.496ZM377.273 93.176C378.591 93.176 379.415 94.2425 379.415 95.9262V95.936C379.415 97.6049 378.596 98.6912 377.273 98.6912C375.934 98.6912 375.125 97.6049 375.125 95.936V95.9262C375.125 94.2425 375.959 93.176 377.273 93.176ZM382.953 99.496V95.7682H383.047L384.612 99.2935H385.392L386.962 95.7682H387.056V99.496H388.098V94.1338H386.795L385.062 98.0493H384.978L383.254 94.1338H381.911V99.496H382.953ZM391.907 99.5997C393.478 99.5997 394.44 98.548 394.44 96.8198V96.81C394.44 95.0818 393.473 94.0302 391.907 94.0302C390.337 94.0302 389.37 95.0868 389.37 96.81V96.8198C389.37 98.548 390.332 99.5997 391.907 99.5997ZM391.907 98.706C390.984 98.706 390.466 98.0098 390.466 96.8198V96.81C390.466 95.62 390.984 94.9238 391.907 94.9238C392.826 94.9238 393.349 95.62 393.349 96.81V96.8198C393.349 98.0048 392.826 98.706 391.907 98.706ZM395.717 101.283H396.788V98.6467H396.867C397.154 99.2244 397.781 99.5848 398.516 99.5848C399.879 99.5848 400.738 98.5183 400.738 96.8198V96.81C400.738 95.1213 399.869 94.04 398.516 94.04C397.766 94.04 397.178 94.3906 396.867 94.9782H396.788V94.1338H395.717V101.283ZM398.215 98.6714C397.322 98.6714 396.769 97.9653 396.769 96.8198V96.81C396.769 95.6645 397.322 94.9584 398.215 94.9584C399.109 94.9584 399.647 95.6546 399.647 96.81V96.8198C399.647 97.9703 399.109 98.6714 398.215 98.6714Z" fill="#818C99"/>
</g>
</g>
<rect width="237" height="289.024" transform="translate(148 111.48)" fill="white"/>
<rect width="237" height="27.808" transform="translate(148 111.48)" fill="white"/>
<path d="M156.57 130.6H165.357V123.03H164.004V129.461H161.638V123.03H160.29V129.461H157.924V123.03H156.57V130.6ZM169.417 130.715C171.133 130.715 172.177 129.593 172.177 127.735V127.725C172.177 125.878 171.127 124.756 169.417 124.756C167.712 124.756 166.658 125.884 166.658 127.725V127.735C166.658 129.593 167.696 130.715 169.417 130.715ZM169.417 129.656C168.51 129.656 167.99 128.947 167.99 127.741V127.73C167.99 126.524 168.51 125.81 169.417 125.81C170.319 125.81 170.839 126.524 170.839 127.73V127.741C170.839 128.947 170.325 129.656 169.417 129.656ZM173.718 132.614C174.988 132.614 175.643 132.158 176.137 130.721L178.193 124.866H176.819L175.486 129.346H175.386L174.049 124.866H172.622L174.673 130.605L174.605 130.867C174.463 131.387 174.143 131.607 173.608 131.607C173.472 131.607 173.325 131.602 173.22 131.591V132.593C173.377 132.609 173.561 132.614 173.718 132.614ZM179.137 128.139H182.641V126.954H179.137V128.139ZM186.596 130.721C188.306 130.721 189.36 129.566 189.36 127.746V127.735C189.36 126.057 188.374 124.976 186.842 124.976C185.956 124.976 185.289 125.354 184.917 126.041H184.823L184.838 125.936C185.032 124.504 185.609 123.916 186.905 123.869L187.561 123.843C188.175 123.817 188.773 123.701 188.988 123.56V122.505C188.532 122.668 187.954 122.752 187.488 122.767L186.811 122.794C184.712 122.878 183.8 124.236 183.8 127.221V127.232C183.8 129.493 184.77 130.721 186.596 130.721ZM186.58 129.661C185.657 129.661 185.127 128.953 185.127 127.772V127.762C185.127 126.644 185.662 125.999 186.58 125.999C187.498 125.999 188.028 126.644 188.028 127.762V127.772C188.028 128.947 187.498 129.661 186.58 129.661ZM190.529 130.6H191.82L194.233 126.739H194.343V130.6H195.634V124.866H194.343L191.925 128.706H191.82V124.866H190.529V130.6ZM199.221 130.721C200.696 130.721 201.635 129.981 201.635 128.916V128.905C201.635 128.265 201.246 127.804 200.449 127.646V127.557C201.068 127.415 201.451 126.949 201.451 126.345V126.335C201.451 125.364 200.612 124.75 199.253 124.75C197.847 124.75 197.044 125.427 196.913 126.429L196.908 126.471H198.146L198.151 126.445C198.23 126.031 198.623 125.763 199.211 125.763C199.856 125.763 200.176 126.078 200.176 126.492V126.503C200.176 126.975 199.861 127.248 199.195 127.248H198.377V128.129H199.2C199.94 128.129 200.339 128.386 200.339 128.895V128.905C200.339 129.378 199.919 129.708 199.206 129.708C198.592 129.708 198.156 129.451 198.036 129.01L198.025 128.974H196.756L196.761 129.021C196.887 130.133 197.92 130.721 199.221 130.721ZM206.539 130.6H207.845V124.866H206.539V127.137H204.121V124.866H202.814V130.6H204.121V128.15H206.539V130.6ZM211.742 130.715C213.3 130.715 214.066 129.818 214.25 129.078L214.266 129.031H213.022L213.007 129.068C212.881 129.33 212.477 129.687 211.769 129.687C210.882 129.687 210.326 129.089 210.31 128.061H214.318V127.631C214.318 125.899 213.311 124.756 211.679 124.756C210.048 124.756 209.004 125.936 209.004 127.741V127.746C209.004 129.572 210.037 130.715 211.742 130.715ZM211.695 125.779C212.424 125.779 212.954 126.246 213.043 127.185H210.321C210.42 126.272 210.966 125.779 211.695 125.779ZM217.932 130.715C219.385 130.715 220.23 129.934 220.419 128.758L220.429 128.717L219.196 128.722L219.186 128.743C219.023 129.346 218.609 129.656 217.932 129.656C217.045 129.656 216.515 128.942 216.515 127.725V127.715C216.515 126.513 217.04 125.81 217.932 125.81C218.645 125.81 219.07 126.209 219.191 126.765L219.196 126.781H220.429V126.76C220.282 125.574 219.401 124.756 217.927 124.756C216.201 124.756 215.188 125.863 215.188 127.715V127.725C215.188 129.598 216.206 130.715 217.932 130.715Z" fill="black"/>
<rect x="153.688" y="140.552" width="226.256" height="103.016" rx="5.056" fill="#0077FF"/>
<rect x="153.846" y="140.71" width="225.94" height="102.7" rx="4.898" stroke="black" stroke-opacity="0.08" stroke-width="0.316"/>
<g clip-path="url(#clip9_29_10422)">
<path d="M224.409 227.549C237.626 227.549 248.341 216.812 248.341 203.566C248.341 190.321 237.626 179.584 224.409 179.584C211.191 179.584 200.476 190.321 200.476 203.566C200.476 216.812 211.191 227.549 224.409 227.549Z" fill="#2787F5"/>
<path d="M224.387 229C219.486 229.003 214.69 227.583 210.577 224.912C206.464 222.243 203.211 218.436 201.21 213.953C199.21 209.47 198.548 204.502 199.304 199.65C200.06 194.798 202.203 190.269 205.472 186.61C208.742 182.952 212.998 180.321 217.728 179.035C222.457 177.749 227.458 177.863 232.124 179.363C236.79 180.863 240.923 183.685 244.024 187.489C247.124 191.292 249.059 195.914 249.594 200.795C249.959 204.115 249.668 207.475 248.736 210.683C247.805 213.89 246.251 216.882 244.165 219.488C242.079 222.093 239.5 224.261 236.578 225.867C233.655 227.473 230.445 228.486 227.131 228.848C226.219 228.948 225.303 228.998 224.387 229ZM224.387 181.027C223.562 181.028 222.737 181.071 221.916 181.157C217.493 181.642 213.312 183.43 209.902 186.296C206.493 189.163 204.008 192.978 202.762 197.259C201.517 201.54 201.566 206.095 202.904 210.349C204.242 214.602 206.809 218.362 210.279 221.153C213.75 223.945 217.969 225.642 222.402 226.031C226.835 226.419 231.284 225.482 235.185 223.336C239.087 221.192 242.266 217.935 244.32 213.979C246.375 210.023 247.213 205.546 246.728 201.113C246.119 195.604 243.51 190.513 239.396 186.809C235.283 183.105 229.953 181.047 224.423 181.027H224.387Z" fill="white"/>
<path d="M226.373 178.364C232.2 177.693 238.487 177.195 242.974 189.349C244.94 194.682 243.817 195.844 245.041 199.749C247.022 206.064 239.222 216.24 228.577 216.478C226.28 216.529 224.573 214.313 221.231 216.832C218.638 218.78 212.387 218.131 207.547 212.025C206.114 210.272 205.164 208.174 204.794 205.938C204.424 203.703 204.645 201.409 205.437 199.287C207.165 194.956 204.076 193.931 204.623 186.49C205.574 171.154 224.544 172.85 226.373 178.364Z" fill="#00DC7F"/>
<path d="M229.933 205.681C230.261 209.771 231.459 213.743 233.448 217.33C228.507 224.446 215.061 226.257 217.827 220.939C219.051 218.29 218.684 213.483 217.733 210.004L226.44 207.839" fill="#FCA190"/>
<path d="M230.689 210.185C227.045 215.778 216.285 213.367 220.174 212.869C224.063 212.371 229.191 207.262 229.191 207.262C229.191 207.262 229.868 205.219 230.048 206.172C230.134 207.527 230.349 208.87 230.689 210.185Z" fill="#F07875"/>
<path d="M208.737 198.478C208.312 207.023 210.285 213.021 218.928 213.288C225.633 213.504 230.149 207.406 231.892 201.892C236.854 201.95 237.74 196.84 235.874 195.396C235.445 195.075 234.945 194.861 234.417 194.771C233.889 194.68 233.347 194.717 232.835 194.877C232.161 195.067 231.448 195.069 230.773 194.88C230.099 194.692 229.489 194.321 229.011 193.809C226.646 191.241 224.542 188.444 222.731 185.458C209.191 184.051 208.737 198.478 208.737 198.478Z" fill="#FCA190"/>
<path d="M214.584 204.8C215.305 205.768 216.407 206.966 218.387 206.468C220.8 205.861 223.256 203.191 221.988 202.101C221.916 202.034 221.833 201.978 221.743 201.935C220.843 201.517 218.603 202.065 215.434 202.823C215.183 202.865 214.947 202.974 214.751 203.137C214.554 203.301 214.405 203.514 214.318 203.754C214.283 203.937 214.289 204.126 214.335 204.307C214.381 204.488 214.466 204.656 214.584 204.8Z" fill="#171B4D"/>
<path d="M214.283 203.718C215.381 203.923 216.505 203.945 217.61 203.783C219.184 203.633 220.683 203.037 221.931 202.065C221.858 201.998 221.776 201.942 221.686 201.899C220.786 201.481 218.546 202.029 215.377 202.787C215.129 202.833 214.898 202.943 214.706 203.106C214.514 203.27 214.368 203.481 214.283 203.718Z" fill="white"/>
<path d="M213.515 198.424C214.315 198.417 214.957 197.656 214.949 196.723C214.941 195.79 214.287 195.04 213.488 195.046C212.688 195.053 212.046 195.814 212.054 196.747C212.061 197.679 212.716 198.43 213.515 198.424Z" fill="#171B4D"/>
<path d="M222.736 197.749C223.535 197.742 224.177 196.981 224.17 196.048C224.162 195.115 223.508 194.365 222.708 194.371C221.909 194.378 221.267 195.139 221.275 196.072C221.282 197.004 221.937 197.755 222.736 197.749Z" fill="#171B4D"/>
<path d="M221.189 191.514C220.793 192.445 224.221 192.921 224.927 192.149C225.345 191.694 224.819 191.117 223.487 190.857C222.349 190.64 221.398 190.994 221.189 191.514Z" fill="#171B4D"/>
<path d="M210.97 192.935C210.97 193.809 214.059 193.101 214.347 192.452C214.635 191.802 214.29 191.405 212.907 191.593C211.798 191.744 211.013 192.38 210.97 192.935Z" fill="#171B4D"/>
<path d="M226.915 226.004C229.8 225.71 232.597 224.842 235.143 223.452C237.689 222.062 239.933 220.176 241.744 217.907L232.698 215.879C232.698 215.879 221.391 224.013 218.582 217.611L209.601 220.534C211.953 222.595 214.706 224.145 217.686 225.087C220.666 226.028 223.808 226.341 226.915 226.004Z" fill="#FF54AD"/>
<path d="M309.532 227.499C322.809 227.499 333.572 216.713 333.572 203.408C333.572 190.102 322.809 179.316 309.532 179.316C296.254 179.316 285.491 190.102 285.491 203.408C285.491 216.713 296.254 227.499 309.532 227.499Z" fill="#2787F5"/>
<path d="M309.545 228.942C308.768 228.942 307.983 228.942 307.198 228.834C300.575 228.221 294.455 225.035 290.147 219.958C285.838 214.882 283.683 208.317 284.142 201.669C284.601 195.02 287.638 188.816 292.603 184.382C297.568 179.948 304.067 177.637 310.711 177.944C317.354 178.25 323.614 181.149 328.152 186.021C332.69 190.893 335.146 197.351 334.994 204.014C334.841 210.676 332.094 217.015 327.337 221.673C322.582 226.332 316.196 228.941 309.545 228.942ZM309.545 180.768C303.646 180.776 297.984 183.098 293.771 187.236C289.557 191.374 287.127 197 286.999 202.911C286.871 208.821 289.057 214.547 293.087 218.864C297.118 223.181 302.674 225.747 308.568 226.011C314.461 226.276 320.225 224.219 324.625 220.281C329.025 216.343 331.713 210.836 332.113 204.937C332.514 199.039 330.596 193.218 326.768 188.719C322.941 184.219 317.509 181.399 311.634 180.861C310.9 180.797 310.201 180.768 309.51 180.768H309.545Z" fill="white"/>
<path d="M305.784 180.515C299.497 178.638 295.168 184.845 291.589 191.564C290.667 193.296 288.427 195.274 287.268 200.607C284.848 211.578 293.995 224.424 304.315 224.2C306.54 224.15 311.063 219.322 314.398 221.682C316.991 223.522 319.605 221.841 324.078 215.504C326.476 212.097 330.783 204.88 326.958 200.579C322.897 196.046 328.068 195.144 327.247 187.71C325.648 172.367 307.34 174.907 305.784 180.515Z" fill="#2929B2"/>
<path d="M301.378 204.534C302.472 208.943 301.118 214.234 298.129 217.214C303.286 222.627 308.284 224.309 315.083 220.369C313.643 217.575 313.83 212.386 314.694 208.604L305.23 206.706" fill="#FCA190"/>
<path d="M301.514 210.344C304.791 213.815 312.872 213.454 312.224 211.823C308.018 211.462 301.694 206.454 301.694 206.454C301.807 207.748 301.747 209.051 301.514 210.329V210.344Z" fill="#F07875"/>
<path d="M324.049 221.162C320.948 220.134 317.762 219.381 314.529 218.91C315.681 221.927 304.445 224.591 298.496 216.825C296.261 216.986 294.045 217.356 291.878 217.929C293.786 220.235 296.131 222.138 298.777 223.53C301.424 224.921 304.32 225.772 307.297 226.034C313.477 226.604 319.657 224.872 324.049 221.162Z" fill="white"/>
<path d="M323.862 195.83C324.711 205.003 322.853 211.527 313.584 212.22C306.382 212.754 299.54 205.818 298.791 200.571C294.657 199.98 293.188 195.952 294.822 194.076C295.968 192.755 298.157 193.975 298.157 193.975C298.157 193.975 304.546 189.298 308.24 182.478C322.724 180.342 323.862 195.83 323.862 195.83Z" fill="#FCA190"/>
<path d="M318.368 202.931C319.088 201.856 318.433 201.048 317.409 200.846C313.96 200.167 311.021 199.604 310.071 200.124C308.176 201.243 311.086 204.281 313.852 204.851C314.709 205.012 315.595 204.915 316.398 204.573C317.201 204.232 317.887 203.661 318.368 202.931Z" fill="white"/>
<path d="M318.823 195.993C319.686 195.963 320.357 195.125 320.324 194.122C320.289 193.118 319.562 192.328 318.699 192.357C317.837 192.387 317.165 193.224 317.2 194.228C317.234 195.232 317.96 196.022 318.823 195.993Z" fill="#252040"/>
<path d="M315.097 198.349C314.906 198.374 314.713 198.323 314.559 198.206C314.406 198.089 314.305 197.916 314.279 197.724C314.254 197.533 314.305 197.339 314.422 197.185C314.538 197.032 314.711 196.931 314.902 196.905C315.121 196.848 315.335 196.776 315.544 196.689C315.519 196.653 315.492 196.62 315.464 196.588C315.018 196.046 314.696 195.413 314.521 194.733C314.5 194.64 314.496 194.544 314.512 194.451C314.528 194.357 314.562 194.268 314.612 194.188C314.662 194.107 314.728 194.037 314.805 193.982C314.882 193.927 314.968 193.888 315.061 193.867C315.153 193.845 315.249 193.842 315.342 193.858C315.435 193.874 315.525 193.908 315.605 193.958C315.685 194.008 315.755 194.074 315.81 194.151C315.865 194.228 315.904 194.316 315.925 194.408C316.063 194.893 316.309 195.339 316.645 195.714C316.838 195.896 316.982 196.123 317.063 196.376C317.143 196.629 317.158 196.898 317.106 197.158C316.912 197.735 316.285 198.024 315.327 198.298C315.255 198.329 315.176 198.347 315.097 198.349Z" fill="#F07875"/>
<path d="M310.164 188.922C310.633 189.911 306.966 190.568 306.182 189.781C305.706 189.305 306.239 188.655 307.694 188.338C308.875 188.027 309.912 188.359 310.164 188.922Z" fill="#252040"/>
<path d="M321.212 189.977C321.291 190.915 317.907 190.294 317.561 189.601C317.215 188.908 317.561 188.483 319.059 188.62C320.269 188.728 321.147 189.377 321.212 189.977Z" fill="#252040"/>
<path d="M305.553 194.263C305.604 194.097 306.195 194.162 306.72 194.22C307.246 194.278 308.038 192.928 309.824 193.39C311.344 193.78 311.675 194.935 311.539 195.086C311.401 195.238 309.63 194.53 308.593 194.805C307.808 195.014 307.649 195.346 306.965 195.295C306.576 195.266 305.452 194.696 305.553 194.263Z" fill="#252040"/>
<path d="M266.914 211.173C281.767 211.173 293.808 199.108 293.808 184.224C293.808 169.341 281.767 157.275 266.914 157.275C252.062 157.275 240.022 169.341 240.022 184.224C240.022 199.108 252.062 211.173 266.914 211.173Z" fill="#2787F5"/>
<path d="M266.908 212.617C259.562 212.552 252.541 209.574 247.381 204.335C242.221 199.095 239.342 192.02 239.375 184.659C239.407 177.297 242.348 170.249 247.554 165.055C252.76 159.861 259.807 156.945 267.153 156.945C274.499 156.945 281.546 159.861 286.752 165.055C291.958 170.249 294.899 177.297 294.931 184.659C294.964 192.02 292.085 199.095 286.925 204.335C281.764 209.574 274.744 212.552 267.398 212.617H266.908ZM266.908 158.719H266.461C263.119 158.747 259.815 159.434 256.737 160.742C253.66 162.05 250.87 163.952 248.526 166.34C243.793 171.163 241.165 177.673 241.222 184.438C241.278 191.202 244.014 197.667 248.827 202.41C253.64 207.154 260.136 209.787 266.886 209.73H267.383C274.133 209.613 280.559 206.814 285.251 201.951C289.943 197.087 292.515 190.555 292.404 183.792C292.288 177.106 289.558 170.732 284.8 166.043C280.043 161.354 273.639 158.724 266.966 158.719H266.908Z" fill="white"/>
<path d="M266.98 203.83C274.902 203.696 281.303 202.266 281.275 200.635C281.247 199.005 274.803 197.793 266.88 197.927C258.958 198.062 252.558 199.492 252.586 201.122C252.613 202.752 259.058 203.965 266.98 203.83Z" fill="white"/>
<path d="M258.352 190.366C258.913 196.364 257.869 201.43 256.047 204.88C258.769 208.799 277.308 207.695 277.531 204.88C275.622 201.387 275.492 198.305 275.529 192.856C271.589 192.539 267.275 192.64 263.343 192.322" fill="#FCA190"/>
<path d="M282.025 206.858C280.067 212.328 257.2 214.01 252.029 207.644C251.006 206.381 251.482 203.429 252.792 200.694C262.088 203.047 271.847 202.822 281.025 200.044C282.803 202.159 283.142 203.754 282.025 206.858Z" fill="white"/>
<path d="M258.373 196.393C264.272 199.28 274.938 194.675 270.616 194.783C266.295 194.892 258.294 192.142 258.294 192.142C258.439 193.554 258.466 194.976 258.373 196.393Z" fill="#F07875"/>
<path d="M270.48 160.451C266.807 157.463 259.871 153.169 254.023 156.077C249.097 158.524 248.816 165.986 255.464 168.83C263.703 157.932 277.07 168.787 278.633 172.561C280.196 176.336 271.503 183.091 278.201 185.747C279.353 188.374 279.209 189.11 280.621 180.897C284.308 159.246 270.48 160.451 270.48 160.451Z" fill="#252040"/>
<path d="M269.155 165.272C268.182 164.92 267.244 164.475 266.354 163.944C265.464 163.416 264.748 162.638 264.294 161.707C263.954 160.785 263.916 159.778 264.184 158.833C264.452 157.887 265.012 157.051 265.785 156.446C266.585 155.848 267.499 155.421 268.47 155.193C269.442 154.964 270.45 154.939 271.432 155.118C273.245 155.407 274.936 156.217 276.3 157.449C277.664 158.681 278.642 160.283 279.116 162.061C279.232 162.416 279.274 162.792 279.238 163.165C279.202 163.538 279.09 163.899 278.907 164.226C278.342 164.825 277.568 165.182 276.747 165.222C274.519 165.561 272.263 165.67 270.013 165.547" fill="#252040"/>
<path d="M253.202 176.921C252.172 176.394 251.195 175.768 250.285 175.051C249.31 174.257 248.549 173.229 248.074 172.063C247.655 170.947 247.545 169.738 247.756 168.564C247.966 167.39 248.489 166.295 249.27 165.395C250.004 164.685 250.913 164.184 251.904 163.942C252.894 163.7 253.932 163.725 254.909 164.016C258.647 164.947 262.032 168.823 263.098 173.398C263.396 174.318 263.368 175.312 263.019 176.213C262.777 176.565 262.455 176.853 262.079 177.052C261.703 177.252 261.284 177.358 260.858 177.361C258.602 177.664 256.315 177.664 254.059 177.361" fill="#252040"/>
<path d="M274.312 175.665C264.077 171.732 271.028 162.125 276.163 160.328C280.189 161.476 285.785 165.07 283.819 173.319C282.832 177.476 278.006 179.375 275.81 179.526" fill="#252040"/>
<path d="M263.869 163.728C256.494 164.594 250.905 169.725 253.131 185.848C254.953 199.114 274.067 195.801 277.618 192.878C283.668 187.869 280.729 167.372 275.558 165.121C270.387 162.869 263.869 163.728 263.869 163.728Z" fill="#FCA190"/>
<path d="M260.692 178.252C261.583 178.164 262.221 177.249 262.118 176.21C262.015 175.171 261.21 174.4 260.319 174.489C259.429 174.578 258.79 175.492 258.893 176.531C258.996 177.57 259.801 178.341 260.692 178.252Z" fill="#252040"/>
<path d="M261.868 170.555C263.69 171.789 257.964 173.204 256.934 172.128C256.308 171.471 257.424 170.605 258.958 170.281C260.182 170.028 261.371 170.1 261.868 170.555Z" fill="#252040"/>
<path d="M269.91 170.418C268.139 171.71 273.908 172.929 274.894 171.825C275.499 171.147 274.354 170.317 272.813 170.05C271.61 169.833 270.4 169.949 269.91 170.418Z" fill="#252040"/>
<path d="M272.527 178.048C273.418 177.96 274.056 177.046 273.953 176.006C273.85 174.967 273.045 174.197 272.154 174.285C271.264 174.374 270.625 175.288 270.728 176.327C270.831 177.367 271.637 178.137 272.527 178.048Z" fill="#252040"/>
<path d="M266.548 180.544H266.469C265.454 180.428 264.762 180.241 264.474 179.692C264.378 179.44 264.349 179.168 264.388 178.902C264.427 178.635 264.533 178.383 264.697 178.17C264.964 177.73 265.131 177.237 265.187 176.726C265.191 176.631 265.215 176.538 265.255 176.452C265.296 176.367 265.353 176.29 265.423 176.226C265.493 176.162 265.575 176.113 265.665 176.081C265.754 176.049 265.849 176.035 265.943 176.04C266.038 176.045 266.132 176.068 266.218 176.11C266.304 176.151 266.381 176.208 266.444 176.28C266.509 176.351 266.557 176.434 266.589 176.524C266.62 176.614 266.633 176.71 266.627 176.805C266.567 177.529 266.345 178.229 265.979 178.855C265.948 178.906 265.922 178.959 265.9 179.014C266.137 179.069 266.378 179.107 266.62 179.129C266.811 179.141 266.99 179.228 267.117 179.371C267.244 179.515 267.308 179.703 267.297 179.894C267.286 180.086 267.199 180.265 267.056 180.392C266.913 180.519 266.725 180.584 266.534 180.573L266.548 180.544Z" fill="#F07875"/>
<path d="M257.653 200.607C257.653 200.607 257.329 201.74 261.859 202.209C266.389 202.678 258.445 202.823 258.445 202.823C258.445 202.823 254.34 202.282 254.693 201.942C255.642 201.419 256.632 200.973 257.653 200.607Z" fill="white"/>
<path d="M275.903 200.297C275.903 200.297 276.472 201.373 271.957 201.993C267.441 202.614 275.19 202.535 275.19 202.535C275.19 202.535 279.274 201.863 278.906 201.531C277.939 201.042 276.935 200.629 275.903 200.297Z" fill="white"/>
<path d="M270.712 181.98C271.079 182.456 270.574 184.34 268.601 184.953C266.224 185.675 263.92 184.787 264.28 183.885C264.453 183.409 266.325 183.885 267.686 183.481C269.278 182.983 270.452 181.648 270.712 181.98Z" fill="#F07875"/>
<path d="M279.692 176.228C279.692 176.228 281.852 174.106 284.056 175.961C285.562 177.253 284.164 182.319 280.095 183.791C276.026 185.264 279.692 176.228 279.692 176.228Z" fill="#FCA190"/>
<path d="M253.822 176.726C253.822 176.726 251.518 174.459 249.551 176.726C248.255 178.227 249.551 182.954 253.671 184.289C257.791 185.624 253.822 176.726 253.822 176.726Z" fill="#FCA190"/>
<path d="M217.063 200.925C216.999 200.935 216.933 200.935 216.869 200.925C215.911 200.651 215.284 200.362 215.09 199.785C215.036 199.525 215.05 199.255 215.131 199.002C215.211 198.749 215.356 198.521 215.551 198.341C215.884 197.964 216.13 197.518 216.271 197.035C216.313 196.843 216.429 196.677 216.594 196.571C216.759 196.465 216.959 196.43 217.15 196.472C217.341 196.514 217.507 196.63 217.613 196.796C217.718 196.961 217.753 197.161 217.711 197.352C217.539 198.035 217.214 198.669 216.761 199.207L216.682 199.315C216.818 199.366 217.02 199.445 217.33 199.532C217.424 199.545 217.515 199.577 217.598 199.625C217.68 199.674 217.752 199.738 217.809 199.815C217.867 199.891 217.909 199.978 217.933 200.071C217.957 200.164 217.962 200.26 217.949 200.355C217.936 200.45 217.904 200.541 217.856 200.623C217.807 200.706 217.743 200.778 217.667 200.836C217.591 200.893 217.504 200.935 217.411 200.959C217.319 200.983 217.223 200.989 217.128 200.975L217.063 200.925Z" fill="#F07875"/>
</g>
<path d="M157.133 256.36H157.91V250.126H157.137L155.478 251.318V252.139L157.064 250.99H157.133V256.36ZM161.818 256.507C163.075 256.507 164 255.604 164 254.36V254.351C164 253.154 163.127 252.264 161.956 252.264C161.114 252.264 160.526 252.718 160.297 253.228H160.215C160.215 253.18 160.215 253.128 160.219 253.081C160.267 251.78 160.729 250.674 161.861 250.674C162.492 250.674 162.928 250.998 163.118 251.521L163.136 251.569H163.918L163.905 251.513C163.693 250.592 162.915 249.979 161.87 249.979C160.358 249.979 159.472 251.223 159.472 253.349V253.357C159.472 255.703 160.677 256.507 161.818 256.507ZM160.401 254.351V254.347C160.401 253.535 161.014 252.943 161.822 252.943C162.63 252.943 163.218 253.539 163.218 254.368V254.377C163.218 255.185 162.591 255.82 161.809 255.82C161.019 255.82 160.401 255.172 160.401 254.351ZM169.758 257.915H170.484V256.416C171.923 256.395 172.882 255.47 172.882 254.036V254.027C172.882 252.593 171.923 251.672 170.484 251.647V250.126H169.758V251.647C168.315 251.668 167.356 252.593 167.356 254.027V254.036C167.356 255.466 168.315 256.39 169.758 256.416V257.915ZM169.758 255.772C168.752 255.747 168.112 255.09 168.112 254.036V254.027C168.112 252.969 168.752 252.312 169.758 252.29V255.772ZM170.484 255.772V252.29C171.487 252.316 172.126 252.973 172.126 254.027V254.036C172.126 255.094 171.487 255.751 170.484 255.772ZM175.943 256.442C177.04 256.442 177.705 255.82 177.865 255.189L177.874 255.155H177.122L177.105 255.194C176.98 255.474 176.591 255.772 175.96 255.772C175.131 255.772 174.599 255.211 174.578 254.247H177.93V253.954C177.93 252.562 177.161 251.621 175.895 251.621C174.629 251.621 173.809 252.606 173.809 254.044V254.049C173.809 255.509 174.612 256.442 175.943 256.442ZM175.891 252.29C176.578 252.29 177.088 252.727 177.165 253.647H174.591C174.673 252.761 175.2 252.29 175.891 252.29ZM179.081 256.36H181.064C182.067 256.36 182.659 255.833 182.659 255.025V255.016C182.659 254.476 182.283 254.062 181.691 253.979V253.91C182.127 253.82 182.451 253.383 182.451 252.921V252.912C182.451 252.182 181.937 251.703 181.056 251.703H179.081V256.36ZM179.833 253.673V252.325H180.948C181.471 252.325 181.704 252.593 181.704 252.99V252.999C181.704 253.439 181.432 253.673 180.827 253.673H179.833ZM179.833 255.738V254.295H180.892C181.561 254.295 181.894 254.511 181.894 255.003V255.012C181.894 255.479 181.604 255.738 181.034 255.738H179.833ZM183.836 257.915H184.587V255.626H184.657C184.912 256.122 185.469 256.442 186.108 256.442C187.292 256.442 188.061 255.496 188.061 254.036V254.027C188.061 252.575 187.288 251.621 186.108 251.621C185.46 251.621 184.942 251.927 184.657 252.446H184.587V251.703H183.836V257.915ZM185.935 255.777C185.089 255.777 184.57 255.111 184.57 254.036V254.027C184.57 252.951 185.089 252.286 185.935 252.286C186.787 252.286 187.292 252.943 187.292 254.027V254.036C187.292 255.12 186.787 255.777 185.935 255.777ZM190.504 256.442C191.13 256.442 191.619 256.17 191.912 255.673H191.982V256.36H192.733V253.172C192.733 252.204 192.098 251.621 190.962 251.621C189.968 251.621 189.26 252.113 189.139 252.843L189.134 252.869H189.886L189.891 252.856C190.012 252.493 190.379 252.286 190.936 252.286C191.632 252.286 191.982 252.597 191.982 253.172V253.595L190.647 253.677C189.562 253.742 188.949 254.221 188.949 255.051V255.06C188.949 255.906 189.618 256.442 190.504 256.442ZM189.718 255.042V255.034C189.718 254.571 190.029 254.321 190.737 254.278L191.982 254.2V254.623C191.982 255.289 191.424 255.79 190.66 255.79C190.12 255.79 189.718 255.513 189.718 255.042ZM195.185 254.537L195.358 252.325H196.978V256.36H197.73V251.703H194.684L194.485 254.476C194.438 255.168 194.265 255.708 193.837 255.708C193.725 255.708 193.608 255.69 193.569 255.677V256.356C193.63 256.377 193.751 256.403 193.91 256.403C194.688 256.403 195.086 255.82 195.185 254.537ZM201.581 256.36H202.333V251.703H200.713C199.646 251.703 198.963 252.286 198.963 253.241V253.249C198.963 253.884 199.36 254.368 200.017 254.554L198.717 256.36H199.602L200.79 254.692H201.581V256.36ZM200.713 254.07C200.104 254.07 199.732 253.72 199.732 253.232V253.223C199.732 252.662 200.099 252.325 200.713 252.325H201.581V254.07H200.713ZM206.104 256.36H208.087C209.09 256.36 209.681 255.833 209.681 255.025V255.016C209.681 254.476 209.306 254.062 208.714 253.979V253.91C209.15 253.82 209.474 253.383 209.474 252.921V252.912C209.474 252.182 208.96 251.703 208.079 251.703H206.104V256.36ZM206.856 253.673V252.325H207.971C208.493 252.325 208.727 252.593 208.727 252.99V252.999C208.727 253.439 208.454 253.673 207.85 253.673H206.856ZM206.856 255.738V254.295H207.914C208.584 254.295 208.917 254.511 208.917 255.003V255.012C208.917 255.479 208.627 255.738 208.057 255.738H206.856ZM210.854 256.36H212.518C213.585 256.36 214.267 255.747 214.267 254.783V254.774C214.267 253.811 213.585 253.198 212.518 253.198H211.606V251.703H210.854V256.36ZM215.08 256.36H215.831V251.703H215.08V256.36ZM212.518 253.82C213.127 253.82 213.516 254.196 213.516 254.774V254.783C213.516 255.358 213.131 255.738 212.518 255.738H211.606V253.82H212.518ZM217.211 256.36H217.963V252.325H220.227V256.36H220.979V251.703H217.211V256.36ZM222.761 257.993C223.586 257.993 223.97 257.691 224.355 256.645L226.174 251.703H225.383L224.109 255.535H224.04L222.761 251.703H221.957L223.681 256.364L223.595 256.641C223.426 257.177 223.167 257.371 222.739 257.371C222.636 257.371 222.519 257.367 222.428 257.349V257.967C222.532 257.984 222.661 257.993 222.761 257.993ZM228.889 256.442C230.008 256.442 230.634 255.842 230.825 254.999L230.833 254.952L230.09 254.956L230.081 254.982C229.909 255.5 229.511 255.777 228.885 255.777C228.055 255.777 227.519 255.09 227.519 254.018V254.01C227.519 252.96 228.047 252.286 228.885 252.286C229.554 252.286 229.969 252.657 230.086 253.115L230.09 253.128H230.837L230.833 253.102C230.695 252.273 230.017 251.621 228.885 251.621C227.58 251.621 226.75 252.562 226.75 254.01V254.018C226.75 255.496 227.584 256.442 228.889 256.442ZM232.909 254.239L234.732 256.36H235.696L233.518 253.897L235.613 251.703H234.711L232.909 253.651H232.671V251.703H231.92V256.36H232.671V254.239H232.909ZM241.474 256.36H242.251V250.126H241.474V256.36ZM243.744 256.36H244.513V251.526H244.582L247.965 256.36H248.721V250.126H247.952V254.977H247.883L244.5 250.126H243.744V256.36ZM252.015 256.36H252.784L255.082 250.126H254.266L252.434 255.353H252.365L250.533 250.126H249.717L252.015 256.36ZM256.078 256.36H256.856V250.126H256.078V256.36ZM259.968 256.36H260.746V250.826H262.755V250.126H257.959V250.826H259.968V256.36ZM263.859 256.36H267.721V255.66H264.636V253.517H267.561V252.826H264.636V250.826H267.721V250.126H263.859V256.36ZM271.423 256.36H272.192V251.526H272.261L275.644 256.36H276.4V250.126H275.631V254.977H275.562L272.179 250.126H271.423V256.36ZM277.893 256.36H281.755V255.66H278.671V253.517H281.595V252.826H278.671V250.826H281.755V250.126H277.893V256.36ZM284.358 256.36H285.093L286.527 251.439H286.579L288.013 256.36H288.748L290.445 250.126H289.633L288.393 255.194H288.341L286.946 250.126H286.16L284.764 255.194H284.712L283.472 250.126H282.66L284.358 256.36ZM293.575 256.507C294.967 256.507 295.878 255.781 295.878 254.615V254.61C295.878 253.712 295.364 253.189 294.064 252.899L293.372 252.744C292.526 252.558 292.184 252.221 292.184 251.724V251.72C292.184 251.068 292.785 250.7 293.562 250.696C294.375 250.692 294.893 251.098 294.979 251.647L294.988 251.703H295.766L295.761 251.642C295.697 250.713 294.828 249.979 293.584 249.979C292.297 249.979 291.394 250.709 291.389 251.742V251.746C291.389 252.649 291.929 253.223 293.178 253.5L293.869 253.651C294.725 253.841 295.083 254.196 295.083 254.714V254.718C295.083 255.353 294.465 255.79 293.619 255.79C292.72 255.79 292.072 255.397 292.016 254.774L292.011 254.727H291.234L291.238 254.774C291.329 255.79 292.21 256.507 293.575 256.507ZM301.321 256.442C302.44 256.442 303.067 255.842 303.257 254.999L303.266 254.952L302.523 254.956L302.514 254.982C302.341 255.5 301.944 255.777 301.317 255.777C300.488 255.777 299.952 255.09 299.952 254.018V254.01C299.952 252.96 300.479 252.286 301.317 252.286C301.987 252.286 302.402 252.657 302.518 253.115L302.523 253.128H303.27L303.266 253.102C303.127 252.273 302.449 251.621 301.317 251.621C300.012 251.621 299.183 252.562 299.183 254.01V254.018C299.183 255.496 300.017 256.442 301.321 256.442ZM307.51 251.703H303.743V252.325H305.251V256.36H306.002V252.325H307.51V251.703ZM309.711 256.442C310.338 256.442 310.826 256.17 311.12 255.673H311.189V256.36H311.941V253.172C311.941 252.204 311.305 251.621 310.169 251.621C309.176 251.621 308.467 252.113 308.346 252.843L308.342 252.869H309.093L309.098 252.856C309.219 252.493 309.586 252.286 310.143 252.286C310.839 252.286 311.189 252.597 311.189 253.172V253.595L309.854 253.677C308.769 253.742 308.156 254.221 308.156 255.051V255.06C308.156 255.906 308.826 256.442 309.711 256.442ZM308.925 255.042V255.034C308.925 254.571 309.236 254.321 309.945 254.278L311.189 254.2V254.623C311.189 255.289 310.631 255.79 309.867 255.79C309.327 255.79 308.925 255.513 308.925 255.042ZM314.392 254.537L314.565 252.325H316.185V256.36H316.937V251.703H313.891L313.692 254.476C313.645 255.168 313.472 255.708 313.044 255.708C312.932 255.708 312.815 255.69 312.776 255.677V256.356C312.837 256.377 312.958 256.403 313.118 256.403C313.895 256.403 314.293 255.82 314.392 254.537ZM324.26 256.36V251.703H323.508V253.668C323.313 253.884 322.912 254.036 322.328 254.036C321.693 254.036 321.374 253.647 321.374 253.033V251.703H320.622V253.033C320.622 254.027 321.205 254.701 322.328 254.701C322.83 254.701 323.188 254.597 323.439 254.42H323.508V256.36H324.26ZM326.923 256.442C327.549 256.442 328.038 256.17 328.331 255.673H328.4V256.36H329.152V253.172C329.152 252.204 328.517 251.621 327.381 251.621C326.387 251.621 325.679 252.113 325.558 252.843L325.553 252.869H326.305L326.309 252.856C326.43 252.493 326.798 252.286 327.355 252.286C328.051 252.286 328.4 252.597 328.4 253.172V253.595L327.065 253.677C325.981 253.742 325.368 254.221 325.368 255.051V255.06C325.368 255.906 326.037 256.442 326.923 256.442ZM326.137 255.042V255.034C326.137 254.571 326.448 254.321 327.156 254.278L328.4 254.2V254.623C328.4 255.289 327.843 255.79 327.078 255.79C326.538 255.79 326.137 255.513 326.137 255.042ZM332.42 256.442C333.539 256.442 334.166 255.842 334.356 254.999L334.365 254.952L333.621 254.956L333.613 254.982C333.44 255.5 333.043 255.777 332.416 255.777C331.587 255.777 331.051 255.09 331.051 254.018V254.01C331.051 252.96 331.578 252.286 332.416 252.286C333.086 252.286 333.5 252.657 333.617 253.115L333.621 253.128H334.369L334.365 253.102C334.226 252.273 333.548 251.621 332.416 251.621C331.111 251.621 330.282 252.562 330.282 254.01V254.018C330.282 255.496 331.116 256.442 332.42 256.442ZM338.609 251.703H334.842V252.325H336.35V256.36H337.101V252.325H338.609V251.703ZM339.596 256.36H341.26C342.327 256.36 343.009 255.747 343.009 254.783V254.774C343.009 253.811 342.327 253.198 341.26 253.198H340.348V251.703H339.596V256.36ZM341.26 253.82C341.869 253.82 342.257 254.196 342.257 254.774V254.783C342.257 255.358 341.873 255.738 341.26 255.738H340.348V253.82H341.26ZM344.07 256.36H344.821V254.252H345.66C345.737 255.621 346.524 256.446 347.759 256.446C349.06 256.446 349.863 255.53 349.863 254.036V254.027C349.863 252.528 349.06 251.616 347.759 251.616C346.58 251.616 345.811 252.368 345.677 253.63H344.821V251.703H344.07V256.36ZM347.759 255.781C346.904 255.781 346.424 255.137 346.424 254.036V254.027C346.424 252.921 346.904 252.282 347.759 252.282C348.615 252.282 349.094 252.921 349.094 254.027V254.036C349.094 255.137 348.615 255.781 347.759 255.781ZM157.729 267.464C158.977 267.464 159.893 266.695 159.893 265.653V265.645C159.893 264.759 159.276 264.193 158.368 264.115V264.098C159.146 263.934 159.69 263.407 159.69 262.638V262.629C159.69 261.683 158.908 261.022 157.72 261.022C156.554 261.022 155.75 261.7 155.651 262.716L155.646 262.759H156.394L156.398 262.716C156.463 262.085 156.986 261.696 157.72 261.696C158.481 261.696 158.908 262.072 158.908 262.724V262.733C158.908 263.355 158.39 263.813 157.647 263.813H156.899V264.47H157.681C158.554 264.47 159.103 264.897 159.103 265.662V265.671C159.103 266.332 158.545 266.79 157.729 266.79C156.899 266.79 156.333 266.366 156.273 265.753L156.269 265.71H155.521L155.525 265.761C155.608 266.747 156.441 267.464 157.729 267.464ZM163.144 267.507C164.522 267.507 165.352 266.25 165.352 264.245V264.236C165.352 262.232 164.522 260.979 163.144 260.979C161.766 260.979 160.945 262.232 160.945 264.236V264.245C160.945 266.25 161.766 267.507 163.144 267.507ZM163.144 266.829C162.25 266.829 161.727 265.835 161.727 264.245V264.236C161.727 262.647 162.25 261.661 163.144 261.661C164.039 261.661 164.57 262.647 164.57 264.236V264.245C164.57 265.835 164.039 266.829 163.144 266.829ZM168.62 267.507C169.998 267.507 170.828 266.25 170.828 264.245V264.236C170.828 262.232 169.998 260.979 168.62 260.979C167.242 260.979 166.421 262.232 166.421 264.236V264.245C166.421 266.25 167.242 267.507 168.62 267.507ZM168.62 266.829C167.726 266.829 167.203 265.835 167.203 264.245V264.236C167.203 262.647 167.726 261.661 168.62 261.661C169.514 261.661 170.046 262.647 170.046 264.236V264.245C170.046 265.835 169.514 266.829 168.62 266.829ZM177.818 262.703H174.05V263.325H175.558V267.36H176.31V263.325H177.818V262.703ZM178.805 267.36H180.468C181.535 267.36 182.218 266.747 182.218 265.783V265.774C182.218 264.811 181.535 264.198 180.468 264.198H179.557V262.703H178.805V267.36ZM183.03 267.36H183.782V262.703H183.03V267.36ZM180.468 264.82C181.077 264.82 181.466 265.196 181.466 265.774V265.783C181.466 266.358 181.082 266.738 180.468 266.738H179.557V264.82H180.468ZM187.072 267.442C188.191 267.442 188.817 266.842 189.007 265.999L189.016 265.952L188.273 265.956L188.264 265.982C188.091 266.5 187.694 266.777 187.067 266.777C186.238 266.777 185.702 266.09 185.702 265.018V265.01C185.702 263.96 186.229 263.286 187.067 263.286C187.737 263.286 188.152 263.657 188.268 264.115L188.273 264.128H189.02L189.016 264.102C188.878 263.273 188.199 262.621 187.067 262.621C185.763 262.621 184.933 263.562 184.933 265.01V265.018C184.933 266.496 185.767 267.442 187.072 267.442ZM192.487 267.36H193.239V262.703H191.619C190.552 262.703 189.869 263.286 189.869 264.241V264.249C189.869 264.884 190.266 265.368 190.923 265.554L189.623 267.36H190.508L191.696 265.692H192.487V267.36ZM191.619 265.07C191.01 265.07 190.638 264.72 190.638 264.232V264.223C190.638 263.662 191.005 263.325 191.619 263.325H192.487V265.07H191.619ZM198.17 267.36V262.703H197.419V264.668C197.224 264.884 196.822 265.036 196.239 265.036C195.604 265.036 195.284 264.647 195.284 264.033V262.703H194.533V264.033C194.533 265.027 195.116 265.701 196.239 265.701C196.74 265.701 197.099 265.597 197.349 265.42H197.419V267.36H198.17ZM203.575 267.446C204.88 267.446 205.735 266.5 205.735 265.018V265.01C205.735 263.558 204.884 262.616 203.579 262.616C202.473 262.616 201.778 263.256 201.626 264.059L201.613 264.128H202.365L202.382 264.072C202.516 263.636 202.927 263.282 203.579 263.282C204.309 263.282 204.854 263.804 204.944 264.643H202.793V265.265H204.957C204.892 266.176 204.357 266.781 203.579 266.781C202.957 266.781 202.521 266.496 202.374 265.982L202.365 265.952H201.613L201.618 265.977C201.76 266.82 202.46 267.446 203.575 267.446ZM207.871 265.239L209.694 267.36H210.658L208.48 264.897L210.576 262.703H209.673L207.871 264.651H207.634V262.703H206.882V267.36H207.634V265.239H207.871ZM212.967 267.446C214.051 267.446 214.799 266.855 214.799 265.99V265.982C214.799 265.463 214.475 265.092 213.861 264.958V264.889C214.323 264.781 214.63 264.353 214.63 263.882V263.873C214.63 263.13 214.034 262.616 212.993 262.616C212.042 262.616 211.36 263.092 211.252 263.839L211.247 263.869H211.982L211.986 263.848C212.06 263.476 212.461 263.238 212.993 263.238C213.589 263.238 213.896 263.532 213.896 263.93V263.938C213.896 264.422 213.563 264.66 212.967 264.66H212.241V265.282H212.967C213.68 265.282 214.06 265.515 214.06 266.021V266.029C214.06 266.492 213.654 266.824 212.967 266.824C212.401 266.824 211.986 266.582 211.891 266.202L211.882 266.168H211.118L211.122 266.202C211.217 266.954 211.973 267.446 212.967 267.446ZM217.812 267.442C218.909 267.442 219.575 266.82 219.735 266.189L219.743 266.155H218.991L218.974 266.194C218.849 266.474 218.46 266.772 217.829 266.772C217 266.772 216.468 266.211 216.447 265.247H219.799V264.954C219.799 263.562 219.03 262.621 217.764 262.621C216.499 262.621 215.678 263.606 215.678 265.044V265.049C215.678 266.509 216.481 267.442 217.812 267.442ZM217.76 263.29C218.447 263.29 218.957 263.727 219.035 264.647H216.46C216.542 263.761 217.069 263.29 217.76 263.29ZM221.702 267.36V264.046H221.784L223.249 267.23H223.828L225.297 264.046H225.379V267.36H226.131V262.703H225.258L223.59 266.314H223.521L221.862 262.703H220.951V267.36H221.702ZM227.515 267.36H228.267V263.325H230.531V267.36H231.282V262.703H227.515V267.36ZM233.756 265.537L233.929 263.325H235.549V267.36H236.3V262.703H233.255L233.056 265.476C233.008 266.168 232.836 266.708 232.408 266.708C232.295 266.708 232.179 266.69 232.14 266.677V267.356C232.2 267.377 232.321 267.403 232.481 267.403C233.259 267.403 233.656 266.82 233.756 265.537ZM240.152 267.36H240.904V262.703H239.283C238.216 262.703 237.534 263.286 237.534 264.241V264.249C237.534 264.884 237.931 265.368 238.588 265.554L237.287 267.36H238.173L239.361 265.692H240.152V267.36ZM239.283 265.07C238.674 265.07 238.303 264.72 238.303 264.232V264.223C238.303 263.662 238.67 263.325 239.283 263.325H240.152V265.07H239.283ZM242.288 268.915H243.04V266.626H243.109C243.364 267.122 243.921 267.442 244.561 267.442C245.744 267.442 246.513 266.496 246.513 265.036V265.027C246.513 263.575 245.74 262.621 244.561 262.621C243.913 262.621 243.394 262.927 243.109 263.446H243.04V262.703H242.288V268.915ZM244.388 266.777C243.541 266.777 243.023 266.111 243.023 265.036V265.027C243.023 263.951 243.541 263.286 244.388 263.286C245.239 263.286 245.744 263.943 245.744 265.027V265.036C245.744 266.12 245.239 266.777 244.388 266.777ZM249.591 267.442C250.918 267.442 251.739 266.526 251.739 265.036V265.027C251.739 263.532 250.918 262.621 249.591 262.621C248.265 262.621 247.444 263.532 247.444 265.027V265.036C247.444 266.526 248.265 267.442 249.591 267.442ZM249.591 266.777C248.71 266.777 248.213 266.133 248.213 265.036V265.027C248.213 263.925 248.71 263.286 249.591 263.286C250.473 263.286 250.97 263.925 250.97 265.027V265.036C250.97 266.133 250.473 266.777 249.591 266.777ZM252.89 267.36H254.873C255.875 267.36 256.467 266.833 256.467 266.025V266.016C256.467 265.476 256.091 265.062 255.499 264.979V264.91C255.936 264.82 256.26 264.383 256.26 263.921V263.912C256.26 263.182 255.746 262.703 254.864 262.703H252.89V267.36ZM253.642 264.673V263.325H254.756C255.279 263.325 255.512 263.593 255.512 263.99V263.999C255.512 264.439 255.24 264.673 254.635 264.673H253.642ZM253.642 266.738V265.295H254.7C255.37 265.295 255.702 265.511 255.702 266.003V266.012C255.702 266.479 255.413 266.738 254.843 266.738H253.642ZM263.405 262.703H259.638V263.325H261.146V267.36H261.898V263.325H263.405V262.703ZM264.392 267.36H265.144L267.447 263.886H267.516V267.36H268.268V262.703H267.516L265.213 266.176H265.144V262.703H264.392V267.36ZM269.657 268.915H270.408V266.626H270.477C270.732 267.122 271.29 267.442 271.929 267.442C273.113 267.442 273.882 266.496 273.882 265.036V265.027C273.882 263.575 273.109 262.621 271.929 262.621C271.281 262.621 270.763 262.927 270.477 263.446H270.408V262.703H269.657V268.915ZM271.756 266.777C270.909 266.777 270.391 266.111 270.391 265.036V265.027C270.391 263.951 270.909 263.286 271.756 263.286C272.607 263.286 273.113 263.943 273.113 265.027V265.036C273.113 266.12 272.607 266.777 271.756 266.777ZM276.325 267.442C276.951 267.442 277.44 267.17 277.733 266.673H277.802V267.36H278.554V264.172C278.554 263.204 277.919 262.621 276.783 262.621C275.789 262.621 275.081 263.113 274.96 263.843L274.955 263.869H275.707L275.711 263.856C275.832 263.493 276.2 263.286 276.757 263.286C277.452 263.286 277.802 263.597 277.802 264.172V264.595L276.467 264.677C275.383 264.742 274.77 265.221 274.77 266.051V266.06C274.77 266.906 275.439 267.442 276.325 267.442ZM275.539 266.042V266.034C275.539 265.571 275.85 265.321 276.558 265.278L277.802 265.2V265.623C277.802 266.289 277.245 266.79 276.48 266.79C275.94 266.79 275.539 266.513 275.539 266.042ZM280.328 267.36L281.999 265.226H282.276V267.36H283.002V265.226H283.278L284.95 267.36H285.892L283.87 264.889L285.797 262.703H284.907L283.278 264.664H283.002V262.703H282.276V264.664H281.999L280.371 262.703H279.468L281.408 264.906L279.399 267.36H280.328ZM287.916 267.442C288.542 267.442 289.031 267.17 289.324 266.673H289.394V267.36H290.145V264.172C290.145 263.204 289.51 262.621 288.374 262.621C287.38 262.621 286.672 263.113 286.551 263.843L286.546 263.869H287.298L287.303 263.856C287.423 263.493 287.791 263.286 288.348 263.286C289.044 263.286 289.394 263.597 289.394 264.172V264.595L288.059 264.677C286.974 264.742 286.361 265.221 286.361 266.051V266.06C286.361 266.906 287.03 267.442 287.916 267.442ZM287.13 266.042V266.034C287.13 265.571 287.441 265.321 288.149 265.278L289.394 265.2V265.623C289.394 266.289 288.836 266.79 288.072 266.79C287.532 266.79 287.13 266.513 287.13 266.042ZM296.876 263.325V262.703H293.895V267.36H294.647V263.325H296.876ZM299.064 267.442C299.691 267.442 300.179 267.17 300.473 266.673H300.542V267.36H301.293V264.172C301.293 263.204 300.658 262.621 299.522 262.621C298.529 262.621 297.82 263.113 297.699 263.843L297.695 263.869H298.446L298.451 263.856C298.572 263.493 298.939 263.286 299.496 263.286C300.192 263.286 300.542 263.597 300.542 264.172V264.595L299.207 264.677C298.122 264.742 297.509 265.221 297.509 266.051V266.06C297.509 266.906 298.179 267.442 299.064 267.442ZM298.278 266.042V266.034C298.278 265.571 298.589 265.321 299.298 265.278L300.542 265.2V265.623C300.542 266.289 299.984 266.79 299.22 266.79C298.68 266.79 298.278 266.513 298.278 266.042ZM304.238 267.446C305.322 267.446 306.069 266.855 306.069 265.99V265.982C306.069 265.463 305.745 265.092 305.132 264.958V264.889C305.594 264.781 305.901 264.353 305.901 263.882V263.873C305.901 263.13 305.305 262.616 304.264 262.616C303.313 262.616 302.631 263.092 302.523 263.839L302.518 263.869H303.253L303.257 263.848C303.33 263.476 303.732 263.238 304.264 263.238C304.86 263.238 305.167 263.532 305.167 263.93V263.938C305.167 264.422 304.834 264.66 304.238 264.66H303.512V265.282H304.238C304.951 265.282 305.331 265.515 305.331 266.021V266.029C305.331 266.492 304.925 266.824 304.238 266.824C303.672 266.824 303.257 266.582 303.162 266.202L303.153 266.168H302.389L302.393 266.202C302.488 266.954 303.244 267.446 304.238 267.446ZM309.083 267.442C310.18 267.442 310.845 266.82 311.005 266.189L311.014 266.155H310.262L310.245 266.194C310.12 266.474 309.731 266.772 309.1 266.772C308.271 266.772 307.739 266.211 307.718 265.247H311.07V264.954C311.07 263.562 310.301 262.621 309.035 262.621C307.769 262.621 306.949 263.606 306.949 265.044V265.049C306.949 266.509 307.752 267.442 309.083 267.442ZM309.031 263.29C309.718 263.29 310.228 263.727 310.305 264.647H307.731C307.813 263.761 308.34 263.29 309.031 263.29ZM315.25 262.703H311.483V263.325H312.99V267.36H313.742V263.325H315.25V262.703ZM316.237 267.36H317.9C318.967 267.36 319.65 266.747 319.65 265.783V265.774C319.65 264.811 318.967 264.198 317.9 264.198H316.989V262.703H316.237V267.36ZM320.462 267.36H321.214V262.703H320.462V267.36ZM317.9 264.82C318.509 264.82 318.898 265.196 318.898 265.774V265.783C318.898 266.358 318.514 266.738 317.9 266.738H316.989V264.82H317.9ZM325.042 267.36H325.767V262.599H325.815L327.785 267.36H328.442L330.412 262.599H330.459V267.36H331.185V261.126H330.282L328.148 266.327H328.079L325.944 261.126H325.042V267.36ZM334.483 267.442C335.581 267.442 336.246 266.82 336.406 266.189L336.415 266.155H335.663L335.646 266.194C335.52 266.474 335.132 266.772 334.501 266.772C333.671 266.772 333.14 266.211 333.118 265.247H336.471V264.954C336.471 263.562 335.702 262.621 334.436 262.621C333.17 262.621 332.349 263.606 332.349 265.044V265.049C332.349 266.509 333.153 267.442 334.483 267.442ZM334.432 263.29C335.119 263.29 335.628 263.727 335.706 264.647H333.131C333.213 263.761 333.74 263.29 334.432 263.29ZM339.195 267.395C339.342 267.395 339.484 267.377 339.631 267.351V266.712C339.493 266.725 339.419 266.729 339.285 266.729C338.801 266.729 338.611 266.509 338.611 265.96V263.325H339.631V262.703H338.611V261.497H337.834V262.703H337.099V263.325H337.834V266.15C337.834 267.04 338.236 267.395 339.195 267.395ZM340.657 267.36H341.409V264.474C341.409 263.791 341.918 263.338 342.636 263.338C342.8 263.338 342.942 263.355 343.098 263.381V262.651C343.024 262.638 342.865 262.621 342.722 262.621C342.091 262.621 341.655 262.906 341.478 263.394H341.409V262.703H340.657V267.36ZM345.714 267.442C347.04 267.442 347.861 266.526 347.861 265.036V265.027C347.861 263.532 347.04 262.621 345.714 262.621C344.387 262.621 343.567 263.532 343.567 265.027V265.036C343.567 266.526 344.387 267.442 345.714 267.442ZM345.714 266.777C344.832 266.777 344.336 266.133 344.336 265.036V265.027C344.336 263.925 344.832 263.286 345.714 263.286C346.595 263.286 347.092 263.925 347.092 265.027V265.036C347.092 266.133 346.595 266.777 345.714 266.777ZM155.75 279.36H156.476V274.599H156.523L158.494 279.36H159.15L161.12 274.599H161.168V279.36H161.894V273.126H160.991L158.856 278.327H158.787L156.653 273.126H155.75V279.36ZM165.291 279.442C166.618 279.442 167.439 278.526 167.439 277.036V277.027C167.439 275.532 166.618 274.621 165.291 274.621C163.965 274.621 163.144 275.532 163.144 277.027V277.036C163.144 278.526 163.965 279.442 165.291 279.442ZM165.291 278.777C164.41 278.777 163.913 278.133 163.913 277.036V277.027C163.913 275.925 164.41 275.286 165.291 275.286C166.173 275.286 166.67 275.925 166.67 277.027V277.036C166.67 278.133 166.173 278.777 165.291 278.777ZM170.499 279.442C171.618 279.442 172.245 278.842 172.435 277.999L172.444 277.952L171.7 277.956L171.692 277.982C171.519 278.5 171.122 278.777 170.495 278.777C169.666 278.777 169.13 278.09 169.13 277.018V277.01C169.13 275.96 169.657 275.286 170.495 275.286C171.165 275.286 171.58 275.657 171.696 276.115L171.7 276.128H172.448L172.444 276.102C172.305 275.273 171.627 274.621 170.495 274.621C169.19 274.621 168.361 275.562 168.361 277.01V277.018C168.361 278.496 169.195 279.442 170.499 279.442ZM174.519 277.239L176.343 279.36H177.306L175.129 276.897L177.224 274.703H176.321L174.519 276.651H174.282V274.703H173.53V279.36H174.282V277.239H174.519ZM178.246 279.36H180.229C181.231 279.36 181.823 278.833 181.823 278.025V278.016C181.823 277.476 181.447 277.062 180.855 276.979V276.91C181.291 276.82 181.615 276.383 181.615 275.921V275.912C181.615 275.182 181.101 274.703 180.22 274.703H178.246V279.36ZM178.997 276.673V275.325H180.112C180.635 275.325 180.868 275.593 180.868 275.99V275.999C180.868 276.439 180.596 276.673 179.991 276.673H178.997ZM178.997 278.738V277.295H180.056C180.725 277.295 181.058 277.511 181.058 278.003V278.012C181.058 278.479 180.769 278.738 180.198 278.738H178.997ZM184.279 279.442C184.905 279.442 185.393 279.17 185.687 278.673H185.756V279.36H186.508V276.172C186.508 275.204 185.873 274.621 184.737 274.621C183.743 274.621 183.034 275.113 182.913 275.843L182.909 275.869H183.661L183.665 275.856C183.786 275.493 184.153 275.286 184.711 275.286C185.406 275.286 185.756 275.597 185.756 276.172V276.595L184.421 276.677C183.337 276.742 182.723 277.221 182.723 278.051V278.06C182.723 278.906 183.393 279.442 184.279 279.442ZM183.492 278.042V278.034C183.492 277.571 183.803 277.321 184.512 277.278L185.756 277.2V277.623C185.756 278.289 185.199 278.79 184.434 278.79C183.894 278.79 183.492 278.513 183.492 278.042Z" fill="black"/>
</g>
</g>
<path d="M195.383 22.353H191V9.60144H340.033V22.353H336.048C333.848 22.353 332.064 24.137 332.064 26.3378V27.5333C332.064 35.456 325.641 41.8787 317.718 41.8787H213.714C205.791 41.8787 199.368 35.456 199.368 27.5333V26.3378C199.368 24.137 197.584 22.353 195.383 22.353Z" fill="#222222"/>
<path d="M240.412 29.1272C240.412 27.8068 241.483 26.7363 242.803 26.7363H276.276C277.596 26.7363 278.667 27.8068 278.667 29.1272C278.667 30.4477 277.596 31.5181 276.276 31.5181H242.803C241.483 31.5181 240.412 30.4477 240.412 29.1272Z" fill="#3C3C3C"/>
<path d="M289.824 29.1272C289.824 30.4477 288.754 31.5181 287.433 31.5181C286.113 31.5181 285.042 30.4477 285.042 29.1272C285.042 27.8068 286.113 26.7363 287.433 26.7363C288.754 26.7363 289.824 27.8068 289.824 29.1272Z" fill="#3C3C3C"/>
</g>
<rect x="141.376" y="16.3758" width="250.248" height="527.248" rx="33.6242" stroke="#222222" stroke-width="12.7515"/>
</g>
<defs>
<clipPath id="clip0_29_10422">
<rect width="534" height="272" fill="white"/>
</clipPath>
<clipPath id="clip1_29_10422">
<rect width="396" height="272" fill="white" transform="translate(69)"/>
</clipPath>
<clipPath id="clip2_29_10422">
<rect x="135" y="10" width="263" height="540" rx="40" fill="white"/>
</clipPath>
<clipPath id="clip3_29_10422">
<rect x="148" y="23" width="237" height="513.184" rx="8.848" fill="white"/>
</clipPath>
<clipPath id="clip4_29_10422">
<rect width="237" height="660.42" fill="white" transform="translate(148 23)"/>
</clipPath>
<clipPath id="clip5_29_10422">
<rect width="237" height="83.424" fill="white" transform="translate(148 23)"/>
</clipPath>
<clipPath id="clip6_29_10422">
<rect x="148" y="23" width="237" height="60.672" fill="white"/>
</clipPath>
<clipPath id="clip7_29_10422">
<rect x="156.848" y="58.0599" width="17.7" height="17.7" rx="8.85" fill="white"/>
</clipPath>
<clipPath id="clip8_29_10422">
<rect width="432.024" height="30.336" fill="white" transform="translate(146.736 81.144)"/>
</clipPath>
<clipPath id="clip9_29_10422">
<rect width="136" height="74" fill="white" transform="translate(199 155)"/>
</clipPath>
</defs>
</svg>
