<svg width="534" height="272" viewBox="0 0 534 272" fill="none" xmlns="http://www.w3.org/2000/svg">
<g clip-path="url(#clip0_30_16435)">
<g clip-path="url(#clip1_30_16435)">
<path d="M274.876 113C364.481 113 409.283 113 437.119 140.837C461.725 165.442 464.581 203.302 464.913 273.642H69C69.3316 203.302 72.1879 165.442 96.793 140.837C124.63 113 169.432 113 259.036 113H274.876Z" fill="#0077FF"/>
</g>
<g clip-path="url(#clip2_30_16435)">
<rect x="135" y="10" width="263" height="540" rx="40" fill="white"/>
<g clip-path="url(#clip3_30_16435)">
<rect x="148" y="23" width="237" height="513.184" rx="8.848" fill="white"/>
<g clip-path="url(#clip4_30_16435)">
<g clip-path="url(#clip5_30_16435)">
<rect x="148" y="23" width="237" height="60.672" fill="white"/>
<path opacity="0.4" d="M360.668 36.5881C360.668 36.1404 360.668 35.8237 360.689 35.576C360.708 35.3321 360.746 35.1832 360.806 35.0662C360.927 34.8284 361.12 34.635 361.358 34.5138C361.475 34.4542 361.624 34.4165 361.868 34.3965C362.116 34.3763 362.432 34.3761 362.88 34.3761H371.728C372.176 34.3761 372.492 34.3763 372.74 34.3965C372.984 34.4165 373.133 34.4542 373.25 34.5138C373.488 34.635 373.681 34.8284 373.802 35.0662C373.862 35.1832 373.9 35.3321 373.92 35.576C373.94 35.8237 373.94 36.1404 373.94 36.5881V38.1681C373.94 38.6157 373.94 38.9325 373.92 39.1801C373.9 39.424 373.862 39.5729 373.802 39.6899C373.681 39.9277 373.488 40.1211 373.25 40.2423C373.133 40.3019 372.984 40.3397 372.74 40.3596C372.492 40.3798 372.176 40.3801 371.728 40.3801H362.88C362.432 40.3801 362.116 40.3798 361.868 40.3596C361.624 40.3397 361.475 40.3019 361.358 40.2423C361.12 40.1211 360.927 39.9277 360.806 39.6899C360.746 39.5729 360.708 39.424 360.689 39.1801C360.668 38.9325 360.668 38.6157 360.668 38.1681V36.5881Z" stroke="black" stroke-width="0.632"/>
<path opacity="0.4" fill-rule="evenodd" clip-rule="evenodd" d="M374.888 38.7203C375.433 38.58 375.836 38.0851 375.836 37.4962C375.836 36.9072 375.433 36.4123 374.888 36.272V38.7203Z" fill="black"/>
<rect x="361.616" y="35.324" width="11.376" height="4.108" rx="0.632" fill="black"/>
<path fill-rule="evenodd" clip-rule="evenodd" d="M352.345 35.3923C353.745 35.3923 355.092 35.9304 356.107 36.8954C356.184 36.9699 356.306 36.9689 356.381 36.8933L357.112 36.1559C357.15 36.1176 357.171 36.0656 357.171 36.0115C357.17 35.9574 357.149 35.9057 357.11 35.8677C354.446 33.3148 350.243 33.3148 347.579 35.8677C347.541 35.9056 347.519 35.9574 347.519 36.0115C347.518 36.0655 347.539 36.1175 347.578 36.1559L348.308 36.8933C348.384 36.9691 348.506 36.97 348.582 36.8954C349.597 35.9304 350.944 35.3923 352.345 35.3923ZM352.345 37.7911C353.114 37.7911 353.856 38.0771 354.427 38.5936C354.504 38.6669 354.625 38.6653 354.701 38.59L355.43 37.8527C355.469 37.814 355.49 37.7615 355.489 37.707C355.489 37.6525 355.467 37.6005 355.427 37.5626C353.69 35.9469 351.001 35.9469 349.264 37.5626C349.225 37.6005 349.202 37.6525 349.202 37.707C349.201 37.7616 349.223 37.814 349.261 37.8527L349.991 38.59C350.066 38.6653 350.187 38.6669 350.265 38.5936C350.835 38.0774 351.576 37.7915 352.345 37.7911ZM353.807 39.4052C353.808 39.4598 353.786 39.5125 353.747 39.5508L352.485 40.8247C352.448 40.8622 352.398 40.8832 352.345 40.8832C352.292 40.8832 352.242 40.8622 352.205 40.8247L350.942 39.5508C350.903 39.5125 350.882 39.4598 350.883 39.4051C350.884 39.3504 350.908 39.2987 350.948 39.262C351.755 38.5802 352.935 38.5802 353.741 39.262C353.782 39.2987 353.806 39.3505 353.807 39.4052Z" fill="black"/>
<path fill-rule="evenodd" clip-rule="evenodd" d="M344.341 34.7974C344.341 34.4484 344.058 34.1654 343.709 34.1654H343.077C342.728 34.1654 342.445 34.4484 342.445 34.7974V40.2747C342.445 40.6238 342.728 40.9067 343.077 40.9067H343.709C344.058 40.9067 344.341 40.6238 344.341 40.2747V34.7974ZM340.128 35.6401H340.76C341.109 35.6401 341.392 35.9231 341.392 36.2721V40.2748C341.392 40.6238 341.109 40.9068 340.76 40.9068H340.128C339.779 40.9068 339.496 40.6238 339.496 40.2748V36.2721C339.496 35.9231 339.779 35.6401 340.128 35.6401ZM337.811 37.1147H337.179C336.83 37.1147 336.547 37.3977 336.547 37.7467V40.2747C336.547 40.6238 336.83 40.9067 337.179 40.9067H337.811C338.16 40.9067 338.443 40.6238 338.443 40.2747V37.7467C338.443 37.3977 338.16 37.1147 337.811 37.1147ZM335.493 39.0107C335.493 38.6617 335.21 38.3787 334.861 38.3787H334.229C333.88 38.3787 333.597 38.6617 333.597 39.0107V40.2747C333.597 40.6238 333.88 40.9067 334.229 40.9067H334.861C335.21 40.9067 335.493 40.6238 335.493 40.2747V39.0107Z" fill="black"/>
<path d="M167.786 41.0565H168.981V34.377H167.791L166.046 35.6037V36.7285L167.708 35.5527H167.786V41.0565ZM170.647 41.0565H175.285V40.0659H172.263V39.9687L173.6 38.6726C174.818 37.5015 175.184 36.8998 175.184 36.1406V36.1267C175.184 35.0019 174.248 34.2104 172.948 34.2104C171.554 34.2104 170.582 35.0806 170.582 36.3258L170.587 36.3397L171.698 36.3443L171.703 36.3258C171.703 35.6361 172.179 35.1686 172.888 35.1686C173.582 35.1686 174.003 35.6129 174.003 36.2286V36.2425C174.003 36.7563 173.749 37.0942 172.841 38.0107L170.647 40.2511V41.0565ZM177.281 36.7285C177.706 36.7285 178.017 36.4045 178.017 35.9971C178.017 35.5852 177.706 35.2658 177.281 35.2658C176.859 35.2658 176.545 35.5852 176.545 35.9971C176.545 36.4045 176.859 36.7285 177.281 36.7285ZM177.281 40.1631C177.706 40.1631 178.017 39.8437 178.017 39.4318C178.017 39.0198 177.706 38.7004 177.281 38.7004C176.859 38.7004 176.545 39.0198 176.545 39.4318C176.545 39.8437 176.859 40.1631 177.281 40.1631ZM182.433 41.0565H183.576V39.7743H184.474V38.7884H183.576V34.377H181.887C180.979 35.7564 180.03 37.2932 179.165 38.7976V39.7743H182.433V41.0565ZM180.276 38.8161V38.7467C180.924 37.6126 181.697 36.3767 182.382 35.3306H182.451V38.8161H180.276ZM188.025 41.1908C189.561 41.1908 190.631 40.3946 190.631 39.2512V39.242C190.631 38.3856 190.01 37.7237 189.117 37.5432V37.5154C189.881 37.3117 190.39 36.7516 190.39 36.0342V36.0249C190.39 34.9973 189.409 34.2428 188.025 34.2428C186.641 34.2428 185.659 34.9973 185.659 36.0249V36.0342C185.659 36.7516 186.168 37.3117 186.932 37.5154V37.5432C186.043 37.7237 185.419 38.3856 185.419 39.242V39.2512C185.419 40.3946 186.488 41.1908 188.025 41.1908ZM188.025 37.1358C187.326 37.1358 186.84 36.7285 186.84 36.1452V36.136C186.84 35.5527 187.326 35.1454 188.025 35.1454C188.724 35.1454 189.21 35.5527 189.21 36.136V36.1452C189.21 36.7285 188.724 37.1358 188.025 37.1358ZM188.025 40.2789C187.224 40.2789 186.654 39.816 186.654 39.1726V39.1633C186.654 38.5152 187.215 38.0477 188.025 38.0477C188.83 38.0477 189.395 38.5152 189.395 39.1633V39.1726C189.395 39.816 188.825 40.2789 188.025 40.2789Z" fill="black"/>
<g clip-path="url(#clip6_30_16435)">
<rect x="156.848" y="58.392" width="17.696" height="17.696" rx="8.848" fill="#0177FF"/>
<path d="M156.848 74.0122C157.685 73.3551 160.385 72.2209 165.505 72.2209C170.588 72.2209 173.318 73.4572 174.518 74.0006L174.544 74.0122V78.6567H165.505H156.848V74.0122Z" fill="#12D984"/>
<path d="M162.651 72.124C161.008 73.136 160.69 76.2283 160.878 77.5579C163.897 79.0491 167.197 79.2172 170.139 77.5579C170.637 74.1748 169.156 72.6965 168.358 72.3549C167.702 75.9236 163.039 74.9541 162.651 72.124Z" fill="white"/>
<path d="M165.65 73.1905C163.966 73.1905 163.354 71.7316 163.258 71.0022C162.68 71.5393 162.175 72.603 163.586 74.0123C165.37 75.7933 169.86 74.009 167.852 71.0022C167.82 71.7316 167.334 73.1905 165.65 73.1905Z" fill="white"/>
<path d="M165.515 73.2636C163.766 73.2254 163.268 71.4573 163.238 70.5781V70.4204H167.974C167.951 70.9843 167.702 73.3114 165.515 73.2636Z" fill="#FCA190"/>
<path d="M168.142 73.2644C167.833 73.5253 167.436 74.6771 165.612 74.6771C163.788 74.6771 163.388 73.7057 162.907 73.4814C162.907 73.4814 163.419 75.185 165.612 75.185C167.805 75.185 168.142 73.2644 168.142 73.2644Z" fill="#CBE5FC"/>
<path d="M161.965 63.0741C160.687 63.5247 160.829 65.0639 162.048 65.8719C162.181 65.8719 167.111 65.7734 169.559 65.7241C169.79 65.6857 170.301 65.3835 170.335 64.1591C170.368 62.9346 169.664 62.2985 168.686 62.2985C169.092 61.3624 168.538 60.4898 167.763 60.0594C166.989 59.629 165.452 59.8609 164.928 60.3872C164.064 59.5526 162.862 59.582 161.965 60.3872C161.067 61.1923 161.591 62.514 161.965 63.0741Z" fill="#171B4D"/>
<path d="M161.426 66.921C160.783 65.8499 161.764 65.6252 162.335 65.6468C162.335 65.6468 162.137 62.1565 165.867 62.1565C169.598 62.1565 169.376 65.6468 169.376 65.6468C170.484 65.6468 170.161 66.6024 170.032 66.921C169.928 67.1758 169.478 67.4735 169.265 67.5904C168.596 68.583 165.941 68.3429 165.507 68.3245C165.073 68.306 162.229 68.2598 161.426 66.921Z" fill="#FCA190"/>
<path d="M165.662 71.3356C162.084 71.3356 162.157 67.6099 162.157 67.6099C162.43 67.75 163.167 67.6808 164.369 67.2729C165.311 66.9533 165.833 66.9359 166.723 67.2729C167.614 67.6099 168.898 67.7751 169.24 67.6099C169.24 67.6099 169.24 71.3356 165.662 71.3356Z" fill="#171B4D"/>
<path d="M166.793 67.8645C166.864 68.0749 166.431 68.8068 165.721 68.8142C164.879 68.8297 164.306 68.1403 164.513 67.8693C164.618 67.7344 165.173 67.8788 165.664 67.8702C166.247 67.8496 166.75 67.7115 166.793 67.8645Z" fill="white"/>
<path d="M164.099 66.4211C164.345 66.4008 164.525 66.1475 164.501 65.855C164.476 65.5625 164.257 65.3417 164.011 65.3617C163.765 65.3818 163.585 65.6351 163.609 65.9276C163.634 66.2202 163.853 66.4411 164.099 66.4211Z" fill="#171B4D"/>
<path d="M164.707 64.2736C165.194 64.649 163.58 64.9412 163.314 64.6274C163.161 64.4304 163.469 64.2068 163.912 64.1634C164.222 64.0966 164.575 64.1401 164.707 64.2736Z" fill="#171B4D"/>
<path d="M166.681 64.3199C166.193 64.6954 167.807 64.9873 168.072 64.6736C168.228 64.4768 167.919 64.2515 167.482 64.1864C167.145 64.1413 166.821 64.1864 166.681 64.3199Z" fill="#171B4D"/>
<path d="M167.395 66.4211C167.641 66.401 167.821 66.1477 167.797 65.8552C167.772 65.5626 167.553 65.3417 167.307 65.3617C167.061 65.3818 166.881 65.6351 166.906 65.9276C166.93 66.2202 167.149 66.4411 167.395 66.4211Z" fill="#171B4D"/>
<path d="M165.73 67.0225C165.441 66.979 165.26 66.9337 165.195 66.7997C165.129 66.6657 165.195 66.5569 165.26 66.4228C165.343 66.2957 165.396 66.1522 165.417 66.0023C165.417 65.9134 165.484 65.8683 165.574 65.8683C165.663 65.8683 165.708 65.9353 165.708 66.024C165.69 66.213 165.629 66.3954 165.528 66.5569C165.504 66.5894 165.489 66.6273 165.484 66.6673C165.575 66.7095 165.674 66.7323 165.774 66.7343C165.808 66.7389 165.839 66.7568 165.86 66.7842C165.881 66.8114 165.891 66.8459 165.887 66.88C165.888 66.8835 165.888 66.8868 165.887 66.8901C165.841 66.979 165.798 67.0225 165.73 67.0225Z" fill="#F07875"/>
</g>
<path d="M251.64 66.7156C252.462 66.397 252.98 65.6671 252.98 64.7115C252.98 63.225 251.746 62.1633 249.941 62.1633H246.291V71.52H250.206C252.024 71.52 253.259 70.4583 253.259 68.9054C253.259 67.8171 252.648 67.0075 251.64 66.7156ZM249.941 63.5568C250.79 63.5568 251.374 64.0744 251.374 64.8442C251.374 65.6007 250.79 66.1183 249.941 66.1183H247.884V63.5568H249.941ZM247.884 70.1265V67.5119H250.206C251.042 67.5119 251.626 68.0428 251.626 68.8125C251.626 69.5956 251.042 70.1265 250.206 70.1265H247.884ZM256.876 71.52L259.451 66.397H259.663V71.52H261.123V64.6186H258.96L256.385 69.7416H256.172V64.6186H254.712V71.52H256.876ZM263.648 73.5772V71.52H268.612V73.5772H270.138V70.1265H268.944V64.6186H263.887L263.542 68.1489C263.423 69.3965 263.051 70.1265 262.295 70.1265H262.122V73.5772H263.648ZM264.445 70.1265C264.816 69.7681 264.975 69.1576 265.082 68.1224L265.294 66.0121H267.418V70.1265H264.445ZM277.838 67.9897C277.838 65.9989 276.351 64.4859 274.254 64.4859C272.157 64.4859 270.671 65.9856 270.671 68.0693C270.671 70.153 272.157 71.6527 274.254 71.6527C275.688 71.6527 277.042 70.9759 277.559 69.6619L276.126 69.423C275.794 69.9141 275.157 70.2592 274.347 70.2592C273.179 70.2592 272.41 69.5425 272.264 68.4807H277.811C277.825 68.3347 277.838 68.1755 277.838 67.9897ZM274.254 65.8131C275.21 65.8131 275.927 66.4236 276.179 67.2863H272.357C272.609 66.397 273.325 65.8131 274.254 65.8131ZM282.319 71.6527C284.482 71.6527 286.008 70.1663 286.008 68.0693C286.008 65.9723 284.482 64.4859 282.319 64.4859C280.155 64.4859 278.629 65.9723 278.629 68.0693C278.629 70.1663 280.155 71.6527 282.319 71.6527ZM282.319 70.2592C281.071 70.2592 280.222 69.37 280.222 68.0693C280.222 66.7686 281.071 65.8794 282.319 65.8794C283.566 65.8794 284.416 66.7686 284.416 68.0693C284.416 69.37 283.566 70.2592 282.319 70.2592Z" fill="black"/>
</g>
<g clip-path="url(#clip7_30_16435)">
<rect width="237" height="474" transform="translate(148 83.672)" fill="white"/>
<rect x="148" y="87.464" width="237" height="53.088" rx="6.32" fill="white"/>
<g clip-path="url(#clip8_30_16435)">
<g clip-path="url(#clip9_30_16435)">
<rect x="155.584" y="91.256" width="45.504" height="45.504" rx="22.752" fill="#0077FF"/>
<path fill-rule="evenodd" clip-rule="evenodd" d="M201.72 114.956C201.72 125.232 201.72 130.37 198.49 133.575C195.242 136.76 190.032 136.76 179.613 136.76H177.691C167.272 136.76 162.062 136.76 158.814 133.575C155.584 130.37 155.584 125.232 155.584 114.956V113.06C155.584 102.784 155.584 97.6455 158.814 94.4413C162.062 91.256 167.272 91.256 177.691 91.256H179.613C190.032 91.256 195.242 91.256 198.49 94.4413C201.72 97.6455 201.72 102.784 201.72 113.06V114.956Z" fill="#0077FF"/>
<path d="M190.296 94.4413C187.413 91.5783 182.945 91.2939 174.544 91.256H155.584V113.06V114.956V136.76H174.544C182.926 136.722 187.413 136.419 190.296 133.575C193.504 130.37 193.504 125.232 193.504 114.956V113.06C193.504 102.784 193.504 97.6455 190.296 94.4413Z" fill="#FF2B42"/>
<path fill-rule="evenodd" clip-rule="evenodd" d="M171.11 106.885C170.974 106.827 170.827 106.801 170.68 106.81C170.533 106.818 170.39 106.86 170.262 106.933C170.133 107.006 170.022 107.107 169.938 107.23C169.854 107.352 169.798 107.493 169.774 107.64C169.384 109.723 169.192 111.838 169.202 113.958C169.202 116.168 169.393 118.319 169.813 120.392C169.833 120.542 169.887 120.684 169.971 120.809C170.054 120.934 170.164 121.038 170.293 121.113C170.422 121.187 170.566 121.231 170.714 121.241C170.863 121.25 171.011 121.225 171.148 121.168C174.972 119.739 178.485 117.567 181.49 114.772C181.593 114.676 181.675 114.559 181.731 114.429C181.787 114.299 181.816 114.158 181.816 114.016C181.816 113.874 181.787 113.734 181.731 113.604C181.675 113.474 181.593 113.357 181.49 113.261C178.473 110.462 174.947 108.289 171.11 106.865V106.885ZM165.119 106.71C165.276 105.885 165.608 105.104 166.09 104.421C166.573 103.739 167.196 103.17 167.916 102.756C168.636 102.341 169.436 102.09 170.261 102.02C171.086 101.95 171.916 102.062 172.694 102.35C177.115 103.982 181.179 106.477 184.657 109.695C185.253 110.24 185.73 110.906 186.057 111.651C186.383 112.395 186.552 113.201 186.552 114.016C186.552 114.831 186.383 115.637 186.057 116.382C185.73 117.126 185.253 117.793 184.657 118.338C181.189 121.544 177.138 124.033 172.732 125.664C171.957 125.951 171.129 126.065 170.307 125.997C169.484 125.929 168.686 125.682 167.967 125.271C167.247 124.861 166.624 124.297 166.139 123.619C165.654 122.941 165.319 122.164 165.157 121.342C164.677 118.911 164.434 116.438 164.432 113.958C164.432 111.478 164.68 109.055 165.119 106.71Z" fill="white"/>
</g>
</g>
<path d="M211.639 103.98H212.518L215.145 96.8552H214.212L212.118 102.83H212.039L209.946 96.8552H209.013L211.639 103.98ZM216.293 103.98H217.182V101.491L218.036 100.548L220.609 103.98H221.759L218.648 99.9312L221.497 96.8552H220.381L217.261 100.316H217.182V96.8552H216.293V103.98ZM225.65 103.98H228.43C229.946 103.98 230.844 103.234 230.844 101.985V101.975C230.844 101.037 230.227 100.371 229.254 100.247V100.168C229.941 100.045 230.484 99.3733 230.484 98.6376V98.6277C230.484 97.5415 229.684 96.8552 228.375 96.8552H225.65V103.98ZM228.188 97.6402C229.072 97.6402 229.585 98.0599 229.585 98.7808V98.7907C229.585 99.5412 229.037 99.9263 227.961 99.9263H226.539V97.6402H228.188ZM228.212 100.692C229.348 100.692 229.931 101.111 229.931 101.931V101.941C229.931 102.76 229.368 103.195 228.296 103.195H226.539V100.692H228.212ZM232.18 103.98H233.039L235.671 100.01H235.75V103.98H236.609V98.6574H235.75L233.118 102.627H233.039V98.6574H232.18V103.98ZM238.325 105.387V103.98H242.487V105.387H243.287V103.269H242.438V98.6574H238.809L238.601 101.625C238.552 102.341 238.359 103.012 237.969 103.269H237.525V105.387H238.325ZM241.578 103.269H238.962V103.19C239.213 102.859 239.352 102.291 239.401 101.645L239.569 99.3684H241.578V103.269ZM246.479 104.074C247.733 104.074 248.494 103.363 248.676 102.642L248.686 102.602H247.827L247.807 102.647C247.664 102.968 247.22 103.308 246.499 103.308C245.551 103.308 244.943 102.667 244.919 101.566H248.75V101.23C248.75 99.6399 247.871 98.5635 246.425 98.5635C244.978 98.5635 244.04 99.6893 244.04 101.333V101.338C244.04 103.007 244.958 104.074 246.479 104.074ZM246.42 99.3289C247.205 99.3289 247.787 99.8275 247.876 100.879H244.934C245.027 99.867 245.63 99.3289 246.42 99.3289ZM252.268 104.074C253.784 104.074 254.722 103.027 254.722 101.324V101.314C254.722 99.6054 253.784 98.5635 252.268 98.5635C250.753 98.5635 249.814 99.6054 249.814 101.314V101.324C249.814 103.027 250.753 104.074 252.268 104.074ZM252.268 103.313C251.261 103.313 250.693 102.578 250.693 101.324V101.314C250.693 100.055 251.261 99.3239 252.268 99.3239C253.276 99.3239 253.843 100.055 253.843 101.314V101.324C253.843 102.578 253.276 103.313 252.268 103.313Z" fill="black"/>
<path d="M261.044 101.482L260.069 100.507C259.822 100.26 259.422 100.26 259.175 100.507C258.928 100.754 258.928 101.154 259.175 101.401L260.597 102.823C260.844 103.07 261.244 103.07 261.491 102.823L264.809 99.5049C265.056 99.2581 265.056 98.8579 264.809 98.6111C264.562 98.3643 264.162 98.3643 263.915 98.6111L261.044 101.482Z" fill="#5C9CE6"/>
<path d="M210.955 116.876H211.677V111.737H213.542V111.087H209.089V111.737H210.955V116.876ZM215.235 116.952C215.817 116.952 216.27 116.699 216.543 116.238H216.607V116.876H217.305V113.915C217.305 113.017 216.715 112.475 215.66 112.475C214.738 112.475 214.08 112.932 213.967 113.61L213.963 113.635H214.661L214.666 113.622C214.778 113.285 215.119 113.093 215.636 113.093C216.282 113.093 216.607 113.382 216.607 113.915V114.308L215.368 114.385C214.361 114.445 213.791 114.89 213.791 115.66V115.668C213.791 116.455 214.413 116.952 215.235 116.952ZM214.505 115.652V115.644C214.505 115.215 214.794 114.982 215.452 114.942L216.607 114.87V115.263C216.607 115.881 216.09 116.346 215.38 116.346C214.878 116.346 214.505 116.09 214.505 115.652ZM219.576 114.906L221.269 116.876H222.163L220.142 114.589L222.087 112.551H221.249L219.576 114.361H219.355V112.551H218.657V116.876H219.355V114.906H219.576ZM224.707 116.952C225.938 116.952 226.701 116.102 226.701 114.718V114.71C226.701 113.322 225.938 112.475 224.707 112.475C223.475 112.475 222.713 113.322 222.713 114.71V114.718C222.713 116.102 223.475 116.952 224.707 116.952ZM224.707 116.334C223.888 116.334 223.427 115.737 223.427 114.718V114.71C223.427 113.687 223.888 113.093 224.707 113.093C225.525 113.093 225.987 113.687 225.987 114.71V114.718C225.987 115.737 225.525 116.334 224.707 116.334ZM230.628 113.129V112.551H227.86V116.876H228.558V113.129H230.628ZM233.34 116.952C234.572 116.952 235.334 116.102 235.334 114.718V114.71C235.334 113.322 234.572 112.475 233.34 112.475C232.108 112.475 231.346 113.322 231.346 114.71V114.718C231.346 116.102 232.108 116.952 233.34 116.952ZM233.34 116.334C232.522 116.334 232.06 115.737 232.06 114.718V114.71C232.06 113.687 232.522 113.093 233.34 113.093C234.158 113.093 234.62 113.687 234.62 114.71V114.718C234.62 115.737 234.158 116.334 233.34 116.334ZM238.804 116.876H240.645C241.576 116.876 242.126 116.387 242.126 115.636V115.628C242.126 115.127 241.777 114.742 241.227 114.666V114.601C241.632 114.517 241.933 114.112 241.933 113.683V113.675C241.933 112.997 241.456 112.551 240.637 112.551H238.804V116.876ZM239.502 114.381V113.129H240.537C241.022 113.129 241.239 113.378 241.239 113.747V113.755C241.239 114.164 240.986 114.381 240.425 114.381H239.502ZM239.502 116.298V114.958H240.485C241.107 114.958 241.416 115.159 241.416 115.616V115.624C241.416 116.058 241.147 116.298 240.617 116.298H239.502ZM243.305 116.876H244.85C245.841 116.876 246.474 116.306 246.474 115.412V115.404C246.474 114.509 245.841 113.939 244.85 113.939H244.003V112.551H243.305V116.876ZM247.229 116.876H247.927V112.551H247.229V116.876ZM244.85 114.517C245.415 114.517 245.776 114.866 245.776 115.404V115.412C245.776 115.945 245.419 116.298 244.85 116.298H244.003V114.517H244.85ZM253.379 116.952C254.398 116.952 255.015 116.375 255.164 115.789L255.172 115.757H254.474L254.458 115.793C254.341 116.054 253.98 116.33 253.395 116.33C252.624 116.33 252.131 115.809 252.111 114.914H255.224V114.641C255.224 113.35 254.51 112.475 253.334 112.475C252.159 112.475 251.397 113.39 251.397 114.726V114.73C251.397 116.086 252.143 116.952 253.379 116.952ZM253.33 113.097C253.968 113.097 254.442 113.502 254.514 114.357H252.123C252.199 113.534 252.689 113.097 253.33 113.097ZM256.383 116.876H261.759V118.019H262.425V116.298H261.727V112.551H261.029V116.298H259.404V112.551H258.706V116.298H257.081V112.551H256.383V116.876ZM264.182 111.685C264.423 111.685 264.623 111.484 264.623 111.24C264.623 110.999 264.423 110.798 264.182 110.798C263.937 110.798 263.737 110.999 263.737 111.24C263.737 111.484 263.937 111.685 264.182 111.685ZM265.951 111.685C266.196 111.685 266.397 111.484 266.397 111.24C266.397 110.999 266.196 110.798 265.951 110.798C265.711 110.798 265.51 110.999 265.51 111.24C265.51 111.484 265.711 111.685 265.951 111.685ZM265.101 116.952C266.12 116.952 266.738 116.375 266.886 115.789L266.894 115.757H266.196L266.18 115.793C266.064 116.054 265.703 116.33 265.117 116.33C264.347 116.33 263.853 115.809 263.833 114.914H266.946V114.641C266.946 113.35 266.232 112.475 265.057 112.475C263.881 112.475 263.119 113.39 263.119 114.726V114.73C263.119 116.086 263.865 116.952 265.101 116.952ZM265.053 113.097C265.691 113.097 266.164 113.502 266.236 114.357H263.845C263.921 113.534 264.411 113.097 265.053 113.097ZM273.257 116.876H273.955V112.551H273.257V114.341H271.114V112.551H270.416V116.876H271.114V114.918H273.257V116.876ZM277.096 116.952C278.115 116.952 278.733 116.375 278.881 115.789L278.889 115.757H278.191L278.175 115.793C278.059 116.054 277.698 116.33 277.112 116.33C276.342 116.33 275.848 115.809 275.828 114.914H278.941V114.641C278.941 113.35 278.227 112.475 277.052 112.475C275.876 112.475 275.114 113.39 275.114 114.726V114.73C275.114 116.086 275.86 116.952 277.096 116.952ZM277.048 113.097C277.686 113.097 278.159 113.502 278.231 114.357H275.84C275.916 113.534 276.406 113.097 277.048 113.097ZM282.411 116.876H284.253C285.183 116.876 285.733 116.387 285.733 115.636V115.628C285.733 115.127 285.384 114.742 284.834 114.666V114.601C285.24 114.517 285.541 114.112 285.541 113.683V113.675C285.541 112.997 285.063 112.551 284.245 112.551H282.411V116.876ZM283.109 114.381V113.129H284.144C284.63 113.129 284.847 113.378 284.847 113.747V113.755C284.847 114.164 284.594 114.381 284.032 114.381H283.109ZM283.109 116.298V114.958H284.092C284.714 114.958 285.023 115.159 285.023 115.616V115.624C285.023 116.058 284.754 116.298 284.225 116.298H283.109ZM286.913 116.876H287.611L289.749 113.651H289.813V116.876H290.511V112.551H289.813L287.675 115.777H287.611V112.551H286.913V116.876ZM291.987 118.019V116.876H295.369V118.019H296.019V116.298H295.329V112.551H292.381L292.212 114.962C292.172 115.544 292.015 116.09 291.699 116.298H291.337V118.019H291.987ZM294.631 116.298H292.505V116.234C292.709 115.965 292.822 115.504 292.862 114.978L292.998 113.129H294.631V116.298ZM298.695 116.952C299.714 116.952 300.332 116.375 300.48 115.789L300.488 115.757H299.79L299.774 115.793C299.658 116.054 299.297 116.33 298.711 116.33C297.941 116.33 297.447 115.809 297.427 114.914H300.54V114.641C300.54 113.35 299.826 112.475 298.651 112.475C297.475 112.475 296.713 113.39 296.713 114.726V114.73C296.713 116.086 297.459 116.952 298.695 116.952ZM298.647 113.097C299.285 113.097 299.758 113.502 299.83 114.357H297.439C297.516 113.534 298.005 113.097 298.647 113.097ZM302.594 115.183L302.755 113.129H304.259V116.876H304.957V112.551H302.129L301.944 115.127C301.9 115.769 301.74 116.27 301.343 116.27C301.238 116.27 301.13 116.254 301.094 116.242V116.872C301.15 116.892 301.262 116.916 301.411 116.916C302.133 116.916 302.502 116.375 302.594 115.183ZM306.329 116.876H307.027L309.166 113.651H309.23V116.876H309.928V112.551H309.23L307.091 115.777H307.027V112.551H306.329V116.876Z" fill="#818C99"/>
<path d="M210.734 130.404H211.456V124.615H210.738L209.198 125.722V126.484L210.67 125.417H210.734V130.404ZM215.067 130.54C216.346 130.54 217.117 129.373 217.117 127.511V127.503C217.117 125.642 216.346 124.479 215.067 124.479C213.787 124.479 213.025 125.642 213.025 127.503V127.511C213.025 129.373 213.787 130.54 215.067 130.54ZM215.067 129.91C214.236 129.91 213.751 128.988 213.751 127.511V127.503C213.751 126.027 214.236 125.112 215.067 125.112C215.897 125.112 216.391 126.027 216.391 127.503V127.511C216.391 128.988 215.897 129.91 215.067 129.91ZM222.593 130.5C223.82 130.5 224.695 129.81 224.695 128.839V128.831C224.695 128.117 224.193 127.524 223.451 127.351V127.335C224.085 127.138 224.486 126.657 224.486 126.047V126.039C224.486 125.165 223.688 124.519 222.593 124.519C221.497 124.519 220.699 125.165 220.699 126.039V126.047C220.699 126.657 221.1 127.138 221.734 127.335V127.351C220.992 127.524 220.491 128.117 220.491 128.831V128.839C220.491 129.81 221.365 130.5 222.593 130.5ZM222.593 127.066C221.895 127.066 221.417 126.669 221.417 126.107V126.099C221.417 125.538 221.895 125.141 222.593 125.141C223.291 125.141 223.768 125.538 223.768 126.099V126.107C223.768 126.669 223.291 127.066 222.593 127.066ZM222.593 129.87C221.794 129.87 221.225 129.421 221.225 128.795V128.787C221.225 128.153 221.79 127.7 222.593 127.7C223.395 127.7 223.961 128.153 223.961 128.787V128.795C223.961 129.421 223.391 129.87 222.593 129.87ZM227.84 130.5C229.068 130.5 229.942 129.81 229.942 128.839V128.831C229.942 128.117 229.441 127.524 228.698 127.351V127.335C229.332 127.138 229.734 126.657 229.734 126.047V126.039C229.734 125.165 228.935 124.519 227.84 124.519C226.745 124.519 225.946 125.165 225.946 126.039V126.047C225.946 126.657 226.348 127.138 226.981 127.335V127.351C226.239 127.524 225.738 128.117 225.738 128.831V128.839C225.738 129.81 226.612 130.5 227.84 130.5ZM227.84 127.066C227.142 127.066 226.665 126.669 226.665 126.107V126.099C226.665 125.538 227.142 125.141 227.84 125.141C228.538 125.141 229.015 125.538 229.015 126.099V126.107C229.015 126.669 228.538 127.066 227.84 127.066ZM227.84 129.87C227.042 129.87 226.472 129.421 226.472 128.795V128.787C226.472 128.153 227.038 127.7 227.84 127.7C228.642 127.7 229.208 128.153 229.208 128.787V128.795C229.208 129.421 228.638 129.87 227.84 129.87ZM233.079 130.5C234.239 130.5 235.089 129.786 235.089 128.819V128.811C235.089 127.989 234.515 127.463 233.673 127.391V127.375C234.395 127.223 234.901 126.733 234.901 126.019V126.011C234.901 125.133 234.174 124.519 233.071 124.519C231.988 124.519 231.242 125.149 231.15 126.091L231.146 126.131H231.84L231.844 126.091C231.904 125.506 232.389 125.145 233.071 125.145C233.777 125.145 234.174 125.494 234.174 126.099V126.107C234.174 126.685 233.693 127.11 233.003 127.11H232.309V127.72H233.035C233.846 127.72 234.355 128.117 234.355 128.827V128.835C234.355 129.449 233.838 129.874 233.079 129.874C232.309 129.874 231.784 129.481 231.727 128.912L231.723 128.871H231.029L231.033 128.92C231.11 129.834 231.884 130.5 233.079 130.5ZM238.611 130.404H239.309V126.657H241.412V130.404H242.11V126.079H238.611V130.404ZM245.263 130.48C246.494 130.48 247.257 129.63 247.257 128.246V128.238C247.257 126.85 246.494 126.003 245.263 126.003C244.031 126.003 243.269 126.85 243.269 128.238V128.246C243.269 129.63 244.031 130.48 245.263 130.48ZM245.263 129.862C244.444 129.862 243.983 129.265 243.983 128.246V128.238C243.983 127.215 244.444 126.621 245.263 126.621C246.081 126.621 246.543 127.215 246.543 128.238V128.246C246.543 129.265 246.081 129.862 245.263 129.862ZM248.476 131.547V130.404H251.858V131.547H252.508V129.826H251.818V126.079H248.869L248.701 128.49C248.661 129.072 248.504 129.618 248.187 129.826H247.826V131.547H248.476ZM251.12 129.826H248.994V129.762C249.198 129.493 249.311 129.032 249.351 128.506L249.487 126.657H251.12V129.826ZM253.415 130.404H254.113V126.657H256.215V130.404H256.913V126.079H253.415V130.404ZM258.285 130.404H258.983L261.121 127.179H261.185V130.404H261.883V126.079H261.185L259.047 129.305H258.983V126.079H258.285V130.404ZM265.033 130.48C266.072 130.48 266.653 129.923 266.83 129.14L266.838 129.096L266.148 129.1L266.14 129.124C265.979 129.606 265.61 129.862 265.029 129.862C264.258 129.862 263.761 129.224 263.761 128.23V128.222C263.761 127.247 264.25 126.621 265.029 126.621C265.65 126.621 266.036 126.966 266.144 127.391L266.148 127.403H266.842L266.838 127.379C266.71 126.609 266.08 126.003 265.029 126.003C263.817 126.003 263.047 126.878 263.047 128.222V128.23C263.047 129.602 263.821 130.48 265.033 130.48ZM271.114 130.404V126.079H270.416V127.905C270.236 128.105 269.863 128.246 269.321 128.246C268.731 128.246 268.435 127.885 268.435 127.315V126.079H267.737V127.315C267.737 128.238 268.278 128.863 269.321 128.863C269.787 128.863 270.119 128.767 270.352 128.603H270.416V130.404H271.114ZM272.486 130.404H273.184L275.323 127.179H275.387V130.404H276.085V126.079H275.387L273.249 129.305H273.184V126.079H272.486V130.404ZM278.38 128.434L280.073 130.404H280.967L278.945 128.117L280.891 126.079H280.053L278.38 127.889H278.159V126.079H277.461V130.404H278.159V128.434H278.38ZM283.001 130.48C283.583 130.48 284.036 130.227 284.309 129.766H284.373V130.404H285.071V127.443C285.071 126.545 284.481 126.003 283.426 126.003C282.504 126.003 281.846 126.46 281.733 127.138L281.729 127.162H282.427L282.431 127.15C282.544 126.813 282.885 126.621 283.402 126.621C284.048 126.621 284.373 126.91 284.373 127.443V127.836L283.134 127.913C282.127 127.973 281.557 128.418 281.557 129.188V129.196C281.557 129.983 282.179 130.48 283.001 130.48ZM282.271 129.18V129.172C282.271 128.743 282.56 128.51 283.218 128.47L284.373 128.398V128.791C284.373 129.409 283.856 129.874 283.146 129.874C282.644 129.874 282.271 129.618 282.271 129.18Z" fill="#818C99"/>
<path d="M370.112 106.888C371.35 106.901 371.98 107.034 372.633 107.384C373.258 107.718 373.752 108.212 374.086 108.837C374.436 109.49 374.569 110.12 374.582 111.358V116.32C374.569 117.557 374.436 118.187 374.086 118.84C373.752 119.465 373.258 119.96 372.633 120.294C371.98 120.643 371.35 120.777 370.112 120.79H365.15C363.912 120.777 363.283 120.643 362.63 120.294C362.005 119.96 361.51 119.465 361.176 118.84C360.827 118.187 360.693 117.557 360.68 116.32V111.358C360.693 110.12 360.827 109.49 361.176 108.837C361.51 108.212 362.005 107.718 362.63 107.384C363.283 107.034 363.912 106.901 365.15 106.888H370.112ZM369.9 108.151H365.362L365.01 108.154C364.075 108.172 363.656 108.268 363.226 108.498C362.821 108.715 362.507 109.029 362.29 109.433C362.06 109.864 361.964 110.283 361.946 111.218L361.943 111.57V116.108L361.946 116.46C361.964 117.395 362.06 117.814 362.29 118.244C362.507 118.649 362.821 118.963 363.226 119.179C363.656 119.41 364.075 119.506 365.01 119.524L365.362 119.527H369.9L370.252 119.524C371.187 119.506 371.606 119.41 372.036 119.179C372.441 118.963 372.755 118.649 372.972 118.244C373.202 117.814 373.298 117.395 373.316 116.46L373.319 116.108V111.57L373.316 111.218C373.298 110.283 373.202 109.864 372.972 109.433C372.755 109.029 372.441 108.715 372.036 108.498C371.606 108.268 371.187 108.172 370.252 108.154L369.9 108.151ZM367.632 110.68C367.981 110.68 368.264 110.963 368.264 111.312V113.208H370.16C370.509 113.208 370.792 113.491 370.792 113.84C370.792 114.189 370.509 114.472 370.16 114.472H368.264V116.368C368.264 116.717 367.981 117 367.632 117C367.283 117 367 116.717 367 116.368V114.472H365.104C364.755 114.472 364.472 114.189 364.472 113.84C364.472 113.491 364.755 113.208 365.104 113.208H367V111.312C367 110.963 367.283 110.68 367.632 110.68Z" fill="#3F8AE0"/>
<rect x="155.584" y="148.136" width="221.832" height="0.20856" fill="#D7D8D9"/>
<path d="M322.497 166.804V160.124H317.257V166.804H318.091V160.874H321.664V166.804H322.497ZM326.176 166.892C327.597 166.892 328.476 165.911 328.476 164.314V164.304C328.476 162.703 327.597 161.726 326.176 161.726C324.755 161.726 323.875 162.703 323.875 164.304V164.314C323.875 165.911 324.755 166.892 326.176 166.892ZM326.176 166.179C325.231 166.179 324.699 165.489 324.699 164.314V164.304C324.699 163.124 325.231 162.439 326.176 162.439C327.12 162.439 327.652 163.124 327.652 164.304V164.314C327.652 165.489 327.12 166.179 326.176 166.179ZM330.808 164.531L332.761 166.804H333.793L331.46 164.165L333.705 161.814H332.738L330.808 163.902H330.553V161.814H329.748V166.804H330.553V164.531H330.808ZM336.074 166.892C336.745 166.892 337.268 166.6 337.583 166.068H337.657V166.804H338.462V163.388C338.462 162.351 337.782 161.726 336.564 161.726C335.5 161.726 334.741 162.254 334.611 163.036L334.606 163.064H335.412L335.417 163.05C335.546 162.661 335.94 162.439 336.537 162.439C337.282 162.439 337.657 162.772 337.657 163.388V163.841L336.227 163.929C335.065 163.999 334.407 164.513 334.407 165.401V165.411C334.407 166.318 335.125 166.892 336.074 166.892ZM335.231 165.392V165.383C335.231 164.888 335.565 164.619 336.324 164.573L337.657 164.49V164.943C337.657 165.656 337.06 166.193 336.24 166.193C335.662 166.193 335.231 165.897 335.231 165.392ZM341.655 166.897C342.817 166.897 343.617 166.262 343.617 165.337V165.327C343.617 164.772 343.27 164.374 342.613 164.23V164.156C343.108 164.04 343.437 163.582 343.437 163.078V163.068C343.437 162.272 342.798 161.721 341.682 161.721C340.664 161.721 339.933 162.231 339.817 163.031L339.812 163.064H340.599L340.604 163.041C340.683 162.643 341.113 162.388 341.682 162.388C342.321 162.388 342.65 162.703 342.65 163.129V163.138C342.65 163.656 342.294 163.911 341.655 163.911H340.877V164.577H341.655C342.418 164.577 342.826 164.827 342.826 165.369V165.378C342.826 165.874 342.391 166.23 341.655 166.23C341.048 166.23 340.604 165.971 340.502 165.563L340.493 165.526H339.674L339.678 165.563C339.78 166.369 340.59 166.897 341.655 166.897ZM346.264 166.892C346.935 166.892 347.458 166.6 347.773 166.068H347.847V166.804H348.652V163.388C348.652 162.351 347.972 161.726 346.754 161.726C345.69 161.726 344.93 162.254 344.801 163.036L344.796 163.064H345.602L345.606 163.05C345.736 162.661 346.129 162.439 346.726 162.439C347.472 162.439 347.847 162.772 347.847 163.388V163.841L346.416 163.929C345.254 163.999 344.597 164.513 344.597 165.401V165.411C344.597 166.318 345.315 166.892 346.264 166.892ZM345.421 165.392V165.383C345.421 164.888 345.754 164.619 346.514 164.573L347.847 164.49V164.943C347.847 165.656 347.25 166.193 346.43 166.193C345.852 166.193 345.421 165.897 345.421 165.392ZM353.761 161.814H349.724V162.481H351.34V166.804H352.145V162.481H353.761V161.814ZM354.856 166.804H356.638C357.782 166.804 358.513 166.147 358.513 165.114V165.105C358.513 164.073 357.782 163.416 356.638 163.416H355.662V161.814H354.856V166.804ZM356.638 164.082C357.291 164.082 357.708 164.485 357.708 165.105V165.114C357.708 165.73 357.296 166.137 356.638 166.137H355.662V164.082H356.638ZM362.287 166.804H364.412C365.486 166.804 366.12 166.239 366.12 165.374V165.364C366.12 164.786 365.717 164.341 365.083 164.253V164.179C365.551 164.082 365.898 163.615 365.898 163.119V163.11C365.898 162.328 365.347 161.814 364.403 161.814H362.287V166.804ZM363.093 163.925V162.481H364.287C364.847 162.481 365.097 162.768 365.097 163.193V163.203C365.097 163.675 364.805 163.925 364.157 163.925H363.093ZM363.093 166.137V164.591H364.227C364.944 164.591 365.301 164.823 365.301 165.35V165.36C365.301 165.86 364.991 166.137 364.379 166.137H363.093ZM369.414 166.892C370.613 166.892 371.284 166.248 371.488 165.346L371.497 165.295L370.701 165.3L370.692 165.327C370.507 165.883 370.081 166.179 369.41 166.179C368.521 166.179 367.947 165.443 367.947 164.295V164.286C367.947 163.161 368.512 162.439 369.41 162.439C370.127 162.439 370.571 162.837 370.696 163.328L370.701 163.342H371.502L371.497 163.314C371.349 162.425 370.622 161.726 369.41 161.726C368.012 161.726 367.123 162.735 367.123 164.286V164.295C367.123 165.878 368.016 166.892 369.414 166.892ZM374.741 166.892C375.916 166.892 376.629 166.225 376.8 165.55L376.81 165.512H376.004L375.986 165.554C375.851 165.855 375.435 166.174 374.759 166.174C373.87 166.174 373.301 165.573 373.278 164.54H376.87V164.226C376.87 162.735 376.046 161.726 374.69 161.726C373.333 161.726 372.454 162.781 372.454 164.323V164.327C372.454 165.892 373.315 166.892 374.741 166.892ZM374.685 162.444C375.421 162.444 375.967 162.911 376.05 163.897H373.292C373.38 162.948 373.944 162.444 374.685 162.444Z" fill="#3F8AE0"/>
<path d="M163.18 167.256L160.365 159.681H158.592L155.691 167.256H157.034L157.636 165.634H161.225L161.805 167.256H163.18ZM159.355 161.014H159.57L160.806 164.452H158.077L159.355 161.014ZM164.456 165.172C164.413 165.849 164.209 166.106 163.661 166.106C163.565 166.106 163.328 166.106 163.199 166.096L163.317 167.277C163.5 167.299 163.683 167.31 163.812 167.31C164.929 167.31 165.606 166.525 165.681 165.15L165.81 162.797H167.518V167.256H168.754V161.669H164.66L164.456 165.172ZM172.277 167.256C173.609 167.256 174.555 166.429 174.555 165.258C174.555 164.087 173.62 163.259 172.277 163.259H171.246V161.669H170.01V167.256H172.277ZM171.246 164.334H172.277C172.889 164.334 173.319 164.71 173.319 165.258C173.319 165.806 172.889 166.182 172.277 166.182H171.246V164.334ZM178.247 162.239C177.399 162.239 176.808 162.561 176.378 163.205C176.475 162.077 176.829 161.476 178.312 161.347C179.376 161.25 180.289 160.992 180.375 159.617L179.29 159.52C179.214 159.993 179.053 160.154 178.301 160.219C175.884 160.423 175.11 161.927 175.11 163.99C175.11 165.032 175.347 165.816 175.766 166.364C176.281 167.03 177.044 167.363 177.957 167.363C179.59 167.363 180.751 166.289 180.751 164.785C180.751 163.291 179.709 162.239 178.247 162.239ZM177.968 166.257C177.055 166.257 176.432 165.666 176.432 164.796C176.432 163.936 177.055 163.345 177.968 163.345C178.871 163.345 179.494 163.936 179.494 164.796C179.494 165.666 178.871 166.257 177.968 166.257ZM184.293 167.363C186.045 167.363 187.28 166.16 187.28 164.463C187.28 162.765 186.045 161.562 184.293 161.562C182.542 161.562 181.307 162.765 181.307 164.463C181.307 166.16 182.542 167.363 184.293 167.363ZM184.293 166.235C183.283 166.235 182.596 165.515 182.596 164.463C182.596 163.41 183.283 162.69 184.293 162.69C185.303 162.69 185.991 163.41 185.991 164.463C185.991 165.515 185.303 166.235 184.293 166.235ZM189.397 167.256V163.109H189.568L190.965 167.256H192.007L193.469 163.109H193.64V167.256H194.822V161.669H192.942L191.599 165.505H191.427L190.138 161.669H188.215V167.256H189.397ZM198.186 167.256C199.519 167.256 200.464 166.429 200.464 165.258C200.464 164.087 199.529 163.259 198.186 163.259H197.316V161.669H196.081V167.256H198.186ZM202.366 167.256V161.669H201.13V167.256H202.366ZM197.316 164.334H198.186C198.799 164.334 199.229 164.71 199.229 165.258C199.229 165.806 198.799 166.182 198.186 166.182H197.316V164.334Z" fill="black"/>
<path d="M209.923 166.128C211.099 166.128 211.937 165.314 211.937 164.147V164.139C211.937 163.019 211.155 162.205 210.068 162.205C209.542 162.205 209.089 162.418 208.832 162.807H208.768L208.965 160.849H211.616V160.203H208.395L208.09 163.529H208.716C208.788 163.392 208.88 163.28 208.981 163.184C209.229 162.947 209.558 162.831 209.943 162.831C210.694 162.831 211.231 163.38 211.231 164.151V164.159C211.231 164.941 210.702 165.49 209.931 165.49C209.253 165.49 208.752 165.049 208.684 164.496L208.68 164.463H207.986L207.99 164.508C208.074 165.434 208.844 166.128 209.923 166.128Z" fill="#818C99"/>
<g clip-path="url(#clip10_30_16435)">
<rect x="155.584" y="179.736" width="89.744" height="50.56" rx="3.792" fill="#FF3986"/>
<rect x="155.742" y="179.894" width="89.428" height="50.244" rx="3.634" stroke="black" stroke-opacity="0.08" stroke-width="0.316"/>
<g clip-path="url(#clip11_30_16435)">
<path d="M153.41 197.619H173.656C171.703 196.5 167.877 196.02 167.957 196.58C166.362 195.221 164.728 194.022 163.054 192.942C161.859 192.143 160.544 191.424 159.268 191.743C158.71 191.863 158.152 192.223 157.873 192.942C157.594 193.622 158.152 195.101 158.152 195.101C158.152 195.101 156.239 192.103 154.605 190.744C154.087 192.383 153.729 194.102 153.569 195.9C153.489 196.5 153.45 197.059 153.41 197.619Z" fill="white"/>
<path d="M185.676 220.429C180.003 222.063 175.132 222.519 169.513 221.608C165.873 221.019 163.526 218.589 155.605 218C155.632 218.187 155.685 218.348 155.712 218.536C155.712 218.562 155.712 218.562 155.712 218.589C155.739 218.75 155.792 218.937 155.819 219.098C155.819 219.125 155.819 219.152 155.846 219.179C155.899 219.339 155.926 219.5 155.98 219.661C155.98 219.687 156.006 219.714 156.006 219.741C156.06 219.902 156.113 220.062 156.167 220.223C156.167 220.25 156.194 220.277 156.194 220.304C156.247 220.464 156.301 220.625 156.354 220.759C156.354 220.786 156.381 220.786 156.381 220.812C156.435 220.973 156.515 221.134 156.568 221.295C156.916 222.125 157.344 222.929 157.853 223.652C157.853 223.652 157.853 223.679 157.88 223.679C157.96 223.812 158.04 223.92 158.147 224.027C158.174 224.054 158.201 224.08 158.201 224.107C158.281 224.214 158.361 224.321 158.442 224.429C158.468 224.455 158.495 224.509 158.522 224.536C158.602 224.643 158.682 224.723 158.763 224.83C158.789 224.884 158.843 224.911 158.87 224.964C158.95 225.045 159.03 225.152 159.111 225.232C159.164 225.286 159.191 225.312 159.244 225.366C159.325 225.446 159.405 225.527 159.485 225.607C159.539 225.661 159.566 225.687 159.619 225.741C159.699 225.821 159.78 225.902 159.86 225.955C159.913 226.009 159.967 226.036 160.02 226.089C160.101 226.17 160.181 226.223 160.261 226.304C160.315 226.357 160.368 226.384 160.422 226.437C160.502 226.491 160.582 226.571 160.663 226.625C160.716 226.652 160.77 226.705 160.823 226.732C161.011 226.866 161.171 226.973 161.359 227.107C161.412 227.134 161.466 227.161 161.492 227.187C161.573 227.241 161.653 227.268 161.706 227.321C161.787 227.375 161.867 227.402 161.92 227.455C162.001 227.482 162.081 227.536 162.135 227.562C162.215 227.616 162.295 227.643 162.375 227.696C162.456 227.723 162.536 227.777 162.589 227.804C162.67 227.83 162.75 227.884 162.83 227.911C162.911 227.937 162.991 227.964 163.044 227.991C163.125 228.018 163.205 228.071 163.312 228.098C163.392 228.125 163.473 228.152 163.526 228.179C163.606 228.205 163.713 228.232 163.794 228.259C163.874 228.286 163.954 228.312 164.008 228.312C164.088 228.339 164.195 228.366 164.275 228.393C164.356 228.42 164.436 228.42 164.489 228.446C164.597 228.473 164.677 228.5 164.784 228.5C164.864 228.527 164.918 228.527 164.998 228.527C165.105 228.554 165.212 228.554 165.319 228.58C165.399 228.58 165.453 228.607 165.533 228.607C165.64 228.607 165.774 228.634 165.881 228.634C165.935 228.634 165.988 228.634 166.042 228.661C166.229 228.661 166.389 228.687 166.577 228.687H190.806C190.913 228.687 191.02 228.687 191.127 228.687C195.73 228.527 218.368 225.232 220 220.304C213 215.5 193.254 214.561 185.676 220.429Z" fill="#252040"/>
<path d="M155.712 218.536C155.685 218.348 155.632 218.187 155.605 218V226.422C155.605 228.631 157.396 230.422 159.605 230.422H220V220.304C218.368 225.232 195.73 228.527 191.127 228.687H190.806H166.577C166.389 228.687 166.229 228.661 166.042 228.661C165.988 228.634 165.935 228.634 165.881 228.634C165.774 228.634 165.64 228.607 165.533 228.607C165.453 228.607 165.399 228.58 165.319 228.58C165.212 228.554 165.105 228.554 164.998 228.527C164.918 228.527 164.864 228.527 164.784 228.5C164.677 228.5 164.597 228.473 164.489 228.446C164.436 228.42 164.356 228.42 164.275 228.393C164.195 228.366 164.088 228.339 164.008 228.312C163.954 228.312 163.874 228.286 163.794 228.259C163.713 228.232 163.606 228.205 163.526 228.179C163.473 228.152 163.392 228.125 163.312 228.098C163.205 228.071 163.125 228.018 163.044 227.991C162.991 227.964 162.911 227.937 162.83 227.911C162.75 227.884 162.67 227.83 162.589 227.804C162.536 227.777 162.456 227.723 162.375 227.696C162.295 227.643 162.215 227.616 162.135 227.562C162.081 227.536 162.001 227.482 161.92 227.455C161.867 227.402 161.787 227.375 161.706 227.321C161.653 227.268 161.573 227.241 161.492 227.187C161.466 227.161 161.412 227.134 161.359 227.107C161.171 226.973 161.011 226.866 160.823 226.732C160.77 226.705 160.716 226.652 160.663 226.625C160.582 226.571 160.502 226.491 160.422 226.437C160.368 226.384 160.315 226.357 160.261 226.304C160.181 226.223 160.101 226.17 160.02 226.089C159.967 226.036 159.913 226.009 159.86 225.955C159.78 225.902 159.699 225.821 159.619 225.741L159.485 225.607L159.244 225.366L159.111 225.232C159.03 225.152 158.95 225.045 158.87 224.964C158.843 224.911 158.789 224.884 158.763 224.83C158.682 224.723 158.602 224.643 158.522 224.536C158.495 224.509 158.468 224.455 158.442 224.429L158.201 224.107C158.201 224.08 158.174 224.054 158.147 224.027C158.04 223.92 157.96 223.812 157.88 223.679C157.853 223.679 157.853 223.652 157.853 223.652C157.344 222.929 156.916 222.125 156.568 221.295C156.515 221.134 156.435 220.973 156.381 220.812C156.381 220.786 156.354 220.786 156.354 220.759C156.301 220.625 156.247 220.464 156.194 220.304C156.194 220.277 156.167 220.25 156.167 220.223L156.006 219.741C156.006 219.714 155.98 219.687 155.98 219.661C155.926 219.5 155.899 219.339 155.846 219.179C155.819 219.152 155.819 219.125 155.819 219.098C155.792 218.937 155.739 218.75 155.712 218.589V218.536Z" fill="#252040"/>
<path d="M191.055 221.983C193.196 220.108 194.373 220.055 195.47 219.198C197.103 217.912 196.327 216.948 196.059 216.09C196.3 215.18 196.541 212.93 195.524 212.93C194.507 212.93 189.824 216.626 189.824 216.626C189.824 216.626 188.834 223.885 191.055 221.983Z" fill="#FF9F73"/>
<path d="M194.293 211.483C194.801 211.162 195.417 211.323 195.444 211.965C195.497 212.849 194.052 213.305 193.758 212.93C193.597 212.715 193.624 211.992 194.293 211.483Z" fill="#FF9F73"/>
<path d="M176.604 209.42C178.424 211.858 180.565 217.108 182.946 217.751C185.328 218.394 190.52 216.01 191.911 215.072C191.751 215.929 190.359 220.215 191.617 220.912C188.78 224.715 179.146 228.278 177.22 226.215C174.41 223.188 178.531 226.001 177.246 223.403C175.935 220.804 173.179 213.17 173.634 211.697C174.089 210.224 176.604 209.42 176.604 209.42Z" fill="#C14FF2"/>
<path d="M168.094 209.421C161.645 205.296 145.321 202.697 151.128 208.965C151.931 209.849 152.787 210.867 153.43 213.706C157.31 209.608 164.214 214.644 168.121 213.867C170.021 214.028 177.22 212.046 175.079 210.01C171.761 210.947 170.663 210.733 168.094 209.421Z" fill="#252040"/>
<path d="M171.413 207.867C168.416 210.01 164.91 208.323 162.742 222.814C161.645 230.099 168.71 230.742 175.962 229.617C182.92 228.519 187.844 227.742 187.844 227.742L185.73 225.948C185.73 225.948 183.803 224.796 180.993 223.349C176.685 221.099 178.424 216.117 176.096 208.698C175.025 209.394 175.48 209.287 171.413 207.867Z" fill="#C14FF2"/>
<path d="M170.69 223.59C175.507 223.376 179.896 224.394 184.606 225.331C182.144 224.367 178.531 223.912 175.587 221.876C173.259 220.242 172.082 217.162 172.082 217.162C172.082 217.162 171.573 221.179 170.69 223.59Z" fill="#8317C6"/>
<path d="M167.8 200.957L166.73 196.966C166.489 196.108 166.649 195.171 167.185 194.448C168.094 193.216 169.539 192.171 171.172 191.635C172.001 191.367 172.885 191.501 173.634 191.93L176.738 193.858L168.041 201.251" fill="#252040"/>
<path d="M176.343 203.209C180.457 200.398 182.562 196.317 181.045 194.093C179.529 191.87 174.965 192.346 170.851 195.156C166.738 197.967 164.632 202.048 166.149 204.272C167.665 206.496 172.229 206.02 176.343 203.209Z" fill="#252040"/>
<path d="M173.232 198.439C169.406 199.698 168.415 201.894 169.325 203.796C169.941 205.082 173.901 205.858 174.115 205.001" fill="#FFD91F"/>
<path d="M169.994 202.028C167.987 199.001 172.43 194.876 174.437 196.082C176.925 194.662 179.628 196.564 177.996 198.117C179.334 197.662 179.762 200.662 178.022 200.689C177.648 200.555 177.541 200.341 177.006 200.448" fill="#FFD91F"/>
<path d="M171.52 203.234C171.6 204.787 171.707 207.466 171.252 208.323C173.687 209.555 175.935 209.448 176.631 209.234C176.417 208.189 176.337 206.716 176.39 205.323C175.534 205.189 174.57 205.162 173.714 205.055" fill="#FCA190"/>
<path d="M176.39 206.742C174.838 207.305 172.216 205.135 173.179 205.162C174.142 205.189 176.444 205.162 176.444 205.162C176.363 205.51 176.39 206.742 176.39 206.742Z" fill="#F07875"/>
<path d="M178.772 200.769C179.468 203.448 178.638 205.644 176.524 206.126C174.677 206.555 172.644 205.323 171.841 204.01C171.627 203.689 171.306 203.448 170.931 203.34C170.075 203.073 169.62 202.269 170.021 201.787C170.396 201.332 171.038 201.492 171.038 201.492C171.038 201.492 170.637 198.439 173.473 197.528C177.675 196.189 178.772 200.769 178.772 200.769Z" fill="#FCA190"/>
<path d="M177.568 203.046C177.728 202.698 177.487 202.51 177.193 202.51C176.176 202.483 175.32 202.457 175.079 202.644C174.597 203.046 175.561 203.769 176.363 203.796C177.006 203.823 177.407 203.394 177.568 203.046Z" fill="white"/>
<path d="M174.437 201.616C174.698 201.563 174.862 201.286 174.803 200.996C174.745 200.706 174.486 200.513 174.225 200.566C173.964 200.619 173.8 200.896 173.859 201.186C173.917 201.476 174.176 201.669 174.437 201.616Z" fill="#252040"/>
<path d="M177.593 201.053C177.854 201 178.018 200.722 177.96 200.432C177.901 200.142 177.642 199.95 177.381 200.002C177.121 200.055 176.957 200.333 177.015 200.623C177.074 200.913 177.333 201.105 177.593 201.053Z" fill="#252040"/>
<path d="M176.524 201.867C176.551 201.867 176.577 201.867 176.577 201.867C176.818 201.76 176.979 201.653 177.006 201.492C177.032 201.358 176.925 201.251 176.818 201.171C176.711 201.09 176.604 200.956 176.524 200.796C176.497 200.742 176.417 200.689 176.363 200.715C176.31 200.742 176.256 200.823 176.283 200.876C176.363 201.117 176.524 201.251 176.631 201.358C176.658 201.385 176.711 201.439 176.738 201.465C176.711 201.492 176.658 201.546 176.47 201.626C176.417 201.653 176.39 201.733 176.417 201.787C176.417 201.84 176.47 201.867 176.524 201.867Z" fill="#E8683C"/>
<path d="M174.276 199.429C174.57 199.778 173.447 200.206 173.125 200.019C172.938 199.912 173.179 199.537 173.554 199.376C173.821 199.269 174.116 199.296 174.276 199.429Z" fill="#252040"/>
<path d="M176.658 199.001C176.47 199.376 177.594 199.35 177.809 199.082C177.942 198.921 177.621 198.707 177.247 198.707C177.032 198.733 176.765 198.841 176.658 199.001Z" fill="#252040"/>
<path d="M171.868 198.358C171.948 198.171 172.189 198.091 172.376 198.144C172.563 198.198 172.697 198.358 172.777 198.546C172.858 198.733 172.831 198.948 172.804 199.135C172.697 200.019 172.189 200.823 171.439 201.305C171.279 201.412 171.065 201.492 170.877 201.439C170.637 201.358 170.556 201.064 170.53 200.823C170.476 200.019 170.797 199.189 171.413 198.68C171.707 198.439 172.055 198.225 172.215 197.876" fill="#FFD54F"/>
<path d="M170.541 211.271C170.541 211.271 174.742 215.021 178.864 213.226C178.328 212.048 177.633 211.057 177.633 211.057L170.541 211.271Z" fill="#8317C6"/>
<path d="M171.52 207.037C169.994 206.555 169.111 207.787 168.576 209.287C168.041 210.787 173.714 213.171 177.728 211.724C178.076 208.51 176.149 208.001 176.149 208.001C174.651 208.055 172.858 207.814 171.52 207.037Z" fill="#252040"/>
<path d="M178.103 211.67C178.477 208.456 176.417 207.947 176.417 207.947C174.865 208.001 173.42 207.92 171.787 207.117C171.707 207.09 171.6 207.037 171.52 207.01C170.637 207.626 170.235 209.126 170.262 210.679C170.262 210.894 170.316 211.081 170.449 211.269C172.162 212.179 175.266 212.635 178.103 211.67Z" fill="#C14FF2"/>
<path d="M165.472 207.278C157.47 203.045 152.199 200.447 145.027 206.715C146.151 208.028 147.676 210.894 148.184 212.715C153.858 204.063 160.066 211.59 165.632 211.938C170.128 212.126 176.39 210.224 174.089 207.92C169.78 208.724 168.656 208.67 165.472 207.278Z" fill="#C14FF2"/>
<path d="M191.51 228.144C191.242 228.144 190.948 228.09 190.68 227.983C189.824 227.662 188.78 226.724 188.834 224.046C188.861 222.439 189.289 220.457 190.011 218.474C191.51 214.43 194.186 210.76 196.728 211.698C199.27 212.662 198.896 217.162 197.397 221.207C196.059 224.823 193.811 228.144 191.51 228.144ZM195.765 214.349C195.122 214.751 193.704 216.358 192.58 219.412C191.456 222.465 191.456 224.608 191.697 225.332C192.339 224.93 193.758 223.323 194.882 220.269C196.006 217.215 195.979 215.073 195.765 214.349Z" fill="#252040"/>
<path d="M197.21 212.233C197.21 212.233 198.334 211.617 199.03 212.528C199.431 213.063 198.628 215.581 197.986 215.501C197.344 215.421 197.424 214.805 197.638 213.894C197.852 212.983 197.852 212.983 197.852 212.983C197.799 212.555 197.772 212.394 197.21 212.233Z" fill="#FF9F73"/>
<path d="M198.387 213.599C198.387 213.599 199.511 213.305 199.832 214.242C200.02 214.778 198.628 216.787 198.12 216.573C197.611 216.358 197.852 215.849 198.28 215.126C198.708 214.403 198.708 214.376 198.708 214.376C198.789 213.974 198.815 213.841 198.387 213.599Z" fill="#FF9F73"/>
<path d="M184.606 225.331C184.606 225.331 188.111 226.028 189.316 227.126C190.52 228.224 191.67 230.555 192.099 231.197C192.58 231.921 191.617 232.296 191.135 231.867C191.242 232.081 191.323 232.242 191.403 232.376C191.563 232.724 191.296 233.126 190.921 233.072C190.306 233.019 189.851 232.563 189.449 231.894C189.53 232.751 188.78 232.644 188.325 232.001C187.978 231.465 187.978 230.769 187.442 230.287C186.8 229.831 185.917 230.072 185.087 229.965C183.856 229.831 182.759 229.403 181.742 228.653C183.054 225.653 184.606 225.331 184.606 225.331Z" fill="#FF9F73"/>
<path d="M195.337 211.617C195.337 211.617 196.782 210.626 197.692 211.537C198.173 211.992 197.906 214.59 197.263 214.617C196.621 214.644 196.568 214.028 196.594 213.09C196.621 212.153 196.621 212.153 196.621 212.153C196.514 211.724 195.925 211.67 195.337 211.617Z" fill="#FF9F73"/>
<path d="M178.585 196.483C178.531 195.733 177.969 195.09 177.273 194.795C176.577 194.501 175.775 194.501 175.025 194.635C175.346 195.037 175.106 195.733 174.597 195.894C174.33 195.974 173.982 195.947 173.875 196.188C173.741 196.429 173.982 196.724 174.249 196.858C175.186 197.313 176.283 197.019 177.22 197.501C177.514 197.662 177.808 197.876 178.103 197.662C178.451 197.447 178.611 196.885 178.585 196.483Z" fill="#FFD91F"/>
<path d="M172.537 196.189C172.858 196.028 173.179 195.814 173.473 195.572C173.527 195.519 173.607 195.465 173.661 195.385C173.714 195.305 173.741 195.224 173.714 195.144C173.955 195.331 174.169 195.519 174.41 195.68C174.463 195.733 174.517 195.76 174.544 195.814C174.597 195.921 174.57 196.028 174.49 196.108C174.437 196.189 174.33 196.242 174.223 196.296C173.714 196.51 173.125 196.483 172.59 196.43" fill="#FFD91F"/>
<path d="M222.307 190.034C221.558 190.195 220.675 190.516 219.952 190.998C220.006 190.57 220.032 190.141 219.952 189.739C219.604 188.025 217.463 188.507 216.393 189.123C214.6 190.168 213.048 191.587 211.844 193.302C211.924 192.82 211.415 192.418 210.961 192.391C210.479 192.364 210.051 192.605 209.623 192.82C208.659 193.328 207.91 194.132 207 194.534C207 194.534 215.189 194.453 222.494 194.453C222.468 193.436 222.361 190.462 222.307 190.034Z" fill="white"/>
</g>
<g filter="url(#filter0_b_30_16435)">
<path d="M220.048 179.736H241.536C243.63 179.736 245.328 181.434 245.328 183.528V226.504C245.328 228.598 243.63 230.296 241.536 230.296H220.048V179.736Z" fill="black" fill-opacity="0.24"/>
</g>
<path d="M230.792 203.752H227C226.651 203.752 226.368 204.035 226.368 204.384C226.368 204.733 226.651 205.016 227 205.016H230.792C231.141 205.016 231.424 204.733 231.424 204.384C231.424 204.035 231.141 203.752 230.792 203.752ZM233.32 201.224H227C226.651 201.224 226.368 201.507 226.368 201.856C226.368 202.205 226.651 202.488 227 202.488H233.32C233.669 202.488 233.952 202.205 233.952 201.856C233.952 201.507 233.669 201.224 233.32 201.224ZM233.32 204.89C233.324 204.345 233.378 204.209 234.095 204.637C234.095 204.647 237.503 206.87 237.498 206.87C238.547 207.425 238.547 207.658 237.503 208.234C237.503 208.245 234.095 210.477 234.095 210.477C233.371 210.907 233.323 210.688 233.32 210.119L233.32 204.89ZM230.792 206.28C231.141 206.28 231.424 206.563 231.424 206.912C231.424 207.261 231.141 207.544 230.792 207.544H227C226.651 207.544 226.368 207.261 226.368 206.912C226.368 206.563 226.651 206.28 227 206.28H230.792Z" fill="white"/>
</g>
<path d="M253.87 194.988H256.65C258.165 194.988 259.064 194.242 259.064 192.993V192.983C259.064 192.045 258.447 191.379 257.474 191.255V191.176C258.161 191.053 258.704 190.381 258.704 189.646V189.636C258.704 188.549 257.904 187.863 256.595 187.863H253.87V194.988ZM256.408 188.648C257.292 188.648 257.805 189.068 257.805 189.789V189.799C257.805 190.549 257.257 190.934 256.181 190.934H254.759V188.648H256.408ZM256.432 191.7C257.568 191.7 258.151 192.119 258.151 192.939V192.949C258.151 193.768 257.588 194.203 256.516 194.203H254.759V191.7H256.432ZM262.577 195.082C263.831 195.082 264.592 194.371 264.774 193.65L264.784 193.61H263.925L263.905 193.655C263.762 193.976 263.318 194.316 262.597 194.316C261.649 194.316 261.042 193.675 261.017 192.573H264.848V192.238C264.848 190.648 263.97 189.571 262.523 189.571C261.076 189.571 260.138 190.697 260.138 192.341V192.346C260.138 194.015 261.056 195.082 262.577 195.082ZM262.518 190.337C263.303 190.337 263.886 190.835 263.975 191.887H261.032C261.126 190.875 261.728 190.337 262.518 190.337ZM268.357 195.082C269.635 195.082 270.351 194.395 270.569 193.433L270.579 193.378L269.729 193.383L269.719 193.413C269.522 194.005 269.068 194.321 268.352 194.321C267.404 194.321 266.791 193.536 266.791 192.312V192.302C266.791 191.102 267.394 190.332 268.352 190.332C269.117 190.332 269.591 190.756 269.724 191.28L269.729 191.295H270.583L270.579 191.265C270.421 190.317 269.645 189.571 268.352 189.571C266.861 189.571 265.913 190.648 265.913 192.302V192.312C265.913 194 266.866 195.082 268.357 195.082ZM274.008 195.082C275.262 195.082 276.022 194.371 276.205 193.65L276.215 193.61H275.356L275.336 193.655C275.193 193.976 274.748 194.316 274.028 194.316C273.08 194.316 272.472 193.675 272.448 192.573H276.279V192.238C276.279 190.648 275.4 189.571 273.953 189.571C272.507 189.571 271.569 190.697 271.569 192.341V192.346C271.569 194.015 272.487 195.082 274.008 195.082ZM273.949 190.337C274.734 190.337 275.316 190.835 275.405 191.887H272.462C272.556 190.875 273.159 190.337 273.949 190.337ZM281.101 194.988H281.96V189.665H281.101V191.867H278.464V189.665H277.605V194.988H278.464V192.578H281.101V194.988ZM287.043 194.988H287.902V189.665H287.043V191.867H284.406V189.665H283.547V194.988H284.406V192.578H287.043V194.988ZM291.667 195.082C292.921 195.082 293.682 194.371 293.864 193.65L293.874 193.61H293.015L292.995 193.655C292.852 193.976 292.408 194.316 291.687 194.316C290.739 194.316 290.131 193.675 290.107 192.573H293.938V192.238C293.938 190.648 293.059 189.571 291.613 189.571C290.166 189.571 289.228 190.697 289.228 192.341V192.346C289.228 194.015 290.146 195.082 291.667 195.082ZM291.608 190.337C292.393 190.337 292.975 190.835 293.064 191.887H290.122C290.215 190.875 290.818 190.337 291.608 190.337ZM297.442 195.082C298.696 195.082 299.456 194.371 299.639 193.65L299.649 193.61H298.789L298.77 193.655C298.627 193.976 298.182 194.316 297.461 194.316C296.513 194.316 295.906 193.675 295.881 192.573H299.713V192.238C299.713 190.648 298.834 189.571 297.387 189.571C295.941 189.571 295.002 190.697 295.002 192.341V192.346C295.002 194.015 295.921 195.082 297.442 195.082ZM297.382 190.337C298.167 190.337 298.75 190.835 298.839 191.887H295.896C295.99 190.875 296.592 190.337 297.382 190.337ZM305.974 195.082C307.49 195.082 308.428 194.035 308.428 192.332V192.322C308.428 190.613 307.49 189.571 305.974 189.571C304.458 189.571 303.52 190.613 303.52 192.322V192.332C303.52 194.035 304.458 195.082 305.974 195.082ZM305.974 194.321C304.966 194.321 304.399 193.586 304.399 192.332V192.322C304.399 191.063 304.966 190.332 305.974 190.332C306.981 190.332 307.549 191.063 307.549 192.322V192.332C307.549 193.586 306.981 194.321 305.974 194.321ZM311.97 195.087C313.506 195.087 314.449 194.04 314.449 192.351V192.341C314.449 190.737 313.531 189.715 312.099 189.715C311.294 189.715 310.657 190.06 310.297 190.697H310.218L310.232 190.589C310.43 189.137 310.968 188.559 312.207 188.505L312.751 188.48C313.368 188.451 313.931 188.322 314.098 188.164V187.404C313.639 187.592 313.136 187.671 312.711 187.69L312.178 187.715C310.277 187.804 309.492 189.009 309.492 191.833V191.843C309.492 193.976 310.341 195.087 311.97 195.087ZM311.97 194.326C310.953 194.326 310.371 193.6 310.371 192.351V192.341C310.371 191.151 310.953 190.475 311.97 190.475C312.988 190.475 313.57 191.151 313.57 192.341V192.351C313.57 193.6 312.988 194.326 311.97 194.326ZM315.78 196.765H316.639V194.149H316.718C317.009 194.716 317.646 195.082 318.377 195.082C319.73 195.082 320.609 194 320.609 192.332V192.322C320.609 190.663 319.725 189.571 318.377 189.571C317.636 189.571 317.044 189.922 316.718 190.515H316.639V189.665H315.78V196.765ZM318.179 194.321C317.212 194.321 316.619 193.561 316.619 192.332V192.322C316.619 191.092 317.212 190.332 318.179 190.332C319.152 190.332 319.73 191.082 319.73 192.322V192.332C319.73 193.571 319.152 194.321 318.179 194.321ZM323.411 195.082C324.127 195.082 324.685 194.771 325.02 194.203H325.099V194.988H325.959V191.344C325.959 190.238 325.233 189.571 323.934 189.571C322.799 189.571 321.989 190.134 321.851 190.969L321.846 190.998H322.705L322.71 190.984C322.848 190.569 323.268 190.332 323.905 190.332C324.699 190.332 325.099 190.687 325.099 191.344V191.828L323.574 191.922C322.334 191.996 321.633 192.544 321.633 193.492V193.502C321.633 194.469 322.399 195.082 323.411 195.082ZM322.512 193.482V193.472C322.512 192.944 322.868 192.657 323.677 192.608L325.099 192.519V193.003C325.099 193.763 324.462 194.336 323.589 194.336C322.971 194.336 322.512 194.02 322.512 193.482ZM327.521 194.988H334.138V196.395H334.957V194.277H334.098V189.665H333.239V194.277H331.239V189.665H330.38V194.277H328.38V189.665H327.521V194.988ZM338.149 195.082C339.404 195.082 340.164 194.371 340.347 193.65L340.356 193.61H339.497L339.478 193.655C339.334 193.976 338.89 194.316 338.169 194.316C337.221 194.316 336.614 193.675 336.589 192.573H340.421V192.238C340.421 190.648 339.542 189.571 338.095 189.571C336.648 189.571 335.71 190.697 335.71 192.341V192.346C335.71 194.015 336.629 195.082 338.149 195.082ZM338.09 190.337C338.875 190.337 339.458 190.835 339.547 191.887H336.604C336.698 190.875 337.3 190.337 338.09 190.337ZM345.242 194.988H346.101V189.665H345.242V191.867H342.606V189.665H341.746V194.988H342.606V192.578H345.242V194.988ZM347.689 194.988H348.548L351.18 191.018H351.259V194.988H352.118V189.665H351.259L348.627 193.635H348.548V189.665H347.689V194.988ZM355.888 195.082C357.142 195.082 357.902 194.371 358.085 193.65L358.095 193.61H357.236L357.216 193.655C357.073 193.976 356.628 194.316 355.907 194.316C354.959 194.316 354.352 193.675 354.327 192.573H358.159V192.238C358.159 190.648 357.28 189.571 355.833 189.571C354.387 189.571 353.449 190.697 353.449 192.341V192.346C353.449 194.015 354.367 195.082 355.888 195.082ZM355.828 190.337C356.614 190.337 357.196 190.835 357.285 191.887H354.342C354.436 190.875 355.038 190.337 355.828 190.337ZM364.351 194.988H365.23L367.856 187.863H366.923L364.83 193.837H364.751L362.657 187.863H361.724L364.351 194.988ZM369.004 194.988H369.893V192.499L370.747 191.556L373.32 194.988H374.47L371.36 190.939L374.209 187.863H373.093L369.972 191.324H369.893V187.863H369.004V194.988Z" fill="black"/>
<path d="M256.121 208.02C257.774 208.02 258.777 206.837 258.777 204.991V204.983C258.777 203.13 257.766 201.959 256.121 201.959C254.485 201.959 253.466 203.126 253.466 204.983V204.991C253.466 206.841 254.461 208.02 256.121 208.02ZM256.121 207.354C254.918 207.354 254.204 206.424 254.204 204.991V204.983C254.204 203.539 254.942 202.625 256.121 202.625C257.305 202.625 258.039 203.539 258.039 204.983V204.991C258.039 206.424 257.309 207.354 256.121 207.354ZM261.818 207.964C263.066 207.964 263.832 207.114 263.832 205.742V205.734C263.832 204.43 263.086 203.599 261.922 203.599C261.268 203.599 260.751 203.88 260.458 204.398H260.394L260.406 204.309C260.566 203.13 261.004 202.661 262.011 202.617L262.452 202.596C262.953 202.572 263.411 202.468 263.547 202.34V201.722C263.174 201.874 262.765 201.939 262.42 201.955L261.986 201.975C260.442 202.047 259.804 203.026 259.804 205.32V205.328C259.804 207.062 260.494 207.964 261.818 207.964ZM261.818 207.346C260.992 207.346 260.518 206.757 260.518 205.742V205.734C260.518 204.767 260.992 204.217 261.818 204.217C262.644 204.217 263.118 204.767 263.118 205.734V205.742C263.118 206.757 262.644 207.346 261.818 207.346ZM267.832 207.884H268.53V203.559H267.832V205.349H265.689V203.559H264.991V207.884H265.689V205.926H267.832V207.884ZM271.683 207.96C272.914 207.96 273.677 207.11 273.677 205.726V205.718C273.677 204.33 272.914 203.483 271.683 203.483C270.451 203.483 269.689 204.33 269.689 205.718V205.726C269.689 207.11 270.451 207.96 271.683 207.96ZM271.683 207.342C270.864 207.342 270.403 206.745 270.403 205.726V205.718C270.403 204.695 270.864 204.101 271.683 204.101C272.501 204.101 272.963 204.695 272.963 205.718V205.726C272.963 206.745 272.501 207.342 271.683 207.342ZM274.836 207.884H276.677C277.608 207.884 278.158 207.394 278.158 206.644V206.636C278.158 206.135 277.809 205.75 277.259 205.673V205.609C277.664 205.525 277.965 205.12 277.965 204.691V204.683C277.965 204.005 277.488 203.559 276.669 203.559H274.836V207.884ZM275.534 205.389V204.137H276.569C277.055 204.137 277.271 204.386 277.271 204.755V204.763C277.271 205.172 277.018 205.389 276.457 205.389H275.534ZM275.534 207.306V205.966H276.517C277.139 205.966 277.448 206.167 277.448 206.624V206.632C277.448 207.066 277.179 207.306 276.649 207.306H275.534ZM280.312 206.191L280.472 204.137H281.977V207.884H282.675V203.559H279.847L279.662 206.135C279.618 206.777 279.458 207.278 279.06 207.278C278.956 207.278 278.848 207.262 278.812 207.25V207.88C278.868 207.9 278.98 207.924 279.129 207.924C279.851 207.924 280.22 207.382 280.312 206.191ZM284.897 202.693C285.138 202.693 285.339 202.492 285.339 202.247C285.339 202.007 285.138 201.806 284.897 201.806C284.653 201.806 284.452 202.007 284.452 202.247C284.452 202.492 284.653 202.693 284.897 202.693ZM286.667 202.693C286.911 202.693 287.112 202.492 287.112 202.247C287.112 202.007 286.911 201.806 286.667 201.806C286.426 201.806 286.225 202.007 286.225 202.247C286.225 202.492 286.426 202.693 286.667 202.693ZM285.816 207.96C286.835 207.96 287.453 207.382 287.601 206.797L287.609 206.765H286.911L286.895 206.801C286.779 207.062 286.418 207.338 285.832 207.338C285.062 207.338 284.568 206.817 284.548 205.922H287.661V205.649C287.661 204.358 286.947 203.483 285.772 203.483C284.597 203.483 283.834 204.398 283.834 205.734V205.738C283.834 207.094 284.58 207.96 285.816 207.96ZM285.768 204.105C286.406 204.105 286.879 204.51 286.951 205.365H284.56C284.637 204.542 285.126 204.105 285.768 204.105ZM291.661 207.884H292.359V203.559H291.661V205.349H289.519V203.559H288.821V207.884H289.519V205.926H291.661V207.884ZM297.418 207.884H298.14V202.095H297.422L295.882 203.202V203.964L297.354 202.897H297.418V207.884ZM301.715 208.02C302.89 208.02 303.728 207.206 303.728 206.039V206.03C303.728 204.911 302.946 204.097 301.859 204.097C301.333 204.097 300.88 204.309 300.623 204.699H300.559L300.756 202.741H303.407V202.095H300.186L299.881 205.421H300.507C300.579 205.284 300.671 205.172 300.772 205.076C301.021 204.839 301.349 204.723 301.735 204.723C302.485 204.723 303.022 205.272 303.022 206.043V206.051C303.022 206.833 302.493 207.382 301.723 207.382C301.045 207.382 300.543 206.941 300.475 206.388L300.471 206.355H299.777L299.781 206.4C299.865 207.326 300.635 208.02 301.715 208.02ZM307.941 207.884V204.807H308.017L309.377 207.764H309.914L311.278 204.807H311.355V207.884H312.053V203.559H311.242L309.694 206.913H309.63L308.089 203.559H307.243V207.884H307.941ZM313.429 207.884H314.127L316.265 204.658H316.329V207.884H317.027V203.559H316.329L314.191 206.785H314.127V203.559H313.429V207.884ZM321.244 207.884H321.942V203.559H321.244V205.349H319.101V203.559H318.403V207.884H319.101V205.926H321.244V207.884ZM323.687 209.4C324.453 209.4 324.81 209.12 325.167 208.149L326.856 203.559H326.122L324.938 207.118H324.874L323.687 203.559H322.941L324.541 207.888L324.461 208.145C324.305 208.642 324.064 208.823 323.667 208.823C323.57 208.823 323.462 208.819 323.378 208.803V209.376C323.474 209.392 323.594 209.4 323.687 209.4ZM330.828 203.559H327.329V204.137H328.729V207.884H329.427V204.137H330.828V203.559ZM336.986 207.884H337.684V203.559H336.986V205.349H334.843V203.559H334.145V207.884H334.843V205.926H336.986V207.884ZM340.247 207.96C340.829 207.96 341.282 207.707 341.555 207.246H341.619V207.884H342.317V204.923C342.317 204.025 341.727 203.483 340.672 203.483C339.75 203.483 339.092 203.94 338.979 204.618L338.975 204.642H339.673L339.677 204.63C339.79 204.293 340.131 204.101 340.648 204.101C341.294 204.101 341.619 204.39 341.619 204.923V205.316L340.379 205.393C339.373 205.453 338.803 205.898 338.803 206.668V206.676C338.803 207.463 339.425 207.96 340.247 207.96ZM339.517 206.66V206.652C339.517 206.223 339.806 205.99 340.464 205.95L341.619 205.878V206.271C341.619 206.889 341.102 207.354 340.392 207.354C339.89 207.354 339.517 207.098 339.517 206.66ZM345.141 207.964C346.148 207.964 346.842 207.415 346.842 206.612V206.604C346.842 206.123 346.541 205.778 345.972 205.653V205.589C346.401 205.489 346.686 205.092 346.686 204.654V204.646C346.686 203.956 346.132 203.479 345.165 203.479C344.283 203.479 343.649 203.92 343.549 204.614L343.545 204.642H344.227L344.231 204.622C344.299 204.277 344.672 204.057 345.165 204.057C345.719 204.057 346.004 204.33 346.004 204.699V204.707C346.004 205.156 345.695 205.377 345.141 205.377H344.467V205.954H345.141C345.803 205.954 346.156 206.171 346.156 206.64V206.648C346.156 207.078 345.779 207.386 345.141 207.386C344.616 207.386 344.231 207.162 344.142 206.809L344.134 206.777H343.424L343.428 206.809C343.517 207.507 344.219 207.964 345.141 207.964ZM349.193 207.96C349.775 207.96 350.228 207.707 350.501 207.246H350.565V207.884H351.263V204.923C351.263 204.025 350.674 203.483 349.618 203.483C348.696 203.483 348.038 203.94 347.926 204.618L347.922 204.642H348.62L348.624 204.63C348.736 204.293 349.077 204.101 349.594 204.101C350.24 204.101 350.565 204.39 350.565 204.923V205.316L349.326 205.393C348.319 205.453 347.749 205.898 347.749 206.668V206.676C347.749 207.463 348.371 207.96 349.193 207.96ZM348.463 206.66V206.652C348.463 206.223 348.752 205.99 349.41 205.95L350.565 205.878V206.271C350.565 206.889 350.048 207.354 349.338 207.354C348.836 207.354 348.463 207.098 348.463 206.66ZM352.716 209.027V207.884H356.097V209.027H356.747V207.306H356.057V203.559H353.109L352.94 205.97C352.9 206.552 352.744 207.098 352.427 207.306H352.066V209.027H352.716ZM355.359 207.306H353.233V207.242C353.438 206.973 353.55 206.512 353.59 205.986L353.726 204.137H355.359V207.306Z" fill="#818C99"/>
<path d="M254.974 221.412H255.696V215.623H254.978L253.438 216.73V217.492L254.91 216.425H254.974V221.412ZM259.339 221.508C260.498 221.508 261.349 220.794 261.349 219.827V219.819C261.349 218.997 260.775 218.471 259.932 218.399V218.383C260.655 218.231 261.16 217.741 261.16 217.027V217.019C261.16 216.14 260.434 215.527 259.331 215.527C258.248 215.527 257.501 216.157 257.409 217.099L257.405 217.139H258.099L258.103 217.099C258.163 216.514 258.649 216.153 259.331 216.153C260.037 216.153 260.434 216.502 260.434 217.107V217.115C260.434 217.693 259.953 218.118 259.263 218.118H258.569V218.728H259.295C260.105 218.728 260.614 219.125 260.614 219.835V219.843C260.614 220.457 260.097 220.882 259.339 220.882C258.569 220.882 258.043 220.489 257.987 219.92L257.983 219.879H257.289L257.293 219.928C257.369 220.842 258.143 221.508 259.339 221.508ZM264.871 221.412H266.712C267.643 221.412 268.193 220.922 268.193 220.172V220.164C268.193 219.663 267.844 219.278 267.294 219.201V219.137C267.699 219.053 268 218.648 268 218.219V218.211C268 217.533 267.523 217.087 266.704 217.087H264.871V221.412ZM265.569 218.917V217.665H266.604C267.089 217.665 267.306 217.914 267.306 218.283V218.291C267.306 218.7 267.053 218.917 266.492 218.917H265.569ZM265.569 220.834V219.494H266.552C267.174 219.494 267.483 219.695 267.483 220.152V220.16C267.483 220.593 267.214 220.834 266.684 220.834H265.569ZM269.372 221.412H270.07L272.208 218.186H272.273V221.412H272.971V217.087H272.273L270.134 220.313H270.07V217.087H269.372V221.412ZM274.447 222.555V221.412H277.829V222.555H278.479V220.834H277.789V217.087H274.84L274.672 219.498C274.631 220.08 274.475 220.626 274.158 220.834H273.797V222.555H274.447ZM277.091 220.834H274.964V220.77C275.169 220.501 275.281 220.04 275.321 219.514L275.458 217.665H277.091V220.834ZM281.154 221.488C282.173 221.488 282.791 220.91 282.94 220.325L282.948 220.293H282.25L282.234 220.329C282.117 220.589 281.756 220.866 281.171 220.866C280.4 220.866 279.907 220.345 279.887 219.45H283V219.177C283 217.886 282.286 217.011 281.11 217.011C279.935 217.011 279.173 217.926 279.173 219.262V219.266C279.173 220.622 279.919 221.488 281.154 221.488ZM281.106 217.633C281.744 217.633 282.218 218.038 282.29 218.893H279.899C279.975 218.07 280.464 217.633 281.106 217.633ZM285.94 221.488C287.172 221.488 287.934 220.638 287.934 219.254V219.246C287.934 217.857 287.172 217.011 285.94 217.011C284.709 217.011 283.947 217.857 283.947 219.246V219.254C283.947 220.638 284.709 221.488 285.94 221.488ZM285.94 220.87C285.122 220.87 284.661 220.273 284.661 219.254V219.246C284.661 218.223 285.122 217.629 285.94 217.629C286.759 217.629 287.22 218.223 287.22 219.246V219.254C287.22 220.273 286.759 220.87 285.94 220.87Z" fill="#818C99"/>
<g clip-path="url(#clip12_30_16435)">
<rect x="155.584" y="237.88" width="89.744" height="50.56" rx="3.792" fill="#FFDC6B"/>
<rect x="155.742" y="238.038" width="89.428" height="50.244" rx="3.634" stroke="black" stroke-opacity="0.08" stroke-width="0.316"/>
<path d="M198.529 250.199L188.6 255.607C187.748 254.23 187.06 253.083 186.601 251.707V251.674C186.568 251.609 186.568 251.576 186.568 251.51C186.535 251.445 186.535 251.412 186.535 251.346V251.314C186.011 249.184 186.929 246.922 188.797 245.776C190.009 245.055 191.517 244.629 193.188 244.792C194.105 244.989 194.892 245.382 195.58 245.94C195.711 246.038 195.809 246.136 195.94 246.234C197.218 247.381 198.07 248.921 198.529 250.2V250.199Z" fill="#171B4D"/>
<path d="M199.119 264.749C201.478 265.11 203.641 266.421 205.083 268.321C208.884 273.401 215.373 283.231 210.883 284.444C208.851 285.001 207.147 285.001 204.493 285.001C200.135 287.36 191.189 287.033 190.074 286.017C189.648 283.592 185.863 284.623 185.863 284.623C185.863 284.623 186.077 266.388 187.453 265.405C189.878 263.701 195.416 264.159 199.119 264.749Z" fill="#CC61FA"/>
<path d="M196.727 258.133C201.107 255.887 203.446 251.703 201.952 248.789C200.457 245.874 195.695 245.332 191.314 247.578C186.934 249.824 184.595 254.008 186.09 256.923C187.584 259.838 192.347 260.379 196.727 258.133Z" fill="#171B4D"/>
<path d="M192.336 249.675C190.206 250.101 188.829 251.412 187.813 254.427C187.191 256.197 186.666 256.098 186.404 257.409C185.978 259.539 189.354 262.456 193.352 262.03C194.203 261.931 194.728 261.145 196.104 261.8C197.153 262.325 200.135 261.407 201.642 259.211C202.462 258.032 202.298 257.114 201.151 255.41C200.266 254.099 201.413 253.608 200.856 251.248C199.742 246.399 192.762 247.84 192.336 249.675Z" fill="#00DC7F"/>
<path d="M191.517 259.408C191.648 260.981 191.287 263.046 190.698 264.422C193.483 266.257 199.25 267.666 197.35 265.044C196.694 264.028 196.596 262.03 196.793 260.522C195.547 260.391 194.302 260.26 193.09 260.129" fill="#FF9F73"/>
<path d="M191.418 261.571C192.303 262.488 197.579 261.8 195.94 261.8C194.302 261.8 191.91 259.998 191.91 259.998C191.91 259.998 191.517 259.178 191.484 259.604C191.582 260.096 191.418 261.571 191.418 261.571Z" fill="#E8683C"/>
<path d="M200.594 266.748C201.151 267.666 205.28 277.792 201.315 277.89C198.824 277.923 193.581 265.831 188.928 264.717C188.928 264.717 189.256 264.454 190.894 264.225C192.368 264.717 194.793 266.486 196.923 266.027C197.841 265.831 197.153 264.553 197.087 264.389C198.562 264.487 199.447 264.684 200.594 266.748Z" fill="white"/>
<path d="M199.873 255.246C200.528 258.752 200.037 261.341 196.498 261.931C193.745 262.39 191.517 260.129 190.501 257.966C188.469 258.261 187.814 256.196 188.502 255.508C188.862 255.115 189.354 255.082 189.747 255.115C190.337 255.181 190.927 254.951 191.254 254.46C191.844 253.64 192.664 252.264 193.384 250.658C198.89 249.315 199.873 255.246 199.873 255.246V255.246Z" fill="#FF9F73"/>
<path d="M197.876 258.145C197.62 258.556 197.268 259.094 196.435 259.031C195.475 258.936 194.386 258.049 194.706 257.543C194.738 257.48 194.802 257.448 194.835 257.385C195.186 257.163 196.115 257.258 197.428 257.416C197.588 257.416 197.748 257.511 197.844 257.606C197.972 257.701 198.004 257.891 197.876 258.145Z" fill="white"/>
<path d="M197.964 255.438C198.287 255.397 198.51 255.058 198.462 254.681C198.415 254.304 198.114 254.032 197.791 254.073C197.468 254.113 197.244 254.452 197.292 254.829C197.34 255.206 197.64 255.479 197.964 255.438ZM196.563 256.426C196.498 256.426 196.432 256.393 196.399 256.295C196.367 256.197 196.399 256.098 196.498 256.066C196.727 255.967 196.793 255.935 196.825 255.902C196.793 255.869 196.76 255.803 196.727 255.771C196.596 255.64 196.399 255.443 196.301 255.115C196.268 255.017 196.334 254.919 196.432 254.886C196.53 254.853 196.629 254.919 196.661 255.017C196.727 255.246 196.891 255.41 196.989 255.541C197.12 255.672 197.251 255.803 197.186 256C197.153 256.197 196.923 256.295 196.563 256.426C196.596 256.426 196.596 256.426 196.563 256.426ZM194.335 253.051C194.564 253.411 193.155 253.804 192.827 253.509C192.631 253.346 192.827 253.083 193.352 252.887C193.81 252.756 194.237 252.854 194.335 253.051ZM198.66 253.083C198.726 253.444 197.383 253.313 197.251 253.083C197.12 252.854 197.219 252.657 197.809 252.657C198.234 252.624 198.595 252.854 198.66 253.083ZM192.762 255.279C192.762 255.213 192.991 255.213 193.221 255.213C193.384 255.213 193.679 254.656 194.4 254.787C194.99 254.886 195.154 255.312 195.121 255.377C195.056 255.476 194.368 255.246 193.974 255.377C193.679 255.476 193.614 255.607 193.352 255.639C193.188 255.639 192.729 255.443 192.762 255.279Z" fill="#171B4D"/>
<path d="M173.217 263.904C170.694 264.592 168.236 267.312 166.761 269.474C162.862 275.111 158.929 282.681 163.976 285.007C166.073 285.958 169.219 286.449 173.479 285.171C178.296 287.53 184.097 287.072 185.243 285.925C186.653 283.631 187.177 282.222 187.177 282.222C187.177 282.222 190.945 265.542 189.405 264.592C185.309 262.068 177.608 262.724 173.217 263.904Z" fill="#2787F5"/>
<path d="M183.801 254.892L173.217 250.96C173.643 248.797 175.019 245.847 177.739 244.864C179.378 244.438 180.918 244.668 182.229 245.192C184.326 246.077 185.538 248.305 185.243 250.534C185.047 252.074 184.49 253.352 183.801 254.892Z" fill="#171B4D"/>
<path d="M182.949 251.353C181.376 245.552 173.61 241.522 170.89 244.668C169.842 245.88 170.628 249.911 173.446 251.812C175.937 253.483 182.95 251.353 182.95 251.353H182.949Z" fill="#171B4D"/>
<path d="M180.099 248.272C181.737 249.321 183.113 251.582 184.031 252.926C185.309 254.532 185.768 257.743 181.737 259.25C181.475 260.823 178.493 258.202 176.887 258.202C173.676 258.235 173.774 255.777 174.692 254.499C175.74 253.024 172.43 254.335 172.136 252.401C170.727 246.438 178.001 246.667 180.099 248.273L180.099 248.272Z" fill="#FF5D36"/>
<path d="M182.294 256.694C181.704 258.038 182.622 262.363 182.687 263.216C182.622 263.543 182.064 263.904 181.835 264.035C179.017 265.378 176.461 264.919 176.166 263.281C176.559 262.331 176.527 261.118 176.232 258.529C177.477 258.398 179.017 258.496 180.262 258.333" fill="#FF9F73"/>
<path d="M176.461 261.151C180.033 261.086 181.475 258.169 180.066 259.021C178.657 259.84 176.298 259.48 176.298 259.48L176.461 261.151Z" fill="#E8683C"/>
<path d="M173.119 254.106C172.988 257.677 173.807 260.135 177.412 260.233C180.197 260.299 182.72 257.481 182.917 255.449C184.49 255.154 185.08 253.68 184.424 252.991C183.736 252.303 182.556 252.631 181.868 252.5C181.377 252.402 181.344 251.68 180.394 250.337C179.214 248.633 176.822 248.109 175.085 249.288C172.857 250.796 173.119 254.106 173.119 254.106Z" fill="#FF9F73"/>
<path d="M175.478 256.662C175.216 256.334 175.413 256.072 175.74 256.006C176.822 255.744 177.739 255.515 178.034 255.646C178.657 255.973 177.772 256.957 176.92 257.186C176.232 257.383 175.708 256.989 175.478 256.662Z" fill="white"/>
<path d="M176.592 254.794H176.527C176.166 254.728 175.937 254.63 175.871 254.433C175.806 254.269 175.904 254.106 176.002 253.942C176.101 253.811 176.232 253.614 176.265 253.385C176.282 253.337 176.313 253.296 176.354 253.267C176.395 253.237 176.444 253.221 176.494 253.221C176.541 253.238 176.583 253.269 176.612 253.31C176.641 253.351 176.657 253.4 176.658 253.45C176.592 253.778 176.461 253.974 176.33 254.138C176.297 254.171 176.265 254.237 176.232 254.269C176.265 254.302 176.363 254.335 176.592 254.401C176.691 254.433 176.756 254.532 176.723 254.63C176.723 254.728 176.658 254.794 176.592 254.794Z" fill="#171B4D"/>
<path d="M173.971 251.713C173.905 252.074 175.249 251.942 175.38 251.68C175.511 251.451 175.413 251.255 174.822 251.255C174.397 251.255 174.036 251.484 173.971 251.713Z" fill="#FF5D36"/>
<path d="M175.609 252.271C175.74 252.434 175.937 254.663 174.462 254.99C173.741 255.154 172.43 255.285 172.037 254.761C171.415 253.909 171.48 252.696 171.841 252.5C172.201 252.271 175.478 252.107 175.609 252.271ZM181.246 252.27C181.377 252.434 181.442 254.663 179.935 254.925C179.214 255.056 177.903 255.121 177.542 254.564C176.986 253.679 177.117 252.467 177.477 252.303C177.87 252.074 181.114 252.074 181.246 252.27Z" fill="#171B4D"/>
<path d="M172.037 270.72C171.12 273.046 169.12 278.224 168.793 279.568C174.79 279.568 176.821 279.83 180 280.157L182.916 270.064C179.607 269.147 176.428 268.917 173.839 269.31C173.02 269.409 172.332 269.966 172.037 270.72H172.037Z" fill="white"/>
<path d="M172.103 252.401C174.921 252.074 179.247 252.008 182.524 252.172C182.819 252.238 183.114 252.369 183.408 252.532L181.835 252.598C181.508 252.598 181.377 252.827 181.278 253.09L180.033 252.532L177.182 253.253C176.953 253.057 176.134 252.827 175.675 253.286L174.561 253.385C174.561 253.385 173.512 252.795 172.66 253.155C172.529 253.221 172.332 253.417 172.267 253.483C171.709 253.909 172.103 252.401 172.103 252.401Z" fill="#171B4D"/>
<path d="M175.085 263.707C175.085 263.642 175.544 262.167 176.428 262.101C176.297 262.855 176.527 263.314 177.346 263.478C179.935 263.969 182.491 263.019 182.556 262.495C182.556 262.331 182.458 261.708 182.458 261.708C183.048 261.708 183.834 262.429 183.736 263.084C183.638 263.74 183.408 264.264 181.639 264.723C179.869 265.182 179.148 266.001 178.165 265.673C177.182 265.378 176.232 264.526 176.101 264.297C175.969 264.067 175.085 263.707 175.085 263.707ZM163.517 276.52C163.812 276.356 167.712 276.487 169.514 277.241C169.94 277.405 174.528 278.355 177.575 279.142C179.017 279.502 180.82 278.191 180.263 280.026C179.935 281.042 170.727 280.714 170.727 280.714L163.255 278.093L163.517 276.52Z" fill="#2787F5"/>
<path d="M178.296 251.386C178.132 251.779 179.542 251.976 179.837 251.648C180 251.451 179.804 251.222 179.214 251.091C178.788 251.025 178.395 251.189 178.296 251.386Z" fill="#FF5D36"/>
<g filter="url(#filter1_b_30_16435)">
<path d="M220.048 237.88H241.536C243.63 237.88 245.328 239.578 245.328 241.672V284.648C245.328 286.742 243.63 288.44 241.536 288.44H220.048V237.88Z" fill="black" fill-opacity="0.24"/>
</g>
<path d="M230.792 261.896H227C226.651 261.896 226.368 262.179 226.368 262.528C226.368 262.877 226.651 263.16 227 263.16H230.792C231.141 263.16 231.424 262.877 231.424 262.528C231.424 262.179 231.141 261.896 230.792 261.896ZM233.32 259.368H227C226.651 259.368 226.368 259.651 226.368 260C226.368 260.349 226.651 260.632 227 260.632H233.32C233.669 260.632 233.952 260.349 233.952 260C233.952 259.651 233.669 259.368 233.32 259.368ZM233.32 263.034C233.324 262.489 233.378 262.353 234.095 262.781C234.095 262.791 237.503 265.014 237.498 265.014C238.547 265.569 238.547 265.803 237.503 266.378C237.503 266.389 234.095 268.621 234.095 268.621C233.371 269.051 233.323 268.832 233.32 268.263L233.32 263.034ZM230.792 264.424C231.141 264.424 231.424 264.707 231.424 265.056C231.424 265.405 231.141 265.688 230.792 265.688H227C226.651 265.688 226.368 265.405 226.368 265.056C226.368 264.707 226.651 264.424 227 264.424H230.792Z" fill="white"/>
</g>
<path d="M253.87 253.132H254.759V249.888H258.669V253.132H259.558V246.007H258.669V249.088H254.759V246.007H253.87V253.132ZM263.451 253.226C264.967 253.226 265.905 252.179 265.905 250.476V250.466C265.905 248.757 264.967 247.716 263.451 247.716C261.935 247.716 260.997 248.757 260.997 250.466V250.476C260.997 252.179 261.935 253.226 263.451 253.226ZM263.451 252.465C262.444 252.465 261.876 251.73 261.876 250.476V250.466C261.876 249.207 262.444 248.476 263.451 248.476C264.458 248.476 265.026 249.207 265.026 250.466V250.476C265.026 251.73 264.458 252.465 263.451 252.465ZM267.231 253.132H269.497C270.643 253.132 271.319 252.53 271.319 251.606V251.596C271.319 250.979 270.89 250.505 270.213 250.411V250.332C270.712 250.229 271.082 249.73 271.082 249.202V249.192C271.082 248.357 270.495 247.809 269.487 247.809H267.231V253.132ZM268.09 250.061V248.52H269.364C269.961 248.52 270.228 248.827 270.228 249.281V249.291C270.228 249.794 269.917 250.061 269.226 250.061H268.09ZM268.09 252.421V250.772H269.3C270.065 250.772 270.445 251.019 270.445 251.582V251.592C270.445 252.125 270.114 252.421 269.463 252.421H268.09ZM274.813 253.226C276.328 253.226 277.267 252.179 277.267 250.476V250.466C277.267 248.757 276.328 247.716 274.813 247.716C273.297 247.716 272.359 248.757 272.359 250.466V250.476C272.359 252.179 273.297 253.226 274.813 253.226ZM274.813 252.465C273.805 252.465 273.238 251.73 273.238 250.476V250.466C273.238 249.207 273.805 248.476 274.813 248.476C275.82 248.476 276.388 249.207 276.388 250.466V250.476C276.388 251.73 275.82 252.465 274.813 252.465ZM281.999 248.52V247.809H278.592V253.132H279.451V248.52H281.999ZM285.236 253.226C286.752 253.226 287.69 252.179 287.69 250.476V250.466C287.69 248.757 286.752 247.716 285.236 247.716C283.72 247.716 282.782 248.757 282.782 250.466V250.476C282.782 252.179 283.72 253.226 285.236 253.226ZM285.236 252.465C284.229 252.465 283.661 251.73 283.661 250.476V250.466C283.661 249.207 284.229 248.476 285.236 248.476C286.243 248.476 286.811 249.207 286.811 250.466V250.476C286.811 251.73 286.243 252.465 285.236 252.465ZM289.09 254.539V253.132H293.252V254.539H294.052V252.421H293.203V247.809H289.574L289.366 250.777C289.317 251.493 289.124 252.164 288.734 252.421H288.29V254.539H289.09ZM292.343 252.421H289.727V252.342C289.978 252.011 290.117 251.443 290.166 250.797L290.334 248.52H292.343V252.421ZM298.562 253.132H299.421V247.809H298.562V250.012H295.926V247.809H295.067V253.132H295.926V250.723H298.562V253.132ZM301.009 253.132H301.868L304.5 249.162H304.579V253.132H305.438V247.809H304.579L301.947 251.779H301.868V247.809H301.009V253.132ZM309.247 247.069C310.264 247.069 310.941 246.368 310.941 245.449H310.171C310.171 245.987 309.83 246.486 309.247 246.486C308.675 246.486 308.324 245.987 308.324 245.449H307.554C307.554 246.368 308.23 247.069 309.247 247.069ZM307.03 253.132H307.889L310.521 249.162H310.6V253.132H311.459V247.809H310.6L307.968 251.779H307.889V247.809H307.03V253.132ZM316.654 253.132V249.345H316.748L318.421 252.984H319.083L320.762 249.345H320.856V253.132H321.715V247.809H320.717L318.811 251.937H318.732L316.836 247.809H315.795V253.132H316.654ZM323.766 254.998C324.709 254.998 325.149 254.653 325.588 253.458L327.667 247.809H326.763L325.307 252.189H325.228L323.766 247.809H322.848L324.818 253.137L324.719 253.453C324.527 254.065 324.23 254.287 323.742 254.287C323.623 254.287 323.49 254.282 323.386 254.263V254.969C323.505 254.989 323.653 254.998 323.766 254.998ZM329.847 251.048L330.044 248.52H331.896V253.132H332.755V247.809H329.274L329.047 250.979C328.993 251.769 328.795 252.386 328.306 252.386C328.178 252.386 328.045 252.367 328 252.352V253.127C328.069 253.152 328.208 253.181 328.39 253.181C329.279 253.181 329.733 252.515 329.847 251.048ZM334.343 253.132H336.244C337.463 253.132 338.243 252.431 338.243 251.33V251.32C338.243 250.219 337.463 249.518 336.244 249.518H335.202V247.809H334.343V253.132ZM336.244 250.229C336.94 250.229 337.384 250.658 337.384 251.32V251.33C337.384 251.987 336.945 252.421 336.244 252.421H335.202V250.229H336.244ZM342.828 247.809H338.522V248.52H340.245V253.132H341.105V248.52H342.828V247.809Z" fill="black"/>
<path d="M256.121 266.164C257.774 266.164 258.777 264.981 258.777 263.136V263.128C258.777 261.274 257.766 260.103 256.121 260.103C254.485 260.103 253.466 261.27 253.466 263.128V263.136C253.466 264.985 254.461 266.164 256.121 266.164ZM256.121 265.498C254.918 265.498 254.204 264.568 254.204 263.136V263.128C254.204 261.683 254.942 260.769 256.121 260.769C257.305 260.769 258.039 261.683 258.039 263.128V263.136C258.039 264.568 257.309 265.498 256.121 265.498ZM261.818 266.108C263.066 266.108 263.832 265.258 263.832 263.886V263.878C263.832 262.574 263.086 261.743 261.922 261.743C261.268 261.743 260.751 262.024 260.458 262.542H260.394L260.406 262.454C260.566 261.274 261.004 260.805 262.011 260.761L262.452 260.741C262.953 260.716 263.411 260.612 263.547 260.484V259.866C263.174 260.018 262.765 260.083 262.42 260.099L261.986 260.119C260.442 260.191 259.804 261.17 259.804 263.465V263.473C259.804 265.206 260.494 266.108 261.818 266.108ZM261.818 265.49C260.992 265.49 260.518 264.901 260.518 263.886V263.878C260.518 262.911 260.992 262.361 261.818 262.361C262.644 262.361 263.118 262.911 263.118 263.878V263.886C263.118 264.901 262.644 265.49 261.818 265.49ZM267.832 266.028H268.53V261.703H267.832V263.493H265.689V261.703H264.991V266.028H265.689V264.07H267.832V266.028ZM271.683 266.104C272.914 266.104 273.677 265.254 273.677 263.87V263.862C273.677 262.474 272.914 261.627 271.683 261.627C270.451 261.627 269.689 262.474 269.689 263.862V263.87C269.689 265.254 270.451 266.104 271.683 266.104ZM271.683 265.486C270.864 265.486 270.403 264.889 270.403 263.87V263.862C270.403 262.839 270.864 262.245 271.683 262.245C272.501 262.245 272.963 262.839 272.963 263.862V263.87C272.963 264.889 272.501 265.486 271.683 265.486ZM274.836 266.028H276.677C277.608 266.028 278.158 265.539 278.158 264.788V264.78C278.158 264.279 277.809 263.894 277.259 263.818V263.753C277.664 263.669 277.965 263.264 277.965 262.835V262.827C277.965 262.149 277.488 261.703 276.669 261.703H274.836V266.028ZM275.534 263.533V262.281H276.569C277.055 262.281 277.271 262.53 277.271 262.899V262.907C277.271 263.316 277.018 263.533 276.457 263.533H275.534ZM275.534 265.45V264.11H276.517C277.139 264.11 277.448 264.311 277.448 264.768V264.776C277.448 265.21 277.179 265.45 276.649 265.45H275.534ZM280.312 264.335L280.472 262.281H281.977V266.028H282.675V261.703H279.847L279.662 264.279C279.618 264.921 279.458 265.422 279.06 265.422C278.956 265.422 278.848 265.406 278.812 265.394V266.024C278.868 266.044 278.98 266.068 279.129 266.068C279.851 266.068 280.22 265.527 280.312 264.335ZM284.897 260.837C285.138 260.837 285.339 260.636 285.339 260.392C285.339 260.151 285.138 259.95 284.897 259.95C284.653 259.95 284.452 260.151 284.452 260.392C284.452 260.636 284.653 260.837 284.897 260.837ZM286.667 260.837C286.911 260.837 287.112 260.636 287.112 260.392C287.112 260.151 286.911 259.95 286.667 259.95C286.426 259.95 286.225 260.151 286.225 260.392C286.225 260.636 286.426 260.837 286.667 260.837ZM285.816 266.104C286.835 266.104 287.453 265.527 287.601 264.941L287.609 264.909H286.911L286.895 264.945C286.779 265.206 286.418 265.482 285.832 265.482C285.062 265.482 284.568 264.961 284.548 264.066H287.661V263.793C287.661 262.502 286.947 261.627 285.772 261.627C284.597 261.627 283.834 262.542 283.834 263.878V263.882C283.834 265.238 284.58 266.104 285.816 266.104ZM285.768 262.249C286.406 262.249 286.879 262.654 286.951 263.509H284.56C284.637 262.686 285.126 262.249 285.768 262.249ZM291.661 266.028H292.359V261.703H291.661V263.493H289.519V261.703H288.821V266.028H289.519V264.07H291.661V266.028ZM296.74 266.028V262.951H296.816L298.176 265.908H298.714L300.078 262.951H300.154V266.028H300.852V261.703H300.042L298.493 265.057H298.429L296.888 261.703H296.042V266.028H296.74ZM303.997 266.104C305.016 266.104 305.634 265.527 305.782 264.941L305.79 264.909H305.092L305.076 264.945C304.96 265.206 304.599 265.482 304.013 265.482C303.243 265.482 302.75 264.961 302.73 264.066H305.843V263.793C305.843 262.502 305.129 261.627 303.953 261.627C302.778 261.627 302.015 262.542 302.015 263.878V263.882C302.015 265.238 302.762 266.104 303.997 266.104ZM303.949 262.249C304.587 262.249 305.06 262.654 305.133 263.509H302.742C302.818 262.686 303.307 262.249 303.949 262.249ZM308.775 266.104C309.814 266.104 310.396 265.547 310.572 264.764L310.58 264.72L309.89 264.724L309.882 264.748C309.722 265.23 309.353 265.486 308.771 265.486C308.001 265.486 307.503 264.849 307.503 263.854V263.846C307.503 262.871 307.993 262.245 308.771 262.245C309.393 262.245 309.778 262.59 309.886 263.015L309.89 263.027H310.584L310.58 263.003C310.452 262.233 309.822 261.627 308.771 261.627C307.56 261.627 306.789 262.502 306.789 263.846V263.854C306.789 265.226 307.564 266.104 308.775 266.104ZM313.894 266.028H314.592V261.703H313.088C312.097 261.703 311.463 262.245 311.463 263.132V263.14C311.463 263.729 311.832 264.179 312.442 264.351L311.234 266.028H312.057L313.16 264.479H313.894V266.028ZM313.088 263.902C312.522 263.902 312.177 263.577 312.177 263.124V263.116C312.177 262.594 312.518 262.281 313.088 262.281H313.894V263.902H313.088ZM319.486 267.171H320.152V265.45H319.462V261.703H318.764V265.45H316.662V261.703H315.964V266.028H319.486V267.171ZM326.21 266.028H326.908V261.703H326.21V263.493H324.068V261.703H323.37V266.028H324.068V264.07H326.21V266.028ZM329.472 266.104C330.053 266.104 330.507 265.851 330.779 265.39H330.844V266.028H331.542V263.067C331.542 262.169 330.952 261.627 329.897 261.627C328.974 261.627 328.316 262.084 328.204 262.762L328.2 262.787H328.898L328.902 262.775C329.014 262.438 329.355 262.245 329.873 262.245C330.519 262.245 330.844 262.534 330.844 263.067V263.461L329.604 263.537C328.597 263.597 328.027 264.042 328.027 264.812V264.82C328.027 265.607 328.649 266.104 329.472 266.104ZM328.741 264.804V264.796C328.741 264.367 329.03 264.134 329.688 264.094L330.844 264.022V264.415C330.844 265.033 330.326 265.498 329.616 265.498C329.115 265.498 328.741 265.242 328.741 264.804ZM334.366 266.108C335.373 266.108 336.067 265.559 336.067 264.756V264.748C336.067 264.267 335.766 263.922 335.196 263.797V263.733C335.626 263.633 335.91 263.236 335.91 262.799V262.791C335.91 262.101 335.357 261.623 334.39 261.623C333.507 261.623 332.874 262.064 332.773 262.758L332.769 262.787H333.451L333.455 262.766C333.523 262.421 333.897 262.201 334.39 262.201C334.944 262.201 335.228 262.474 335.228 262.843V262.851C335.228 263.3 334.92 263.521 334.366 263.521H333.692V264.098H334.366C335.028 264.098 335.381 264.315 335.381 264.784V264.792C335.381 265.222 335.004 265.531 334.366 265.531C333.84 265.531 333.455 265.306 333.367 264.953L333.359 264.921H332.649L332.653 264.953C332.741 265.651 333.443 266.108 334.366 266.108ZM338.418 266.104C338.999 266.104 339.453 265.851 339.726 265.39H339.79V266.028H340.488V263.067C340.488 262.169 339.898 261.627 338.843 261.627C337.92 261.627 337.262 262.084 337.15 262.762L337.146 262.787H337.844L337.848 262.775C337.96 262.438 338.301 262.245 338.819 262.245C339.465 262.245 339.79 262.534 339.79 263.067V263.461L338.55 263.537C337.543 263.597 336.974 264.042 336.974 264.812V264.82C336.974 265.607 337.595 266.104 338.418 266.104ZM337.688 264.804V264.796C337.688 264.367 337.976 264.134 338.634 264.094L339.79 264.022V264.415C339.79 265.033 339.272 265.498 338.562 265.498C338.061 265.498 337.688 265.242 337.688 264.804ZM341.94 267.171V266.028H345.322V267.171H345.972V265.45H345.282V261.703H342.333L342.165 264.114C342.125 264.696 341.968 265.242 341.651 265.45H341.29V267.171H341.94ZM344.584 265.45H342.458V265.386C342.662 265.117 342.774 264.656 342.815 264.13L342.951 262.281H344.584V265.45Z" fill="#818C99"/>
</g>
</g>
</g>
<path d="M195.383 22.353H191V9.60144H340.033V22.353H336.048C333.848 22.353 332.064 24.137 332.064 26.3378V27.5333C332.064 35.456 325.641 41.8787 317.718 41.8787H213.714C205.791 41.8787 199.368 35.456 199.368 27.5333V26.3378C199.368 24.137 197.584 22.353 195.383 22.353Z" fill="#222222"/>
<path d="M240.412 29.1272C240.412 27.8068 241.483 26.7363 242.803 26.7363H276.276C277.596 26.7363 278.667 27.8068 278.667 29.1272C278.667 30.4477 277.596 31.5181 276.276 31.5181H242.803C241.483 31.5181 240.412 30.4477 240.412 29.1272Z" fill="#3C3C3C"/>
<path d="M289.824 29.1272C289.824 30.4477 288.754 31.5181 287.433 31.5181C286.113 31.5181 285.042 30.4477 285.042 29.1272C285.042 27.8068 286.113 26.7363 287.433 26.7363C288.754 26.7363 289.824 27.8068 289.824 29.1272Z" fill="#3C3C3C"/>
</g>
<rect x="141.376" y="16.3758" width="250.248" height="527.248" rx="33.6242" stroke="#222222" stroke-width="12.7515"/>
</g>
<defs>
<filter id="filter0_b_30_16435" x="202.868" y="162.556" width="59.6391" height="84.9191" filterUnits="userSpaceOnUse" color-interpolation-filters="sRGB">
<feFlood flood-opacity="0" result="BackgroundImageFix"/>
<feGaussianBlur in="BackgroundImage" stdDeviation="8.58977"/>
<feComposite in2="SourceAlpha" operator="in" result="effect1_backgroundBlur_30_16435"/>
<feBlend mode="normal" in="SourceGraphic" in2="effect1_backgroundBlur_30_16435" result="shape"/>
</filter>
<filter id="filter1_b_30_16435" x="202.868" y="220.701" width="59.6391" height="84.9191" filterUnits="userSpaceOnUse" color-interpolation-filters="sRGB">
<feFlood flood-opacity="0" result="BackgroundImageFix"/>
<feGaussianBlur in="BackgroundImage" stdDeviation="8.58977"/>
<feComposite in2="SourceAlpha" operator="in" result="effect1_backgroundBlur_30_16435"/>
<feBlend mode="normal" in="SourceGraphic" in2="effect1_backgroundBlur_30_16435" result="shape"/>
</filter>
<clipPath id="clip0_30_16435">
<rect width="534" height="272" fill="white"/>
</clipPath>
<clipPath id="clip1_30_16435">
<rect width="396" height="272" fill="white" transform="translate(69)"/>
</clipPath>
<clipPath id="clip2_30_16435">
<rect x="135" y="10" width="263" height="540" rx="40" fill="white"/>
</clipPath>
<clipPath id="clip3_30_16435">
<rect x="148" y="23" width="237" height="513.184" rx="8.848" fill="white"/>
</clipPath>
<clipPath id="clip4_30_16435">
<rect width="237" height="534.672" fill="white" transform="translate(148 23)"/>
</clipPath>
<clipPath id="clip5_30_16435">
<rect x="148" y="23" width="237" height="60.672" fill="white"/>
</clipPath>
<clipPath id="clip6_30_16435">
<rect x="156.848" y="58.392" width="17.696" height="17.696" rx="8.848" fill="white"/>
</clipPath>
<clipPath id="clip7_30_16435">
<rect width="237" height="474" fill="white" transform="translate(148 83.672)"/>
</clipPath>
<clipPath id="clip8_30_16435">
<rect width="53.088" height="53.088" fill="white" transform="translate(155.584 87.464)"/>
</clipPath>
<clipPath id="clip9_30_16435">
<rect x="155.584" y="91.256" width="45.504" height="45.504" rx="22.752" fill="white"/>
</clipPath>
<clipPath id="clip10_30_16435">
<rect width="97.328" height="58.144" fill="white" transform="translate(155.584 175.944)"/>
</clipPath>
<clipPath id="clip11_30_16435">
<rect width="92" height="45" fill="white" transform="translate(145 188)"/>
</clipPath>
<clipPath id="clip12_30_16435">
<rect width="97.328" height="58.144" fill="white" transform="translate(155.584 234.088)"/>
</clipPath>
</defs>
</svg>
